<?xml version="1.0" encoding="UTF-8" standalone="no"?>
<svg
   xmlns:osb="http://www.openswatchbook.org/uri/2009/osb"
   xmlns:dc="http://purl.org/dc/elements/1.1/"
   xmlns:cc="http://creativecommons.org/ns#"
   xmlns:rdf="http://www.w3.org/1999/02/22-rdf-syntax-ns#"
   xmlns:svg="http://www.w3.org/2000/svg"
   xmlns="http://www.w3.org/2000/svg"
   xmlns:sodipodi="http://sodipodi.sourceforge.net/DTD/sodipodi-0.dtd"
   xmlns:inkscape="http://www.inkscape.org/namespaces/inkscape"
   width="150"
   height="380"
   viewBox="0 0 39.6875 100.54166"
   version="1.1"
   id="svg12553"
   sodipodi:docname="CLACOS.svg"
   inkscape:version="0.92.3 (2405546, 2018-03-11)">
  <sodipodi:namedview
     pagecolor="#ffffff"
     bordercolor="#666666"
     borderopacity="1"
     objecttolerance="10"
     gridtolerance="10"
     guidetolerance="10"
     inkscape:pageopacity="0"
     inkscape:pageshadow="2"
     inkscape:window-width="3568"
     inkscape:window-height="1618"
     id="namedview116"
     showgrid="false"
     inkscape:zoom="4.968421"
     inkscape:cx="4.5123112"
     inkscape:cy="78.541481"
     inkscape:window-x="0"
     inkscape:window-y="0"
     inkscape:window-maximized="0"
     inkscape:current-layer="svg12553" />
  <defs
     id="defs12547">
    <linearGradient
       osb:paint="solid"
       id="linearGradient4708">
      <stop
         id="stop4706"
         offset="0"
         style="stop-color:#ececec;stop-opacity:1;" />
    </linearGradient>
    <filter
       id="filter4696"
       style="color-interpolation-filters:sRGB">
      <feColorMatrix
         id="feColorMatrix4692"
         result="colormatrix"
         values="0 0 0 0 1 0 0 0 0 0 0 0 0 0 0 1 0 0 0 0 0 "
         in="SourceGraphic" />
      <feBlend
         id="feBlend4694"
         result="fbSourceGraphic"
         mode="multiply"
         in2="BackgroundImage" />
      <feColorMatrix
         id="feColorMatrix4762"
         values="0 0 0 -1 0 0 0 0 -1 0 0 0 0 -1 0 0 0 0 1 0"
         in="fbSourceGraphic"
         result="fbSourceGraphicAlpha" />
      <feColorMatrix
         in="fbSourceGraphic"
         result="colormatrix"
         values="1 0 0 0 0 0 1 0 0 0 0 0 1 0 0 0 0 0 5 -1 "
         id="feColorMatrix4764" />
      <feComposite
         k4="0"
         k3="0"
         k1="0"
         result="composite"
         k2="0.3"
         operator="arithmetic"
         id="feComposite4766"
         in2="colormatrix" />
    </filter>
  </defs>
  <metadata
     id="metadata12550">
    <rdf:RDF>
      <cc:Work
         rdf:about="">
        <dc:format>image/svg+xml</dc:format>
        <dc:type
           rdf:resource="http://purl.org/dc/dcmitype/StillImage" />
        <dc:title />
      </cc:Work>
    </rdf:RDF>
  </metadata>
  <g
     id="layer1"
     transform="matrix(0.33311212,0,0,1.0012215,-8.8858231,-161.56849)">
    <path
       id="path33453"
       d="M 26.616839,161.37987 H 145.85344 v 100.3961 H 26.616839 Z m 0,0"
       style="fill:#e6e6e6;fill-opacity:1;fill-rule:nonzero;stroke:none;stroke-width:0.32258889"
       inkscape:connector-curvature="0" />
  </g>
  <path
     id="path893"
     d="M 0.35108055,68.201813 C -0.0685277,61.013732 0.47529155,53.788706 -0.0938876,46.604372 0.0074731,41.486743 0.88062165,36.450959 0.98796045,31.326877 1.7425454,27.018892 1.8235448,22.490955 2.9984911,18.319627 3.3803155,16.432142 5.9445952,12.797064 4.2188392,16.657005 2.6490962,20.642338 2.3429956,25.234984 1.735318,29.57371 1.3493508,33.215064 1.3483206,37.046295 0.93489385,40.753017 c -0.5335525,3.393614 0.10477805,6.5616 0.43560685,10.255583 1.1225845,2.973251 -0.3643952,9.43259 2.6287239,9.92537 2.2471576,1.408171 2.8308898,4.899495 0.3288298,6.192965 -0.3622295,6.274224 6.2223886,2.372752 5.641147,-1.869678 C 8.0030056,62.700226 8.1806886,58.752412 9.7264844,56.1604 12.025368,54.970317 5.6611505,49.875287 7.843486,53.881524 c 1.2083808,5.394517 -5.1578984,4.946999 -4.8845188,-0.22734 0.22475,-2.309192 2.2248524,-3.243981 2.2442686,-5.681626 2.0931676,-2.588281 4.6757396,-0.307873 6.1821842,1.519257 1.8532,1.269404 2.919809,4.300579 4.318375,6.225679 0.928449,-0.659643 -1.685386,-4.96233 0.905443,-2.380504 1.188583,3.165907 3.414381,2.213081 1.275435,-0.707456 0.283819,-4.331936 -4.177944,-5.753669 -5.768112,-9.418293 -2.3728856,-2.090344 -5.4626252,-2.752724 -7.581918,-5.557894 2.2921444,-4.2017 6.702446,-0.0055 9.176497,1.708136 2.228868,-0.463955 -2.971439,-4.365167 -0.745232,-6.161288 1.718329,-0.943258 4.543367,-0.804796 3.466134,-4.13796 1.783214,-1.06571 4.714535,4.456896 5.185561,-0.158212 1.777821,0.375955 -0.80872,-0.530618 -0.110687,-1.841649 -0.317534,-2.702843 -4.936837,-3.910649 -4.143459,-6.07838 1.500168,1.028478 1.993423,-0.299172 0.960003,-1.23729 2.076368,-0.780409 1.799502,-0.946204 0.419154,-1.866617 0.735753,-1.523277 -1.658916,-2.321215 0.674164,-2.282011 -0.05415,-2.845802 -4.453928,-3.733644 -4.555556,-5.37964 1.621371,1.176544 4.184023,1.291454 4.542112,1.230494 -0.226346,0.856181 1.848214,-0.425174 1.992001,1.161206 4.726708,-1.280133 -5.727585,-6.8852822 0.518173,-5.9747423 2.646803,0.4082231 4.22783,-2.6788592 6.514678,-2.3157731 3.330842,0.9320457 0.538906,3.927549 0.519759,6.1390594 -0.492853,1.637882 1.716265,-1.2224832 0.895923,1.487331 -2.990538,1.466154 -1.689887,5.20461 -3.112878,7.751174 -2.392741,3.016176 -1.292603,7.90333 -1.84013,11.900388 -2.375895,3.005214 -0.41833,7.278112 -2.65699,10.644204 -0.738729,3.527081 -3.587279,6.89046 -2.316942,10.521615 0.08069,2.81304 3.300172,-5.070638 1.94911,-0.710801 -1.17238,2.361367 -1.588508,6.413826 -2.740386,6.566693 -0.836663,2.713149 -0.474024,6.424083 -0.741931,8.629802 1.894083,0.397538 2.855945,-5.641478 2.352381,-0.997651 0.149665,1.196855 -1.753747,6.949407 -1.007746,5.68703 1.122629,-1.284483 1.451383,-2.497509 1.757244,-3.894281 1.577417,0.156004 -0.604781,3.177011 1.317443,1.90751 3.958371,1.101472 -2.463639,2.407202 -3.474992,3.672553 -1.236972,2.089391 -3.0648,3.112603 -3.860501,0.08788 -0.154046,1.422302 -0.948916,6.17643 -1.962362,2.219744 0.184755,-2.294933 -1.754616,-5.50738 -2.609135,-2.064631 1.563866,1.833759 0.98613,6.11215 3.20607,7.610299 1.410152,-1.228415 2.760053,-4.193389 3.221356,0.03487 0.162466,2.028263 0.457887,5.171379 0.772887,1.079253 0.930281,-3.194252 1.172977,-6.631662 3.752249,-8.599046 1.278249,1.09841 -2.844928,2.641456 -0.550342,4.883769 0.489368,1.833753 -0.170067,7.911704 0.720748,2.84931 -0.172001,-2.347163 -0.261701,-3.115007 1.490571,-1.769916 -0.160992,1.720443 0.602975,4.36844 1.478797,2.236565 -1.820002,-1.684232 -1.386233,-6.342544 -1.711695,-9.063901 2.168881,-0.117198 3.069078,7.452779 3.552729,2.504957 0.739904,1.514987 0.467684,7.116286 1.640093,6.243075 -1.136512,-0.27916 1.324486,-5.385165 0.364062,-1.227251 -0.287573,1.810281 1.271495,-0.972952 1.332488,0.60269 -0.213444,-1.989292 1.991064,0.08373 1.842973,-0.14548 0.864079,2.277996 0.773452,-5.45504 2.29641,-1.845551 -0.634248,1.828284 0.93012,-0.223139 1.38726,0.269357 0.193296,2.86163 5.750033,1.15825 4.382487,-0.452329 -1.654704,0.662464 -4.821063,-6.084867 -1.278184,-6.640038 3.965139,-2.62402 1.237623,6.925628 3.04852,8.548007 1.148306,-0.216613 2.708278,-0.493696 2.492043,-1.381223 2.541626,2.775909 1.743091,-3.011658 2.660488,-3.475371 0.607796,1.768818 0.959049,5.563863 1.128888,1.474589 0.126097,-4.554142 0.543785,2.343884 1.250224,2.385252 3.921329,0.563649 4.145944,-4.728764 5.688752,-7.993381 1.949045,-4.247584 1.353846,4.657049 0.661695,6.36441 -2.470323,3.836585 -6.839938,3.348496 -10.085762,5.405083 -0.811886,-1.181135 -3.277402,3.609239 -3.854544,5.382658 -2.490452,2.843823 -4.665365,6.836891 -7.540778,9.507832 -2.522311,4.347461 -7.11355,4.530421 -10.777816,6.424091 -4.612957,1.34557 -9.527647,-1.16494 -13.073366,-4.77807 C 6.8027018,95.910221 5.5315035,89.567616 3.4702142,84.016878 2.0779861,78.881475 0.78505115,73.617474 0.35108055,68.201813 Z M 9.2076738,52.612454 c 0.205846,-1.746506 -0.8419342,-0.610647 0,0 z m 2.8330522,10.820485 c 0.0925,-0.902539 -0.49916,-0.600315 0,0 z m 4.676231,19.970252 c 0.565354,-0.685757 -0.980462,-0.553124 0,0 z M 15.300591,64.84514 c 0.331058,-1.010038 -0.983691,-0.939041 0,0 z m 1.55594,8.145663 c 0.462413,-3.183535 -0.673389,-0.348699 0,0 z m 2.797028,10.328039 c 0.513811,2.497629 2.575574,-3.404641 0.09962,-2.053265 -0.362283,-3.543646 -1.242463,1.436998 -0.09962,2.053265 z M 15.664936,58.545373 c 0.550796,-1.305307 -0.622287,-1.328928 0,0 z m 0.64458,-11.639299 c 2.218863,2.227087 -1.691547,-3.594943 -0.452637,-0.60762 z m 6.728816,33.754512 c -0.220932,-0.551924 -1.236793,-0.202818 0,0 z m 3.610648,0.0074 c 0.236429,-0.783357 -1.278755,0.15109 -0.220226,0.244353 z M 19.243415,35.708592 c 0.0925,-0.902544 -0.499157,-0.600313 0,0 z m 0.621008,-18.871264 c 2.099561,-0.04913 -1.453795,-1.916252 0,0 z m 5.354629,-0.913561 c 0.594679,-0.552599 -0.809131,-0.405568 0,0 z m 12.938387,71.916365 c 1.024784,-2.817805 -1.155634,1.003874 -2e-6,10e-7 z M 27.297252,14.051272 c 0.594678,-0.552598 -0.80913,-0.405567 0,0 z M 26.412008,5.9065905 c 0.730495,-0.8302218 -0.840512,-0.2189841 0,0 z M 40.105963,82.491346 c 0.751754,-0.260392 -0.826727,-0.602171 0,0 z m 14.181329,-4.512969 c 0.812257,-1.90151 -0.53289,-1.275869 0,0 z m 0.415539,-2.938686 c -0.02266,-1.436171 2.647553,-5.140641 0.439479,-2.256985 -0.144821,0.238847 -1.143211,2.370004 -0.439479,2.256985 z m -41.894174,2.2027 c 1.161535,0.654283 -0.176869,2.467683 0,0 z M 8.0735086,16.099148 C 9.8893074,13.833743 16.28997,20.195381 12.035505,19.367516 10.757609,18.63433 8.2063426,18.121677 8.0735086,16.099148 Z m 1.9048928,9.327679 c 2.1576046,0.272126 1.6071706,2.602623 -0.08266,0.67352 l -0.191364,-0.504323 0.27403,-0.169188 z M 9.1693538,20.16458 C 10.70852,18.514568 11.125245,23.121465 12.936964,22.964652 11.645279,23.725347 9.1241608,21.983714 9.1693538,20.16458 Z m 5.3075242,6.964483 c 1.03776,1.147736 -0.686536,1.13106 0,0 z m 8.122374,50.185212 c 0.93155,0.412025 -0.706624,0.608267 0,0 z M 21.193925,60.517051 c 1.198754,-0.364782 -0.595609,1.578311 0,0 z m 2.295432,2.470095 c 1.359984,-1.550823 2.60129,7.322751 0.763932,4.813578 -0.311566,-1.586783 -0.629126,-3.185782 -0.763932,-4.813578 z m 1.34663,6.746487 c 0.919923,-1.67019 0.642407,-2.179253 2.543571,-2.597005 0.171314,-1.905386 -0.10722,-4.262249 0.741718,-1.046775 0.59426,2.201283 -3.930243,3.842337 -0.640228,3.607271 -0.07515,1.522027 2.98931,-0.443446 1.069736,2.1347 -0.656188,-1.333711 -4.75055,0.08931 -3.714797,-2.098191 z m 2.868254,-2.341202 c 0.730495,-0.830228 -0.840513,-0.21898 0,0 z M 19.366609,27.02338 c 2.451646,-1.301552 0.74248,2.134703 0,0 z m 6.505667,39.750334 c 1.0229,-1.027247 -0.261057,1.477516 0,0 z M 23.094205,47.477982 c 1.214792,-0.651498 3.184035,-3.267192 3.259555,-1.397526 2.16557,-2.777523 -2.274306,5.074185 -3.402941,1.80617 l 0.143388,-0.40864 z m 1.287305,5.567674 c 1.472808,-2.662968 -0.645869,3.023584 0,0 z m 0.312315,4.217595 c 1.417247,-0.787291 1.820889,3.507206 0.502399,0.933883 0.217735,1.635938 -0.832365,-0.449199 -0.502399,-0.933883 z m 1.093825,2.69598 c 1.966349,-0.820342 0.735735,5.563457 0.276075,1.973237 -0.255252,-0.602522 -0.286332,-1.307206 -0.276075,-1.973237 z M 18.226141,8.6140682 c 1.78545,0.104257 2.13171,3.5617908 0.08694,1.0407652 C 18.080699,9.4203578 17.943012,8.8869842 18.226141,8.6140682 Z M 30.172069,79.072736 c 2.560697,-0.03342 -1.292862,1.591726 0,0 z M 27.965847,60.983557 c -0.262422,-2.689862 1.464426,-5.210701 1.9706,-1.070494 0.724039,1.597549 0.703376,7.308027 -0.07145,6.922089 -0.372684,-2.787434 -0.125719,-4.042702 -1.962751,-4.983974 l 0.06361,-0.86762 z M 27.44689,54.636128 c 0.873647,-3.294719 2.380197,2.259544 0.04546,1.786607 -0.161354,-0.570905 -0.170696,-1.203398 -0.04546,-1.786607 z m 3.804065,24.34755 c 1.281079,-1.319308 0.915546,2.137405 0,0 z m 0.213739,-2.617992 c 0.467551,1.561992 -0.356642,0.110685 0,0 z M 27.5243,46.04102 c 1.351886,-2.116242 -0.03935,2.115058 0,0 z m 3.465647,17.802391 c -0.204634,-2.730321 1.587576,-3.592672 1.113137,-0.331356 -0.414096,1.733321 -1.413489,4.98896 -1.113137,0.331356 z m 0.581788,4.852057 c 1.737126,-0.701544 2.562486,-1.949376 0.51636,-2.537642 2.207254,1.30709 2.339687,-6.232711 2.887478,-1.466513 0.190352,2.642963 3.035241,4.863198 -0.610876,5.512472 -1.446391,1.764258 -2.851666,0.413274 -2.792962,-1.508317 z m 2.626172,5.970307 c 1.271414,-2.785098 2.449317,2.73671 -0.0415,1.593152 -0.03711,-0.415384 -0.46862,-1.368248 0.0415,-1.593152 z m -5.57236,-36.236266 c 2.46667,-1.006104 3.413768,6.408593 0.822203,1.809346 -0.144147,-0.813178 -1.38093,-0.690509 -0.822203,-1.809346 z m 3.259903,19.197239 c -0.330127,-3.220092 2.598532,-2.616751 1.152778,-0.07882 0.738272,0.757161 -0.957878,4.245994 -1.152778,0.07882 z M 30.514188,47.035444 c 1.73044,-1.796659 0.08067,2.036648 -5e-6,-2.6e-5 z m 6.20524,32.343604 c 0.466765,1.542282 -0.480352,-0.380553 0,0 z M 29.382562,32.285805 c 0.77391,-0.123492 -0.574737,0.954801 0,0 z m -0.677849,-6.694052 c 2.691629,-1.673154 -0.619674,2.698035 0,0 z m 5.468201,33.616835 c 1.588436,-0.217418 -1.407295,0.974351 0,0 z M 32.415008,46.340509 c 0.876308,-1.058376 -0.313762,2.153687 0,0 z m 4.305901,22.926673 c 3.518275,-3.895261 -1.38451,6.626559 0,0 z M 32.597862,40.114124 c 1.00818,1.830828 -0.320474,2.935334 -0.08286,0.04221 z m 1.313366,5.96418 c 0.276269,-1.851871 -0.982216,-5.937168 1.027762,-3.179285 2.117781,1.237069 1.825951,5.740167 -1.041429,3.994559 -0.42607,0.0242 -0.06908,-0.713332 0.01367,-0.815274 z M 31.110622,24.158361 c 0.541841,0.412418 -0.601011,0.762335 0,0 z m 0.179825,1.641734 c 1.239799,-1.490057 0.18996,2.16895 0,0 z m 0.108394,-3.873588 c 0.541841,0.412416 -0.601012,0.762332 0,0 z m 5.028088,29.616433 c 1.028142,-0.344065 2.269494,1.841864 0.503189,2.895793 -0.295113,-0.856966 -0.631459,-1.960167 -0.503189,-2.895793 z m 2.597436,14.252359 c 0.409344,-5.096205 4.714242,3.460993 -0.02739,1.667416 -0.210794,-0.541411 -0.02328,-1.120164 0.02739,-1.667416 z M 36.35698,49.964947 c 0.716922,-0.02432 -0.255225,1.57959 -0.110088,0.264447 z m 1.17533,7.261943 c 0.983104,0.567859 -0.548142,1.659824 0,0 z m 0.566532,2.082129 c 0.981232,-4.833374 1.26858,5.141846 -0.03588,0.484341 z M 33.041305,26.950236 c 1.294963,-0.532256 -0.340914,3.218039 0,0 z m -0.622649,-9.00962 c 0.987989,-0.0185 1.127595,2.350423 0.282341,0.477481 -0.691741,0.717102 -1.293237,-0.355247 -0.282341,-0.477481 z m 5.712942,36.301355 c 1.110763,0.984743 -0.763129,0.714252 0,0 z m 3.882551,23.40653 c 1.426386,-1.391586 0.125543,4.088544 0,0 z M 32.29377,16.054379 c 0.778379,0.06666 -0.876818,0.388434 0,0 z m 7.245622,45.486142 c 0.938709,-3.010918 0.118478,2.285438 0,0 z M 33.573445,23.403716 c 0.77391,-0.123492 -0.574737,0.954801 0,0 z m 4.189022,22.569579 c 2.056687,-1.782042 -1.024854,3.312471 0,0 z M 33.509944,20.788003 c 0.467554,1.561997 -0.356646,0.110667 0,0 z m 0.861419,3.867523 c 2.083788,-1.948272 -0.312997,2.113846 0,0 z M 33.187008,13.993971 c 1.845298,-2.333324 -0.680548,2.687624 0,0 z m 1.613493,8.966038 c 0.95129,0.487399 -0.710933,0.814983 0,0 z M 32.011329,-0.6265851 c 4.90098,0.7600129 -2.827272,2.0926589 0,0 z m 3.972166,22.8859681 c 0.522552,0.148032 -0.549025,1.264776 0,0 z M 34.491683,10.351615 c 1.52215,0.307983 -1.288576,0.851967 0,0 z M 33.322169,2.9197191 c 0.283116,-1.95403425 1.258537,-0.6388711 2.096371,-2.7272712 2.293881,-0.01057 1.933251,1.0640995 3.529391,2.0199514 -0.0868,2.6605386 1.261805,0.881089 2.10485,3.6811095 0.927457,2.4190428 3.945806,7.3128112 2.405677,8.9410072 C 43.259629,13.107578 41.683549,8.7165262 41.968256,13.160322 41.159108,10.3638 40.174022,9.0633188 41.540569,7.0902438 39.483221,5.69757 36.667461,5.7529447 35.05596,5.403901 c 0.80801,-1.706035 3.102839,-6.0876947 0.171467,-2.8827459 -0.427234,1.0965618 -2.078951,3.1635688 -1.905258,0.398564 z m 8.91919,53.0548159 c 0.498009,2.248549 -0.333046,-0.0071 0,0 z M 36.815734,20.698482 c 0.773911,-0.123494 -0.574735,0.954802 0,0 z m 6.574034,39.030227 c 2.023787,1.896825 -0.615531,2.969559 0,0 z M 37.629134,21.711548 c 2.435177,1.595891 -0.569251,3.704276 0,0 z M 36.362297,11.8776 c 0.918536,-1.057064 -0.306564,2.280894 0,0 z m 8.165943,50.269441 c 1.530676,-4.3062 0.611943,6.929373 -0.0444,1.014227 l 0.0047,-0.509387 0.03977,-0.50485 z M 42.225164,41.121909 c 1.480343,-0.844701 -0.105719,2.615145 -10e-7,-3e-6 z M 39.639289,23.489665 c 0.64429,1.077095 -0.583003,1.259013 0,0 z m 7.749824,39.465317 c 0.554855,-3.91137 2.628822,2.525926 0.894434,3.072763 -1.878303,0.354805 -1.561221,-1.782129 -0.894434,-3.072763 z M 43.786826,44.131067 c 0.466736,1.54219 -0.480373,-0.380505 0,0 z m 2.979445,15.701536 c 0.467508,2.26015 -0.154317,0.539998 0,0 z M 42.096543,25.662182 c 0.466736,1.542184 -0.480376,-0.380505 0,0 z M 39.857896,8.7314702 c 0.931553,0.4120246 -0.706624,0.6082686 0,0 z M 45.554373,44.00685 c 1.179143,-0.03257 -0.692055,2.36305 0,0 z M 40.510474,11.404119 c 0.631669,0.905804 -0.687421,0.726156 0,0 z m 7.1614,43.355836 c 0.46674,1.542194 -0.480374,-0.38051 0,0 z m -1.29231,-9.74611 c 0.83361,0.153195 -0.569136,1.276135 0,0 z m 2.47097,11.254609 c 0.773909,-0.123492 -0.574735,0.954801 0,0 z m 1.246589,6.788528 c 0.466739,1.542195 -0.480376,-0.380511 0,0 z M 44.927665,26.68033 c 2.757944,-0.667081 -1.676391,1.585763 0,0 z m 2.907946,17.967149 c 1.166641,1.640702 -0.67922,1.042162 0,0 z m 0.848362,1.27108 c 0.58825,0.676876 -0.536737,1.357102 0,0 z m 3.279972,16.686997 c 0.924084,-0.288487 -0.802047,2.67458 0,0 z m -5.419841,-33.96309 c 1.017979,0.930419 -0.447214,2.701006 0,0 z m 0.42993,3.080216 c 0.466737,1.542187 -0.480374,-0.380504 0,0 z m 2.379134,14.297414 c 0.336395,-1.29697 2.245237,6.603113 0.419058,2.34468 -0.22547,-0.752739 -0.418228,-1.532676 -0.419058,-2.34468 z m 1.842795,6.01433 c 0.922521,-0.08918 -0.367131,1.893181 0,0 z m 0.503714,3.112261 c 0.650411,-0.874751 -0.302833,1.667008 0,0 z M 48.323191,33.072755 c 0.03589,-2.006943 -1.211387,-6.771597 0.899526,-3.007004 2.502397,0.516008 -0.08006,5.991731 1.47721,8.406275 -1.284891,0.596367 -0.554766,-7.282951 -1.617897,-6.876336 0.06248,1.814049 -0.451014,5.279854 -0.758835,1.477063 z m -0.913887,-8.569618 c 1.558775,-4.277224 -0.469749,4.512512 0,0 z m 1.603548,11.075826 c 0.690786,-0.109411 -0.613199,3.357686 0,0 z m 4.58737,24.622812 c 0.793427,-0.222288 -0.647419,1.397308 0,0 z m 0.646781,1.726679 c 0.362446,-1.676873 -1.496564,-8.033855 0.05201,-5.998286 0.01621,2.518762 2.604267,8.33048 0.125463,8.829392 -0.319952,-0.884289 -0.300713,-1.894906 -0.177472,-2.831106 z m -0.957054,-7.232516 c 0.466737,1.542191 -0.480374,-0.380507 0,0 z m -0.25083,-5.419576 c -0.520769,-4.21147 1.403674,-0.07008 0.533207,0.937225 -0.239782,-0.23701 -0.488725,-0.537832 -0.533207,-0.937225 z M 50.732728,33.121836 c 0.932728,1.006456 -0.707792,0.195569 0,0 z m 0.853985,5.318421 c 0.588248,0.676879 -0.53673,1.357098 0,0 z m 2.168295,13.355146 c 0.4771,-0.340096 0.370502,5.028726 0.03391,1.231716 l -0.04266,-0.49146 z M 51.055843,34.204551 c 0.466736,1.542193 -0.480374,-0.380507 0,0 z"
     style="opacity:0.07999998;fill:#000000;stroke-width:0.23694873" />
  <g
     id="text4860"
     style="font-style:normal;font-variant:normal;font-weight:normal;font-stretch:normal;font-size:2.82222223px;line-height:125%;font-family:Sudo;-inkscape-font-specification:'Sudo, Normal';font-variant-ligatures:normal;font-variant-caps:normal;font-variant-numeric:normal;font-feature-settings:normal;text-align:start;letter-spacing:0px;word-spacing:0px;writing-mode:lr-tb;text-anchor:start;fill:#000000;fill-opacity:1;stroke:none;stroke-width:0.26458332px;stroke-linecap:butt;stroke-linejoin:miter;stroke-opacity:1" />
  <g
     id="flowRoot1009"
     style="font-style:normal;font-variant:normal;font-weight:normal;font-stretch:normal;font-size:10.66666698px;line-height:125%;font-family:Sudo;-inkscape-font-specification:'Sudo, Normal';font-variant-ligatures:normal;font-variant-caps:normal;font-variant-numeric:normal;font-feature-settings:normal;text-align:start;letter-spacing:0px;word-spacing:0px;writing-mode:lr-tb;text-anchor:start;fill:#000000;fill-opacity:1;stroke:none;stroke-width:1px;stroke-linecap:butt;stroke-linejoin:miter;stroke-opacity:1" />
  <g
     id="text1002-9-4"
     style="font-style:normal;font-variant:normal;font-weight:normal;font-stretch:normal;font-size:2.82222223px;line-height:125%;font-family:'Arial Rounded MT Bold';-inkscape-font-specification:'Arial Rounded MT Bold, Normal';font-variant-ligatures:normal;font-variant-caps:normal;font-variant-numeric:normal;font-feature-settings:normal;text-align:start;letter-spacing:0px;word-spacing:0px;writing-mode:lr-tb;text-anchor:start;fill:#000000;fill-opacity:1;stroke:none;stroke-width:0.26458332px;stroke-linecap:butt;stroke-linejoin:miter;stroke-opacity:1" />
  <path
     id="path908"
     d="m 7.1863716,14.334896 4.8997994,4.187101 v 5.077974"
     style="fill:none;fill-rule:evenodd;stroke:#000000;stroke-width:0.26458332px;stroke-linecap:butt;stroke-linejoin:miter;stroke-opacity:1" />
  <path
     id="path884"
     d="m 2.8804879,53.591281 4.7958637,0.01484"
     style="fill:none;fill-rule:evenodd;stroke:#000000;stroke-width:0.26458332px;stroke-linecap:butt;stroke-linejoin:miter;stroke-opacity:1" />
  <path
     id="path884-2"
     d="m 22.323948,53.576044 4.795867,0.01484"
     style="fill:none;fill-rule:evenodd;stroke:#000000;stroke-width:0.26458332px;stroke-linecap:butt;stroke-linejoin:miter;stroke-opacity:1" />
  <path
     id="path884-2-6"
     d="m 22.339688,80.871787 4.795867,0.01484"
     style="fill:none;fill-rule:evenodd;stroke:#000000;stroke-width:0.26458332px;stroke-linecap:butt;stroke-linejoin:miter;stroke-opacity:1" />
  <path
     id="path884-2-6-1"
     d="m 2.9032844,80.854979 4.7958634,0.01484"
     style="fill:none;fill-rule:evenodd;stroke:#000000;stroke-width:0.26458332px;stroke-linecap:butt;stroke-linejoin:miter;stroke-opacity:1" />
  <g
     clip-path="none"
     id="g893" />
  <g
     aria-label="clACos"
     style="font-style:normal;font-variant:normal;font-weight:normal;font-stretch:normal;font-size:2.82222223px;line-height:125%;font-family:'DejaVu Sans Mono';-inkscape-font-specification:'DejaVu Sans Mono, Normal';font-variant-ligatures:normal;font-variant-caps:normal;font-variant-numeric:normal;font-feature-settings:normal;text-align:start;letter-spacing:0px;word-spacing:0px;writing-mode:lr-tb;text-anchor:start;fill:#000000;fill-opacity:1;stroke:none;stroke-width:0.26458332px;stroke-linecap:butt;stroke-linejoin:miter;stroke-opacity:1"
     id="text4628"
     transform="translate(0,-1.124125)">
    <path
       d="m 14.909684,5.5186885 q -0.194303,0.093018 -0.370003,0.144694 -0.173633,0.051677 -0.370004,0.051677 -0.250114,0 -0.458886,-0.072347 Q 13.502018,5.5682979 13.35319,5.4194698 13.202295,5.2706417 13.119612,5.0432654 13.03693,4.8158891 13.03693,4.5120317 q 0,-0.5663737 0.310059,-0.8888346 0.312125,-0.3224609 0.822688,-0.3224609 0.198438,0 0.388607,0.055811 0.192236,0.055811 0.3514,0.1364258 v 0.4320149 h -0.02067 Q 14.711247,3.7864951 14.521078,3.712081 14.332976,3.637667 14.153142,3.637667 q -0.330729,0 -0.522966,0.2232422 -0.190169,0.2211751 -0.190169,0.651123 0,0.4175455 0.186035,0.6428548 0.188103,0.2232421 0.5271,0.2232421 0.117822,0 0.239779,-0.031006 0.121956,-0.031006 0.219108,-0.080615 0.08475,-0.043408 0.159163,-0.090951 0.07441,-0.049609 0.117822,-0.084749 h 0.02067 z"
       style="font-style:normal;font-variant:normal;font-weight:normal;font-stretch:normal;font-size:4.23333311px;font-family:sans-serif;-inkscape-font-specification:'sans-serif, Normal';font-variant-ligatures:normal;font-variant-caps:normal;font-variant-numeric:normal;font-feature-settings:normal;text-align:start;writing-mode:lr-tb;text-anchor:start;stroke-width:0.26458332px"
       id="path4949"
       inkscape:connector-curvature="0" />
    <path
       d="M 15.802653,5.6633825 H 15.414046 V 2.4470416 h 0.388607 z"
       style="font-style:normal;font-variant:normal;font-weight:normal;font-stretch:normal;font-size:4.23333311px;font-family:sans-serif;-inkscape-font-specification:'sans-serif, Normal';font-variant-ligatures:normal;font-variant-caps:normal;font-variant-numeric:normal;font-feature-settings:normal;text-align:start;writing-mode:lr-tb;text-anchor:start;stroke-width:0.26458332px"
       id="path4951"
       inkscape:connector-curvature="0" />
    <path
       d="M 19.033463,5.6633825 H 18.597314 L 18.295524,4.8055538 H 16.964339 L 16.662548,5.6633825 H 16.24707 l 1.120345,-3.0778481 h 0.545703 z M 18.169433,4.4541541 17.629931,2.9431353 17.088362,4.4541541 Z"
       style="font-style:normal;font-variant:normal;font-weight:normal;font-stretch:normal;font-size:4.23333311px;font-family:sans-serif;-inkscape-font-specification:'sans-serif, Normal';font-variant-ligatures:normal;font-variant-caps:normal;font-variant-numeric:normal;font-feature-settings:normal;text-align:start;writing-mode:lr-tb;text-anchor:start;stroke-width:0.26458332px"
       id="path4953"
       inkscape:connector-curvature="0" />
    <path
       d="m 21.877734,5.4401404 q -0.113689,0.049609 -0.206706,0.093018 -0.09095,0.043408 -0.239779,0.09095 -0.12609,0.039274 -0.274918,0.066146 -0.146761,0.028939 -0.324528,0.028939 -0.334864,0 -0.609782,-0.093018 Q 19.949169,5.5310909 19.746598,5.3305863 19.54816,5.1342159 19.436539,4.8324255 19.324918,4.5285681 19.324918,4.127559 q 0,-0.3803385 0.107487,-0.6800618 0.107487,-0.2997233 0.310058,-0.506429 0.196371,-0.2005045 0.473357,-0.3059244 0.279052,-0.10542 0.61805,-0.10542 0.248047,0 0.494026,0.059945 0.248047,0.059945 0.549838,0.2108398 v 0.4857585 h -0.03101 Q 21.59248,3.0733599 21.342366,2.9762082 q -0.250114,-0.097152 -0.535368,-0.097152 -0.233578,0 -0.42168,0.076481 -0.186035,0.074414 -0.332796,0.2335775 -0.142627,0.1550293 -0.223242,0.3927408 -0.07855,0.2356446 -0.07855,0.5457031 0,0.324528 0.08682,0.5581055 0.08888,0.2335774 0.227376,0.3803385 0.144694,0.1529622 0.336931,0.2273763 0.194303,0.072347 0.409277,0.072347 0.295589,0 0.553971,-0.1012858 0.258383,-0.1012858 0.483692,-0.3038574 h 0.02894 z"
       style="font-style:normal;font-variant:normal;font-weight:normal;font-stretch:normal;font-size:4.23333311px;font-family:sans-serif;-inkscape-font-specification:'sans-serif, Normal';font-variant-ligatures:normal;font-variant-caps:normal;font-variant-numeric:normal;font-feature-settings:normal;text-align:start;writing-mode:lr-tb;text-anchor:start;stroke-width:0.26458332px"
       id="path4955"
       inkscape:connector-curvature="0" />
    <path
       d="m 24.397477,4.5099646 q 0,0.5643066 -0.289388,0.8909017 -0.289388,0.326595 -0.775147,0.326595 -0.489892,0 -0.77928,-0.326595 -0.287321,-0.3265951 -0.287321,-0.8909017 0,-0.5643066 0.287321,-0.8909016 0.289388,-0.3286621 0.77928,-0.3286621 0.485759,0 0.775147,0.3286621 0.289388,0.326595 0.289388,0.8909016 z m -0.401009,0 q 0,-0.4485514 -0.1757,-0.6655924 -0.1757,-0.2191081 -0.487826,-0.2191081 -0.31626,0 -0.491959,0.2191081 -0.173633,0.217041 -0.173633,0.6655924 0,0.434082 0.1757,0.6593913 0.1757,0.2232421 0.489892,0.2232421 0.310059,0 0.485759,-0.2211751 0.177767,-0.2232422 0.177767,-0.6614583 z"
       style="font-style:normal;font-variant:normal;font-weight:normal;font-stretch:normal;font-size:4.23333311px;font-family:sans-serif;-inkscape-font-specification:'sans-serif, Normal';font-variant-ligatures:normal;font-variant-caps:normal;font-variant-numeric:normal;font-feature-settings:normal;text-align:start;writing-mode:lr-tb;text-anchor:start;stroke-width:0.26458332px"
       id="path4957"
       inkscape:connector-curvature="0" />
    <path
       d="m 26.650569,4.9977901 q 0,0.3162598 -0.262517,0.5188314 -0.260449,0.2025716 -0.713134,0.2025716 -0.256315,0 -0.471289,-0.059945 -0.212907,-0.062012 -0.357601,-0.1343587 V 5.0887406 h 0.02067 q 0.183968,0.1384929 0.409278,0.2211752 0.225309,0.080615 0.432015,0.080615 0.256315,0 0.401009,-0.082682 0.144694,-0.082682 0.144694,-0.2604492 0,-0.1364258 -0.07855,-0.2067057 -0.07855,-0.07028 -0.30179,-0.1198893 -0.08268,-0.018604 -0.217041,-0.043408 -0.132292,-0.024805 -0.241846,-0.053743 -0.303857,-0.080615 -0.432015,-0.2356446 -0.12609,-0.1570963 -0.12609,-0.3844726 0,-0.1426269 0.05788,-0.2687174 0.05994,-0.1260905 0.179834,-0.2253093 0.115755,-0.097152 0.293522,-0.1529622 0.179834,-0.057878 0.401009,-0.057878 0.206705,0 0.417545,0.051676 0.212907,0.049609 0.353467,0.1219564 v 0.4154785 h -0.02067 q -0.148829,-0.109554 -0.361735,-0.1839681 -0.212907,-0.076481 -0.417546,-0.076481 -0.212907,0 -0.359668,0.082682 -0.146761,0.080615 -0.146761,0.2418457 0,0.1426269 0.08888,0.2149739 0.08682,0.072347 0.28112,0.1178223 0.107487,0.024805 0.239779,0.049609 0.134359,0.024805 0.223242,0.045475 0.270784,0.062012 0.417546,0.2129069 0.146761,0.1529622 0.146761,0.4051432 z"
       style="font-style:normal;font-variant:normal;font-weight:normal;font-stretch:normal;font-size:4.23333311px;font-family:sans-serif;-inkscape-font-specification:'sans-serif, Normal';font-variant-ligatures:normal;font-variant-caps:normal;font-variant-numeric:normal;font-feature-settings:normal;text-align:start;writing-mode:lr-tb;text-anchor:start;stroke-width:0.26458332px"
       id="path4959"
       inkscape:connector-curvature="0" />
  </g>
  <g
     aria-label="bId°°"
     style="font-style:normal;font-variant:normal;font-weight:normal;font-stretch:normal;font-size:2.82222223px;line-height:125%;font-family:'DejaVu Sans Mono';-inkscape-font-specification:'DejaVu Sans Mono, Normal';font-variant-ligatures:normal;font-variant-caps:normal;font-variant-numeric:normal;font-feature-settings:normal;text-align:start;letter-spacing:0px;word-spacing:0px;writing-mode:lr-tb;text-anchor:start;fill:#000000;fill-opacity:1;stroke:none;stroke-width:0.26458332px;stroke-linecap:butt;stroke-linejoin:miter;stroke-opacity:1"
     id="text4628-9"
     transform="translate(0,0.05146768)">
    <path
       d="m 16.398999,97.931174 q 0,0.289388 -0.08268,0.520898 -0.08062,0.231511 -0.219108,0.388607 -0.146761,0.163297 -0.322461,0.24598 -0.1757,0.08062 -0.38654,0.08062 -0.19637,0 -0.343131,-0.04754 -0.146761,-0.04548 -0.289388,-0.124024 l -0.02481,0.107487 h -0.363802 v -3.216341 h 0.388607 v 1.149284 q 0.163297,-0.134359 0.347265,-0.219108 0.183968,-0.08682 0.413412,-0.08682 0.409277,0 0.644922,0.314192 0.237711,0.314193 0.237711,0.886768 z m -0.401009,0.01033 q 0,-0.413411 -0.136426,-0.626318 -0.136425,-0.214974 -0.440283,-0.214974 -0.169499,0 -0.343131,0.07441 -0.173633,0.07235 -0.322461,0.188102 v 1.322917 q 0.165364,0.07441 0.283187,0.103352 0.119889,0.02894 0.270784,0.02894 0.322461,0 0.504362,-0.21084 0.183968,-0.212906 0.183968,-0.665592 z"
       style="font-style:normal;font-variant:normal;font-weight:normal;font-stretch:normal;font-size:4.23333311px;font-family:sans-serif;-inkscape-font-specification:'sans-serif, Normal';font-variant-ligatures:normal;font-variant-caps:normal;font-variant-numeric:normal;font-feature-settings:normal;text-align:start;writing-mode:lr-tb;text-anchor:start;stroke-width:0.26458332px"
       id="path4962"
       inkscape:connector-curvature="0" />
    <path
       d="m 18.120858,99.103195 h -1.21543 v -0.314193 h 0.403076 V 96.33954 h -0.403076 v -0.314193 h 1.21543 v 0.314193 h -0.403076 v 2.449462 h 0.403076 z"
       style="font-style:normal;font-variant:normal;font-weight:normal;font-stretch:normal;font-size:4.23333311px;font-family:sans-serif;-inkscape-font-specification:'sans-serif, Normal';font-variant-ligatures:normal;font-variant-caps:normal;font-variant-numeric:normal;font-feature-settings:normal;text-align:start;writing-mode:lr-tb;text-anchor:start;stroke-width:0.26458332px"
       id="path4964"
       inkscape:connector-curvature="0" />
    <path
       d="M 20.663338,99.103195 H 20.274731 V 98.86135 q -0.167431,0.144694 -0.349332,0.225309 -0.181901,0.08062 -0.394808,0.08062 -0.413412,0 -0.657324,-0.318327 -0.241846,-0.318327 -0.241846,-0.882633 0,-0.293522 0.08268,-0.522966 0.08475,-0.229443 0.227377,-0.390674 0.140559,-0.157096 0.326595,-0.239778 0.188102,-0.08268 0.388606,-0.08268 0.181901,0 0.322461,0.03927 0.14056,0.03721 0.295589,0.117822 v -1.000456 h 0.388607 z m -0.388607,-0.568441 v -1.324983 q -0.157096,-0.07028 -0.281119,-0.09715 -0.124024,-0.02687 -0.270785,-0.02687 -0.326595,0 -0.508496,0.227377 -0.181901,0.227376 -0.181901,0.644922 0,0.411344 0.14056,0.626318 0.14056,0.212907 0.450618,0.212907 0.165365,0 0.334864,-0.07235 0.169498,-0.07441 0.316259,-0.190171 z"
       style="font-style:normal;font-variant:normal;font-weight:normal;font-stretch:normal;font-size:4.23333311px;font-family:sans-serif;-inkscape-font-specification:'sans-serif, Normal';font-variant-ligatures:normal;font-variant-caps:normal;font-variant-numeric:normal;font-feature-settings:normal;text-align:start;writing-mode:lr-tb;text-anchor:start;stroke-width:0.26458332px"
       id="path4966"
       inkscape:connector-curvature="0" />
    <path
       d="m 23.02185,96.796359 q 0,0.347266 -0.239779,0.587045 -0.239778,0.239778 -0.589111,0.239778 -0.349332,0 -0.589111,-0.237711 -0.239779,-0.239779 -0.239779,-0.589112 0,-0.347265 0.239779,-0.587044 0.239779,-0.239778 0.589111,-0.239778 0.3514,0 0.589111,0.239778 0.239779,0.239779 0.239779,0.587044 z m -0.341064,0 q 0,-0.210839 -0.138493,-0.353466 -0.138493,-0.144694 -0.349333,-0.144694 -0.21084,0 -0.349332,0.144694 -0.138493,0.142627 -0.138493,0.353466 0,0.214974 0.14056,0.357601 0.142627,0.14056 0.347265,0.14056 0.21084,0 0.349333,-0.144694 0.138493,-0.144694 0.138493,-0.353467 z"
       style="font-style:normal;font-variant:normal;font-weight:normal;font-stretch:normal;font-size:4.23333311px;font-family:sans-serif;-inkscape-font-specification:'sans-serif, Normal';font-variant-ligatures:normal;font-variant-caps:normal;font-variant-numeric:normal;font-feature-settings:normal;text-align:start;writing-mode:lr-tb;text-anchor:start;stroke-width:0.26458332px"
       id="path4968"
       inkscape:connector-curvature="0" />
    <path
       d="m 25.320417,96.796359 q 0,0.347266 -0.239778,0.587045 -0.239779,0.239778 -0.589112,0.239778 -0.349332,0 -0.589111,-0.237711 -0.239778,-0.239779 -0.239778,-0.589112 0,-0.347265 0.239778,-0.587044 0.239779,-0.239778 0.589111,-0.239778 0.3514,0 0.589112,0.239778 0.239778,0.239779 0.239778,0.587044 z m -0.341064,0 q 0,-0.210839 -0.138493,-0.353466 -0.138493,-0.144694 -0.349333,-0.144694 -0.210839,0 -0.349332,0.144694 -0.138493,0.142627 -0.138493,0.353466 0,0.214974 0.14056,0.357601 0.142627,0.14056 0.347265,0.14056 0.21084,0 0.349333,-0.144694 0.138493,-0.144694 0.138493,-0.353467 z"
       style="font-style:normal;font-variant:normal;font-weight:normal;font-stretch:normal;font-size:4.23333311px;font-family:sans-serif;-inkscape-font-specification:'sans-serif, Normal';font-variant-ligatures:normal;font-variant-caps:normal;font-variant-numeric:normal;font-feature-settings:normal;text-align:start;writing-mode:lr-tb;text-anchor:start;stroke-width:0.26458332px"
       id="path4970"
       inkscape:connector-curvature="0" />
  </g>
  <g
     aria-label="FREQ"
     style="font-style:normal;font-variant:normal;font-weight:normal;font-stretch:normal;font-size:2.82222223px;line-height:125%;font-family:'DejaVu Sans Mono';-inkscape-font-specification:'DejaVu Sans Mono, Normal';font-variant-ligatures:normal;font-variant-caps:normal;font-variant-numeric:normal;font-feature-settings:normal;text-align:start;letter-spacing:0px;word-spacing:0px;writing-mode:lr-tb;text-anchor:start;fill:#000000;fill-opacity:1;stroke:none;stroke-width:0.26458332px;stroke-linecap:butt;stroke-linejoin:miter;stroke-opacity:1"
     id="text4628-2">
    <path
       d="M 16.982598,7.9947608 H 15.68552 v 0.72347 h 1.114488 V 9.0213992 H 15.68552 V 10.256466 H 15.344455 V 7.6915924 h 1.638143 z"
       style="font-style:normal;font-variant:normal;font-weight:normal;font-stretch:normal;font-size:3.52777767px;font-family:sans-serif;-inkscape-font-specification:'sans-serif, Normal';font-variant-ligatures:normal;font-variant-caps:normal;font-variant-numeric:normal;font-feature-settings:normal;text-align:start;writing-mode:lr-tb;text-anchor:start;stroke-width:0.26458332px"
       id="path4973"
       inkscape:connector-curvature="0" />
    <path
       d="M 19.49235,10.256466 H 19.049655 L 18.191826,9.2367177 h -0.48059 V 10.256466 H 17.370171 V 7.6915924 h 0.718303 q 0.232544,0 0.387573,0.031006 0.155029,0.029283 0.279053,0.1067979 0.139526,0.08785 0.217041,0.2222087 0.07924,0.1326361 0.07924,0.3376193 0,0.2773302 -0.139527,0.4650879 -0.139526,0.1860351 -0.384128,0.2807753 z M 18.69481,8.4133399 q 0,-0.1102431 -0.03962,-0.1946479 -0.0379,-0.086127 -0.127469,-0.144694 -0.07407,-0.049954 -0.1757,-0.068902 -0.10163,-0.020671 -0.239434,-0.020671 h -0.401353 v 0.9680718 h 0.344509 q 0.16192,0 0.282498,-0.027561 0.120578,-0.029283 0.204983,-0.1067979 0.07751,-0.072347 0.113688,-0.1653646 0.0379,-0.09474 0.0379,-0.2394341 z"
       style="font-style:normal;font-variant:normal;font-weight:normal;font-stretch:normal;font-size:3.52777767px;font-family:sans-serif;-inkscape-font-specification:'sans-serif, Normal';font-variant-ligatures:normal;font-variant-caps:normal;font-variant-numeric:normal;font-feature-settings:normal;text-align:start;writing-mode:lr-tb;text-anchor:start;stroke-width:0.26458332px"
       id="path4975"
       inkscape:connector-curvature="0" />
    <path
       d="M 21.512898,10.256466 H 19.823079 V 7.6915924 h 1.689819 v 0.3031684 h -1.348755 v 0.7027995 h 1.348755 v 0.3031683 h -1.348755 v 0.9525689 h 1.348755 z"
       style="font-style:normal;font-variant:normal;font-weight:normal;font-stretch:normal;font-size:3.52777767px;font-family:sans-serif;-inkscape-font-specification:'sans-serif, Normal';font-variant-ligatures:normal;font-variant-caps:normal;font-variant-numeric:normal;font-feature-settings:normal;text-align:start;writing-mode:lr-tb;text-anchor:start;stroke-width:0.26458332px"
       id="path4977"
       inkscape:connector-curvature="0" />
    <path
       d="m 24.343044,10.885196 q -0.103353,0.02584 -0.204983,0.03617 -0.09991,0.01206 -0.204983,0.01206 -0.299723,0 -0.482313,-0.165364 -0.180868,-0.163642 -0.196371,-0.470256 -0.04134,0.0069 -0.08096,0.0086 -0.0379,0.0034 -0.07407,0.0034 -0.27044,0 -0.492649,-0.08957 -0.220486,-0.08957 -0.375515,-0.2601043 -0.15503,-0.1705322 -0.239434,-0.4185791 -0.08268,-0.2480468 -0.08268,-0.5667182 0,-0.3135037 0.08268,-0.5615505 0.08268,-0.2497694 0.241156,-0.4271918 0.151585,-0.1688097 0.375516,-0.2583822 0.225653,-0.089573 0.490926,-0.089573 0.275607,0 0.494371,0.091295 0.220486,0.089573 0.373793,0.2566597 0.156752,0.1722547 0.239434,0.4220241 0.08441,0.2497695 0.08441,0.5667182 0,0.4702555 -0.192926,0.792372 -0.191202,0.3221171 -0.515041,0.4513081 0.0069,0.19637 0.09302,0.304891 0.08613,0.10852 0.313504,0.10852 0.07062,0 0.167087,-0.02239 0.09819,-0.02067 0.139526,-0.0379 h 0.04651 z M 23.936523,8.9748904 q 0,-0.4995388 -0.223931,-0.7699788 -0.223931,-0.2721625 -0.611505,-0.2721625 -0.391018,0 -0.614949,0.2721625 -0.222209,0.27044 -0.222209,0.7699788 0,0.5047065 0.227376,0.7734239 0.227377,0.2669947 0.609782,0.2669947 0.382406,0 0.60806,-0.2669947 0.227376,-0.2687174 0.227376,-0.7734239 z"
       style="font-style:normal;font-variant:normal;font-weight:normal;font-stretch:normal;font-size:3.52777767px;font-family:sans-serif;-inkscape-font-specification:'sans-serif, Normal';font-variant-ligatures:normal;font-variant-caps:normal;font-variant-numeric:normal;font-feature-settings:normal;text-align:start;writing-mode:lr-tb;text-anchor:start;stroke-width:0.26458332px"
       id="path4979"
       inkscape:connector-curvature="0" />
  </g>
  <g
     aria-label="FM"
     style="font-style:normal;font-variant:normal;font-weight:normal;font-stretch:normal;font-size:2.82222223px;line-height:125%;font-family:'DejaVu Sans Mono';-inkscape-font-specification:'DejaVu Sans Mono, Normal';font-variant-ligatures:normal;font-variant-caps:normal;font-variant-numeric:normal;font-feature-settings:normal;text-align:start;letter-spacing:0px;word-spacing:0px;writing-mode:lr-tb;text-anchor:start;fill:#000000;fill-opacity:1;stroke:none;stroke-width:0.26458332px;stroke-linecap:butt;stroke-linejoin:miter;stroke-opacity:1"
     id="text4628-6"
     transform="translate(0.319518)">
    <path
       d="M 6.3994989,8.6551592 H 5.3618361 v 0.578776 H 6.2534268 V 9.4764699 H 5.3618361 V 10.464523 H 5.0889845 V 8.4126244 h 1.3105144 z"
       style="font-style:normal;font-variant:normal;font-weight:normal;font-stretch:normal;font-size:2.82222223px;font-family:sans-serif;-inkscape-font-specification:'sans-serif, Normal';font-variant-ligatures:normal;font-variant-caps:normal;font-variant-numeric:normal;font-feature-settings:normal;text-align:start;writing-mode:lr-tb;text-anchor:start;stroke-width:0.26458332px"
       id="path4982"
       inkscape:connector-curvature="0" />
    <path
       d="M 8.5368361,10.464523 H 8.2639846 V 8.6965003 L 7.6934767,9.8995277 H 7.5308682 L 6.9644945,8.6965003 V 10.464523 H 6.7095575 V 8.4126244 H 7.0816278 L 7.6287089,9.5550181 8.1578756,8.4126244 h 0.3789605 z"
       style="font-style:normal;font-variant:normal;font-weight:normal;font-stretch:normal;font-size:2.82222223px;font-family:sans-serif;-inkscape-font-specification:'sans-serif, Normal';font-variant-ligatures:normal;font-variant-caps:normal;font-variant-numeric:normal;font-feature-settings:normal;text-align:start;writing-mode:lr-tb;text-anchor:start;stroke-width:0.26458332px"
       id="path4984"
       inkscape:connector-curvature="0" />
  </g>
  <g
     aria-label="FINE"
     style="font-style:normal;font-variant:normal;font-weight:normal;font-stretch:normal;font-size:2.82222223px;line-height:125%;font-family:'DejaVu Sans Mono';-inkscape-font-specification:'DejaVu Sans Mono, Normal';font-variant-ligatures:normal;font-variant-caps:normal;font-variant-numeric:normal;font-feature-settings:normal;text-align:start;letter-spacing:0px;word-spacing:0px;writing-mode:lr-tb;text-anchor:start;fill:#000000;fill-opacity:1;stroke:none;stroke-width:0.26458332px;stroke-linecap:butt;stroke-linejoin:miter;stroke-opacity:1"
     id="text4628-6-5"
     transform="translate(0.426024)">
    <path
       d="m 30.635524,8.6551592 h -1.037663 v 0.578776 h 0.891591 V 9.4764699 H 29.597861 V 10.464523 H 29.32501 V 8.4126244 h 1.310514 z"
       style="font-style:normal;font-variant:normal;font-weight:normal;font-stretch:normal;font-size:2.82222223px;font-family:sans-serif;-inkscape-font-specification:'sans-serif, Normal';font-variant-ligatures:normal;font-variant-caps:normal;font-variant-numeric:normal;font-feature-settings:normal;text-align:start;writing-mode:lr-tb;text-anchor:start;stroke-width:0.26458332px"
       id="path4987"
       inkscape:connector-curvature="0" />
    <path
       d="m 31.669053,10.464523 h -0.810287 v -0.209461 h 0.268718 V 8.6220862 H 30.858766 V 8.4126244 h 0.810287 v 0.2094618 h -0.268718 v 1.6329758 h 0.268718 z"
       style="font-style:normal;font-variant:normal;font-weight:normal;font-stretch:normal;font-size:2.82222223px;font-family:sans-serif;-inkscape-font-specification:'sans-serif, Normal';font-variant-ligatures:normal;font-variant-caps:normal;font-variant-numeric:normal;font-feature-settings:normal;text-align:start;writing-mode:lr-tb;text-anchor:start;stroke-width:0.26458332px"
       id="path4989"
       inkscape:connector-curvature="0" />
    <path
       d="M 33.701659,10.464523 H 33.36404 L 32.391145,8.6289764 V 10.464523 H 32.136208 V 8.4126244 h 0.423057 l 0.887457,1.6756946 V 8.4126244 h 0.254937 z"
       style="font-style:normal;font-variant:normal;font-weight:normal;font-stretch:normal;font-size:2.82222223px;font-family:sans-serif;-inkscape-font-specification:'sans-serif, Normal';font-variant-ligatures:normal;font-variant-caps:normal;font-variant-numeric:normal;font-feature-settings:normal;text-align:start;writing-mode:lr-tb;text-anchor:start;stroke-width:0.26458332px"
       id="path4991"
       inkscape:connector-curvature="0" />
    <path
       d="M 35.599218,10.464523 H 34.247362 V 8.4126244 h 1.351856 v 0.2425348 h -1.079004 v 0.5622395 h 1.079004 v 0.2425348 h -1.079004 v 0.7620555 h 1.079004 z"
       style="font-style:normal;font-variant:normal;font-weight:normal;font-stretch:normal;font-size:2.82222223px;font-family:sans-serif;-inkscape-font-specification:'sans-serif, Normal';font-variant-ligatures:normal;font-variant-caps:normal;font-variant-numeric:normal;font-feature-settings:normal;text-align:start;writing-mode:lr-tb;text-anchor:start;stroke-width:0.26458332px"
       id="path4993"
       inkscape:connector-curvature="0" />
  </g>
  <g
     aria-label="ANLG"
     style="font-style:normal;font-variant:normal;font-weight:normal;font-stretch:normal;font-size:2.82222223px;line-height:125%;font-family:'DejaVu Sans Mono';-inkscape-font-specification:'DejaVu Sans Mono, Normal';font-variant-ligatures:normal;font-variant-caps:normal;font-variant-numeric:normal;font-feature-settings:normal;text-align:start;letter-spacing:0px;word-spacing:0px;writing-mode:lr-tb;text-anchor:start;fill:#000000;fill-opacity:1;stroke:none;stroke-width:0.26458332px;stroke-linecap:butt;stroke-linejoin:miter;stroke-opacity:1"
     id="text4628-6-3">
    <path
       d="M 4.3377969,20.407413 H 4.1197224 L 3.9688272,19.978499 H 3.3032348 L 3.1523397,20.407413 H 2.9446004 L 3.5047729,18.868489 H 3.7776245 Z M 3.905782,19.802799 3.636031,19.04729 3.3652465,19.802799 Z"
       style="font-style:normal;font-variant:normal;font-weight:normal;font-stretch:normal;font-size:2.11666656px;font-family:sans-serif;-inkscape-font-specification:'sans-serif, Normal';font-variant-ligatures:normal;font-variant-caps:normal;font-variant-numeric:normal;font-feature-settings:normal;text-align:start;writing-mode:lr-tb;text-anchor:start;stroke-width:0.26458332px"
       id="path4996"
       inkscape:connector-curvature="0" />
    <path
       d="M 5.7454629,20.407413 H 5.4922484 l -0.7296712,-1.37666 v 1.37666 H 4.5713744 v -1.538924 h 0.3172933 l 0.6655924,1.256771 v -1.256771 h 0.1912028 z"
       style="font-style:normal;font-variant:normal;font-weight:normal;font-stretch:normal;font-size:2.11666656px;font-family:sans-serif;-inkscape-font-specification:'sans-serif, Normal';font-variant-ligatures:normal;font-variant-caps:normal;font-variant-numeric:normal;font-feature-settings:normal;text-align:start;writing-mode:lr-tb;text-anchor:start;stroke-width:0.26458332px"
       id="path4998"
       inkscape:connector-curvature="0" />
    <path
       d="m 7.1283242,20.407413 h -0.973584 v -1.538924 h 0.2046387 v 1.357023 h 0.7689453 z"
       style="font-style:normal;font-variant:normal;font-weight:normal;font-stretch:normal;font-size:2.11666656px;font-family:sans-serif;-inkscape-font-specification:'sans-serif, Normal';font-variant-ligatures:normal;font-variant-caps:normal;font-variant-numeric:normal;font-feature-settings:normal;text-align:start;writing-mode:lr-tb;text-anchor:start;stroke-width:0.26458332px"
       id="path5000"
       inkscape:connector-curvature="0" />
    <path
       d="m 8.5959345,20.293725 q -0.1260905,0.05788 -0.2759521,0.101286 -0.1488281,0.04237 -0.2883545,0.04237 -0.179834,0 -0.3296956,-0.04961 -0.1498617,-0.04961 -0.2552816,-0.148828 -0.1064534,-0.100252 -0.164331,-0.250114 -0.057878,-0.150895 -0.057878,-0.352433 0,-0.36897 0.2149739,-0.581876 0.2160075,-0.213941 0.5922119,-0.213941 0.1312581,0 0.2676839,0.03204 0.1374593,0.03101 0.2955892,0.106453 v 0.242879 h -0.018603 q -0.032039,-0.0248 -0.093018,-0.06511 -0.060978,-0.04031 -0.1198893,-0.06718 -0.071314,-0.03204 -0.162264,-0.05271 -0.089917,-0.0217 -0.2046387,-0.0217 -0.2583821,0 -0.4092773,0.166399 -0.1498616,0.165364 -0.1498616,0.448551 0,0.29869 0.1570963,0.465088 0.1570964,0.165364 0.4278809,0.165364 0.099219,0 0.1974039,-0.01964 0.099219,-0.01964 0.1736328,-0.05064 V 19.813135 H 7.980985 v -0.179834 h 0.6149495 z"
       style="font-style:normal;font-variant:normal;font-weight:normal;font-stretch:normal;font-size:2.11666656px;font-family:sans-serif;-inkscape-font-specification:'sans-serif, Normal';font-variant-ligatures:normal;font-variant-caps:normal;font-variant-numeric:normal;font-feature-settings:normal;text-align:start;writing-mode:lr-tb;text-anchor:start;stroke-width:0.26458332px"
       id="path5002"
       inkscape:connector-curvature="0" />
  </g>
  <g
     aria-label="HARD"
     style="font-style:normal;font-variant:normal;font-weight:normal;font-stretch:normal;font-size:2.82222223px;line-height:125%;font-family:'DejaVu Sans Mono';-inkscape-font-specification:'DejaVu Sans Mono, Normal';font-variant-ligatures:normal;font-variant-caps:normal;font-variant-numeric:normal;font-feature-settings:normal;text-align:start;letter-spacing:0px;word-spacing:0px;writing-mode:lr-tb;text-anchor:start;fill:#000000;fill-opacity:1;stroke:none;stroke-width:0.26458332px;stroke-linecap:butt;stroke-linejoin:miter;stroke-opacity:1"
     id="text4628-6-3-9">
    <path
       d="m 31.813111,20.374323 h -0.204638 v -0.753442 h -0.767912 v 0.753442 h -0.204639 v -1.538924 h 0.204639 v 0.603581 h 0.767912 v -0.603581 h 0.204638 z"
       style="font-style:normal;font-variant:normal;font-weight:normal;font-stretch:normal;font-size:2.11666656px;font-family:sans-serif;-inkscape-font-specification:'sans-serif, Normal';font-variant-ligatures:normal;font-variant-caps:normal;font-variant-numeric:normal;font-feature-settings:normal;text-align:start;writing-mode:lr-tb;text-anchor:start;stroke-width:0.26458332px"
       id="path5005"
       inkscape:connector-curvature="0" />
    <path
       d="m 33.440919,20.374323 h -0.218075 l -0.150895,-0.428914 h -0.665592 l -0.150896,0.428914 h -0.207739 l 0.560173,-1.538924 h 0.272851 z m -0.432015,-0.604614 -0.269751,-0.75551 -0.270785,0.75551 z"
       style="font-style:normal;font-variant:normal;font-weight:normal;font-stretch:normal;font-size:2.11666656px;font-family:sans-serif;-inkscape-font-specification:'sans-serif, Normal';font-variant-ligatures:normal;font-variant-caps:normal;font-variant-numeric:normal;font-feature-settings:normal;text-align:start;writing-mode:lr-tb;text-anchor:start;stroke-width:0.26458332px"
       id="path5007"
       inkscape:connector-curvature="0" />
    <path
       d="m 34.947804,20.374323 h -0.265617 l -0.514698,-0.611849 h -0.288354 v 0.611849 h -0.204639 v -1.538924 h 0.430982 q 0.139526,0 0.232544,0.0186 0.09302,0.01757 0.167431,0.06408 0.08372,0.05271 0.130225,0.133325 0.04754,0.07958 0.04754,0.202572 0,0.166398 -0.08372,0.279053 -0.08372,0.111621 -0.230476,0.168465 z M 34.46928,19.268447 q 0,-0.06615 -0.02377,-0.116788 -0.02274,-0.05168 -0.07648,-0.08682 -0.04444,-0.02997 -0.10542,-0.04134 -0.06098,-0.0124 -0.143661,-0.0124 h -0.240812 v 0.580843 h 0.206706 q 0.09715,0 0.169498,-0.01654 0.07235,-0.01757 0.12299,-0.06408 0.04651,-0.04341 0.06821,-0.09922 0.02274,-0.05684 0.02274,-0.143661 z"
       style="font-style:normal;font-variant:normal;font-weight:normal;font-stretch:normal;font-size:2.11666656px;font-family:sans-serif;-inkscape-font-specification:'sans-serif, Normal';font-variant-ligatures:normal;font-variant-caps:normal;font-variant-numeric:normal;font-feature-settings:normal;text-align:start;writing-mode:lr-tb;text-anchor:start;stroke-width:0.26458332px"
       id="path5009"
       inkscape:connector-curvature="0" />
    <path
       d="m 36.44642,19.606411 q 0,0.209806 -0.09198,0.380339 -0.09095,0.170532 -0.242879,0.264583 -0.10542,0.06511 -0.235645,0.09405 -0.129191,0.02894 -0.341064,0.02894 h -0.388607 v -1.538924 h 0.384472 q 0.22531,0 0.357601,0.03307 0.133326,0.03204 0.22531,0.08888 0.157096,0.09819 0.244946,0.261483 0.08785,0.163297 0.08785,0.387573 z m -0.213941,-0.0031 q 0,-0.180868 -0.06304,-0.304891 -0.06305,-0.124024 -0.188102,-0.195337 -0.09095,-0.05168 -0.19327,-0.07131 -0.102319,-0.02067 -0.244946,-0.02067 H 35.35088 v 1.187524 h 0.192236 q 0.147794,0 0.257348,-0.0217 0.110588,-0.0217 0.202572,-0.08062 0.114722,-0.07338 0.171566,-0.19327 0.05788,-0.119889 0.05788,-0.299723 z"
       style="font-style:normal;font-variant:normal;font-weight:normal;font-stretch:normal;font-size:2.11666656px;font-family:sans-serif;-inkscape-font-specification:'sans-serif, Normal';font-variant-ligatures:normal;font-variant-caps:normal;font-variant-numeric:normal;font-feature-settings:normal;text-align:start;writing-mode:lr-tb;text-anchor:start;stroke-width:0.26458332px"
       id="path5011"
       inkscape:connector-curvature="0" />
  </g>
  <g
     aria-label="DIGI"
     style="font-style:normal;font-variant:normal;font-weight:normal;font-stretch:normal;font-size:2.82222223px;line-height:125%;font-family:'DejaVu Sans Mono';-inkscape-font-specification:'DejaVu Sans Mono, Normal';font-variant-ligatures:normal;font-variant-caps:normal;font-variant-numeric:normal;font-feature-settings:normal;text-align:start;letter-spacing:0px;word-spacing:0px;writing-mode:lr-tb;text-anchor:start;fill:#000000;fill-opacity:1;stroke:none;stroke-width:0.26458332px;stroke-linecap:butt;stroke-linejoin:miter;stroke-opacity:1"
     id="text4628-6-3-6">
    <path
       d="m 4.7155515,28.308825 q 0,0.209806 -0.091984,0.380338 -0.09095,0.170532 -0.2428792,0.264584 -0.1054199,0.06511 -0.2356445,0.09405 -0.1291911,0.02894 -0.3410644,0.02894 H 3.4153725 v -1.538924 h 0.3844727 q 0.2253092,0 0.3576008,0.03307 0.1333252,0.03204 0.2253093,0.08888 0.1570963,0.09819 0.2449463,0.261482 0.08785,0.163298 0.08785,0.387574 z m -0.2139404,-0.0031 q 0,-0.180867 -0.063045,-0.304891 -0.063045,-0.124023 -0.1881022,-0.195337 -0.09095,-0.05168 -0.1932698,-0.07131 -0.1023194,-0.02067 -0.2449463,-0.02067 H 3.6200112 v 1.187525 h 0.1922363 q 0.1477946,0 0.2573486,-0.0217 0.1105876,-0.0217 0.2025716,-0.08062 0.1147217,-0.07338 0.1715658,-0.19327 0.057878,-0.119889 0.057878,-0.299723 z"
       style="font-style:normal;font-variant:normal;font-weight:normal;font-stretch:normal;font-size:2.11666656px;font-family:sans-serif;-inkscape-font-specification:'sans-serif, Normal';font-variant-ligatures:normal;font-variant-caps:normal;font-variant-numeric:normal;font-feature-settings:normal;text-align:start;writing-mode:lr-tb;text-anchor:start;stroke-width:0.26458332px"
       id="path5014"
       inkscape:connector-curvature="0" />
    <path
       d="M 5.5909503,29.076736 H 4.9832354 V 28.91964 H 5.1847735 V 27.694909 H 4.9832354 v -0.157097 h 0.6077149 v 0.157097 H 5.3894122 v 1.224731 h 0.2015381 z"
       style="font-style:normal;font-variant:normal;font-weight:normal;font-stretch:normal;font-size:2.11666656px;font-family:sans-serif;-inkscape-font-specification:'sans-serif, Normal';font-variant-ligatures:normal;font-variant-caps:normal;font-variant-numeric:normal;font-feature-settings:normal;text-align:start;writing-mode:lr-tb;text-anchor:start;stroke-width:0.26458332px"
       id="path5016"
       inkscape:connector-curvature="0" />
    <path
       d="m 7.224959,28.963048 q -0.1260905,0.05788 -0.2759521,0.101286 -0.1488281,0.04237 -0.2883545,0.04237 -0.179834,0 -0.3296956,-0.04961 -0.1498617,-0.04961 -0.2552816,-0.148828 -0.1064534,-0.100252 -0.164331,-0.250114 -0.057878,-0.150895 -0.057878,-0.352433 0,-0.36897 0.2149739,-0.581876 0.2160075,-0.213941 0.5922119,-0.213941 0.1312581,0 0.2676839,0.03204 0.1374593,0.03101 0.2955892,0.106454 v 0.242879 H 7.205322 q -0.032039,-0.02481 -0.093018,-0.06511 -0.060978,-0.04031 -0.1198893,-0.06718 -0.071313,-0.03204 -0.162264,-0.05271 -0.089917,-0.02171 -0.2046387,-0.02171 -0.2583821,0 -0.4092773,0.166399 -0.1498616,0.165364 -0.1498616,0.448551 0,0.29869 0.1570963,0.465088 0.1570964,0.165364 0.4278809,0.165364 0.099219,0 0.1974039,-0.01964 0.099219,-0.01964 0.1736328,-0.05064 V 28.482458 H 6.6100095 V 28.302624 H 7.224959 Z"
       style="font-style:normal;font-variant:normal;font-weight:normal;font-stretch:normal;font-size:2.11666656px;font-family:sans-serif;-inkscape-font-specification:'sans-serif, Normal';font-variant-ligatures:normal;font-variant-caps:normal;font-variant-numeric:normal;font-feature-settings:normal;text-align:start;writing-mode:lr-tb;text-anchor:start;stroke-width:0.26458332px"
       id="path5018"
       inkscape:connector-curvature="0" />
    <path
       d="M 8.1251622,29.076736 H 7.5174474 V 28.91964 H 7.7189855 V 27.694909 H 7.5174474 v -0.157097 h 0.6077148 v 0.157097 h -0.201538 v 1.224731 h 0.201538 z"
       style="font-style:normal;font-variant:normal;font-weight:normal;font-stretch:normal;font-size:2.11666656px;font-family:sans-serif;-inkscape-font-specification:'sans-serif, Normal';font-variant-ligatures:normal;font-variant-caps:normal;font-variant-numeric:normal;font-feature-settings:normal;text-align:start;writing-mode:lr-tb;text-anchor:start;stroke-width:0.26458332px"
       id="path5020"
       inkscape:connector-curvature="0" />
  </g>
  <g
     aria-label="SOFT"
     style="font-style:normal;font-variant:normal;font-weight:normal;font-stretch:normal;font-size:2.82222223px;line-height:125%;font-family:'DejaVu Sans Mono';-inkscape-font-specification:'DejaVu Sans Mono, Normal';font-variant-ligatures:normal;font-variant-caps:normal;font-variant-numeric:normal;font-feature-settings:normal;text-align:start;letter-spacing:0px;word-spacing:0px;writing-mode:lr-tb;text-anchor:start;fill:#000000;fill-opacity:1;stroke:none;stroke-width:0.26458332px;stroke-linecap:butt;stroke-linejoin:miter;stroke-opacity:1"
     id="text4628-6-3-2">
    <path
       d="m 31.992964,28.60543 q 0,0.08992 -0.04237,0.177767 -0.04134,0.08785 -0.116789,0.148828 -0.08268,0.06615 -0.193269,0.103353 -0.109554,0.03721 -0.264584,0.03721 -0.166398,0 -0.299723,-0.03101 -0.132292,-0.03101 -0.269751,-0.09198 V 28.69328 h 0.01447 q 0.116789,0.09715 0.269751,0.149862 0.152963,0.05271 0.287321,0.05271 0.19017,0 0.29559,-0.07131 0.106453,-0.07131 0.106453,-0.190169 0,-0.10232 -0.05064,-0.150895 -0.04961,-0.04858 -0.151929,-0.07545 -0.07751,-0.02067 -0.168465,-0.03411 -0.08992,-0.01344 -0.191203,-0.03411 -0.204638,-0.04341 -0.303857,-0.147794 -0.09819,-0.10542 -0.09819,-0.273886 0,-0.193269 0.163297,-0.316259 0.163298,-0.124024 0.414445,-0.124024 0.162264,0 0.297656,0.03101 0.135393,0.03101 0.239779,0.07648 v 0.241846 h -0.01447 q -0.08785,-0.07441 -0.231511,-0.12299 -0.142627,-0.04961 -0.292488,-0.04961 -0.164331,0 -0.264584,0.06821 -0.09922,0.06821 -0.09922,0.175699 0,0.09612 0.04961,0.150896 0.04961,0.05478 0.174666,0.08371 0.06615,0.01447 0.188103,0.03514 0.121956,0.02067 0.206705,0.04237 0.171566,0.04547 0.258382,0.137459 0.08682,0.09198 0.08682,0.257349 z"
       style="font-style:normal;font-variant:normal;font-weight:normal;font-stretch:normal;font-size:2.11666656px;font-family:sans-serif;-inkscape-font-specification:'sans-serif, Normal';font-variant-ligatures:normal;font-variant-caps:normal;font-variant-numeric:normal;font-feature-settings:normal;text-align:start;writing-mode:lr-tb;text-anchor:start;stroke-width:0.26458332px"
       id="path5023"
       inkscape:connector-curvature="0" />
    <path
       d="m 33.468843,27.682489 q 0.09405,0.103353 0.14366,0.253214 0.05064,0.149862 0.05064,0.340031 0,0.19017 -0.05168,0.341065 -0.05064,0.149861 -0.142627,0.250114 -0.09508,0.104386 -0.22531,0.157096 -0.129191,0.05271 -0.295589,0.05271 -0.162264,0 -0.295589,-0.05374 -0.132292,-0.05374 -0.225309,-0.156063 -0.09302,-0.10232 -0.143661,-0.251148 -0.04961,-0.148828 -0.04961,-0.340031 0,-0.188102 0.04961,-0.33693 0.04961,-0.149862 0.144694,-0.256315 0.09095,-0.101286 0.22531,-0.155029 0.135392,-0.05374 0.294555,-0.05374 0.165365,0 0.296623,0.05478 0.132292,0.05374 0.224276,0.153996 z m -0.0186,0.593245 q 0,-0.299723 -0.134359,-0.461987 -0.134358,-0.163297 -0.366902,-0.163297 -0.234611,0 -0.36897,0.163297 -0.133325,0.162264 -0.133325,0.461987 0,0.302824 0.136426,0.464055 0.136425,0.160197 0.365869,0.160197 0.229443,0 0.364835,-0.160197 0.136426,-0.161231 0.136426,-0.464055 z"
       style="font-style:normal;font-variant:normal;font-weight:normal;font-stretch:normal;font-size:2.11666656px;font-family:sans-serif;-inkscape-font-specification:'sans-serif, Normal';font-variant-ligatures:normal;font-variant-caps:normal;font-variant-numeric:normal;font-feature-settings:normal;text-align:start;writing-mode:lr-tb;text-anchor:start;stroke-width:0.26458332px"
       id="path5025"
       inkscape:connector-curvature="0" />
    <path
       d="m 34.97056,27.687657 h -0.778247 v 0.434082 h 0.668693 v 0.181901 h -0.668693 v 0.74104 h -0.204639 v -1.538924 h 0.982886 z"
       style="font-style:normal;font-variant:normal;font-weight:normal;font-stretch:normal;font-size:2.11666656px;font-family:sans-serif;-inkscape-font-specification:'sans-serif, Normal';font-variant-ligatures:normal;font-variant-caps:normal;font-variant-numeric:normal;font-feature-settings:normal;text-align:start;writing-mode:lr-tb;text-anchor:start;stroke-width:0.26458332px"
       id="path5027"
       inkscape:connector-curvature="0" />
    <path
       d="m 36.333784,27.687657 h -0.549837 v 1.357023 h -0.204639 v -1.357023 h -0.549837 v -0.181901 h 1.304313 z"
       style="font-style:normal;font-variant:normal;font-weight:normal;font-stretch:normal;font-size:2.11666656px;font-family:sans-serif;-inkscape-font-specification:'sans-serif, Normal';font-variant-ligatures:normal;font-variant-caps:normal;font-variant-numeric:normal;font-feature-settings:normal;text-align:start;writing-mode:lr-tb;text-anchor:start;stroke-width:0.26458332px"
       id="path5029"
       inkscape:connector-curvature="0" />
  </g>
  <g
     id="g4897"
     transform="translate(0,4.1211356)">
    <g
       aria-label="X"
       style="font-style:normal;font-variant:normal;font-weight:normal;font-stretch:normal;font-size:2.82222223px;line-height:125%;font-family:'DejaVu Sans Mono';-inkscape-font-specification:'DejaVu Sans Mono, Normal';font-variant-ligatures:normal;font-variant-caps:normal;font-variant-numeric:normal;font-feature-settings:normal;text-align:start;letter-spacing:0px;word-spacing:0px;writing-mode:lr-tb;text-anchor:start;fill:#000000;fill-opacity:1;stroke:none;stroke-width:0.26458332px;stroke-linecap:butt;stroke-linejoin:miter;stroke-opacity:1"
       id="text4628-6-3-8">
      <path
         d="m 13.260343,45.027085 -0.531233,0.760677 0.5302,0.778248 h -0.236678 l -0.419613,-0.633554 -0.429948,0.633554 h -0.223242 l 0.536401,-0.768946 -0.523999,-0.769979 h 0.235645 l 0.414445,0.625285 0.423747,-0.625285 z"
         style="font-style:normal;font-variant:normal;font-weight:normal;font-stretch:normal;font-size:2.11666656px;font-family:sans-serif;-inkscape-font-specification:'sans-serif, Normal';font-variant-ligatures:normal;font-variant-caps:normal;font-variant-numeric:normal;font-feature-settings:normal;text-align:start;writing-mode:lr-tb;text-anchor:start;stroke-width:0.26458332px"
         id="path5032"
         inkscape:connector-curvature="0" />
    </g>
    <g
       aria-label="Y"
       style="font-style:normal;font-variant:normal;font-weight:normal;font-stretch:normal;font-size:2.82222223px;line-height:125%;font-family:'DejaVu Sans Mono';-inkscape-font-specification:'DejaVu Sans Mono, Normal';font-variant-ligatures:normal;font-variant-caps:normal;font-variant-numeric:normal;font-feature-settings:normal;text-align:start;letter-spacing:0px;word-spacing:0px;writing-mode:lr-tb;text-anchor:start;fill:#000000;fill-opacity:1;stroke:none;stroke-width:0.26458332px;stroke-linecap:butt;stroke-linejoin:miter;stroke-opacity:1"
       id="text4628-6-3-27">
      <path
         d="m 17.841373,45.027085 -0.541569,0.86403 v 0.674895 h -0.204639 v -0.653191 l -0.543636,-0.885734 h 0.226343 l 0.420646,0.68833 0.42478,-0.68833 z"
         style="font-style:normal;font-variant:normal;font-weight:normal;font-stretch:normal;font-size:2.11666656px;font-family:sans-serif;-inkscape-font-specification:'sans-serif, Normal';font-variant-ligatures:normal;font-variant-caps:normal;font-variant-numeric:normal;font-feature-settings:normal;text-align:start;writing-mode:lr-tb;text-anchor:start;stroke-width:0.26458332px"
         id="path5035"
         inkscape:connector-curvature="0" />
    </g>
  </g>
  <g
     id="g4891"
     transform="translate(3.5757624,4.0668486)">
    <g
       aria-label="X"
       style="font-style:normal;font-variant:normal;font-weight:normal;font-stretch:normal;font-size:2.82222223px;line-height:125%;font-family:'DejaVu Sans Mono';-inkscape-font-specification:'DejaVu Sans Mono, Normal';font-variant-ligatures:normal;font-variant-caps:normal;font-variant-numeric:normal;font-feature-settings:normal;text-align:start;letter-spacing:0px;word-spacing:0px;writing-mode:lr-tb;text-anchor:start;fill:#000000;fill-opacity:1;stroke:none;stroke-width:0.26458332px;stroke-linecap:butt;stroke-linejoin:miter;stroke-opacity:1"
       id="text4628-6-3-8-0">
      <path
         d="m 29.038471,45.081372 -0.531234,0.760677 0.5302,0.778247 h -0.236678 l -0.419612,-0.633553 -0.429948,0.633553 h -0.223242 l 0.536401,-0.768945 -0.523999,-0.769979 h 0.235645 l 0.414444,0.625285 0.423747,-0.625285 z"
         style="font-style:normal;font-variant:normal;font-weight:normal;font-stretch:normal;font-size:2.11666656px;font-family:sans-serif;-inkscape-font-specification:'sans-serif, Normal';font-variant-ligatures:normal;font-variant-caps:normal;font-variant-numeric:normal;font-feature-settings:normal;text-align:start;writing-mode:lr-tb;text-anchor:start;stroke-width:0.26458332px"
         id="path5061"
         inkscape:connector-curvature="0" />
    </g>
    <g
       aria-label="Y"
       style="font-style:normal;font-variant:normal;font-weight:normal;font-stretch:normal;font-size:2.82222223px;line-height:125%;font-family:'DejaVu Sans Mono';-inkscape-font-specification:'DejaVu Sans Mono, Normal';font-variant-ligatures:normal;font-variant-caps:normal;font-variant-numeric:normal;font-feature-settings:normal;text-align:start;letter-spacing:0px;word-spacing:0px;writing-mode:lr-tb;text-anchor:start;fill:#000000;fill-opacity:1;stroke:none;stroke-width:0.26458332px;stroke-linecap:butt;stroke-linejoin:miter;stroke-opacity:1"
       id="text4628-6-3-27-0">
      <path
         d="m 33.619501,45.081372 -0.541569,0.86403 v 0.674894 h -0.204639 v -0.65319 L 32.329657,45.081372 H 32.556 l 0.420646,0.68833 0.42478,-0.68833 z"
         style="font-style:normal;font-variant:normal;font-weight:normal;font-stretch:normal;font-size:2.11666656px;font-family:sans-serif;-inkscape-font-specification:'sans-serif, Normal';font-variant-ligatures:normal;font-variant-caps:normal;font-variant-numeric:normal;font-feature-settings:normal;text-align:start;writing-mode:lr-tb;text-anchor:start;stroke-width:0.26458332px"
         id="path5064"
         inkscape:connector-curvature="0" />
    </g>
  </g>
  <g
     id="g4903"
     transform="translate(2.5941582,3.6197947)">
    <g
       aria-label="X"
       style="font-style:normal;font-variant:normal;font-weight:normal;font-stretch:normal;font-size:2.82222223px;line-height:125%;font-family:'DejaVu Sans Mono';-inkscape-font-specification:'DejaVu Sans Mono, Normal';font-variant-ligatures:normal;font-variant-caps:normal;font-variant-numeric:normal;font-feature-settings:normal;text-align:start;letter-spacing:0px;word-spacing:0px;writing-mode:lr-tb;text-anchor:start;fill:#000000;fill-opacity:1;stroke:none;stroke-width:0.26458332px;stroke-linecap:butt;stroke-linejoin:miter;stroke-opacity:1"
       id="text4628-6-3-8-02">
      <path
         d="m 10.666185,72.719674 -0.531234,0.760677 0.530201,0.778247 H 10.428473 L 10.008861,73.625045 9.578913,74.258598 H 9.3556708 l 0.5364013,-0.768945 -0.523999,-0.769979 h 0.2356446 l 0.4144453,0.625285 0.423746,-0.625285 z"
         style="font-style:normal;font-variant:normal;font-weight:normal;font-stretch:normal;font-size:2.11666656px;font-family:sans-serif;-inkscape-font-specification:'sans-serif, Normal';font-variant-ligatures:normal;font-variant-caps:normal;font-variant-numeric:normal;font-feature-settings:normal;text-align:start;writing-mode:lr-tb;text-anchor:start;stroke-width:0.26458332px"
         id="path5067"
         inkscape:connector-curvature="0" />
    </g>
    <g
       aria-label="Y"
       style="font-style:normal;font-variant:normal;font-weight:normal;font-stretch:normal;font-size:2.82222223px;line-height:125%;font-family:'DejaVu Sans Mono';-inkscape-font-specification:'DejaVu Sans Mono, Normal';font-variant-ligatures:normal;font-variant-caps:normal;font-variant-numeric:normal;font-feature-settings:normal;text-align:start;letter-spacing:0px;word-spacing:0px;writing-mode:lr-tb;text-anchor:start;fill:#000000;fill-opacity:1;stroke:none;stroke-width:0.26458332px;stroke-linecap:butt;stroke-linejoin:miter;stroke-opacity:1"
       id="text4628-6-3-27-01">
      <path
         d="m 15.247215,72.719674 -0.541569,0.86403 v 0.674894 h -0.204639 v -0.65319 l -0.543636,-0.885734 h 0.226343 l 0.420646,0.68833 0.42478,-0.68833 z"
         style="font-style:normal;font-variant:normal;font-weight:normal;font-stretch:normal;font-size:2.11666656px;font-family:sans-serif;-inkscape-font-specification:'sans-serif, Normal';font-variant-ligatures:normal;font-variant-caps:normal;font-variant-numeric:normal;font-feature-settings:normal;text-align:start;writing-mode:lr-tb;text-anchor:start;stroke-width:0.26458332px"
         id="path5070"
         inkscape:connector-curvature="0" />
    </g>
  </g>
  <g
     id="g4909"
     transform="translate(2.0314261,3.0340098)">
    <g
       aria-label="X"
       style="font-style:normal;font-variant:normal;font-weight:normal;font-stretch:normal;font-size:2.82222223px;line-height:125%;font-family:'DejaVu Sans Mono';-inkscape-font-specification:'DejaVu Sans Mono, Normal';font-variant-ligatures:normal;font-variant-caps:normal;font-variant-numeric:normal;font-feature-settings:normal;text-align:start;letter-spacing:0px;word-spacing:0px;writing-mode:lr-tb;text-anchor:start;fill:#000000;fill-opacity:1;stroke:none;stroke-width:0.26458332px;stroke-linecap:butt;stroke-linejoin:miter;stroke-opacity:1"
       id="text4628-6-3-8-9">
      <path
         d="m 30.582807,73.305459 -0.531233,0.760677 0.5302,0.778247 h -0.236678 l -0.419613,-0.633553 -0.429948,0.633553 h -0.223242 l 0.536401,-0.768945 -0.523999,-0.769979 h 0.235645 l 0.414445,0.625285 0.423747,-0.625285 z"
         style="font-style:normal;font-variant:normal;font-weight:normal;font-stretch:normal;font-size:2.11666656px;font-family:sans-serif;-inkscape-font-specification:'sans-serif, Normal';font-variant-ligatures:normal;font-variant-caps:normal;font-variant-numeric:normal;font-feature-settings:normal;text-align:start;writing-mode:lr-tb;text-anchor:start;stroke-width:0.26458332px"
         id="path5073"
         inkscape:connector-curvature="0" />
    </g>
    <g
       aria-label="Y"
       style="font-style:normal;font-variant:normal;font-weight:normal;font-stretch:normal;font-size:2.82222223px;line-height:125%;font-family:'DejaVu Sans Mono';-inkscape-font-specification:'DejaVu Sans Mono, Normal';font-variant-ligatures:normal;font-variant-caps:normal;font-variant-numeric:normal;font-feature-settings:normal;text-align:start;letter-spacing:0px;word-spacing:0px;writing-mode:lr-tb;text-anchor:start;fill:#000000;fill-opacity:1;stroke:none;stroke-width:0.26458332px;stroke-linecap:butt;stroke-linejoin:miter;stroke-opacity:1"
       id="text4628-6-3-27-3">
      <path
         d="m 35.163835,73.305459 -0.541569,0.86403 v 0.674894 h -0.204639 v -0.65319 l -0.543636,-0.885734 h 0.226343 l 0.420646,0.68833 0.424781,-0.68833 z"
         style="font-style:normal;font-variant:normal;font-weight:normal;font-stretch:normal;font-size:2.11666656px;font-family:sans-serif;-inkscape-font-specification:'sans-serif, Normal';font-variant-ligatures:normal;font-variant-caps:normal;font-variant-numeric:normal;font-feature-settings:normal;text-align:start;writing-mode:lr-tb;text-anchor:start;stroke-width:0.26458332px"
         id="path5076"
         inkscape:connector-curvature="0" />
    </g>
  </g>
  <g
     aria-label="1"
     style="font-style:normal;font-variant:normal;font-weight:normal;font-stretch:normal;font-size:2.82222223px;line-height:125%;font-family:'DejaVu Sans Mono';-inkscape-font-specification:'DejaVu Sans Mono, Normal';font-variant-ligatures:normal;font-variant-caps:normal;font-variant-numeric:normal;font-feature-settings:normal;text-align:start;letter-spacing:0px;word-spacing:0px;writing-mode:lr-tb;text-anchor:start;fill:#000000;fill-opacity:1;stroke:none;stroke-width:0.26458332px;stroke-linecap:butt;stroke-linejoin:miter;stroke-opacity:1"
     id="text4913">
    <path
       d="M 11.786884,41.447117 H 8.4547881 V 40.818731 H 9.7363636 V 36.692885 H 8.4547881 v -0.562239 q 0.2604492,0 0.5581055,-0.04134 0.2976562,-0.04548 0.4506184,-0.128158 0.1901693,-0.103353 0.2976563,-0.260449 0.111621,-0.161231 0.1281575,-0.429948 h 0.6407882 v 5.547981 h 1.25677 z"
       style="font-style:normal;font-variant:normal;font-weight:normal;font-stretch:normal;font-size:8.46666622px;font-family:sans-serif;-inkscape-font-specification:'sans-serif, Normal';font-variant-ligatures:normal;font-variant-caps:normal;font-variant-numeric:normal;font-feature-settings:normal;text-align:start;writing-mode:lr-tb;text-anchor:start;fill:#ffffff;fill-opacity:1;stroke-width:0.26458332px"
       id="path5079"
       inkscape:connector-curvature="0" />
  </g>
  <g
     aria-label="2"
     style="font-style:normal;font-variant:normal;font-weight:normal;font-stretch:normal;font-size:2.82222223px;line-height:125%;font-family:'DejaVu Sans Mono';-inkscape-font-specification:'DejaVu Sans Mono, Normal';font-variant-ligatures:normal;font-variant-caps:normal;font-variant-numeric:normal;font-feature-settings:normal;text-align:start;letter-spacing:0px;word-spacing:0px;writing-mode:lr-tb;text-anchor:start;fill:#000000;fill-opacity:1;stroke:none;stroke-width:0.26458332px;stroke-linecap:butt;stroke-linejoin:miter;stroke-opacity:1"
     id="text4913-0">
    <path
       d="M 31.626427,41.500862 H 27.45924 v -0.86403 q 0.434082,-0.37207 0.868164,-0.74414 0.438216,-0.372071 0.814421,-0.740007 0.79375,-0.768945 1.087272,-1.219564 0.293522,-0.454752 0.293522,-0.979785 0,-0.479557 -0.318327,-0.748274 -0.314193,-0.272852 -0.880566,-0.272852 -0.376205,0 -0.814421,0.132292 -0.438216,0.132291 -0.855761,0.405143 h -0.04134 v -0.868164 q 0.293523,-0.144694 0.781348,-0.264583 0.49196,-0.11989 0.950846,-0.11989 0.946713,0 1.484147,0.458887 0.537435,0.454753 0.537435,1.2361 0,0.3514 -0.09095,0.657324 -0.08682,0.301791 -0.260449,0.574642 -0.161231,0.256315 -0.380339,0.504362 -0.214974,0.248047 -0.525033,0.549837 -0.44235,0.434082 -0.913639,0.84336 -0.471289,0.405143 -0.880566,0.752409 h 3.311425 z"
       style="font-style:normal;font-variant:normal;font-weight:normal;font-stretch:normal;font-size:8.46666622px;font-family:sans-serif;-inkscape-font-specification:'sans-serif, Normal';font-variant-ligatures:normal;font-variant-caps:normal;font-variant-numeric:normal;font-feature-settings:normal;text-align:start;writing-mode:lr-tb;text-anchor:start;fill:#ffffff;fill-opacity:1;stroke-width:0.26458332px"
       id="path5082"
       inkscape:connector-curvature="0" />
  </g>
  <g
     aria-label="3"
     style="font-style:normal;font-variant:normal;font-weight:normal;font-stretch:normal;font-size:2.82222223px;line-height:125%;font-family:'DejaVu Sans Mono';-inkscape-font-specification:'DejaVu Sans Mono, Normal';font-variant-ligatures:normal;font-variant-caps:normal;font-variant-numeric:normal;font-feature-settings:normal;text-align:start;letter-spacing:0px;word-spacing:0px;writing-mode:lr-tb;text-anchor:start;fill:#000000;fill-opacity:1;stroke:none;stroke-width:0.26458332px;stroke-linecap:butt;stroke-linejoin:miter;stroke-opacity:1"
     id="text4913-1">
    <path
       d="m 11.693867,65.518399 q 0.198437,0.177767 0.326595,0.446485 0.128157,0.268717 0.128157,0.694531 0,0.421679 -0.152962,0.773079 -0.152962,0.3514 -0.429948,0.611849 -0.310058,0.289388 -0.731738,0.429948 -0.417546,0.136426 -0.9177734,0.136426 -0.5126302,0 -1.0087239,-0.124024 Q 8.41138,68.366804 8.0930532,68.22211 v -0.86403 h 0.062012 q 0.3513997,0.231511 0.8268229,0.384473 0.4754231,0.152962 0.9177734,0.152962 0.2604485,0 0.5539705,-0.08682 0.293523,-0.08682 0.475424,-0.256316 0.190169,-0.181901 0.281119,-0.401009 0.09509,-0.219108 0.09509,-0.553971 0,-0.330729 -0.107487,-0.545703 -0.103353,-0.219108 -0.289388,-0.343132 -0.186035,-0.128157 -0.450618,-0.173632 -0.264584,-0.04961 -0.5705079,-0.04961 H 9.5151885 v -0.686263 h 0.289388 q 0.6283855,0 1.0004555,-0.260449 0.376205,-0.264583 0.376205,-0.768945 0,-0.223242 -0.09508,-0.388607 -0.09509,-0.169499 -0.264583,-0.276986 -0.177767,-0.107487 -0.380339,-0.148828 -0.202571,-0.04134 -0.4588866,-0.04134 -0.3927408,0 -0.8350911,0.14056 -0.4423502,0.14056 -0.8350911,0.396875 h -0.041341 v -0.86403 q 0.2935221,-0.144694 0.7813476,-0.264583 0.4919596,-0.124024 0.9508462,-0.124024 0.450618,0 0.79375,0.08268 0.343131,0.08268 0.620117,0.264583 0.297656,0.198437 0.450619,0.479557 0.152962,0.28112 0.152962,0.657324 0,0.512631 -0.363802,0.897103 -0.359668,0.380339 -0.851628,0.479558 v 0.05788 q 0.198438,0.03307 0.454753,0.14056 0.256315,0.103353 0.434082,0.260449 z"
       style="font-style:normal;font-variant:normal;font-weight:normal;font-stretch:normal;font-size:8.46666622px;font-family:sans-serif;-inkscape-font-specification:'sans-serif, Normal';font-variant-ligatures:normal;font-variant-caps:normal;font-variant-numeric:normal;font-feature-settings:normal;text-align:start;writing-mode:lr-tb;text-anchor:start;fill:#ffffff;fill-opacity:1;stroke-width:0.26458332px"
       id="path5085"
       inkscape:connector-curvature="0" />
  </g>
  <g
     aria-label="4"
     style="font-style:normal;font-variant:normal;font-weight:normal;font-stretch:normal;font-size:2.82222223px;line-height:125%;font-family:'DejaVu Sans Mono';-inkscape-font-specification:'DejaVu Sans Mono, Normal';font-variant-ligatures:normal;font-variant-caps:normal;font-variant-numeric:normal;font-feature-settings:normal;text-align:start;letter-spacing:0px;word-spacing:0px;writing-mode:lr-tb;text-anchor:start;fill:#000000;fill-opacity:1;stroke:none;stroke-width:0.26458332px;stroke-linecap:butt;stroke-linejoin:miter;stroke-opacity:1"
     id="text4913-04">
    <path
       d="m 31.870341,66.750365 h -0.913639 v 1.732194 h -0.79375 v -1.732194 h -2.947624 v -0.950846 l 2.980697,-3.472656 h 0.760677 v 3.762044 h 0.913639 z m -1.707389,-0.661458 v -2.778125 l -2.385384,2.778125 z"
       style="font-style:normal;font-variant:normal;font-weight:normal;font-stretch:normal;font-size:8.46666622px;font-family:sans-serif;-inkscape-font-specification:'sans-serif, Normal';font-variant-ligatures:normal;font-variant-caps:normal;font-variant-numeric:normal;font-feature-settings:normal;text-align:start;writing-mode:lr-tb;text-anchor:start;fill:#ffffff;fill-opacity:1;stroke-width:0.26458332px"
       id="path5088"
       inkscape:connector-curvature="0" />
  </g>
  <g
     id="g973"
     transform="translate(76.912841,13.335999)">
    <path
       inkscape:connector-curvature="0"
       id="rect5282-9"
       d="m -44.939926,71.400085 h 5.291667 v 8.898 h -5.291667 z"
       style="opacity:1;fill:#cd1f00;fill-opacity:1;fill-rule:nonzero;stroke:#cd1f00;stroke-width:2.19999981;stroke-linecap:butt;stroke-linejoin:round;stroke-miterlimit:8.19999981;stroke-dasharray:none;stroke-dashoffset:0;stroke-opacity:1;paint-order:normal" />
    <g
       id="text5206-7-4"
       style="font-style:normal;font-variant:normal;font-weight:normal;font-stretch:normal;font-size:2.11666656px;line-height:125%;font-family:sans-serif;-inkscape-font-specification:'sans-serif, Normal';font-variant-ligatures:normal;font-variant-caps:normal;font-variant-numeric:normal;font-feature-settings:normal;text-align:start;letter-spacing:0px;word-spacing:0px;writing-mode:lr-tb;text-anchor:start;fill:#000000;fill-opacity:1;stroke:none;stroke-width:0.26458332px;stroke-linecap:butt;stroke-linejoin:miter;stroke-opacity:1"
       aria-label="OUT">
      <path
         inkscape:connector-curvature="0"
         id="path995"
         style="font-style:normal;font-variant:normal;font-weight:normal;font-stretch:normal;font-size:2.11666656px;font-family:sans-serif;-inkscape-font-specification:'sans-serif, Normal';font-variant-ligatures:normal;font-variant-caps:normal;font-variant-numeric:normal;font-feature-settings:normal;text-align:start;writing-mode:lr-tb;text-anchor:start;fill:#ffffff;fill-opacity:1;stroke-width:0.26458332px"
         d="m -43.259923,71.567192 q 0.09405,0.103352 0.14366,0.253214 0.05064,0.149862 0.05064,0.340031 0,0.190169 -0.05168,0.341064 -0.05064,0.149862 -0.142627,0.250114 -0.09508,0.104387 -0.22531,0.157097 -0.129191,0.05271 -0.295589,0.05271 -0.162264,0 -0.295589,-0.05374 -0.132292,-0.05374 -0.225309,-0.156063 -0.09302,-0.102319 -0.143661,-0.251147 -0.04961,-0.148828 -0.04961,-0.340031 0,-0.188102 0.04961,-0.33693 0.04961,-0.149862 0.144694,-0.256315 0.09095,-0.101286 0.22531,-0.15503 0.135392,-0.05374 0.294555,-0.05374 0.165365,0 0.296623,0.05478 0.132292,0.05374 0.224276,0.153996 z m -0.0186,0.593245 q 0,-0.299723 -0.134359,-0.461987 -0.134358,-0.163298 -0.366902,-0.163298 -0.234611,0 -0.36897,0.163298 -0.133325,0.162264 -0.133325,0.461987 0,0.302824 0.136426,0.464054 0.136425,0.160197 0.365869,0.160197 0.229443,0 0.364835,-0.160197 0.136426,-0.16123 0.136426,-0.464054 z" />
      <path
         inkscape:connector-curvature="0"
         id="path997"
         style="font-style:normal;font-variant:normal;font-weight:normal;font-stretch:normal;font-size:2.11666656px;font-family:sans-serif;-inkscape-font-specification:'sans-serif, Normal';font-variant-ligatures:normal;font-variant-caps:normal;font-variant-numeric:normal;font-feature-settings:normal;text-align:start;writing-mode:lr-tb;text-anchor:start;fill:#ffffff;fill-opacity:1;stroke-width:0.26458332px"
         d="m -41.582507,72.311332 q 0,0.167432 -0.03721,0.292489 -0.03617,0.124023 -0.119889,0.206706 -0.07958,0.07855 -0.186035,0.114721 -0.106453,0.03617 -0.248047,0.03617 -0.144694,0 -0.252181,-0.03824 -0.107487,-0.03824 -0.180867,-0.112654 -0.08372,-0.08475 -0.120923,-0.204639 -0.03617,-0.119889 -0.03617,-0.294556 v -0.920874 h 0.204639 v 0.93121 q 0,0.125056 0.01654,0.197403 0.01757,0.07235 0.05788,0.131259 0.04548,0.06718 0.12299,0.101285 0.07855,0.03411 0.188102,0.03411 0.110588,0 0.188102,-0.03307 0.07751,-0.03411 0.124024,-0.102319 0.04031,-0.05891 0.05684,-0.134359 0.01757,-0.07648 0.01757,-0.189136 v -0.936377 h 0.204638 z" />
      <path
         inkscape:connector-curvature="0"
         id="path999"
         style="font-style:normal;font-variant:normal;font-weight:normal;font-stretch:normal;font-size:2.11666656px;font-family:sans-serif;-inkscape-font-specification:'sans-serif, Normal';font-variant-ligatures:normal;font-variant-caps:normal;font-variant-numeric:normal;font-feature-settings:normal;text-align:start;writing-mode:lr-tb;text-anchor:start;fill:#ffffff;fill-opacity:1;stroke-width:0.26458332px"
         d="m -40.093192,71.572359 h -0.549837 v 1.357023 h -0.204639 v -1.357023 h -0.549837 v -0.181901 h 1.304313 z" />
    </g>
  </g>
  <g
     id="g978"
     transform="translate(58.484128,8.044327)">
    <path
       inkscape:connector-curvature="0"
       id="rect5282-9-4"
       d="m -56.061211,76.691757 h 5.291667 v 8.898 h -5.291667 z"
       style="opacity:1;fill:#020202;fill-opacity:1;fill-rule:nonzero;stroke:#000000;stroke-width:2.19999981;stroke-linecap:butt;stroke-linejoin:round;stroke-miterlimit:8.19999981;stroke-dasharray:none;stroke-dashoffset:0;stroke-opacity:1;paint-order:normal" />
    <g
       id="text5206-7-4-9"
       style="font-style:normal;font-variant:normal;font-weight:normal;font-stretch:normal;font-size:2.11666656px;line-height:125%;font-family:sans-serif;-inkscape-font-specification:'sans-serif, Normal';font-variant-ligatures:normal;font-variant-caps:normal;font-variant-numeric:normal;font-feature-settings:normal;text-align:start;letter-spacing:0px;word-spacing:0px;writing-mode:lr-tb;text-anchor:start;fill:#000000;fill-opacity:1;stroke:none;stroke-width:0.26458332px;stroke-linecap:butt;stroke-linejoin:miter;stroke-opacity:1"
       aria-label="V/O">
      <path
         inkscape:connector-curvature="0"
         id="path1003"
         style="font-style:normal;font-variant:normal;font-weight:normal;font-stretch:normal;font-size:2.11666656px;font-family:sans-serif;-inkscape-font-specification:'sans-serif, Normal';font-variant-ligatures:normal;font-variant-caps:normal;font-variant-numeric:normal;font-feature-settings:normal;text-align:start;writing-mode:lr-tb;text-anchor:start;fill:#ffffff;fill-opacity:1;stroke-width:0.26458332px"
         d="m -53.987952,76.650087 -0.560172,1.538924 h -0.272852 l -0.560172,-1.538924 h 0.219108 l 0.482658,1.353922 0.482657,-1.353922 z" />
      <path
         inkscape:connector-curvature="0"
         id="path1005"
         style="font-style:normal;font-variant:normal;font-weight:normal;font-stretch:normal;font-size:2.11666656px;font-family:sans-serif;-inkscape-font-specification:'sans-serif, Normal';font-variant-ligatures:normal;font-variant-caps:normal;font-variant-numeric:normal;font-feature-settings:normal;text-align:start;writing-mode:lr-tb;text-anchor:start;fill:#ffffff;fill-opacity:1;stroke-width:0.26458332px"
         d="m -53.072245,76.58084 -0.74104,1.922363 h -0.178801 l 0.73794,-1.922363 z" />
      <path
         inkscape:connector-curvature="0"
         id="path1007"
         style="font-style:normal;font-variant:normal;font-weight:normal;font-stretch:normal;font-size:2.11666656px;font-family:sans-serif;-inkscape-font-specification:'sans-serif, Normal';font-variant-ligatures:normal;font-variant-caps:normal;font-variant-numeric:normal;font-feature-settings:normal;text-align:start;writing-mode:lr-tb;text-anchor:start;fill:#ffffff;fill-opacity:1;stroke-width:0.26458332px"
         d="m -51.643909,76.82682 q 0.09405,0.103353 0.143661,0.253214 0.05064,0.149862 0.05064,0.340031 0,0.19017 -0.05168,0.341065 -0.05064,0.149861 -0.142627,0.250114 -0.09508,0.104386 -0.225309,0.157096 -0.129191,0.05271 -0.295589,0.05271 -0.162264,0 -0.295589,-0.05374 -0.132292,-0.05374 -0.22531,-0.156063 -0.09302,-0.10232 -0.14366,-0.251148 -0.04961,-0.148828 -0.04961,-0.340031 0,-0.188102 0.04961,-0.33693 0.04961,-0.149862 0.144694,-0.256315 0.09095,-0.101286 0.225309,-0.155029 0.135392,-0.05374 0.294556,-0.05374 0.165364,0 0.296622,0.05478 0.132292,0.05374 0.224276,0.153996 z m -0.0186,0.593245 q 0,-0.299723 -0.134359,-0.461987 -0.134359,-0.163297 -0.366903,-0.163297 -0.234611,0 -0.368969,0.163297 -0.133326,0.162264 -0.133326,0.461987 0,0.302824 0.136426,0.464055 0.136426,0.160197 0.365869,0.160197 0.229444,0 0.364836,-0.160197 0.136426,-0.161231 0.136426,-0.464055 z" />
    </g>
  </g>
  <g
     id="g968"
     transform="translate(49.90674,-7.309349)">
    <path
       inkscape:connector-curvature="0"
       id="rect5282-9-4-3"
       d="m -38.662907,92.045433 h 5.291667 v 8.897997 h -5.291667 z"
       style="opacity:1;fill:#020202;fill-opacity:1;fill-rule:nonzero;stroke:#000000;stroke-width:2.19999981;stroke-linecap:butt;stroke-linejoin:round;stroke-miterlimit:8.19999981;stroke-dasharray:none;stroke-dashoffset:0;stroke-opacity:1;paint-order:normal" />
    <g
       id="text5206-7-4-9-5"
       style="font-style:normal;font-variant:normal;font-weight:normal;font-stretch:normal;font-size:2.11666656px;line-height:125%;font-family:sans-serif;-inkscape-font-specification:'sans-serif, Normal';font-variant-ligatures:normal;font-variant-caps:normal;font-variant-numeric:normal;font-feature-settings:normal;text-align:start;letter-spacing:0px;word-spacing:0px;writing-mode:lr-tb;text-anchor:start;fill:#000000;fill-opacity:1;stroke:none;stroke-width:0.26458332px;stroke-linecap:butt;stroke-linejoin:miter;stroke-opacity:1"
       aria-label="SYNC">
      <path
         inkscape:connector-curvature="0"
         id="path1011"
         style="font-style:normal;font-variant:normal;font-weight:normal;font-stretch:normal;font-size:2.11666656px;font-family:sans-serif;-inkscape-font-specification:'sans-serif, Normal';font-variant-ligatures:normal;font-variant-caps:normal;font-variant-numeric:normal;font-feature-settings:normal;text-align:start;writing-mode:lr-tb;text-anchor:start;fill:#ffffff;fill-opacity:1;stroke-width:0.26458332px"
         d="m -37.625242,93.103437 q 0,0.08992 -0.04237,0.177767 -0.04134,0.08785 -0.116789,0.148828 -0.08268,0.06615 -0.193269,0.103353 -0.109554,0.03721 -0.264584,0.03721 -0.166398,0 -0.299723,-0.03101 -0.132292,-0.03101 -0.269751,-0.09198 V 93.19129 h 0.01447 q 0.116789,0.09715 0.269751,0.149861 0.152963,0.05271 0.287321,0.05271 0.19017,0 0.295589,-0.07131 0.106454,-0.07131 0.106454,-0.190169 0,-0.10232 -0.05064,-0.150896 -0.04961,-0.04857 -0.151929,-0.07545 -0.07751,-0.02067 -0.168465,-0.03411 -0.08992,-0.01344 -0.191203,-0.03411 -0.204638,-0.04341 -0.303857,-0.147795 -0.09819,-0.10542 -0.09819,-0.273885 0,-0.19327 0.163297,-0.316259 0.163298,-0.124024 0.414445,-0.124024 0.162264,0 0.297656,0.03101 0.135393,0.03101 0.239779,0.07648 v 0.241846 h -0.01447 q -0.08785,-0.07441 -0.231511,-0.12299 -0.142627,-0.04961 -0.292488,-0.04961 -0.164331,0 -0.264584,0.06821 -0.09922,0.06821 -0.09922,0.1757 0,0.09612 0.04961,0.150895 0.04961,0.05478 0.174666,0.08372 0.06615,0.01447 0.188103,0.03514 0.121956,0.02067 0.206705,0.04238 0.171566,0.04547 0.258382,0.137459 0.08682,0.09198 0.08682,0.257349 z" />
      <path
         inkscape:connector-curvature="0"
         id="path1013"
         style="font-style:normal;font-variant:normal;font-weight:normal;font-stretch:normal;font-size:2.11666656px;font-family:sans-serif;-inkscape-font-specification:'sans-serif, Normal';font-variant-ligatures:normal;font-variant-caps:normal;font-variant-numeric:normal;font-feature-settings:normal;text-align:start;writing-mode:lr-tb;text-anchor:start;fill:#ffffff;fill-opacity:1;stroke-width:0.26458332px"
         d="m -36.207241,92.003762 -0.541569,0.86403 v 0.674894 h -0.204639 v -0.65319 l -0.543636,-0.885734 h 0.226343 l 0.420646,0.68833 0.424781,-0.68833 z" />
      <path
         inkscape:connector-curvature="0"
         id="path1015"
         style="font-style:normal;font-variant:normal;font-weight:normal;font-stretch:normal;font-size:2.11666656px;font-family:sans-serif;-inkscape-font-specification:'sans-serif, Normal';font-variant-ligatures:normal;font-variant-caps:normal;font-variant-numeric:normal;font-feature-settings:normal;text-align:start;writing-mode:lr-tb;text-anchor:start;fill:#ffffff;fill-opacity:1;stroke-width:0.26458332px"
         d="m -34.820246,93.542686 h -0.253214 l -0.729671,-1.37666 v 1.37666 h -0.191203 v -1.538924 h 0.317293 l 0.665593,1.256771 v -1.256771 h 0.191202 z" />
      <path
         inkscape:connector-curvature="0"
         id="path1017"
         style="font-style:normal;font-variant:normal;font-weight:normal;font-stretch:normal;font-size:2.11666656px;font-family:sans-serif;-inkscape-font-specification:'sans-serif, Normal';font-variant-ligatures:normal;font-variant-caps:normal;font-variant-numeric:normal;font-feature-settings:normal;text-align:start;writing-mode:lr-tb;text-anchor:start;fill:#ffffff;fill-opacity:1;stroke-width:0.26458332px"
         d="m -33.22241,93.431065 q -0.05684,0.02481 -0.103353,0.04651 -0.04547,0.0217 -0.119889,0.04547 -0.06305,0.01964 -0.13746,0.03307 -0.07338,0.01447 -0.162264,0.01447 -0.167431,0 -0.304891,-0.04651 -0.136425,-0.04754 -0.237711,-0.147795 -0.09922,-0.09819 -0.15503,-0.24908 -0.05581,-0.151929 -0.05581,-0.352433 0,-0.19017 0.05374,-0.340031 0.05374,-0.149862 0.15503,-0.253215 0.09819,-0.100252 0.236678,-0.152962 0.139526,-0.05271 0.309025,-0.05271 0.124023,0 0.247013,0.02997 0.124024,0.02997 0.274919,0.10542 v 0.24288 h -0.0155 q -0.127124,-0.106454 -0.252181,-0.15503 -0.125057,-0.04858 -0.267684,-0.04858 -0.116789,0 -0.21084,0.03824 -0.09302,0.03721 -0.166398,0.116789 -0.07131,0.07751 -0.111621,0.19637 -0.03927,0.117822 -0.03927,0.272852 0,0.162264 0.04341,0.279052 0.04444,0.116789 0.113688,0.19017 0.07235,0.07648 0.168465,0.113688 0.09715,0.03617 0.204639,0.03617 0.147795,0 0.276986,-0.05064 0.129191,-0.05064 0.241845,-0.151928 h 0.01447 z" />
    </g>
  </g>
</svg>
