<?xml version="1.0" encoding="UTF-8" standalone="no"?>
<svg
   xmlns:osb="http://www.openswatchbook.org/uri/2009/osb"
   xmlns:dc="http://purl.org/dc/elements/1.1/"
   xmlns:cc="http://creativecommons.org/ns#"
   xmlns:rdf="http://www.w3.org/1999/02/22-rdf-syntax-ns#"
   xmlns:svg="http://www.w3.org/2000/svg"
   xmlns="http://www.w3.org/2000/svg"
   xmlns:sodipodi="http://sodipodi.sourceforge.net/DTD/sodipodi-0.dtd"
   xmlns:inkscape="http://www.inkscape.org/namespaces/inkscape"
   width="105"
   height="380"
   viewBox="0 0 27.78125 100.54166"
   version="1.1"
   id="svg12553"
   sodipodi:docname="DFUZE.svg"
   inkscape:version="0.92.3 (2405546, 2018-03-11)">
  <sodipodi:namedview
     pagecolor="#ffffff"
     bordercolor="#666666"
     borderopacity="1"
     objecttolerance="10"
     gridtolerance="10"
     guidetolerance="10"
     inkscape:pageopacity="0"
     inkscape:pageshadow="2"
     inkscape:window-width="3840"
     inkscape:window-height="2066"
     id="namedview82"
     showgrid="false"
     inkscape:zoom="1.7566021"
     inkscape:cx="-416.05836"
     inkscape:cy="108.78606"
     inkscape:window-x="-11"
     inkscape:window-y="-11"
     inkscape:window-maximized="1"
     inkscape:current-layer="svg12553" />
  <defs
     id="defs12547">
    <linearGradient
       osb:paint="solid"
       id="linearGradient4708">
      <stop
         id="stop4706"
         offset="0"
         style="stop-color:#ececec;stop-opacity:1;" />
    </linearGradient>
    <filter
       id="filter4696"
       style="color-interpolation-filters:sRGB">
      <feColorMatrix
         id="feColorMatrix4692"
         result="colormatrix"
         values="0 0 0 0 1 0 0 0 0 0 0 0 0 0 0 1 0 0 0 0 0 "
         in="SourceGraphic" />
      <feBlend
         id="feBlend4694"
         result="fbSourceGraphic"
         mode="multiply"
         in2="BackgroundImage" />
      <feColorMatrix
         id="feColorMatrix4762"
         values="0 0 0 -1 0 0 0 0 -1 0 0 0 0 -1 0 0 0 0 1 0"
         in="fbSourceGraphic"
         result="fbSourceGraphicAlpha" />
      <feColorMatrix
         in="fbSourceGraphic"
         result="colormatrix"
         values="1 0 0 0 0 0 1 0 0 0 0 0 1 0 0 0 0 0 5 -1 "
         id="feColorMatrix4764" />
      <feComposite
         k4="0"
         k3="0"
         k1="0"
         result="composite"
         k2="0.3"
         operator="arithmetic"
         id="feComposite4766"
         in2="colormatrix" />
    </filter>
  </defs>
  <metadata
     id="metadata12550">
    <rdf:RDF>
      <cc:Work
         rdf:about="">
        <dc:format>image/svg+xml</dc:format>
        <dc:type
           rdf:resource="http://purl.org/dc/dcmitype/StillImage" />
        <dc:title />
      </cc:Work>
    </rdf:RDF>
  </metadata>
  <g
     id="layer1"
     transform="matrix(0.23299263,0,0,1.0012215,-6.2015274,-161.56849)">
    <path
       id="path33453"
       d="M 26.616839,161.37987 H 145.85344 v 100.3961 H 26.616839 Z m 0,0"
       style="fill:#e6e6e6;fill-opacity:1;fill-rule:nonzero;stroke:none;stroke-width:0.32258889"
       inkscape:connector-curvature="0" />
  </g>
  <path
     id="path875"
     d="m 27.710268,48.776774 c -0.308619,7.240415 -5.83238,14.447958 -3.114193,3.207615 1.919153,-9.605853 0.453815,-18.322976 2.478933,-27.381993 1.039614,-4.221609 3.247213,-14.350919 2.779324,-4.752553 -0.05571,9.174916 -0.88669,19.121551 -2.144064,28.926931 z m -5.873419,30.322252 c -0.86641,3.337029 -4.932986,9.968586 -4.243063,6.781963 1.609808,-1.54747 6.27702,-11.658899 2.231826,-4.663996 0.02859,-3.972769 -5.628119,9.560224 -6.050147,2.633395 -1.126403,-5.155153 2.212303,-15.174737 3.891688,-17.850045 -0.572674,-3.288814 -1.717464,1.863454 -2.539827,0.302338 1.378925,4.578563 -0.371086,-1.091767 -0.636022,0.255016 -1.541567,-1.875338 0.0092,-12.471245 0.789241,-18.214542 0.449606,-4.307592 1.736799,-15.794814 2.546853,-17.198457 1.021226,4.191803 1.070931,-0.458623 0.214346,-2.051013 1.161444,-4.977628 0.780234,-6.442298 2.490597,-5.868759 -1.16587,-6.550834 3.121631,-15.6058235 5.268832,-18.113898 1.681867,-4.1803604 2.435338,4.311069 2.885231,3.556498 -2.002505,-0.01104 -1.321746,5.912339 0.283249,5.382759 -0.459784,7.531048 -1.227395,-1.662311 -2.033442,2.703317 2.78629,6.144776 -2.441986,-3.157692 -3.032537,5.242365 1.999394,3.06452 -2.503008,6.47037 -2.817592,11.672026 -0.64295,0.434349 -3.321554,0.802869 -1.813727,5.011458 0.788372,4.480772 -1.571095,13.163143 -1.354236,18.967488 -1.229895,8.523958 1.941042,15.486544 4.631846,4.689437 -0.07008,5.276806 0.861713,11.485632 -0.713115,16.762651 z M 26.486005,12.50899 c -1.709109,-3.27386 -4.153062,7.436612 -0.866695,4.159961 1.233537,-0.264627 2.270914,-3.439836 0.866695,-4.159961 z M 26.334569,8.018282 c -1.475858,-3.0713736 -4.013222,5.691528 -0.936875,3.004922 0.636348,-0.06629 1.779843,-1.86481 0.936875,-3.004922 z m -5.145314,21.24388 c -0.736718,0.965486 0.565788,1.020056 0,0 z m -0.03298,-6.159227 c -0.663991,2.675906 0.300521,7.843078 0.08969,1.107854 z m -1.019391,2.816597 c -2.721016,3.62381 1.311091,8.597963 0.333575,1.508419 -0.08245,-0.519306 -0.07472,-1.365065 -0.333575,-1.508419 z M 14.71619,63.563574 c -1.206257,4.35444 0.87185,-1.824006 0,0 z m 0.627591,-10.774652 c -0.378454,-2.290519 0.07968,4.989549 0,0 z M 29.62998,11.815382 c -0.441226,-4.9237351 0.543202,2.347429 0,0 z m -0.988609,0.745788 c -0.734071,0.05547 0.870719,-1.781415 0,0 z m -2.234312,11.671779 c -0.666309,-0.329044 0.925423,-0.563936 0,0 z m -0.380981,-0.973012 c -2.420439,0.566343 2.382931,-1.688589 0,0 z m -0.641629,1.240593 c -0.666311,-0.329048 0.925423,-0.563938 0,0 z M 21.95333,47.882382 c -0.818487,-1.259055 1.035773,-0.375635 0,0 z M 15.216702,92.914104 C 12.7626,92.506746 13.09898,86.584411 12.300805,82.282045 c -1.387791,1.362361 1.585094,-3.434405 0.191306,-5.039289 -0.162209,-7.700931 -0.02635,-16.22257 1.600285,-24.810114 -1.009769,13.44423 -2.423568,28.687256 0.220713,38.095369 -0.168562,0.822777 1.865023,2.024061 0.903593,2.386093 z M 13.997083,68.151189 c -0.734069,0.05547 0.870719,-1.781412 0,0 z M 20.171851,6.7547542 c -0.661204,-1.2205901 0.938964,-1.4654515 0,0 z M 10.388843,91.327863 c -1.2341255,-0.375772 -0.5538203,-3.700329 0,0 z M 19.800419,4.7816126 c -0.661202,-1.220586 0.938964,-1.4654532 0,0 z m -1.280175,6.6951954 c -1.08187,-1.04927 -4.210921,4.514417 -1.760162,-0.575471 0.460935,-0.833329 2.160159,-1.429401 1.760162,0.575471 z M 9.3506794,87.906596 C 6.959219,87.070712 9.0376112,81.343496 9.9057492,86.503312 L 9.7593306,87.294901 Z M 18.459279,9.273188 c -2.223294,-2.3989899 -0.121132,-2.0821868 0,0 z M 8.6570992,90.459883 c -2.5551344,2.410209 2.4100548,-3.43224 0,0 z m -0.6547185,4.280875 c -1.0851206,-0.104047 1.1759842,-0.695838 0,0 z M 15.995062,19.71446 c -2.898785,5.337092 -2.290011,-4.4584 0.255335,-3.574192 0.808268,0.01179 0.556764,2.532602 -0.255335,3.574192 z M 17.828139,5.9854825 c -2.369171,2.3476725 -0.702492,-2.8879398 0,0 z M 7.8575087,92.957448 c -2.1641121,2.877151 -2.3165575,-3.822712 -0.2877526,-0.60021 0.027332,-0.04688 0.8897438,-0.226939 0.2877526,0.60021 z M 8.7289868,82.672781 c -2.523328,2.885443 -2.1650934,-6.415677 0.1706484,-4.07751 0.5844046,0.263308 0.7328466,3.144478 -0.1706484,4.07751 z M 14.453218,27.184945 c -0.712568,-2.940987 -2.058759,5.928703 -2.525511,0.339075 0.702499,-4.647636 4.116019,-5.695761 2.525511,-0.339075 z M 7.3708223,87.439266 c -0.1986936,-4.55132 1.0221869,-2.021287 0,0 z m 1.420659,-22.325453 c -1.1526549,1.671598 -2.4368488,2.305313 -1.3522771,-2.58854 1.5039568,-3.052864 0.9040335,2.760606 2.4592839,1.52251 -0.2023461,1.147903 -0.8194329,0.790197 -1.1070068,1.06603 z M 6.2337217,89.89018 C 2.0652993,92.875003 7.0405509,85.391922 6.57242,89.288619 L 6.3921481,89.608802 Z M 14.873564,11.842429 c -3.481356,1.641445 1.556061,-6.5009628 0.568904,-0.334071 z M 10.076541,56.366854 C 9.1117055,57.16226 7.1872432,60.064795 7.9795115,54.019437 9.2065824,49.153006 11.614974,52.324587 10.076541,56.366854 Z M 14.585121,6.1462242 C 11.296778,6.8072245 16.621048,3.4035403 15.548499,5.7448527 L 15.113864,5.9680671 Z M 5.4613449,95.48737 c -1.0719705,-1.778785 0.722177,-2.388984 0,0 z M 10.710461,47.919667 c -3.5074332,4.670532 -0.767838,-10.573173 0.540926,-4.860916 -0.03124,1.522217 -0.06982,3.268928 -0.540926,4.860916 z m 1.456588,-12.258539 c -1.240178,8.298337 -2.9436399,-2.791033 0.25166,-3.582012 0.329889,0.638141 -0.220692,2.541258 -0.25166,3.582012 z M 6.190526,85.876567 C 3.4419467,90.215808 3.4014455,79.58447 5.9612733,82.927342 c 0.2607629,0.584126 0.9740403,1.654835 0.2292527,2.949225 z m 7.619113,-68.963981 c -2.411445,4.716873 -2.968201,-3.048856 -0.110556,-3.176246 0.955993,-0.836751 1.026929,1.920807 0.110556,3.176246 z M 6.954395,74.15655 c -0.2179876,-7.491192 0.7549793,5.181155 0,0 z M 4.2671829,95.353752 c -2.0185014,1.126756 -0.9102285,-2.62321 0,0 z M 12.346423,23.13506 c -2.3861022,7.518837 -3.6308652,-1.661714 -0.569776,-2.796838 0.677459,-0.446099 1.10414,1.065236 0.569776,2.796838 z M 13.437521,9.319617 C 11.2505,12.795322 10.99198,7.2491903 13.250986,7.4587151 14.106812,6.9551859 14.92517,7.5846901 13.437521,9.319617 Z M 4.3528364,93.237954 c -1.4799548,2.121405 -3.92723661,-1.893339 -1.086897,-2.139613 0.314165,0.335997 1.4975565,0.37243 1.086897,2.139613 z M 5.6377141,79.704492 c -2.5474163,4.089006 -2.5700917,-6.276644 -0.3664338,-4.611903 -0.3839639,2.6551 -1.6495559,4.458068 0.2173243,3.426423 0.6063707,-0.900553 0.5466602,1.185788 0.1491095,1.18548 z M 5.619846,72.13647 C 0.60801728,75.784447 6.536289,59.429215 6.2044266,70.245761 l -0.255638,1.123056 z m 4.582158,-39.37279 c -3.1443569,7.012928 -2.3129768,-6.127944 0.326213,-3.944069 0.435313,0.694761 0.169742,2.750403 -0.326213,3.944069 z m 1.66574,-18.688368 c -2.2629909,4.52574 -3.0381454,-2.258892 -0.2972,-2.482062 0.724318,-0.702196 1.287389,1.077128 0.2972,2.482062 z M 6.5234705,61.943395 C 3.7160158,69.317939 7.1873973,52.215344 5.0703617,61.273513 2.6008014,67.035872 6.0107984,51.263634 6.8094916,58.885639 l 0.1007701,1.648277 -0.3868042,1.409482 z M 8.8293338,41.798091 c -2.6754721,8.31299 -3.1770223,-5.45119 -0.040802,-3.776401 0.4010569,0.595146 0.7014717,2.220608 0.040802,3.776401 z m -6.846516,54.599457 c -1.70915633,0.441344 -4.1956467,-3.21425 -0.8774925,-2.683754 0.1733184,0.651182 2.719842,2.10159 0.8774925,2.683754 z M 3.103087,89.589691 C 0.67540521,91.748765 0.68763553,86.585552 2.8023045,86.172339 3.1174812,86.618934 4.1098116,88.295231 3.103087,89.589691 Z M 7.554192,52.058657 C 4.7416996,59.201991 4.4065138,46.662071 7.3132307,47.372471 8.0351256,47.768217 8.0173448,50.139642 7.554192,52.058657 Z M 6.6623198,48.849494 c -0.7660282,0.33704 0.5072574,1.42086 0,0 z M 11.110262,8.077462 C 8.0873646,10.596723 10.641704,5.585255 11.860401,7.1153479 L 11.719872,7.3932446 Z M 9.661768,21.129437 C 7.4807124,26.357996 6.5165421,18.858553 9.3747269,17.955349 10.487593,17.149412 10.879157,19.031315 9.661768,21.129437 Z M 2.5525821,84.031048 c -1.1278097,0.973027 -3.5897099,-1.6864 -0.8048856,-4.14006 2.821968,0.228885 -0.6591007,2.831665 0.8048856,4.14006 z M 2.216848,76.922085 c -2.91346461,3.904605 -1.61451707,-8.9562 0.4005137,-4.236371 0.4289198,0.811985 0.426138,3.141504 -0.4005137,4.236371 z M 7.5338847,29.859082 c -3.3508333,5.311717 -1.4902792,-7.168503 0.6986392,-4.456888 0.4465419,0.991987 -0.040275,3.398884 -0.6986392,4.456888 z M 9.2933934,12.489377 C 5.1503393,16.608451 10.068604,6.1538845 9.963148,11.479126 Z M 0.32119289,92.662569 c -2.23126599,0.77084 1.95325291,-4.612115 0,0 z M 2.968543,67.278054 c -3.15188942,7.876257 -2.36113943,-8.020207 0.070065,-3.750132 0.2633133,0.890765 0.5190098,2.341406 -0.070065,3.750132 z M 5.7571321,39.206269 C 2.2702626,45.421115 4.8376436,29.433061 6.6876433,34.702525 6.9189361,36.055757 6.3503611,38.098919 5.7571321,39.206269 Z M 3.3940047,58.680893 C 0.73698405,63.420545 3.7162414,53.423085 1.608106,55.13209 3.0421945,49.873172 5.228293,54.350711 3.3940047,58.680893 Z M 4.2406869,49.371536 C 2.8045008,53.078755 1.2029485,46.335635 3.4560259,46.665792 0.8929436,45.219313 7.3764146,39.957856 4.848309,48.121661 L 4.6008906,48.751536 Z M 7.8826347,17.527162 c -2.5339523,5.995031 -3.3774003,-1.47809 -0.3748951,-2.068164 0.3714824,0.02471 0.9394344,0.805323 0.3748951,2.068164 z m -9.6690649,79.856635 c -2.9363823,0.01882 -3.7613512,-6.684286 -4.6117485,-12.250457 -2.6283737,1.864103 -3.9439833,-2.812093 -4.3543433,-7.920456 -0.300162,-3.406504 -0.381264,-8.564746 0.557366,-2.83696 1.6028864,0.747086 2.6873772,7.754656 4.3656291,6.448828 -0.2417023,7.322511 1.6237791,14.543181 4.36085,16.00195 l -0.00805,0.335425 z M -0.4596103,87.18756 c -0.29579238,0.313064 -5.1656e-4,-2.88851 -1.0716519,-2.865463 0.58563774,-0.94306 2.15814047,0.333699 1.0716519,2.865463 z M 5.6188949,25.535012 c -2.2152166,5.945944 -3.271965,-2.408979 -0.289836,-3.420965 1.0290302,-0.968907 1.2796645,1.65179 0.289836,3.420965 z m -6.33633898,55.696547 c -1.24526072,-0.07725 -2.73162002,1.324089 -1.73869062,-3.521212 1.1270775,-2.732636 2.73520413,0.427202 1.73869062,3.521212 z M -2.3034103,78.886101 c -0.9872353,1.651908 0.6536055,1.04872 0,0 z M 3.6183785,34.659596 C 0.54911055,40.851139 1.4751702,28.152399 4.016135,30.378748 4.6564091,30.993791 4.3677812,33.440606 3.6183785,34.659596 Z M -0.90927457,73.826647 C -2.532429,75.414649 0.92046756,67.076106 -0.59361106,73.056241 Z M 0.99438798,53.696831 c -2.70259498,7.470216 -3.12725908,-6.306474 -0.0201401,-4.563365 0.27590402,0.984151 0.95469092,2.788536 0.0201401,4.563365 z m -1.18011716,0.308786 c -0.87295212,1.366367 0.87970655,0.750239 0,0 z M 0.42255057,50.03411 c -2.21942057,2.753776 0.48364759,1.260195 0,0 z M 2.0040505,44.305149 c -3.6149258,6.808438 -1.2514683,-9.663236 0.6946489,-3.59795 0.1810699,1.125266 -0.3247418,2.571097 -0.6946489,3.59795 z m -3.5994478,16.380353 c -2.0714481,5.554569 0.65503977,-3.398904 0.3418092,-0.737029 l -0.3418118,0.737014 z m -2.9337723,26.190883 c -1.3364758,1.77942 0.6008296,-4.660206 0,0 z M -6.067209,79.223941 c -1.1300301,3.865466 -1.1663372,-11.363711 -0.4466945,-2.597926 0.3692004,0.550078 0.8241922,0.53862 0.4466945,2.597926 z m 0.2675053,-6.446146 c -1.3659599,1.635427 0.5906242,-5.474163 0.1509856,0.102887 l -0.1509846,-0.102885 z m -0.3946884,2.985743 c -0.51809,-1.581565 0.6547686,-2.476572 0,0 z m 0.5726642,-11.609215 c -1.3133094,0.439313 1.6361045,-7.086283 0.350236,-0.701351 z m -1.171753,8.003125 c -0.4553025,-4.901649 0.4883285,-14.905998 1.5563468,-22.00592 -0.312689,6.917026 -1.3014201,14.819811 -1.295669,21.376809 z m -4.1460601,-2.301419 c 0.167124,-3.226182 0.283199,0.887322 0,0 z"
     style="opacity:0.1;fill:#000000;stroke-width:0.45019099"
     inkscape:connector-curvature="0" />
  <g
     id="text4860"
     style="font-style:normal;font-variant:normal;font-weight:normal;font-stretch:normal;font-size:2.82222223px;line-height:125%;font-family:Sudo;-inkscape-font-specification:'Sudo, Normal';font-variant-ligatures:normal;font-variant-caps:normal;font-variant-numeric:normal;font-feature-settings:normal;text-align:start;letter-spacing:0px;word-spacing:0px;writing-mode:lr-tb;text-anchor:start;fill:#000000;fill-opacity:1;stroke:none;stroke-width:0.26458332px;stroke-linecap:butt;stroke-linejoin:miter;stroke-opacity:1" />
  <g
     id="flowRoot1009"
     style="font-style:normal;font-variant:normal;font-weight:normal;font-stretch:normal;font-size:10.66666698px;line-height:125%;font-family:Sudo;-inkscape-font-specification:'Sudo, Normal';font-variant-ligatures:normal;font-variant-caps:normal;font-variant-numeric:normal;font-feature-settings:normal;text-align:start;letter-spacing:0px;word-spacing:0px;writing-mode:lr-tb;text-anchor:start;fill:#000000;fill-opacity:1;stroke:none;stroke-width:1px;stroke-linecap:butt;stroke-linejoin:miter;stroke-opacity:1" />
  <path
     id="path854"
     d="M 7.149689,17.215384 H 20.63156"
     style="fill:none;fill-rule:evenodd;stroke:#000000;stroke-width:0.26458332px;stroke-linecap:butt;stroke-linejoin:miter;stroke-opacity:1" />
  <path
     id="path856"
     d="M 7.179385,29.093685 H 20.601864"
     style="fill:none;fill-rule:evenodd;stroke:#000000;stroke-width:0.26458332px;stroke-linecap:butt;stroke-linejoin:miter;stroke-opacity:1" />
  <path
     id="path858"
     d="M 7.298168,41.090769 H 20.483081"
     style="fill:none;fill-rule:evenodd;stroke:#000000;stroke-width:0.26458332px;stroke-linecap:butt;stroke-linejoin:miter;stroke-opacity:1" />
  <path
     id="path860"
     d="M 7.1793845,64.90676 H 20.601865"
     style="fill:none;fill-rule:evenodd;stroke:#000000;stroke-width:0.26458332px;stroke-linecap:butt;stroke-linejoin:miter;stroke-opacity:1" />
  <path
     id="path862"
     d="M 7.2090805,76.785061 H 20.572169"
     style="fill:none;fill-rule:evenodd;stroke:#000000;stroke-width:0.26458332px;stroke-linecap:butt;stroke-linejoin:miter;stroke-opacity:1" />
  <path
     id="path858-0"
     d="M 7.3051551,52.845869 H 20.490068"
     style="fill:none;fill-rule:evenodd;stroke:#000000;stroke-width:0.26458332px;stroke-linecap:butt;stroke-linejoin:miter;stroke-opacity:1" />
  <g
     aria-label="dFUZE"
     style="font-style:normal;font-variant:normal;font-weight:normal;font-stretch:normal;font-size:2.82222223px;line-height:125%;font-family:'DejaVu Sans Mono';-inkscape-font-specification:'DejaVu Sans Mono, Normal';font-variant-ligatures:normal;font-variant-caps:normal;font-variant-numeric:normal;font-feature-settings:normal;text-align:start;letter-spacing:0px;word-spacing:0px;writing-mode:lr-tb;text-anchor:start;fill:#000000;fill-opacity:1;stroke:none;stroke-width:0.26458332px;stroke-linecap:butt;stroke-linejoin:miter;stroke-opacity:1"
     id="text894"
     transform="translate(0,-1.1241254)">
    <path
       d="M 9.2779865,5.663383 H 8.8893798 V 5.4215373 q -0.1674316,0.144694 -0.3493327,0.2253092 -0.181901,0.080615 -0.3948079,0.080615 -0.4134114,0 -0.6573242,-0.3183268 -0.2418457,-0.3183268 -0.2418457,-0.8826334 0,-0.2935222 0.082682,-0.5229655 0.084749,-0.2294434 0.2273763,-0.3906738 0.1405599,-0.1570964 0.326595,-0.2397787 0.1881022,-0.082682 0.3886068,-0.082682 0.181901,0 0.3224609,0.039274 0.1405599,0.037207 0.2955892,0.1178223 V 2.447042 h 0.388607 z M 8.8893798,5.0949423 V 3.7699586 Q 8.7322834,3.6996787 8.60826,3.6728069 8.4842366,3.6459352 8.3374755,3.6459352 q -0.326595,0 -0.5084961,0.2273763 -0.181901,0.2273763 -0.181901,0.6449218 0,0.4113444 0.1405599,0.6263184 0.1405599,0.2129068 0.4506185,0.2129068 0.1653645,0 0.3348632,-0.072347 0.1694987,-0.074414 0.3162598,-0.1901692 z"
       style="font-style:normal;font-variant:normal;font-weight:normal;font-stretch:normal;font-size:4.23333311px;font-family:sans-serif;-inkscape-font-specification:'sans-serif, Normal';font-variant-ligatures:normal;font-variant-caps:normal;font-variant-numeric:normal;font-feature-settings:normal;text-align:start;writing-mode:lr-tb;text-anchor:start;stroke-width:0.26458332px"
       id="path1092"
       inkscape:connector-curvature="0" />
    <path
       d="m 12.039575,2.9493369 h -1.556494 v 0.868164 h 1.337386 V 4.181303 h -1.337386 v 1.48208 H 10.073803 V 2.5855349 h 1.965772 z"
       style="font-style:normal;font-variant:normal;font-weight:normal;font-stretch:normal;font-size:4.23333311px;font-family:sans-serif;-inkscape-font-specification:'sans-serif, Normal';font-variant-ligatures:normal;font-variant-caps:normal;font-variant-numeric:normal;font-feature-settings:normal;text-align:start;writing-mode:lr-tb;text-anchor:start;stroke-width:0.26458332px"
       id="path1094"
       inkscape:connector-curvature="0" />
    <path
       d="m 14.821834,4.4272828 q 0,0.3348633 -0.07441,0.5849772 -0.07235,0.2480469 -0.239779,0.4134114 -0.159163,0.1570964 -0.37207,0.2294434 -0.212907,0.072347 -0.496094,0.072347 -0.289388,0 -0.504362,-0.076481 Q 12.920141,5.5744995 12.77338,5.4256714 12.605949,5.2561727 12.531535,5.0163941 12.459188,4.7766155 12.459188,4.4272828 V 2.5855349 h 0.409277 v 1.8624185 q 0,0.2501139 0.03307,0.3948079 0.03514,0.144694 0.115755,0.2625163 0.09095,0.1343587 0.24598,0.2025716 0.157096,0.068213 0.376204,0.068213 0.221175,0 0.376205,-0.066146 0.155029,-0.068213 0.248046,-0.2046386 0.08062,-0.1178223 0.113689,-0.2687175 0.03514,-0.1529622 0.03514,-0.3782714 V 2.5855349 h 0.409277 z"
       style="font-style:normal;font-variant:normal;font-weight:normal;font-stretch:normal;font-size:4.23333311px;font-family:sans-serif;-inkscape-font-specification:'sans-serif, Normal';font-variant-ligatures:normal;font-variant-caps:normal;font-variant-numeric:normal;font-feature-settings:normal;text-align:start;writing-mode:lr-tb;text-anchor:start;stroke-width:0.26458332px"
       id="path1096"
       inkscape:connector-curvature="0" />
    <path
       d="m 17.854207,5.663383 h -2.40192 V 5.2830445 L 17.33951,2.9493369 h -1.816944 v -0.363802 h 2.286166 v 0.3700032 l -1.905827,2.3440428 h 1.951302 z"
       style="font-style:normal;font-variant:normal;font-weight:normal;font-stretch:normal;font-size:4.23333311px;font-family:sans-serif;-inkscape-font-specification:'sans-serif, Normal';font-variant-ligatures:normal;font-variant-caps:normal;font-variant-numeric:normal;font-feature-settings:normal;text-align:start;writing-mode:lr-tb;text-anchor:start;stroke-width:0.26458332px"
       id="path1098"
       inkscape:connector-curvature="0" />
    <path
       d="M 20.53518,5.663383 H 18.507397 V 2.5855349 h 2.027783 v 0.363802 h -1.618506 v 0.8433594 h 1.618506 v 0.363802 h -1.618506 v 1.1430826 h 1.618506 z"
       style="font-style:normal;font-variant:normal;font-weight:normal;font-stretch:normal;font-size:4.23333311px;font-family:sans-serif;-inkscape-font-specification:'sans-serif, Normal';font-variant-ligatures:normal;font-variant-caps:normal;font-variant-numeric:normal;font-feature-settings:normal;text-align:start;writing-mode:lr-tb;text-anchor:start;stroke-width:0.26458332px"
       id="path1100"
       inkscape:connector-curvature="0" />
  </g>
  <g
     aria-label="bId°°"
     style="font-style:normal;font-variant:normal;font-weight:normal;font-stretch:normal;font-size:2.82222223px;line-height:125%;font-family:'DejaVu Sans Mono';-inkscape-font-specification:'DejaVu Sans Mono, Normal';font-variant-ligatures:normal;font-variant-caps:normal;font-variant-numeric:normal;font-feature-settings:normal;text-align:start;letter-spacing:0px;word-spacing:0px;writing-mode:lr-tb;text-anchor:start;fill:#000000;fill-opacity:1;stroke:none;stroke-width:0.26458332px;stroke-linecap:butt;stroke-linejoin:miter;stroke-opacity:1"
     id="text894-7"
     transform="translate(0,0.19393368)">
    <path
       d="m 10.445874,97.788718 q 0,0.289388 -0.08268,0.520898 -0.08061,0.231511 -0.219108,0.388607 -0.1467613,0.163297 -0.3224611,0.24598 -0.1756999,0.08061 -0.3865397,0.08061 -0.1963704,0 -0.3431315,-0.04754 -0.1467631,-0.04547 -0.28939,-0.124021 L 8.777759,98.960739 H 8.4139569 v -3.216341 h 0.3886068 v 1.149284 q 0.1632975,-0.134359 0.3472656,-0.219108 0.1839681,-0.08682 0.4134114,-0.08682 0.4092774,0 0.6449223,0.314193 0.237711,0.314193 0.237711,0.886768 z m -0.401009,0.01033 q 0,-0.413411 -0.1364257,-0.626318 -0.1364258,-0.214974 -0.4402832,-0.214974 -0.1694987,0 -0.3431315,0.07441 -0.1736328,0.07235 -0.3224609,0.188102 v 1.322917 q 0.1653646,0.07441 0.2831868,0.103352 0.1198893,0.02894 0.2707845,0.02894 0.3224609,0 0.504362,-0.21084 0.183968,-0.212906 0.183968,-0.665592 z"
       style="font-style:normal;font-variant:normal;font-weight:normal;font-stretch:normal;font-size:4.23333311px;font-family:sans-serif;-inkscape-font-specification:'sans-serif, Normal';font-variant-ligatures:normal;font-variant-caps:normal;font-variant-numeric:normal;font-feature-settings:normal;text-align:start;writing-mode:lr-tb;text-anchor:start;stroke-width:0.26458332px"
       id="path1081"
       inkscape:connector-curvature="0" />
    <path
       d="m 12.167733,98.960739 h -1.21543 v -0.314193 h 0.403076 v -2.449462 h -0.403076 v -0.314193 h 1.21543 v 0.314193 h -0.403076 v 2.449462 h 0.403076 z"
       style="font-style:normal;font-variant:normal;font-weight:normal;font-stretch:normal;font-size:4.23333311px;font-family:sans-serif;-inkscape-font-specification:'sans-serif, Normal';font-variant-ligatures:normal;font-variant-caps:normal;font-variant-numeric:normal;font-feature-settings:normal;text-align:start;writing-mode:lr-tb;text-anchor:start;stroke-width:0.26458332px"
       id="path1083"
       inkscape:connector-curvature="0" />
    <path
       d="m 14.710213,98.960739 h -0.388607 v -0.241846 q -0.167431,0.144694 -0.349332,0.22531 -0.181901,0.08061 -0.394808,0.08061 -0.413412,0 -0.657324,-0.318327 -0.241846,-0.318327 -0.241846,-0.882633 0,-0.293522 0.08268,-0.522966 0.08475,-0.229443 0.227377,-0.390674 0.140559,-0.157096 0.326595,-0.239778 0.188102,-0.08268 0.388606,-0.08268 0.181901,0 0.322461,0.03928 0.14056,0.03721 0.295589,0.117822 v -1.000456 h 0.388607 z m -0.388607,-0.568441 v -1.324983 q -0.157096,-0.07028 -0.281119,-0.09715 -0.124024,-0.02687 -0.270785,-0.02687 -0.326595,0 -0.508496,0.227377 -0.181901,0.227376 -0.181901,0.644921 0,0.411345 0.14056,0.626319 0.14056,0.212907 0.450618,0.212907 0.165365,0 0.334864,-0.07235 0.169498,-0.07441 0.316259,-0.190171 z"
       style="font-style:normal;font-variant:normal;font-weight:normal;font-stretch:normal;font-size:4.23333311px;font-family:sans-serif;-inkscape-font-specification:'sans-serif, Normal';font-variant-ligatures:normal;font-variant-caps:normal;font-variant-numeric:normal;font-feature-settings:normal;text-align:start;writing-mode:lr-tb;text-anchor:start;stroke-width:0.26458332px"
       id="path1085"
       inkscape:connector-curvature="0" />
    <path
       d="m 17.068725,96.653903 q 0,0.347266 -0.239779,0.587045 -0.239778,0.239778 -0.589111,0.239778 -0.349332,0 -0.589111,-0.237711 -0.239779,-0.239779 -0.239779,-0.589112 0,-0.347265 0.239779,-0.587044 0.239779,-0.239779 0.589111,-0.239779 0.3514,0 0.589111,0.239779 0.239779,0.239779 0.239779,0.587044 z m -0.341064,0 q 0,-0.21084 -0.138493,-0.353466 -0.138493,-0.144694 -0.349333,-0.144694 -0.21084,0 -0.349332,0.144694 -0.138493,0.142626 -0.138493,0.353466 0,0.214974 0.14056,0.357601 0.142627,0.14056 0.347265,0.14056 0.21084,0 0.349333,-0.144694 0.138493,-0.144694 0.138493,-0.353467 z"
       style="font-style:normal;font-variant:normal;font-weight:normal;font-stretch:normal;font-size:4.23333311px;font-family:sans-serif;-inkscape-font-specification:'sans-serif, Normal';font-variant-ligatures:normal;font-variant-caps:normal;font-variant-numeric:normal;font-feature-settings:normal;text-align:start;writing-mode:lr-tb;text-anchor:start;stroke-width:0.26458332px"
       id="path1087"
       inkscape:connector-curvature="0" />
    <path
       d="m 19.367292,96.653903 q 0,0.347266 -0.239778,0.587045 -0.239779,0.239778 -0.589112,0.239778 -0.349332,0 -0.589111,-0.237711 -0.239778,-0.239779 -0.239778,-0.589112 0,-0.347265 0.239778,-0.587044 0.239779,-0.239779 0.589111,-0.239779 0.3514,0 0.589112,0.239779 0.239778,0.239779 0.239778,0.587044 z m -0.341064,0 q 0,-0.21084 -0.138493,-0.353466 -0.138493,-0.144694 -0.349333,-0.144694 -0.210839,0 -0.349332,0.144694 -0.138493,0.142626 -0.138493,0.353466 0,0.214974 0.14056,0.357601 0.142627,0.14056 0.347265,0.14056 0.21084,0 0.349333,-0.144694 0.138493,-0.144694 0.138493,-0.353467 z"
       style="font-style:normal;font-variant:normal;font-weight:normal;font-stretch:normal;font-size:4.23333311px;font-family:sans-serif;-inkscape-font-specification:'sans-serif, Normal';font-variant-ligatures:normal;font-variant-caps:normal;font-variant-numeric:normal;font-feature-settings:normal;text-align:start;writing-mode:lr-tb;text-anchor:start;stroke-width:0.26458332px"
       id="path1089"
       inkscape:connector-curvature="0" />
  </g>
  <g
     id="g918"
     transform="translate(-0.16037742,0.52056058)">
    <g
       transform="translate(74.147109,37.874816)"
       id="g941">
      <path
         inkscape:connector-curvature="0"
         id="rect5282"
         d="m -57.888813,46.592037 h 9.260414 v 8.898 h -9.260414 z"
         style="opacity:1;fill:#cd1f00;fill-opacity:1;fill-rule:nonzero;stroke:#cd1f00;stroke-width:2.19999981;stroke-linecap:butt;stroke-linejoin:round;stroke-miterlimit:8.19999981;stroke-dasharray:none;stroke-dashoffset:0;stroke-opacity:1;paint-order:normal" />
      <g
         id="text5206-7-7"
         style="font-style:normal;font-variant:normal;font-weight:normal;font-stretch:normal;font-size:2.11666656px;line-height:125%;font-family:sans-serif;-inkscape-font-specification:'sans-serif, Normal';font-variant-ligatures:normal;font-variant-caps:normal;font-variant-numeric:normal;font-feature-settings:normal;text-align:start;letter-spacing:0px;word-spacing:0px;writing-mode:lr-tb;text-anchor:start;fill:#000000;fill-opacity:1;stroke:none;stroke-width:0.26458332px;stroke-linecap:butt;stroke-linejoin:miter;stroke-opacity:1"
         aria-label="OUT">
        <path
           inkscape:connector-curvature="0"
           id="path982"
           style="font-style:normal;font-variant:normal;font-weight:normal;font-stretch:normal;font-size:2.11666656px;font-family:sans-serif;-inkscape-font-specification:'sans-serif, Normal';font-variant-ligatures:normal;font-variant-caps:normal;font-variant-numeric:normal;font-feature-settings:normal;text-align:start;writing-mode:lr-tb;text-anchor:start;fill:#ffffff;fill-opacity:1;stroke-width:0.26458332px"
           d="m -54.224439,46.759143 q 0.09405,0.103353 0.14366,0.253215 0.05064,0.149862 0.05064,0.340031 0,0.190169 -0.05168,0.341064 -0.05064,0.149862 -0.142627,0.250114 -0.09509,0.104387 -0.225309,0.157097 -0.129191,0.05271 -0.295589,0.05271 -0.162264,0 -0.29559,-0.05374 -0.132291,-0.05374 -0.225309,-0.156063 -0.09302,-0.102319 -0.14366,-0.251147 -0.04961,-0.148828 -0.04961,-0.340031 0,-0.188102 0.04961,-0.336931 0.04961,-0.149861 0.144694,-0.256315 0.09095,-0.101285 0.225309,-0.155029 0.135392,-0.05374 0.294556,-0.05374 0.165364,0 0.296622,0.05478 0.132292,0.05374 0.224276,0.153995 z m -0.0186,0.593246 q 0,-0.299723 -0.134358,-0.461987 -0.134359,-0.163298 -0.366903,-0.163298 -0.234611,0 -0.36897,0.163298 -0.133325,0.162264 -0.133325,0.461987 0,0.302824 0.136426,0.464054 0.136426,0.160197 0.365869,0.160197 0.229443,0 0.364836,-0.160197 0.136425,-0.16123 0.136425,-0.464054 z" />
        <path
           inkscape:connector-curvature="0"
           id="path984"
           style="font-style:normal;font-variant:normal;font-weight:normal;font-stretch:normal;font-size:2.11666656px;font-family:sans-serif;-inkscape-font-specification:'sans-serif, Normal';font-variant-ligatures:normal;font-variant-caps:normal;font-variant-numeric:normal;font-feature-settings:normal;text-align:start;writing-mode:lr-tb;text-anchor:start;fill:#ffffff;fill-opacity:1;stroke-width:0.26458332px"
           d="m -52.547022,47.503284 q 0,0.167432 -0.03721,0.292489 -0.03617,0.124023 -0.11989,0.206705 -0.07958,0.07855 -0.186035,0.114722 -0.106453,0.03617 -0.248047,0.03617 -0.144694,0 -0.252181,-0.03824 -0.107486,-0.03824 -0.180867,-0.112655 -0.08372,-0.08475 -0.120923,-0.204638 -0.03617,-0.11989 -0.03617,-0.294556 V 46.58241 h 0.204638 v 0.931209 q 0,0.125057 0.01654,0.197404 0.01757,0.07235 0.05788,0.131258 0.04548,0.06718 0.12299,0.101286 0.07855,0.03411 0.188102,0.03411 0.110588,0 0.188103,-0.03307 0.07751,-0.03411 0.124023,-0.10232 0.04031,-0.05891 0.05684,-0.134358 0.01757,-0.07648 0.01757,-0.189136 V 46.58241 h 0.204639 z" />
        <path
           inkscape:connector-curvature="0"
           id="path986"
           style="font-style:normal;font-variant:normal;font-weight:normal;font-stretch:normal;font-size:2.11666656px;font-family:sans-serif;-inkscape-font-specification:'sans-serif, Normal';font-variant-ligatures:normal;font-variant-caps:normal;font-variant-numeric:normal;font-feature-settings:normal;text-align:start;writing-mode:lr-tb;text-anchor:start;fill:#ffffff;fill-opacity:1;stroke-width:0.26458332px"
           d="m -51.057707,46.764311 h -0.549838 v 1.357023 h -0.204638 V 46.764311 H -52.36202 V 46.58241 h 1.304313 z" />
      </g>
      <g
         id="g5508"
         transform="translate(-96.517977,-199.97036)">
        <g
           id="text5206-7-6"
           style="font-style:normal;font-variant:normal;font-weight:normal;font-stretch:normal;font-size:2.11666656px;line-height:125%;font-family:sans-serif;-inkscape-font-specification:'sans-serif, Normal';font-variant-ligatures:normal;font-variant-caps:normal;font-variant-numeric:normal;font-feature-settings:normal;text-align:start;letter-spacing:0px;word-spacing:0px;writing-mode:lr-tb;text-anchor:start;fill:#000000;fill-opacity:1;stroke:none;stroke-width:0.26458332px;stroke-linecap:butt;stroke-linejoin:miter;stroke-opacity:1"
           aria-label="L">
          <path
             inkscape:connector-curvature="0"
             id="path989"
             style="font-style:normal;font-variant:normal;font-weight:normal;font-stretch:normal;font-size:2.11666656px;font-family:sans-serif;-inkscape-font-specification:'sans-serif, Normal';font-variant-ligatures:normal;font-variant-caps:normal;font-variant-numeric:normal;font-feature-settings:normal;text-align:start;writing-mode:lr-tb;text-anchor:start;fill:#ffffff;fill-opacity:1;stroke-width:0.26458332px"
             d="m 40.81818,250.17633 h -0.973584 v -1.53892 h 0.204638 v 1.35702 h 0.768946 z" />
        </g>
        <g
           id="text5206-7-9"
           style="font-style:normal;font-variant:normal;font-weight:normal;font-stretch:normal;font-size:2.11666656px;line-height:125%;font-family:sans-serif;-inkscape-font-specification:'sans-serif, Normal';font-variant-ligatures:normal;font-variant-caps:normal;font-variant-numeric:normal;font-feature-settings:normal;text-align:start;letter-spacing:0px;word-spacing:0px;writing-mode:lr-tb;text-anchor:start;fill:#000000;fill-opacity:1;stroke:none;stroke-width:0.26458332px;stroke-linecap:butt;stroke-linejoin:miter;stroke-opacity:1"
           aria-label="R">
          <path
             inkscape:connector-curvature="0"
             id="path992"
             style="font-style:normal;font-variant:normal;font-weight:normal;font-stretch:normal;font-size:2.11666656px;font-family:sans-serif;-inkscape-font-specification:'sans-serif, Normal';font-variant-ligatures:normal;font-variant-caps:normal;font-variant-numeric:normal;font-feature-settings:normal;text-align:start;writing-mode:lr-tb;text-anchor:start;fill:#ffffff;fill-opacity:1;stroke-width:0.26458332px"
             d="m 46.674151,250.17633 h -0.265617 l -0.514698,-0.61185 h -0.288354 v 0.61185 h -0.204639 v -1.53892 h 0.430982 q 0.139526,0 0.232544,0.0186 0.09302,0.0176 0.167431,0.0641 0.08372,0.0527 0.130225,0.13332 0.04754,0.0796 0.04754,0.20258 0,0.16639 -0.08372,0.27905 -0.08371,0.11162 -0.230476,0.16846 z m -0.478524,-1.10588 q 0,-0.0661 -0.02377,-0.11678 -0.02274,-0.0517 -0.07648,-0.0868 -0.04444,-0.03 -0.10542,-0.0413 -0.06098,-0.0124 -0.143661,-0.0124 h -0.240812 v 0.58084 h 0.206706 q 0.09715,0 0.169498,-0.0165 0.07235,-0.0176 0.12299,-0.0641 0.04651,-0.0434 0.06821,-0.0992 0.02274,-0.0568 0.02274,-0.14367 z" />
        </g>
      </g>
    </g>
  </g>
  <g
     id="g907"
     transform="translate(38.08561,-6.3124864)">
    <path
       style="opacity:1;fill:#020202;fill-opacity:1;fill-rule:nonzero;stroke:#000000;stroke-width:2.19999981;stroke-linecap:butt;stroke-linejoin:round;stroke-miterlimit:8.19999981;stroke-dasharray:none;stroke-dashoffset:0;stroke-opacity:1;paint-order:normal"
       d="m -35.662693,91.299896 h 5.291667 v 8.898004 h -5.291667 z"
       id="rect5282-9-4"
       inkscape:connector-curvature="0" />
    <g
       aria-label="IN"
       style="font-style:normal;font-variant:normal;font-weight:normal;font-stretch:normal;font-size:2.11666656px;line-height:125%;font-family:sans-serif;-inkscape-font-specification:'sans-serif, Normal';font-variant-ligatures:normal;font-variant-caps:normal;font-variant-numeric:normal;font-feature-settings:normal;text-align:start;letter-spacing:0px;word-spacing:0px;writing-mode:lr-tb;text-anchor:start;fill:#000000;fill-opacity:1;stroke:none;stroke-width:0.26458332px;stroke-linecap:butt;stroke-linejoin:miter;stroke-opacity:1"
       id="text5206-7-4-9">
      <path
         d="m -33.475229,92.79715 h -0.607714 v -0.157097 h 0.201538 v -1.224731 h -0.201538 v -0.157096 h 0.607714 v 0.157096 h -0.201538 v 1.224731 h 0.201538 z"
         style="font-style:normal;font-variant:normal;font-weight:normal;font-stretch:normal;font-size:2.11666656px;font-family:sans-serif;-inkscape-font-specification:'sans-serif, Normal';font-variant-ligatures:normal;font-variant-caps:normal;font-variant-numeric:normal;font-feature-settings:normal;text-align:start;writing-mode:lr-tb;text-anchor:start;fill:#ffffff;fill-opacity:1;stroke-width:0.26458332px"
         id="path910"
         inkscape:connector-curvature="0" />
      <path
         d="m -31.950774,92.79715 h -0.253214 l -0.729672,-1.37666 v 1.37666 h -0.191202 v -1.538924 h 0.317293 l 0.665592,1.25677 v -1.25677 h 0.191203 z"
         style="font-style:normal;font-variant:normal;font-weight:normal;font-stretch:normal;font-size:2.11666656px;font-family:sans-serif;-inkscape-font-specification:'sans-serif, Normal';font-variant-ligatures:normal;font-variant-caps:normal;font-variant-numeric:normal;font-feature-settings:normal;text-align:start;writing-mode:lr-tb;text-anchor:start;fill:#ffffff;fill-opacity:1;stroke-width:0.26458332px"
         id="path912"
         inkscape:connector-curvature="0" />
    </g>
  </g>
  <g
     aria-label="SIZE"
     style="font-style:normal;font-variant:normal;font-weight:normal;font-stretch:normal;font-size:2.82222223px;line-height:125%;font-family:'DejaVu Sans Mono';-inkscape-font-specification:'DejaVu Sans Mono, Normal';font-variant-ligatures:normal;font-variant-caps:normal;font-variant-numeric:normal;font-feature-settings:normal;text-align:start;letter-spacing:0px;word-spacing:0px;writing-mode:lr-tb;text-anchor:start;fill:#000000;fill-opacity:1;stroke:none;stroke-width:0.26458332px;stroke-linecap:butt;stroke-linejoin:miter;stroke-opacity:1"
     id="text896">
    <path
       d="m 12.640572,12.316268 q 0,0.08992 -0.04237,0.177767 -0.04134,0.08785 -0.116789,0.148828 -0.08268,0.06615 -0.19327,0.103353 -0.109554,0.03721 -0.264583,0.03721 -0.166398,0 -0.299723,-0.03101 -0.132292,-0.031 -0.269751,-0.09198 v -0.256315 h 0.01447 q 0.116789,0.09715 0.269751,0.149862 0.152962,0.05271 0.287321,0.05271 0.190169,0 0.295589,-0.07131 0.106454,-0.07131 0.106454,-0.190169 0,-0.102319 -0.05064,-0.150895 -0.04961,-0.04858 -0.151929,-0.07545 -0.07751,-0.02067 -0.168465,-0.03411 -0.08992,-0.01344 -0.191203,-0.03411 -0.204638,-0.04341 -0.303857,-0.147794 -0.09818,-0.10542 -0.09818,-0.273885 0,-0.19327 0.163297,-0.31626 0.163298,-0.124023 0.414445,-0.124023 0.162264,0 0.297656,0.03101 0.135393,0.03101 0.239779,0.07648 v 0.241845 h -0.01447 q -0.08785,-0.07441 -0.231511,-0.12299 -0.142627,-0.04961 -0.292488,-0.04961 -0.164332,0 -0.264584,0.06821 -0.09922,0.06821 -0.09922,0.1757 0,0.09612 0.04961,0.150895 0.04961,0.05478 0.174666,0.08372 0.06615,0.01447 0.188102,0.03514 0.121957,0.02067 0.206706,0.04237 0.171566,0.04548 0.258382,0.13746 0.08682,0.09198 0.08682,0.257348 z"
       style="font-style:normal;font-variant:normal;font-weight:normal;font-stretch:normal;font-size:2.11666656px;font-family:sans-serif;-inkscape-font-specification:'sans-serif, Normal';font-variant-ligatures:normal;font-variant-caps:normal;font-variant-numeric:normal;font-feature-settings:normal;text-align:start;writing-mode:lr-tb;text-anchor:start;stroke-width:0.26458332px"
       id="path948"
       inkscape:connector-curvature="0" />
    <path
       d="M 13.511836,12.755518 H 12.904121 V 12.598422 H 13.10566 V 11.37369 h -0.201539 v -0.157096 h 0.607715 v 0.157096 h -0.201538 v 1.224732 h 0.201538 z"
       style="font-style:normal;font-variant:normal;font-weight:normal;font-stretch:normal;font-size:2.11666656px;font-family:sans-serif;-inkscape-font-specification:'sans-serif, Normal';font-variant-ligatures:normal;font-variant-caps:normal;font-variant-numeric:normal;font-feature-settings:normal;text-align:start;writing-mode:lr-tb;text-anchor:start;stroke-width:0.26458332px"
       id="path950"
       inkscape:connector-curvature="0" />
    <path
       d="m 14.986682,12.755518 h -1.200961 v -0.190169 l 0.943612,-1.166854 h -0.908472 v -0.181901 h 1.143083 v 0.185002 l -0.952913,1.172021 h 0.975651 z"
       style="font-style:normal;font-variant:normal;font-weight:normal;font-stretch:normal;font-size:2.11666656px;font-family:sans-serif;-inkscape-font-specification:'sans-serif, Normal';font-variant-ligatures:normal;font-variant-caps:normal;font-variant-numeric:normal;font-feature-settings:normal;text-align:start;writing-mode:lr-tb;text-anchor:start;stroke-width:0.26458332px"
       id="path952"
       inkscape:connector-curvature="0" />
    <path
       d="m 16.327168,12.755518 h -1.013891 v -1.538924 h 1.013891 v 0.181901 h -0.809253 v 0.42168 h 0.809253 v 0.181901 h -0.809253 v 0.571541 h 0.809253 z"
       style="font-style:normal;font-variant:normal;font-weight:normal;font-stretch:normal;font-size:2.11666656px;font-family:sans-serif;-inkscape-font-specification:'sans-serif, Normal';font-variant-ligatures:normal;font-variant-caps:normal;font-variant-numeric:normal;font-feature-settings:normal;text-align:start;writing-mode:lr-tb;text-anchor:start;stroke-width:0.26458332px"
       id="path954"
       inkscape:connector-curvature="0" />
  </g>
  <g
     aria-label="TIME"
     style="font-style:normal;font-variant:normal;font-weight:normal;font-stretch:normal;font-size:2.82222223px;line-height:125%;font-family:'DejaVu Sans Mono';-inkscape-font-specification:'DejaVu Sans Mono, Normal';font-variant-ligatures:normal;font-variant-caps:normal;font-variant-numeric:normal;font-feature-settings:normal;text-align:start;letter-spacing:0px;word-spacing:0px;writing-mode:lr-tb;text-anchor:start;fill:#000000;fill-opacity:1;stroke:none;stroke-width:0.26458332px;stroke-linecap:butt;stroke-linejoin:miter;stroke-opacity:1"
     id="text896-6">
    <path
       d="m 12.591996,35.316481 h -0.549838 v 1.357023 H 11.83752 V 35.316481 H 11.287683 V 35.13458 h 1.304313 z"
       style="font-style:normal;font-variant:normal;font-weight:normal;font-stretch:normal;font-size:2.11666656px;font-family:sans-serif;-inkscape-font-specification:'sans-serif, Normal';font-variant-ligatures:normal;font-variant-caps:normal;font-variant-numeric:normal;font-feature-settings:normal;text-align:start;writing-mode:lr-tb;text-anchor:start;stroke-width:0.26458332px"
       id="path957"
       inkscape:connector-curvature="0" />
    <path
       d="m 13.343371,36.673504 h -0.607715 v -0.157096 h 0.201538 V 35.291676 H 12.735656 V 35.13458 h 0.607715 v 0.157096 h -0.201538 v 1.224732 h 0.201538 z"
       style="font-style:normal;font-variant:normal;font-weight:normal;font-stretch:normal;font-size:2.11666656px;font-family:sans-serif;-inkscape-font-specification:'sans-serif, Normal';font-variant-ligatures:normal;font-variant-caps:normal;font-variant-numeric:normal;font-feature-settings:normal;text-align:start;writing-mode:lr-tb;text-anchor:start;stroke-width:0.26458332px"
       id="path959"
       inkscape:connector-curvature="0" />
    <path
       d="m 15.064196,36.673504 h -0.204639 v -1.326017 l -0.42788,0.90227 H 14.30972 l -0.42478,-0.90227 v 1.326017 H 13.693737 V 35.13458 h 0.279053 l 0.410311,0.856795 0.396875,-0.856795 h 0.28422 z"
       style="font-style:normal;font-variant:normal;font-weight:normal;font-stretch:normal;font-size:2.11666656px;font-family:sans-serif;-inkscape-font-specification:'sans-serif, Normal';font-variant-ligatures:normal;font-variant-caps:normal;font-variant-numeric:normal;font-feature-settings:normal;text-align:start;writing-mode:lr-tb;text-anchor:start;stroke-width:0.26458332px"
       id="path961"
       inkscape:connector-curvature="0" />
    <path
       d="M 16.493566,36.673504 H 15.479674 V 35.13458 h 1.013892 v 0.181901 h -0.809253 v 0.42168 h 0.809253 v 0.181901 h -0.809253 v 0.571541 h 0.809253 z"
       style="font-style:normal;font-variant:normal;font-weight:normal;font-stretch:normal;font-size:2.11666656px;font-family:sans-serif;-inkscape-font-specification:'sans-serif, Normal';font-variant-ligatures:normal;font-variant-caps:normal;font-variant-numeric:normal;font-feature-settings:normal;text-align:start;writing-mode:lr-tb;text-anchor:start;stroke-width:0.26458332px"
       id="path963"
       inkscape:connector-curvature="0" />
  </g>
  <g
     aria-label="DAMP"
     style="font-style:normal;font-variant:normal;font-weight:normal;font-stretch:normal;font-size:2.82222223px;line-height:125%;font-family:'DejaVu Sans Mono';-inkscape-font-specification:'DejaVu Sans Mono, Normal';font-variant-ligatures:normal;font-variant-caps:normal;font-variant-numeric:normal;font-feature-settings:normal;text-align:start;letter-spacing:0px;word-spacing:0px;writing-mode:lr-tb;text-anchor:start;fill:#000000;fill-opacity:1;stroke:none;stroke-width:0.26458332px;stroke-linecap:butt;stroke-linejoin:miter;stroke-opacity:1"
     id="text896-2">
    <path
       d="m 12.254549,23.946598 q 0,0.209807 -0.09198,0.380339 -0.09095,0.170532 -0.242879,0.264583 -0.10542,0.06511 -0.235645,0.09405 -0.129191,0.02894 -0.341064,0.02894 H 10.95437 v -1.538924 h 0.384473 q 0.225309,0 0.357601,0.03307 0.133325,0.03204 0.225309,0.08888 0.157096,0.09819 0.244946,0.261483 0.08785,0.163298 0.08785,0.387573 z m -0.21394,-0.0031 q 0,-0.180868 -0.06305,-0.304891 -0.06305,-0.124024 -0.188102,-0.195337 -0.09095,-0.05168 -0.19327,-0.07131 -0.102319,-0.02067 -0.244946,-0.02067 h -0.192236 v 1.187524 h 0.192236 q 0.147795,0 0.257349,-0.0217 0.110587,-0.0217 0.202571,-0.08061 0.114722,-0.07338 0.171566,-0.19327 0.05788,-0.119889 0.05788,-0.299723 z"
       style="font-style:normal;font-variant:normal;font-weight:normal;font-stretch:normal;font-size:2.11666656px;font-family:sans-serif;-inkscape-font-specification:'sans-serif, Normal';font-variant-ligatures:normal;font-variant-caps:normal;font-variant-numeric:normal;font-feature-settings:normal;text-align:start;writing-mode:lr-tb;text-anchor:start;stroke-width:0.26458332px"
       id="path966"
       inkscape:connector-curvature="0" />
    <path
       d="m 13.800708,24.71451 h -0.218075 l -0.150895,-0.428914 h -0.665592 l -0.150895,0.428914 h -0.20774 l 0.560173,-1.538924 h 0.272851 z m -0.432015,-0.604614 -0.269751,-0.75551 -0.270784,0.75551 z"
       style="font-style:normal;font-variant:normal;font-weight:normal;font-stretch:normal;font-size:2.11666656px;font-family:sans-serif;-inkscape-font-specification:'sans-serif, Normal';font-variant-ligatures:normal;font-variant-caps:normal;font-variant-numeric:normal;font-feature-settings:normal;text-align:start;writing-mode:lr-tb;text-anchor:start;stroke-width:0.26458332px"
       id="path968"
       inkscape:connector-curvature="0" />
    <path
       d="m 15.404744,24.71451 h -0.204638 v -1.326017 l -0.427881,0.90227 h -0.121957 l -0.42478,-0.90227 v 1.326017 h -0.191203 v -1.538924 h 0.279053 l 0.410311,0.856795 0.396875,-0.856795 h 0.28422 z"
       style="font-style:normal;font-variant:normal;font-weight:normal;font-stretch:normal;font-size:2.11666656px;font-family:sans-serif;-inkscape-font-specification:'sans-serif, Normal';font-variant-ligatures:normal;font-variant-caps:normal;font-variant-numeric:normal;font-feature-settings:normal;text-align:start;writing-mode:lr-tb;text-anchor:start;stroke-width:0.26458332px"
       id="path970"
       inkscape:connector-curvature="0" />
    <path
       d="m 16.82688,23.640674 q 0,0.102319 -0.03617,0.190169 -0.03514,0.08682 -0.09922,0.150895 -0.07958,0.07958 -0.188103,0.11989 -0.10852,0.03927 -0.273885,0.03927 h -0.204638 v 0.573608 h -0.204639 v -1.538924 h 0.417546 q 0.138492,0 0.234611,0.02377 0.09612,0.02274 0.170532,0.07235 0.08785,0.05891 0.135392,0.146761 0.04858,0.08785 0.04858,0.222209 z m -0.212907,0.0052 q 0,-0.07958 -0.02791,-0.138492 -0.02791,-0.05891 -0.08475,-0.09612 -0.04961,-0.03204 -0.113688,-0.04547 -0.06305,-0.01447 -0.160197,-0.01447 h -0.202571 v 0.614949 h 0.172599 q 0.124023,0 0.201538,-0.0217 0.07752,-0.02274 0.126091,-0.07131 0.04857,-0.04961 0.06821,-0.104387 0.02067,-0.05478 0.02067,-0.12299 z"
       style="font-style:normal;font-variant:normal;font-weight:normal;font-stretch:normal;font-size:2.11666656px;font-family:sans-serif;-inkscape-font-specification:'sans-serif, Normal';font-variant-ligatures:normal;font-variant-caps:normal;font-variant-numeric:normal;font-feature-settings:normal;text-align:start;writing-mode:lr-tb;text-anchor:start;stroke-width:0.26458332px"
       id="path972"
       inkscape:connector-curvature="0" />
  </g>
  <g
     aria-label="BANDPASS"
     style="font-style:normal;font-variant:normal;font-weight:normal;font-stretch:normal;font-size:2.82222223px;line-height:125%;font-family:'DejaVu Sans Mono';-inkscape-font-specification:'DejaVu Sans Mono, Normal';font-variant-ligatures:normal;font-variant-caps:normal;font-variant-numeric:normal;font-feature-settings:normal;text-align:start;letter-spacing:0px;word-spacing:0px;writing-mode:lr-tb;text-anchor:start;fill:#000000;fill-opacity:1;stroke:none;stroke-width:0.26458332px;stroke-linecap:butt;stroke-linejoin:miter;stroke-opacity:1"
     id="text896-7">
    <path
       d="m 9.3885738,48.15914 q 0,0.114721 -0.043408,0.202571 -0.043408,0.08785 -0.1167888,0.144694 -0.086816,0.06821 -0.1912028,0.09715 -0.1033528,0.02894 -0.2635497,0.02894 H 8.2279212 v -1.538924 h 0.4557861 q 0.1684651,0 0.2521809,0.0124 0.083716,0.0124 0.160197,0.05168 0.084749,0.04444 0.1229899,0.114721 0.038241,0.06925 0.038241,0.166398 0,0.109554 -0.05581,0.187069 -0.055811,0.07648 -0.1488281,0.12299 v 0.0083 q 0.1560628,0.03204 0.2459798,0.137459 0.089917,0.104387 0.089917,0.264584 z M 9.0444087,47.465642 q 0,-0.05581 -0.018603,-0.09405 -0.018604,-0.03824 -0.059945,-0.06201 -0.048576,-0.0279 -0.1178223,-0.03411 -0.069246,-0.0072 -0.1715657,-0.0072 H 8.4325598 v 0.444417 h 0.2645833 q 0.096118,0 0.1529623,-0.0093 0.056844,-0.01034 0.1054199,-0.04134 0.048576,-0.03101 0.068213,-0.07958 0.02067,-0.04961 0.02067,-0.116789 z m 0.1312582,0.701766 q 0,-0.09302 -0.027905,-0.147795 -0.027905,-0.05478 -0.1012858,-0.09302 -0.049609,-0.02584 -0.1209228,-0.03307 -0.07028,-0.0083 -0.1715658,-0.0083 H 8.4325598 v 0.572575 h 0.2707845 q 0.1343587,0 0.2201416,-0.01344 0.085783,-0.01447 0.1405599,-0.05168 0.057878,-0.04031 0.084749,-0.09198 0.026872,-0.05168 0.026872,-0.133325 z"
       style="font-style:normal;font-variant:normal;font-weight:normal;font-stretch:normal;font-size:2.11666656px;font-family:sans-serif;-inkscape-font-specification:'sans-serif, Normal';font-variant-ligatures:normal;font-variant-caps:normal;font-variant-numeric:normal;font-feature-settings:normal;text-align:start;writing-mode:lr-tb;text-anchor:start;stroke-width:0.26458332px"
       id="path975"
       inkscape:connector-curvature="0" />
    <path
       d="M 10.892358,48.632496 H 10.674283 L 10.523388,48.203582 H 9.8577957 L 9.7069006,48.632496 H 9.4991613 l 0.5601727,-1.538924 h 0.272851 z m -0.432015,-0.604614 -0.269751,-0.75551 -0.2707846,0.75551 z"
       style="font-style:normal;font-variant:normal;font-weight:normal;font-stretch:normal;font-size:2.11666656px;font-family:sans-serif;-inkscape-font-specification:'sans-serif, Normal';font-variant-ligatures:normal;font-variant-caps:normal;font-variant-numeric:normal;font-feature-settings:normal;text-align:start;writing-mode:lr-tb;text-anchor:start;stroke-width:0.26458332px"
       id="path977"
       inkscape:connector-curvature="0" />
    <path
       d="m 12.300024,48.632496 h -0.253215 l -0.729671,-1.37666 v 1.37666 h -0.191203 v -1.538924 h 0.317294 l 0.665592,1.256771 v -1.256771 h 0.191203 z"
       style="font-style:normal;font-variant:normal;font-weight:normal;font-stretch:normal;font-size:2.11666656px;font-family:sans-serif;-inkscape-font-specification:'sans-serif, Normal';font-variant-ligatures:normal;font-variant-caps:normal;font-variant-numeric:normal;font-feature-settings:normal;text-align:start;writing-mode:lr-tb;text-anchor:start;stroke-width:0.26458332px"
       id="path979"
       inkscape:connector-curvature="0" />
    <path
       d="m 14.00948,47.864584 q 0,0.209806 -0.09198,0.380339 -0.09095,0.170532 -0.242879,0.264583 -0.10542,0.06511 -0.235645,0.09405 -0.129191,0.02894 -0.341064,0.02894 h -0.388607 v -1.538924 h 0.384473 q 0.225309,0 0.357601,0.03307 0.133325,0.03204 0.225309,0.08888 0.157096,0.09819 0.244946,0.261483 0.08785,0.163297 0.08785,0.387573 z m -0.21394,-0.0031 q 0,-0.180868 -0.06305,-0.304891 -0.06305,-0.124024 -0.188102,-0.195337 -0.09095,-0.05168 -0.19327,-0.07131 -0.102319,-0.02067 -0.244946,-0.02067 H 12.91394 V 48.4568 h 0.192236 q 0.147795,0 0.257349,-0.0217 0.110587,-0.0217 0.202571,-0.08061 0.114722,-0.07338 0.171566,-0.19327 0.05788,-0.119889 0.05788,-0.299723 z"
       style="font-style:normal;font-variant:normal;font-weight:normal;font-stretch:normal;font-size:2.11666656px;font-family:sans-serif;-inkscape-font-specification:'sans-serif, Normal';font-variant-ligatures:normal;font-variant-caps:normal;font-variant-numeric:normal;font-feature-settings:normal;text-align:start;writing-mode:lr-tb;text-anchor:start;stroke-width:0.26458332px"
       id="path981"
       inkscape:connector-curvature="0" />
    <path
       d="m 15.348933,47.55866 q 0,0.102319 -0.03617,0.190169 -0.03514,0.08682 -0.09922,0.150895 -0.07958,0.07958 -0.188102,0.119889 -0.108521,0.03928 -0.273885,0.03928 h -0.204639 v 0.573608 h -0.204639 v -1.538924 h 0.417546 q 0.138493,0 0.234611,0.02377 0.09612,0.02274 0.170532,0.07235 0.08785,0.05891 0.135392,0.146761 0.04858,0.08785 0.04858,0.222209 z m -0.212907,0.0052 q 0,-0.07958 -0.0279,-0.138493 -0.02791,-0.05891 -0.08475,-0.09612 -0.04961,-0.03204 -0.113689,-0.04548 -0.06304,-0.01447 -0.160196,-0.01447 h -0.202572 v 0.614949 h 0.172599 q 0.124024,0 0.201538,-0.0217 0.07752,-0.02274 0.126091,-0.07131 0.04858,-0.04961 0.06821,-0.104387 0.02067,-0.05478 0.02067,-0.12299 z"
       style="font-style:normal;font-variant:normal;font-weight:normal;font-stretch:normal;font-size:2.11666656px;font-family:sans-serif;-inkscape-font-specification:'sans-serif, Normal';font-variant-ligatures:normal;font-variant-caps:normal;font-variant-numeric:normal;font-feature-settings:normal;text-align:start;writing-mode:lr-tb;text-anchor:start;stroke-width:0.26458332px"
       id="path983"
       inkscape:connector-curvature="0" />
    <path
       d="m 16.783471,48.632496 h -0.218075 l -0.150895,-0.428914 h -0.665592 l -0.150896,0.428914 h -0.207739 l 0.560173,-1.538924 h 0.272851 z m -0.432015,-0.604614 -0.269751,-0.75551 -0.270785,0.75551 z"
       style="font-style:normal;font-variant:normal;font-weight:normal;font-stretch:normal;font-size:2.11666656px;font-family:sans-serif;-inkscape-font-specification:'sans-serif, Normal';font-variant-ligatures:normal;font-variant-caps:normal;font-variant-numeric:normal;font-feature-settings:normal;text-align:start;writing-mode:lr-tb;text-anchor:start;stroke-width:0.26458332px"
       id="path985"
       inkscape:connector-curvature="0" />
    <path
       d="m 18.127058,48.193246 q 0,0.08992 -0.04238,0.177767 -0.04134,0.08785 -0.116788,0.148828 -0.08268,0.06615 -0.19327,0.103353 -0.109554,0.03721 -0.264583,0.03721 -0.166399,0 -0.299724,-0.03101 -0.132291,-0.03101 -0.269751,-0.09198 v -0.256315 h 0.01447 q 0.116788,0.09715 0.269751,0.149862 0.152962,0.05271 0.287321,0.05271 0.190169,0 0.295589,-0.07131 0.106453,-0.07131 0.106453,-0.190169 0,-0.102319 -0.05064,-0.150895 -0.04961,-0.04858 -0.151928,-0.07545 -0.07752,-0.02067 -0.168466,-0.03411 -0.08992,-0.01344 -0.191202,-0.03411 -0.204639,-0.04341 -0.303858,-0.147794 -0.09819,-0.10542 -0.09819,-0.273885 0,-0.19327 0.163298,-0.31626 0.163297,-0.124023 0.414445,-0.124023 0.162263,0 0.297656,0.03101 0.135392,0.03101 0.239778,0.07648 V 47.415 h -0.01447 q -0.08785,-0.07441 -0.23151,-0.12299 -0.142627,-0.04961 -0.292489,-0.04961 -0.164331,0 -0.264583,0.06821 -0.09922,0.06821 -0.09922,0.1757 0,0.09612 0.04961,0.150895 0.04961,0.05478 0.174667,0.08372 0.06614,0.01447 0.188102,0.03514 0.121956,0.02067 0.206706,0.04237 0.171565,0.04548 0.258382,0.13746 0.08682,0.09198 0.08682,0.257348 z"
       style="font-style:normal;font-variant:normal;font-weight:normal;font-stretch:normal;font-size:2.11666656px;font-family:sans-serif;-inkscape-font-specification:'sans-serif, Normal';font-variant-ligatures:normal;font-variant-caps:normal;font-variant-numeric:normal;font-feature-settings:normal;text-align:start;writing-mode:lr-tb;text-anchor:start;stroke-width:0.26458332px"
       id="path987"
       inkscape:connector-curvature="0" />
    <path
       d="m 19.553328,48.193246 q 0,0.08992 -0.04237,0.177767 -0.04134,0.08785 -0.116789,0.148828 -0.08268,0.06615 -0.19327,0.103353 -0.109554,0.03721 -0.264583,0.03721 -0.166398,0 -0.299723,-0.03101 -0.132292,-0.03101 -0.269751,-0.09198 v -0.256315 h 0.01447 q 0.116789,0.09715 0.269751,0.149862 0.152962,0.05271 0.287321,0.05271 0.190169,0 0.295589,-0.07131 0.106454,-0.07131 0.106454,-0.190169 0,-0.102319 -0.05064,-0.150895 -0.04961,-0.04858 -0.151929,-0.07545 -0.07751,-0.02067 -0.168465,-0.03411 -0.08992,-0.01344 -0.191203,-0.03411 -0.204638,-0.04341 -0.303857,-0.147794 -0.09819,-0.10542 -0.09819,-0.273885 0,-0.19327 0.163297,-0.31626 0.163298,-0.124023 0.414445,-0.124023 0.162264,0 0.297656,0.03101 0.135393,0.03101 0.239779,0.07648 V 47.415 H 19.47685 Q 19.389,47.34059 19.245339,47.29201 19.102712,47.2424 18.952851,47.2424 q -0.164332,0 -0.264584,0.06821 -0.09922,0.06821 -0.09922,0.1757 0,0.09612 0.04961,0.150895 0.04961,0.05478 0.174666,0.08372 0.06615,0.01447 0.188102,0.03514 0.121957,0.02067 0.206706,0.04237 0.171566,0.04548 0.258382,0.13746 0.08682,0.09198 0.08682,0.257348 z"
       style="font-style:normal;font-variant:normal;font-weight:normal;font-stretch:normal;font-size:2.11666656px;font-family:sans-serif;-inkscape-font-specification:'sans-serif, Normal';font-variant-ligatures:normal;font-variant-caps:normal;font-variant-numeric:normal;font-feature-settings:normal;text-align:start;writing-mode:lr-tb;text-anchor:start;stroke-width:0.26458332px"
       id="path990"
       inkscape:connector-curvature="0" />
  </g>
  <g
     aria-label="EARLY"
     style="font-style:normal;font-variant:normal;font-weight:normal;font-stretch:normal;font-size:2.82222223px;line-height:125%;font-family:'DejaVu Sans Mono';-inkscape-font-specification:'DejaVu Sans Mono, Normal';font-variant-ligatures:normal;font-variant-caps:normal;font-variant-numeric:normal;font-feature-settings:normal;text-align:start;letter-spacing:0px;word-spacing:0px;writing-mode:lr-tb;text-anchor:start;fill:#000000;fill-opacity:1;stroke:none;stroke-width:0.26458332px;stroke-linecap:butt;stroke-linejoin:miter;stroke-opacity:1"
     id="text896-28">
    <path
       d="m 11.724348,60.591488 h -1.013891 v -1.538924 h 1.013891 v 0.181901 h -0.809253 v 0.42168 h 0.809253 v 0.181901 h -0.809253 v 0.571541 h 0.809253 z"
       style="font-style:normal;font-variant:normal;font-weight:normal;font-stretch:normal;font-size:2.11666656px;font-family:sans-serif;-inkscape-font-specification:'sans-serif, Normal';font-variant-ligatures:normal;font-variant-caps:normal;font-variant-numeric:normal;font-feature-settings:normal;text-align:start;writing-mode:lr-tb;text-anchor:start;stroke-width:0.26458332px"
       id="path993"
       inkscape:connector-curvature="0" />
    <path
       d="M 13.263272,60.591488 H 13.045198 L 12.894302,60.162574 H 12.22871 l -0.150895,0.428914 h -0.207739 l 0.560172,-1.538924 H 12.7031 Z m -0.432015,-0.604614 -0.269751,-0.75551 -0.270784,0.75551 z"
       style="font-style:normal;font-variant:normal;font-weight:normal;font-stretch:normal;font-size:2.11666656px;font-family:sans-serif;-inkscape-font-specification:'sans-serif, Normal';font-variant-ligatures:normal;font-variant-caps:normal;font-variant-numeric:normal;font-feature-settings:normal;text-align:start;writing-mode:lr-tb;text-anchor:start;stroke-width:0.26458332px"
       id="path995"
       inkscape:connector-curvature="0" />
    <path
       d="M 14.770157,60.591488 H 14.50454 l -0.514697,-0.611849 h -0.288355 v 0.611849 H 13.49685 v -1.538924 h 0.430981 q 0.139526,0 0.232544,0.0186 0.09302,0.01757 0.167432,0.06408 0.08371,0.05271 0.130224,0.133325 0.04754,0.07958 0.04754,0.202572 0,0.166398 -0.08372,0.279053 -0.08372,0.111621 -0.230477,0.168465 z m -0.478524,-1.105876 q 0,-0.06615 -0.02377,-0.116788 -0.02274,-0.05168 -0.07648,-0.08682 -0.04444,-0.02997 -0.10542,-0.04134 -0.06098,-0.0124 -0.14366,-0.0124 H 13.70149 v 0.580843 h 0.206706 q 0.09715,0 0.169499,-0.01654 0.07235,-0.01757 0.12299,-0.06408 0.04651,-0.04341 0.06821,-0.09922 0.02274,-0.05684 0.02274,-0.143661 z"
       style="font-style:normal;font-variant:normal;font-weight:normal;font-stretch:normal;font-size:2.11666656px;font-family:sans-serif;-inkscape-font-specification:'sans-serif, Normal';font-variant-ligatures:normal;font-variant-caps:normal;font-variant-numeric:normal;font-feature-settings:normal;text-align:start;writing-mode:lr-tb;text-anchor:start;stroke-width:0.26458332px"
       id="path997"
       inkscape:connector-curvature="0" />
    <path
       d="m 15.942178,60.591488 h -0.973584 v -1.538924 h 0.204639 v 1.357023 h 0.768945 z"
       style="font-style:normal;font-variant:normal;font-weight:normal;font-stretch:normal;font-size:2.11666656px;font-family:sans-serif;-inkscape-font-specification:'sans-serif, Normal';font-variant-ligatures:normal;font-variant-caps:normal;font-variant-numeric:normal;font-feature-settings:normal;text-align:start;writing-mode:lr-tb;text-anchor:start;stroke-width:0.26458332px"
       id="path999"
       inkscape:connector-curvature="0" />
    <path
       d="m 17.070792,59.052564 -0.541569,0.86403 v 0.674894 h -0.204639 v -0.65319 l -0.543636,-0.885734 h 0.226343 l 0.420646,0.68833 0.42478,-0.68833 z"
       style="font-style:normal;font-variant:normal;font-weight:normal;font-stretch:normal;font-size:2.11666656px;font-family:sans-serif;-inkscape-font-specification:'sans-serif, Normal';font-variant-ligatures:normal;font-variant-caps:normal;font-variant-numeric:normal;font-feature-settings:normal;text-align:start;writing-mode:lr-tb;text-anchor:start;stroke-width:0.26458332px"
       id="path1001"
       inkscape:connector-curvature="0" />
  </g>
  <g
     aria-label="TAIL"
     style="font-style:normal;font-variant:normal;font-weight:normal;font-stretch:normal;font-size:2.82222223px;line-height:125%;font-family:'DejaVu Sans Mono';-inkscape-font-specification:'DejaVu Sans Mono, Normal';font-variant-ligatures:normal;font-variant-caps:normal;font-variant-numeric:normal;font-feature-settings:normal;text-align:start;letter-spacing:0px;word-spacing:0px;writing-mode:lr-tb;text-anchor:start;fill:#000000;fill-opacity:1;stroke:none;stroke-width:0.26458332px;stroke-linecap:butt;stroke-linejoin:miter;stroke-opacity:1"
     id="text896-9">
    <path
       d="m 12.84366,71.193453 h -0.549837 v 1.357023 h -0.204639 v -1.357023 h -0.549837 v -0.181901 h 1.304313 z"
       style="font-style:normal;font-variant:normal;font-weight:normal;font-stretch:normal;font-size:2.11666656px;font-family:sans-serif;-inkscape-font-specification:'sans-serif, Normal';font-variant-ligatures:normal;font-variant-caps:normal;font-variant-numeric:normal;font-feature-settings:normal;text-align:start;writing-mode:lr-tb;text-anchor:start;stroke-width:0.26458332px"
       id="path1004"
       inkscape:connector-curvature="0" />
    <path
       d="M 14.141772,72.550476 H 13.923697 L 13.772802,72.121562 H 13.10721 l -0.150896,0.428914 h -0.207739 l 0.560173,-1.538924 h 0.272851 z m -0.432015,-0.604614 -0.269751,-0.75551 -0.270785,0.75551 z"
       style="font-style:normal;font-variant:normal;font-weight:normal;font-stretch:normal;font-size:2.11666656px;font-family:sans-serif;-inkscape-font-specification:'sans-serif, Normal';font-variant-ligatures:normal;font-variant-caps:normal;font-variant-numeric:normal;font-feature-settings:normal;text-align:start;writing-mode:lr-tb;text-anchor:start;stroke-width:0.26458332px"
       id="path1006"
       inkscape:connector-curvature="0" />
    <path
       d="M 14.917952,72.550476 H 14.310237 V 72.39338 h 0.201538 v -1.224732 h -0.201538 v -0.157096 h 0.607715 v 0.157096 h -0.201538 v 1.224732 h 0.201538 z"
       style="font-style:normal;font-variant:normal;font-weight:normal;font-stretch:normal;font-size:2.11666656px;font-family:sans-serif;-inkscape-font-specification:'sans-serif, Normal';font-variant-ligatures:normal;font-variant-caps:normal;font-variant-numeric:normal;font-feature-settings:normal;text-align:start;writing-mode:lr-tb;text-anchor:start;stroke-width:0.26458332px"
       id="path1008"
       inkscape:connector-curvature="0" />
    <path
       d="m 16.241902,72.550476 h -0.973584 v -1.538924 h 0.204639 v 1.357023 h 0.768945 z"
       style="font-style:normal;font-variant:normal;font-weight:normal;font-stretch:normal;font-size:2.11666656px;font-family:sans-serif;-inkscape-font-specification:'sans-serif, Normal';font-variant-ligatures:normal;font-variant-caps:normal;font-variant-numeric:normal;font-feature-settings:normal;text-align:start;writing-mode:lr-tb;text-anchor:start;stroke-width:0.26458332px"
       id="path1010"
       inkscape:connector-curvature="0" />
  </g>
</svg>
