<?xml version="1.0" encoding="UTF-8" standalone="no"?>
<svg
   xmlns:osb="http://www.openswatchbook.org/uri/2009/osb"
   xmlns:dc="http://purl.org/dc/elements/1.1/"
   xmlns:cc="http://creativecommons.org/ns#"
   xmlns:rdf="http://www.w3.org/1999/02/22-rdf-syntax-ns#"
   xmlns:svg="http://www.w3.org/2000/svg"
   xmlns="http://www.w3.org/2000/svg"
   xmlns:sodipodi="http://sodipodi.sourceforge.net/DTD/sodipodi-0.dtd"
   xmlns:inkscape="http://www.inkscape.org/namespaces/inkscape"
   width="135"
   height="380"
   viewBox="0 0 35.71875 100.54166"
   version="1.1"
   id="svg12553"
   sodipodi:docname="EMILE.svg"
   inkscape:version="1.0 (4035a4fb49, 2020-05-01)">
  <sodipodi:namedview
     pagecolor="#ffffff"
     bordercolor="#666666"
     borderopacity="1"
     objecttolerance="10"
     gridtolerance="10"
     guidetolerance="10"
     inkscape:pageopacity="0"
     inkscape:pageshadow="2"
     inkscape:window-width="3840"
     inkscape:window-height="2066"
     id="namedview156"
     showgrid="false"
     inkscape:zoom="1.7566021"
     inkscape:cx="-256.76456"
     inkscape:cy="366.84074"
     inkscape:window-x="-11"
     inkscape:window-y="-11"
     inkscape:window-maximized="1"
     inkscape:current-layer="svg12553"
     inkscape:document-rotation="0" />
  <defs
     id="defs12547">
    <linearGradient
       osb:paint="solid"
       id="linearGradient4708">
      <stop
         id="stop4706"
         offset="0"
         style="stop-color:#ececec;stop-opacity:1;" />
    </linearGradient>
    <filter
       id="filter4696"
       style="color-interpolation-filters:sRGB">
      <feColorMatrix
         id="feColorMatrix4692"
         result="colormatrix"
         values="0 0 0 0 1 0 0 0 0 0 0 0 0 0 0 1 0 0 0 0 0 "
         in="SourceGraphic" />
      <feBlend
         id="feBlend4694"
         result="fbSourceGraphic"
         mode="multiply"
         in2="BackgroundImage" />
      <feColorMatrix
         id="feColorMatrix4762"
         values="0 0 0 -1 0 0 0 0 -1 0 0 0 0 -1 0 0 0 0 1 0"
         in="fbSourceGraphic"
         result="fbSourceGraphicAlpha" />
      <feColorMatrix
         in="fbSourceGraphic"
         result="colormatrix"
         values="1 0 0 0 0 0 1 0 0 0 0 0 1 0 0 0 0 0 5 -1 "
         id="feColorMatrix4764" />
      <feComposite
         k4="0"
         k3="0"
         k1="0"
         result="composite"
         k2="0.3"
         operator="arithmetic"
         id="feComposite4766"
         in2="colormatrix" />
    </filter>
  </defs>
  <metadata
     id="metadata12550">
    <rdf:RDF>
      <cc:Work
         rdf:about="">
        <dc:format>image/svg+xml</dc:format>
        <dc:type
           rdf:resource="http://purl.org/dc/dcmitype/StillImage" />
        <dc:title />
      </cc:Work>
    </rdf:RDF>
  </metadata>
  <g
     id="layer1"
     transform="matrix(0.29968605,0,0,1.0012215,-7.9840939,-161.56553)">
    <path
       id="path33453"
       d="M 26.616839,161.37987 H 145.85344 v 100.3961 H 26.616839 Z m 0,0"
       style="display:inline;fill:#e6e6e6;fill-opacity:1;fill-rule:nonzero;stroke:none;stroke-width:0.322589"
       inkscape:connector-curvature="0" />
  </g>
  <path
     id="path955"
     d="m 32.999022,98.915319 c -1.145905,-0.35539 -2.665655,-0.2216 -3.591749,-0.864617 -1.375675,-3.530178 -2.402587,-7.416867 -4.87276,-10.259443 -3.567518,-0.954764 -7.600654,1.373909 -11.352642,0.03343 -3.5582746,0.0705 -6.9208578,-0.424766 -10.4790024,-1.475044 -3.20200975,-2.018727 -5.3335712,-5.859386 -6.1754154,-9.693093 -0.7234516,-4.503303 2.1592524,-8.729732 5.1719532,-11.496496 2.644647,-2.693956 7.0431998,-0.490355 9.4974126,-2.128065 2.692867,-0.807556 5.659251,1.079528 7.566253,2.438656 -0.06501,2.758612 3.769488,2.461043 5.754384,3.117731 2.945044,-0.618148 4.141199,-6.500448 3.899139,-8.122937 -1.311006,-0.0068 -2.18509,0.407029 -1.433651,0.678385 -2.423856,-0.159216 -3.866293,3.50124 -6.102826,2.909712 -3.571629,-0.533142 -6.845718,-2.707305 -9.302562,-5.427528 0.190699,-0.230484 3.169922,-0.06914 2.20769,0.41777 1.283946,1.349476 7.306955,3.056627 3.072077,1.197557 -2.741707,-1.517159 -0.03797,-0.816283 0.269038,-0.535119 0.619476,-0.284865 5.443608,1.768965 2.344656,-0.189102 0.267393,-0.344993 3.316355,0.313395 1.961759,-1.961727 0.06329,-1.645624 2.137119,-5.260191 2.936661,-4.684169 -1.999462,0.78324 -1.521449,6.383501 -0.204503,5.177099 -1.000002,-1.657603 1.160632,1.177927 -0.01236,-1.663512 0.273982,-3.014644 1.883165,0.327821 0.816813,1.109577 1.115204,-1.123916 1.208833,0.54381 1.807572,1.002919 -1.893705,2.196606 3.588951,1.505515 3.390741,0.645737 1.499289,0.01266 6.173609,-2.042311 2.824172,-0.142076 1.464643,1.355376 6.32651,-2.686728 5.288841,-2.857205 -3.127431,1.650364 2.00946,-2.23393 2.674785,-3.743322 1.532233,-2.920667 -0.742432,-6.362103 -1.654452,-7.855715 1.433517,-2.692543 -2.773062,-3.611834 -3.641568,-5.326687 -0.588982,-1.307472 -0.37426,-2.385019 -2.864088,-2.805237 -1.327302,0.676869 -4.100519,-0.88039 -4.35605,1.062702 -1.774174,-0.338207 -2.30165,-0.695557 -4.638889,-0.0088 -2.016513,0.450035 -3.540964,0.08045 -4.566849,0.360803 -1.417727,-0.343308 -4.981839,1.424692 -6.776262,2.905443 -2.6812656,3.201879 -2.394259,8.252407 -1.632837,12.189859 1.521013,2.752115 4.083541,4.028878 6.576979,5.748704 1.323538,0.854011 -3.70287,-0.67943 -4.547315,-0.473791 C 10.995359,58.271298 9.5201284,56.34482 8.9445908,55.321692 7.9896166,55.124576 8.5255652,54.045789 7.599416,54.229942 7.369088,52.857082 8.4835232,54.786211 7.574796,52.482699 7.2399254,51.395312 7.3292184,55.200541 6.9368034,52.703091 7.0944984,51.332829 6.8290314,49.831966 5.9408742,50.596667 7.373535,48.971504 7.407975,46.795543 7.434206,45.251557 7.9816896,44.650434 6.4253898,44.044752 7.842984,44.148896 c 0.09951,-2.166265 0.8780992,-3.657484 1.2438408,-4.140134 0.4718496,-1.669345 3.8433042,-3.466452 3.7594382,-3.808698 -1.901974,0.545944 2.841666,-2.043786 3.876391,-2.374348 1.403262,-0.898213 1.944112,-1.10151 2.211623,-0.823422 3.144907,-2.709768 -3.522675,0.175667 -4.884044,-0.277815 C 10.099326,32.046264 6.2983548,30.522188 3.0631616,27.981567 0.32092855,26.808826 -0.56418715,20.992851 0.8214632,20.58479 0.8959332,18.989572 1.2529818,17.438238 0.7177182,17.46764 1.6640484,14.674234 1.9365824,12.265232 3.5322832,9.8838964 5.4891706,7.0886844 8.9842768,5.853654 11.985671,5.2539373 c 3.316957,-0.5439306 6.943768,-0.061224 10.375474,0.1685974 2.863504,-1.1748765 4.051084,3.6229011 5.67862,0.6883601 2.514065,-1.5824719 2.806947,-5.7112989 4.125802,-7.4175006 6.669712,1.24473905 13.33943,2.4894792 20.009142,3.7342163 C 51.80716,4.7078672 51.439612,6.9881224 51.072065,9.2683768 44.987608,8.5874222 39.007401,7.1025744 32.923659,6.4706698 31.214338,6.2091364 28.156431,6.5851558 30.441334,7.777311 c 0.850392,1.1264972 5.781808,0.7744052 7.564056,3.028117 3.354843,1.57638 4.40441,6.369945 2.363854,9.508702 -0.531894,1.71809 -6.353194,5.035049 -2.098438,2.916754 1.226437,-0.844771 5.140272,-3.222264 2.102657,-0.812644 -1.097629,1.396716 -4.474681,1.981036 -0.890107,1.880467 1.738056,0.549131 5.207352,-2.070418 4.043159,-0.314893 2.168882,0.07927 3.814371,-3.501587 2.773513,-5.055303 1.862924,0.05452 -0.239665,1.860383 2.273213,0.0715 1.818646,-2.291859 0.612844,0.982591 0.580349,2.118889 -1.225572,7.310209 -2.222721,14.673445 -3.683105,21.931474 -1.440809,-1.531572 -4.818481,-2.995212 -6.29035,-3.429975 1.968763,1.988607 3.871521,4.07062 6.068863,5.77477 -0.622029,3.454174 -0.962917,6.99876 -1.850782,10.372677 -0.968109,-0.221525 0.468217,2.458822 -0.44517,3.871344 -2.145539,13.310865 -4.291079,26.621719 -6.436617,39.932553 -1.172469,-0.218807 -2.344941,-0.437607 -3.517407,-0.656424 z M 32.524048,59.413412 c -3.147332,0.35413 2.377858,0.162145 0,0 z m -4.198885,18.827487 c -0.699369,-1.166366 -0.704023,-0.954187 -1.502652,-1.466767 0.358097,-1.208482 -2.106083,3.334044 0.651393,3.067149 0.617154,-0.147428 1.008715,-0.967748 0.851259,-1.600382 z m -1.865393,0.8263 c -0.385635,-0.535881 0.261965,-0.420337 0,0 z M 37.965593,18.628356 c 0.304991,-3.397399 -1.562406,-5.944672 -4.652407,-6.242419 -1.012264,-1.038291 -3.753679,-2.6305416 -2.992454,-1.303919 0.30859,1.500463 4.441999,3.798904 4.623663,6.658662 0.566939,1.439599 -2.540599,4.961277 -1.007283,1.697412 1.205751,-1.85229 -2.193403,-6.783675 -1.051181,-2.549642 0.464415,2.968599 -0.715284,7.337523 -2.54666,8.247056 0.359334,1.783472 3.2605,-1.767192 4.476541,-2.239466 1.691062,-0.719713 3.3855,-1.85731 3.149781,-4.267684 z M 37.510208,18.01069 c -1.013029,-0.99043 0.377186,-0.783265 0,0 z m -3.761482,17.463913 c -1.591028,0.186394 1.53905,0.496676 0,0 z m 0.07762,-0.508364 c -1.404205,-0.304543 0.736923,0.979245 0,0 z m -1.482205,-5.859012 c 0.286729,-4.317234 -5.441387,0.687118 -5.609118,-1.402708 1.843976,-1.741046 3.050259,-3.670036 4.761772,-4.643512 0.946136,-3.176765 1.131554,-6.785291 -0.576725,-9.807995 -0.290842,-1.459312 -2.711577,-1.271837 -2.888727,-2.168588 -0.853439,-0.922795 -4.854237,-2.6542548 -6.498122,-1.2394336 -0.588179,0.9409436 3.134308,3.1513306 1.354348,2.7031876 -1.118412,-1.196422 -2.070157,-0.413837 -0.960118,1.207992 -1.724246,0.749013 0.888588,2.943374 -1.05896,1.486242 0.379778,1.345324 2.902587,2.634676 -0.08865,2.011022 -3.126065,-0.599537 -1.527391,-6.04015 -3.787115,-6.209415 -2.474277,0.271707 -5.33317,-1.0943856 -6.706101,1.848793 -1.3813978,1.400454 -2.432603,3.952764 -2.724753,5.994582 0.262322,2.177578 0.9579582,4.214992 2.0342524,6.269157 1.2634486,1.375612 1.6910266,0.880915 1.8814906,1.670315 -0.47731,0.404816 2.432852,2.520996 3.508137,1.458296 1.228528,1.128217 2.04461,-1.392864 2.588279,-0.163486 1.622558,-0.786384 2.234438,-0.558347 1.334942,-2.569888 0.03205,-2.619567 1.466951,-4.580027 3.275213,-3.616172 -0.414556,1.083218 0.887011,2.290866 -0.318911,3.249777 2.22056,0.203393 -0.846491,1.982887 0.525608,3.397148 -0.717419,1.91257 -1.630492,-2.331336 -2.77297,0.02132 -1.411851,-0.238155 0.518805,0.638108 1.539671,0.352425 -1.351921,0.715538 3.044902,0.375597 3.767187,-0.189935 1.425491,-0.506667 4.909571,-0.678176 2.079057,1.195847 2.873126,-2.2646 -4.004099,-0.42542 -1.348373,0.478549 -0.728229,0.794845 -7.694273,1.18432 -3.89977,2.330303 1.07577,-0.01209 5.489785,0.907787 4.718955,1.281436 -1.377689,-0.61254 -2.814881,0.881518 -0.551092,0.589856 -0.641672,0.587503 1.669538,0.44547 1.450845,0.932878 0.439424,0.456929 3.654533,0.783691 5.557291,-0.389758 -1.049594,-1.082591 -4.042284,-0.68566 -2.554487,0.233251 -4.4838,-2.137543 2.358414,-1.02531 3.306869,-1.389977 -0.462468,-1.635468 -0.913579,-3.274677 -1.339928,-4.921502 z m -0.46821,-10.404976 c -0.717392,2.22982 -4.113704,2.503702 -1.481621,0.07577 0.311965,-2.642403 -3.027687,-2.346604 -1.657549,-3.637699 2.289247,-0.591949 3.904347,1.819386 3.13917,3.561931 z m -4.038588,15.331228 c -0.781237,-0.215022 0.88097,0.01523 0,0 z M 27.416705,15.443486 c 0.627032,2.431999 -6.254749,1.838592 -1.87484,0.735735 0.162011,-0.316258 2.78311,-1.454708 1.87484,-0.735735 z m -2.490741,13.044862 c -1.407023,-0.0496 0.153197,-0.837638 0.256533,-0.06415 z m -0.921809,0.08737 c -0.641231,-0.51616 0.570147,-0.128181 0,0 z m -0.900005,-0.01637 c -1.059891,-0.567659 0.840344,-0.02625 0,0 z m -2.861147,-0.22371 c -0.43673,-0.474834 0.559823,-0.288855 0,0 z m -0.219362,0.420906 c -0.270427,-0.305375 0.535839,-0.284919 0,0 z m 1.025615,-7.198112 c -0.452337,-0.507155 0.50091,-0.04609 0,0 z m 0.08431,-0.523085 c -0.464892,-0.240977 0.581151,-0.534726 0,0 z m -0.437408,0.332105 c 0.01477,-0.857898 0.196702,0.301402 0,0 z m -7.928831,5.454623 c -2.025728,-0.106813 1.157519,-0.203823 0,0 z m 11.756509,51.778381 c -2.334479,-2.312247 -0.203746,3.837964 -0.923665,1.026041 0.512093,-1.19641 1.445622,0.864178 0.923665,-1.026041 z m 0.257166,-0.308398 c -0.559832,0.288831 0.436724,0.474845 0,0 z m -1.637035,-3.715367 c -1.568464,0.834728 1.761905,1.450182 0.499153,0.108489 l -0.499173,-0.108485 z m -0.04943,4.040171 c -1.034369,-3.530422 -0.490446,6.354041 0.05472,0.610316 l -0.05498,-0.61036 z m 3.22187,-20.442744 c -1.97159,1.611549 1.041143,-0.254627 0,0 z m -0.314939,1.102167 c -0.669574,0.317337 0.402302,1.126374 0,0 z m -0.667893,0.123021 c -1.145572,0.782897 0.721237,-0.01509 0,0 z M 21.75922,78.855588 c -0.248117,-1.388912 0.07821,-4.3087 -0.843053,-1.90352 -1.026474,-0.08803 -1.185172,2.057484 0.203239,2.087976 -2.253398,1.514783 1.496821,2.669245 0.639815,-0.18446 z m 3.368425,-23.129235 c -0.601422,0.48865 0.413365,0.678034 0,0 z m -4.325489,20.400039 c -1.436671,0.804204 0.21586,-2.875501 -1.465494,-1.297545 -2.105753,0.460473 1.322058,2.465489 1.703864,1.328661 z m -2.286799,7.308218 c -0.584629,0.313628 0.457228,0.224904 0,0 z m 4.395637,-29.045633 c -0.559824,0.28887 0.436734,0.474823 0,0 z m -4.349163,24.859326 c 0.717909,-2.402047 -1.333644,-2.59509 -0.483443,-0.71439 -2.319135,-0.296625 -4.400641,0.729073 -6.491313,-0.394958 -2.0782116,-0.10725 0.175488,-1.583195 -1.215393,-3.459732 0.533404,-2.661733 -2.751996,-0.24425 -1.3621142,0.04846 -1.2798018,0.56015 -1.8534994,-1.363458 -3.7363832,-0.991432 -1.6521804,-0.8442 -2.0947634,1.342283 -2.7438256,1.695822 -0.403002,1.408512 -0.4924836,4.019919 1.5228188,4.361405 1.2622348,0.733264 1.8818384,1.122869 3.7026422,0.493547 0.9539932,1.26165 3.520576,0.395973 2.567748,-0.738055 2.130298,-1.396806 3.022407,0.759496 5.743027,0.477121 0.403514,-3.451345 1.264857,3.988899 2.575227,-0.296081 l -0.07896,-0.481703 z M 9.7454594,73.853524 c -1.8354938,0.436944 1.5176146,-0.75859 0,0 z M 7.572351,75.285755 c -0.6158806,0.284474 0.160404,-1.201189 0.115626,-0.178486 z m 11.8448,-2.974902 c -1.540438,-0.553967 -2.495308,0.362139 -3.023198,2.439589 0.631365,-2.181741 -1.079436,1.843047 -0.399813,-1.144068 1.53064,-1.301832 0.356983,-4.134342 -0.38785,-1.906065 0.983706,1.181359 -2.057157,6.301706 0.123227,3.209078 -0.421242,1.544466 -3.037178,3.967055 -0.0084,2.306599 0.567351,-1.426398 0.464215,-1.210372 0.938515,-0.595116 0.860601,-1.096394 2.422195,-3.231949 2.757548,-4.310017 z M 21.16966,60.532185 c -0.471134,0.491115 1.011841,0.365238 0,0 z m -0.354286,1.365846 c -0.2801,0.211674 0.797285,0.01588 0,0 z m 3.63896,-31.814266 c -1.993361,-1.490986 -2.881827,2.077178 -0.212689,0.61294 0.888421,0.271816 0.684329,-0.762512 0.212689,-0.61294 z m -6.044368,35.976627 c -0.781333,0.25504 0.839476,0.601801 0,0 z M 14.0655,83.183821 c 0.238165,-1.373066 -2.053263,-0.462174 -0.327659,0.975988 -0.07806,1.038621 0.950779,-0.921061 0.327659,-0.975988 z m 3.654864,-23.220742 c -0.46599,-0.0937 0.388741,0.545179 0,0 z m -1.099249,4.397269 c -0.210247,0.508454 0.848407,-0.08137 0,0 z M 13.01224,84.768096 c -1.735682,1.086035 1.819451,-0.09677 0,0 z m 0.44963,-3.296605 c -0.943231,0.684622 1.218053,-0.0555 0,0 z m 1.332689,-8.249185 c -0.506602,-1.175181 -1.100992,1.432561 -1.485916,1.591763 0.470606,1.032888 1.983272,-0.658283 1.485916,-1.591763 z m -0.652732,3.394473 c -1.50887,0.147941 0.712948,0.662216 0,0 z m 0.131453,-0.593621 c -0.500909,0.0461 0.45234,0.50716 0,0 z M 21.752415,27.8476 c -1.021477,0.829382 0.990216,0.179679 0,0 z m -9.225964,55.906179 c -0.775334,0.168096 0.677431,0.439238 0,0 z M 15.208121,64.6118 c -1.184783,-1.251963 1.396601,0.298497 -0.737391,-1.026656 -2.484387,-0.288306 2.455741,3.344264 0.737391,1.026656 z m 7.079915,-40.974791 c -0.622301,0.445026 0.426397,0.433836 0,0 z m -10.19153,59.677318 c -0.594808,1.475302 -0.130322,1.269 0,0 z m 1.61402,-10.013312 c -0.584639,0.313622 0.457233,0.224896 0,0 z m 0.107377,-1.057603 c -0.540416,0.193288 0.182521,0.448179 0,0 z m 7.45694,-47.213559 c -0.04418,-3.356612 -0.678884,-0.145259 0.112076,0.562246 z m 2.51839,-18.7371484 c -0.382956,0.5064222 0.958086,0.2028272 0,0 z M 11.258915,84.011301 c -0.765143,1.064193 0.715656,-0.01434 0,0 z m 0.311479,-0.487267 c -0.540417,0.193289 0.182519,0.44818 0,0 z M 23.144284,5.676205 c 0.234148,0.2794882 1.421901,0.033824 0,0 z M 12.233406,74.254561 c 0.959453,-3.759211 -1.192569,-0.453155 0,0 z M 17.939505,36.63507 c -1.533791,0.370143 -4.182726,2.936354 -1.082189,1.03942 0.171944,-0.118541 2.245742,-1.475765 1.082189,-1.03942 z M 22.082579,5.8277889 c -3.961583,-0.8682793 1.132677,1.7954211 0,0 z M 9.5594324,81.801034 c -2.355915,1.530347 1.6913436,0.171137 0,0 z M 21.173553,9.1118188 c -0.622761,0.295512 0.43763,0.8832426 0,0 z M 15.867729,37.061712 c -2.280004,0.935149 -0.70204,0.668282 0.561386,-0.154277 z m -0.520608,0.936839 c -0.763224,0.0451 0.604157,0.56301 0,0 z M 10.569398,56.39627 c -0.500913,0.04606 0.452338,0.507155 0,0 z M 5.127999,80.782236 c -0.5708236,0.16213 0.6445962,0.301752 0,0 z m -0.8319286,-0.72227 c -0.2801056,0.211675 0.7972876,0.01589 0,0 z m 2.807943,-29.236771 c -0.6266896,-0.447735 0.5775806,0.864878 0,0 z M 1.0203278,22.438973 c -0.3712806,0.684792 0.8095566,-3.324758 -0.3216426,-0.882291 -0.22432865,1.972706 -0.15395305,2.472365 0.3216426,0.882291 z m 0.6412036,-6.01157 c -0.7195102,-0.153044 0.369015,0.789359 0,0 z m 0.04812,-0.941407 c -0.8516512,-0.763588 0.249743,1.568776 0,0 z M 44.45405,16.894732 c -1.1771,-0.788297 0.01477,-1.171657 -0.07165,-0.362845 0.335584,-0.3944 0.218834,0.377212 0.07165,0.362845 z m 0.06181,-5.339345 c -2.254149,1.786561 -1.597943,-0.07847 -1.096453,-1.204611 1.096853,1.583465 0.882703,-1.7211858 1.364244,0.994751 l -0.267777,0.209863 z m -0.867787,-0.712422 c -0.40089,0.311675 0.701714,0.423526 0,0 z m 0.240944,3.34343 c -1.207003,-0.146292 1.12001,-0.671081 0,0 z m -0.06714,-0.693872 c -1.662474,0.399342 0.664051,-0.900012 0,0 z m -0.07163,-4.0160226 c -1.311904,-0.4064766 -4.18372,0.013 -1.169223,-1.2189218 0.420336,0.04201 1.451777,0.8459852 1.169223,1.2189218 z m -2.2041,9.1334516 c -0.270434,-0.305372 0.535839,-0.284922 0,0 z m 0.892092,-6.761185 c -0.914809,-0.497615 0.78201,-0.267985 0,0 z m -0.65538,-0.603794 c -2.204132,-3.3489064 0.549302,-0.606452 0,0 z m -7.350345,44.022629 c -1.22935,-0.691276 0.233449,-3.963971 0.358701,-4.51938 0.09083,0.756516 0.305843,5.707565 -0.358701,4.51938 z m 0.04743,-7.158 c -0.585821,-1.560361 -0.275423,-4.341336 0.110984,-1.057568 -0.111177,-0.08825 0.21558,1.267609 -0.110984,1.057568 z m -1.844453,4.59093 c -0.580105,2.504922 -3.717716,1.530374 -1.058185,-0.498408 0.983266,-1.765699 -1.358672,-2.876552 -0.717764,-4.647602 0.348737,-0.28318 1.136562,1.454217 0.517856,1.38929 0.80447,1.844689 1.414322,1.567823 1.302808,2.963845 0.666084,0.311259 0.339254,0.368726 -0.04472,0.792875 z m -3.616038,1.288951 c -2.285624,-1.578 1.497232,0.337073 0,0 z M 30.02957,38.629221 c -2.146803,0.820436 -1.768753,-0.68608 0,0 z m -3.207334,19.10681 c -0.655425,-1.221364 0.520921,-1.488069 0,0 z m 1.305359,-18.845974 c -0.426405,-0.433833 0.622304,-0.445036 0,0 z m -3.211858,15.48818 c -0.529721,-0.307369 0.721119,-0.697809 0,0 z m -1.393395,2.321157 c -0.284492,-0.879619 0.368161,0.443831 0,0 z m 0.892057,-10.597838 c -1.695378,1.14038 -1.262526,-3.512915 -0.411536,-3.196311 1.940455,0.724101 -0.944641,1.097413 0.80414,2.20466 l -0.07537,0.563502 -0.317199,0.428157 z m -0.05689,-0.86426 c -0.48074,0.874638 0.629262,0.09727 0,0 z m -0.797317,-0.04291 c -0.15444,0.589992 0.827157,0.257745 0,0 z m -1.642923,1.15777 c -0.387676,-1.808233 0.445395,0.622422 0,0 z m -1.147353,1.300488 c -0.445768,-1.395125 -1.46369,-5.467441 1.064203,-6.332256 -0.215809,1.248967 -1.76506,3.023229 -0.728386,5.092542 -0.41436,0.295777 0.04073,0.8846 -0.335814,1.239714 z m 0.04674,-5.123676 c -1.081411,1.623895 0.638366,-0.336628 0,0 z m -0.427972,1.767508 c -0.604701,0.595041 0.472873,0.09822 0,0 z m 1.017505,-0.772284 c -1.443259,1.228109 1.191237,-1.650164 0,0 z m -6.403482,15.546826 c -0.452338,-0.507156 0.500912,-0.04606 0,0 z M 11.208978,37.209746 c -1.003409,0.569359 1.223917,-1.247402 0,0 z M 6.6841048,52.733329 c -0.5484286,-0.761147 0.004,-0.731169 0,0 z M 7.9879666,41.626181 c 0.01477,-0.857896 0.196719,0.301402 0,0 z M 7.421587,43.031098 c -0.2704276,-0.305373 0.5358376,-0.28492 0,0 z m -0.2373386,0.647384 c -0.306913,-0.172079 0.6112566,-0.537451 0,0 z"
     style="opacity:0.08;fill:#000000;stroke-width:0.166959"
     inkscape:connector-curvature="0" />
  <path
     inkscape:connector-curvature="0"
     id="rect5282-9-4"
     d="m 2.422917,84.987413 h 5.291667 v 8.898 H 2.422917 Z"
     style="fill:#020202;fill-opacity:1;fill-rule:nonzero;stroke:#000000;stroke-width:2.2;stroke-linecap:butt;stroke-linejoin:round;stroke-miterlimit:8.2;stroke-dasharray:none;stroke-dashoffset:0;stroke-opacity:1;paint-order:normal" />
  <g
     aria-label="EMILE"
     style="font-style:normal;font-variant:normal;font-weight:normal;font-stretch:normal;font-size:2.82222px;line-height:125%;font-family:'DejaVu Sans Mono';-inkscape-font-specification:'DejaVu Sans Mono, Normal';font-variant-ligatures:normal;font-variant-caps:normal;font-variant-numeric:normal;font-feature-settings:normal;text-align:start;letter-spacing:0px;word-spacing:0px;writing-mode:lr-tb;text-anchor:start;fill:#000000;fill-opacity:1;stroke:none;stroke-width:0.264583px;stroke-linecap:butt;stroke-linejoin:miter;stroke-opacity:1"
     id="text965"
     transform="translate(0,-1.3225624)">
    <path
       d="M 13.676684,5.7233272 H 11.648901 V 2.645479 h 2.027783 v 0.3638021 h -1.618505 v 0.8433593 h 1.618505 v 0.3638021 h -1.618505 v 1.1430826 h 1.618505 z"
       style="font-style:normal;font-variant:normal;font-weight:normal;font-stretch:normal;font-size:4.23333px;font-family:sans-serif;-inkscape-font-specification:'sans-serif, Normal';font-variant-ligatures:normal;font-variant-caps:normal;font-variant-numeric:normal;font-feature-settings:normal;text-align:start;writing-mode:lr-tb;text-anchor:start;stroke-width:0.264583px"
       id="path1050"
       inkscape:connector-curvature="0" />
    <path
       d="M 17.068725,5.7233272 H 16.659448 V 3.0712928 L 15.803686,4.8758337 H 15.559774 L 14.710213,3.0712928 V 5.7233272 H 14.327807 V 2.645479 h 0.558106 l 0.820622,1.7135904 0.79375,-1.7135904 h 0.56844 z"
       style="font-style:normal;font-variant:normal;font-weight:normal;font-stretch:normal;font-size:4.23333px;font-family:sans-serif;-inkscape-font-specification:'sans-serif, Normal';font-variant-ligatures:normal;font-variant-caps:normal;font-variant-numeric:normal;font-feature-settings:normal;text-align:start;writing-mode:lr-tb;text-anchor:start;stroke-width:0.264583px"
       id="path1052"
       inkscape:connector-curvature="0" />
    <path
       d="M 18.984887,5.7233272 H 17.769458 V 5.4091345 h 0.403076 V 2.9596717 H 17.769458 V 2.645479 h 1.215429 v 0.3141927 h -0.403076 v 2.4494628 h 0.403076 z"
       style="font-style:normal;font-variant:normal;font-weight:normal;font-stretch:normal;font-size:4.23333px;font-family:sans-serif;-inkscape-font-specification:'sans-serif, Normal';font-variant-ligatures:normal;font-variant-caps:normal;font-variant-numeric:normal;font-feature-settings:normal;text-align:start;writing-mode:lr-tb;text-anchor:start;stroke-width:0.264583px"
       id="path1054"
       inkscape:connector-curvature="0" />
    <path
       d="M 21.632788,5.7233272 H 19.68562 V 2.645479 h 0.409277 v 2.7140461 h 1.537891 z"
       style="font-style:normal;font-variant:normal;font-weight:normal;font-stretch:normal;font-size:4.23333px;font-family:sans-serif;-inkscape-font-specification:'sans-serif, Normal';font-variant-ligatures:normal;font-variant-caps:normal;font-variant-numeric:normal;font-feature-settings:normal;text-align:start;writing-mode:lr-tb;text-anchor:start;stroke-width:0.264583px"
       id="path1056"
       inkscape:connector-curvature="0" />
    <path
       d="M 24.069848,5.7233272 H 22.042065 V 2.645479 h 2.027783 v 0.3638021 h -1.618506 v 0.8433593 h 1.618506 v 0.3638021 h -1.618506 v 1.1430826 h 1.618506 z"
       style="font-style:normal;font-variant:normal;font-weight:normal;font-stretch:normal;font-size:4.23333px;font-family:sans-serif;-inkscape-font-specification:'sans-serif, Normal';font-variant-ligatures:normal;font-variant-caps:normal;font-variant-numeric:normal;font-feature-settings:normal;text-align:start;writing-mode:lr-tb;text-anchor:start;stroke-width:0.264583px"
       id="path1058"
       inkscape:connector-curvature="0" />
  </g>
  <g
     aria-label="bId°°"
     style="font-style:normal;font-variant:normal;font-weight:normal;font-stretch:normal;font-size:2.82222px;line-height:125%;font-family:'DejaVu Sans Mono';-inkscape-font-specification:'DejaVu Sans Mono, Normal';font-variant-ligatures:normal;font-variant-caps:normal;font-variant-numeric:normal;font-feature-settings:normal;text-align:start;letter-spacing:0px;word-spacing:0px;writing-mode:lr-tb;text-anchor:start;fill:#000000;fill-opacity:1;stroke:none;stroke-width:0.264583px;stroke-linecap:butt;stroke-linejoin:miter;stroke-opacity:1"
     id="text965-4"
     transform="translate(0,0.19393368)">
    <path
       d="m 14.414624,97.788718 q 0,0.289388 -0.08268,0.520898 -0.08061,0.231511 -0.219108,0.388607 -0.146761,0.163297 -0.322461,0.24598 -0.1757,0.08061 -0.38654,0.08061 -0.19637,0 -0.343131,-0.04754 -0.146761,-0.04548 -0.289388,-0.124024 l -0.02481,0.107487 h -0.363802 v -3.216341 h 0.388607 v 1.149284 q 0.163297,-0.134359 0.347265,-0.219108 0.183968,-0.08682 0.413412,-0.08682 0.409277,0 0.644922,0.314193 0.237711,0.314193 0.237711,0.886768 z m -0.401009,0.01033 q 0,-0.413411 -0.136426,-0.626318 -0.136425,-0.214974 -0.440283,-0.214974 -0.169499,0 -0.343131,0.07441 -0.173633,0.07235 -0.322461,0.188102 v 1.322917 q 0.165364,0.07441 0.283187,0.103352 0.119889,0.02894 0.270784,0.02894 0.322461,0 0.504362,-0.21084 0.183968,-0.212906 0.183968,-0.665592 z"
       style="font-style:normal;font-variant:normal;font-weight:normal;font-stretch:normal;font-size:4.23333px;font-family:sans-serif;-inkscape-font-specification:'sans-serif, Normal';font-variant-ligatures:normal;font-variant-caps:normal;font-variant-numeric:normal;font-feature-settings:normal;text-align:start;writing-mode:lr-tb;text-anchor:start;stroke-width:0.264583px"
       id="path1061"
       inkscape:connector-curvature="0" />
    <path
       d="m 16.136483,98.960739 h -1.21543 v -0.314193 h 0.403076 v -2.449462 h -0.403076 v -0.314193 h 1.21543 v 0.314193 h -0.403076 v 2.449462 h 0.403076 z"
       style="font-style:normal;font-variant:normal;font-weight:normal;font-stretch:normal;font-size:4.23333px;font-family:sans-serif;-inkscape-font-specification:'sans-serif, Normal';font-variant-ligatures:normal;font-variant-caps:normal;font-variant-numeric:normal;font-feature-settings:normal;text-align:start;writing-mode:lr-tb;text-anchor:start;stroke-width:0.264583px"
       id="path1063"
       inkscape:connector-curvature="0" />
    <path
       d="m 18.678963,98.960739 h -0.388607 v -0.241846 q -0.167431,0.144694 -0.349332,0.22531 -0.181901,0.08061 -0.394808,0.08061 -0.413412,0 -0.657324,-0.318327 -0.241846,-0.318327 -0.241846,-0.882633 0,-0.293522 0.08268,-0.522966 0.08475,-0.229443 0.227377,-0.390674 0.140559,-0.157096 0.326595,-0.239778 0.188102,-0.08268 0.388606,-0.08268 0.181901,0 0.322461,0.03928 0.14056,0.03721 0.295589,0.117822 v -1.000456 h 0.388607 z m -0.388607,-0.568441 v -1.324983 q -0.157096,-0.07028 -0.281119,-0.09715 -0.124024,-0.02687 -0.270785,-0.02687 -0.326595,0 -0.508496,0.227377 -0.181901,0.227376 -0.181901,0.644921 0,0.411345 0.14056,0.626319 0.14056,0.212907 0.450618,0.212907 0.165365,0 0.334864,-0.07235 0.169498,-0.07441 0.316259,-0.190171 z"
       style="font-style:normal;font-variant:normal;font-weight:normal;font-stretch:normal;font-size:4.23333px;font-family:sans-serif;-inkscape-font-specification:'sans-serif, Normal';font-variant-ligatures:normal;font-variant-caps:normal;font-variant-numeric:normal;font-feature-settings:normal;text-align:start;writing-mode:lr-tb;text-anchor:start;stroke-width:0.264583px"
       id="path1065"
       inkscape:connector-curvature="0" />
    <path
       d="m 21.037475,96.653903 q 0,0.347266 -0.239779,0.587045 -0.239778,0.239778 -0.589111,0.239778 -0.349332,0 -0.589111,-0.237711 -0.239779,-0.239779 -0.239779,-0.589112 0,-0.347265 0.239779,-0.587044 0.239779,-0.239779 0.589111,-0.239779 0.3514,0 0.589111,0.239779 0.239779,0.239779 0.239779,0.587044 z m -0.341064,0 q 0,-0.21084 -0.138493,-0.353466 -0.138493,-0.144694 -0.349333,-0.144694 -0.21084,0 -0.349332,0.144694 -0.138493,0.142626 -0.138493,0.353466 0,0.214974 0.14056,0.357601 0.142627,0.14056 0.347265,0.14056 0.21084,0 0.349333,-0.144694 0.138493,-0.144694 0.138493,-0.353467 z"
       style="font-style:normal;font-variant:normal;font-weight:normal;font-stretch:normal;font-size:4.23333px;font-family:sans-serif;-inkscape-font-specification:'sans-serif, Normal';font-variant-ligatures:normal;font-variant-caps:normal;font-variant-numeric:normal;font-feature-settings:normal;text-align:start;writing-mode:lr-tb;text-anchor:start;stroke-width:0.264583px"
       id="path1067"
       inkscape:connector-curvature="0" />
    <path
       d="m 23.336042,96.653903 q 0,0.347266 -0.239778,0.587045 -0.239779,0.239778 -0.589112,0.239778 -0.349332,0 -0.589111,-0.237711 -0.239778,-0.239779 -0.239778,-0.589112 0,-0.347265 0.239778,-0.587044 0.239779,-0.239779 0.589111,-0.239779 0.3514,0 0.589112,0.239779 0.239778,0.239779 0.239778,0.587044 z m -0.341064,0 q 0,-0.21084 -0.138493,-0.353466 -0.138493,-0.144694 -0.349333,-0.144694 -0.210839,0 -0.349332,0.144694 -0.138493,0.142626 -0.138493,0.353466 0,0.214974 0.14056,0.357601 0.142627,0.14056 0.347265,0.14056 0.21084,0 0.349333,-0.144694 0.138493,-0.144694 0.138493,-0.353467 z"
       style="font-style:normal;font-variant:normal;font-weight:normal;font-stretch:normal;font-size:4.23333px;font-family:sans-serif;-inkscape-font-specification:'sans-serif, Normal';font-variant-ligatures:normal;font-variant-caps:normal;font-variant-numeric:normal;font-feature-settings:normal;text-align:start;writing-mode:lr-tb;text-anchor:start;stroke-width:0.264583px"
       id="path1069"
       inkscape:connector-curvature="0" />
  </g>
  <path
     inkscape:connector-curvature="0"
     id="rect5282-9"
     d="m 28.004167,84.987413 h 5.291667 v 8.898 h -5.291667 z"
     style="fill:#cd1f00;fill-opacity:1;fill-rule:nonzero;stroke:#cd1f00;stroke-width:2.2;stroke-linecap:butt;stroke-linejoin:round;stroke-miterlimit:8.2;stroke-dasharray:none;stroke-dashoffset:0;stroke-opacity:1;paint-order:normal" />
  <g
     id="text5206-7-4"
     style="font-style:normal;font-variant:normal;font-weight:normal;font-stretch:normal;font-size:2.11667px;line-height:125%;font-family:sans-serif;-inkscape-font-specification:'sans-serif, Normal';font-variant-ligatures:normal;font-variant-caps:normal;font-variant-numeric:normal;font-feature-settings:normal;text-align:start;letter-spacing:0px;word-spacing:0px;writing-mode:lr-tb;text-anchor:start;fill:#000000;fill-opacity:1;stroke:none;stroke-width:0.264583px;stroke-linecap:butt;stroke-linejoin:miter;stroke-opacity:1"
     aria-label="OUT"
     transform="translate(89.133003,24.983469)">
    <path
       inkscape:connector-curvature="0"
       id="path989"
       style="font-style:normal;font-variant:normal;font-weight:normal;font-stretch:normal;font-size:2.11667px;font-family:sans-serif;-inkscape-font-specification:'sans-serif, Normal';font-variant-ligatures:normal;font-variant-caps:normal;font-variant-numeric:normal;font-feature-settings:normal;text-align:start;writing-mode:lr-tb;text-anchor:start;fill:#ffffff;fill-opacity:1;stroke-width:0.264583px"
       d="m -59.448835,60.171051 q 0.09405,0.103352 0.143661,0.253214 0.05064,0.149862 0.05064,0.340031 0,0.190169 -0.05168,0.341064 -0.05064,0.149862 -0.142627,0.250114 -0.09508,0.104387 -0.225309,0.157097 -0.129191,0.05271 -0.295589,0.05271 -0.162264,0 -0.295589,-0.05374 -0.132292,-0.05374 -0.22531,-0.156063 -0.09302,-0.102319 -0.14366,-0.251147 -0.04961,-0.148828 -0.04961,-0.340031 0,-0.188102 0.04961,-0.33693 0.04961,-0.149862 0.144694,-0.256315 0.09095,-0.101286 0.225309,-0.15503 0.135392,-0.05374 0.294556,-0.05374 0.165364,0 0.296622,0.05478 0.132292,0.05374 0.224276,0.153996 z m -0.0186,0.593245 q 0,-0.299723 -0.134359,-0.461987 -0.134359,-0.163298 -0.366903,-0.163298 -0.234611,0 -0.368969,0.163298 -0.133326,0.162264 -0.133326,0.461987 0,0.302824 0.136426,0.464054 0.136426,0.160197 0.365869,0.160197 0.229444,0 0.364836,-0.160197 0.136426,-0.16123 0.136426,-0.464054 z" />
    <path
       inkscape:connector-curvature="0"
       id="path991"
       style="font-style:normal;font-variant:normal;font-weight:normal;font-stretch:normal;font-size:2.11667px;font-family:sans-serif;-inkscape-font-specification:'sans-serif, Normal';font-variant-ligatures:normal;font-variant-caps:normal;font-variant-numeric:normal;font-feature-settings:normal;text-align:start;writing-mode:lr-tb;text-anchor:start;fill:#ffffff;fill-opacity:1;stroke-width:0.264583px"
       d="m -57.771418,60.915191 q 0,0.167432 -0.03721,0.292489 -0.03617,0.124023 -0.119889,0.206705 -0.07958,0.07855 -0.186035,0.114722 -0.106454,0.03617 -0.248047,0.03617 -0.144694,0 -0.252181,-0.03824 -0.107487,-0.03824 -0.180868,-0.112655 -0.08372,-0.08475 -0.120923,-0.204638 -0.03617,-0.119889 -0.03617,-0.294556 v -0.920874 h 0.204639 v 0.931209 q 0,0.125057 0.01654,0.197404 0.01757,0.07235 0.05788,0.131259 0.04547,0.06718 0.122989,0.101285 0.07855,0.03411 0.188103,0.03411 0.110587,0 0.188102,-0.03307 0.07752,-0.03411 0.124023,-0.102319 0.04031,-0.05891 0.05684,-0.134359 0.01757,-0.07648 0.01757,-0.189136 V 59.99432 h 0.204639 z" />
    <path
       inkscape:connector-curvature="0"
       id="path993"
       style="font-style:normal;font-variant:normal;font-weight:normal;font-stretch:normal;font-size:2.11667px;font-family:sans-serif;-inkscape-font-specification:'sans-serif, Normal';font-variant-ligatures:normal;font-variant-caps:normal;font-variant-numeric:normal;font-feature-settings:normal;text-align:start;writing-mode:lr-tb;text-anchor:start;fill:#ffffff;fill-opacity:1;stroke-width:0.264583px"
       d="m -56.282103,60.176218 h -0.549837 v 1.357023 h -0.204639 v -1.357023 h -0.549837 v -0.181901 h 1.304313 z" />
  </g>
  <path
     id="path992-1"
     d="m 4.397063,53.861168 0.0027,-5.291577"
     style="fill:none;fill-rule:evenodd;stroke:#000000;stroke-width:0.264583px;stroke-linecap:butt;stroke-linejoin:miter;stroke-opacity:1" />
  <path
     style="fill:none;fill-rule:evenodd;stroke:#000000;stroke-width:0.264583px;stroke-linecap:butt;stroke-linejoin:miter;stroke-opacity:1"
     d="m 13.265652,53.861168 0.0027,-5.291577"
     id="path992-1-2" />
  <path
     style="fill:none;fill-rule:evenodd;stroke:#000000;stroke-width:0.264583px;stroke-linecap:butt;stroke-linejoin:miter;stroke-opacity:1"
     d="m 22.134242,53.861168 0.0027,-5.291577"
     id="path992-1-8" />
  <path
     style="fill:none;fill-rule:evenodd;stroke:#000000;stroke-width:0.264583px;stroke-linecap:butt;stroke-linejoin:miter;stroke-opacity:1"
     d="m 31.002831,53.861168 0.0027,-5.291577"
     id="path992-1-82" />
  <g
     transform="translate(-0.14344045,-1.413205)"
     id="g1039">
    <path
       inkscape:connector-curvature="0"
       id="rect5282-9-4-2"
       d="m 11.09344,86.400618 h 5.291668 v 8.898 H 11.09344 Z"
       style="fill:#020202;fill-opacity:1;fill-rule:nonzero;stroke:#000000;stroke-width:2.2;stroke-linecap:butt;stroke-linejoin:round;stroke-miterlimit:8.2;stroke-dasharray:none;stroke-dashoffset:0;stroke-opacity:1;paint-order:normal" />
    <g
       aria-label="POS"
       id="text1059-6"
       style="font-size:2.82223px;line-height:125%;font-family:sans-serif;-inkscape-font-specification:'sans-serif, Normal';letter-spacing:0px;word-spacing:0px;writing-mode:lr-tb;fill:none;stroke:#000000;stroke-width:0.264583px;stroke-linecap:butt;stroke-linejoin:miter;stroke-opacity:1"
       transform="translate(8.6705235,1.4132053)">
      <path
         d="m 4.0445222,85.575172 q 0,0.102319 -0.036174,0.190169 -0.03514,0.08682 -0.099219,0.150896 -0.079582,0.07958 -0.1881025,0.119889 -0.1085207,0.03927 -0.2738855,0.03927 h -0.204639 v 0.57361 h -0.204639 v -1.538927 h 0.4175462 q 0.1384931,0 0.2346114,0.02377 0.096118,0.02274 0.1705325,0.07235 0.08785,0.05891 0.1353924,0.146761 0.048576,0.08785 0.048576,0.222209 z m -0.2129073,0.0052 q 0,-0.07958 -0.027905,-0.138493 -0.027905,-0.05891 -0.08475,-0.09612 -0.049609,-0.03204 -0.1136883,-0.04547 -0.063045,-0.01447 -0.1601972,-0.01447 H 3.2425027 v 0.614951 h 0.1725996 q 0.1240236,0 0.2015384,-0.0217 0.077515,-0.02274 0.1260906,-0.07131 0.048576,-0.04961 0.068213,-0.104386 0.020671,-0.05478 0.020671,-0.122991 z"
         style="font-style:normal;font-variant:normal;font-weight:normal;font-stretch:normal;font-size:2.11667px;font-family:sans-serif;-inkscape-font-specification:'sans-serif, Normal';font-variant-ligatures:normal;font-variant-caps:normal;font-variant-numeric:normal;font-variant-east-asian:normal;fill:#ffffff;fill-opacity:1;stroke:none;stroke-width:0.264583px"
         id="path1066-3" />
      <path
         d="m 5.4625257,85.286817 q 0.094051,0.103353 0.1436607,0.253215 0.050643,0.149862 0.050643,0.340031 0,0.19017 -0.051677,0.341065 -0.050643,0.149862 -0.1426272,0.250115 -0.095085,0.104386 -0.2253096,0.157096 -0.1291913,0.05271 -0.2955896,0.05271 -0.1622643,0 -0.2955897,-0.05374 -0.1322919,-0.05374 -0.2253096,-0.156063 -0.093018,-0.10232 -0.1436607,-0.251148 -0.049609,-0.148829 -0.049609,-0.340032 0,-0.188102 0.049609,-0.336931 0.049609,-0.149862 0.1446943,-0.256315 0.090951,-0.101286 0.2253095,-0.15503 0.1353925,-0.05374 0.2945562,-0.05374 0.1653648,0 0.2966231,0.05478 0.1322919,0.05374 0.2242761,0.153996 z m -0.018604,0.593246 q 0,-0.299724 -0.1343589,-0.461988 -0.1343589,-0.163298 -0.3669032,-0.163298 -0.2346114,0 -0.3689703,0.163298 -0.1333254,0.162264 -0.1333254,0.461988 0,0.302825 0.136426,0.464055 0.136426,0.160197 0.3658697,0.160197 0.2294437,0 0.3648362,-0.160197 0.1364259,-0.16123 0.1364259,-0.464055 z"
         style="font-style:normal;font-variant:normal;font-weight:normal;font-stretch:normal;font-size:2.11667px;font-family:sans-serif;-inkscape-font-specification:'sans-serif, Normal';font-variant-ligatures:normal;font-variant-caps:normal;font-variant-numeric:normal;font-variant-east-asian:normal;fill:#ffffff;fill-opacity:1;stroke:none;stroke-width:0.264583px"
         id="path1068-6" />
      <path
         d="m 7.0996375,86.209759 q 0,0.08992 -0.042375,0.177768 -0.041341,0.08785 -0.1167889,0.148828 -0.082682,0.06615 -0.1932702,0.103353 -0.1095542,0.03721 -0.2645837,0.03721 -0.1663984,0 -0.2997238,-0.03101 -0.1322919,-0.03101 -0.2697514,-0.09198 v -0.256316 h 0.014469 q 0.116789,0.09715 0.2697514,0.149862 0.1529625,0.05271 0.2873214,0.05271 0.1901696,0 0.2955897,-0.07131 0.1064536,-0.07131 0.1064536,-0.19017 0,-0.102319 -0.050643,-0.150895 -0.049609,-0.04858 -0.1519289,-0.07545 -0.077515,-0.02067 -0.1684655,-0.03411 -0.089917,-0.01344 -0.1912031,-0.03411 -0.2046389,-0.04341 -0.3038578,-0.147795 -0.098185,-0.10542 -0.098185,-0.273885 0,-0.19327 0.1632978,-0.31626 0.1632977,-0.124024 0.4144456,-0.124024 0.1622642,0 0.2976567,0.03101 0.1353924,0.03101 0.239779,0.07648 v 0.241846 h -0.014469 q -0.08785,-0.07441 -0.2315108,-0.12299 -0.1426272,-0.04961 -0.292489,-0.04961 -0.1643314,0 -0.2645838,0.06821 -0.099219,0.06821 -0.099219,0.1757 0,0.09612 0.049609,0.150895 0.049609,0.05478 0.1746666,0.08372 0.066146,0.01447 0.1881025,0.03514 0.1219565,0.02067 0.206706,0.04237 0.171566,0.04548 0.2583826,0.137459 0.086817,0.09198 0.086817,0.257349 z"
         style="font-style:normal;font-variant:normal;font-weight:normal;font-stretch:normal;font-size:2.11667px;font-family:sans-serif;-inkscape-font-specification:'sans-serif, Normal';font-variant-ligatures:normal;font-variant-caps:normal;font-variant-numeric:normal;font-variant-east-asian:normal;fill:#ffffff;fill-opacity:1;stroke:none;stroke-width:0.264583px"
         id="path1070-1" />
    </g>
  </g>
  <path
     style="fill:#020202;fill-opacity:1;fill-rule:nonzero;stroke:#000000;stroke-width:2.2;stroke-linecap:butt;stroke-linejoin:round;stroke-miterlimit:8.2;stroke-dasharray:none;stroke-dashoffset:0;stroke-opacity:1;paint-order:normal"
     d="m 19.477083,84.987413 h 5.291668 v 8.898 h -5.291668 z"
     id="rect5282-9-4-7"
     inkscape:connector-curvature="0" />
  <g
     style="font-style:normal;font-variant:normal;font-weight:normal;font-stretch:normal;font-size:1.41111px;line-height:125%;font-family:sans-serif;-inkscape-font-specification:'sans-serif, Normal';font-variant-ligatures:normal;font-variant-position:normal;font-variant-caps:normal;font-variant-numeric:normal;font-variant-alternates:normal;font-variant-east-asian:normal;font-feature-settings:normal;font-variation-settings:normal;text-indent:0;text-align:start;text-decoration:none;text-decoration-line:none;text-decoration-style:solid;text-decoration-color:#000000;letter-spacing:0px;word-spacing:0px;text-transform:none;writing-mode:lr-tb;direction:ltr;text-orientation:mixed;dominant-baseline:auto;baseline-shift:baseline;text-anchor:start;white-space:normal;shape-padding:0;shape-margin:0;opacity:1;vector-effect:none;fill:#000000;fill-opacity:1;stroke:none;stroke-width:0.264583px;stroke-linecap:butt;stroke-linejoin:miter;stroke-miterlimit:4;stroke-dasharray:none;stroke-dashoffset:0;stroke-opacity:1;stop-color:#000000;stop-opacity:1"
     id="text1043"
     aria-label="VO">
    <path
       id="path1088"
       style="font-style:normal;font-variant:normal;font-weight:normal;font-stretch:normal;font-size:2.11667px;font-family:sans-serif;-inkscape-font-specification:'sans-serif, Normal';font-variant-ligatures:normal;font-variant-caps:normal;font-variant-numeric:normal;font-variant-east-asian:normal;fill:#ffffff;fill-opacity:1;stroke-width:0.264583px"
       d="M 4.9777998,84.977797 4.4176264,86.516724 H 4.1447744 L 3.584601,84.977797 h 0.2191084 l 0.4826587,1.353925 0.4826586,-1.353925 z" />
    <path
       id="path1090"
       style="font-style:normal;font-variant:normal;font-weight:normal;font-stretch:normal;font-size:2.11667px;font-family:sans-serif;-inkscape-font-specification:'sans-serif, Normal';font-variant-ligatures:normal;font-variant-caps:normal;font-variant-numeric:normal;font-variant-east-asian:normal;fill:#ffffff;fill-opacity:1;stroke-width:0.264583px"
       d="m 6.3585962,85.154531 q 0.094051,0.103353 0.1436607,0.253215 0.050643,0.149862 0.050643,0.340031 0,0.19017 -0.051676,0.341065 -0.050643,0.149862 -0.1426271,0.250114 -0.095085,0.104387 -0.2253096,0.157097 -0.1291913,0.05271 -0.2955897,0.05271 -0.1622642,0 -0.2955896,-0.05374 Q 5.4098154,86.441276 5.3167977,86.338956 5.22378,86.236637 5.173137,86.087809 5.1235275,85.93898 5.1235275,85.747777 q 0,-0.188102 0.049609,-0.336931 0.04961,-0.149862 0.1446942,-0.256315 0.090951,-0.101286 0.2253096,-0.15503 0.1353925,-0.05374 0.2945561,-0.05374 0.1653649,0 0.2966232,0.05478 0.1322919,0.05374 0.2242761,0.153996 z m -0.018604,0.593246 q 0,-0.299724 -0.1343589,-0.461988 -0.1343589,-0.163298 -0.3669032,-0.163298 -0.2346114,0 -0.3689703,0.163298 -0.1333254,0.162264 -0.1333254,0.461988 0,0.302825 0.136426,0.464055 0.136426,0.160197 0.3658697,0.160197 0.2294437,0 0.3648361,-0.160197 0.136426,-0.16123 0.136426,-0.464055 z" />
  </g>
  <g
     inkscape:transform-center-y="-0.63903602"
     inkscape:transform-center-x="7.5619263"
     style="font-style:normal;font-variant:normal;font-weight:normal;font-stretch:normal;font-size:1.41111px;line-height:125%;font-family:sans-serif;-inkscape-font-specification:'sans-serif, Normal';font-variant-ligatures:normal;font-variant-position:normal;font-variant-caps:normal;font-variant-numeric:normal;font-variant-alternates:normal;font-variant-east-asian:normal;font-feature-settings:normal;font-variation-settings:normal;text-indent:0;text-align:start;text-decoration:none;text-decoration-line:none;text-decoration-style:solid;text-decoration-color:#000000;letter-spacing:0px;word-spacing:0px;text-transform:none;writing-mode:lr-tb;direction:ltr;text-orientation:mixed;dominant-baseline:auto;baseline-shift:baseline;text-anchor:start;white-space:normal;shape-padding:0;shape-margin:0;opacity:1;vector-effect:none;fill:#000000;fill-opacity:1;stroke:none;stroke-width:0.264583px;stroke-linecap:butt;stroke-linejoin:miter;stroke-miterlimit:4;stroke-dasharray:none;stroke-dashoffset:0;stroke-opacity:1;stop-color:#000000;stop-opacity:1"
     id="text1043-7"
     aria-label="CRV">
    <path
       id="path1081"
       style="font-style:normal;font-variant:normal;font-weight:normal;font-stretch:normal;font-size:2.11667px;font-family:sans-serif;-inkscape-font-specification:'sans-serif, Normal';font-variant-ligatures:normal;font-variant-caps:normal;font-variant-numeric:normal;font-variant-east-asian:normal;fill:#ffffff;fill-opacity:1;stroke-width:0.264583px"
       d="m 21.272839,86.400967 q -0.05684,0.02481 -0.103353,0.04651 -0.04548,0.0217 -0.11989,0.04548 -0.06305,0.01964 -0.137459,0.03307 -0.07338,0.01447 -0.162264,0.01447 -0.167432,0 -0.304892,-0.04651 -0.136426,-0.04754 -0.237712,-0.147795 -0.09922,-0.09819 -0.155029,-0.249081 -0.05581,-0.151929 -0.05581,-0.352433 0,-0.19017 0.05374,-0.340032 0.05374,-0.149862 0.155029,-0.253215 0.09819,-0.100252 0.236679,-0.152962 0.139526,-0.05271 0.309025,-0.05271 0.124024,0 0.247014,0.02997 0.124023,0.02997 0.274919,0.10542 v 0.24288 h -0.0155 q -0.127124,-0.106454 -0.252182,-0.15503 -0.125057,-0.04858 -0.267684,-0.04858 -0.116789,0 -0.21084,0.03824 -0.09302,0.03721 -0.166398,0.116789 -0.07131,0.07752 -0.111622,0.196371 -0.03927,0.117822 -0.03927,0.272852 0,0.162264 0.04341,0.279053 0.04444,0.116789 0.113689,0.190169 0.07235,0.07648 0.168465,0.113689 0.09715,0.03617 0.204639,0.03617 0.147795,0 0.276986,-0.05064 0.129192,-0.05064 0.241846,-0.151929 h 0.01447 z" />
    <path
       id="path1083"
       style="font-style:normal;font-variant:normal;font-weight:normal;font-stretch:normal;font-size:2.11667px;font-family:sans-serif;-inkscape-font-specification:'sans-serif, Normal';font-variant-ligatures:normal;font-variant-caps:normal;font-variant-numeric:normal;font-variant-east-asian:normal;fill:#ffffff;fill-opacity:1;stroke-width:0.264583px"
       d="m 22.837604,86.512589 h -0.265618 l -0.514698,-0.61185 h -0.288355 v 0.61185 h -0.204639 v -1.538927 h 0.430982 q 0.139527,0 0.232545,0.0186 0.09302,0.01757 0.167432,0.06408 0.08372,0.05271 0.130224,0.133326 0.04754,0.07958 0.04754,0.202572 0,0.166398 -0.08372,0.279053 -0.08372,0.111621 -0.230477,0.168465 z m -0.478525,-1.105878 q 0,-0.06615 -0.02377,-0.116789 -0.02274,-0.05168 -0.07648,-0.08682 -0.04444,-0.02997 -0.10542,-0.04134 -0.06098,-0.0124 -0.143661,-0.0124 h -0.240813 v 0.580844 h 0.206706 q 0.09715,0 0.169499,-0.01654 0.07235,-0.01757 0.12299,-0.06408 0.04651,-0.04341 0.06821,-0.09922 0.02274,-0.05684 0.02274,-0.143661 z" />
    <path
       id="path1085"
       style="font-style:normal;font-variant:normal;font-weight:normal;font-stretch:normal;font-size:2.11667px;font-family:sans-serif;-inkscape-font-specification:'sans-serif, Normal';font-variant-ligatures:normal;font-variant-caps:normal;font-variant-numeric:normal;font-variant-east-asian:normal;fill:#ffffff;fill-opacity:1;stroke-width:0.264583px"
       d="m 24.249406,84.973662 -0.560174,1.538927 H 23.41638 l -0.560173,-1.538927 h 0.219108 l 0.482659,1.353925 0.482659,-1.353925 z" />
  </g>
  <g
     style="font-style:normal;font-variant:normal;font-weight:normal;font-stretch:normal;font-size:5.33333px;line-height:125%;font-family:sans-serif;-inkscape-font-specification:'sans-serif, Normal';font-variant-ligatures:normal;font-variant-position:normal;font-variant-caps:normal;font-variant-numeric:normal;font-variant-alternates:normal;font-variant-east-asian:normal;font-feature-settings:normal;font-variation-settings:normal;text-indent:0;text-align:start;text-decoration:none;text-decoration-line:none;text-decoration-style:solid;text-decoration-color:#000000;letter-spacing:0px;word-spacing:0px;text-transform:none;writing-mode:lr-tb;direction:ltr;text-orientation:mixed;dominant-baseline:auto;baseline-shift:baseline;text-anchor:start;white-space:normal;shape-padding:0;shape-margin:0;inline-size:0;opacity:1;vector-effect:none;fill:#000000;fill-opacity:1;stroke:none;stroke-width:0.999999px;stroke-linecap:butt;stroke-linejoin:miter;stroke-miterlimit:4;stroke-dasharray:none;stroke-dashoffset:0;stroke-opacity:1;stop-color:#000000;stop-opacity:1"
     id="text1095"
     transform="matrix(0.26458332,0,0,0.26458332,-1.5874999,-0.7439629)"
     aria-label="TUNE">
    <path
       id="path1136"
       d="m 21.199592,274.53624 h -1.385416 v 3.41927 h -0.515625 v -3.41927 h -1.385415 v -0.45834 h 3.286456 z" />
    <path
       id="path1138"
       d="m 24.644902,276.39821 q 0,0.42188 -0.09375,0.73698 -0.09114,0.3125 -0.302083,0.52084 -0.200521,0.19791 -0.46875,0.28906 -0.268229,0.0911 -0.624999,0.0911 -0.364583,0 -0.635416,-0.0963 -0.270834,-0.0964 -0.455729,-0.28385 -0.210938,-0.21355 -0.304688,-0.51563 -0.09115,-0.30208 -0.09115,-0.74219 v -2.32031 h 0.515624 v 2.34636 q 0,0.3151 0.04167,0.49739 0.04427,0.18229 0.145833,0.33073 0.114583,0.16927 0.309896,0.25521 0.197916,0.0859 0.473958,0.0859 0.278645,0 0.473958,-0.0833 0.195312,-0.0859 0.3125,-0.25781 0.101562,-0.14844 0.143229,-0.33854 0.04427,-0.19271 0.04427,-0.47656 v -2.35938 h 0.515624 z" />
    <path
       id="path1140"
       d="m 28.590212,277.95551 h -0.63802 l -1.838541,-3.46875 v 3.46875 h -0.48177 v -3.87761 h 0.799478 l 1.677083,3.16667 v -3.16667 h 0.48177 z" />
    <path
       id="path1142"
       d="m 32.176148,277.95551 h -2.554686 v -3.87761 h 2.554686 v 0.45834 h -2.039061 v 1.0625 h 2.039061 v 0.45833 h -2.039061 v 1.4401 h 2.039061 z" />
  </g>
  <g
     style="font-style:normal;font-variant:normal;font-weight:normal;font-stretch:normal;font-size:5.33333px;line-height:125%;font-family:sans-serif;-inkscape-font-specification:'sans-serif, Normal';font-variant-ligatures:normal;font-variant-position:normal;font-variant-caps:normal;font-variant-numeric:normal;font-variant-alternates:normal;font-variant-east-asian:normal;font-feature-settings:normal;font-variation-settings:normal;text-indent:0;text-align:start;text-decoration:none;text-decoration-line:none;text-decoration-style:solid;text-decoration-color:#000000;letter-spacing:0px;word-spacing:0px;text-transform:none;writing-mode:lr-tb;direction:ltr;text-orientation:mixed;dominant-baseline:auto;baseline-shift:baseline;text-anchor:start;white-space:normal;shape-padding:0;shape-margin:0;inline-size:0;opacity:1;vector-effect:none;fill:#000000;fill-opacity:1;stroke:none;stroke-width:0.999999px;stroke-linecap:butt;stroke-linejoin:miter;stroke-miterlimit:4;stroke-dasharray:none;stroke-dashoffset:0;stroke-opacity:1;stop-color:#000000;stop-opacity:1"
     id="text1099"
     transform="matrix(0.26458332,0,0,0.26458332,-1.0625108,-2.2273079)"
     aria-label="POS">
    <path
       id="path1129"
       d="m 52.062375,280.93685 q 0,0.25781 -0.09115,0.47917 -0.08854,0.21875 -0.25,0.38021 -0.200521,0.20052 -0.473958,0.30208 -0.273437,0.099 -0.690104,0.099 h -0.515624 v 1.44531 h -0.515625 v -3.8776 h 1.052083 q 0.348958,0 0.591145,0.0599 0.242188,0.0573 0.429687,0.18229 0.221354,0.14844 0.341146,0.3698 0.122396,0.22135 0.122396,0.55989 z m -0.536458,0.013 q 0,-0.20052 -0.07031,-0.34896 -0.07031,-0.14843 -0.213541,-0.24218 -0.125,-0.0807 -0.286458,-0.11459 -0.158854,-0.0365 -0.403646,-0.0365 h -0.510416 v 1.54948 h 0.434895 q 0.3125,0 0.507812,-0.0547 0.195313,-0.0573 0.317709,-0.17969 0.122395,-0.125 0.171875,-0.26302 0.05208,-0.13802 0.05208,-0.3099 z" />
    <path
       id="path1131"
       d="m 55.635289,280.21029 q 0.236979,0.26042 0.361979,0.63802 0.127604,0.3776 0.127604,0.85677 0,0.47917 -0.130208,0.85937 -0.127604,0.37761 -0.359375,0.63021 -0.239583,0.26302 -0.567708,0.39583 -0.32552,0.13282 -0.744791,0.13282 -0.408854,0 -0.744791,-0.13542 -0.333333,-0.13542 -0.567708,-0.39323 -0.234375,-0.25781 -0.361979,-0.63281 -0.125,-0.375 -0.125,-0.85677 0,-0.47396 0.125,-0.84896 0.125,-0.3776 0.364583,-0.64583 0.229167,-0.25521 0.567708,-0.39063 0.341146,-0.13541 0.742187,-0.13541 0.416667,0 0.747396,0.13802 0.333333,0.13541 0.565103,0.38802 z m -0.04687,1.49479 q 0,-0.75521 -0.338541,-1.16406 -0.338542,-0.41146 -0.924479,-0.41146 -0.591145,0 -0.929687,0.41146 -0.335937,0.40885 -0.335937,1.16406 0,0.76302 0.34375,1.16927 0.34375,0.40365 0.921874,0.40365 0.578125,0 0.919271,-0.40365 0.343749,-0.40625 0.343749,-1.16927 z" />
    <path
       id="path1133"
       d="m 59.760287,282.53581 q 0,0.22656 -0.106771,0.44791 -0.104166,0.22136 -0.294271,0.375 -0.208333,0.16667 -0.486978,0.26042 -0.276042,0.0937 -0.666667,0.0937 -0.41927,0 -0.755208,-0.0781 -0.333333,-0.0781 -0.679687,-0.23178 v -0.64583 h 0.03646 q 0.29427,0.24479 0.679687,0.37761 0.385416,0.13281 0.723958,0.13281 0.479166,0 0.744791,-0.17969 0.268229,-0.17969 0.268229,-0.47917 0,-0.25781 -0.127604,-0.3802 -0.125,-0.1224 -0.382812,-0.19011 -0.195313,-0.0521 -0.424479,-0.0859 -0.226563,-0.0339 -0.481771,-0.0859 -0.515625,-0.10938 -0.765624,-0.3724 -0.247396,-0.26562 -0.247396,-0.6901 0,-0.48698 0.411458,-0.79688 0.411458,-0.3125 1.04427,-0.3125 0.408854,0 0.75,0.0781 0.341145,0.0781 0.604166,0.19271 v 0.60937 h -0.03646 q -0.221354,-0.1875 -0.583333,-0.30989 -0.359375,-0.125 -0.736979,-0.125 -0.414062,0 -0.666666,0.17187 -0.25,0.17188 -0.25,0.44271 0,0.24219 0.125,0.38021 0.125,0.13802 0.440104,0.21093 0.166666,0.0365 0.473958,0.0885 0.307291,0.0521 0.520833,0.10677 0.432291,0.11458 0.651041,0.34635 0.21875,0.23177 0.21875,0.64844 z" />
  </g>
  <g
     style="font-style:normal;font-variant:normal;font-weight:normal;font-stretch:normal;font-size:5.33333px;line-height:125%;font-family:sans-serif;-inkscape-font-specification:'sans-serif, Normal';font-variant-ligatures:normal;font-variant-position:normal;font-variant-caps:normal;font-variant-numeric:normal;font-variant-alternates:normal;font-variant-east-asian:normal;font-feature-settings:normal;font-variation-settings:normal;text-indent:0;text-align:start;text-decoration:none;text-decoration-line:none;text-decoration-style:solid;text-decoration-color:#000000;letter-spacing:0px;word-spacing:0px;text-transform:none;writing-mode:lr-tb;direction:ltr;text-orientation:mixed;dominant-baseline:auto;baseline-shift:baseline;text-anchor:start;white-space:normal;shape-padding:0;shape-margin:0;inline-size:0;opacity:1;vector-effect:none;fill:#000000;fill-opacity:1;stroke:none;stroke-width:0.999999px;stroke-linecap:butt;stroke-linejoin:miter;stroke-miterlimit:4;stroke-dasharray:none;stroke-dashoffset:0;stroke-opacity:1;stop-color:#000000;stop-opacity:1"
     id="text1103"
     transform="matrix(0.26458332,0,0,0.26458332,-1.3318712,-3.1076185)"
     aria-label="CURVE">
    <path
       id="path1118"
       d="m 81.577169,286.67807 q -0.143229,0.0625 -0.260416,0.11719 -0.114584,0.0547 -0.302083,0.11458 -0.158855,0.0495 -0.346354,0.0833 -0.184896,0.0365 -0.408854,0.0365 -0.421875,0 -0.768229,-0.11718 -0.34375,-0.1198 -0.598958,-0.3724 -0.25,-0.2474 -0.390625,-0.6276 -0.140625,-0.38282 -0.140625,-0.88802 0,-0.47917 0.135417,-0.85677 0.135416,-0.37761 0.390625,-0.63803 0.247395,-0.2526 0.596353,-0.38541 0.351563,-0.13281 0.778646,-0.13281 0.3125,0 0.622395,0.0755 0.3125,0.0755 0.692708,0.26562 v 0.61198 h -0.03906 q -0.320313,-0.26823 -0.635417,-0.39062 -0.315104,-0.1224 -0.674478,-0.1224 -0.294271,0 -0.53125,0.0964 -0.234375,0.0937 -0.419271,0.29427 -0.179687,0.19532 -0.281249,0.4948 -0.09896,0.29687 -0.09896,0.6875 0,0.40885 0.109375,0.70312 0.111979,0.29427 0.286458,0.47917 0.182292,0.1927 0.424479,0.28645 0.244792,0.0911 0.515625,0.0911 0.372396,0 0.697916,-0.1276 0.325521,-0.12761 0.609375,-0.38282 h 0.03646 z" />
    <path
       id="path1120"
       d="m 85.230813,285.40203 q 0,0.42187 -0.09375,0.73698 -0.09115,0.3125 -0.302083,0.52083 -0.200521,0.19792 -0.46875,0.28906 -0.268229,0.0912 -0.625,0.0912 -0.364583,0 -0.635416,-0.0964 -0.270833,-0.0964 -0.455729,-0.28386 -0.210937,-0.21354 -0.304687,-0.51562 -0.09115,-0.30209 -0.09115,-0.74219 v -2.32031 h 0.515625 v 2.34635 q 0,0.3151 0.04167,0.4974 0.04427,0.18229 0.145834,0.33073 0.114583,0.16927 0.309895,0.2552 0.197917,0.0859 0.473958,0.0859 0.278646,0 0.473958,-0.0833 0.195313,-0.0859 0.3125,-0.25781 0.101563,-0.14844 0.143229,-0.33855 0.04427,-0.1927 0.04427,-0.47656 v -2.35937 h 0.515625 z" />
    <path
       id="path1122"
       d="m 89.426123,286.95932 h -0.66927 l -1.296875,-1.54167 h -0.726562 v 1.54167 h -0.515624 v -3.8776 h 1.085936 q 0.351563,0 0.585938,0.0469 0.234374,0.0443 0.421874,0.16146 0.210938,0.13281 0.328125,0.33594 0.119792,0.20052 0.119792,0.51042 0,0.41927 -0.210938,0.70312 -0.210937,0.28125 -0.580728,0.42448 z m -1.205728,-2.78646 q 0,-0.16666 -0.0599,-0.29427 -0.05729,-0.13021 -0.192708,-0.21875 -0.11198,-0.0755 -0.265625,-0.10416 -0.153646,-0.0312 -0.361979,-0.0312 h -0.606771 v 1.46354 h 0.520833 q 0.244792,0 0.427083,-0.0417 0.182292,-0.0443 0.309896,-0.16146 0.117187,-0.10937 0.171875,-0.25 0.05729,-0.14323 0.05729,-0.36198 z" />
    <path
       id="path1124"
       d="m 92.983413,283.08172 -1.411458,3.8776 h -0.6875 l -1.411457,-3.8776 h 0.552083 l 1.216145,3.41145 1.216145,-3.41145 z" />
    <path
       id="path1126"
       d="m 96.12664,286.95932 h -2.554686 v -3.8776 h 2.554686 v 0.45833 h -2.039062 v 1.0625 h 2.039062 v 0.45833 h -2.039062 v 1.44011 h 2.039062 z" />
  </g>
  <g
     style="font-style:normal;font-variant:normal;font-weight:normal;font-stretch:normal;font-size:5.33333px;line-height:125%;font-family:sans-serif;-inkscape-font-specification:'sans-serif, Normal';font-variant-ligatures:normal;font-variant-position:normal;font-variant-caps:normal;font-variant-numeric:normal;font-variant-alternates:normal;font-variant-east-asian:normal;font-feature-settings:normal;font-variation-settings:normal;text-indent:0;text-align:start;text-decoration:none;text-decoration-line:none;text-decoration-style:solid;text-decoration-color:#000000;letter-spacing:0px;word-spacing:0px;text-transform:none;writing-mode:lr-tb;direction:ltr;text-orientation:mixed;dominant-baseline:auto;baseline-shift:baseline;text-anchor:start;white-space:normal;shape-padding:0;shape-margin:0;inline-size:0;opacity:1;vector-effect:none;fill:#000000;fill-opacity:1;stroke:none;stroke-width:0.999999px;stroke-linecap:butt;stroke-linejoin:miter;stroke-miterlimit:4;stroke-dasharray:none;stroke-dashoffset:0;stroke-opacity:1;stop-color:#000000;stop-opacity:1"
     id="text1107"
     transform="matrix(0.26458332,0,0,0.26458332,-0.52916665,-3.1749997)"
     aria-label="GAIN">
    <path
       id="path1109"
       d="m 112.64292,286.92753 q -0.31771,0.14583 -0.69532,0.25521 -0.375,0.10677 -0.72656,0.10677 -0.45312,0 -0.83073,-0.125 -0.3776,-0.125 -0.64322,-0.375 -0.26823,-0.2526 -0.41407,-0.63021 -0.14583,-0.38021 -0.14583,-0.88802 0,-0.92968 0.54167,-1.46614 0.54427,-0.53907 1.49218,-0.53907 0.33073,0 0.67448,0.0807 0.34636,0.0781 0.74479,0.26823 v 0.61198 h -0.0469 q -0.0807,-0.0625 -0.23438,-0.16406 -0.15364,-0.10156 -0.30208,-0.16927 -0.17969,-0.0807 -0.40885,-0.13281 -0.22657,-0.0547 -0.51563,-0.0547 -0.65104,0 -1.03125,0.41927 -0.3776,0.41667 -0.3776,1.13021 0,0.7526 0.39583,1.17187 0.39583,0.41667 1.07813,0.41667 0.24999,0 0.49739,-0.0495 0.25,-0.0495 0.4375,-0.12761 v -0.95052 h -1.03906 v -0.45312 h 1.54948 z" />
    <path
       id="path1111"
       d="m 116.60125,287.21399 h -0.54948 l -0.38021,-1.08073 h -1.67708 l -0.38021,1.08073 h -0.52344 l 1.41146,-3.8776 h 0.6875 z m -1.08854,-1.52344 -0.67969,-1.90364 -0.68229,1.90364 z" />
    <path
       id="path1113"
       d="m 118.55698,287.21399 h -1.53125 v -0.39583 h 0.50781 v -3.08594 h -0.50781 v -0.39583 h 1.53125 v 0.39583 h -0.50782 v 3.08594 h 0.50782 z" />
    <path
       id="path1115"
       d="m 122.39812,287.21399 h -0.63802 l -1.83854,-3.46875 v 3.46875 h -0.48177 v -3.8776 h 0.79948 l 1.67708,3.16666 v -3.16666 h 0.48177 z" />
  </g>
</svg>
