<?xml version="1.0" encoding="UTF-8" standalone="no"?>
<svg
   xmlns:osb="http://www.openswatchbook.org/uri/2009/osb"
   xmlns:dc="http://purl.org/dc/elements/1.1/"
   xmlns:cc="http://creativecommons.org/ns#"
   xmlns:rdf="http://www.w3.org/1999/02/22-rdf-syntax-ns#"
   xmlns:svg="http://www.w3.org/2000/svg"
   xmlns="http://www.w3.org/2000/svg"
   xmlns:sodipodi="http://sodipodi.sourceforge.net/DTD/sodipodi-0.dtd"
   xmlns:inkscape="http://www.inkscape.org/namespaces/inkscape"
   inkscape:version="1.0 (4035a4fb49, 2020-05-01)"
   sodipodi:docname="FREIN.svg"
   width="45"
   height="380"
   viewBox="0 0 11.90625 100.54166"
   version="1.1"
   id="svg12553">
  <sodipodi:namedview
     inkscape:current-layer="svg12553"
     inkscape:window-maximized="1"
     inkscape:window-y="-11"
     inkscape:window-x="-11"
     inkscape:cy="213.02832"
     inkscape:cx="-203.39741"
     inkscape:zoom="3.8183766"
     showgrid="false"
     id="namedview44"
     inkscape:window-height="2066"
     inkscape:window-width="3840"
     inkscape:pageshadow="2"
     inkscape:pageopacity="0"
     guidetolerance="10"
     gridtolerance="10"
     objecttolerance="10"
     borderopacity="1"
     bordercolor="#666666"
     pagecolor="#ffffff" />
  <defs
     id="defs12547">
    <linearGradient
       osb:paint="solid"
       id="linearGradient4708">
      <stop
         id="stop4706"
         offset="0"
         style="stop-color:#ececec;stop-opacity:1;" />
    </linearGradient>
    <filter
       id="filter4696"
       style="color-interpolation-filters:sRGB">
      <feColorMatrix
         id="feColorMatrix4692"
         result="colormatrix"
         values="0 0 0 0 1 0 0 0 0 0 0 0 0 0 0 1 0 0 0 0 0 "
         in="SourceGraphic" />
      <feBlend
         id="feBlend4694"
         result="fbSourceGraphic"
         mode="multiply"
         in2="BackgroundImage" />
      <feColorMatrix
         id="feColorMatrix4762"
         values="0 0 0 -1 0 0 0 0 -1 0 0 0 0 -1 0 0 0 0 1 0"
         in="fbSourceGraphic"
         result="fbSourceGraphicAlpha" />
      <feColorMatrix
         in="fbSourceGraphic"
         result="colormatrix"
         values="1 0 0 0 0 0 1 0 0 0 0 0 1 0 0 0 0 0 5 -1 "
         id="feColorMatrix4764" />
      <feComposite
         k4="0"
         k3="0"
         k1="0"
         result="composite"
         k2="0.3"
         operator="arithmetic"
         id="feComposite4766"
         in2="colormatrix" />
    </filter>
    <pattern
       id="EMFhbasepattern"
       patternUnits="userSpaceOnUse"
       width="6"
       height="6"
       x="0"
       y="0" />
  </defs>
  <metadata
     id="metadata12550">
    <rdf:RDF>
      <cc:Work
         rdf:about="">
        <dc:format>image/svg+xml</dc:format>
        <dc:type
           rdf:resource="http://purl.org/dc/dcmitype/StillImage" />
        <dc:title />
      </cc:Work>
    </rdf:RDF>
  </metadata>
  <g
     id="layer1"
     transform="matrix(0.10017048,0,0,1.0012215,-2.6856528,-161.56849)">
    <path
       id="path33453"
       d="M 26.616839,161.37987 H 145.85344 v 100.3961 H 26.616839 Z m 0,0"
       style="fill:#e6e6e6;fill-opacity:1;fill-rule:nonzero;stroke:none;stroke-width:0.322589" />
  </g>
  <path
     id="path884"
     style="opacity:0.0563565;fill:#000000;stroke-width:1"
     d="m 12.872981,80.273811 c -0.07601,4.830673 0.153601,9.930513 -0.630951,14.277739 -0.432937,1.97331 -1.478736,5.89054 -2.170117,4.684588 -0.2515086,1.069162 -1.8571814,4.792492 -1.5613649,2.295902 0.8967554,-1.900798 1.8744109,-4.22291 2.2974999,-7.384932 1.097663,-7.539896 1.271396,-15.974457 1.434788,-24.158609 0.04029,-2.084027 0.223293,3.720865 0.218292,1.023759 0.297824,1.12988 0.04561,5.04066 0.342149,4.467546 0.05597,1.596093 0.05799,3.197306 0.0697,4.794007 z M 11.922748,50.300396 c -0.35688,4.180282 -1.035907,8.508183 -0.577919,12.976999 0.357048,2.053227 -1.297701,-4.889562 -1.4505696,-1.070026 0.2698146,1.757692 1.6469396,2.620362 1.7590626,5.559665 0.193431,2.687569 -0.12493,5.848103 -0.421609,6.561692 -0.268374,1.413177 -0.441111,0.676669 -0.367222,2.39386 -0.196972,2.189135 -0.462707,5.430544 -0.669385,6.70175 -0.2271616,2.33191 0.272551,3.932564 -0.4509536,4.856154 -0.094641,1.118703 -0.5892683,-0.09872 -0.2493144,1.193167 -0.3730429,1.98194 -0.535489,3.661588 -0.1604597,5.707791 -0.5561517,0.922309 -0.3847247,7.843092 -0.5791998,2.851839 -0.037588,2.372123 -1.2399755,1.291869 -0.5861589,-1.069212 0.03932,-1.527781 0.1931041,-2.984771 -0.2914623,-1.70274 C 7.3085398,92.477943 7.7912964,98.078132 7.8379153,99.06353 6.991334,98.741963 7.8124517,104.2536 6.849355,101.19523 6.2957578,99.093295 7.5559141,99.283504 6.5344661,98.009156 5.5935892,95.715164 4.1738133,94.464839 3.5285299,91.608117 2.8566267,92.724024 2.1271213,89.852359 1.8361858,87.363153 1.3662442,84.195002 1.3127125,80.715113 0.61187012,77.858306 0.53469004,76.582564 0.89398136,76.667523 1.0131611,76.223682 c -0.00748,1.239636 0.6918408,2.575216 0.5708779,0.439058 0.5907923,-0.865051 -0.2357141,1.53439 0.4586697,1.559099 -0.5024312,0.383139 0.5100556,1.309039 0.1076299,2.033623 0.5898722,1.076234 -0.2633137,0.178167 0.2888076,2.07641 0.074989,2.662747 0.4835962,6.198383 0.748604,7.339082 0.438667,0.72103 0.187108,-4.2717 0.209236,-3.478173 0.182185,-1.180126 0.2205435,-4.001581 0.21763,-6.222591 0.1169815,-2.971634 0.8633712,-2.006439 0.6328455,0.752408 -0.2110325,1.18209 -0.5666479,4.134077 -0.2010673,4.757687 0.2699379,-2.488343 0.5380846,-3.857121 0.793536,-0.829239 -0.2694872,-2.572217 -0.4447978,-4.553808 0.2464997,-7.115071 0.3267243,-2.194205 0.4058033,-0.556631 0.056525,0.719013 -0.2522751,1.523148 0.019613,5.786212 0.1342007,2.521959 0.6270835,0.169942 1.8602156,-2.454873 1.2642215,0.925448 0.8932843,-0.832896 0.585273,4.083195 1.2328723,3.200174 0.184893,0.600248 0.9883419,1.113861 1.2952541,2.86725 0.088127,-1.141447 0.1002433,-1.985042 0.3002025,-0.594784 0.10403,-3.264819 -0.903245,-6.005178 -0.6188574,-9.604547 C 8.6375209,74.829373 8.8192732,74.436915 8.3966731,72.572149 8.4711445,69.82276 8.7504978,75.469163 8.8703047,72.188887 9.1562014,71.686693 8.3062049,68.928235 8.5232378,71.240945 8.234822,70.331827 7.8343839,67.069867 8.4574597,67.531831 c 0.013703,0.708962 0.3941516,3.74987 0.3160131,1.096806 C 8.5221887,66.72099 9.4986209,63.944389 9.4747009,63.811504 8.9700073,63.710047 8.7646085,62.706702 8.3835371,64.569639 8.359935,61.970865 9.4019993,61.474739 9.9711732,60.595182 10.366942,59.272643 10.253781,54.928001 10.198216,53.878686 9.4238128,53.989109 7.9895696,54.90215 8.5697826,51.866265 8.4375466,50.145849 8.3109767,48.837327 8.235884,47.518589 7.9377031,49.260465 8.107541,44.312336 7.9101503,43.995569 7.861399,41.30198 7.2269213,38.431112 7.5879647,36.280326 7.3310242,33.615678 7.2858079,30.732656 7.1987131,28.258646 7.3017916,26.949978 7.5590744,25.108974 7.8325286,23.703015 8.7427905,22.863023 6.9269993,20.395965 7.2775097,22.675866 7.5613378,20.892002 7.3817455,24.415512 7.0458349,23.167436 7.5959991,24.773513 6.4414582,29.434824 6.5778915,27.958546 6.2820257,27.162684 5.987082,30.955005 5.5285593,28.28188 5.0547938,27.642528 5.7690877,25.987226 5.1042345,27.388465 5.1293971,26.237687 4.6472492,27.022473 5.3082669,25.837605 5.1981359,25.151404 4.6182049,26.875895 5.0371355,24.457499 5.4076453,21.922487 4.6710115,24.782186 4.8257119,22.357328 4.4009285,21.597757 4.1590675,24.912605 4.1829422,21.993989 3.5858177,24.882916 3.7565135,19.983479 3.0067142,20.597192 2.9333285,18.998938 2.88374,17.347133 2.7882576,19.963636 2.3520676,21.21448 2.2586374,23.278185 2.0856988,24.293142 1.6696461,25.565435 2.1837634,21.587565 1.3939702,21.760343 1.0283958,20.821387 2.343752,22.02029 1.7014186,19.95821 0.94102691,19.602126 1.1153541,22.920198 1.1112284,23.684506 c 0.3663341,2.096151 0.2336681,3.142302 0.9935343,4.77699 0.1945054,3.491938 1.225503,-3.557103 1.7018408,-2.292856 -0.5443756,3.245563 -2.2094533,3.829638 -1.8285978,8.135105 0.1869842,1.38829 0.466678,3.738474 -0.3885022,3.841351 -0.2395415,1.667815 -0.4077531,2.600011 -0.4967004,3.551573 -1.05027971,1.392283 0.9043858,-0.474942 0.5769712,2.381494 0.3709481,1.588346 -0.596753,3.827962 -0.4900236,1.31052 -0.062653,1.055306 -0.86492636,3.78869 -0.068335,4.215391 0.7306732,0.917283 -0.02152,5.450091 -0.23438605,3.488216 C 0.351926,51.681382 1.5609455,53.229729 0.812052,51.631617 0.12189284,50.443229 -0.09897758,46.965133 -0.09808776,45.581871 c -0.10408221,-1.507638 0.22603833,-2.247934 0.60805523,-3.887244 0.73944393,-0.538415 -0.0113744,-2.40745 0.0665183,-1.642494 0.25414381,0.792545 -0.69153709,-0.04261 -0.0119979,-0.70839 0.58334873,0.13225 -0.12001169,-2.83123 -0.25735393,-3.930521 -0.36551115,0.653114 -0.23179766,-0.73975 -0.45947579,-1.60196 0.64850063,1.011379 0.18618971,-1.582592 -0.16152058,-0.875141 -0.53182732,0.188451 -0.0789437,0.464357 -0.003385,1.734931 -0.34501857,0.643988 -0.74498777,2.968645 -0.22635275,1.70082 -0.26458828,1.312452 -0.75008612,4.01698 -0.37058196,5.733864 0.20375452,0.639781 -0.0965397,3.801682 -0.22766476,0.613826 -0.3889876,-0.559053 0.00285,-0.954426 -0.3913756,-2.992568 -0.2459519,-3.610053 -0.2192253,-7.294799 -0.281021,-10.947551 0.1365166,-3.181522 0.4309258,-7.770229 0.91219106,-9.066969 C -0.44183884,16.73709 0.44949,14.577506 1.2216507,12.415285 2.219814,9.0925756 3.7047098,7.5826193 5.1689642,6.7296301 5.567388,3.6869457 7.5713477,3.7528615 8.1558829,6.5995094 8.7910991,9.1531501 9.4053385,11.108567 9.886578,13.614317 c 0.434234,1.55789 1.048105,4.520419 1.058969,6.000669 -0.641464,2.56563 -0.940843,5.957856 -0.829913,9.347348 0.100348,2.77265 0.426568,4.834556 0.324411,8.155832 0.145494,3.899993 0.413374,7.92906 0.188125,11.800556 -0.277044,0.972472 -0.7961908,3.914158 0.07131,2.946033 0.909217,-2.303181 0.419734,-6.309975 0.501908,-9.441825 -0.02722,-6.193541 -0.233557,-12.423155 -0.129875,-18.591306 0.19847,-4.168638 0.305407,4.057395 0.342196,5.593478 -0.04946,3.310793 0.18529,6.292682 0.231092,9.689678 0.07223,3.718737 0.324617,7.48724 0.277974,11.185616 z M 10.791806,18.326922 c -0.0418,1.107677 0.105859,0.01278 0,0 z m 0.06135,55.293712 c -0.207065,0.944414 0.207011,-0.201479 0,0 z M 9.6676911,48.275882 c -0.1353711,0.306159 0.023613,1.422272 0.030943,0.444548 z m -0.068326,2.205448 c -0.073831,-4.031865 -0.6772029,2.027309 0.055999,1.333996 -0.046495,-0.435734 -0.048428,-0.888372 -0.055999,-1.333996 z m -0.269272,32.721887 c -0.089384,0.878675 0.1277644,0.125897 0,0 z m -0.3635846,-13.2121 c -0.4114117,1.33042 0.2688842,1.179756 0,0 z m 0.020682,24.73321 c -0.3225438,1.429059 -0.2231917,4.062301 -0.010742,0.924438 0.0357,-0.252173 0.2036761,-0.781121 0.010742,-0.924438 z M 7.3239714,13.066748 c -0.2113,0.456661 0.2267009,0.452431 0,0 z m 1.2215102,85.090859 c -0.089395,0.878662 0.1277682,0.12592 0,0 z M 6.1504446,24.466124 c -0.1407688,0.946561 0.1421075,1.296256 0,0 z m 0.9878806,64.137191 c -0.2032334,0.820167 0.2087163,0.0094 0,0 z m -0.6135244,1.585536 c -0.9888611,-1.506691 0.7833385,4.078463 0,0 z M 4.7273989,14.960171 c -0.3560224,-1.328745 -0.9756908,3.927373 -0.041578,2.979918 1.0584066,-0.73757 0.3895728,-1.261154 0.041578,-2.979918 z m 1.4534866,67.419534 c -0.2073049,1.936905 0.2114775,2.046433 0,0 z m 0.024504,10.996166 c -0.089397,0.878662 0.1277652,0.12592 0,0 z M 4.9635984,20.077322 c -0.089383,0.87863 0.1277609,0.125914 0,0 z m 0.9400721,73.433932 c -0.4563191,1.821649 0.6481953,1.089487 0,0 z m 0.1735986,-0.490016 c -0.089384,0.878635 0.1277618,0.125911 0,0 z M 4.7884259,20.386698 c -0.15807,-0.522189 -0.5013178,0.985499 -0.1440056,1.355638 -0.058297,-0.378047 0.4153954,-1.291175 0.1440056,-1.355638 z M 4.5279545,18.314047 c -0.01451,0.308822 0.4047398,-0.190723 0,0 z m 1.0932841,72.795056 c -0.053995,-2.666699 -0.3092636,2.351537 -0.2534187,1.627165 0.4950463,-0.17843 0.3480665,0.409423 0.2534187,-1.627165 z m -0.077999,-2.260338 c -0.7270978,-0.122363 -0.050895,2.18969 -0.8613707,2.664976 -0.010172,0.709499 0.5714426,-2.160196 0.5127064,0.509326 0.4161508,-0.185996 -0.3475829,-1.957668 0.3581878,-2.802806 0.064674,0.03722 0.1739967,-0.89566 -0.0095,-0.371488 z M 3.5494162,12.406269 c -0.095398,2.073633 0.2276888,2.195048 0,0 z M 3.35367,12.927145 c -0.011971,1.978541 -0.5606186,0.700355 -0.4834831,0.227106 -0.2328371,2.758078 0.6094706,2.818201 0.567943,0.644482 L 3.3984843,13.18299 3.3536549,12.927158 Z m 1.1356481,77.888027 c -0.5769801,0.976231 0.5918096,0.224187 0,0 z m 0.044571,-2.987438 c -0.2314503,0.451096 0.1366279,0.48874 0,0 z M 3.7732589,80.984459 c -0.2237893,0.234357 0.2210423,0.738561 0,0 z M 2.6361073,15.125574 c 0.017529,1.796967 -0.5425524,-2.216294 -0.4450846,1.011338 -2.654e-4,2.307305 0.2528122,0.954804 0.1655377,0.286542 0.095565,0.853498 0.5643418,-0.126802 0.2795469,-1.29788 z M 2.2590071,13.82741 c -0.3788585,0.179975 0.4983758,0.800966 0,0 z M 2.084613,23.130072 c -0.089387,0.878642 0.1277618,0.125912 0,0 z M 2.054739,22.192478 c -0.4181673,0.444584 0.2809702,0.74901 0,0 z M 1.7566302,34.028249 c -0.2144404,-1.546858 0.2367082,3.148926 0,0 z M 1.3960803,19.25815 c 0.012719,0.577101 0.2391621,0.520398 0,0 z m 1.023717,63.300043 c -0.089374,0.878625 0.1277599,0.125929 0,0 z M 1.0012274,23.428614 C 0.74565576,21.726788 0.61140606,20.541832 0.36167038,22.475735 c -0.2154834,0.476223 0.49013137,0.519866 -0.1788939,1.368429 0.64572339,1.784718 -1.02550728,1.962423 -0.28892962,3.619629 -0.0921057,2.416728 -0.64586858,-2.402584 -0.38274462,0.763573 -0.30765949,0.789257 0.42498746,2.099022 -0.11479836,1.570587 0.33017933,0.803579 -0.32478429,1.119973 0.17453387,2.249594 -0.70984925,0.926856 0.84383259,0.788076 0.25552619,-0.801672 0.27030754,0.931538 0.52479427,1.772301 0.57620431,-0.643086 C -0.1768346,29.397012 0.36648556,27.634293 0.46919341,26.475515 1.1631755,28.047462 0.27803888,24.851883 0.90367585,26.26488 0.99733141,25.070535 1.268209,24.836299 1.0012256,23.428614 Z M 0.6694038,22.695186 c -0.28929927,0.784739 0.0390666,-1.265912 0,0 z m 0.10108319,54.815858 c -0.15505937,0.692315 0.37143351,-0.436051 0,0 z M -0.59837947,25.243048 c -0.12956277,1.306779 0.40065681,2.280485 0,0 z m -0.3020204,10.359574 c -0.29414653,1.049014 0.36214783,-0.464048 0,0 z m 0.0165227,-1.104029 c -0.34329503,0.629099 0.14511102,0.667545 0,0 z m -0.23396123,2.84927 c -0.2242266,0.519852 0.2560366,0.661891 0,0 z m -0.091167,-1.346786 c -0.25327,0.947626 0.3859699,1.207284 0,0 z M 10.750101,17.529568 c -0.214633,-1.036951 0.217952,0.470469 0,0 z m 0.855475,56.039313 c -0.07931,-1.106506 0.105389,-0.01479 0,0 z M 10.225397,61.793802 c -0.2267008,-0.452433 0.2113,-0.456663 0,0 z M 9.4847481,96.820795 c -0.9366885,1.962157 0.3221264,-2.469123 0,0 z M 9.2948325,95.822347 c -0.055892,-1.026218 0.1132637,0.336441 0,0 z M 9.0496136,86.09373 c -0.2582553,-1.162779 0.2372773,-0.184215 0,0 z M 8.9388912,85.012204 C 8.3976459,85.42403 8.1005467,79.451023 8.7270535,83.632825 c 0.021261,0.620545 0.4821871,0.680663 0.2118377,1.379379 z M 8.4154421,66.437673 c -0.4508513,1.653312 -0.072408,-1.097097 0,0 z m 0.1036284,9.963544 c -0.2567676,-0.652724 0.2272446,-0.684845 0,0 z M 8.329634,77.453038 c -0.6190769,0.893869 0.5230337,-2.122781 0,0 z M 7.6441229,44.35329 c -0.3238847,-0.536595 0.2659577,-0.338409 0,0 z m -0.1258164,1.808089 c -0.2511084,-0.423716 0.2222211,-0.285925 0,0 z M 7.2925731,36.466703 c -0.4653203,-0.453282 0.2554732,-1.076773 0,0 z M 7.172436,29.349557 c -0.2246724,-0.04479 0.1966047,-0.536001 0,0 z m 0.641133,45.01092 c -0.145034,-0.131296 0.2110928,-0.755094 0,0 z m 0.2360164,22.754768 c -0.2683905,-1.02875 0.3263877,-0.463659 0,0 z M 6.8950687,34.601413 c -0.2267016,-0.452432 0.2112999,-0.456664 0,0 z m 0.233364,41.457357 c 0.1750338,2.926644 -1.9169994,6.499398 -1.4630861,1.852275 0.9778186,-0.222278 0.4597056,-6.119748 1.2356716,-5.217839 0.3195718,0.844565 0.203934,2.278926 0.2274145,3.365564 z M 6.5316074,72.577227 c -0.5309697,0.190198 0.4337584,-1.303054 0,0 z M 5.6432125,43.599382 c -0.2316561,-0.229953 0.1959474,-0.742573 0,0 z m 0.2954318,33.347939 c -0.3832604,0.555908 0.177189,-0.927157 0,0 z M 4.90092,25.012006 c -0.2121504,0.511673 0.183196,-0.990828 0,0 z M 4.817933,29.149707 C 4.2166075,30.568195 4.4235,32.910118 4.5581531,34.582476 3.7177836,32.969756 3.5502917,27.035849 4.9062892,28.764648 l -0.019747,0.181483 -0.068602,0.203575 z M 4.744975,23.014896 c -0.4266522,0.41281 0.4206595,-1.162587 0,0 z m 0.292944,53.330961 c -0.246831,-0.960807 0.2463198,-0.196583 0,0 z M 4.3703058,36.938991 c -0.2620506,-0.616289 0.245438,-1.00639 0,0 z M 3.8966179,37.37513 C 3.5226218,35.840764 2.199545,37.928143 2.8764388,35.109661 c 0.4190482,-0.979716 0.8550315,-5.264495 0.8355526,-1.54514 0.017012,1.1985 0.1668122,2.720655 0.1846265,3.810609 z M 4.0337633,76.558553 C 3.9056657,77.750454 2.8842067,82.558834 3.3339479,78.719996 3.8235965,76.615113 2.7176857,78.408314 3.2983996,76.858089 3.2752323,75.32264 2.4770094,70.670801 3.5192469,73.201035 c 0.2069059,0.236937 0.9775675,0.736934 0.5144763,3.357518 z m -0.428423,-0.465764 c -0.1923124,0.53806 0.09206,0.541445 0,0 z M 3.8861191,64.479605 C 3.1196892,63.735982 3.3688094,67.031407 3.7495847,68.692544 3.251257,70.673462 2.3442062,70.298261 2.436083,67.460474 3.0525323,65.84299 2.9520423,63.125206 3.5113579,62.347966 3.62602,64.326019 3.7877151,60.39805 3.9359962,63.626422 c 0.029625,0.341393 0.1152686,1.973938 -0.04988,0.853183 z M 3.3026385,50.650543 c -0.04116,1.863026 -2.0744286,0.449027 -0.9417715,-0.515136 1.2386543,-0.704408 0.5103184,-5.448067 -0.5238867,-5.97619 0.4566193,-2.159837 1.6329426,1.806351 1.5573213,4.0152 0.027042,0.837028 0.029278,1.713419 -0.091663,2.476126 z M 3.455301,61.834827 c -0.5025675,0.420993 -1.2157622,-4.387171 -1.5479189,-1.51488 -0.499401,-1.585244 -0.064942,1.303375 -0.4119706,1.651191 -0.1876336,1.514588 1.154712,5.994756 -0.036564,3.999898 -0.49168655,-0.855964 -0.174402,-0.297405 -0.56094732,-1.462572 0.14446262,-1.967588 0.0760489,-7.665965 1.16193212,-6.677088 0.3409569,2.580494 -0.1117112,-1.5967 0.6564885,0.299679 0.7663167,0.626255 0.7299365,2.131028 0.7389835,3.703772 z m -1.813218,3.648815 c -0.089378,0.878618 0.1277564,0.125915 0,0 z M 2.8000488,22.396581 c -0.055883,-1.026227 0.1132663,0.336425 0,0 z m 1.0249443,72.823075 c -1.3719777,-0.648376 0.038407,-1.205963 0.1404197,0.02343 l -0.072825,-0.01216 z M 3.4861223,82.054875 c -0.20552,-0.543655 0.2092546,-0.05859 0,0 z M 2.925826,47.840534 c -0.055883,-1.026228 0.1132664,0.336423 0,0 z m 0.1369522,38.135435 c -0.3753616,-0.44781 0.1523516,-1.960037 0,0 z M 2.954017,86.686402 c -0.205519,-0.543655 0.2092547,-0.05859 0,0 z M 2.2394319,70.856798 C 1.822908,73.485755 1.4329504,70.367952 1.6092942,69.509143 1.4850258,67.421448 2.7633471,69.902917 2.2394319,70.856798 Z m 0.022001,7.384221 c -0.2511038,-0.423709 0.2222216,-0.285921 0,0 z M 1.5492558,68.639235 c -0.2511038,-0.423716 0.2222226,-0.285924 0,0 z M 1.2749285,56.470022 c -0.1040564,2.008931 -1.2751467484,2.921116 -0.66675127,1.72443 0.2538864,-1.1065 0.97199877,-5.554995 0.66675127,-1.72443 z m -0.073893,20.446706 c -0.20551906,-0.543655 0.2094043,-0.05826 0,0 z M 0.7039411,60.773632 c -0.40919694,0.756704 0.20130685,-2.317576 0,0 z M 0.58911246,62.42067 c -0.18545487,-0.933437 0.20591717,-1.190886 0,0 z M 0.17739392,40.581682 c -1.09895885,0.1623 -0.28964398,-0.848254 0,0 z m 0.10572112,25.400706 c -0.22670012,-0.45243 0.21130063,-0.456663 0,0 z M -0.43122959,38.682819 c -0.82813741,-0.761346 0.44557446,-1.865884 0,0 z m 0.33828212,23.121654 c -0.20551813,-0.543655 0.20940431,-0.05823 0,0 z m -0.3827847,-22.59446 c -0.20551635,-0.543653 0.20940431,-0.05822 0,0 z m -0.002672,5.249204 c -0.29149576,-0.414361 0.26603569,-0.364788 0,0 z m -0.35735402,-5.59102 c -0.53701221,-1.345139 0.31941509,-0.130079 0,0 z m 0.0193284,9.064079 c -0.24170951,-0.446589 0.18561075,-0.764325 0,0 z" />
  <g
     id="text4860"
     style="font-style:normal;font-variant:normal;font-weight:normal;font-stretch:normal;font-size:2.82222223px;line-height:125%;font-family:Sudo;-inkscape-font-specification:'Sudo, Normal';font-variant-ligatures:normal;font-variant-caps:normal;font-variant-numeric:normal;font-feature-settings:normal;text-align:start;letter-spacing:0px;word-spacing:0px;writing-mode:lr-tb;text-anchor:start;fill:#000000;fill-opacity:1;stroke:none;stroke-width:0.26458332px;stroke-linecap:butt;stroke-linejoin:miter;stroke-opacity:1" />
  <g
     id="flowRoot1009"
     style="font-style:normal;font-variant:normal;font-weight:normal;font-stretch:normal;font-size:10.66666698px;line-height:125%;font-family:Sudo;-inkscape-font-specification:'Sudo, Normal';font-variant-ligatures:normal;font-variant-caps:normal;font-variant-numeric:normal;font-feature-settings:normal;text-align:start;letter-spacing:0px;word-spacing:0px;writing-mode:lr-tb;text-anchor:start;fill:#000000;fill-opacity:1;stroke:none;stroke-width:1px;stroke-linecap:butt;stroke-linejoin:miter;stroke-opacity:1" />
  <path
     id="path860"
     d="m 5.9531248,26.387131 c 0,-10.583333 0,-10.583333 0,-10.583333"
     style="fill:none;fill-rule:evenodd;stroke:#000000;stroke-width:0.264583px;stroke-linecap:butt;stroke-linejoin:miter;stroke-opacity:1" />
  <g
     aria-label="bId°°"
     style="font-style:normal;font-variant:normal;font-weight:normal;font-stretch:normal;font-size:2.82222px;line-height:125%;font-family:'DejaVu Sans Mono';-inkscape-font-specification:'DejaVu Sans Mono, Normal';font-variant-ligatures:normal;font-variant-caps:normal;font-variant-numeric:normal;font-feature-settings:normal;text-align:start;letter-spacing:0px;word-spacing:0px;writing-mode:lr-tb;text-anchor:start;fill:#000000;fill-opacity:1;stroke:none;stroke-width:0.264583px;stroke-linecap:butt;stroke-linejoin:miter;stroke-opacity:1"
     id="text849-3"
     transform="translate(0,2.7748547)">
    <path
       d="m 4.4650016,95.825839 q 0,0.144694 -0.041341,0.260449 -0.040308,0.115756 -0.109554,0.194304 -0.073381,0.08165 -0.1612305,0.12299 -0.08785,0.04031 -0.1932698,0.04031 -0.098185,0 -0.1715658,-0.02377 -0.07338,-0.02274 -0.144694,-0.06201 L 3.630944,96.41185 H 3.4490429 v -1.608171 h 0.1943034 v 0.574642 q 0.081649,-0.06718 0.1736328,-0.109554 0.091984,-0.04341 0.2067057,-0.04341 0.2046387,0 0.322461,0.157096 0.1188558,0.157097 0.1188558,0.443384 z m -0.2005046,0.0052 q 0,-0.206706 -0.068213,-0.313159 -0.068213,-0.107487 -0.2201416,-0.107487 -0.084749,0 -0.1715657,0.03721 -0.086816,0.03617 -0.1612305,0.09405 v 0.661458 q 0.082682,0.03721 0.1415934,0.05168 0.059945,0.01447 0.1353923,0.01447 0.1612304,0 0.252181,-0.10542 0.091984,-0.106453 0.091984,-0.332796 z"
       style="font-style:normal;font-variant:normal;font-weight:normal;font-stretch:normal;font-size:2.11667px;font-family:sans-serif;-inkscape-font-specification:'sans-serif, Normal';font-variant-ligatures:normal;font-variant-caps:normal;font-variant-numeric:normal;font-feature-settings:normal;text-align:start;writing-mode:lr-tb;text-anchor:start;stroke-width:0.264583px"
       id="path898" />
    <path
       d="M 5.3259308,96.41185 H 4.718216 V 96.254754 H 4.9197541 V 95.030022 H 4.718216 v -0.157096 h 0.6077148 v 0.157096 h -0.201538 v 1.224732 h 0.201538 z"
       style="font-style:normal;font-variant:normal;font-weight:normal;font-stretch:normal;font-size:2.11667px;font-family:sans-serif;-inkscape-font-specification:'sans-serif, Normal';font-variant-ligatures:normal;font-variant-caps:normal;font-variant-numeric:normal;font-feature-settings:normal;text-align:start;writing-mode:lr-tb;text-anchor:start;stroke-width:0.264583px"
       id="path900" />
    <path
       d="M 6.5971711,96.41185 H 6.4028677 v -0.120923 q -0.083716,0.07235 -0.1746663,0.112655 -0.090951,0.04031 -0.197404,0.04031 -0.2067057,0 -0.3286621,-0.159163 -0.1209228,-0.159163 -0.1209228,-0.441317 0,-0.146761 0.041341,-0.261482 0.042375,-0.114722 0.1136882,-0.195337 0.07028,-0.07855 0.1632975,-0.11989 0.094051,-0.04134 0.1943033,-0.04134 0.090951,0 0.1612305,0.01964 0.07028,0.0186 0.1477946,0.05891 V 94.803679 H 6.5971711 Z M 6.4028677,96.12763 v -0.662492 q -0.078548,-0.03514 -0.1405599,-0.04858 -0.062012,-0.01344 -0.1353922,-0.01344 -0.1632976,0 -0.2542481,0.113688 -0.09095,0.113688 -0.09095,0.322461 0,0.205672 0.07028,0.313159 0.07028,0.106454 0.2253092,0.106454 0.082682,0 0.1674316,-0.03617 0.084749,-0.03721 0.1581294,-0.09508 z"
       style="font-style:normal;font-variant:normal;font-weight:normal;font-stretch:normal;font-size:2.11667px;font-family:sans-serif;-inkscape-font-specification:'sans-serif, Normal';font-variant-ligatures:normal;font-variant-caps:normal;font-variant-numeric:normal;font-feature-settings:normal;text-align:start;writing-mode:lr-tb;text-anchor:start;stroke-width:0.264583px"
       id="path902" />
    <path
       d="m 7.776427,95.258432 q 0,0.173633 -0.1198893,0.293522 -0.1198893,0.11989 -0.2945556,0.11989 -0.1746664,0 -0.2945557,-0.118856 -0.1198893,-0.11989 -0.1198893,-0.294556 0,-0.173633 0.1198893,-0.293522 0.1198893,-0.119889 0.2945557,-0.119889 0.1756998,0 0.2945556,0.119889 0.1198893,0.119889 0.1198893,0.293522 z m -0.1705322,0 q 0,-0.10542 -0.069246,-0.176733 -0.069246,-0.07235 -0.1746663,-0.07235 -0.1054199,0 -0.1746664,0.07235 -0.069246,0.07131 -0.069246,0.176733 0,0.107487 0.07028,0.178801 0.071313,0.07028 0.1736328,0.07028 0.1054199,0 0.1746663,-0.07235 0.069246,-0.07235 0.069246,-0.176733 z"
       style="font-style:normal;font-variant:normal;font-weight:normal;font-stretch:normal;font-size:2.11667px;font-family:sans-serif;-inkscape-font-specification:'sans-serif, Normal';font-variant-ligatures:normal;font-variant-caps:normal;font-variant-numeric:normal;font-feature-settings:normal;text-align:start;writing-mode:lr-tb;text-anchor:start;stroke-width:0.264583px"
       id="path904" />
    <path
       d="m 8.9257107,95.258432 q 0,0.173633 -0.1198893,0.293522 -0.1198893,0.11989 -0.2945557,0.11989 -0.1746663,0 -0.2945556,-0.118856 -0.1198893,-0.11989 -0.1198893,-0.294556 0,-0.173633 0.1198893,-0.293522 0.1198893,-0.119889 0.2945556,-0.119889 0.1756999,0 0.2945557,0.119889 0.1198893,0.119889 0.1198893,0.293522 z m -0.1705322,0 q 0,-0.10542 -0.069246,-0.176733 -0.069247,-0.07235 -0.1746664,-0.07235 -0.1054199,0 -0.1746663,0.07235 -0.069246,0.07131 -0.069246,0.176733 0,0.107487 0.07028,0.178801 0.071314,0.07028 0.1736328,0.07028 0.1054199,0 0.1746664,-0.07235 0.069246,-0.07235 0.069246,-0.176733 z"
       style="font-style:normal;font-variant:normal;font-weight:normal;font-stretch:normal;font-size:2.11667px;font-family:sans-serif;-inkscape-font-specification:'sans-serif, Normal';font-variant-ligatures:normal;font-variant-caps:normal;font-variant-numeric:normal;font-feature-settings:normal;text-align:start;writing-mode:lr-tb;text-anchor:start;stroke-width:0.264583px"
       id="path906" />
  </g>
  <g
     id="g858"
     transform="translate(0,10.892791)">
    <path
       id="rect998-1"
       d="m 3.5257539,60.919752 h 4.702995 c 0.6299043,0 1.1370114,0.507107 1.1370114,1.137011 v 8.103004 c 0,0.629904 -0.5071071,1.137011 -1.1370114,1.137011 h -4.702995 c -0.6299044,0 -1.1370115,-0.507107 -1.1370115,-1.137011 v -8.103004 c 0,-0.629904 0.5071071,-1.137011 1.1370115,-1.137011 z"
       style="opacity:1;fill:#000000;fill-opacity:1;fill-rule:evenodd;stroke:#000500;stroke-width:0.720857;stroke-linecap:butt;stroke-linejoin:round;stroke-miterlimit:4;stroke-dasharray:none;stroke-dashoffset:0;stroke-opacity:1" />
    <g
       transform="translate(6.6309249,7.7405727)"
       aria-label="IN"
       style="font-style:normal;font-variant:normal;font-weight:normal;font-stretch:normal;font-size:2.82222px;line-height:125%;font-family:'DejaVu Sans Mono';-inkscape-font-specification:'DejaVu Sans Mono, Normal';font-variant-ligatures:normal;font-variant-caps:normal;font-variant-numeric:normal;font-feature-settings:normal;text-align:start;letter-spacing:0px;word-spacing:0px;writing-mode:lr-tb;text-anchor:start;fill:#000000;fill-opacity:1;stroke:none;stroke-width:0.264583px;stroke-linecap:butt;stroke-linejoin:miter;stroke-opacity:1"
       id="text848">
      <path
         d="m -1.13617,55.416008 h -0.6077148 v -0.157096 h 0.201538 V 54.03418 h -0.201538 V 53.877084 H -1.13617 v 0.157096 h -0.2015381 v 1.224732 H -1.13617 Z"
         style="font-style:normal;font-variant:normal;font-weight:normal;font-stretch:normal;font-size:2.11667px;font-family:sans-serif;-inkscape-font-specification:'sans-serif, Normal';font-variant-ligatures:normal;font-variant-caps:normal;font-variant-numeric:normal;font-feature-settings:normal;text-align:start;writing-mode:lr-tb;text-anchor:start;fill:#ffffff;fill-opacity:1;stroke-width:0.264583px"
         id="path864" />
      <path
         d="m 0.38828465,55.416008 h -0.2532145 l -0.72967119,-1.37666 v 1.37666 h -0.19120279 v -1.538924 h 0.31729328 l 0.66559241,1.256771 v -1.256771 h 0.19120279 z"
         style="font-style:normal;font-variant:normal;font-weight:normal;font-stretch:normal;font-size:2.11667px;font-family:sans-serif;-inkscape-font-specification:'sans-serif, Normal';font-variant-ligatures:normal;font-variant-caps:normal;font-variant-numeric:normal;font-feature-settings:normal;text-align:start;writing-mode:lr-tb;text-anchor:start;fill:#ffffff;fill-opacity:1;stroke-width:0.264583px"
         id="path866" />
    </g>
  </g>
  <g
     id="g865"
     transform="translate(0,8.5458792)">
    <path
       id="rect998"
       d="m 3.5257539,75.70208 h 4.702995 c 0.6299043,0 1.1370114,0.507107 1.1370114,1.137011 v 8.103004 c 0,0.629904 -0.5071071,1.137011 -1.1370114,1.137011 h -4.702995 c -0.6299044,0 -1.1370115,-0.507107 -1.1370115,-1.137011 v -8.103004 c 0,-0.629904 0.5071071,-1.137011 1.1370115,-1.137011 z"
       style="opacity:1;fill:#cd1f00;fill-opacity:1;fill-rule:evenodd;stroke:#cd1f00;stroke-width:0.720857;stroke-linecap:butt;stroke-linejoin:round;stroke-miterlimit:4;stroke-dasharray:none;stroke-dashoffset:0;stroke-opacity:1" />
    <g
       transform="translate(6.6309249,7.7646957)"
       aria-label="OUT"
       style="font-style:normal;font-variant:normal;font-weight:normal;font-stretch:normal;font-size:2.82222px;line-height:125%;font-family:'DejaVu Sans Mono';-inkscape-font-specification:'DejaVu Sans Mono, Normal';font-variant-ligatures:normal;font-variant-caps:normal;font-variant-numeric:normal;font-feature-settings:normal;text-align:start;letter-spacing:0px;word-spacing:0px;writing-mode:lr-tb;text-anchor:start;fill:#000000;fill-opacity:1;stroke:none;stroke-width:0.264583px;stroke-linecap:butt;stroke-linejoin:miter;stroke-opacity:1"
       id="text848-2">
      <path
         d="m -1.6436326,68.844055 q 0.094051,0.103353 0.1436605,0.253214 0.050643,0.149862 0.050643,0.340031 0,0.190169 -0.051676,0.341065 -0.050643,0.149861 -0.142627,0.250114 -0.095085,0.104386 -0.2253092,0.157096 -0.1291911,0.05271 -0.2955892,0.05271 -0.162264,0 -0.2955891,-0.05374 -0.1322917,-0.05374 -0.2253093,-0.156062 -0.093018,-0.10232 -0.1436605,-0.251148 -0.049609,-0.148828 -0.049609,-0.340031 0,-0.188102 0.049609,-0.33693 0.049609,-0.149862 0.144694,-0.256315 0.090951,-0.101286 0.2253093,-0.15503 0.1353922,-0.05374 0.2945556,-0.05374 0.1653646,0 0.2966227,0.05478 0.1322917,0.05374 0.2242757,0.153996 z m -0.018603,0.593245 q 0,-0.299723 -0.1343587,-0.461987 -0.1343587,-0.163298 -0.3669026,-0.163298 -0.234611,0 -0.3689698,0.163298 -0.1333251,0.162264 -0.1333251,0.461987 0,0.302824 0.1364257,0.464054 0.1364258,0.160197 0.3658692,0.160197 0.2294433,0 0.3648355,-0.160197 0.1364258,-0.16123 0.1364258,-0.464054 z"
         style="font-style:normal;font-variant:normal;font-weight:normal;font-stretch:normal;font-size:2.11667px;font-family:sans-serif;-inkscape-font-specification:'sans-serif, Normal';font-variant-ligatures:normal;font-variant-caps:normal;font-variant-numeric:normal;font-feature-settings:normal;text-align:start;writing-mode:lr-tb;text-anchor:start;fill:#ffffff;fill-opacity:1;stroke-width:0.264583px"
         id="path869" />
      <path
         d="m 0.0337843,69.588195 q 0,0.167432 -0.03720703,0.292489 -0.0361735,0.124023 -0.11988931,0.206706 -0.0795817,0.07855 -0.18603515,0.114721 -0.10645345,0.03617 -0.24804686,0.03617 -0.14469401,0 -0.25218098,-0.03824 -0.10748697,-0.03824 -0.1808675,-0.112654 -0.0837158,-0.08475 -0.12092287,-0.204639 -0.036174,-0.119889 -0.036174,-0.294556 v -0.920874 h 0.20463868 v 0.93121 q 0,0.125057 0.0165365,0.197404 0.01757,0.07235 0.0578776,0.131258 0.0454753,0.06718 0.1229899,0.101286 0.0785482,0.03411 0.18810221,0.03411 0.11058756,0 0.1881022,-0.03307 0.0775146,-0.03411 0.12402343,-0.102319 0.0403076,-0.05891 0.0568441,-0.134359 0.01757,-0.07648 0.01757,-0.189136 V 68.667321 H 0.0337843 Z"
         style="font-style:normal;font-variant:normal;font-weight:normal;font-stretch:normal;font-size:2.11667px;font-family:sans-serif;-inkscape-font-specification:'sans-serif, Normal';font-variant-ligatures:normal;font-variant-caps:normal;font-variant-numeric:normal;font-feature-settings:normal;text-align:start;writing-mode:lr-tb;text-anchor:start;fill:#ffffff;fill-opacity:1;stroke-width:0.264583px"
         id="path871" />
      <path
         d="M 1.5230991,68.849222 H 0.97326187 v 1.357023 H 0.76862321 V 68.849222 H 0.218786 v -0.181901 h 1.3043131 z"
         style="font-style:normal;font-variant:normal;font-weight:normal;font-stretch:normal;font-size:2.11667px;font-family:sans-serif;-inkscape-font-specification:'sans-serif, Normal';font-variant-ligatures:normal;font-variant-caps:normal;font-variant-numeric:normal;font-feature-settings:normal;text-align:start;writing-mode:lr-tb;text-anchor:start;fill:#ffffff;fill-opacity:1;stroke-width:0.264583px"
         id="path874" />
    </g>
  </g>
  <g
     aria-label="fREIN"
     id="text868"
     style="font-style:normal;font-variant:normal;font-weight:normal;font-stretch:normal;font-size:2.82223px;line-height:125%;font-family:'DejaVu Sans Mono';-inkscape-font-specification:'DejaVu Sans Mono, Normal';font-variant-ligatures:normal;font-variant-caps:normal;font-variant-numeric:normal;font-feature-settings:normal;text-align:start;letter-spacing:0px;word-spacing:0px;writing-mode:lr-tb;text-anchor:start;fill:#000000;fill-opacity:1;stroke:none;stroke-width:0.264583px;stroke-linecap:butt;stroke-linejoin:miter;stroke-opacity:1">
    <path
       d="m 3.8157842,1.5094675 h -0.010335 q -0.03204,-0.0093 -0.083716,-0.018604 -0.051677,-0.010335 -0.090951,-0.010335 -0.1250572,0 -0.1819014,0.055811 -0.055811,0.054777 -0.055811,0.1994713 v 0.039274 H 3.7434371 V 1.9383825 H 3.3992715 V 2.929538 H 3.2049678 V 1.9383825 H 3.0737095 V 1.7750848 h 0.1312583 v -0.038241 q 0,-0.2056725 0.1023195,-0.3152267 0.1023195,-0.1105877 0.2955896,-0.1105877 0.065112,0 0.116789,0.0062 0.05271,0.0062 0.096118,0.014469 z"
       style="font-style:normal;font-variant:normal;font-weight:normal;font-stretch:normal;font-size:2.11667px;font-family:sans-serif;-inkscape-font-specification:'sans-serif, Normal';font-variant-ligatures:normal;font-variant-caps:normal;font-variant-numeric:normal;font-variant-east-asian:normal;stroke-width:0.264583px"
       id="path887" />
    <path
       d="M 5.2275864,2.929538 H 4.9619692 L 4.4472711,2.3176881 H 4.1589162 V 2.929538 H 3.9542772 V 1.3906115 h 0.4309821 q 0.1395266,0 0.2325443,0.018604 0.093018,0.01757 0.1674319,0.064079 0.083716,0.05271 0.1302248,0.1333254 0.047542,0.079582 0.047542,0.202572 0,0.1663983 -0.083716,0.2790531 Q 4.7955703,2.1998663 4.648809,2.2567104 Z M 4.749062,1.8236607 q 0,-0.066146 -0.023771,-0.1167889 Q 4.7025531,1.6551952 4.6488095,1.6200552 4.6043677,1.5900828 4.5433894,1.578714 4.4824112,1.5663116 4.3997287,1.5663116 H 4.1589162 v 0.580844 h 0.206706 q 0.097152,0 0.169499,-0.016536 0.072347,-0.01757 0.1229901,-0.064079 0.046509,-0.043408 0.068213,-0.099219 0.022738,-0.056844 0.022738,-0.1436609 z"
       style="font-style:normal;font-variant:normal;font-weight:normal;font-stretch:normal;font-size:2.11667px;font-family:sans-serif;-inkscape-font-specification:'sans-serif, Normal';font-variant-ligatures:normal;font-variant-caps:normal;font-variant-numeric:normal;font-variant-east-asian:normal;stroke-width:0.264583px"
       id="path889" />
    <path
       d="M 6.4399173,2.929538 H 5.4260242 V 1.3906115 H 6.4399173 V 1.5725128 H 5.6306632 V 1.9941932 H 6.4399173 V 2.1760945 H 5.6306632 v 0.5715422 h 0.8092541 z"
       style="font-style:normal;font-variant:normal;font-weight:normal;font-stretch:normal;font-size:2.11667px;font-family:sans-serif;-inkscape-font-specification:'sans-serif, Normal';font-variant-ligatures:normal;font-variant-caps:normal;font-variant-numeric:normal;font-variant-east-asian:normal;stroke-width:0.264583px"
       id="path891" />
    <path
       d="M 7.3080827,2.929538 H 6.7003669 V 2.7724414 H 6.9019053 V 1.5477081 H 6.7003669 V 1.3906115 H 7.3080827 V 1.5477081 H 7.1065443 v 1.2247333 h 0.2015384 z"
       style="font-style:normal;font-variant:normal;font-weight:normal;font-stretch:normal;font-size:2.11667px;font-family:sans-serif;-inkscape-font-specification:'sans-serif, Normal';font-variant-ligatures:normal;font-variant-caps:normal;font-variant-numeric:normal;font-variant-east-asian:normal;stroke-width:0.264583px"
       id="path893" />
    <path
       d="M 8.83254,2.929538 H 8.5793251 L 7.8496527,1.5528758 V 2.929538 H 7.6584496 V 1.3906115 H 7.9757434 L 8.6413369,2.6473843 V 1.3906115 H 8.83254 Z"
       style="font-style:normal;font-variant:normal;font-weight:normal;font-stretch:normal;font-size:2.11667px;font-family:sans-serif;-inkscape-font-specification:'sans-serif, Normal';font-variant-ligatures:normal;font-variant-caps:normal;font-variant-numeric:normal;font-variant-east-asian:normal;stroke-width:0.264583px"
       id="path895" />
  </g>
  <path
     style="fill:none;fill-rule:evenodd;stroke:#000000;stroke-width:0.264583px;stroke-linecap:butt;stroke-linejoin:miter;stroke-opacity:1"
     d="m 5.9531248,48.001601 c 0,-12.780721 0,-12.780721 0,-12.780721"
     id="path860-5" />
  <path
     id="path860-5-8"
     d="m 5.9531248,67.760962 c 0,-12.780721 0,-12.780721 0,-12.780721"
     style="fill:none;fill-rule:evenodd;stroke:#000000;stroke-width:0.264583px;stroke-linecap:butt;stroke-linejoin:miter;stroke-opacity:1" />
  <g
     transform="translate(0,3.2001699)"
     style="font-style:normal;font-variant:normal;font-weight:normal;font-stretch:normal;font-size:2.11667px;line-height:125%;font-family:'DejaVu Sans Mono';-inkscape-font-specification:'DejaVu Sans Mono, Normal';font-variant-ligatures:normal;font-variant-caps:normal;font-variant-numeric:normal;font-variant-east-asian:normal;text-align:start;letter-spacing:0px;word-spacing:0px;writing-mode:lr-tb;text-anchor:start;fill:#000000;fill-opacity:1;stroke:none;stroke-width:0.264583px;stroke-linecap:butt;stroke-linejoin:miter;stroke-opacity:1"
     id="text902"
     aria-label="STOP">
    <path
       id="path952"
       style="font-style:normal;font-variant:normal;font-weight:normal;font-stretch:normal;font-size:2.11667px;font-family:'DejaVu Sans Mono';-inkscape-font-specification:'DejaVu Sans Mono, Normal';font-variant-ligatures:normal;font-variant-caps:normal;font-variant-numeric:normal;font-variant-east-asian:normal;stroke-width:0.264583px"
       d="m 4.4276383,7.4483301 v 0.2118737 q -0.095085,-0.060978 -0.191203,-0.091984 -0.095085,-0.031006 -0.1922367,-0.031006 -0.1477948,0 -0.2335778,0.069247 -0.085783,0.068213 -0.085783,0.1850019 0,0.1023195 0.055811,0.1560631 0.056844,0.053744 0.2108402,0.089917 l 0.1095542,0.024805 q 0.2170413,0.050643 0.3162602,0.1591637 0.099219,0.1085206 0.099219,0.2955896 0,0.220142 -0.1364259,0.3358973 Q 4.24367,8.968653 3.9832203,8.968653 3.8746997,8.968653 3.7651455,8.944882 3.6555913,8.922144 3.5450035,8.875636 V 8.653427 q 0.118856,0.075448 0.2242761,0.1105877 0.1064536,0.03514 0.2139407,0.03514 0.1581302,0 0.2459802,-0.07028 0.08785,-0.071314 0.08785,-0.1984378 0,-0.1157554 -0.060978,-0.1767337 -0.059945,-0.060978 -0.2098066,-0.094051 L 3.9346444,8.233813 Q 3.7196701,8.1852371 3.6225183,8.0870517 3.5253665,7.9888664 3.5253665,7.8235015 q 0,-0.206706 0.138493,-0.3307296 0.1395266,-0.1250572 0.3700038,-0.1250572 0.088884,0 0.187069,0.020671 0.098185,0.019637 0.206706,0.059944 z" />
    <path
       id="path954"
       style="font-style:normal;font-variant:normal;font-weight:normal;font-stretch:normal;font-size:2.11667px;font-family:'DejaVu Sans Mono';-inkscape-font-specification:'DejaVu Sans Mono, Normal';font-variant-ligatures:normal;font-variant-caps:normal;font-variant-numeric:normal;font-variant-east-asian:normal;stroke-width:0.264583px"
       d="M 4.7035909,7.39562 H 5.8807818 V 7.5713202 H 5.3981232 V 8.9386806 H 5.1883166 V 7.5713202 H 4.7035909 Z" />
    <path
       id="path956"
       style="font-style:normal;font-variant:normal;font-weight:normal;font-stretch:normal;font-size:2.11667px;font-family:'DejaVu Sans Mono';-inkscape-font-specification:'DejaVu Sans Mono, Normal';font-variant-ligatures:normal;font-variant-caps:normal;font-variant-numeric:normal;font-variant-east-asian:normal;stroke-width:0.264583px"
       d="m 6.8636691,8.1687006 q 0,-0.3400314 -0.07028,-0.4857592 -0.069247,-0.1457277 -0.2284102,-0.1457277 -0.1581301,0 -0.2284101,0.1457277 -0.069247,0.1457278 -0.069247,0.4857592 0,0.3389979 0.069247,0.4847257 0.07028,0.1457278 0.2284101,0.1457278 0.1591637,0 0.2284102,-0.1446943 0.07028,-0.1457277 0.07028,-0.4857592 z m 0.2180748,0 q 0,0.4030768 -0.1281577,0.6015146 Q 6.826462,8.968653 6.5649788,8.968653 q -0.2614831,0 -0.3886073,-0.1974042 -0.1271242,-0.1974043 -0.1271242,-0.6025482 0,-0.4041103 0.1271242,-0.6025481 0.1281577,-0.1984378 0.3886073,-0.1984378 0.2614832,0 0.3886074,0.1984378 0.1281577,0.1984378 0.1281577,0.6025481 z" />
    <path
       id="path958"
       style="font-style:normal;font-variant:normal;font-weight:normal;font-stretch:normal;font-size:2.11667px;font-family:'DejaVu Sans Mono';-inkscape-font-specification:'DejaVu Sans Mono, Normal';font-variant-ligatures:normal;font-variant-caps:normal;font-variant-numeric:normal;font-variant-east-asian:normal;stroke-width:0.264583px"
       d="m 7.614012,7.567186 v 0.5798105 h 0.2418461 q 0.1446942,0 0.2253096,-0.076481 0.081649,-0.076481 0.081649,-0.2139408 0,-0.1374595 -0.080615,-0.2129072 Q 8.0015858,7.567186 7.8558581,7.567186 Z M 7.4052389,7.39562 h 0.4506192 q 0.2583825,0 0.3917079,0.1178225 0.1333254,0.1167889 0.1333254,0.343132 0,0.2284102 -0.1333254,0.3451991 Q 8.1152742,8.3185625 7.8558581,8.3185625 H 7.614012 V 8.9386806 H 7.4052389 Z" />
  </g>
  <g
     transform="translate(0,0.5543368)"
     style="font-style:normal;font-variant:normal;font-weight:normal;font-stretch:normal;font-size:2.11667px;line-height:125%;font-family:'DejaVu Sans Mono';-inkscape-font-specification:'DejaVu Sans Mono, Normal';font-variant-ligatures:normal;font-variant-caps:normal;font-variant-numeric:normal;font-variant-east-asian:normal;text-align:start;letter-spacing:0px;word-spacing:0px;writing-mode:lr-tb;text-anchor:start;fill:#000000;fill-opacity:1;stroke:none;stroke-width:0.264583px;stroke-linecap:butt;stroke-linejoin:miter;stroke-opacity:1"
     id="text902-5"
     aria-label="START">
    <path
       id="path941"
       style="font-style:normal;font-variant:normal;font-weight:normal;font-stretch:normal;font-size:2.11667px;font-family:'DejaVu Sans Mono';-inkscape-font-specification:'DejaVu Sans Mono, Normal';font-variant-ligatures:normal;font-variant-caps:normal;font-variant-numeric:normal;font-variant-east-asian:normal;stroke-width:0.264583px"
       d="m 3.7677303,31.000128 v 0.211874 q -0.095085,-0.06098 -0.1912031,-0.09198 -0.095085,-0.03101 -0.1922366,-0.03101 -0.1477948,0 -0.2335779,0.06925 -0.085783,0.06821 -0.085783,0.185002 0,0.102319 0.055811,0.156063 0.056844,0.05374 0.2108401,0.08992 l 0.1095542,0.02481 q 0.2170414,0.05064 0.3162603,0.159164 0.099219,0.10852 0.099219,0.295589 0,0.220142 -0.136426,0.335898 -0.136426,0.115755 -0.3968756,0.115755 -0.1085207,0 -0.2180749,-0.02377 -0.1095542,-0.02274 -0.2201419,-0.06925 v -0.222209 q 0.118856,0.07545 0.224276,0.110588 0.1064537,0.03514 0.2139408,0.03514 0.1581301,0 0.2459802,-0.07028 0.08785,-0.07131 0.08785,-0.198438 0,-0.115755 -0.060978,-0.176734 -0.059945,-0.06098 -0.2098067,-0.09405 L 3.274737,31.78562 q -0.2149743,-0.04858 -0.3121262,-0.146761 -0.097152,-0.09819 -0.097152,-0.263551 0,-0.206706 0.1384931,-0.330729 0.1395265,-0.125057 0.3700038,-0.125057 0.088884,0 0.1870689,0.02067 0.098185,0.01964 0.2067061,0.05994 z" />
    <path
       id="path943"
       style="font-style:normal;font-variant:normal;font-weight:normal;font-stretch:normal;font-size:2.11667px;font-family:'DejaVu Sans Mono';-inkscape-font-specification:'DejaVu Sans Mono, Normal';font-variant-ligatures:normal;font-variant-caps:normal;font-variant-numeric:normal;font-variant-east-asian:normal;stroke-width:0.264583px"
       d="m 4.0436829,30.947418 h 1.1771909 v 0.1757 H 4.7382152 v 1.367361 H 4.5284085 V 31.123118 H 4.0436829 Z" />
    <path
       id="path945"
       style="font-style:normal;font-variant:normal;font-weight:normal;font-stretch:normal;font-size:2.11667px;font-family:'DejaVu Sans Mono';-inkscape-font-specification:'DejaVu Sans Mono, Normal';font-variant-ligatures:normal;font-variant-caps:normal;font-variant-numeric:normal;font-variant-east-asian:normal;stroke-width:0.264583px"
       d="m 5.9050708,31.131386 -0.220142,0.789617 H 6.1252127 Z M 5.7789801,30.947418 H 6.032195 l 0.4723233,1.543061 H 6.2885105 L 6.1748222,32.088435 H 5.6342859 L 5.5226646,32.490479 H 5.3066568 Z" />
    <path
       id="path947"
       style="font-style:normal;font-variant:normal;font-weight:normal;font-stretch:normal;font-size:2.11667px;font-family:'DejaVu Sans Mono';-inkscape-font-specification:'DejaVu Sans Mono, Normal';font-variant-ligatures:normal;font-variant-caps:normal;font-variant-numeric:normal;font-variant-east-asian:normal;stroke-width:0.264583px"
       d="m 7.3272084,31.76184 q 0.080615,0.02067 0.1374595,0.07855 0.056844,0.05684 0.1415936,0.22841 l 0.2098067,0.421681 H 7.5917921 L 7.4078237,32.100838 Q 7.3282419,31.934439 7.264163,31.886897 7.2011177,31.838321 7.0987982,31.838321 H 6.8993269 v 0.652158 H 6.6895202 v -1.543061 h 0.4299486 q 0.2542484,0 0.3896409,0.114722 0.1353924,0.114722 0.1353924,0.331763 0,0.152962 -0.083716,0.250114 -0.082682,0.09612 -0.2335777,0.117823 z M 6.8993269,31.118984 v 0.547771 H 7.127737 q 0.1498619,0 0.2232426,-0.06718 0.073381,-0.06718 0.073381,-0.205672 0,-0.133325 -0.078548,-0.203606 -0.077515,-0.07131 -0.2263431,-0.07131 z" />
    <path
       id="path949"
       style="font-style:normal;font-variant:normal;font-weight:normal;font-stretch:normal;font-size:2.11667px;font-family:'DejaVu Sans Mono';-inkscape-font-specification:'DejaVu Sans Mono, Normal';font-variant-ligatures:normal;font-variant-caps:normal;font-variant-numeric:normal;font-variant-east-asian:normal;stroke-width:0.264583px"
       d="m 7.8636105,30.947418 h 1.177191 v 0.1757 H 8.5581429 v 1.367361 H 8.3483362 V 31.123118 H 7.8636105 Z" />
  </g>
  <g
     transform="translate(0,0.5543368)"
     style="font-style:normal;font-variant:normal;font-weight:normal;font-stretch:normal;font-size:2.11667px;line-height:125%;font-family:'DejaVu Sans Mono';-inkscape-font-specification:'DejaVu Sans Mono, Normal';font-variant-ligatures:normal;font-variant-caps:normal;font-variant-numeric:normal;font-variant-east-asian:normal;text-align:start;letter-spacing:0px;word-spacing:0px;writing-mode:lr-tb;text-anchor:start;fill:#000000;fill-opacity:1;stroke:none;stroke-width:0.264583px;stroke-linecap:butt;stroke-linejoin:miter;stroke-opacity:1"
     id="text902-8"
     aria-label="SPEED">
    <path
       id="path930"
       style="font-style:normal;font-variant:normal;font-weight:normal;font-stretch:normal;font-size:2.11667px;font-family:'DejaVu Sans Mono';-inkscape-font-specification:'DejaVu Sans Mono, Normal';font-variant-ligatures:normal;font-variant-caps:normal;font-variant-numeric:normal;font-variant-east-asian:normal;stroke-width:0.264583px"
       d="m 3.8090714,51.611571 v 0.211873 q -0.095085,-0.06098 -0.1912031,-0.09198 -0.095085,-0.03101 -0.1922367,-0.03101 -0.1477948,0 -0.2335778,0.06925 -0.085783,0.06821 -0.085783,0.185002 0,0.102319 0.055811,0.156063 0.056844,0.05374 0.2108402,0.08992 l 0.1095542,0.0248 q 0.2170414,0.05064 0.3162603,0.159164 0.099219,0.108521 0.099219,0.29559 0,0.220142 -0.136426,0.335897 -0.136426,0.115755 -0.3968756,0.115755 -0.1085207,0 -0.2180749,-0.02377 -0.1095542,-0.02274 -0.220142,-0.06925 v -0.222209 q 0.118856,0.07545 0.2242761,0.110587 0.1064536,0.03514 0.2139408,0.03514 0.1581301,0 0.2459802,-0.07028 0.08785,-0.07131 0.08785,-0.198437 0,-0.115756 -0.060978,-0.176734 -0.059945,-0.06098 -0.2098066,-0.09405 l -0.1116213,-0.02584 q -0.2149742,-0.04857 -0.3121261,-0.146761 -0.097152,-0.09819 -0.097152,-0.26355 0,-0.206706 0.138493,-0.33073 0.1395266,-0.125057 0.3700038,-0.125057 0.088884,0 0.187069,0.02067 0.098185,0.01964 0.2067061,0.05994 z" />
    <path
       id="path932"
       style="font-style:normal;font-variant:normal;font-weight:normal;font-stretch:normal;font-size:2.11667px;font-family:'DejaVu Sans Mono';-inkscape-font-specification:'DejaVu Sans Mono, Normal';font-variant-ligatures:normal;font-variant-caps:normal;font-variant-numeric:normal;font-variant-east-asian:normal;stroke-width:0.264583px"
       d="m 4.4488266,51.730426 v 0.579811 h 0.241846 q 0.1446943,0 0.2253096,-0.07648 0.081649,-0.07648 0.081649,-0.213941 0,-0.13746 -0.080615,-0.212907 -0.080615,-0.07648 -0.2263432,-0.07648 z M 4.2400535,51.55886 h 0.4506191 q 0.2583826,0 0.391708,0.117823 0.1333254,0.116789 0.1333254,0.343132 0,0.22841 -0.1333254,0.345199 -0.1322919,0.116789 -0.391708,0.116789 h -0.241846 v 0.620118 H 4.2400535 Z" />
    <path
       id="path934"
       style="font-style:normal;font-variant:normal;font-weight:normal;font-stretch:normal;font-size:2.11667px;font-family:'DejaVu Sans Mono';-inkscape-font-specification:'DejaVu Sans Mono, Normal';font-variant-ligatures:normal;font-variant-caps:normal;font-variant-numeric:normal;font-variant-east-asian:normal;stroke-width:0.264583px"
       d="m 5.5133627,51.55886 h 0.9157078 v 0.175701 H 5.7221358 v 0.45682 h 0.6759288 v 0.1757 H 5.7221358 v 0.55914 h 0.7265717 v 0.1757 H 5.5133627 Z" />
    <path
       id="path936"
       style="font-style:normal;font-variant:normal;font-weight:normal;font-stretch:normal;font-size:2.11667px;font-family:'DejaVu Sans Mono';-inkscape-font-specification:'DejaVu Sans Mono, Normal';font-variant-ligatures:normal;font-variant-caps:normal;font-variant-numeric:normal;font-variant-east-asian:normal;stroke-width:0.264583px"
       d="m 6.7866719,51.55886 h 0.9157078 v 0.175701 H 6.995445 v 0.45682 h 0.6759288 v 0.1757 H 6.995445 v 0.55914 h 0.7265718 v 0.1757 H 6.7866719 Z" />
    <path
       id="path938"
       style="font-style:normal;font-variant:normal;font-weight:normal;font-stretch:normal;font-size:2.11667px;font-family:'DejaVu Sans Mono';-inkscape-font-specification:'DejaVu Sans Mono, Normal';font-variant-ligatures:normal;font-variant-caps:normal;font-variant-numeric:normal;font-variant-east-asian:normal;stroke-width:0.264583px"
       d="m 8.3069949,52.930355 q 0.2635502,0 0.3679367,-0.129191 0.1043866,-0.130225 0.1043866,-0.469223 0,-0.342098 -0.1043866,-0.47129 -0.103353,-0.130225 -0.3679367,-0.130225 H 8.207776 v 1.199929 z m 0.00413,-1.371495 q 0.3534673,0 0.5208992,0.188103 0.1674319,0.188102 0.1674319,0.584978 0,0.394809 -0.1674319,0.582911 -0.1674319,0.187069 -0.5208992,0.187069 H 7.9979693 V 51.55886 Z" />
  </g>
</svg>
