<?xml version="1.0" encoding="UTF-8" standalone="no"?>
<svg
   xmlns:osb="http://www.openswatchbook.org/uri/2009/osb"
   xmlns:dc="http://purl.org/dc/elements/1.1/"
   xmlns:cc="http://creativecommons.org/ns#"
   xmlns:rdf="http://www.w3.org/1999/02/22-rdf-syntax-ns#"
   xmlns:svg="http://www.w3.org/2000/svg"
   xmlns="http://www.w3.org/2000/svg"
   xmlns:sodipodi="http://sodipodi.sourceforge.net/DTD/sodipodi-0.dtd"
   xmlns:inkscape="http://www.inkscape.org/namespaces/inkscape"
   id="svg12553"
   version="1.1"
   viewBox="0 0 39.6875 100.54166"
   height="380"
   width="150"
   sodipodi:docname="GARCONtemp.svg"
   inkscape:version="0.92.3 (2405546, 2018-03-11)">
  <sodipodi:namedview
     pagecolor="#ffffff"
     bordercolor="#666666"
     borderopacity="1"
     objecttolerance="10"
     gridtolerance="10"
     guidetolerance="10"
     inkscape:pageopacity="0"
     inkscape:pageshadow="2"
     inkscape:window-width="1920"
     inkscape:window-height="1017"
     id="namedview118"
     showgrid="true"
     inkscape:zoom="1.5750457"
     inkscape:cx="-149.58031"
     inkscape:cy="178.79761"
     inkscape:window-x="-8"
     inkscape:window-y="-8"
     inkscape:window-maximized="1"
     inkscape:current-layer="svg12553"
     inkscape:snap-to-guides="false"
     inkscape:snap-grids="false">
    <inkscape:grid
       type="xygrid"
       id="grid929" />
  </sodipodi:namedview>
  <defs
     id="defs12547">
    <linearGradient
       id="linearGradient4708"
       osb:paint="solid">
      <stop
         style="stop-color:#ececec;stop-opacity:1;"
         offset="0"
         id="stop4706" />
    </linearGradient>
    <filter
       style="color-interpolation-filters:sRGB"
       inkscape:label="Opacity"
       id="filter4696">
      <feColorMatrix
         in="SourceGraphic"
         values="0 0 0 0 1 0 0 0 0 0 0 0 0 0 0 1 0 0 0 0 0 "
         result="colormatrix"
         id="feColorMatrix4692" />
      <feBlend
         in2="BackgroundImage"
         mode="multiply"
         result="fbSourceGraphic"
         id="feBlend4694" />
      <feColorMatrix
         result="fbSourceGraphicAlpha"
         in="fbSourceGraphic"
         values="0 0 0 -1 0 0 0 0 -1 0 0 0 0 -1 0 0 0 0 1 0"
         id="feColorMatrix4762" />
      <feColorMatrix
         id="feColorMatrix4764"
         values="1 0 0 0 0 0 1 0 0 0 0 0 1 0 0 0 0 0 5 -1 "
         result="colormatrix"
         in="fbSourceGraphic" />
      <feComposite
         in2="colormatrix"
         id="feComposite4766"
         operator="arithmetic"
         k2="0.3"
         result="composite"
         k1="0"
         k3="0"
         k4="0" />
    </filter>
  </defs>
  <metadata
     id="metadata12550">
    <rdf:RDF>
      <cc:Work
         rdf:about="">
        <dc:format>image/svg+xml</dc:format>
        <dc:type
           rdf:resource="http://purl.org/dc/dcmitype/StillImage" />
        <dc:title />
      </cc:Work>
    </rdf:RDF>
  </metadata>
  <g
     transform="matrix(0.33311212,0,0,1.0012215,-8.8858231,-161.56849)"
     id="layer1">
    <path
       style="fill:#e6e6e6;fill-opacity:1;fill-rule:nonzero;stroke:none;stroke-width:0.32258889"
       d="M 26.616839,161.37987 H 145.85344 v 100.3961 H 26.616839 Z m 0,0"
       id="path33453"
       inkscape:connector-curvature="0" />
  </g>
  <path
     style="opacity:0.12;fill:#000000;stroke-width:0.41722688"
     d="m -27.905032,99.311397 c 0,-2.289761 0,-4.579521 0,-6.869282 6.467014,-0.07951 12.934029,-0.159017 19.4010475,-0.238525 3.2994997,1.959226 7.076677,2.574666 10.7284045,3.517376 5.6063011,0.486405 11.436115,0.802799 16.926457,-0.601491 5.528049,-1.151852 3.224814,-6.400837 3.038144,-10.406865 -0.656601,-10.038134 -1.39695,-20.088164 -1.499431,-30.148191 0.506173,-1.7021 4.961363,0.867889 5.494126,-1.088142 -0.43184,2.924641 -2.664758,7.54528 2.466139,6.927401 5.529528,1.325675 1.513327,-6.781934 2.30952,-9.82029 -0.381878,-4.877445 -0.275223,-9.921968 -1.687292,-14.628212 -2.125675,3.148426 -2.846304,6.940039 -2.82017,10.979297 -0.11163,1.302538 -0.182858,4.145721 -0.318724,4.524377 -0.678361,-4.568629 -0.719965,-9.186346 -1.011583,-13.771479 0.136687,-2.895273 -1.950367,-6.657335 -3.180595,-1.821198 -0.71101,2.868775 0.315225,8.007896 -1.447727,9.49503 -1.370965,-5.945896 -6.523619,-3.101934 -10.5830053,-3.801645 -3.7778506,-1.753608 -3.946917,4.214398 -7.9151066,1.855719 -2.43828724,-0.577551 -3.584237,0.229349 -2.98907247,2.727621 1.47595883,4.025535 -3.08989853,4.392534 -5.43059423,3.550878 -1.1254025,-4.59443 -2.7019887,-9.084385 -3.8124534,-13.66372 0.4656919,-5.306645 2.5422423,-10.356717 3.0185638,-15.67233 0.6015904,-5.488791 5.3511237,-6.464597 9.7225941,-7.892795 2.4794852,-1.057034 3.4224727,-3.2947077 2.8467626,0.485538 1.0718077,5.036445 2.7089682,10.595202 6.8069665,13.9571 3.115703,-3.257626 3.859267,-9.476975 0.96685,-13.151706 -0.236961,-3.332256 2.949631,-5.8439402 2.981272,-1.520193 -1.798967,-1.316254 0.159857,3.786224 0.66505,0.925336 1.83288,2.777854 5.599034,4.973064 5.371607,8.960488 1.812744,1.742806 1.828236,6.964362 0.645315,6.870749 6.169349,1.048652 12.286144,-1.238653 18.440699,-0.681181 -1.791986,1.649679 -7.983859,0.446169 -10.723265,3.284137 -1.982885,2.199289 3.955884,1.790434 6.419001,2.9074 2.913192,-0.236041 4.786871,2.031526 6.900022,2.331714 0.418587,-4.790931 1.730073,5.094823 2.666481,0.191086 0.97568,-1.973096 0.279752,-9.336609 0.604836,-13.270881 0.241073,-10.632048 -0.08169,-21.2965216 0.688971,-31.9043762 0.882645,2.8758142 0.344301,8.79279856 0.571873,12.7906817 0.159405,33.8463445 0.06536,67.6932895 0.09083,101.5399165 -25.450838,0 -50.9016786,0 -76.352517,0 0,-2.28978 0,-4.57956 0,-6.869343 z m 73.223314,-8.585174 c 3.898627,-0.485366 -3.850383,-0.723995 -5.067086,-0.604183 -4.806533,0.202297 -9.688588,-0.128408 -14.446203,0.446247 4.676542,1.103441 9.951863,0.140866 14.860512,0.266274 1.550879,-0.03786 3.101733,-0.0779 4.652777,-0.108334 z m -0.104314,-1.648195 c 3.542298,-0.311765 -0.989421,-2.38519 -0.402545,-0.427265 -2.237972,-2.120178 -2.770192,-1.074101 -5.050775,-0.239498 -1.889069,-1.698555 -8.680883,0.329573 -3.739358,0.906888 3.065798,0.0066 6.12717,-0.215618 9.192678,-0.240125 z M 32.062632,85.06726 c -1.359131,-0.459807 -1.122087,0.774789 0,0 z m -0.721456,-1.416832 c -0.476378,-1.332471 -0.946524,1.453962 0,0 z m 3.963655,-0.834454 c -0.632742,-1.589076 -1.274035,1.32107 0,0 z m -2.103954,-0.388397 c -0.235089,-2.168867 -1.138535,1.292511 0,0 z m -1.880846,-1.016282 c 2.03725,-1.178169 4.268648,-2.028601 6.905388,-1.443688 -2.28743,-1.076921 -3.183761,-2.226712 -0.353989,-1.538412 2.711801,0.19478 3.514873,-2.175075 1.419477,-3.052144 0.63706,-3.095723 -1.085254,-2.276896 -2.136103,-1.653183 -0.642086,-3.287328 -6.228326,-2.528279 -3.557197,0.904014 -0.218811,2.461987 -2.282417,2.002583 -2.003182,0.678008 -3.235444,1.000963 -1.984061,3.99375 0.478334,3.440665 -1.361817,-0.773199 -2.966573,5.684885 -0.752728,2.66474 z M 38.8842,77.287718 c -1.145955,-0.940373 -4.515504,-1.471245 -0.792583,-1.378022 0.988063,-0.260341 1.346921,2.542595 0.792583,1.378022 z m -3.996596,-2.412257 c 1.143645,-0.410923 -2.520024,-2.897634 0.838579,-1.915397 -0.08974,1.620431 1.687174,2.770782 -1.228647,2.187593 z m 3.050972,0.145424 c 2.565687,-0.418534 -0.775145,0.807033 0,0 z m -7.849081,4.665893 c -1.055715,-2.172611 -0.850229,2.094428 0,0 z m -1.25168,-0.195521 c -1.275089,-0.922615 -1.888992,1.45781 0,0 z M 46.77857,78.11337 c -0.629459,-1.278743 -2.210185,2.024319 0,0 z M 28.420595,77.809251 c -0.47638,-1.332468 -0.946523,1.453962 0,0 z m 0.115935,-2.908505 c -1.794526,1.257904 -0.340697,2.852652 0,0 z m 17.378266,0.300837 c -2.101395,-1.485532 -0.125444,3.879235 0,0 z m -5.090394,-0.147774 c -1.359138,-0.459804 -1.122082,0.77479 0,0 z m -7.814313,-0.325124 c -1.869546,-1.357816 -3.391565,0.838869 0,0 z m -2.706003,-1.926162 c 3.525122,2.245512 0.43573,-2.606619 -1.26028,0.395388 0.207337,1.720594 0.524352,-0.293708 1.26028,-0.395388 z m 7.056429,-1.451336 c -3.551396,-2.098107 2.076805,2.371533 0,0 z m 5.245793,0.212749 c -1.275084,-0.922614 -1.888996,1.457806 0,0 z m -2.920589,-3.326284 c -0.951111,-2.183328 -1.054304,1.438067 0,0 z m 4.893725,-3.197288 c -1.359135,-0.459806 -1.122085,0.77479 0,0 z M 43.74499,61.702548 c -1.359175,-0.459789 -1.12203,0.774826 0,0 z m 1.134039,-1.869693 c -2.048396,-0.93503 0.01958,2.114285 0,0 z m -4.838617,-4.579937 c -1.450948,-1.842966 -2.205041,2.667738 0,0 z m 5.486484,0.443304 c -0.47638,-1.332468 -0.946523,1.453962 0,0 z m 0.890895,-1.842636 c 0.03086,-2.176551 -2.388848,-3.695951 -1.211507,-1.055175 0.593528,2.225442 -1.106636,2.215938 1.211507,1.055175 z m -2.142576,-1.49518 c -1.123394,-1.68142 -0.983257,1.624432 0,0 z m 1.646289,-4.408134 c -1.23453,-1.848307 -3.067951,3.684839 -0.294808,2.471288 0.994521,1.618504 0.681595,-2.239306 0.294808,-2.471288 z m -2.89797,2.322001 c -1.123388,-1.68142 -0.983263,1.624427 0,0 z m 4.040053,-6.336635 c -0.749761,-0.297902 0.280705,1.781099 0,0 z m -0.06645,-1.991811 c -2.963671,-0.626142 0.258184,2.690411 0,0 z m -0.02778,-2.907849 c -0.235086,-2.168869 -1.138537,1.292508 0,0 z M 1.9266896,36.086559 c -4.4074305,-1.867594 -1.02683077,1.530236 0,0 z M 19.96306,28.741627 c -1.359143,-0.459812 -1.122083,0.774752 0,0 z M -4.0435654,57.392821 c 4.73208691,-2.582575 -4.6360218,-0.957418 -2.1910443,-3.773758 2.3009226,0.682007 6.52535553,0.09947 3.6058228,3.753351 -0.097564,0.752095 -2.4628156,1.422815 -1.4147785,0.02041 z M 29.034449,27.621843 c -1.262946,-1.26718 -0.618303,-3.945207 0.500368,-2.319823 -0.611076,0.51427 1.355566,4.10899 -0.500368,2.319823 z m -0.300933,-3.92247 c -1.560401,-0.67437 1.293544,-2.073601 -1.112972,-2.601994 2.514436,-3.846266 2.612027,3.775242 1.112972,2.601994 z m -0.694582,-4.608837 c -2.855372,0.109407 2.791981,-2.219629 -1.184512,-2.496574 2.805012,-2.128195 4.265436,3.939255 1.184512,2.496574 z M 8.4260165,15.055534 C 7.1170131,11.873276 15.887847,14.783469 10.652378,15.55879 9.9121095,15.582176 8.9867253,15.654636 8.4260165,15.055534 Z M 27.736703,13.76575 c -0.834214,-2.134422 -4.136529,-1.577689 -1.118688,-3.281386 0.711084,-4.9585443 0.469941,2.502857 2.042477,3.662939 -0.06358,0.510855 -1.364221,0.222914 -0.923789,-0.381553 z M 8.9677249,12.477046 C 6.8556764,11.368807 4.3856606,8.3896335 7.6971023,10.989886 11.788642,12.613382 14.324895,4.9933267 13.205399,4.5572419 10.353158,4.0349611 10.191223,4.4231406 10.475004,7.2142284 6.1127671,6.8917435 11.497497,5.9452222 10.048206,3.3088791 14.505111,4.6091195 13.504956,-1.0208023 9.8174612,-0.16762834 6.2661305,-1.0998738 5.8155175,3.2795342 4.5944417,4.7372742 1.9199608,-0.85229255 9.2147874,-4.5122573 13.319248,-0.84288621 16.876495,1.3359654 15.895794,6.8823813 13.82216,9.5789974 12.962006,11.253059 11.116046,14.281737 8.9677249,12.477046 Z M 9.6453876,9.384038 c -1.5447135,-1.4729163 4.2205334,1.010697 0,0 z M 7.8982495,8.2645711 c 2.5654055,-0.4184958 -0.7750186,0.8071452 0,0 z m 1.7471381,-0.132209 c 1.7167934,-1.3082543 2.6172464,1.6548377 0,0 z M 26.021542,7.8560398 c -1.7689,-2.1326888 2.474029,0.2203873 0,0 z M 6.098958,4.37732 C 7.0650946,3.9167331 7.5113505,2.2454811 9.0649626,3.5955664 8.4838847,4.4633521 6.9854932,5.3297532 6.098958,4.37732 Z M 45.778489,-7.6527214 c 0.555437,-1.305102 1.149843,1.0532394 0,0 z"
     id="path904"
     inkscape:connector-curvature="0" />
  <text
     xml:space="preserve"
     style="font-style:normal;font-variant:normal;font-weight:normal;font-stretch:normal;font-size:4.23333311px;line-height:125%;font-family:'DejaVu Sans Mono';-inkscape-font-specification:'DejaVu Sans Mono, Normal';font-variant-ligatures:normal;font-variant-caps:normal;font-variant-numeric:normal;font-feature-settings:normal;text-align:start;letter-spacing:0px;word-spacing:0px;writing-mode:lr-tb;text-anchor:start;fill:#000000;fill-opacity:1;stroke:none;stroke-width:0.26458332px;stroke-linecap:butt;stroke-linejoin:miter;stroke-opacity:1"
     x="13.582131"
     y="99.10733"
     id="text977"
     inkscape:transform-center-x="-1.5441791"
     inkscape:transform-center-y="0.35634903"><tspan
       sodipodi:role="line"
       id="tspan975"
       x="13.582131"
       y="99.10733"
       style="font-style:normal;font-variant:normal;font-weight:normal;font-stretch:normal;font-size:4.23333311px;font-family:'DejaVu Sans Mono';-inkscape-font-specification:'DejaVu Sans Mono, Normal';font-variant-ligatures:normal;font-variant-caps:normal;font-variant-numeric:normal;font-feature-settings:normal;text-align:start;writing-mode:lr-tb;text-anchor:start;stroke-width:0.26458332px">bId°°</tspan></text>
  <text
     xml:space="preserve"
     style="font-style:normal;font-variant:normal;font-weight:normal;font-stretch:normal;font-size:4.23333311px;line-height:125%;font-family:'DejaVu Sans Mono';-inkscape-font-specification:'DejaVu Sans Mono, Normal';font-variant-ligatures:normal;font-variant-caps:normal;font-variant-numeric:normal;font-feature-settings:normal;text-align:start;letter-spacing:0px;word-spacing:0px;writing-mode:lr-tb;text-anchor:start;fill:#000000;fill-opacity:1;stroke:none;stroke-width:0.26458332px;stroke-linecap:butt;stroke-linejoin:miter;stroke-opacity:1"
     x="12.419886"
     y="5.6675167"
     id="text977-5"><tspan
       sodipodi:role="line"
       id="tspan975-3"
       x="12.419886"
       y="5.6675167"
       style="font-style:normal;font-variant:normal;font-weight:normal;font-stretch:normal;font-size:4.23333311px;font-family:'DejaVu Sans Mono';-inkscape-font-specification:'DejaVu Sans Mono, Normal';font-variant-ligatures:normal;font-variant-caps:normal;font-variant-numeric:normal;font-feature-settings:normal;text-align:start;writing-mode:lr-tb;text-anchor:start;stroke-width:0.26458332px">GarçOn</tspan></text>
  <text
     xml:space="preserve"
     style="font-style:normal;font-variant:normal;font-weight:normal;font-stretch:normal;font-size:2.82222223px;line-height:125%;font-family:Sudo;-inkscape-font-specification:'Sudo, Normal';font-variant-ligatures:normal;font-variant-caps:normal;font-variant-numeric:normal;font-feature-settings:normal;text-align:start;letter-spacing:0px;word-spacing:0px;writing-mode:lr-tb;text-anchor:start;fill:#000000;fill-opacity:1;stroke:none;stroke-width:0.26458332px;stroke-linecap:butt;stroke-linejoin:miter;stroke-opacity:1"
     x="69.335617"
     y="97.895828"
     id="text4860"><tspan
       sodipodi:role="line"
       id="tspan4858"
       x="69.335617"
       y="100.54166"
       style="stroke-width:0.26458332px" /></text>
  <flowRoot
     xml:space="preserve"
     id="flowRoot1009"
     style="font-style:normal;font-variant:normal;font-weight:normal;font-stretch:normal;font-size:10.66666698px;line-height:125%;font-family:Sudo;-inkscape-font-specification:'Sudo, Normal';font-variant-ligatures:normal;font-variant-caps:normal;font-variant-numeric:normal;font-feature-settings:normal;text-align:start;letter-spacing:0px;word-spacing:0px;writing-mode:lr-tb;text-anchor:start;fill:#000000;fill-opacity:1;stroke:none;stroke-width:1px;stroke-linecap:butt;stroke-linejoin:miter;stroke-opacity:1"><flowRegion
       id="flowRegion1011"><rect
         id="rect1013"
         width="428.17667"
         height="304.19095"
         x="181.82332"
         y="40" /></flowRegion><flowPara
       id="flowPara1015" /></flowRoot>  <text
     xml:space="preserve"
     style="font-style:normal;font-variant:normal;font-weight:normal;font-stretch:normal;font-size:2.82222223px;line-height:125%;font-family:'Arial Rounded MT Bold';-inkscape-font-specification:'Arial Rounded MT Bold, Normal';font-variant-ligatures:normal;font-variant-caps:normal;font-variant-numeric:normal;font-feature-settings:normal;text-align:start;letter-spacing:0px;word-spacing:0px;writing-mode:lr-tb;text-anchor:start;fill:#000000;fill-opacity:1;stroke:none;stroke-width:0.26458332px;stroke-linecap:butt;stroke-linejoin:miter;stroke-opacity:1"
     x="21.152052"
     y="83.886673"
     id="text1002-9-4"><tspan
       sodipodi:role="line"
       id="tspan1000-3-1"
       x="21.152052"
       y="86.429939"
       style="font-style:normal;font-variant:normal;font-weight:normal;font-stretch:normal;font-size:2.82222223px;font-family:'Arial Rounded MT Bold';-inkscape-font-specification:'Arial Rounded MT Bold, Normal';font-variant-ligatures:normal;font-variant-caps:normal;font-variant-numeric:normal;font-feature-settings:normal;text-align:start;writing-mode:lr-tb;text-anchor:start;fill:#ffffff;fill-opacity:1;stroke-width:0.26458332px" /></text>
  <g
     id="g944"
     clip-path="none"
     transform="translate(0.1259884)">
    <g
       inkscape:label="Clip"
       id="g942">
      <rect
         ry="1.1370114"
         y="83.987396"
         x="2.5694227"
         height="10.377027"
         width="6.9770179"
         id="rect998-40-0"
         style="opacity:1;fill:#000000;fill-opacity:1;fill-rule:evenodd;stroke:#000000;stroke-width:0.72085714;stroke-linecap:butt;stroke-linejoin:round;stroke-miterlimit:4;stroke-dasharray:none;stroke-dashoffset:0;stroke-opacity:1" />
      <text
         id="text1002-1-2"
         y="86.703468"
         x="4.3167806"
         style="font-style:normal;font-variant:normal;font-weight:normal;font-stretch:normal;font-size:2.82222223px;line-height:125%;font-family:'DejaVu Sans Mono';-inkscape-font-specification:'DejaVu Sans Mono, Normal';font-variant-ligatures:normal;font-variant-caps:normal;font-variant-numeric:normal;font-feature-settings:normal;text-align:start;letter-spacing:0px;word-spacing:0px;writing-mode:lr-tb;text-anchor:start;fill:#000000;fill-opacity:1;stroke:#ffffff;stroke-width:0.13229166;stroke-linecap:butt;stroke-linejoin:miter;stroke-miterlimit:4;stroke-dasharray:none;stroke-opacity:1"
         xml:space="preserve"><tspan
           style="font-style:normal;font-variant:normal;font-weight:normal;font-stretch:normal;font-size:2.82222223px;font-family:'DejaVu Sans Mono';-inkscape-font-specification:'DejaVu Sans Mono, Normal';font-variant-ligatures:normal;font-variant-caps:normal;font-variant-numeric:normal;font-feature-settings:normal;text-align:start;writing-mode:lr-tb;text-anchor:start;fill:#ffffff;fill-opacity:1;stroke:#ffffff;stroke-width:0.13229166;stroke-miterlimit:4;stroke-dasharray:none;stroke-opacity:1"
           y="86.703468"
           x="4.3167806"
           id="tspan1000-7-5"
           sodipodi:role="line">IN</tspan></text>
    </g>
  </g>
  <g
     id="g893"
     clip-path="none" />
</svg>
