<?xml version="1.0" encoding="UTF-8" standalone="no"?>
<svg
   xmlns:osb="http://www.openswatchbook.org/uri/2009/osb"
   xmlns:dc="http://purl.org/dc/elements/1.1/"
   xmlns:cc="http://creativecommons.org/ns#"
   xmlns:rdf="http://www.w3.org/1999/02/22-rdf-syntax-ns#"
   xmlns:svg="http://www.w3.org/2000/svg"
   xmlns="http://www.w3.org/2000/svg"
   xmlns:sodipodi="http://sodipodi.sourceforge.net/DTD/sodipodi-0.dtd"
   xmlns:inkscape="http://www.inkscape.org/namespaces/inkscape"
   width="150"
   height="380"
   viewBox="0 0 39.6875 100.54166"
   version="1.1"
   id="svg12553"
   sodipodi:docname="GARCON.svg"
   inkscape:version="0.92.3 (2405546, 2018-03-11)">
  <sodipodi:namedview
     pagecolor="#ffffff"
     bordercolor="#666666"
     borderopacity="1"
     objecttolerance="10"
     gridtolerance="10"
     guidetolerance="10"
     inkscape:pageopacity="0"
     inkscape:pageshadow="2"
     inkscape:window-width="3840"
     inkscape:window-height="2066"
     id="namedview39"
     showgrid="false"
     inkscape:zoom="3.5132042"
     inkscape:cx="-160.52562"
     inkscape:cy="172.00444"
     inkscape:window-x="-11"
     inkscape:window-y="-11"
     inkscape:window-maximized="1"
     inkscape:current-layer="svg12553" />
  <defs
     id="defs12547">
    <linearGradient
       osb:paint="solid"
       id="linearGradient4708">
      <stop
         id="stop4706"
         offset="0"
         style="stop-color:#ececec;stop-opacity:1;" />
    </linearGradient>
    <filter
       id="filter4696"
       style="color-interpolation-filters:sRGB">
      <feColorMatrix
         id="feColorMatrix4692"
         result="colormatrix"
         values="0 0 0 0 1 0 0 0 0 0 0 0 0 0 0 1 0 0 0 0 0 "
         in="SourceGraphic" />
      <feBlend
         id="feBlend4694"
         result="fbSourceGraphic"
         mode="multiply"
         in2="BackgroundImage" />
      <feColorMatrix
         id="feColorMatrix4762"
         values="0 0 0 -1 0 0 0 0 -1 0 0 0 0 -1 0 0 0 0 1 0"
         in="fbSourceGraphic"
         result="fbSourceGraphicAlpha" />
      <feColorMatrix
         in="fbSourceGraphic"
         result="colormatrix"
         values="1 0 0 0 0 0 1 0 0 0 0 0 1 0 0 0 0 0 5 -1 "
         id="feColorMatrix4764" />
      <feComposite
         k4="0"
         k3="0"
         k1="0"
         result="composite"
         k2="0.3"
         operator="arithmetic"
         id="feComposite4766"
         in2="colormatrix" />
    </filter>
  </defs>
  <metadata
     id="metadata12550">
    <rdf:RDF>
      <cc:Work
         rdf:about="">
        <dc:format>image/svg+xml</dc:format>
        <dc:type
           rdf:resource="http://purl.org/dc/dcmitype/StillImage" />
        <dc:title />
      </cc:Work>
    </rdf:RDF>
  </metadata>
  <g
     id="layer1"
     transform="matrix(0.33311212,0,0,1.0012215,-8.8858231,-161.56849)">
    <path
       id="path33453"
       d="M 26.616839,161.37987 H 145.85344 v 100.3961 H 26.616839 Z m 0,0"
       style="fill:#e6e6e6;fill-opacity:1;fill-rule:nonzero;stroke:none;stroke-width:0.32258889"
       inkscape:connector-curvature="0" />
  </g>
  <path
     id="path904"
     d="m 0.13244381,94.487757 c 0,-2.013144 0,-4.026286 0,-6.039429 3.35188409,-0.06991 6.70376809,-0.139807 10.05524619,-0.20971 1.710013,1.722539 3.667442,2.263631 5.560786,3.092455 2.905723,0.427644 5.927448,0.705815 8.772737,-0.528827 2.865163,-1.012701 1.671075,-5.627575 1.574542,-9.149649 -0.340705,-8.825464 -0.721969,-17.661386 -0.778753,-26.506098 0.259584,-1.496475 2.571508,0.763042 2.847316,-0.956688 -0.227136,2.571326 -1.381476,6.633763 1.278454,6.090527 2.865974,1.165525 0.786865,-5.962633 1.197333,-8.633936 -0.194688,-4.288219 -0.146016,-8.723332 -0.874475,-12.861031 -1.101612,2.768076 -1.475575,6.101638 -1.461785,9.652928 -0.05784,1.145183 -0.09734,3.644891 -0.16224,3.977803 -0.348817,-4.016709 -0.373153,-8.076577 -0.527281,-12.107797 0.07082,-2.545505 -1.010757,-5.853086 -1.648361,-1.601185 -0.365041,2.522209 0.16224,7.040491 -0.754418,8.34797 -0.713857,-5.227594 -3.381087,-2.727201 -5.485343,-3.342383 -1.95824,-1.54176 -2.04585,3.705273 -4.102246,1.631537 -1.263851,-0.507779 -1.857651,0.201643 -1.549394,2.398107 0.762529,3.539225 -1.601312,3.861888 -2.814869,3.121909 -0.584065,-4.039393 -1.4001336,-7.986933 -1.9760865,-12.013055 0.2433604,-4.665569 1.3173905,-9.105559 1.5648075,-13.779013 0.308256,-4.82571 2.773497,-5.683632 5.039183,-6.939295 1.284943,-0.929338 1.774097,-2.896686 1.475575,0.426882 0.551617,4.42801 1.40419,9.315234 3.527915,12.270993 1.615102,-2.864084 2.000422,-8.332095 0.502945,-11.562896 -0.12168,-2.929698 1.528303,-5.137955 1.545338,-1.336544 -0.93207,-1.157242 0.08112,3.328824 0.340705,0.813549 0.949917,2.442272 2.901667,4.372287 2.784043,7.878005 0.939371,1.532263 0.947483,6.123022 0.332593,6.040718 3.197755,0.921969 6.36793,-1.089015 9.557574,-0.598889 -0.928825,1.450387 -4.137938,0.392268 -5.55754,2.887392 -1.027793,1.9336 2.050717,1.574138 3.326736,2.556167 1.509646,-0.207525 2.480654,1.786105 3.575776,2.050029 0.219024,-4.212157 0.896377,4.479335 1.382287,0.168001 0.502945,-1.734733 0.146016,-8.208687 0.316369,-11.667674 0.12168,-9.347629 -0.04226,-18.7237663 0.356928,-28.0501245 0.454273,2.5283975 0.178465,7.7305725 0.300145,11.2454855 0.08112,29.757491 0.03391,59.515509 0.04705,89.273249 -13.190783,0 -26.381566,0 -39.57234927,0 0,-2.013161 0,-4.02632 0,-6.039483 z M 38.08304,86.939726 c 2.020702,-0.42673 -1.995556,-0.636531 -2.625859,-0.531194 -2.491199,0.177859 -5.021337,-0.112895 -7.487389,0.392338 2.42387,0.970138 5.157619,0.123848 7.702357,0.234106 0.80309,-0.03329 1.607801,-0.06849 2.411702,-0.09525 z m -0.05411,-1.449082 c 1.835751,-0.274102 -0.511054,-2.097044 -0.21091,-0.375649 -1.160018,-1.864047 -1.435826,-0.944343 -2.617747,-0.210565 -0.97912,-1.493359 -4.498922,0.289759 -1.93796,0.797331 1.589144,0.0058 3.175854,-0.18957 4.764186,-0.211117 z m -6.816526,-3.526241 c -0.705745,-0.40426 -0.584064,0.681188 0,0 z m -0.373152,-1.245671 c -0.243361,-1.1715 -0.486721,1.278315 0,0 z m 2.054773,-0.733646 c -0.324481,-1.397105 -0.657073,1.161477 0,0 z M 31.803773,79.64361 c -0.12168,-1.906855 -0.592177,1.136368 0,0 z m -0.975064,-0.893508 c 1.056184,-1.03584 2.212146,-1.783534 3.579021,-1.269282 -1.185166,-0.946823 -1.649984,-1.957711 -0.186577,-1.352562 1.405812,0.171249 1.821959,-1.912312 0.738194,-2.683426 0.332592,-2.721739 -0.559729,-2.001832 -1.10729,-1.453468 -0.332593,-2.890198 -3.22777,-2.222847 -1.843861,0.794804 -0.113568,2.164562 -1.182732,1.760657 -1.038338,0.5961 -1.676753,0.880041 -1.028603,3.511279 0.251473,3.02501 -0.705745,-0.679791 -1.537227,4.998115 -0.389377,2.342824 z m 3.920536,-3.625424 c -0.592177,-0.82677 -2.340315,-1.293509 -0.413712,-1.211548 0.511057,-0.22889 0.697633,2.235433 0.413712,1.211548 z m -2.070997,-2.120841 c 0.592177,-0.36128 -1.306034,-2.547581 0.438049,-1.684004 -0.04656,1.424672 0.874475,2.436053 -0.632737,1.923317 z m 1.581032,0.127856 c 1.329559,-0.367972 -0.405601,0.709538 0,0 z m -4.068175,4.102224 c -0.543505,-1.910146 -0.438049,1.841408 0,0 z m -0.648961,-0.171901 c -0.657073,-0.811157 -0.97912,1.281697 0,0 z m 9.298477,-1.211429 c -0.324481,-1.124263 -1.145417,1.779768 0,0 z m -9.514662,-0.26738 c -0.243361,-1.171497 -0.486721,1.278314 0,0 z m 0.06003,-2.557139 c -0.930448,1.105941 -0.178465,2.508034 0,0 z m 9.006931,0.264494 c -1.089444,-1.306071 -0.06506,3.410599 0,0 z M 35.754892,73.16064 c -0.705745,-0.404257 -0.584065,0.681191 0,0 z m -4.050329,-0.285847 c -0.968574,-1.193783 -1.757873,0.737528 0,0 z m -1.402567,-1.69347 c 1.826826,1.974241 0.227137,-2.291722 -0.657073,0.347623 0.105456,1.512736 0.267697,-0.258226 0.657073,-0.347623 z m 3.657707,-1.276005 c -1.840616,-1.844642 1.076464,2.085037 0,0 z m 2.719147,0.187048 c -0.657073,-0.811156 -0.97912,1.281693 0,0 z m -1.513702,-2.924448 c -0.494832,-1.919568 -0.543505,1.26434 0,0 z m 2.536627,-2.811035 c -0.705745,-0.404258 -0.584065,0.681191 0,0 z m -0.429937,-2.934586 c -0.705745,-0.404244 -0.584065,0.681221 0,0 z m 0.584065,-1.643822 c -1.061862,-0.822073 0.01014,1.858865 0,0 z M 35.34848,55.751823 c -0.754417,-1.620324 -1.142983,2.345458 0,0 z m 2.843261,0.38975 c -0.243361,-1.171497 -0.486721,1.278314 0,0 z m 0.462385,-1.620034 c 0.01598,-1.91361 -1.237894,-3.249456 -0.624626,-0.927703 0.308257,1.956594 -0.575953,1.948238 0.624626,0.927703 z m -1.110535,-1.314553 c -0.584065,-1.478294 -0.511057,1.42819 0,0 z m 0.853384,-3.875603 c -0.640849,-1.62502 -1.589955,3.239686 -0.154129,2.172741 0.519169,1.422978 0.356929,-1.968784 0.154129,-2.172741 z m -1.502345,2.041488 c -0.584065,-1.478294 -0.511057,1.428186 0,0 z m 2.09371,-5.571129 c -0.389376,-0.261914 0.146017,1.565931 0,0 z m -0.03448,-1.751187 c -1.535604,-0.5505 0.129793,2.365392 0,0 z M 38.9395,41.493992 c -0.12168,-1.906856 -0.592177,1.136365 0,0 z m -23.34499,-2.59311 c -2.284343,-1.641977 -0.535393,1.345374 0,0 z m 9.34796,-6.457617 c -0.705745,-0.404264 -0.584065,0.681156 0,0 z M 12.500263,57.633212 c 2.452262,-2.270584 -2.402778,-0.841756 -1.135682,-3.317864 1.192466,0.599616 3.381899,0.08745 1.869008,3.299922 -0.05062,0.661237 -1.276831,1.25093 -0.730081,0.01794 z M 29.644112,31.458758 c -0.657073,-1.114097 -0.324481,-3.468601 0.259584,-2.039574 -0.316368,0.452143 0.705746,3.612598 -0.259584,2.039574 z m -0.154128,-3.448611 c -0.811202,-0.592902 0.673297,-1.823097 -0.575953,-2.287657 1.302789,-3.381612 1.353895,3.319169 0.575953,2.287657 z m -0.356929,-4.05206 c -1.479631,0.09619 1.447183,-1.951484 -0.616513,-2.194972 1.453673,-1.871095 2.210524,3.463368 0.616513,2.194972 z M 18.967972,20.410538 c -0.681409,-2.79782 3.866997,-0.239197 1.153528,0.44246 -0.381265,0.02056 -0.863118,0.08427 -1.153528,-0.44246 z m 10.00844,-1.13397 c -0.429937,-1.876569 -2.144005,-1.387094 -0.575953,-2.884973 0.365041,-4.359521 0.24336,2.200496 1.058618,3.220433 -0.03294,0.44914 -0.705745,0.195984 -0.478609,-0.33546 z m -9.727683,-1.13302 c -1.094311,-0.974357 -2.374387,-3.593627 -0.657074,-1.307502 2.120481,1.427368 3.435438,-5.272136 2.854618,-5.655539 -1.478009,-0.459186 -1.562374,-0.117901 -1.415546,2.336006 -2.260819,-0.283527 0.527281,-1.115703 -0.219025,-3.433559 2.310302,1.143163 1.791944,-3.8066279 -0.12168,-3.0565228 C 17.849406,6.2068069 17.61578,10.057155 16.983043,11.33879 15.5967,6.4244787 19.37771,3.206661 21.50468,6.4327487 c 1.84386,1.9156325 1.335237,6.7920063 0.259584,9.1628533 -0.446161,1.471825 -1.402567,4.13462 -2.516347,2.547946 z m 0.348816,-2.719353 c -0.803089,-1.294978 2.186999,0.888599 0,0 z m -0.905301,-0.984228 c 1.329559,-0.367939 -0.4056,0.709637 0,0 z m 0.905301,-0.116237 c 0.889888,-1.150209 1.356329,1.454923 0,0 z m 8.487519,-0.242941 c -0.916658,-1.875046 1.282509,0.193763 0,0 z M 17.756199,11.022321 c 0.502945,-0.404945 0.730081,-1.8742994 1.537227,-0.687313 -0.300145,0.762952 -1.078087,1.524686 -1.537227,0.687313 z M 38.321533,0.44558498 c 0.28392,-1.14743737 0.592177,0.92600142 0,0 z"
     style="opacity:0.12000002;fill:#000000;stroke-width:0.41722694"
     inkscape:connector-curvature="0" />
  <g
     id="text4860"
     style="font-style:normal;font-variant:normal;font-weight:normal;font-stretch:normal;font-size:2.82222223px;line-height:125%;font-family:Sudo;-inkscape-font-specification:'Sudo, Normal';font-variant-ligatures:normal;font-variant-caps:normal;font-variant-numeric:normal;font-feature-settings:normal;text-align:start;letter-spacing:0px;word-spacing:0px;writing-mode:lr-tb;text-anchor:start;fill:#000000;fill-opacity:1;stroke:none;stroke-width:0.26458332px;stroke-linecap:butt;stroke-linejoin:miter;stroke-opacity:1" />
  <g
     id="flowRoot1009"
     style="font-style:normal;font-variant:normal;font-weight:normal;font-stretch:normal;font-size:10.66666698px;line-height:125%;font-family:Sudo;-inkscape-font-specification:'Sudo, Normal';font-variant-ligatures:normal;font-variant-caps:normal;font-variant-numeric:normal;font-feature-settings:normal;text-align:start;letter-spacing:0px;word-spacing:0px;writing-mode:lr-tb;text-anchor:start;fill:#000000;fill-opacity:1;stroke:none;stroke-width:1px;stroke-linecap:butt;stroke-linejoin:miter;stroke-opacity:1" />
  <g
     id="text1002-9-4"
     style="font-style:normal;font-variant:normal;font-weight:normal;font-stretch:normal;font-size:2.82222223px;line-height:125%;font-family:'Arial Rounded MT Bold';-inkscape-font-specification:'Arial Rounded MT Bold, Normal';font-variant-ligatures:normal;font-variant-caps:normal;font-variant-numeric:normal;font-feature-settings:normal;text-align:start;letter-spacing:0px;word-spacing:0px;writing-mode:lr-tb;text-anchor:start;fill:#000000;fill-opacity:1;stroke:none;stroke-width:0.26458332px;stroke-linecap:butt;stroke-linejoin:miter;stroke-opacity:1" />
  <g
     clip-path="none"
     id="g893" />
  <g
     aria-label="GarçOn"
     style="font-style:normal;font-variant:normal;font-weight:normal;font-stretch:normal;font-size:2.82222223px;line-height:125%;font-family:'DejaVu Sans Mono';-inkscape-font-specification:'DejaVu Sans Mono, Normal';font-variant-ligatures:normal;font-variant-caps:normal;font-variant-numeric:normal;font-feature-settings:normal;text-align:start;letter-spacing:0px;word-spacing:0px;writing-mode:lr-tb;text-anchor:start;fill:#000000;fill-opacity:1;stroke:none;stroke-width:0.26458332px;stroke-linecap:butt;stroke-linejoin:miter;stroke-opacity:1"
     id="text848"
     transform="translate(0,-1.1447961)">
    <path
       d="m 14.959293,5.3822634 q -0.252181,0.1157552 -0.551904,0.2025716 -0.297656,0.084749 -0.576709,0.084749 -0.359668,0 -0.659391,-0.099219 Q 12.871565,5.4711468 12.660726,5.2727093 12.447819,5.0722048 12.332063,4.7724815 12.216308,4.4706911 12.216308,4.067615 q 0,-0.7379394 0.429948,-1.1637532 0.432015,-0.4278808 1.184424,-0.4278808 0.262516,0 0.535368,0.064079 0.274918,0.062012 0.591178,0.2129069 v 0.4857585 h -0.03721 Q 14.85594,3.1891157 14.733984,3.1085005 14.612028,3.0278852 14.494205,2.9741417 14.351578,2.910063 14.169677,2.8687218 13.989843,2.8253136 13.7604,2.8253136 q -0.516764,0 -0.818555,0.3327962 -0.299723,0.3307292 -0.299723,0.8971028 0,0.5973796 0.314193,0.9301758 0.314192,0.3307291 0.855761,0.3307291 0.198438,0 0.394808,-0.039274 0.198438,-0.039274 0.347266,-0.1012858 V 4.4210818 h -0.824756 v -0.359668 h 1.229899 z"
       style="font-style:normal;font-variant:normal;font-weight:normal;font-stretch:normal;font-size:4.23333311px;font-family:sans-serif;-inkscape-font-specification:'sans-serif, Normal';font-variant-ligatures:normal;font-variant-caps:normal;font-variant-numeric:normal;font-feature-settings:normal;text-align:start;writing-mode:lr-tb;text-anchor:start;stroke-width:0.26458332px"
       id="path894"
       inkscape:connector-curvature="0" />
    <path
       d="m 17.437695,5.6096396 h -0.38654 V 5.3636598 q -0.05168,0.03514 -0.14056,0.099219 -0.08682,0.062012 -0.169498,0.099219 -0.09715,0.047542 -0.223243,0.078548 -0.12609,0.033073 -0.295589,0.033073 -0.312125,0 -0.529166,-0.2067057 -0.217041,-0.2067057 -0.217041,-0.5270996 0,-0.2625162 0.111621,-0.4237467 0.113688,-0.1632975 0.322461,-0.2563151 0.210839,-0.093018 0.506429,-0.1260905 0.295589,-0.033073 0.634586,-0.049609 v -0.059945 q 0,-0.1322917 -0.04754,-0.2191081 -0.04547,-0.086816 -0.132292,-0.1364258 -0.08268,-0.047542 -0.198437,-0.064079 -0.115756,-0.016537 -0.241846,-0.016537 -0.152962,0 -0.341064,0.041341 -0.188103,0.039274 -0.388607,0.1157552 h -0.02067 v -0.394808 q 0.113688,-0.031006 0.328662,-0.068213 0.214974,-0.037207 0.423747,-0.037207 0.243913,0 0.423747,0.041341 0.181901,0.039274 0.314192,0.1364257 0.130225,0.095085 0.198438,0.2459798 0.06821,0.1508952 0.06821,0.3741374 z M 17.051155,5.0411989 V 4.3983441 q -0.177767,0.010335 -0.419612,0.031006 -0.239779,0.020671 -0.380339,0.059945 -0.167432,0.047542 -0.270784,0.1488281 -0.103353,0.099219 -0.103353,0.2749186 0,0.1984375 0.119889,0.2997233 0.119889,0.099219 0.365869,0.099219 0.204639,0 0.374137,-0.078548 0.169499,-0.080615 0.314193,-0.1922372 z"
       style="font-style:normal;font-variant:normal;font-weight:normal;font-stretch:normal;font-size:4.23333311px;font-family:sans-serif;-inkscape-font-specification:'sans-serif, Normal';font-variant-ligatures:normal;font-variant-caps:normal;font-variant-numeric:normal;font-feature-settings:normal;text-align:start;writing-mode:lr-tb;text-anchor:start;stroke-width:0.26458332px"
       id="path896"
       inkscape:connector-curvature="0" />
    <path
       d="m 19.630843,3.7244835 h -0.02067 q -0.08682,-0.020671 -0.169499,-0.028939 -0.08062,-0.010335 -0.192236,-0.010335 -0.179834,0 -0.347266,0.080615 -0.167431,0.078548 -0.32246,0.2046387 V 5.6096396 H 18.190104 V 3.3007368 h 0.388607 v 0.3410644 q 0.23151,-0.1860351 0.40721,-0.2625163 0.177767,-0.078548 0.361735,-0.078548 0.101286,0 0.146761,0.0062 0.04547,0.00413 0.136426,0.018604 z"
       style="font-style:normal;font-variant:normal;font-weight:normal;font-stretch:normal;font-size:4.23333311px;font-family:sans-serif;-inkscape-font-specification:'sans-serif, Normal';font-variant-ligatures:normal;font-variant-caps:normal;font-variant-numeric:normal;font-feature-settings:normal;text-align:start;writing-mode:lr-tb;text-anchor:start;stroke-width:0.26458332px"
       id="path898"
       inkscape:connector-curvature="0" />
    <path
       d="m 21.708235,5.4649456 q -0.06821,0.031006 -0.148828,0.064079 -0.07855,0.031006 -0.138493,0.049609 0.0062,0.039274 0.01034,0.097152 0.0062,0.059945 0.0062,0.1178222 0,0.3348633 -0.190169,0.5126302 -0.188102,0.1777669 -0.489892,0.1777669 -0.07648,0 -0.196371,-0.014469 -0.119889,-0.014469 -0.212907,-0.039274 V 6.0995322 h 0.0186 q 0.05374,0.020671 0.144694,0.047542 0.09095,0.026872 0.194303,0.026872 0.214974,0 0.31626,-0.080615 0.101286,-0.080615 0.101286,-0.2625162 0,-0.045475 -0.0041,-0.093018 -0.0021,-0.047542 -0.0062,-0.088884 -0.03307,0.00413 -0.06408,0.00827 -0.02894,0.00413 -0.08062,0.00413 -0.250113,0 -0.458886,-0.072347 -0.208773,-0.074414 -0.357601,-0.2232422 -0.150895,-0.1488281 -0.233578,-0.3762044 -0.08268,-0.2273763 -0.08268,-0.5312337 0,-0.5663737 0.310059,-0.8888346 0.312125,-0.3224609 0.822688,-0.3224609 0.198438,0 0.388607,0.05581 0.192237,0.055811 0.3514,0.1364258 v 0.432015 h -0.02067 Q 21.50983,3.7327481 21.319661,3.6583341 q -0.188102,-0.074414 -0.367936,-0.074414 -0.330729,0 -0.522965,0.2232422 -0.19017,0.2211751 -0.19017,0.651123 0,0.4175455 0.186035,0.6428548 0.188103,0.2232422 0.5271,0.2232422 0.117822,0 0.239779,-0.031006 0.121956,-0.031006 0.219108,-0.080615 0.08475,-0.043408 0.159163,-0.090951 0.07441,-0.049609 0.117822,-0.084749 h 0.02067 z"
       style="font-style:normal;font-variant:normal;font-weight:normal;font-stretch:normal;font-size:4.23333311px;font-family:sans-serif;-inkscape-font-specification:'sans-serif, Normal';font-variant-ligatures:normal;font-variant-caps:normal;font-variant-numeric:normal;font-feature-settings:normal;text-align:start;writing-mode:lr-tb;text-anchor:start;stroke-width:0.26458332px"
       id="path900"
       inkscape:connector-curvature="0" />
    <path
       d="m 24.533902,2.8852583 q 0.188103,0.2067057 0.287321,0.506429 0.101286,0.2997233 0.101286,0.6800618 0,0.3803385 -0.103353,0.6821289 -0.101286,0.2997233 -0.285254,0.5002278 -0.190169,0.2087728 -0.450618,0.3141927 -0.258382,0.1054199 -0.591178,0.1054199 -0.324528,0 -0.591179,-0.107487 -0.264583,-0.1074869 -0.450618,-0.3121256 -0.186035,-0.2046387 -0.287321,-0.5022949 -0.09922,-0.2976562 -0.09922,-0.6800618 0,-0.3762044 0.09922,-0.6738606 0.09922,-0.2997233 0.289388,-0.5126302 0.181901,-0.2025716 0.450618,-0.3100586 0.270785,-0.107487 0.589112,-0.107487 0.330729,0 0.593245,0.1095541 0.264583,0.1074869 0.448551,0.3079915 z m -0.03721,1.1864908 q 0,-0.5994466 -0.268717,-0.9239746 -0.268718,-0.326595 -0.733805,-0.326595 -0.469222,0 -0.73794,0.326595 -0.26665,0.324528 -0.26665,0.9239746 0,0.6056478 0.272851,0.9281087 0.272852,0.3203938 0.731739,0.3203938 0.458886,0 0.729671,-0.3203938 0.272851,-0.3224609 0.272851,-0.9281087 z"
       style="font-style:normal;font-variant:normal;font-weight:normal;font-stretch:normal;font-size:4.23333311px;font-family:sans-serif;-inkscape-font-specification:'sans-serif, Normal';font-variant-ligatures:normal;font-variant-caps:normal;font-variant-numeric:normal;font-feature-settings:normal;text-align:start;writing-mode:lr-tb;text-anchor:start;stroke-width:0.26458332px"
       id="path902"
       inkscape:connector-curvature="0" />
    <path
       d="M 27.471191,5.6096396 H 27.082584 V 4.2949913 q 0,-0.1591634 -0.0186,-0.2976563 -0.0186,-0.1405598 -0.06821,-0.219108 -0.05168,-0.086816 -0.148828,-0.1281576 -0.09715,-0.043408 -0.252181,-0.043408 -0.159163,0 -0.332796,0.078548 -0.173633,0.078548 -0.332796,0.2005046 V 5.6096396 H 25.540559 V 3.3007368 h 0.388607 v 0.2563151 q 0.181901,-0.1508952 0.376204,-0.2356446 0.194304,-0.084749 0.398942,-0.084749 0.374138,0 0.570508,0.2253092 0.196371,0.2253093 0.196371,0.649056 z"
       style="font-style:normal;font-variant:normal;font-weight:normal;font-stretch:normal;font-size:4.23333311px;font-family:sans-serif;-inkscape-font-specification:'sans-serif, Normal';font-variant-ligatures:normal;font-variant-caps:normal;font-variant-numeric:normal;font-feature-settings:normal;text-align:start;writing-mode:lr-tb;text-anchor:start;stroke-width:0.26458332px"
       id="path905"
       inkscape:connector-curvature="0" />
  </g>
  <g
     aria-label="bId°°"
     style="font-style:normal;font-variant:normal;font-weight:normal;font-stretch:normal;font-size:2.82222223px;line-height:125%;font-family:'DejaVu Sans Mono';-inkscape-font-specification:'DejaVu Sans Mono, Normal';font-variant-ligatures:normal;font-variant-caps:normal;font-variant-numeric:normal;font-feature-settings:normal;text-align:start;letter-spacing:0px;word-spacing:0px;writing-mode:lr-tb;text-anchor:start;fill:#000000;fill-opacity:1;stroke:none;stroke-width:0.26458332px;stroke-linecap:butt;stroke-linejoin:miter;stroke-opacity:1"
     id="text848-1"
     transform="translate(0,0.05146768)">
    <path
       d="m 16.398999,97.931174 q 0,0.289388 -0.08268,0.520898 -0.08062,0.231511 -0.219108,0.388607 -0.146761,0.163297 -0.322461,0.24598 -0.1757,0.08062 -0.38654,0.08062 -0.19637,0 -0.343131,-0.04754 -0.146761,-0.04548 -0.289388,-0.124024 l -0.02481,0.107487 h -0.363802 v -3.216341 h 0.388607 v 1.149284 q 0.163297,-0.134359 0.347265,-0.219108 0.183968,-0.08682 0.413412,-0.08682 0.409277,0 0.644922,0.314192 0.237711,0.314193 0.237711,0.886768 z m -0.401009,0.01033 q 0,-0.413411 -0.136426,-0.626318 -0.136425,-0.214974 -0.440283,-0.214974 -0.169499,0 -0.343131,0.07441 -0.173633,0.07235 -0.322461,0.188102 v 1.322917 q 0.165364,0.07441 0.283187,0.103352 0.119889,0.02894 0.270784,0.02894 0.322461,0 0.504362,-0.21084 0.183968,-0.212906 0.183968,-0.665592 z"
       style="font-style:normal;font-variant:normal;font-weight:normal;font-stretch:normal;font-size:4.23333311px;font-family:sans-serif;-inkscape-font-specification:'sans-serif, Normal';font-variant-ligatures:normal;font-variant-caps:normal;font-variant-numeric:normal;font-feature-settings:normal;text-align:start;writing-mode:lr-tb;text-anchor:start;stroke-width:0.26458332px"
       id="path908"
       inkscape:connector-curvature="0" />
    <path
       d="m 18.120858,99.103195 h -1.21543 v -0.314193 h 0.403076 V 96.33954 h -0.403076 v -0.314193 h 1.21543 v 0.314193 h -0.403076 v 2.449462 h 0.403076 z"
       style="font-style:normal;font-variant:normal;font-weight:normal;font-stretch:normal;font-size:4.23333311px;font-family:sans-serif;-inkscape-font-specification:'sans-serif, Normal';font-variant-ligatures:normal;font-variant-caps:normal;font-variant-numeric:normal;font-feature-settings:normal;text-align:start;writing-mode:lr-tb;text-anchor:start;stroke-width:0.26458332px"
       id="path910"
       inkscape:connector-curvature="0" />
    <path
       d="M 20.663338,99.103195 H 20.274731 V 98.86135 q -0.167431,0.144694 -0.349332,0.225309 -0.181901,0.08062 -0.394808,0.08062 -0.413412,0 -0.657324,-0.318327 -0.241846,-0.318327 -0.241846,-0.882633 0,-0.293522 0.08268,-0.522966 0.08475,-0.229443 0.227377,-0.390674 0.140559,-0.157096 0.326595,-0.239778 0.188102,-0.08268 0.388606,-0.08268 0.181901,0 0.322461,0.03927 0.14056,0.03721 0.295589,0.117822 v -1.000456 h 0.388607 z m -0.388607,-0.568441 v -1.324983 q -0.157096,-0.07028 -0.281119,-0.09715 -0.124024,-0.02687 -0.270785,-0.02687 -0.326595,0 -0.508496,0.227377 -0.181901,0.227376 -0.181901,0.644922 0,0.411344 0.14056,0.626318 0.14056,0.212907 0.450618,0.212907 0.165365,0 0.334864,-0.07235 0.169498,-0.07441 0.316259,-0.190171 z"
       style="font-style:normal;font-variant:normal;font-weight:normal;font-stretch:normal;font-size:4.23333311px;font-family:sans-serif;-inkscape-font-specification:'sans-serif, Normal';font-variant-ligatures:normal;font-variant-caps:normal;font-variant-numeric:normal;font-feature-settings:normal;text-align:start;writing-mode:lr-tb;text-anchor:start;stroke-width:0.26458332px"
       id="path912"
       inkscape:connector-curvature="0" />
    <path
       d="m 23.02185,96.796359 q 0,0.347266 -0.239779,0.587045 -0.239778,0.239778 -0.589111,0.239778 -0.349332,0 -0.589111,-0.237711 -0.239779,-0.239779 -0.239779,-0.589112 0,-0.347265 0.239779,-0.587044 0.239779,-0.239778 0.589111,-0.239778 0.3514,0 0.589111,0.239778 0.239779,0.239779 0.239779,0.587044 z m -0.341064,0 q 0,-0.210839 -0.138493,-0.353466 -0.138493,-0.144694 -0.349333,-0.144694 -0.21084,0 -0.349332,0.144694 -0.138493,0.142627 -0.138493,0.353466 0,0.214974 0.14056,0.357601 0.142627,0.14056 0.347265,0.14056 0.21084,0 0.349333,-0.144694 0.138493,-0.144694 0.138493,-0.353467 z"
       style="font-style:normal;font-variant:normal;font-weight:normal;font-stretch:normal;font-size:4.23333311px;font-family:sans-serif;-inkscape-font-specification:'sans-serif, Normal';font-variant-ligatures:normal;font-variant-caps:normal;font-variant-numeric:normal;font-feature-settings:normal;text-align:start;writing-mode:lr-tb;text-anchor:start;stroke-width:0.26458332px"
       id="path914"
       inkscape:connector-curvature="0" />
    <path
       d="m 25.320417,96.796359 q 0,0.347266 -0.239778,0.587045 -0.239779,0.239778 -0.589112,0.239778 -0.349332,0 -0.589111,-0.237711 -0.239778,-0.239779 -0.239778,-0.589112 0,-0.347265 0.239778,-0.587044 0.239779,-0.239778 0.589111,-0.239778 0.3514,0 0.589112,0.239778 0.239778,0.239779 0.239778,0.587044 z m -0.341064,0 q 0,-0.210839 -0.138493,-0.353466 -0.138493,-0.144694 -0.349333,-0.144694 -0.210839,0 -0.349332,0.144694 -0.138493,0.142627 -0.138493,0.353466 0,0.214974 0.14056,0.357601 0.142627,0.14056 0.347265,0.14056 0.21084,0 0.349333,-0.144694 0.138493,-0.144694 0.138493,-0.353467 z"
       style="font-style:normal;font-variant:normal;font-weight:normal;font-stretch:normal;font-size:4.23333311px;font-family:sans-serif;-inkscape-font-specification:'sans-serif, Normal';font-variant-ligatures:normal;font-variant-caps:normal;font-variant-numeric:normal;font-feature-settings:normal;text-align:start;writing-mode:lr-tb;text-anchor:start;stroke-width:0.26458332px"
       id="path916"
       inkscape:connector-curvature="0" />
  </g>
  <g
     id="g856"
     transform="translate(47.393597,9.1879559)">
    <path
       style="opacity:1;fill:#020202;fill-opacity:1;fill-rule:nonzero;stroke:#000000;stroke-width:2.19999981;stroke-linecap:butt;stroke-linejoin:round;stroke-miterlimit:8.19999981;stroke-dasharray:none;stroke-dashoffset:0;stroke-opacity:1;paint-order:normal"
       d="m -44.97068,75.532722 h 5.291667 v 8.898 h -5.291667 z"
       id="rect5282-9-4"
       inkscape:connector-curvature="0" />
    <g
       aria-label="IN"
       style="font-style:normal;font-variant:normal;font-weight:normal;font-stretch:normal;font-size:2.11666656px;line-height:125%;font-family:sans-serif;-inkscape-font-specification:'sans-serif, Normal';font-variant-ligatures:normal;font-variant-caps:normal;font-variant-numeric:normal;font-feature-settings:normal;text-align:start;letter-spacing:0px;word-spacing:0px;writing-mode:lr-tb;text-anchor:start;fill:#000000;fill-opacity:1;stroke:none;stroke-width:0.26458332px;stroke-linecap:butt;stroke-linejoin:miter;stroke-opacity:1"
       id="text5206-7-4-9">
      <path
         d="m -42.783216,77.029976 h -0.607715 V 76.87288 h 0.201538 v -1.224732 h -0.201538 v -0.157096 h 0.607715 v 0.157096 h -0.201538 v 1.224732 h 0.201538 z"
         style="font-style:normal;font-variant:normal;font-weight:normal;font-stretch:normal;font-size:2.11666656px;font-family:sans-serif;-inkscape-font-specification:'sans-serif, Normal';font-variant-ligatures:normal;font-variant-caps:normal;font-variant-numeric:normal;font-feature-settings:normal;text-align:start;writing-mode:lr-tb;text-anchor:start;fill:#ffffff;fill-opacity:1;stroke-width:0.26458332px"
         id="path859"
         inkscape:connector-curvature="0" />
      <path
         d="m -41.258761,77.029976 h -0.253215 l -0.729671,-1.37666 v 1.37666 h -0.191203 v -1.538924 h 0.317294 l 0.665592,1.256771 v -1.256771 h 0.191203 z"
         style="font-style:normal;font-variant:normal;font-weight:normal;font-stretch:normal;font-size:2.11666656px;font-family:sans-serif;-inkscape-font-specification:'sans-serif, Normal';font-variant-ligatures:normal;font-variant-caps:normal;font-variant-numeric:normal;font-feature-settings:normal;text-align:start;writing-mode:lr-tb;text-anchor:start;fill:#ffffff;fill-opacity:1;stroke-width:0.26458332px"
         id="path861"
         inkscape:connector-curvature="0" />
    </g>
  </g>
</svg>
