<?xml version="1.0" encoding="UTF-8" standalone="no"?>
<svg
   xmlns:osb="http://www.openswatchbook.org/uri/2009/osb"
   xmlns:dc="http://purl.org/dc/elements/1.1/"
   xmlns:cc="http://creativecommons.org/ns#"
   xmlns:rdf="http://www.w3.org/1999/02/22-rdf-syntax-ns#"
   xmlns:svg="http://www.w3.org/2000/svg"
   xmlns="http://www.w3.org/2000/svg"
   xmlns:xlink="http://www.w3.org/1999/xlink"
   xmlns:sodipodi="http://sodipodi.sourceforge.net/DTD/sodipodi-0.dtd"
   xmlns:inkscape="http://www.inkscape.org/namespaces/inkscape"
   width="150"
   height="380"
   viewBox="0 0 39.6875 100.54166"
   version="1.1"
   id="svg12553"
   sodipodi:docname="HUITRE.svg"
   inkscape:version="0.92.3 (2405546, 2018-03-11)">
  <sodipodi:namedview
     pagecolor="#ffffff"
     bordercolor="#666666"
     borderopacity="1"
     objecttolerance="10"
     gridtolerance="10"
     guidetolerance="10"
     inkscape:pageopacity="0"
     inkscape:pageshadow="2"
     inkscape:window-width="3840"
     inkscape:window-height="2066"
     id="namedview33"
     showgrid="false"
     inkscape:zoom="3.5132042"
     inkscape:cx="-119.92124"
     inkscape:cy="246.0622"
     inkscape:window-x="-11"
     inkscape:window-y="-11"
     inkscape:window-maximized="1"
     inkscape:current-layer="svg12553" />
  <defs
     id="defs12547">
    <linearGradient
       id="linearGradient951">
      <stop
         style="stop-color:#000000;stop-opacity:1;"
         offset="0"
         id="stop947" />
      <stop
         style="stop-color:#000000;stop-opacity:0;"
         offset="1"
         id="stop949" />
    </linearGradient>
    <linearGradient
       osb:paint="solid"
       id="linearGradient4708">
      <stop
         id="stop4706"
         offset="0"
         style="stop-color:#ececec;stop-opacity:1;" />
    </linearGradient>
    <filter
       id="filter4696"
       style="color-interpolation-filters:sRGB">
      <feColorMatrix
         id="feColorMatrix4692"
         result="colormatrix"
         values="0 0 0 0 1 0 0 0 0 0 0 0 0 0 0 1 0 0 0 0 0 "
         in="SourceGraphic" />
      <feBlend
         id="feBlend4694"
         result="fbSourceGraphic"
         mode="multiply"
         in2="BackgroundImage" />
      <feColorMatrix
         id="feColorMatrix4762"
         values="0 0 0 -1 0 0 0 0 -1 0 0 0 0 -1 0 0 0 0 1 0"
         in="fbSourceGraphic"
         result="fbSourceGraphicAlpha" />
      <feColorMatrix
         in="fbSourceGraphic"
         result="colormatrix"
         values="1 0 0 0 0 0 1 0 0 0 0 0 1 0 0 0 0 0 5 -1 "
         id="feColorMatrix4764" />
      <feComposite
         k4="0"
         k3="0"
         k1="0"
         result="composite"
         k2="0.3"
         operator="arithmetic"
         id="feComposite4766"
         in2="colormatrix" />
    </filter>
    <linearGradient
       gradientTransform="translate(0.016188)"
       xlink:href="#linearGradient951"
       id="linearGradient939"
       x1="16.139584"
       y1="23.283333"
       x2="16.139584"
       y2="34.395832"
       gradientUnits="userSpaceOnUse" />
    <linearGradient
       gradientTransform="translate(0.016187)"
       xlink:href="#linearGradient951"
       id="linearGradient953"
       x1="16.139584"
       y1="50.799999"
       x2="16.139584"
       y2="39.6875"
       gradientUnits="userSpaceOnUse" />
  </defs>
  <metadata
     id="metadata12550">
    <rdf:RDF>
      <cc:Work
         rdf:about="">
        <dc:format>image/svg+xml</dc:format>
        <dc:type
           rdf:resource="http://purl.org/dc/dcmitype/StillImage" />
        <dc:title />
      </cc:Work>
    </rdf:RDF>
  </metadata>
  <g
     id="layer1"
     transform="matrix(0.33284661,0,0,1.0012215,-8.8593241,-161.56849)"
     style="stroke-width:1.22494781">
    <path
       id="path33453"
       d="M 26.616839,161.37987 H 145.85344 v 100.3961 H 26.616839 Z m 0,0"
       style="fill:#e6e6e6;fill-opacity:1;fill-rule:nonzero;stroke:none;stroke-width:0.39515454"
       inkscape:connector-curvature="0" />
  </g>
  <path
     style="opacity:0.06;fill:#000000;stroke-width:1"
     d="m 41.000374,22.490993 c 1.003553,4.180015 1.522447,8.752768 0.610455,12.577933 -0.405857,2.889511 -3.31071,-0.918022 -1.568345,2.690066 -0.879157,2.931715 -0.422994,6.809553 -1.363566,9.795505 -0.539182,-2.072436 -2.273986,2.909253 -1.686551,-0.61099 0.09985,-4.733854 0.706999,-9.169978 1.495763,-13.656267 0.873988,-3.903256 -0.811569,-8.468471 -1.144672,-12.143172 0.76845,-1.577968 -1.500636,-1.961094 -2.113157,-4.11262 C 34.09325,14.470547 33.131157,20.255438 31.65753,16.637785 30.435805,13.439309 30.241599,9.141025 27.937697,7.183487 26.773031,8.984402 24.758858,5.3159252 24.301922,5.1915012 25.593671,8.115111 21.215823,8.986494 20.420144,5.813447 19.454732,5.0301623 18.726635,1.8865005 18.759306,4.874247 17.29043,3.7819589 16.621448,0.8109585 19.007206,1.7573412 c 3.802545,-0.248639 8.29117,1.8580164 10.807527,6.4627448 1.746351,3.2177 4.845695,3.846683 6.773142,6.825051 2.406616,1.61915 3.658426,4.150018 4.412499,7.445856 z m -2.19308,2.394478 c -0.232612,1.291388 1.008797,1.693902 0,0 z m 0.357316,1.705006 c -0.378268,0.703176 0.562482,1.108178 0,0 z m 0.119965,0.930105 c -0.289795,0.402658 0.416999,0.208422 0,0 z m -0.126443,1.105876 c -0.344082,0.512052 0.466384,0.319644 0,0 z m 0.04395,0.479951 c -0.195325,0.24528 0.232213,0.21888 0,0 z m 1.589994,6.623872 c -0.276818,0.593729 0.464054,0.311769 0,0 z m -1.644754,-3.243585 c -0.521313,0.692736 0.982296,0.4445 0,0 z m -0.29108,2.188909 c -1.057348,-0.175423 0.397567,1.028105 0,0 z m -5.784999,-17.31203 c -0.275187,0.254806 0.515187,-0.08589 0,0 z m -0.876645,-2.9782 c -0.03509,0.395897 0.340569,0.221084 0,0 z m -0.82258,-1.885562 c -0.886175,0.54364 0.756681,1.531506 0,0 z m 1.394346,5.208639 c -0.187379,0.299567 0.327823,0.131819 0,0 z m -2.626533,-7.39898 c -0.156794,0.529785 0.278301,0.196513 0,0 z m 7.899506,29.220543 c -1.22215,0.382457 0.802391,1.576195 0,0 z m 0.308595,2.508978 c -0.805665,0.155032 0.565829,0.388039 0,0 z m -0.168433,1.76675 c -0.285476,0.376625 0.421653,0.05653 0,0 z m 0.286223,1.374938 c -0.779134,0.970173 0.938553,0.511388 0,0 z M 18.853644,2.7416164 c -0.08659,0.3621824 0.205536,0.072651 0,0 z M 18.193427,2.1389767 c -0.171238,0.4132523 0.381712,0.2332286 0,0 z M 17.695101,2.525694 c -0.08659,0.3621821 0.205537,0.07265 0,0 z M 39.43496,42.795653 c -0.302955,-0.377414 0.08762,-0.192016 0,0 z M 32.173966,26.706449 c 0.629358,3.966387 0.96833,8.419663 0.11356,11.746645 -1.334943,3.118266 -1.033232,7.46863 -0.971306,11.151387 -0.70778,2.392303 -0.243503,6.002552 -1.079317,8.677057 -1.331423,7.14813 -2.993622,14.164222 -5.455863,20.623021 -1.488279,2.558142 -1.608412,6.985569 -4.302023,7.994095 -2.590457,0.153653 -3.740896,3.518142 -0.177356,4.373456 2.746872,2.601794 2.452447,-3.905719 3.556611,-5.492304 0.99807,-0.852235 1.673018,-3.739363 2.84844,-2.106674 2.672026,1.642329 -0.08621,-3.113375 1.941336,-2.466868 -0.518875,-0.869203 0.170781,-3.883417 -0.731538,-1.586746 0.476871,-5.06309 2.368694,-9.357327 3.005634,-14.340949 -0.20515,-3.093922 3.552421,-0.774003 1.750534,-4.20784 -1.420079,4.609357 0.349992,-5.986771 1.157032,-0.652368 3.282871,1.454834 -0.91466,-7.65604 1.922372,-5.591123 0.638964,3.697907 1.614544,-0.824184 0.5861,-2.534514 -0.579279,-2.463789 3.033221,-4.916014 1.687427,-0.988086 0.147828,3.520895 -2.229633,6.044833 -1.384041,9.64649 2.18721,2.787962 1.66707,7.595257 -0.728224,8.8317 -1.979477,2.329986 -2.298304,6.326031 -4.480934,8.46574 -2.147637,2.281376 -2.624808,6.177999 -2.122368,9.990547 0.676898,4.033371 -1.75219,5.854759 -4.700569,4.538406 -1.821482,0.468265 -0.742157,4.228018 -3.278976,2.914628 1.001374,4.461101 -3.6106,4.05931 -4.934399,0.30895 -2.267108,-3.331321 -4.503,-6.748482 -7.2779605,-9.436803 -1.154482,-1.83818 -4.8036207,-3.382158 -3.8762223,-5.648943 0.3413114,2.672928 2.6291313,0.901582 1.5484803,-1.17223 0.526383,1.985447 5.5791355,6.554989 3.207626,1.955461 -1.227152,-3.415151 -3.16442,-6.81349 -2.747164,-10.457389 C 7.4881225,68.612823 4.9762065,67.101449 5.6313544,64.400734 5.315954,60.113457 3.5921609,54.999161 4.2099701,50.52534 6.3229589,48.328957 4.0482087,42.448665 6.3626866,39.988182 7.3583645,36.8082 7.8312125,33.339996 7.8445035,30.812959 c 0.902571,-0.02688 0.134952,-2.113986 1.067974,-0.160508 -0.43739,1.308739 1.002358,3.769554 0.19133,5.771686 0.467185,2.207133 0.376724,-3.652325 0.349056,-4.882175 0.387311,-2.243934 -2.756441,-3.822563 -1.174235,-5.290292 -0.521217,-1.69933 1.7687755,1.148433 -0.106421,-1.695759 -0.0959,-2.632836 2.1672625,2.95188 0.927766,-0.524895 -0.266226,-3.744448 4.1854195,-1.225965 4.1916705,-4.894493 -0.75554,-1.403721 0.686014,-0.813971 0.302968,-2.617018 0.916108,0.86336 0.179688,-3.413117 1.157163,-1.109128 -0.428693,-2.558723 1.650248,0.864241 0.573106,-2.056898 0.907536,2.674862 0.903057,-1.605831 1.436664,0.678518 -0.07385,-0.835397 1.462549,0.02145 0.389928,-2.265941 0.271884,1.353213 1.941562,3.0831 1.630719,0.655113 0.612554,1.507236 1.114968,1.213174 1.38859,0.443003 0.397345,-0.135569 1.022857,1.334564 1.115372,0.254406 0.572532,1.606735 0.646629,-2.04638 1.112813,0.60088 1.243024,0.06382 0.554577,-1.188247 1.808382,0.585194 1.85313,0.383797 3.344675,2.148403 4.864521,5.046486 1.157383,2.513034 1.713176,5.486071 3.102096,7.355311 z m -4.726827,-9.737504 c -0.21042,0.19864 0.319336,0.117915 0,0 z m 4.089793,23.035381 c -0.146879,0.523909 0.427167,0.337017 0,0 z M 25.548111,22.109668 c -1.747209,0.970405 1.428808,2.145391 0,0 z m 12.282724,42.755807 c -0.23685,0.320662 0.471035,0.103283 0,0 z m -10.0389,-30.264947 c 0.555932,1.597029 -0.658223,7.331737 0.461038,3.065083 0.02999,-1.000348 -0.06485,-2.078902 -0.461038,-3.065083 z m 9.712495,30.25123 c -0.275185,0.254805 0.515183,-0.0859 0,0 z M 26.541426,31.350152 c -0.872949,-1.10065 -4.043605,-3.359982 -1.56161,-1.097926 0.263301,-0.161853 2.867509,3.035416 1.56161,1.097926 z m 8.738349,26.612801 c -0.171238,0.413253 0.381713,0.233229 0,0 z m 2.088066,7.088269 c -0.88783,-0.306734 1.076962,0.835318 0,0 z m -0.903657,-0.999098 c -0.07903,0.775078 0.463374,0.424578 0,0 z m 0.528868,1.85427 c -0.233143,0.570206 0.598813,0.483142 0,0 z m -0.210428,-0.326901 c -0.565726,-1.71213 -0.225742,0.880044 0,0 z m 0.226536,1.260749 c -0.210417,0.198632 0.319337,0.117907 0,0 z m -1.791714,-5.043825 c -1.276896,-1.942753 0.33798,2.662587 0,0 z m 0.255755,1.639249 c -0.580087,0.474283 0.383573,0.56535 0,0 z M 30.125822,48.371858 c -0.187379,0.299561 0.327825,0.131826 0,0 z M 25.356961,33.712811 c -0.605982,-0.23316 0.409426,0.925168 0,0 z m 8.270134,26.906241 c -0.39016,0.546878 0.565172,0.02776 0,0 z M 27.01609,39.795698 c -1.168708,0.360935 6.39e-4,1.323658 0,0 z m -2.654944,-8.10434 c -0.08659,0.362173 0.205535,0.07265 0,0 z m -0.382863,-0.989497 c -0.195321,0.245287 0.232209,0.218882 0,0 z m 9.983043,30.974823 c -0.64697,0.122452 0.584277,0.768481 0,0 z M 23.593166,30.590595 c -0.915372,0.629645 -0.672109,1.437337 0.11849,0.140382 z M 22.542449,28.45772 c -1.102282,0.499846 1.415501,0.04611 0,0 z m 10.983366,33.073147 c 0.135608,0.176132 0.184898,-0.284376 0,0 z m 0.274146,0.889536 c -0.640513,-0.649498 0.813482,1.646009 0,0 z m -0.678446,-2.173157 c -0.362609,0.380573 0.449905,0.435428 0,0 z M 26.832937,41.891752 c -0.664129,0.04731 0.824408,1.826515 0,0 z m -1.49586,-4.701285 c 0.159806,1.687931 0.465295,1.471034 0,0 z m -2.592154,-8.235016 c -0.08659,0.362185 0.205538,0.07264 0,0 z m 10.960443,34.222093 c -0.534414,0.220103 0.282604,0.232998 0,0 z M 27.299831,44.272488 c -1.838135,-0.644938 1.90383,4.499326 -0.170061,3.35173 -0.96274,-2.697706 0.275442,2.157766 -1.539958,-0.244435 2.094856,3.408593 2.96508,-0.935831 1.710019,-3.107295 z m 0.0026,0.508868 c -0.590376,-0.243051 -0.02389,-0.599158 0,0 z M 27.002197,43.35887 c -0.149004,0.360403 0.345303,-0.07756 0,0 z m -2.410812,-5.499014 c -0.577647,0.367811 0.559041,0.548146 0,0 z m 10.241794,32.036511 c -0.810001,0.07528 0.76688,0.570581 0,0 z M 25.350873,40.387969 c -0.05835,0.297013 0.340322,0.207668 0,0 z m -1.326308,-3.638016 c -1.207354,0.417371 0.906203,1.249499 0,0 z m 3.055367,9.508523 c -1.139285,-2.173128 0.160929,1.566682 0,0 z m -2.243997,-7.251212 c -0.790225,0.07647 1.249778,1.395179 0,0 z M 22.27593,31.948137 c -0.810003,0.372106 0.855941,0.389484 0,0 z m 1.625641,5.757284 c 0.397041,0.529069 0.556145,0.06365 0,0 z m 0.661923,1.578029 c -0.819025,-1.877991 0.164121,1.429539 0,0 z m 3.342896,10.91381 c -1.384113,-0.429945 1.960491,3.249652 0.65212,4.519277 -0.08789,1.534176 -1.285864,6.498384 -0.204746,2.541431 0.431702,-2.162913 0.814534,-4.793936 -0.447374,-7.060708 z M 21.309976,29.746053 c -0.333134,0.146202 0.370907,0.270317 0,0 z M 32.292072,63.79237 c -1.562718,-0.328387 0.578519,1.338672 0,0 z m -7.93809,-23.740963 c 0.141985,0.713009 0.393005,-0.64235 0,0 z m 2.747518,8.613121 c -0.188711,0.283312 0.28703,0.03669 0,0 z M 23.91736,39.25107 c -0.179274,0.39665 0.433874,0.162038 0,0 z m -0.968637,-2.620288 c -1.438468,-3.111756 -1.682292,2.713197 -2.117375,-0.08771 -1.129135,0.01482 0.585144,-5.208374 -0.906489,-2.715285 0.651042,2.351623 -2.155945,-4.864821 -1.521829,-0.843905 0.724751,4.068496 -3.117814,-3.40063 -3.616303,0.8479 -1.858048,1.786551 -0.381996,5.018758 0.07257,7.299127 -0.809593,1.115906 -1.956667,-1.29198 -1.608154,1.724628 -1.495244,0.674519 0.366932,2.638907 0.250161,0.203306 1.698036,0.0608 2.448223,2.457759 0.268909,1.938301 -3.316008,-1.107766 -2.851654,5.321484 -2.383727,8.175311 2.725334,0.594972 -2.3579115,5.571531 0.659856,8.051312 1.551276,3.247682 -2.1299045,6.170256 -1.880731,9.613745 -0.5919865,1.427892 1.807802,8.307302 0.684877,3.617933 -0.830861,-2.081718 -0.26429,-5.729619 0.150828,-1.477461 0.624193,2.388937 1.607078,5.886379 0.102854,6.422113 0.361189,1.078397 2.616031,1.520242 2.60083,0.792986 1.469732,3.007182 6.447129,7.516517 5.867437,1.485316 -2.291333,-4.224533 0.729699,-8.113563 -0.15783,-12.410789 1.189496,-2.641054 -0.78656,-5.443475 0.437803,-7.733827 -2.926973,0.677404 -0.278493,-2.857083 -2.34583,-5.122015 1.761988,1.350935 -0.908777,-5.571739 1.592258,-3.173802 0.507036,0.693997 -0.239487,7.10382 1.759549,5.638972 0.139208,-1.690926 2.024686,-1.424058 1.937182,-3.406665 0.08453,1.702191 0.201261,2.573307 0.563234,2.72602 0.683418,3.633566 0.654767,-4.70241 1.760185,-1.602235 0.18047,-2.173202 -3.436676,-4.70613 -1.902478,-6.71282 -0.54436,-0.717241 -0.03179,-2.210592 -0.284128,-4.011665 0.683879,1.429061 1.740901,-0.388884 1.976228,1.195813 1.439482,-2.005909 -2.445818,-3.191289 -1.309268,-6.015081 -0.908531,-1.208922 -2.339276,-1.544058 -0.764951,-2.738769 1.104892,0.489526 0.323363,-1.100679 0.11432,-1.680752 z m 1.644942,8.716992 c -0.260043,-0.293421 0.114782,-0.144001 0,0 z m -1.353964,-3.36318 C 22.574973,44.711662 20.785,38.380275 23.190171,41.645477 Z m -0.817709,-0.791223 c -0.538063,-0.09252 0.432473,0.619965 0,0 z m -0.252998,-2.851055 c -0.179978,0.417279 -0.09561,-0.422488 0,0 z m 2.136479,6.915105 c -0.780956,-0.06187 0.210112,-1.016872 0,0 z m 0.02513,0.454016 c -0.50563,0.03159 0.261584,-0.415294 0,0 z m -3.85255,-11.151589 c -0.389757,-0.237137 0.151734,-0.526621 0,0 z m 0.556873,3.507096 c -0.46852,-0.07776 0.144073,-0.414004 0,0 z m -0.65698,-1.767255 c -0.471199,-0.142921 0.273958,-0.592107 0,0 z m 1.061584,3.367487 c -0.582347,0.335656 -0.0094,-1.001149 0,0 z m -0.590521,-1.143907 c -0.809965,-0.122186 0.577916,-0.549828 0,0 z m -1.260134,-4.118762 c -0.345896,-0.210286 0.309151,-0.246197 0,0 z m 2.306118,7.404447 c -0.483901,2.055614 -1.012647,3.639981 -1.364387,5.972576 0.174055,2.886377 -2.415967,0.872981 -2.26862,3.500532 -1.987093,2.42422 -0.386565,-2.12786 -0.441342,-2.447712 -1.582865,1.761601 -0.387345,-0.493921 -1.277414,-1.082099 1.930468,-1.792253 3.936904,-4.419289 4.256482,-7.173776 0.0916,3.455605 -0.839864,1.134215 1.095282,1.230479 z m -1.503809,1.45335 c -0.420647,0.546943 0.458148,0.180993 0,0 z m 0.142381,1.043848 c -1.013689,-0.102962 0.341388,0.928099 0,0 z m -0.07528,-0.447825 c -0.151735,0.526621 0.389754,0.237131 0,0 z m -1.154484,1.596283 c -1.063579,1.507901 0.786057,0.21607 0,0 z m 0.345407,1.383564 c -0.529539,0.03683 0.63258,0.525438 0,0 z m -0.236769,1.894072 c -1.630374,-1.790315 -2.12228,-0.269133 -0.204506,0.605746 0.637353,0.257078 1.103206,-0.297553 0.204506,-0.605746 z m -0.868647,-1.379709 c -0.144623,0.957438 0.430432,-0.199291 0,0 z M 18.14176,46.540122 c -0.486668,0.662263 0.809339,0.960464 0,0 z m -0.585275,-0.0072 c -0.187384,0.299555 0.327824,0.131819 0,0 z m 2.482848,-9.309574 c -0.327826,-0.131832 0.187377,-0.299567 0,0 z m 2.647735,8.578296 c -0.34277,-0.144082 0.173011,-0.395572 0,0 z m -2.470083,-7.326761 c -0.823503,-0.589599 0.532028,-0.08534 0,0 z m 0.476573,1.649292 c -0.287033,-0.03669 0.188711,-0.283313 0,0 z M 18.872466,35.84812 c -0.108131,1.359063 -0.08238,-1.401549 0,0 z M 18.64302,35.58018 c -0.534143,0.09592 0.08846,-0.817329 0,0 z m 0.296762,1.160213 c -0.222031,-0.205727 0.152829,-0.368236 0,0 z m 0.253695,1.450298 c -0.327831,-0.131824 0.187383,-0.299562 0,0 z m -0.986479,-2.103428 c -0.771708,-0.12161 0.446513,-0.35704 0,0 z m 4.786645,14.903123 c -0.232209,-0.218882 0.195323,-0.245287 0,0 z m 0.66456,6.691947 c -0.277564,0.250818 0.01828,-0.496595 0,0 z m -6.79192,-19.975271 c -0.237715,-0.267767 0.116052,-0.369437 0,0 z m 4.508207,16.658112 c 0.01992,1.496771 -0.656741,0.06905 -0.149976,-0.282868 z m 0.599071,2.764892 c -1.266268,0.373073 -0.651855,-3.99071 0,0 z m -0.418465,-0.432158 c -0.283161,0.53527 0.488538,0.220773 0,0 z m -0.857991,-2.982765 c -0.394839,-0.01699 0.155794,-0.373613 0,0 z m 0.237785,1.431722 c -0.869857,-0.276093 0.39577,-0.394415 0,0 z m -1.786419,-3.608238 c -0.860523,1.283125 0.3833,-1.409837 0,0 z m -0.199696,-0.329633 c -0.510896,0.07248 0.378485,-0.778929 0,0 z m 2.02372,6.191385 c -0.260044,-0.293421 0.114783,-0.144001 0,0 z M 19.77794,55.101765 c -0.341587,-0.24593 0.131325,-0.399897 0,0 z M 15.518593,42.056162 c -0.31934,-0.117913 0.210415,-0.198638 0,0 z m 4.685198,16.907356 c -0.545333,0.37199 0.184518,-0.434939 0,0 z M 14.942262,43.182889 c -0.319337,-0.117907 0.210414,-0.198644 0,0 z m 0.220575,2.144539 c -0.213045,-0.113043 0.303774,-0.08838 0,0 z m -0.974024,-3.134884 c -0.413383,-0.138426 0.201212,-0.544885 0,0 z m 3.239097,10.59338 c -0.917555,2.106177 -0.314758,-1.33417 0,0 z m 0.531302,3.822337 c -0.302958,-0.377434 0.08761,-0.192019 0,0 z m 0.351056,5.143855 c -0.237718,-0.267772 0.116052,-0.369437 0,0 z m -6.587146,-9.168223 c -0.332627,-0.203598 0.324777,-0.1406 0,0 z m 3.518164,29.179758 c -0.597703,0.864744 0.148521,-1.10719 0,0 z m -1.93001,-1.919542 c -0.327827,-0.131832 0.187376,-0.299566 0,0 z m -0.840017,-0.121926 c -0.340569,-0.221084 0.0351,-0.395899 0,0 z M 32.135075,65.016712 c -0.192244,0.318266 0.372736,0.217899 0,0 z M 24.587642,42.266805 c -0.575052,1.035038 0.811695,0.372242 0,0 z m -0.04018,-0.3329 c -0.226109,0.225734 0.377638,0.189074 0,0 z m -0.43948,-0.768967 c 0.0436,0.898855 0.400275,-0.152823 0,0 z m 8.164583,24.99323 c 0.0048,0.731436 0.52294,0.925742 0,0 z M 23.253746,39.043577 c -0.116102,1.159314 0.677551,-0.01452 0,0 z m 2.37706,7.331917 c -0.192245,0.318266 0.372737,0.217899 0,0 z m 6.042818,19.408456 c -1.164864,3.338723 0.175194,1.209467 0,0 z m 0.620254,1.948908 c -0.404497,0.349235 0.48069,-0.08049 0,0 z M 26.168521,49.46253 c -0.195323,0.245288 0.232208,0.218883 0,0 z m 5.107004,16.25661 c -0.408148,0.445308 0.570536,0.181788 0,0 z M 23.835814,42.689506 c -0.05854,0.596408 0.336931,-0.07175 0,0 z m -2.782786,-8.438415 c -0.498061,0.693669 0.610091,0.262188 0,0 z m 4.709593,15.028911 c 0.09561,0.4225 0.179984,-0.417268 0,0 z M 20.173514,31.841729 c -0.124928,0.380198 0.435532,0.286258 0,0 z m 12.432053,38.854047 c -0.210413,0.198638 0.319336,0.117907 0,0 z m -1.102994,-3.397259 c -0.613743,1.29039 0.626544,1.549247 0,0 z M 25.076566,47.445602 c -0.195327,0.245288 0.232214,0.218887 0,0 z m 7.550701,23.539663 c -0.796803,-0.599616 0.177524,1.232137 0,0 z M 25.763795,50.614143 c 0.135608,0.176131 0.184898,-0.284377 0,0 z m 6.041059,18.513572 c -0.350976,-0.519719 -0.983767,3.91172 0.09705,0.817553 l 0.08613,-0.402433 z M 14.26967,15.204472 l 0.159863,0.489597 z m 18.669784,57.853886 c -0.173009,0.395577 0.34277,0.144081 0,0 z M 19.604843,32.323426 c -0.171241,0.413255 0.381718,0.233228 0,0 z m 4.684835,14.754991 -0.03554,0.206798 z m 7.829301,25.116901 c -0.206372,2.512076 0.524234,-1.920453 0,0 z m -6.452244,-20.38264 c -0.93064,-1.379535 -2.057771,-2.725189 -0.564761,-0.448478 0.25194,0.532968 0.803641,3.056268 0.582283,1.131204 z m -0.417299,-1.260107 c -0.245904,0.29855 0.149422,0.807844 0,0 z m 0.939009,3.831887 c -0.854005,-1.420823 0.942796,1.932303 0,0 z m 5.396916,17.061515 c -0.523791,0.986364 0.629249,-0.706494 0,0 z M 17.315666,27.631882 c -0.318792,0.49417 0.369479,0.03361 0,0 z m 15.331327,47.202171 c -0.187383,0.299554 0.327826,0.131825 0,0 z M 23.214941,46.568918 c -0.794377,0.387297 1.149787,-0.03529 0,0 z m 7.3156,22.097468 c -0.148586,0.434138 0.35671,-0.07578 0,0 z M 26.064868,54.834258 c -0.482963,-3.130457 -0.06042,2.110223 0,0 z m 2.609864,8.244642 c -0.187382,0.299569 0.327831,0.131831 0,0 z m -2.86697,-7.468977 c -0.146877,0.523914 0.427169,0.337022 0,0 z m 1.502333,4.947133 c -0.07669,1.960415 0.219243,5.138898 0.14301,1.43659 -0.120087,-0.331836 0.248253,-1.231764 -0.14301,-1.43659 z m -1.329114,-3.783404 c -0.646536,0.499965 0.732151,0.229446 0,0 z m -0.07877,-0.650791 c -0.162549,0.484556 0.363234,0.160242 0,0 z m -2.262086,-6.627969 c -1.322948,-0.627802 0.394772,0.921225 0,0 z m 8.023383,24.76969 c -0.188712,0.283312 0.28703,0.03669 0,0 z m -0.43173,-1.414295 c -0.08659,0.362186 0.205542,0.07264 0,0 z M 17.130776,29.617012 c -0.0085,0.507698 0.337294,0.210629 0,0 z m 13.491523,42.218716 c -0.417243,0.783415 0.692094,0.281094 0,0 z m 1.585031,4.823453 c -1.824162,-0.220226 0.749553,0.610052 0,0 z M 25.91651,57.481755 c -0.791688,1.9342 0.339665,1.325065 4e-6,1.3e-5 z m 5.422899,16.90497 c -1.041191,0.520979 0.680714,1.215239 0,0 z M 26.0104,58.015236 c -0.187379,0.29956 0.327827,0.131831 0,0 z m -0.854961,-2.291787 c -0.280986,0.36454 0.435477,0.10957 0,0 z M 23.55177,51.006423 c -0.647481,0.629042 0.659661,0.23393 0,0 z m 0.916111,3.260397 c -0.195327,0.245289 0.232214,0.218887 0,0 z M 16.043162,29.182961 c -0.210417,0.198638 0.319338,0.117913 0,0 z m 14.15315,43.878817 c -0.463546,1.232494 0.0831,1.184847 0,0 z m -0.328204,-0.881659 c -0.178765,0.162938 0.290435,0.437863 0,0 z m -2.547735,-6.878236 c -0.513699,1.289604 -0.432868,2.790322 0,0 z m -4.418079,-13.4909 c -0.188711,0.283318 0.287031,0.03669 0,0 z m 2.334798,7.839941 c -0.341468,1.447588 0.525952,-0.777463 0,0 z m 5.02354,15.51731 c -0.699858,2.230913 0.666618,-0.38525 0,0 z M 15.154144,29.126415 c -0.625947,0.761106 0.833552,1.842972 0,0 z m 10.081649,31.578978 c -1.272682,0.148206 0.80945,0.314878 0,0 z m 4.807252,15.322759 c -1.649463,2.15128 -0.0062,1.597436 0,0 z M 14.656316,28.623312 c -0.08659,0.362179 0.205534,0.07265 0,0 z m 11.633607,36.830362 c -0.691324,0.505221 1.094518,1.09247 0,0 z M 25.235206,64.07647 c -1.570528,-0.706041 -2.1332,4.328809 -0.809644,1.081852 0.665172,0.165291 0.834915,2.513824 1.386226,0.0643 0.157473,-0.356346 -0.03925,-1.69595 -0.576582,-1.146154 z m -0.121352,0.952559 c -0.341588,-0.24593 0.131326,-0.399896 0,0 z m 1.229831,1.994198 c 0.273923,0.694037 0.164692,-0.647791 0,0 z m -1.164075,-3.9185 c -0.744333,-0.172821 0.732173,0.656388 0,0 z m -0.111693,-0.630884 c -0.18871,0.283318 0.287032,0.03669 0,0 z m 3.852011,12.189705 c 0.06961,1.111629 0.314878,0.219197 0,0 z M 24.514543,61.665492 c -0.187382,0.299568 0.327832,0.13183 0,0 z m 4.201019,13.955072 c -0.486356,0.895825 0.81356,-0.07388 0,0 z m 0.127291,-0.437663 c -0.188712,0.283313 0.287028,0.03668 0,0 z M 13.86858,29.90362 c -1.227995,-0.02661 0.410371,2.35811 5e-6,1.2e-5 z m -1.26323,-3.146383 c -0.309897,0.363919 0.539819,0.354798 0,0 z m 0.339146,1.806985 c -0.954672,-0.148334 0.771314,0.596969 0,0 z M 23.04031,59.739163 c -0.564779,0.75985 0.172368,1.774024 0,0 z m -0.840861,-2.06482 c -0.210411,0.198645 0.319336,0.117908 0,0 z M 13.083273,30.986846 c -0.273076,0.388796 0.387342,0.288539 0,0 z m 9.020486,28.399129 c -0.18738,0.299562 0.327826,0.131826 0,0 z m 0.305945,1.402113 c -0.194921,0.37564 0.378714,0.188882 0,0 z m -0.168178,0.233506 c -0.195321,0.245287 0.232209,0.218882 0,0 z m 6.34113,22.420662 c -0.822524,-2.038413 0.176589,1.155105 0,0 z M 21.351603,62.20099 c -1.203126,-0.256792 -0.415979,0.661839 0.147691,0.186855 z m -2.211328,-6.693916 c -0.195323,0.245281 0.232207,0.218876 0,0 z m -0.278236,-0.74543 c -0.353138,0.245689 0.406217,0.33928 0,0 z m -0.640033,-1.629479 c -0.109219,0.749064 0.383663,-0.04554 0,0 z m 2.059848,6.451557 c -0.18871,0.283319 0.287031,0.03669 0,0 z m 1.251418,3.942044 c -0.195327,0.245289 0.232215,0.218888 0,0 z m 6.579121,20.54031 c -0.115201,1.355717 0.472853,2.476795 0,0 z M 24.219636,72.293123 c -1.054016,1.228043 -0.518012,-3.059408 -1.606834,-0.900121 -1.316031,-1.187253 2.508988,4.862503 1.606834,0.900121 z M 18.765068,55.23382 c 0.0224,0.746368 0.342381,0.611129 0,0 z M 8.8857545,25.137273 c -0.321732,0.201132 0.423557,0.08197 0,0 z m 9.9697635,30.956763 c -0.158927,0.747604 0.238106,-0.176587 0,0 z M 8.9825015,26.548618 c -1.685112,-2.735109 1.3452085,3.160488 0,0 z m 1.5918975,5.198738 c -0.187886,0.734409 -0.130675,2.352507 -0.01965,0.660415 z m 12.474824,38.66491 c -0.21605,0.20645 0.46372,0.177422 0,0 z m -0.364768,-0.440535 c -0.400346,0.363366 0.537538,0.05803 0,0 z M 18.236048,56.196867 c -0.18738,0.299561 0.327826,0.131825 0,0 z M 8.6973245,27.548796 c -1.717291,-0.495085 1.5725945,2.625021 0.161411,-0.0054 z M 22.822549,70.61873 c -0.27983,0.670009 0.345151,-0.17708 0,0 z M 18.403242,56.933248 c -0.146877,0.523914 0.427173,0.337021 0,0 z m 4.134681,13.404579 c -0.302468,0.617693 0.332694,0.110952 0,0 z m -2.531405,-7.597291 c -0.431501,0.06366 0.643254,0.828909 0,0 z m 3.420255,10.871497 c -0.0866,0.362181 0.20554,0.07265 0,0 z M 11.860089,38.275779 c 0.0051,1.608927 -0.38872,4.720694 0.380437,1.640817 -0.01061,-0.538112 -0.01503,-1.177974 -0.380437,-1.640817 z m -1.488758,-4.571431 c -0.19475,0.952025 0.258079,-0.395888 0,0 z M 22.894747,72.71521 c -0.176438,0.676539 0.481288,-0.08591 0,0 z m 3.931335,12.317482 c -0.576725,0.517209 0.46132,0.534863 0,0 z M 23.064769,73.604265 c -0.149003,0.36041 0.345303,-0.07756 0,0 z m 4.045069,12.621112 c -0.195328,0.245289 0.232213,0.218881 0,0 z M 22.632336,73.067258 c -0.957558,-0.09777 0.359487,1.057857 0,0 z M 11.214021,37.866673 c -0.07903,0.971312 0.192849,-0.553889 0,0 z m 11.795544,36.645229 c -0.56596,0.368851 0.495781,0.239784 0,0 z m -1.370961,-4.29853 c -0.187376,0.299567 0.327826,0.131826 0,0 z m 4.954265,15.55146 c -0.295304,0.317941 0.378716,-0.02996 0,0 z M 19.543117,63.975996 c -0.501337,1.095937 0.459855,0.09233 0,0 z m 6.825934,21.483923 c 0.09363,0.41994 0.178523,-0.419043 0,0 z M 21.496085,70.951086 c -0.844607,2.278355 0.651306,-0.978932 0,0 z M 11.136819,39.111849 c 0.08816,0.582038 0.349696,-0.366741 0,0 z m 8.902815,27.412138 c -0.693922,1.379742 0.688375,0.399964 0,0 z m 2.638631,7.996927 c -0.210414,0.198638 0.319336,0.117908 0,0 z m 5.81235,18.075678 c -0.210416,0.198639 0.319338,0.117908 0,0 z M 8.7682685,32.242855 c -0.726066,-0.195958 0.787078,0.640655 0,0 z m 14.0752465,43.36192 c -1.890601,-3.636545 -2.937677,6.583551 -0.810371,2.845516 1.188437,-0.132402 0.0029,-3.737612 0.810371,-2.845516 z m -0.290031,1.163486 c -0.561786,0.808008 1.62e-4,-0.915497 0,0 z M 22.24028,73.998148 c -0.250853,0.533515 0.465734,-0.467198 0,0 z m 0.131959,0.474122 c -0.210414,0.198645 0.319338,0.117907 0,0 z M 11.077551,39.74567 c -0.53535,0.435722 0.349237,0.575356 0,0 z m 14.98408,46.939954 c -0.241583,0.590123 0.325153,-0.463131 0,0 z M 8.7815785,33.771272 c -0.191351,0.395551 0.614819,-0.111985 0,0 z M 23.041003,77.417791 c -0.199267,0.343382 0.416666,0.295975 0,0 z M 11.023231,40.504742 c -0.175439,0.421148 0.432693,0.336357 0,0 z M 25.368228,85.23813 c -0.464315,-1.245397 0.07246,0.988561 0,0 z M 21.805016,74.064531 c -0.05835,0.297012 0.340322,0.207667 0,0 z m 5.62972,17.851559 c -0.30186,0.336661 0.469556,0.166999 0,0 z M 11.02273,41.39457 c -0.210413,0.198637 0.319336,0.117907 0,0 z m 14.526998,45.395372 c -0.143401,0.967738 0.297846,-0.610354 0,0 z m 1.305488,4.362054 c -0.155792,0.37362 0.394841,0.017 0,0 z M 20.883723,72.755378 c -0.214363,0.413982 0.471307,0.154873 0,0 z m 6.107274,18.797944 c -0.05835,0.297012 0.340324,0.207673 0,0 z m -0.06681,0.223974 c -1.588541,-2.077452 0.442256,1.57551 0,0 z m -0.504962,-1.570715 c 0.08304,0.695557 0.421298,0.616488 0,0 z m -1.189863,-3.616109 c -0.193934,0.375173 0.315669,0.04935 0,0 z M 11.818127,45.633359 c -0.261585,0.415294 0.50563,-0.03159 0,0 z m 12.896044,40.427764 c -0.04389,0.606094 0.636973,-0.582698 0,0 z m 0.05676,-0.655889 c -0.210416,0.198639 0.319337,0.117907 0,0 z m 0.343602,1.526025 c -0.128322,0.613875 0.603988,0.387089 0,0 z M 9.5595735,39.349817 c -0.951731,0.59626 0.7052065,0.144572 0,0 z M 26.240166,90.363725 c -0.188711,0.283312 0.287027,0.03669 0,0 z M 20.784157,73.605384 c -0.210417,0.198633 0.319338,0.117907 0,0 z m -0.376381,-0.439272 c 0.09561,0.422494 0.179981,-0.417274 0,0 z m -0.795465,-2.045906 c -0.210414,0.198645 0.319336,0.117907 0,0 z m 2.437219,7.633602 c -0.02268,0.483452 0.183869,0.103642 0,0 z m 3.881375,12.204856 c -0.957967,-0.959396 0.378505,0.823637 0,0 z M 8.5593045,38.563367 c -0.904573,2.309372 0.153599,3.237875 0,0 z M 25.041069,89.271342 c -0.06734,0.428513 0.55332,0.179776 0,0 z m -4.52379,-14.145726 c -0.292906,0.331763 0.432083,0.09573 0,0 z M 9.0924485,39.94181 l -0.01557,0.379058 z m 0.25509,1.512146 c -0.28476,0.524798 0.428337,-0.246606 0,0 z M 24.354358,87.468454 c -0.192243,0.318266 0.372735,0.217893 0,0 z m 0.55997,2.311813 c -0.01133,0.584555 0.199283,0.129278 0,0 z M 20.258346,75.555893 c -0.173012,0.395578 0.342772,0.144081 0,0 z M 9.2079805,41.837119 c -0.173008,0.395571 0.342765,0.144076 0,0 z M 24.833571,91.280178 c -0.30186,0.33666 0.469556,0.166999 0,0 z m -0.57008,-1.416765 c -0.379851,0.454979 0.503602,0.0264 0,0 z m -0.834059,-2.673257 c -0.291987,0.413768 0.391781,-0.04303 0,0 z m 0.0014,0.875484 c -0.220372,1.272587 0.399438,-0.656571 0,0 z M 9.0991595,44.220274 c -0.168615,0.966903 0.358954,-0.543484 0,0 z M 23.262663,88.717465 c -0.172873,0.881237 0.358618,-0.435666 0,0 z M 8.5600095,43.872772 c -0.367628,0.262051 0.541526,0.452666 0,0 z m 15.1785415,46.91 c -0.205601,1.774431 0.553577,0.928077 0,0 z m -0.478377,-1.327028 c 0.01619,0.600601 0.200412,-0.424694 0,0 z m -1.95778,-4.583438 c -0.560373,1.88356 0.943814,-1.40087 0,0 z m -0.563208,-2.602777 c -0.318792,0.494169 0.369481,0.03362 0,0 z M 8.9834685,46.259682 c -0.163231,0.87326 0.619376,1.584101 0,0 z M 6.6366635,39.95585 c -0.1900964,0.424403 0.507243,0.465866 0,0 z M 20.425332,82.767114 c -0.359911,0.663636 0.454494,0.309516 0,0 z M 9.5608605,49.383223 c -0.193938,0.375169 0.315668,0.04935 0,0 z m -0.352632,-0.324138 c 0.654552,2.589619 -0.09189,8.193428 0.413656,8.823509 -0.126697,-2.928723 0.3949755,-5.83809 -0.413656,-8.823509 z M 20.341264,83.288744 c -0.155792,0.373612 0.394833,0.01699 0,0 z m -0.105451,0.429735 c -0.309152,0.246197 0.345895,0.210286 0,0 z M 10.950876,56.570194 c -1.6937335,1.487563 0.959652,-0.286289 0.01436,-0.03974 z M 8.2172135,48.28848 c -0.189688,0.477286 0.583177,0.100919 0,0 z m 0.134265,0.499969 c -0.199262,0.343386 0.416663,0.295976 0,0 z m 2.7133355,8.556937 c -0.187381,0.299561 0.327826,0.131825 0,0 z M 7.4730265,47.516443 c -0.9138589,0.617802 1.056784,2.340608 0,0 z M 12.31893,62.967024 c -0.296419,0.277541 0.376193,0.256848 0,0 z m 9.651275,30.2049 c -0.262957,0.536646 0.442383,-0.215098 0,0 z M 7.6578445,49.688734 c -0.657946,0.440721 0.777731,0.807601 0,0 z m -0.130027,-0.533277 c -0.192244,0.318258 0.372733,0.217893 0,0 z m 0.359186,1.694886 c -0.846025,0.410227 1.100488,1.573903 0,0 z m 3.4887475,10.792701 c -0.369219,0.827776 0.427864,0.09202 0,0 z M 9.6060375,59.445551 c -0.04178,1.937288 0.7246195,6.121404 0.34811,1.818675 -0.09631,-0.305514 -0.06394,-2.143079 -0.34811,-1.818675 z m 9.7591415,31.618401 c -0.07341,0.620431 0.598694,-0.309446 0,0 z M 11.286385,65.47792 c -0.187832,0.270756 0.274192,0.290462 0,0 z m 8.732891,28.050996 c -0.302444,0.721673 0.662522,0.894949 0,0 z m -0.732117,-0.900514 c -1.176792,-1.07606 -1.008917,-0.291447 0.0074,0.135338 z m 0.164166,0.462477 c -0.218684,0.509914 0.473585,0.178004 0,0 z m 0.425084,1.22287 c -0.195327,0.245288 0.232211,0.21888 0,0 z M 16.786563,86.39314 c -0.240617,0.451371 0.471408,0.259364 0,0 z m 2.361207,7.367016 c -0.187379,0.299561 0.327827,0.131832 0,0 z m -2.920171,-8.251165 c -0.916118,-0.771535 1.478858,1.792129 0,0 z m 3.627212,10.910318 c -0.289791,0.40267 0.417,0.20843 0,0 z m -1.316549,-3.646926 c -0.290261,0.352263 0.569256,0.146013 0,0 z m 1.345437,4.949886 c -1.394167,-1.50852 -0.312875,0.68514 0,0 z m -1.370007,-3.518842 c 0.157092,0.46152 0.228173,-0.40966 0,0 z m 1.290922,4.285462 c -0.284793,0.35225 0.531288,-0.0709 0,0 z m -0.433699,0.1906 c -0.210414,0.19865 0.319339,0.11792 0,0 z m -0.535122,-0.86371 c -0.283166,0.53526 0.488534,0.22077 0,0 z m -1.189847,-2.874722 c -0.670894,-0.305297 0.957376,1.005712 0,0 z M 13.672347,82.889786 c -0.608165,-0.510798 1.285279,1.743547 0,0 z m 2.769523,8.347383 c -0.798455,-0.59748 0.461401,0.998189 0,0 z m -0.718908,-1.699987 c -0.625809,-2.628902 0.08578,2.146089 0,0 z m 0.189985,1.984027 c -0.978217,-0.05679 0.970883,0.702918 0,0 z m -2.78417,-7.85781 c -0.57962,-0.05442 1.643596,1.399327 0,0 z m 2.485264,6.930703 c -0.297495,0.292199 0.4125,0.06105 0,0 z m 0.96831,3.754138 c -0.192246,0.318259 0.372735,0.217893 0,0 z m -1.57396,-4.3888 c -0.777516,-0.345389 0.724753,1.090975 0,0 z m 0.252553,1.463275 c -0.01792,0.459052 0.336271,-0.110847 0,0 z M 11.553165,80.768134 c -1.497101,-1.763387 1.427562,2.398542 0,0 z m 3.469973,11.589018 c -1.931623,-2.155768 -0.825137,0.352467 0.193355,0.264435 l -0.133256,-0.18225 z m -0.54786,-1.5127 c -1.618451,-1.430996 0.912672,1.82649 0,0 z M 10.110042,79.021216 c -0.9913345,-0.06417 1.846232,1.574917 0,0 z m 3.18837,11.187167 c -1.103086,-0.488523 1.057712,1.154972 0,0 z m -0.92738,-2.514134 c 0.135597,0.176129 0.184903,-0.284365 0,0 z m -0.08805,-0.299212 c -0.155792,0.373612 0.394836,0.01699 0,0 z m -1.42901,-2.464332 c 0.188697,0.465661 0.526499,-0.08224 0,0 z M 9.1949085,84.350367 c -0.556012,-0.109564 0.576338,0.566944 0,0 z m -1.406879,-1.169473 c -0.132418,0.447237 0.394291,0.0438 0,0 z m -0.209928,-0.580587 c -0.804291,-1.370116 0.07029,0.796821 0,0 z M 6.1976453,82.70927 c -0.6892972,0.05812 0.4277732,0.648051 0,0 z M 16.192677,4.1282139 c 0.472081,4.0278091 -2.48882,1.5357101 -1.066804,-0.6889868 0.27097,-0.2607017 1.260437,0.1390742 1.066804,0.6889868 z m -1.023278,1.4171417 c -0.323063,-0.1553006 0.602809,0.9169964 0,0 z M 33.5784,57.701337 c -0.528046,1.634116 -0.423637,-1.224823 0,0 z m 0.546744,2.243854 c -0.121803,1.396865 -0.498465,-1.851137 0,0 z m -0.332365,-0.945317 c -0.465623,-0.130517 0.264327,-0.611629 0,0 z M 14.568031,4.0853812 c 0.201761,2.4070068 -1.003145,-1.867319 0,0 z m -1.538365,0.9023776 c -0.646812,1.3407302 -0.518383,0.423819 0.03608,-0.1967431 z M 9.8560925,5.967512 C 9.6894595,7.392018 9.2110755,6.558387 9.7516895,5.833024 Z m -0.308892,1.72953 c -0.104507,2.11215 -0.141965,-1.324388 0,0 z M 32.186286,77.653036 c -0.481044,0.0784 0.404262,-0.347382 0,0 z M 9.4707885,8.438606 c -0.141981,1.855436 -0.120525,-0.66431 0,0 z M 32.091092,78.474835 c -0.327827,-0.131825 0.18738,-0.299561 0,0 z M 9.3118355,9.513639 c -0.575081,1.4041 -0.753071,-0.0022 0,0 z M 28.319639,76.380823 c -0.395622,0.350944 0.04338,-0.607574 0,0 z m -0.34533,0.815298 c -0.43132,0.606543 0.289751,-0.962834 0,0 z m 0.0133,2.713541 c -0.327827,-0.131832 0.187379,-0.29956 0,0 z m -0.219235,1.109318 c -0.260248,1.316161 -1.72874,3.212053 -1.030632,0.236405 0.04769,-0.714292 0.695186,-1.307483 1.030632,-0.236405 z m -0.51932,-0.233164 c -0.496415,0.238954 0.386461,0.426295 0,0 z M 5.8917926,16.721128 c -0.3994184,0.34555 0.361304,-0.582019 0,0 z M 26.711674,81.115875 c -0.327827,-0.131825 0.18738,-0.299561 0,0 z M 5.359729,17.210168 c -0.3219691,0.930284 0.1695227,-0.714452 0,0 z m 3.7116975,12.545631 c -1.777599,3.51e-4 -1.002678,-2.420524 0,0 z m -1.044287,-0.780332 c -0.155792,0.373619 0.39484,0.017 0,0 z M 2.1636614,25.027486 c -4.5782746,0.27942 3.1203348,6.67975 -0.2773639,7.640633 -3.9851241,-1.991791 -0.93424324,6.615799 -2.04150084,9.270565 -0.3421781,2.232884 0.8585225,7.472391 0.00931,7.729167 -1.35784476,-4.086394 -1.53286096,-9.155877 -1.61732716,-13.396654 0.4524555,-1.37587 -1.5192171,-5.363377 1.12471266,-6.064252 1.5690669,-0.237522 0.4117336,-9.053563 2.80216924,-5.179459 z M 1.1216272,24.897198 c -0.19532714,0.245289 0.2322138,0.218887 0,0 z m -0.19695974,-0.03472 c -0.1887118,0.283312 0.28703104,0.03668 0,0 z m -1.7814963,6.115681 c -0.18738096,0.299568 0.3278323,0.13183 0,0 z m -0.043898,0.310843 c -0.19224356,0.318266 0.372738,0.217898 0,0 z m -0.25573166,1.220056 c -0.2104172,0.198632 0.31933666,0.117907 0,0 z m 0.052703,1.03931 c -0.144073,0.414003 0.46852086,0.07776 0,0 z m 1.21017096,-4.959698 c -0.3278323,-0.13183 0.1873842,-0.299562 0,0 z m 0.5676681,22.17416 c -0.2600458,-0.29342 0.1147922,-0.143997 0,0 z M 2.6444716,57.414798 C 0.67927236,56.786496 2.1391124,59.292956 2.8516682,59.131087 1.9476341,62.273356 5.2317786,68.172078 3.7959507,69.712231 1.6060885,67.640922 1.825219,63.943732 0.65418246,60.723635 c -1.643831,-2.046749 -1.75788966,-6.485457 -0.7121272,-7.531361 0.7271148,1.460872 1.60191224,-1.524163 1.37656054,1.204924 -0.33102124,1.532393 0.8925028,2.420401 1.3258558,3.0176 z M 0.92754196,55.028709 c -0.3045037,0.503483 0.59642184,0.143359 0,0 z m -0.99124,-0.234879 c -0.2065714,0.961946 0.9963329,0.320679 0,0 z m 0.9555839,3.414714 c -1.92751446,0.42556 1.31355374,0.976781 0,0 z M 0.39483566,56.86515 c 0.074558,1.644559 0.405256,0.432678 0,0 z m 2.66041254,8.858651 c -0.8355268,1.228983 1.3330492,4.633695 0.2855002,1.446724 0.077853,-0.414699 0.1297124,-1.116178 -0.2855002,-1.446724 z M 0.68337956,59.127183 c -0.3214441,1.410306 0.78098894,0.345368 0,0 z m 1.70450704,5.326713 c -0.2863334,0.64784 0.4888832,0.26593 0,0 z m 1.7430196,-0.793562 c -0.7963312,-0.608375 0.3237231,-0.42469 0,0 z M 0.06245186,51.732358 c -0.9174554,0.698319 -0.3977736,-3.280744 0.0723249,-0.152748 z m -0.2165632,-0.323018 c -0.2808665,0.468833 0.3195227,0.09917 0,0 z M 5.3455432,68.301742 c -0.4810443,0.0784 0.4042626,-0.347375 0,0 z m 0.9049753,10.579036 c -0.3278255,-0.131825 0.1873763,-0.299566 0,0 z M 5.5889692,76.880783 c -0.4427161,3.172641 -1.9046406,-2.112352 0,0 z M 4.2003017,74.355715 c -0.714795,0.419359 -0.012558,-0.829265 0,0 z m -0.3549282,0.192539 c -0.9103149,-0.461862 -0.06773,-1.625756 0,0 z M 3.468848,73.361055 c -0.5130874,0.04045 -0.021894,-0.518465 0,0 z m 0.2861257,1.587324 c -0.422229,-0.146319 -0.1502962,-0.465193 0,0 z M 3.0257203,72.763945 c -0.3193379,-0.117914 0.210413,-0.198645 0,0 z m 0.4182582,1.637953 c -0.7495178,0.03641 -0.3389523,-1.825836 0,0 z"
     id="path863"
     inkscape:connector-curvature="0" />
  <g
     id="text4860"
     style="font-style:normal;font-variant:normal;font-weight:normal;font-stretch:normal;font-size:2.82222223px;line-height:125%;font-family:Sudo;-inkscape-font-specification:'Sudo, Normal';font-variant-ligatures:normal;font-variant-caps:normal;font-variant-numeric:normal;font-feature-settings:normal;text-align:start;letter-spacing:0px;word-spacing:0px;writing-mode:lr-tb;text-anchor:start;fill:#000000;fill-opacity:1;stroke:none;stroke-width:0.26458332px;stroke-linecap:butt;stroke-linejoin:miter;stroke-opacity:1" />
  <g
     id="flowRoot1009"
     style="font-style:normal;font-variant:normal;font-weight:normal;font-stretch:normal;font-size:10.66666698px;line-height:125%;font-family:Sudo;-inkscape-font-specification:'Sudo, Normal';font-variant-ligatures:normal;font-variant-caps:normal;font-variant-numeric:normal;font-feature-settings:normal;text-align:start;letter-spacing:0px;word-spacing:0px;writing-mode:lr-tb;text-anchor:start;fill:#000000;fill-opacity:1;stroke:none;stroke-width:1px;stroke-linecap:butt;stroke-linejoin:miter;stroke-opacity:1" />
  <g
     id="text898"
     style="font-style:normal;font-variant:normal;font-weight:normal;font-stretch:normal;font-size:2.82222223px;line-height:125%;font-family:'DejaVu Sans Mono';-inkscape-font-specification:'DejaVu Sans Mono, Normal';font-variant-ligatures:normal;font-variant-caps:normal;font-variant-numeric:normal;font-feature-settings:normal;text-align:start;letter-spacing:0px;word-spacing:0px;writing-mode:lr-tb;text-anchor:start;fill:#000000;fill-opacity:1;stroke:none;stroke-width:0.26458332px;stroke-linecap:butt;stroke-linejoin:miter;stroke-opacity:1"
     aria-label="bId°°"
     transform="translate(-9.9218737)">
    <path
       id="path1012"
       style="font-style:normal;font-variant:normal;font-weight:normal;font-stretch:normal;font-size:4.23333311px;font-family:sans-serif;-inkscape-font-specification:'sans-serif, Normal';font-variant-ligatures:normal;font-variant-caps:normal;font-variant-numeric:normal;font-feature-settings:normal;text-align:start;writing-mode:lr-tb;text-anchor:start;stroke-width:0.26458332px"
       d="m 26.320874,97.982642 q 0,0.289388 -0.08268,0.520898 -0.08062,0.23151 -0.219108,0.388607 -0.146761,0.163297 -0.322461,0.24598 -0.1757,0.08062 -0.38654,0.08062 -0.19637,0 -0.343131,-0.04754 -0.146761,-0.04548 -0.289388,-0.124024 l -0.02481,0.107487 h -0.363802 v -3.216341 h 0.388607 v 1.149284 q 0.163297,-0.134359 0.347265,-0.219108 0.183968,-0.08682 0.413412,-0.08682 0.409277,0 0.644922,0.314193 0.237711,0.314193 0.237711,0.886768 z m -0.401009,0.01033 q 0,-0.413411 -0.136426,-0.626318 -0.136425,-0.214974 -0.440283,-0.214974 -0.169499,0 -0.343131,0.07441 -0.173633,0.07235 -0.322461,0.188102 v 1.322917 q 0.165364,0.07441 0.283187,0.103352 0.119889,0.02894 0.270784,0.02894 0.322461,0 0.504362,-0.21084 0.183968,-0.212907 0.183968,-0.665592 z"
       inkscape:connector-curvature="0" />
    <path
       id="path1014"
       style="font-style:normal;font-variant:normal;font-weight:normal;font-stretch:normal;font-size:4.23333311px;font-family:sans-serif;-inkscape-font-specification:'sans-serif, Normal';font-variant-ligatures:normal;font-variant-caps:normal;font-variant-numeric:normal;font-feature-settings:normal;text-align:start;writing-mode:lr-tb;text-anchor:start;stroke-width:0.26458332px"
       d="m 28.042733,99.154663 h -1.21543 V 98.84047 h 0.403076 v -2.449462 h -0.403076 v -0.314193 h 1.21543 v 0.314193 h -0.403076 v 2.449462 h 0.403076 z"
       inkscape:connector-curvature="0" />
    <path
       id="path1016"
       style="font-style:normal;font-variant:normal;font-weight:normal;font-stretch:normal;font-size:4.23333311px;font-family:sans-serif;-inkscape-font-specification:'sans-serif, Normal';font-variant-ligatures:normal;font-variant-caps:normal;font-variant-numeric:normal;font-feature-settings:normal;text-align:start;writing-mode:lr-tb;text-anchor:start;stroke-width:0.26458332px"
       d="m 30.585213,99.154663 h -0.388607 v -0.241846 q -0.167431,0.144694 -0.349332,0.22531 -0.181901,0.08062 -0.394808,0.08062 -0.413412,0 -0.657324,-0.318327 -0.241846,-0.318327 -0.241846,-0.882633 0,-0.293522 0.08268,-0.522966 0.08475,-0.229443 0.227377,-0.390674 0.140559,-0.157096 0.326595,-0.239778 0.188102,-0.08268 0.388606,-0.08268 0.181901,0 0.322461,0.03927 0.14056,0.03721 0.295589,0.117822 v -1.000456 h 0.388607 z m -0.388607,-0.568441 v -1.324983 q -0.157096,-0.07028 -0.281119,-0.09715 -0.124024,-0.02687 -0.270785,-0.02687 -0.326595,0 -0.508496,0.227377 -0.181901,0.227376 -0.181901,0.644921 0,0.411345 0.14056,0.626319 0.14056,0.212907 0.450618,0.212907 0.165365,0 0.334864,-0.07235 0.169498,-0.07441 0.316259,-0.190171 z"
       inkscape:connector-curvature="0" />
    <path
       id="path1018"
       style="font-style:normal;font-variant:normal;font-weight:normal;font-stretch:normal;font-size:4.23333311px;font-family:sans-serif;-inkscape-font-specification:'sans-serif, Normal';font-variant-ligatures:normal;font-variant-caps:normal;font-variant-numeric:normal;font-feature-settings:normal;text-align:start;writing-mode:lr-tb;text-anchor:start;stroke-width:0.26458332px"
       d="m 32.943725,96.847827 q 0,0.347266 -0.239779,0.587045 -0.239778,0.239778 -0.589111,0.239778 -0.349332,0 -0.589111,-0.237711 -0.239779,-0.239779 -0.239779,-0.589112 0,-0.347265 0.239779,-0.587044 0.239779,-0.239779 0.589111,-0.239779 0.3514,0 0.589111,0.239779 0.239779,0.239779 0.239779,0.587044 z m -0.341064,0 q 0,-0.21084 -0.138493,-0.353467 -0.138493,-0.144694 -0.349333,-0.144694 -0.21084,0 -0.349332,0.144694 -0.138493,0.142627 -0.138493,0.353467 0,0.214974 0.14056,0.357601 0.142627,0.14056 0.347265,0.14056 0.21084,0 0.349333,-0.144694 0.138493,-0.144694 0.138493,-0.353467 z"
       inkscape:connector-curvature="0" />
    <path
       id="path1020"
       style="font-style:normal;font-variant:normal;font-weight:normal;font-stretch:normal;font-size:4.23333311px;font-family:sans-serif;-inkscape-font-specification:'sans-serif, Normal';font-variant-ligatures:normal;font-variant-caps:normal;font-variant-numeric:normal;font-feature-settings:normal;text-align:start;writing-mode:lr-tb;text-anchor:start;stroke-width:0.26458332px"
       d="m 35.242292,96.847827 q 0,0.347266 -0.239778,0.587045 -0.239779,0.239778 -0.589112,0.239778 -0.349332,0 -0.589111,-0.237711 -0.239778,-0.239779 -0.239778,-0.589112 0,-0.347265 0.239778,-0.587044 0.239779,-0.239779 0.589111,-0.239779 0.3514,0 0.589112,0.239779 0.239778,0.239779 0.239778,0.587044 z m -0.341064,0 q 0,-0.21084 -0.138493,-0.353467 -0.138493,-0.144694 -0.349333,-0.144694 -0.210839,0 -0.349332,0.144694 -0.138493,0.142627 -0.138493,0.353467 0,0.214974 0.14056,0.357601 0.142627,0.14056 0.347265,0.14056 0.21084,0 0.349333,-0.144694 0.138493,-0.144694 0.138493,-0.353467 z"
       inkscape:connector-curvature="0" />
  </g>
  <path
     inkscape:connector-curvature="0"
     id="rect5282-9"
     d="m 2.42554,84.987414 h 5.291667 v 8.898 H 2.42554 Z"
     style="opacity:1;fill:#001f00;fill-opacity:1;fill-rule:nonzero;stroke:#000000;stroke-width:2.19999981;stroke-linecap:butt;stroke-linejoin:round;stroke-miterlimit:8.19999981;stroke-dasharray:none;stroke-dashoffset:0;stroke-opacity:1;paint-order:normal" />
  <g
     id="text5206-7-4"
     style="font-style:normal;font-variant:normal;font-weight:normal;font-stretch:normal;font-size:2.11666656px;line-height:125%;font-family:sans-serif;-inkscape-font-specification:'sans-serif, Normal';font-variant-ligatures:normal;font-variant-caps:normal;font-variant-numeric:normal;font-feature-settings:normal;text-align:start;letter-spacing:0px;word-spacing:0px;writing-mode:lr-tb;text-anchor:start;fill:#000000;fill-opacity:1;stroke:none;stroke-width:0.26458332px;stroke-linecap:butt;stroke-linejoin:miter;stroke-opacity:1"
     aria-label="M"
     transform="translate(-1.531999,26.171851)">
    <path
       inkscape:connector-curvature="0"
       id="path1278"
       style="font-style:normal;font-variant:normal;font-weight:normal;font-stretch:normal;font-size:2.11666656px;font-family:sans-serif;-inkscape-font-specification:'sans-serif, Normal';font-variant-ligatures:normal;font-variant-caps:normal;font-variant-numeric:normal;font-feature-settings:normal;text-align:start;writing-mode:lr-tb;text-anchor:start;fill:#ffffff;fill-opacity:1;stroke-width:0.26458332px"
       d="M 7.2886014,60.34486 H 7.0839627 v -1.326017 l -0.4278808,0.90227 H 6.5341255 L 6.1093453,59.018843 V 60.34486 H 5.9181425 v -1.538924 h 0.2790527 l 0.4103108,0.856795 0.396875,-0.856795 h 0.2842204 z" />
  </g>
  <path
     inkscape:connector-curvature="0"
     id="rect5282-9-4"
     d="m 12.2861,84.987414 h 5.291667 v 8.898 H 12.2861 Z"
     style="opacity:1;fill:#cd1f00;fill-opacity:1;fill-rule:nonzero;stroke:#cd1f00;stroke-width:2.19999981;stroke-linecap:butt;stroke-linejoin:round;stroke-miterlimit:8.19999981;stroke-dasharray:none;stroke-dashoffset:0;stroke-opacity:1;paint-order:normal" />
  <g
     aria-label="8re"
     style="font-style:normal;font-variant:normal;font-weight:normal;font-stretch:normal;font-size:2.82222223px;line-height:125%;font-family:'DejaVu Sans Mono';-inkscape-font-specification:'DejaVu Sans Mono, Normal';font-variant-ligatures:normal;font-variant-caps:normal;font-variant-numeric:normal;font-feature-settings:normal;text-align:start;letter-spacing:0px;word-spacing:0px;writing-mode:lr-tb;text-anchor:start;fill:#000000;fill-opacity:1;stroke:none;stroke-width:0.26458332px;stroke-linecap:butt;stroke-linejoin:miter;stroke-opacity:1"
     id="text869">
    <path
       d="m 18.746142,3.2514814 q 0,0.3989421 -0.312126,0.6635254 -0.310058,0.2645833 -0.781347,0.2645833 -0.500228,0 -0.797884,-0.2583822 -0.29559,-0.2583821 -0.29559,-0.6614583 0,-0.256315 0.148829,-0.4630208 0.148828,-0.2087727 0.419612,-0.3307291 V 2.4535973 Q 16.879589,2.3213057 16.7597,2.1642093 16.641878,2.007113 16.641878,1.7714685 q 0,-0.3472656 0.285254,-0.578776 0.285254,-0.23151044 0.725537,-0.23151044 0.460953,0 0.735872,0.22117514 0.274919,0.2211751 0.274919,0.5622395 0,0.2087728 -0.130225,0.4113444 -0.130225,0.2005046 -0.382406,0.3141927 v 0.012402 q 0.289388,0.1240235 0.442351,0.3059245 0.152962,0.181901 0.152962,0.4630211 z M 18.256249,1.7487308 q 0,-0.2211751 -0.171565,-0.3513997 -0.169499,-0.1322916 -0.434082,-0.1322916 -0.26045,0 -0.427881,0.1240234 -0.165365,0.1240234 -0.165365,0.3348633 0,0.1488281 0.08268,0.2583821 0.08475,0.107487 0.254248,0.1922363 0.07648,0.037207 0.219108,0.097152 0.144694,0.059945 0.281119,0.099219 0.204639,-0.1364258 0.283187,-0.2831869 0.07855,-0.146761 0.07855,-0.3389974 z m 0.06408,1.5420247 q 0,-0.1901693 -0.08475,-0.3038574 -0.08268,-0.1157552 -0.326595,-0.2315104 -0.09715,-0.045475 -0.212907,-0.084749 -0.115755,-0.039274 -0.307992,-0.1095541 -0.186035,0.1012858 -0.299723,0.2749186 -0.111621,0.1736328 -0.111621,0.3927409 0,0.2790527 0.192236,0.4609537 0.192237,0.1819011 0.487826,0.1819011 0.30179,0 0.481624,-0.1550293 0.181901,-0.1550293 0.181901,-0.4258138 z"
       style="font-style:normal;font-variant:normal;font-weight:normal;font-stretch:normal;font-size:4.23333311px;font-family:sans-serif;-inkscape-font-specification:'sans-serif, Normal';font-variant-ligatures:normal;font-variant-caps:normal;font-variant-numeric:normal;font-feature-settings:normal;text-align:start;writing-mode:lr-tb;text-anchor:start;stroke-width:0.26458332px"
       id="path938"
       inkscape:connector-curvature="0" />
    <path
       d="m 20.825602,2.224154 h -0.02067 Q 20.718112,2.203483 20.635433,2.195215 20.554813,2.18488 20.443197,2.18488 q -0.179834,0 -0.347266,0.080615 Q 19.9285,2.344043 19.77347,2.4701337 V 4.1093102 H 19.384863 V 1.8004073 h 0.388606 v 0.3410644 q 0.231511,-0.1860351 0.407211,-0.2625163 0.177767,-0.078548 0.361735,-0.078548 0.101286,0 0.146761,0.0062 0.04547,0.00413 0.136426,0.018604 z"
       style="font-style:normal;font-variant:normal;font-weight:normal;font-stretch:normal;font-size:4.23333311px;font-family:sans-serif;-inkscape-font-specification:'sans-serif, Normal';font-variant-ligatures:normal;font-variant-caps:normal;font-variant-numeric:normal;font-feature-settings:normal;text-align:start;writing-mode:lr-tb;text-anchor:start;stroke-width:0.26458332px"
       id="path940"
       inkscape:connector-curvature="0" />
    <path
       d="m 23.128303,2.9951663 h -1.701188 q 0,0.2129069 0.06408,0.3720703 0.06408,0.1570964 0.1757,0.2583822 0.107487,0.099219 0.254248,0.1488281 0.148828,0.049609 0.326595,0.049609 0.235644,0 0.473356,-0.093018 0.239778,-0.095085 0.341064,-0.1860352 h 0.02067 v 0.4237468 q -0.196371,0.082682 -0.401009,0.1384928 -0.204639,0.05581 -0.429948,0.05581 -0.574642,0 -0.897103,-0.3100585 -0.322461,-0.3121257 -0.322461,-0.8847005 0,-0.5663737 0.307992,-0.8991699 0.310058,-0.3327962 0.81442,-0.3327962 0.467155,0 0.719336,0.2728516 0.254248,0.2728515 0.254248,0.7751464 z M 22.750032,2.6975101 q -0.0021,-0.3059245 -0.15503,-0.4733561 -0.150895,-0.1674316 -0.460953,-0.1674316 -0.312126,0 -0.498161,0.1839681 -0.183968,0.183968 -0.208773,0.4568196 z"
       style="font-style:normal;font-variant:normal;font-weight:normal;font-stretch:normal;font-size:4.23333311px;font-family:sans-serif;-inkscape-font-specification:'sans-serif, Normal';font-variant-ligatures:normal;font-variant-caps:normal;font-variant-numeric:normal;font-feature-settings:normal;text-align:start;writing-mode:lr-tb;text-anchor:start;stroke-width:0.26458332px"
       id="path942"
       inkscape:connector-curvature="0" />
  </g>
  <path
     inkscape:connector-curvature="0"
     id="rect5282-9-4-0"
     d="m 22.146662,84.987414 h 5.291667 v 8.898 h -5.291667 z"
     style="opacity:1;fill:#cd1f00;fill-opacity:1;fill-rule:nonzero;stroke:#cd1f00;stroke-width:2.19999981;stroke-linecap:butt;stroke-linejoin:round;stroke-miterlimit:8.19999981;stroke-dasharray:none;stroke-dashoffset:0;stroke-opacity:1;paint-order:normal" />
  <path
     inkscape:connector-curvature="0"
     id="rect5282-9-4-8"
     d="m 32.00722,84.987414 h 5.291667 v 8.898 H 32.00722 Z"
     style="opacity:1;fill:#cd1f00;fill-opacity:1;fill-rule:nonzero;stroke:#cd1f00;stroke-width:2.19999981;stroke-linecap:butt;stroke-linejoin:round;stroke-miterlimit:8.19999981;stroke-dasharray:none;stroke-dashoffset:0;stroke-opacity:1;paint-order:normal" />
  <g
     aria-label="PTN"
     style="font-style:normal;font-variant:normal;font-weight:normal;font-stretch:normal;font-size:2.82222223px;line-height:125%;font-family:'DejaVu Sans Mono';-inkscape-font-specification:'DejaVu Sans Mono, Normal';font-variant-ligatures:normal;font-variant-caps:normal;font-variant-numeric:normal;font-feature-settings:normal;text-align:start;letter-spacing:0px;word-spacing:0px;writing-mode:lr-tb;text-anchor:start;fill:#000000;fill-opacity:1;stroke:none;stroke-width:0.26458332px;stroke-linecap:butt;stroke-linejoin:miter;stroke-opacity:1"
     id="text947">
    <path
       d="m 14.059635,85.442872 q 0,0.102319 -0.03617,0.190169 -0.03514,0.08682 -0.09922,0.150896 -0.07958,0.07958 -0.188102,0.119889 -0.108521,0.03927 -0.273885,0.03927 h -0.204639 v 0.573608 H 13.05298 V 84.97778 h 0.417546 q 0.138493,0 0.234611,0.02377 0.09612,0.02274 0.170532,0.07235 0.08785,0.05891 0.135392,0.146762 0.04858,0.08785 0.04858,0.222208 z m -0.212907,0.0052 q 0,-0.07958 -0.02791,-0.138493 -0.02791,-0.05891 -0.08475,-0.09612 -0.04961,-0.03204 -0.113689,-0.04548 -0.06305,-0.01447 -0.160197,-0.01447 h -0.202571 v 0.61495 h 0.172599 q 0.124024,0 0.201538,-0.0217 0.07752,-0.02274 0.126091,-0.07131 0.04858,-0.04961 0.06821,-0.104386 0.02067,-0.05478 0.02067,-0.12299 z"
       style="font-style:normal;font-variant:normal;font-weight:normal;font-stretch:normal;font-size:2.11666656px;font-family:sans-serif;-inkscape-font-specification:'sans-serif, Normal';font-variant-ligatures:normal;font-variant-caps:normal;font-variant-numeric:normal;font-feature-settings:normal;text-align:start;writing-mode:lr-tb;text-anchor:start;fill:#ffffff;fill-opacity:1;stroke-width:0.26458332px"
       id="path993"
       inkscape:connector-curvature="0" />
    <path
       d="M 15.428027,85.159685 H 14.87819 v 1.357023 h -0.204639 v -1.357023 h -0.549837 v -0.181901 h 1.304313 z"
       style="font-style:normal;font-variant:normal;font-weight:normal;font-stretch:normal;font-size:2.11666656px;font-family:sans-serif;-inkscape-font-specification:'sans-serif, Normal';font-variant-ligatures:normal;font-variant-caps:normal;font-variant-numeric:normal;font-feature-settings:normal;text-align:start;writing-mode:lr-tb;text-anchor:start;fill:#ffffff;fill-opacity:1;stroke-width:0.26458332px"
       id="path995"
       inkscape:connector-curvature="0" />
    <path
       d="m 16.810888,86.516708 h -0.253214 l -0.729671,-1.37666 v 1.37666 H 15.6368 v -1.538924 h 0.317293 l 0.665592,1.256771 v -1.256771 h 0.191203 z"
       style="font-style:normal;font-variant:normal;font-weight:normal;font-stretch:normal;font-size:2.11666656px;font-family:sans-serif;-inkscape-font-specification:'sans-serif, Normal';font-variant-ligatures:normal;font-variant-caps:normal;font-variant-numeric:normal;font-feature-settings:normal;text-align:start;writing-mode:lr-tb;text-anchor:start;fill:#ffffff;fill-opacity:1;stroke-width:0.26458332px"
       id="path997"
       inkscape:connector-curvature="0" />
  </g>
  <g
     aria-label="CV1"
     style="font-style:normal;font-variant:normal;font-weight:normal;font-stretch:normal;font-size:2.82222223px;line-height:125%;font-family:'DejaVu Sans Mono';-inkscape-font-specification:'DejaVu Sans Mono, Normal';font-variant-ligatures:normal;font-variant-caps:normal;font-variant-numeric:normal;font-feature-settings:normal;text-align:start;letter-spacing:0px;word-spacing:0px;writing-mode:lr-tb;text-anchor:start;fill:#000000;fill-opacity:1;stroke:none;stroke-width:0.26458332px;stroke-linecap:butt;stroke-linejoin:miter;stroke-opacity:1"
     id="text947-4">
    <path
       d="m 24.104683,86.405087 q -0.05684,0.02481 -0.103353,0.04651 -0.04547,0.0217 -0.119889,0.04548 -0.06305,0.01964 -0.13746,0.03307 -0.07338,0.01447 -0.162264,0.01447 -0.167431,0 -0.304891,-0.04651 -0.136425,-0.04754 -0.237711,-0.147795 -0.09922,-0.09818 -0.155029,-0.24908 -0.05581,-0.151929 -0.05581,-0.352433 0,-0.19017 0.05374,-0.340031 0.05374,-0.149862 0.155029,-0.253215 0.09819,-0.100252 0.236678,-0.152962 0.139526,-0.05271 0.309025,-0.05271 0.124023,0 0.247013,0.02997 0.124024,0.02997 0.274919,0.10542 v 0.242879 h -0.0155 q -0.127124,-0.106453 -0.252181,-0.155029 -0.125057,-0.04858 -0.267684,-0.04858 -0.116789,0 -0.21084,0.03824 -0.09302,0.03721 -0.166398,0.116789 -0.07131,0.07751 -0.111621,0.19637 -0.03927,0.117822 -0.03927,0.272852 0,0.162264 0.04341,0.279052 0.04444,0.116789 0.113688,0.19017 0.07235,0.07648 0.168465,0.113688 0.09715,0.03617 0.204639,0.03617 0.147795,0 0.276986,-0.05064 0.129191,-0.05064 0.241845,-0.151928 h 0.01447 z"
       style="font-style:normal;font-variant:normal;font-weight:normal;font-stretch:normal;font-size:2.11666656px;font-family:sans-serif;-inkscape-font-specification:'sans-serif, Normal';font-variant-ligatures:normal;font-variant-caps:normal;font-variant-numeric:normal;font-feature-settings:normal;text-align:start;writing-mode:lr-tb;text-anchor:start;fill:#ffffff;fill-opacity:1;stroke-width:0.26458332px"
       id="path1000"
       inkscape:connector-curvature="0" />
    <path
       d="m 25.6095,84.977784 -0.560172,1.538924 h -0.272852 l -0.560172,-1.538924 h 0.219108 l 0.482658,1.353923 0.482658,-1.353923 z"
       style="font-style:normal;font-variant:normal;font-weight:normal;font-stretch:normal;font-size:2.11666656px;font-family:sans-serif;-inkscape-font-specification:'sans-serif, Normal';font-variant-ligatures:normal;font-variant-caps:normal;font-variant-numeric:normal;font-feature-settings:normal;text-align:start;writing-mode:lr-tb;text-anchor:start;fill:#ffffff;fill-opacity:1;stroke-width:0.26458332px"
       id="path1002"
       inkscape:connector-curvature="0" />
    <path
       d="m 26.756717,86.516708 h -0.833024 v -0.157096 h 0.320394 V 85.32815 h -0.320394 v -0.140559 q 0.06511,0 0.139526,-0.01034 0.07441,-0.01137 0.112655,-0.03204 0.04754,-0.02584 0.07441,-0.06511 0.02791,-0.04031 0.03204,-0.107487 h 0.160197 v 1.386995 h 0.314193 z"
       style="font-style:normal;font-variant:normal;font-weight:normal;font-stretch:normal;font-size:2.11666656px;font-family:sans-serif;-inkscape-font-specification:'sans-serif, Normal';font-variant-ligatures:normal;font-variant-caps:normal;font-variant-numeric:normal;font-feature-settings:normal;text-align:start;writing-mode:lr-tb;text-anchor:start;fill:#ffffff;fill-opacity:1;stroke-width:0.26458332px"
       id="path1004"
       inkscape:connector-curvature="0" />
  </g>
  <g
     aria-label="CV2"
     style="font-style:normal;font-variant:normal;font-weight:normal;font-stretch:normal;font-size:2.82222223px;line-height:125%;font-family:'DejaVu Sans Mono';-inkscape-font-specification:'DejaVu Sans Mono, Normal';font-variant-ligatures:normal;font-variant-caps:normal;font-variant-numeric:normal;font-feature-settings:normal;text-align:start;letter-spacing:0px;word-spacing:0px;writing-mode:lr-tb;text-anchor:start;fill:#000000;fill-opacity:1;stroke:none;stroke-width:0.26458332px;stroke-linecap:butt;stroke-linejoin:miter;stroke-opacity:1"
     id="text947-40">
    <path
       d="m 33.921314,86.407155 q -0.05684,0.02481 -0.103353,0.04651 -0.04547,0.0217 -0.119889,0.04547 -0.06305,0.01964 -0.137459,0.03307 -0.07338,0.01447 -0.162264,0.01447 -0.167432,0 -0.304891,-0.04651 -0.136426,-0.04754 -0.237712,-0.147794 -0.09922,-0.09819 -0.155029,-0.249081 -0.05581,-0.151928 -0.05581,-0.352433 0,-0.190169 0.05374,-0.340031 0.05374,-0.149861 0.155029,-0.253214 0.09819,-0.100252 0.236678,-0.152962 0.139527,-0.05271 0.309025,-0.05271 0.124024,0 0.247014,0.02997 0.124023,0.02997 0.274918,0.10542 v 0.242879 h -0.0155 Q 33.778687,85.223756 33.65363,85.17518 33.528573,85.1266 33.385946,85.1266 q -0.116788,0 -0.210839,0.03824 -0.09302,0.03721 -0.166399,0.116789 -0.07131,0.07751 -0.111621,0.196371 -0.03927,0.117822 -0.03927,0.272851 0,0.162264 0.04341,0.279053 0.04444,0.116789 0.113689,0.190169 0.07235,0.07648 0.168465,0.113688 0.09715,0.03617 0.204638,0.03617 0.147795,0 0.276986,-0.05064 0.129191,-0.05064 0.241846,-0.151929 h 0.01447 z"
       style="font-style:normal;font-variant:normal;font-weight:normal;font-stretch:normal;font-size:2.11666656px;font-family:sans-serif;-inkscape-font-specification:'sans-serif, Normal';font-variant-ligatures:normal;font-variant-caps:normal;font-variant-numeric:normal;font-feature-settings:normal;text-align:start;writing-mode:lr-tb;text-anchor:start;fill:#ffffff;fill-opacity:1;stroke-width:0.26458332px"
       id="path1007"
       inkscape:connector-curvature="0" />
    <path
       d="m 35.426132,84.979852 -0.560173,1.538924 h -0.272851 l -0.560173,-1.538924 h 0.219108 l 0.482658,1.353922 0.482658,-1.353922 z"
       style="font-style:normal;font-variant:normal;font-weight:normal;font-stretch:normal;font-size:2.11666656px;font-family:sans-serif;-inkscape-font-specification:'sans-serif, Normal';font-variant-ligatures:normal;font-variant-caps:normal;font-variant-numeric:normal;font-feature-settings:normal;text-align:start;writing-mode:lr-tb;text-anchor:start;fill:#ffffff;fill-opacity:1;stroke-width:0.26458332px"
       id="path1009"
       inkscape:connector-curvature="0" />
    <path
       d="m 36.661198,86.518776 h -1.041796 v -0.216008 q 0.10852,-0.09302 0.217041,-0.186035 0.109554,-0.09302 0.203605,-0.185001 0.198437,-0.192237 0.271818,-0.304891 0.07338,-0.113688 0.07338,-0.244947 0,-0.119889 -0.07958,-0.187068 -0.07855,-0.06821 -0.220141,-0.06821 -0.09405,0 -0.203605,0.03307 -0.109554,0.03307 -0.213941,0.101286 h -0.01033 v -0.217041 q 0.07338,-0.03617 0.195337,-0.06615 0.12299,-0.02997 0.237712,-0.02997 0.236678,0 0.371036,0.114722 0.134359,0.113688 0.134359,0.309025 0,0.08785 -0.02274,0.164331 -0.0217,0.07545 -0.06511,0.143661 -0.04031,0.06408 -0.09508,0.12609 -0.05374,0.06201 -0.131258,0.13746 -0.110587,0.10852 -0.228409,0.210839 -0.117823,0.101286 -0.220142,0.188103 h 0.827856 z"
       style="font-style:normal;font-variant:normal;font-weight:normal;font-stretch:normal;font-size:2.11666656px;font-family:sans-serif;-inkscape-font-specification:'sans-serif, Normal';font-variant-ligatures:normal;font-variant-caps:normal;font-variant-numeric:normal;font-feature-settings:normal;text-align:start;writing-mode:lr-tb;text-anchor:start;fill:#ffffff;fill-opacity:1;stroke-width:0.26458332px"
       id="path1011"
       inkscape:connector-curvature="0" />
  </g>
  <g
     id="g985"
     transform="translate(0.52717777,-7.9076671)">
    <path
       style="opacity:1;fill:#cd1f00;fill-opacity:1;fill-rule:nonzero;stroke:#cd1f00;stroke-width:2.19999981;stroke-linecap:butt;stroke-linejoin:round;stroke-miterlimit:8.19999981;stroke-dasharray:none;stroke-dashoffset:0;stroke-opacity:1;paint-order:normal"
       d="m 34.887251,13.200502 h 1.977978 v 6.789289 h -1.977978 z"
       id="rect5282-9-4-8-4"
       inkscape:connector-curvature="0" />
    <g
       aria-label="GATE"
       transform="rotate(-90)"
       style="font-style:normal;font-variant:normal;font-weight:normal;font-stretch:normal;font-size:2.82222223px;line-height:125%;font-family:'DejaVu Sans Mono';-inkscape-font-specification:'DejaVu Sans Mono, Normal';font-variant-ligatures:normal;font-variant-caps:normal;font-variant-numeric:normal;font-feature-settings:normal;text-align:start;letter-spacing:0px;word-spacing:0px;writing-mode:lr-tb;text-anchor:start;fill:#000000;fill-opacity:1;stroke:none;stroke-width:0.26458332px;stroke-linecap:butt;stroke-linejoin:miter;stroke-opacity:1"
       id="text980">
      <path
         d="m -17.909794,36.53098 q -0.126091,0.05788 -0.275953,0.101286 -0.148828,0.04237 -0.288354,0.04237 -0.179834,0 -0.329696,-0.04961 -0.149861,-0.04961 -0.255281,-0.148829 -0.106454,-0.100252 -0.164331,-0.250114 -0.05788,-0.150895 -0.05788,-0.352433 0,-0.368969 0.214974,-0.581876 0.216008,-0.213941 0.592212,-0.213941 0.131258,0 0.267684,0.03204 0.137459,0.03101 0.295589,0.106453 v 0.242879 h -0.0186 q -0.03204,-0.0248 -0.09302,-0.06511 -0.06098,-0.04031 -0.119889,-0.06718 -0.07131,-0.03204 -0.162264,-0.05271 -0.08992,-0.0217 -0.204639,-0.0217 -0.258382,0 -0.409277,0.166398 -0.149862,0.165364 -0.149862,0.448551 0,0.29869 0.157096,0.465088 0.157097,0.165365 0.427881,0.165365 0.09922,0 0.197404,-0.01964 0.09922,-0.01964 0.173633,-0.05064 V 36.05039 h -0.412378 v -0.179834 h 0.61495 z"
         style="font-style:normal;font-variant:normal;font-weight:normal;font-stretch:normal;font-size:2.11666656px;font-family:sans-serif;-inkscape-font-specification:'sans-serif, Normal';font-variant-ligatures:normal;font-variant-caps:normal;font-variant-numeric:normal;font-feature-settings:normal;text-align:start;writing-mode:lr-tb;text-anchor:start;fill:#ffffff;fill-opacity:1;stroke-width:0.26458332px"
         id="path987"
         inkscape:connector-curvature="0" />
      <path
         d="m -16.338831,36.644669 h -0.218074 l -0.150896,-0.428915 h -0.665592 l -0.150895,0.428915 h -0.207739 l 0.560172,-1.538924 h 0.272852 z m -0.432015,-0.604615 -0.269751,-0.755509 -0.270784,0.755509 z"
         style="font-style:normal;font-variant:normal;font-weight:normal;font-stretch:normal;font-size:2.11666656px;font-family:sans-serif;-inkscape-font-specification:'sans-serif, Normal';font-variant-ligatures:normal;font-variant-caps:normal;font-variant-numeric:normal;font-feature-settings:normal;text-align:start;writing-mode:lr-tb;text-anchor:start;fill:#ffffff;fill-opacity:1;stroke-width:0.26458332px"
         id="path989"
         inkscape:connector-curvature="0" />
      <path
         d="m -15.13167,35.287646 h -0.549837 v 1.357023 h -0.204638 v -1.357023 h -0.549838 v -0.181901 h 1.304313 z"
         style="font-style:normal;font-variant:normal;font-weight:normal;font-stretch:normal;font-size:2.11666656px;font-family:sans-serif;-inkscape-font-specification:'sans-serif, Normal';font-variant-ligatures:normal;font-variant-caps:normal;font-variant-numeric:normal;font-feature-settings:normal;text-align:start;writing-mode:lr-tb;text-anchor:start;fill:#ffffff;fill-opacity:1;stroke-width:0.26458332px"
         id="path991"
         inkscape:connector-curvature="0" />
      <path
         d="m -13.909005,36.644669 h -1.013892 v -1.538924 h 1.013892 v 0.181901 h -0.809253 v 0.421679 h 0.809253 v 0.181901 h -0.809253 v 0.571542 h 0.809253 z"
         style="font-style:normal;font-variant:normal;font-weight:normal;font-stretch:normal;font-size:2.11666656px;font-family:sans-serif;-inkscape-font-specification:'sans-serif, Normal';font-variant-ligatures:normal;font-variant-caps:normal;font-variant-numeric:normal;font-feature-settings:normal;text-align:start;writing-mode:lr-tb;text-anchor:start;fill:#ffffff;fill-opacity:1;stroke-width:0.26458332px"
         id="path994"
         inkscape:connector-curvature="0" />
    </g>
  </g>
  <g
     aria-label="PTN"
     style="font-style:normal;font-variant:normal;font-weight:normal;font-stretch:normal;font-size:2.82222223px;line-height:125%;font-family:sans-serif;-inkscape-font-specification:'sans-serif, Normal';font-variant-ligatures:normal;font-variant-caps:normal;font-variant-numeric:normal;font-feature-settings:normal;text-align:start;letter-spacing:0px;word-spacing:0px;writing-mode:lr-tb;text-anchor:start;fill:#000000;fill-opacity:1;stroke:none;stroke-width:0.26458332px;stroke-linecap:butt;stroke-linejoin:miter;stroke-opacity:1"
     id="text999">
    <path
       d="m 13.302376,8.2816468 q 0,0.1364258 -0.04823,0.253559 -0.04685,0.1157552 -0.132291,0.2011936 -0.106109,0.106109 -0.250803,0.1598524 -0.144694,0.052366 -0.36518,0.052366 H 12.233018 V 9.7134285 H 11.960167 V 7.6615296 h 0.556727 q 0.184657,0 0.312815,0.031695 0.128157,0.030317 0.227376,0.096463 0.117133,0.078548 0.180523,0.1956814 0.06477,0.1171332 0.06477,0.2962782 z M 13.0185,8.288537 q 0,-0.1061089 -0.03721,-0.1846571 -0.03721,-0.078548 -0.112999,-0.1281576 -0.06615,-0.042719 -0.151585,-0.060634 -0.08406,-0.019292 -0.213595,-0.019292 H 12.233015 V 8.715729 h 0.230132 q 0.165365,0 0.268718,-0.028939 0.103353,-0.030317 0.168121,-0.095085 0.06477,-0.066146 0.09095,-0.1391819 0.02756,-0.073036 0.02756,-0.1639865 z"
       style="font-style:normal;font-variant:normal;font-weight:normal;font-stretch:normal;font-size:2.82222223px;font-family:sans-serif;-inkscape-font-specification:'sans-serif, Normal';font-variant-ligatures:normal;font-variant-caps:normal;font-variant-numeric:normal;font-feature-settings:normal;text-align:start;writing-mode:lr-tb;text-anchor:start;stroke-width:0.26458332px"
       id="path1010"
       inkscape:connector-curvature="0" />
    <path
       d="M 15.126898,7.9040643 H 14.393782 V 9.7134285 H 14.12093 V 7.9040643 H 13.387814 V 7.6615296 h 1.739084 z"
       style="font-style:normal;font-variant:normal;font-weight:normal;font-stretch:normal;font-size:2.82222223px;font-family:sans-serif;-inkscape-font-specification:'sans-serif, Normal';font-variant-ligatures:normal;font-variant-caps:normal;font-variant-numeric:normal;font-feature-settings:normal;text-align:start;writing-mode:lr-tb;text-anchor:start;stroke-width:0.26458332px"
       id="path1013"
       inkscape:connector-curvature="0" />
    <path
       d="M 16.970713,9.7134285 H 16.633094 L 15.660199,7.8778816 V 9.7134285 H 15.405262 V 7.6615296 h 0.423058 l 0.887456,1.6756945 V 7.6615296 h 0.254937 z"
       style="font-style:normal;font-variant:normal;font-weight:normal;font-stretch:normal;font-size:2.82222223px;font-family:sans-serif;-inkscape-font-specification:'sans-serif, Normal';font-variant-ligatures:normal;font-variant-caps:normal;font-variant-numeric:normal;font-feature-settings:normal;text-align:start;writing-mode:lr-tb;text-anchor:start;stroke-width:0.26458332px"
       id="path1015"
       inkscape:connector-curvature="0" />
  </g>
  <g
     aria-label="CV1"
     style="font-style:normal;font-variant:normal;font-weight:normal;font-stretch:normal;font-size:2.82222223px;line-height:125%;font-family:sans-serif;-inkscape-font-specification:'sans-serif, Normal';font-variant-ligatures:normal;font-variant-caps:normal;font-variant-numeric:normal;font-feature-settings:normal;text-align:start;letter-spacing:0px;word-spacing:0px;writing-mode:lr-tb;text-anchor:start;fill:#000000;fill-opacity:1;stroke:none;stroke-width:0.26458332px;stroke-linecap:butt;stroke-linejoin:miter;stroke-opacity:1"
     id="text1003">
    <path
       d="m 20.660061,9.5646004 q -0.07579,0.033073 -0.137804,0.062012 -0.06063,0.028939 -0.159852,0.060634 -0.08406,0.026183 -0.183279,0.044097 -0.09784,0.019292 -0.216352,0.019292 -0.223243,0 -0.406522,-0.062012 -0.181901,-0.06339 -0.316948,-0.1970595 -0.132292,-0.1309136 -0.206706,-0.3321072 -0.07441,-0.2025716 -0.07441,-0.469911 0,-0.253559 0.07166,-0.4533746 0.07166,-0.1998155 0.206705,-0.3376193 0.130914,-0.1336697 0.315571,-0.2039497 0.186035,-0.07028 0.412034,-0.07028 0.165364,0 0.329351,0.039963 0.165364,0.039963 0.366558,0.1405599 V 8.128684 H 20.63939 Q 20.469892,7.9867466 20.303149,7.9219788 20.136406,7.857211 19.946237,7.857211 q -0.155718,0 -0.28112,0.050987 -0.124023,0.049609 -0.221864,0.1557183 -0.09508,0.1033528 -0.148828,0.2618272 -0.05237,0.1570964 -0.05237,0.3638021 0,0.216352 0.05788,0.3720703 0.05926,0.1557183 0.151584,0.2535591 0.09646,0.1019748 0.224621,0.1515842 0.129535,0.048231 0.272851,0.048231 0.19706,0 0.369314,-0.067524 0.172255,-0.067524 0.322461,-0.2025716 h 0.01929 z"
       style="font-style:normal;font-variant:normal;font-weight:normal;font-stretch:normal;font-size:2.82222223px;font-family:sans-serif;-inkscape-font-specification:'sans-serif, Normal';font-variant-ligatures:normal;font-variant-caps:normal;font-variant-numeric:normal;font-feature-settings:normal;text-align:start;writing-mode:lr-tb;text-anchor:start;stroke-width:0.26458332px"
       id="path1019"
       inkscape:connector-curvature="0" />
    <path
       d="M 22.666484,7.6615296 21.919588,9.7134285 H 21.555786 L 20.808889,7.6615296 h 0.292144 l 0.643544,1.8052301 0.643544,-1.8052301 z"
       style="font-style:normal;font-variant:normal;font-weight:normal;font-stretch:normal;font-size:2.82222223px;font-family:sans-serif;-inkscape-font-specification:'sans-serif, Normal';font-variant-ligatures:normal;font-variant-caps:normal;font-variant-numeric:normal;font-feature-settings:normal;text-align:start;writing-mode:lr-tb;text-anchor:start;stroke-width:0.26458332px"
       id="path1021"
       inkscape:connector-curvature="0" />
    <path
       d="M 24.196107,9.7134285 H 23.085408 V 9.5039667 H 23.5126 V 8.1286846 H 23.085408 V 7.9412714 q 0.08682,0 0.186035,-0.01378 0.09922,-0.015158 0.150206,-0.042719 0.06339,-0.034451 0.09922,-0.086816 0.03721,-0.053744 0.04272,-0.143316 h 0.213596 v 1.8493273 h 0.418924 z"
       style="font-style:normal;font-variant:normal;font-weight:normal;font-stretch:normal;font-size:2.82222223px;font-family:sans-serif;-inkscape-font-specification:'sans-serif, Normal';font-variant-ligatures:normal;font-variant-caps:normal;font-variant-numeric:normal;font-feature-settings:normal;text-align:start;writing-mode:lr-tb;text-anchor:start;stroke-width:0.26458332px"
       id="path1023"
       inkscape:connector-curvature="0" />
  </g>
  <g
     aria-label="CV2"
     style="font-style:normal;font-variant:normal;font-weight:normal;font-stretch:normal;font-size:2.82222223px;line-height:125%;font-family:sans-serif;-inkscape-font-specification:'sans-serif, Normal';font-variant-ligatures:normal;font-variant-caps:normal;font-variant-numeric:normal;font-feature-settings:normal;text-align:start;letter-spacing:0px;word-spacing:0px;writing-mode:lr-tb;text-anchor:start;fill:#000000;fill-opacity:1;stroke:none;stroke-width:0.26458332px;stroke-linecap:butt;stroke-linejoin:miter;stroke-opacity:1"
     id="text1007">
    <path
       d="m 27.713203,9.5673565 q -0.07579,0.033073 -0.137803,0.062012 -0.06063,0.028939 -0.159853,0.060634 -0.08406,0.026183 -0.183279,0.044097 -0.09784,0.019293 -0.216352,0.019293 -0.223242,0 -0.406521,-0.062012 Q 26.427494,9.6279905 26.292446,9.4943211 26.160154,9.3634074 26.08574,9.1622139 26.01133,8.9596422 26.01133,8.6923028 q 0,-0.253559 0.07166,-0.4533745 0.07166,-0.1998156 0.206706,-0.3376194 0.130914,-0.1336697 0.315571,-0.2039496 0.186035,-0.07028 0.412033,-0.07028 0.165365,0 0.329351,0.039963 0.165365,0.039963 0.366558,0.1405599 v 0.323839 h -0.02067 Q 27.523034,7.9895028 27.356292,7.924735 27.189549,7.8599672 26.99938,7.8599672 q -0.155719,0 -0.28112,0.050987 -0.124024,0.049609 -0.221864,0.1557183 -0.09509,0.1033529 -0.148828,0.2618272 -0.05237,0.1570964 -0.05237,0.3638021 0,0.216352 0.05788,0.3720703 0.05926,0.1557184 0.151584,0.2535591 0.09646,0.1019748 0.22462,0.1515842 0.129536,0.048231 0.272852,0.048231 0.197059,0 0.369314,-0.067524 0.172255,-0.067524 0.322461,-0.2025716 h 0.01929 z"
       style="font-style:normal;font-variant:normal;font-weight:normal;font-stretch:normal;font-size:2.82222223px;font-family:sans-serif;-inkscape-font-specification:'sans-serif, Normal';font-variant-ligatures:normal;font-variant-caps:normal;font-variant-numeric:normal;font-feature-settings:normal;text-align:start;writing-mode:lr-tb;text-anchor:start;stroke-width:0.26458332px"
       id="path1026"
       inkscape:connector-curvature="0" />
    <path
       d="M 29.719627,7.6642857 28.97273,9.7161846 H 28.608928 L 27.862032,7.6642857 h 0.292144 l 0.643543,1.8052301 0.643544,-1.8052301 z"
       style="font-style:normal;font-variant:normal;font-weight:normal;font-stretch:normal;font-size:2.82222223px;font-family:sans-serif;-inkscape-font-specification:'sans-serif, Normal';font-variant-ligatures:normal;font-variant-caps:normal;font-variant-numeric:normal;font-feature-settings:normal;text-align:start;writing-mode:lr-tb;text-anchor:start;stroke-width:0.26458332px"
       id="path1028"
       inkscape:connector-curvature="0" />
    <path
       d="M 31.366383,9.7161846 H 29.97732 v -0.28801 q 0.144694,-0.1240234 0.289388,-0.2480468 0.146072,-0.1240235 0.271474,-0.2466689 0.264583,-0.2563151 0.362424,-0.4065213 0.09784,-0.1515842 0.09784,-0.326595 0,-0.1598524 -0.106109,-0.2494249 -0.10473,-0.09095 -0.293522,-0.09095 -0.125401,0 -0.271473,0.044097 -0.146072,0.044097 -0.285254,0.1350477 h -0.01378 v -0.289388 q 0.09784,-0.048231 0.260449,-0.088194 0.163986,-0.039963 0.316949,-0.039963 0.31557,0 0.494715,0.1529622 0.179145,0.1515842 0.179145,0.4120334 0,0.1171333 -0.03032,0.2191081 -0.02894,0.1005968 -0.08682,0.1915473 -0.05374,0.085438 -0.12678,0.1681207 -0.07166,0.082682 -0.17501,0.183279 -0.14745,0.144694 -0.304547,0.2811198 -0.157096,0.1350478 -0.293522,0.250803 h 1.103809 z"
       style="font-style:normal;font-variant:normal;font-weight:normal;font-stretch:normal;font-size:2.82222223px;font-family:sans-serif;-inkscape-font-specification:'sans-serif, Normal';font-variant-ligatures:normal;font-variant-caps:normal;font-variant-numeric:normal;font-feature-settings:normal;text-align:start;writing-mode:lr-tb;text-anchor:start;stroke-width:0.26458332px"
       id="path1030"
       inkscape:connector-curvature="0" />
  </g>
</svg>
