<?xml version="1.0" encoding="UTF-8" standalone="no"?>
<svg
   xmlns:osb="http://www.openswatchbook.org/uri/2009/osb"
   xmlns:dc="http://purl.org/dc/elements/1.1/"
   xmlns:cc="http://creativecommons.org/ns#"
   xmlns:rdf="http://www.w3.org/1999/02/22-rdf-syntax-ns#"
   xmlns:svg="http://www.w3.org/2000/svg"
   xmlns="http://www.w3.org/2000/svg"
   id="svg12553"
   version="1.1"
   viewBox="0 0 15.875 100.54166"
   height="380"
   width="60">
  <defs
     id="defs12547">
    <linearGradient
       id="linearGradient4708"
       osb:paint="solid">
      <stop
         style="stop-color:#ececec;stop-opacity:1;"
         offset="0"
         id="stop4706" />
    </linearGradient>
    <filter
       style="color-interpolation-filters:sRGB"
       id="filter4696">
      <feColorMatrix
         in="SourceGraphic"
         values="0 0 0 0 1 0 0 0 0 0 0 0 0 0 0 1 0 0 0 0 0 "
         result="colormatrix"
         id="feColorMatrix4692" />
      <feBlend
         in2="BackgroundImage"
         mode="multiply"
         result="fbSourceGraphic"
         id="feBlend4694" />
      <feColorMatrix
         result="fbSourceGraphicAlpha"
         in="fbSourceGraphic"
         values="0 0 0 -1 0 0 0 0 -1 0 0 0 0 -1 0 0 0 0 1 0"
         id="feColorMatrix4762" />
      <feColorMatrix
         id="feColorMatrix4764"
         values="1 0 0 0 0 0 1 0 0 0 0 0 1 0 0 0 0 0 5 -1 "
         result="colormatrix"
         in="fbSourceGraphic" />
      <feComposite
         in2="colormatrix"
         id="feComposite4766"
         operator="arithmetic"
         k2="0.3"
         result="composite"
         k1="0"
         k3="0"
         k4="0" />
    </filter>
  </defs>
  <metadata
     id="metadata12550">
    <rdf:RDF>
      <cc:Work
         rdf:about="">
        <dc:format>image/svg+xml</dc:format>
        <dc:type
           rdf:resource="http://purl.org/dc/dcmitype/StillImage" />
        <dc:title></dc:title>
      </cc:Work>
    </rdf:RDF>
  </metadata>
  <g
     transform="matrix(0.13301424,0,0,1.0012215,-3.5598498,-161.56849)"
     id="layer1">
    <path
       style="fill:#e6e6e6;fill-opacity:1;fill-rule:nonzero;stroke:none;stroke-width:0.32258889"
       d="M 26.616839,161.37987 H 145.85344 v 100.3961 H 26.616839 Z m 0,0"
       id="path33453" />
  </g>
  <g
     transform="translate(-16.061385,-3.7041663)"
     aria-label="bId°°"
     style="font-style:normal;font-variant:normal;font-weight:normal;font-stretch:normal;font-size:4.23333311px;line-height:125%;font-family:'DejaVu Sans Mono';-inkscape-font-specification:'DejaVu Sans Mono, Normal';font-variant-ligatures:normal;font-variant-caps:normal;font-variant-numeric:normal;font-feature-settings:normal;text-align:start;letter-spacing:0px;word-spacing:0px;writing-mode:lr-tb;text-anchor:start;fill:#000000;fill-opacity:1;stroke:none;stroke-width:0.26458332px;stroke-linecap:butt;stroke-linejoin:miter;stroke-opacity:1"
     id="text977">
    <path
       d="m 19.719656,97.809389 q 0,-0.44235 -0.14056,-0.667659 -0.14056,-0.225309 -0.415478,-0.225309 -0.276986,0 -0.419613,0.227376 -0.142627,0.225309 -0.142627,0.665592 0,0.438216 0.142627,0.665593 0.142627,0.227376 0.419613,0.227376 0.274918,0 0.415478,-0.225309 0.14056,-0.225309 0.14056,-0.66766 z m -1.118278,-0.86403 q 0.09095,-0.169498 0.250114,-0.260449 0.161231,-0.09095 0.372071,-0.09095 0.417545,0 0.657324,0.322461 0.239778,0.320393 0.239778,0.8847 0,0.572575 -0.241845,0.89917 -0.239779,0.324528 -0.659392,0.324528 -0.206705,0 -0.365869,-0.08888 -0.157096,-0.09095 -0.252181,-0.262516 v 0.291455 H 18.22104 v -3.216341 h 0.380338 z"
       style="font-style:normal;font-variant:normal;font-weight:normal;font-stretch:normal;font-size:4.23333311px;font-family:'DejaVu Sans Mono';-inkscape-font-specification:'DejaVu Sans Mono, Normal';font-variant-ligatures:normal;font-variant-caps:normal;font-variant-numeric:normal;font-feature-settings:normal;text-align:start;writing-mode:lr-tb;text-anchor:start;stroke-width:0.26458332px"
       id="path877" />
    <path
       d="m 20.784191,95.878758 h 1.71359 v 0.3514 h -0.646989 v 2.383317 h 0.646989 v 0.351399 h -1.71359 v -0.351399 h 0.646989 v -2.383317 h -0.646989 z"
       style="font-style:normal;font-variant:normal;font-weight:normal;font-stretch:normal;font-size:4.23333311px;font-family:'DejaVu Sans Mono';-inkscape-font-specification:'DejaVu Sans Mono, Normal';font-variant-ligatures:normal;font-variant-caps:normal;font-variant-numeric:normal;font-feature-settings:normal;text-align:start;writing-mode:lr-tb;text-anchor:start;stroke-width:0.26458332px"
       id="path879" />
    <path
       d="M 24.688862,96.945359 V 95.748533 H 25.0692 v 3.216341 h -0.380338 v -0.291455 q -0.09509,0.171566 -0.254248,0.262516 -0.157097,0.08888 -0.363802,0.08888 -0.419613,0 -0.661459,-0.324528 -0.239778,-0.326595 -0.239778,-0.89917 0,-0.564307 0.241845,-0.8847 0.241846,-0.322461 0.659392,-0.322461 0.208772,0 0.367936,0.09095 0.159163,0.08888 0.250114,0.260449 z m -1.118278,0.86403 q 0,0.442351 0.14056,0.66766 0.140559,0.225309 0.415478,0.225309 0.274919,0 0.417546,-0.227376 0.144694,-0.227377 0.144694,-0.665593 0,-0.440283 -0.144694,-0.665592 -0.142627,-0.227376 -0.417546,-0.227376 -0.274919,0 -0.415478,0.225309 -0.14056,0.225309 -0.14056,0.667659 z"
       style="font-style:normal;font-variant:normal;font-weight:normal;font-stretch:normal;font-size:4.23333311px;font-family:'DejaVu Sans Mono';-inkscape-font-specification:'DejaVu Sans Mono, Normal';font-variant-ligatures:normal;font-variant-caps:normal;font-variant-numeric:normal;font-feature-settings:normal;text-align:start;writing-mode:lr-tb;text-anchor:start;stroke-width:0.26458332px"
       id="path881" />
    <path
       d="m 26.735248,95.822947 q 0.134359,0 0.254248,0.05168 0.121956,0.04961 0.212907,0.144694 0.09302,0.09302 0.14056,0.21084 0.04961,0.117822 0.04961,0.254248 0,0.272851 -0.192236,0.46302 -0.192236,0.188103 -0.469222,0.188103 -0.279053,0 -0.465088,-0.186035 -0.186035,-0.186036 -0.186035,-0.465088 0,-0.276986 0.190169,-0.469222 0.190169,-0.192237 0.465088,-0.192237 z m 0,0.266651 q -0.163298,0 -0.279053,0.115755 -0.113688,0.113688 -0.113688,0.279053 0,0.165364 0.111621,0.276985 0.113688,0.111621 0.276986,0.111621 0.165364,0 0.28112,-0.113688 0.117822,-0.113688 0.117822,-0.274918 0,-0.163298 -0.115755,-0.279053 -0.115755,-0.115755 -0.279053,-0.115755 z"
       style="font-style:normal;font-variant:normal;font-weight:normal;font-stretch:normal;font-size:4.23333311px;font-family:'DejaVu Sans Mono';-inkscape-font-specification:'DejaVu Sans Mono, Normal';font-variant-ligatures:normal;font-variant-caps:normal;font-variant-numeric:normal;font-feature-settings:normal;text-align:start;writing-mode:lr-tb;text-anchor:start;stroke-width:0.26458332px"
       id="path883" />
    <path
       d="m 29.281863,95.822947 q 0.134358,0 0.254248,0.05168 0.121956,0.04961 0.212907,0.144694 0.09302,0.09302 0.140559,0.21084 0.04961,0.117822 0.04961,0.254248 0,0.272851 -0.192236,0.46302 -0.192237,0.188103 -0.469222,0.188103 -0.279053,0 -0.465088,-0.186035 -0.186035,-0.186036 -0.186035,-0.465088 0,-0.276986 0.190169,-0.469222 0.190169,-0.192237 0.465088,-0.192237 z m 0,0.266651 q -0.163298,0 -0.279053,0.115755 -0.113688,0.113688 -0.113688,0.279053 0,0.165364 0.111621,0.276985 0.113688,0.111621 0.276986,0.111621 0.165364,0 0.281119,-0.113688 0.117823,-0.113688 0.117823,-0.274918 0,-0.163298 -0.115756,-0.279053 -0.115755,-0.115755 -0.279052,-0.115755 z"
       style="font-style:normal;font-variant:normal;font-weight:normal;font-stretch:normal;font-size:4.23333311px;font-family:'DejaVu Sans Mono';-inkscape-font-specification:'DejaVu Sans Mono, Normal';font-variant-ligatures:normal;font-variant-caps:normal;font-variant-numeric:normal;font-feature-settings:normal;text-align:start;writing-mode:lr-tb;text-anchor:start;stroke-width:0.26458332px"
       id="path885" />
  </g>
  <g
     transform="translate(-1.0583333,3.1749997)"
     id="g848">
    <g
       id="text977-5"
       style="font-style:normal;font-variant:normal;font-weight:normal;font-stretch:normal;font-size:4.23333311px;line-height:125%;font-family:'DejaVu Sans Mono';-inkscape-font-specification:'DejaVu Sans Mono, Normal';font-variant-ligatures:normal;font-variant-caps:normal;font-variant-numeric:normal;font-feature-settings:normal;text-align:start;letter-spacing:0px;word-spacing:0px;writing-mode:lr-tb;text-anchor:start;fill:#000000;fill-opacity:1;stroke:none;stroke-width:0.26458332px;stroke-linecap:butt;stroke-linejoin:miter;stroke-opacity:1"
       aria-label="vOId">
      <g
         id="text852"
         style="font-style:normal;font-variant:normal;font-weight:normal;font-stretch:normal;font-size:4.23333311px;line-height:125%;font-family:Sudo;-inkscape-font-specification:'Sudo, Normal';font-variant-ligatures:normal;font-variant-caps:normal;font-variant-numeric:normal;font-feature-settings:normal;text-align:start;letter-spacing:0px;word-spacing:0px;writing-mode:lr-tb;text-anchor:start;fill:#000000;fill-opacity:1;stroke:none;stroke-width:0.26458332px;stroke-linecap:butt;stroke-linejoin:miter;stroke-opacity:1"
         aria-label="lATe">
        <path
           id="path843"
           style="font-style:normal;font-variant:normal;font-weight:normal;font-stretch:normal;font-size:4.23333311px;font-family:'DejaVu Sans Mono';-inkscape-font-specification:'DejaVu Sans Mono, Normal';font-variant-ligatures:normal;font-variant-caps:normal;font-variant-numeric:normal;font-feature-settings:normal;text-align:start;writing-mode:lr-tb;text-anchor:start;stroke-width:0.26458332px"
           d="m 5.005396,4.3795687 q 0,0.256315 0.093018,0.3865396 0.095085,0.1302246 0.2790527,0.1302246 H 5.821884 v 0.322461 H 5.3402593 q -0.3410645,0 -0.5291667,-0.2191081 Q 4.6250575,4.7805777 4.6250575,4.3795687 V 2.2773715 H 4.0152756 V 1.9797153 H 5.005396 Z" />
        <path
           id="path845"
           style="font-style:normal;font-variant:normal;font-weight:normal;font-stretch:normal;font-size:4.23333311px;font-family:'DejaVu Sans Mono';-inkscape-font-specification:'DejaVu Sans Mono, Normal';font-variant-ligatures:normal;font-variant-caps:normal;font-variant-numeric:normal;font-feature-settings:normal;text-align:start;writing-mode:lr-tb;text-anchor:start;stroke-width:0.26458332px"
           d="M 7.5044681,2.5006137 7.0641849,4.0798454 H 7.9447513 Z M 7.2522871,2.1326775 h 0.506429 L 8.7033613,5.2187939 H 8.2713463 L 8.04397,4.4147086 H 6.9628991 L 6.7396569,5.2187939 H 6.307642 Z" />
        <path
           id="path847"
           style="font-style:normal;font-variant:normal;font-weight:normal;font-stretch:normal;font-size:4.23333311px;font-family:'DejaVu Sans Mono';-inkscape-font-specification:'DejaVu Sans Mono, Normal';font-variant-ligatures:normal;font-variant-caps:normal;font-variant-numeric:normal;font-feature-settings:normal;text-align:start;writing-mode:lr-tb;text-anchor:start;stroke-width:0.26458332px"
           d="m 8.874927,2.1326775 h 2.354378 V 2.4840772 H 10.263989 V 5.2187939 H 9.8443768 V 2.4840772 H 8.874927 Z" />
        <path
           id="path849"
           style="font-style:normal;font-variant:normal;font-weight:normal;font-stretch:normal;font-size:4.23333311px;font-family:'DejaVu Sans Mono';-inkscape-font-specification:'DejaVu Sans Mono, Normal';font-variant-ligatures:normal;font-variant-caps:normal;font-variant-numeric:normal;font-feature-settings:normal;text-align:start;writing-mode:lr-tb;text-anchor:start;stroke-width:0.26458332px"
           d="m 13.622957,3.9661572 v 0.1860352 h -1.647445 v 0.012402 q 0,0.3782715 0.196371,0.5849772 0.198437,0.2067057 0.558105,0.2067057 0.181901,0 0.380339,-0.057878 0.198437,-0.057878 0.423747,-0.1756999 v 0.3782715 q -0.217041,0.088883 -0.419613,0.1322917 -0.200505,0.045475 -0.388607,0.045475 -0.539502,0 -0.843359,-0.3224609 -0.303858,-0.324528 -0.303858,-0.8929687 0,-0.5539713 0.297657,-0.8847005 0.297656,-0.3307291 0.79375,-0.3307291 0.44235,0 0.696598,0.2997233 0.256315,0.2997233 0.256315,0.8185555 z M 13.242619,3.8545361 q -0.0083,-0.3348632 -0.159164,-0.508496 -0.148828,-0.1756999 -0.429948,-0.1756999 -0.274918,0 -0.452685,0.181901 -0.177767,0.1819011 -0.21084,0.504362 z" />
      </g>
    </g>
  </g>
  <g
     style="font-style:normal;font-variant:normal;font-weight:normal;font-stretch:normal;font-size:2.82222223px;line-height:125%;font-family:Sudo;-inkscape-font-specification:'Sudo, Normal';font-variant-ligatures:normal;font-variant-caps:normal;font-variant-numeric:normal;font-feature-settings:normal;text-align:start;letter-spacing:0px;word-spacing:0px;writing-mode:lr-tb;text-anchor:start;fill:#000000;fill-opacity:1;stroke:none;stroke-width:0.26458332px;stroke-linecap:butt;stroke-linejoin:miter;stroke-opacity:1"
     id="text4860" />
  <g
     style="font-style:normal;font-variant:normal;font-weight:normal;font-stretch:normal;font-size:10.66666698px;line-height:125%;font-family:Sudo;-inkscape-font-specification:'Sudo, Normal';font-variant-ligatures:normal;font-variant-caps:normal;font-variant-numeric:normal;font-feature-settings:normal;text-align:start;letter-spacing:0px;word-spacing:0px;writing-mode:lr-tb;text-anchor:start;fill:#000000;fill-opacity:1;stroke:none;stroke-width:1px;stroke-linecap:butt;stroke-linejoin:miter;stroke-opacity:1"
     id="flowRoot1009" />
  <path
     id="rect846"
     d="M 2.5772887,77.500504 H 13.212567 c 0.542048,0 0.978426,0.436378 0.978426,0.978426 v 10.837951 c 0,0.542048 -0.436378,0.978426 -0.978426,0.978426 H 2.5772887 c -0.5420481,0 -0.9784262,-0.436378 -0.9784262,-0.978426 V 78.47893 c 0,-0.542048 0.4363781,-0.978426 0.9784262,-0.978426 z"
     style="opacity:1;fill:#ef0000;fill-opacity:1;fill-rule:evenodd;stroke:#ef0000;stroke-width:0.31835908;stroke-linecap:butt;stroke-linejoin:round;stroke-miterlimit:4;stroke-dasharray:none;stroke-dashoffset:0;stroke-opacity:1" />
  <path
     id="path844"
     d="m 7.9822456,29.900331 0.03912,-10.695167"
     style="fill:none;fill-rule:evenodd;stroke:#000000;stroke-width:0.26458332px;stroke-linecap:butt;stroke-linejoin:miter;stroke-opacity:1" />
  <g
     id="text850"
     style="font-style:normal;font-variant:normal;font-weight:normal;font-stretch:normal;font-size:2.82222223px;line-height:125%;font-family:Sudo;-inkscape-font-specification:'Sudo, Normal';font-variant-ligatures:normal;font-variant-caps:normal;font-variant-numeric:normal;font-feature-settings:normal;text-align:start;letter-spacing:0px;word-spacing:0px;writing-mode:lr-tb;text-anchor:start;fill:#000000;fill-opacity:1;stroke:#ffffff;stroke-width:0.26458332px;stroke-linecap:butt;stroke-linejoin:miter;stroke-opacity:1"
     aria-label="CLK OUT">
    <path
       id="path853"
       style="font-style:normal;font-variant:normal;font-weight:normal;font-stretch:normal;font-size:2.82222223px;font-family:'DejaVu Sans Mono';-inkscape-font-specification:'DejaVu Sans Mono, Normal';font-variant-ligatures:normal;font-variant-caps:normal;font-variant-numeric:normal;font-feature-settings:normal;text-align:start;writing-mode:lr-tb;text-anchor:start;fill:#ffffff;fill-opacity:1;stroke:none;stroke-width:0.26458332px;stroke-opacity:1"
       d="m 3.4601585,80.134621 q -0.1061089,0.0565 -0.21773,0.08406 -0.1116211,0.02894 -0.2370226,0.02894 -0.395497,0 -0.614605,-0.279742 -0.2177301,-0.279742 -0.2177301,-0.78686 0,-0.504362 0.2191081,-0.785481 0.2204861,-0.282498 0.613227,-0.282498 0.1254015,0 0.2370226,0.02894 0.1116211,0.02756 0.21773,0.08406 v 0.285254 q -0.1019748,-0.08406 -0.2191081,-0.128158 -0.1171332,-0.0441 -0.2356445,-0.0441 -0.2714735,0 -0.4065213,0.209462 -0.1350477,0.209462 -0.1350477,0.632519 0,0.42168 0.1350477,0.631142 0.1350478,0.209462 0.4065213,0.209462 0.1212674,0 0.2370226,-0.0441 0.1171332,-0.0441 0.21773,-0.128157 z" />
    <path
       id="path855"
       style="font-style:normal;font-variant:normal;font-weight:normal;font-stretch:normal;font-size:2.82222223px;font-family:'DejaVu Sans Mono';-inkscape-font-specification:'DejaVu Sans Mono, Normal';font-variant-ligatures:normal;font-variant-caps:normal;font-variant-numeric:normal;font-feature-settings:normal;text-align:start;writing-mode:lr-tb;text-anchor:start;fill:#ffffff;fill-opacity:1;stroke:none;stroke-width:0.26458332px;stroke-opacity:1"
       d="m 3.9755448,78.150246 h 0.2797417 v 1.823144 h 0.9935656 v 0.234267 H 3.9755448 Z" />
    <path
       id="path857"
       style="font-style:normal;font-variant:normal;font-weight:normal;font-stretch:normal;font-size:2.82222223px;font-family:'DejaVu Sans Mono';-inkscape-font-specification:'DejaVu Sans Mono, Normal';font-variant-ligatures:normal;font-variant-caps:normal;font-variant-numeric:normal;font-feature-settings:normal;text-align:start;writing-mode:lr-tb;text-anchor:start;fill:#ffffff;fill-opacity:1;stroke:none;stroke-width:0.26458332px;stroke-opacity:1"
       d="m 5.5658009,78.150246 h 0.2797417 v 0.915017 l 0.8695421,-0.915017 h 0.3265951 l -0.8006402,0.840603 0.8240668,1.216808 H 6.7288651 L 6.0577605,79.176884 5.8455426,79.402883 v 0.804774 H 5.5658009 Z" />
    <path
       id="path859"
       style="font-style:normal;font-variant:normal;font-weight:normal;font-stretch:normal;font-size:2.82222223px;font-family:'DejaVu Sans Mono';-inkscape-font-specification:'DejaVu Sans Mono, Normal';font-variant-ligatures:normal;font-variant-caps:normal;font-variant-numeric:normal;font-feature-settings:normal;text-align:start;writing-mode:lr-tb;text-anchor:start;fill:#ffffff;fill-opacity:1;stroke:none;stroke-width:0.26458332px;stroke-opacity:1"
       d="m 10.01962,79.181018 q 0,-0.453374 -0.093706,-0.647678 -0.092329,-0.194303 -0.3045464,-0.194303 -0.2108399,0 -0.3045465,0.194303 -0.092329,0.194304 -0.092329,0.647678 0,0.451997 0.092329,0.6463 0.093707,0.194304 0.3045465,0.194304 0.2122179,0 0.3045464,-0.192926 0.093706,-0.194303 0.093706,-0.647678 z m 0.290766,0 q 0,0.537435 -0.170876,0.802019 -0.1694991,0.264583 -0.5181427,0.264583 -0.3486437,0 -0.5181424,-0.263205 -0.1694987,-0.263206 -0.1694987,-0.803397 0,-0.538813 0.1694987,-0.803396 0.1708768,-0.264583 0.5181424,-0.264583 0.3486436,0 0.5181427,0.264583 0.170876,0.264583 0.170876,0.803396 z" />
    <path
       id="path861"
       style="font-style:normal;font-variant:normal;font-weight:normal;font-stretch:normal;font-size:2.82222223px;font-family:'DejaVu Sans Mono';-inkscape-font-specification:'DejaVu Sans Mono, Normal';font-variant-ligatures:normal;font-variant-caps:normal;font-variant-numeric:normal;font-feature-settings:normal;text-align:start;writing-mode:lr-tb;text-anchor:start;fill:#ffffff;fill-opacity:1;stroke:none;stroke-width:0.26458332px;stroke-opacity:1"
       d="m 10.67281,79.418041 v -1.267795 h 0.279742 v 1.394574 q 0,0.150207 0.0083,0.214974 0.0083,0.06339 0.02894,0.09784 0.0441,0.0813 0.12678,0.122646 0.08406,0.04134 0.202571,0.04134 0.11989,0 0.202572,-0.04134 0.08268,-0.04134 0.128157,-0.122646 0.02067,-0.03445 0.02894,-0.09784 0.0083,-0.06339 0.0083,-0.212217 v -1.397331 h 0.278364 v 1.267795 q 0,0.315571 -0.03996,0.44924 -0.03858,0.132292 -0.135048,0.219108 -0.09095,0.08131 -0.208083,0.121268 -0.117134,0.03996 -0.263206,0.03996 -0.144694,0 -0.261827,-0.03996 -0.117133,-0.03996 -0.209462,-0.121268 -0.09508,-0.08544 -0.135048,-0.220486 -0.03996,-0.136425 -0.03996,-0.447862 z" />
    <path
       id="path863"
       style="font-style:normal;font-variant:normal;font-weight:normal;font-stretch:normal;font-size:2.82222223px;font-family:'DejaVu Sans Mono';-inkscape-font-specification:'DejaVu Sans Mono, Normal';font-variant-ligatures:normal;font-variant-caps:normal;font-variant-numeric:normal;font-feature-settings:normal;text-align:start;writing-mode:lr-tb;text-anchor:start;fill:#ffffff;fill-opacity:1;stroke:none;stroke-width:0.26458332px;stroke-opacity:1"
       d="m 12.23275,78.150246 h 1.569585 v 0.234266 h -0.643543 v 1.823145 H 12.87905 v -1.823145 h -0.6463 z" />
  </g>
  <g
     id="text850-2"
     style="font-style:normal;font-variant:normal;font-weight:normal;font-stretch:normal;font-size:2.82222223px;line-height:125%;font-family:'DejaVu Sans Mono';-inkscape-font-specification:'DejaVu Sans Mono, Normal';font-variant-ligatures:normal;font-variant-caps:normal;font-variant-numeric:normal;font-feature-settings:normal;text-align:start;letter-spacing:0px;word-spacing:0px;writing-mode:lr-tb;text-anchor:start;fill:#000000;fill-opacity:1;stroke:none;stroke-width:0.26458332px;stroke-linecap:butt;stroke-linejoin:miter;stroke-opacity:1"
     aria-label="CLK IN">
    <path
       id="path866"
       style="font-style:normal;font-variant:normal;font-weight:normal;font-stretch:normal;font-size:2.82222223px;font-family:'DejaVu Sans Mono';-inkscape-font-specification:'DejaVu Sans Mono, Normal';font-variant-ligatures:normal;font-variant-caps:normal;font-variant-numeric:normal;font-feature-settings:normal;text-align:start;writing-mode:lr-tb;text-anchor:start;stroke:none;stroke-width:0.26458332px;stroke-opacity:1"
       d="m 4.2129051,62.03817 q -0.106109,0.0565 -0.2177301,0.08406 -0.111621,0.02894 -0.2370225,0.02894 -0.395497,0 -0.6146051,-0.279742 -0.21773,-0.279741 -0.21773,-0.786859 0,-0.504362 0.2191081,-0.785482 0.2204861,-0.282498 0.613227,-0.282498 0.1254015,0 0.2370225,0.02894 0.1116211,0.02756 0.2177301,0.08406 v 0.285254 q -0.1019748,-0.08406 -0.2191081,-0.128158 -0.1171332,-0.0441 -0.2356445,-0.0441 -0.2714735,0 -0.4065213,0.209462 -0.1350477,0.209462 -0.1350477,0.63252 0,0.421679 0.1350477,0.631141 0.1350478,0.209462 0.4065213,0.209462 0.1212673,0 0.2370225,-0.0441 0.1171333,-0.0441 0.2177301,-0.128158 z" />
    <path
       id="path868"
       style="font-style:normal;font-variant:normal;font-weight:normal;font-stretch:normal;font-size:2.82222223px;font-family:'DejaVu Sans Mono';-inkscape-font-specification:'DejaVu Sans Mono, Normal';font-variant-ligatures:normal;font-variant-caps:normal;font-variant-numeric:normal;font-feature-settings:normal;text-align:start;writing-mode:lr-tb;text-anchor:start;stroke:none;stroke-width:0.26458332px;stroke-opacity:1"
       d="m 4.7282914,60.053795 h 0.2797417 v 1.823145 h 0.9935656 v 0.234266 H 4.7282914 Z" />
    <path
       id="path870"
       style="font-style:normal;font-variant:normal;font-weight:normal;font-stretch:normal;font-size:2.82222223px;font-family:'DejaVu Sans Mono';-inkscape-font-specification:'DejaVu Sans Mono, Normal';font-variant-ligatures:normal;font-variant-caps:normal;font-variant-numeric:normal;font-feature-settings:normal;text-align:start;writing-mode:lr-tb;text-anchor:start;stroke:none;stroke-width:0.26458332px;stroke-opacity:1"
       d="m 6.3185474,60.053795 h 0.2797418 v 0.915017 L 7.4678313,60.053795 H 7.7944264 L 6.9937862,60.894398 7.817853,62.111206 H 7.4816117 L 6.8105071,61.080433 6.5982892,61.306432 v 0.804774 H 6.3185474 Z" />
    <path
       id="path872"
       style="font-style:normal;font-variant:normal;font-weight:normal;font-stretch:normal;font-size:2.82222223px;font-family:'DejaVu Sans Mono';-inkscape-font-specification:'DejaVu Sans Mono, Normal';font-variant-ligatures:normal;font-variant-caps:normal;font-variant-numeric:normal;font-feature-settings:normal;text-align:start;writing-mode:lr-tb;text-anchor:start;stroke:none;stroke-width:0.26458332px;stroke-opacity:1"
       d="m 9.802228,60.053795 h 1.142394 v 0.234267 h -0.431326 v 1.588878 h 0.431326 v 0.234266 H 9.802228 V 61.87694 h 0.431326 V 60.288062 H 9.802228 Z" />
    <path
       id="path874"
       style="font-style:normal;font-variant:normal;font-weight:normal;font-stretch:normal;font-size:2.82222223px;font-family:'DejaVu Sans Mono';-inkscape-font-specification:'DejaVu Sans Mono, Normal';font-variant-ligatures:normal;font-variant-caps:normal;font-variant-numeric:normal;font-feature-settings:normal;text-align:start;writing-mode:lr-tb;text-anchor:start;stroke:none;stroke-width:0.26458332px;stroke-opacity:1"
       d="m 11.414533,60.053795 h 0.352777 l 0.694532,1.693609 v -1.693609 h 0.268717 v 2.057411 H 12.377781 L 11.68325,60.417597 v 1.693609 h -0.268717 z" />
  </g>
  <g
     id="text850-2-4"
     style="font-style:normal;font-variant:normal;font-weight:normal;font-stretch:normal;font-size:2.82222223px;line-height:125%;font-family:'DejaVu Sans Mono';-inkscape-font-specification:'DejaVu Sans Mono, Normal';font-variant-ligatures:normal;font-variant-caps:normal;font-variant-numeric:normal;font-feature-settings:normal;text-align:start;letter-spacing:0px;word-spacing:0px;writing-mode:lr-tb;text-anchor:start;fill:#000000;fill-opacity:1;stroke:none;stroke-width:0.26458332px;stroke-linecap:butt;stroke-linejoin:miter;stroke-opacity:1"
     aria-label="RESET">
    <path
       id="path878"
       style="font-style:normal;font-variant:normal;font-weight:normal;font-stretch:normal;font-size:2.82222223px;font-family:'DejaVu Sans Mono';-inkscape-font-specification:'DejaVu Sans Mono, Normal';font-variant-ligatures:normal;font-variant-caps:normal;font-variant-numeric:normal;font-feature-settings:normal;text-align:start;writing-mode:lr-tb;text-anchor:start;stroke:none;stroke-width:0.26458332px;stroke-opacity:1"
       d="m 4.7637702,42.045565 q 0.107487,0.02756 0.1832791,0.104731 0.075792,0.07579 0.1887912,0.304547 l 0.2797418,0.562239 H 5.116548 L 4.8712572,42.497562 Q 4.7651483,42.275698 4.6797099,42.212308 4.5956496,42.14754 4.4592238,42.14754 H 4.1932624 v 0.869542 H 3.9135206 v -2.057411 h 0.5732639 q 0.3389974,0 0.5195204,0.152962 0.180523,0.152963 0.180523,0.442351 0,0.203949 -0.1116211,0.333485 -0.110243,0.128157 -0.3114366,0.157096 z M 4.1932624,41.188426 v 0.73036 h 0.3045464 q 0.1998156,0 0.2976563,-0.08957 0.097841,-0.08957 0.097841,-0.274229 0,-0.177767 -0.1047309,-0.271474 -0.1033529,-0.09508 -0.3017904,-0.09508 z" />
    <path
       id="path880"
       style="font-style:normal;font-variant:normal;font-weight:normal;font-stretch:normal;font-size:2.82222223px;font-family:'DejaVu Sans Mono';-inkscape-font-specification:'DejaVu Sans Mono, Normal';font-variant-ligatures:normal;font-variant-caps:normal;font-variant-numeric:normal;font-feature-settings:normal;text-align:start;writing-mode:lr-tb;text-anchor:start;stroke:none;stroke-width:0.26458332px;stroke-opacity:1"
       d="m 5.6856778,40.959671 h 1.2209418 v 0.234267 H 5.9640415 v 0.609093 h 0.901237 v 0.234266 h -0.901237 v 0.745519 h 0.9687608 v 0.234266 H 5.6856778 Z" />
    <path
       id="path882"
       style="font-style:normal;font-variant:normal;font-weight:normal;font-stretch:normal;font-size:2.82222223px;font-family:'DejaVu Sans Mono';-inkscape-font-specification:'DejaVu Sans Mono, Normal';font-variant-ligatures:normal;font-variant-caps:normal;font-variant-numeric:normal;font-feature-settings:normal;text-align:start;writing-mode:lr-tb;text-anchor:start;stroke:none;stroke-width:0.26458332px;stroke-opacity:1"
       d="m 8.506522,41.029951 v 0.282498 q -0.1267796,-0.0813 -0.2549371,-0.122645 -0.1267795,-0.04134 -0.2563151,-0.04134 -0.1970595,0 -0.3114366,0.09233 -0.1143772,0.09095 -0.1143772,0.246669 0,0.136426 0.074414,0.208084 0.075792,0.07166 0.2811198,0.119889 l 0.1460721,0.03307 q 0.289388,0.06752 0.4216797,0.212218 0.1322916,0.144694 0.1322916,0.394119 0,0.293522 -0.181901,0.447862 -0.181901,0.15434 -0.5291667,0.15434 -0.144694,0 -0.290766,-0.03169 -0.1460721,-0.03032 -0.2935222,-0.09233 v -0.296278 q 0.1584744,0.100596 0.2990343,0.14745 0.141938,0.04685 0.2852539,0.04685 0.2108399,0 0.3279731,-0.09371 0.1171333,-0.09508 0.1171333,-0.264583 0,-0.15434 -0.081304,-0.235644 Q 8.1978419,42.1558 7.9980262,42.111708 L 7.8491977,42.07726 q -0.2866319,-0.06477 -0.4161675,-0.195681 -0.1295356,-0.130914 -0.1295356,-0.3514 0,-0.275608 0.1846571,-0.440972 0.1860352,-0.166743 0.4933377,-0.166743 0.1185113,0 0.2494249,0.02756 0.1309136,0.02618 0.2756077,0.07993 z" />
    <path
       id="path884"
       style="font-style:normal;font-variant:normal;font-weight:normal;font-stretch:normal;font-size:2.82222223px;font-family:'DejaVu Sans Mono';-inkscape-font-specification:'DejaVu Sans Mono, Normal';font-variant-ligatures:normal;font-variant-caps:normal;font-variant-numeric:normal;font-feature-settings:normal;text-align:start;writing-mode:lr-tb;text-anchor:start;stroke:none;stroke-width:0.26458332px;stroke-opacity:1"
       d="m 9.081164,40.959671 h 1.220942 v 0.234267 H 9.3595277 v 0.609093 h 0.9012373 v 0.234266 H 9.3595277 v 0.745519 h 0.9687613 v 0.234266 H 9.081164 Z" />
    <path
       id="path886"
       style="font-style:normal;font-variant:normal;font-weight:normal;font-stretch:normal;font-size:2.82222223px;font-family:'DejaVu Sans Mono';-inkscape-font-specification:'DejaVu Sans Mono, Normal';font-variant-ligatures:normal;font-variant-caps:normal;font-variant-numeric:normal;font-feature-settings:normal;text-align:start;writing-mode:lr-tb;text-anchor:start;stroke:none;stroke-width:0.26458332px;stroke-opacity:1"
       d="m 10.572201,40.959671 h 1.569586 v 0.234267 h -0.643544 v 1.823144 h -0.279742 v -1.823144 h -0.6463 z" />
  </g>
  <g
     id="text850-2-4-4"
     style="font-style:normal;font-variant:normal;font-weight:normal;font-stretch:normal;font-size:2.82222223px;line-height:125%;font-family:'DejaVu Sans Mono';-inkscape-font-specification:'DejaVu Sans Mono, Normal';font-variant-ligatures:normal;font-variant-caps:normal;font-variant-numeric:normal;font-feature-settings:normal;text-align:start;letter-spacing:0px;word-spacing:0px;writing-mode:lr-tb;text-anchor:start;fill:#000000;fill-opacity:1;stroke:none;stroke-width:0.18520834;stroke-linecap:butt;stroke-linejoin:miter;stroke-miterlimit:4;stroke-dasharray:none;stroke-opacity:1"
     aria-label="OFFSET">
    <path
       id="path889"
       style="font-style:normal;font-variant:normal;font-weight:normal;font-stretch:normal;font-size:2.82222223px;font-family:'DejaVu Sans Mono';-inkscape-font-specification:'DejaVu Sans Mono, Normal';font-variant-ligatures:normal;font-variant-caps:normal;font-variant-numeric:normal;font-feature-settings:normal;text-align:start;writing-mode:lr-tb;text-anchor:start;fill:#000000;fill-opacity:1;stroke:none;stroke-width:0.18520834;stroke-miterlimit:4;stroke-dasharray:none;stroke-opacity:1"
       d="m 3.9845127,13.111389 q 0,-0.453375 -0.093707,-0.647678 -0.092329,-0.194304 -0.3045464,-0.194304 -0.2108399,0 -0.3045465,0.194304 -0.092328,0.194303 -0.092328,0.647678 0,0.451996 0.092328,0.6463 0.093707,0.194303 0.3045465,0.194303 0.2122178,0 0.3045464,-0.192925 0.093707,-0.194304 0.093707,-0.647678 z m 0.2907661,0 q 0,0.537435 -0.1708768,0.802018 -0.1694987,0.264583 -0.5181423,0.264583 -0.3486437,0 -0.5181424,-0.263205 -0.1694987,-0.263205 -0.1694987,-0.803396 0,-0.538813 0.1694987,-0.803397 0.1708767,-0.264583 0.5181424,-0.264583 0.3486436,0 0.5181423,0.264583 0.1708768,0.264584 0.1708768,0.803397 z" />
    <path
       id="path891"
       style="font-style:normal;font-variant:normal;font-weight:normal;font-stretch:normal;font-size:2.82222223px;font-family:'DejaVu Sans Mono';-inkscape-font-specification:'DejaVu Sans Mono, Normal';font-variant-ligatures:normal;font-variant-caps:normal;font-variant-numeric:normal;font-feature-settings:normal;text-align:start;writing-mode:lr-tb;text-anchor:start;fill:#000000;fill-opacity:1;stroke:none;stroke-width:0.18520834;stroke-miterlimit:4;stroke-dasharray:none;stroke-opacity:1"
       d="m 4.7562141,12.080616 h 1.2112956 v 0.234267 H 5.0359558 v 0.606336 h 0.8447375 v 0.234267 H 5.0359558 v 0.982541 H 4.7562141 Z" />
    <path
       id="path893"
       style="font-style:normal;font-variant:normal;font-weight:normal;font-stretch:normal;font-size:2.82222223px;font-family:'DejaVu Sans Mono';-inkscape-font-specification:'DejaVu Sans Mono, Normal';font-variant-ligatures:normal;font-variant-caps:normal;font-variant-numeric:normal;font-feature-settings:normal;text-align:start;writing-mode:lr-tb;text-anchor:start;fill:#000000;fill-opacity:1;stroke:none;stroke-width:0.18520834;stroke-miterlimit:4;stroke-dasharray:none;stroke-opacity:1"
       d="m 6.4539572,12.080616 h 1.2112955 v 0.234267 H 6.7336989 v 0.606336 h 0.8447374 v 0.234267 H 6.7336989 v 0.982541 H 6.4539572 Z" />
    <path
       id="path895"
       style="font-style:normal;font-variant:normal;font-weight:normal;font-stretch:normal;font-size:2.82222223px;font-family:'DejaVu Sans Mono';-inkscape-font-specification:'DejaVu Sans Mono, Normal';font-variant-ligatures:normal;font-variant-caps:normal;font-variant-numeric:normal;font-feature-settings:normal;text-align:start;writing-mode:lr-tb;text-anchor:start;fill:#000000;fill-opacity:1;stroke:none;stroke-width:0.18520834;stroke-miterlimit:4;stroke-dasharray:none;stroke-opacity:1"
       d="m 9.2251921,12.150896 v 0.282498 q -0.1267795,-0.0813 -0.2549371,-0.122645 -0.1267795,-0.04134 -0.2563151,-0.04134 -0.1970594,0 -0.3114366,0.09233 -0.1143772,0.09095 -0.1143772,0.246669 0,0.136426 0.074414,0.208084 0.075792,0.07166 0.2811198,0.119889 l 0.146072,0.03307 q 0.289388,0.06752 0.4216797,0.212218 0.1322917,0.144694 0.1322917,0.394119 0,0.293522 -0.1819011,0.447862 -0.181901,0.15434 -0.5291666,0.15434 -0.1446941,0 -0.2907661,-0.03169 -0.146072,-0.03032 -0.2935221,-0.09233 v -0.296278 q 0.1584744,0.100596 0.2990343,0.14745 0.1419379,0.04685 0.2852539,0.04685 0.2108398,0 0.3279731,-0.09371 0.1171332,-0.09508 0.1171332,-0.264583 0,-0.15434 -0.081304,-0.235644 -0.079926,-0.08131 -0.2797417,-0.125402 l -0.1488281,-0.03445 q -0.286632,-0.06477 -0.4161676,-0.195681 -0.1295356,-0.130914 -0.1295356,-0.3514 0,-0.275608 0.1846572,-0.440972 0.1860351,-0.166743 0.4933376,-0.166743 0.1185113,0 0.2494249,0.02756 0.1309137,0.02618 0.2756077,0.07993 z" />
    <path
       id="path897"
       style="font-style:normal;font-variant:normal;font-weight:normal;font-stretch:normal;font-size:2.82222223px;font-family:'DejaVu Sans Mono';-inkscape-font-specification:'DejaVu Sans Mono, Normal';font-variant-ligatures:normal;font-variant-caps:normal;font-variant-numeric:normal;font-feature-settings:normal;text-align:start;writing-mode:lr-tb;text-anchor:start;fill:#000000;fill-opacity:1;stroke:none;stroke-width:0.18520834;stroke-miterlimit:4;stroke-dasharray:none;stroke-opacity:1"
       d="m 9.7998339,12.080616 h 1.2209421 v 0.234267 h -0.942578 v 0.609093 h 0.901237 v 0.234266 h -0.901237 v 0.745519 h 0.96876 v 0.234266 H 9.7998339 Z" />
    <path
       id="path899"
       style="font-style:normal;font-variant:normal;font-weight:normal;font-stretch:normal;font-size:2.82222223px;font-family:'DejaVu Sans Mono';-inkscape-font-specification:'DejaVu Sans Mono, Normal';font-variant-ligatures:normal;font-variant-caps:normal;font-variant-numeric:normal;font-feature-settings:normal;text-align:start;writing-mode:lr-tb;text-anchor:start;fill:#000000;fill-opacity:1;stroke:none;stroke-width:0.18520834;stroke-miterlimit:4;stroke-dasharray:none;stroke-opacity:1"
       d="m 11.290871,12.080616 h 1.569586 v 0.234267 h -0.643544 v 1.823144 h -0.279742 v -1.823144 h -0.6463 z" />
  </g>
</svg>
