<?xml version="1.0" encoding="UTF-8" standalone="no"?>
<svg
   xmlns:osb="http://www.openswatchbook.org/uri/2009/osb"
   xmlns:dc="http://purl.org/dc/elements/1.1/"
   xmlns:cc="http://creativecommons.org/ns#"
   xmlns:rdf="http://www.w3.org/1999/02/22-rdf-syntax-ns#"
   xmlns:svg="http://www.w3.org/2000/svg"
   xmlns="http://www.w3.org/2000/svg"
   id="svg12553"
   version="1.1"
   viewBox="0 0 15.875 100.54166"
   height="380"
   width="60">
  <defs
     id="defs12547">
    <linearGradient
       id="linearGradient4708"
       osb:paint="solid">
      <stop
         style="stop-color:#ececec;stop-opacity:1;"
         offset="0"
         id="stop4706" />
    </linearGradient>
    <filter
       style="color-interpolation-filters:sRGB"
       id="filter4696">
      <feColorMatrix
         in="SourceGraphic"
         values="0 0 0 0 1 0 0 0 0 0 0 0 0 0 0 1 0 0 0 0 0 "
         result="colormatrix"
         id="feColorMatrix4692" />
      <feBlend
         in2="BackgroundImage"
         mode="multiply"
         result="fbSourceGraphic"
         id="feBlend4694" />
      <feColorMatrix
         result="fbSourceGraphicAlpha"
         in="fbSourceGraphic"
         values="0 0 0 -1 0 0 0 0 -1 0 0 0 0 -1 0 0 0 0 1 0"
         id="feColorMatrix4762" />
      <feColorMatrix
         id="feColorMatrix4764"
         values="1 0 0 0 0 0 1 0 0 0 0 0 1 0 0 0 0 0 5 -1 "
         result="colormatrix"
         in="fbSourceGraphic" />
      <feComposite
         in2="colormatrix"
         id="feComposite4766"
         operator="arithmetic"
         k2="0.3"
         result="composite"
         k1="0"
         k3="0"
         k4="0" />
    </filter>
  </defs>
  <metadata
     id="metadata12550">
    <rdf:RDF>
      <cc:Work
         rdf:about="">
        <dc:format>image/svg+xml</dc:format>
        <dc:type
           rdf:resource="http://purl.org/dc/dcmitype/StillImage" />
        <dc:title></dc:title>
      </cc:Work>
    </rdf:RDF>
  </metadata>
  <g
     transform="matrix(0.13301424,0,0,1.0012215,-3.5598498,-161.56849)"
     id="layer1">
    <path
       style="fill:#e6e6e6;fill-opacity:1;fill-rule:nonzero;stroke:none;stroke-width:0.32258889"
       d="M 26.616839,161.37987 H 145.85344 v 100.3961 H 26.616839 Z m 0,0"
       id="path33453" />
  </g>
  <g
     transform="translate(-15.875003,-3.7041663)"
     aria-label="bId°°"
     style="font-style:normal;font-variant:normal;font-weight:normal;font-stretch:normal;font-size:4.23333311px;line-height:125%;font-family:'DejaVu Sans Mono';-inkscape-font-specification:'DejaVu Sans Mono, Normal';font-variant-ligatures:normal;font-variant-caps:normal;font-variant-numeric:normal;font-feature-settings:normal;text-align:start;letter-spacing:0px;word-spacing:0px;writing-mode:lr-tb;text-anchor:start;fill:#000000;fill-opacity:1;stroke:none;stroke-width:0.26458332px;stroke-linecap:butt;stroke-linejoin:miter;stroke-opacity:1"
     id="text977">
    <path
       d="m 19.719656,97.809389 q 0,-0.44235 -0.14056,-0.667659 -0.14056,-0.225309 -0.415478,-0.225309 -0.276986,0 -0.419613,0.227376 -0.142627,0.225309 -0.142627,0.665592 0,0.438216 0.142627,0.665593 0.142627,0.227376 0.419613,0.227376 0.274918,0 0.415478,-0.225309 0.14056,-0.225309 0.14056,-0.66766 z m -1.118278,-0.86403 q 0.09095,-0.169498 0.250114,-0.260449 0.161231,-0.09095 0.372071,-0.09095 0.417545,0 0.657324,0.322461 0.239778,0.320393 0.239778,0.8847 0,0.572575 -0.241845,0.89917 -0.239779,0.324528 -0.659392,0.324528 -0.206705,0 -0.365869,-0.08888 -0.157096,-0.09095 -0.252181,-0.262516 v 0.291455 H 18.22104 v -3.216341 h 0.380338 z"
       style="font-style:normal;font-variant:normal;font-weight:normal;font-stretch:normal;font-size:4.23333311px;font-family:'DejaVu Sans Mono';-inkscape-font-specification:'DejaVu Sans Mono, Normal';font-variant-ligatures:normal;font-variant-caps:normal;font-variant-numeric:normal;font-feature-settings:normal;text-align:start;writing-mode:lr-tb;text-anchor:start;stroke-width:0.26458332px"
       id="path877" />
    <path
       d="m 20.784191,95.878758 h 1.71359 v 0.3514 h -0.646989 v 2.383317 h 0.646989 v 0.351399 h -1.71359 v -0.351399 h 0.646989 v -2.383317 h -0.646989 z"
       style="font-style:normal;font-variant:normal;font-weight:normal;font-stretch:normal;font-size:4.23333311px;font-family:'DejaVu Sans Mono';-inkscape-font-specification:'DejaVu Sans Mono, Normal';font-variant-ligatures:normal;font-variant-caps:normal;font-variant-numeric:normal;font-feature-settings:normal;text-align:start;writing-mode:lr-tb;text-anchor:start;stroke-width:0.26458332px"
       id="path879" />
    <path
       d="M 24.688862,96.945359 V 95.748533 H 25.0692 v 3.216341 h -0.380338 v -0.291455 q -0.09509,0.171566 -0.254248,0.262516 -0.157097,0.08888 -0.363802,0.08888 -0.419613,0 -0.661459,-0.324528 -0.239778,-0.326595 -0.239778,-0.89917 0,-0.564307 0.241845,-0.8847 0.241846,-0.322461 0.659392,-0.322461 0.208772,0 0.367936,0.09095 0.159163,0.08888 0.250114,0.260449 z m -1.118278,0.86403 q 0,0.442351 0.14056,0.66766 0.140559,0.225309 0.415478,0.225309 0.274919,0 0.417546,-0.227376 0.144694,-0.227377 0.144694,-0.665593 0,-0.440283 -0.144694,-0.665592 -0.142627,-0.227376 -0.417546,-0.227376 -0.274919,0 -0.415478,0.225309 -0.14056,0.225309 -0.14056,0.667659 z"
       style="font-style:normal;font-variant:normal;font-weight:normal;font-stretch:normal;font-size:4.23333311px;font-family:'DejaVu Sans Mono';-inkscape-font-specification:'DejaVu Sans Mono, Normal';font-variant-ligatures:normal;font-variant-caps:normal;font-variant-numeric:normal;font-feature-settings:normal;text-align:start;writing-mode:lr-tb;text-anchor:start;stroke-width:0.26458332px"
       id="path881" />
    <path
       d="m 26.735248,95.822947 q 0.134359,0 0.254248,0.05168 0.121956,0.04961 0.212907,0.144694 0.09302,0.09302 0.14056,0.21084 0.04961,0.117822 0.04961,0.254248 0,0.272851 -0.192236,0.46302 -0.192236,0.188103 -0.469222,0.188103 -0.279053,0 -0.465088,-0.186035 -0.186035,-0.186036 -0.186035,-0.465088 0,-0.276986 0.190169,-0.469222 0.190169,-0.192237 0.465088,-0.192237 z m 0,0.266651 q -0.163298,0 -0.279053,0.115755 -0.113688,0.113688 -0.113688,0.279053 0,0.165364 0.111621,0.276985 0.113688,0.111621 0.276986,0.111621 0.165364,0 0.28112,-0.113688 0.117822,-0.113688 0.117822,-0.274918 0,-0.163298 -0.115755,-0.279053 -0.115755,-0.115755 -0.279053,-0.115755 z"
       style="font-style:normal;font-variant:normal;font-weight:normal;font-stretch:normal;font-size:4.23333311px;font-family:'DejaVu Sans Mono';-inkscape-font-specification:'DejaVu Sans Mono, Normal';font-variant-ligatures:normal;font-variant-caps:normal;font-variant-numeric:normal;font-feature-settings:normal;text-align:start;writing-mode:lr-tb;text-anchor:start;stroke-width:0.26458332px"
       id="path883" />
    <path
       d="m 29.281863,95.822947 q 0.134358,0 0.254248,0.05168 0.121956,0.04961 0.212907,0.144694 0.09302,0.09302 0.140559,0.21084 0.04961,0.117822 0.04961,0.254248 0,0.272851 -0.192236,0.46302 -0.192237,0.188103 -0.469222,0.188103 -0.279053,0 -0.465088,-0.186035 -0.186035,-0.186036 -0.186035,-0.465088 0,-0.276986 0.190169,-0.469222 0.190169,-0.192237 0.465088,-0.192237 z m 0,0.266651 q -0.163298,0 -0.279053,0.115755 -0.113688,0.113688 -0.113688,0.279053 0,0.165364 0.111621,0.276985 0.113688,0.111621 0.276986,0.111621 0.165364,0 0.281119,-0.113688 0.117823,-0.113688 0.117823,-0.274918 0,-0.163298 -0.115756,-0.279053 -0.115755,-0.115755 -0.279052,-0.115755 z"
       style="font-style:normal;font-variant:normal;font-weight:normal;font-stretch:normal;font-size:4.23333311px;font-family:'DejaVu Sans Mono';-inkscape-font-specification:'DejaVu Sans Mono, Normal';font-variant-ligatures:normal;font-variant-caps:normal;font-variant-numeric:normal;font-feature-settings:normal;text-align:start;writing-mode:lr-tb;text-anchor:start;stroke-width:0.26458332px"
       id="path885" />
  </g>
  <g
     transform="translate(-1.0583333,2.6458331)"
     id="g848">
    <g
       id="text977-5"
       style="font-style:normal;font-variant:normal;font-weight:normal;font-stretch:normal;font-size:4.23333311px;line-height:125%;font-family:'DejaVu Sans Mono';-inkscape-font-specification:'DejaVu Sans Mono, Normal';font-variant-ligatures:normal;font-variant-caps:normal;font-variant-numeric:normal;font-feature-settings:normal;text-align:start;letter-spacing:0px;word-spacing:0px;writing-mode:lr-tb;text-anchor:start;fill:#000000;fill-opacity:1;stroke:none;stroke-width:0.26458332px;stroke-linecap:butt;stroke-linejoin:miter;stroke-opacity:1"
       aria-label="vOId">
      <g
         id="text852"
         style="font-style:normal;font-variant:normal;font-weight:normal;font-stretch:normal;font-size:4.23333311px;line-height:125%;font-family:Sudo;-inkscape-font-specification:'Sudo, Normal';font-variant-ligatures:normal;font-variant-caps:normal;font-variant-numeric:normal;font-feature-settings:normal;text-align:start;letter-spacing:0px;word-spacing:0px;writing-mode:lr-tb;text-anchor:start;fill:#000000;fill-opacity:1;stroke:none;stroke-width:0.26458332px;stroke-linecap:butt;stroke-linejoin:miter;stroke-opacity:1"
         aria-label="lATe">
        <path
           id="path843"
           style="font-style:normal;font-variant:normal;font-weight:normal;font-stretch:normal;font-size:4.23333311px;font-family:Sudo;-inkscape-font-specification:'Sudo, Normal';font-variant-ligatures:normal;font-variant-caps:normal;font-variant-numeric:normal;font-feature-settings:normal;text-align:start;writing-mode:lr-tb;text-anchor:start;stroke-width:0.26458332px"
           d="m 5.6859483,2.5729607 h 0.6077148 v 2.1538736 q 0,0.111621 0.057878,0.1777669 0.057878,0.066146 0.2025716,0.066146 0.045475,0 0.1033529,0 0.057878,-0.00413 0.1198893,-0.012402 l 0.020671,0.2604492 q -0.07028,0.00827 -0.1322917,0.012402 -0.057878,0.00413 -0.1240234,0.00413 -0.1116211,0 -0.2108398,-0.024805 Q 6.2316514,5.1815868 6.1572374,5.1195751 6.0828233,5.0575634 6.037348,4.9583447 5.9960069,4.8549918 5.9960069,4.7061637 V 2.837544 L 5.6859483,2.8168734 Z" />
        <path
           id="path845"
           style="font-style:normal;font-variant:normal;font-weight:normal;font-stretch:normal;font-size:4.23333311px;font-family:Sudo;-inkscape-font-specification:'Sudo, Normal';font-variant-ligatures:normal;font-variant-caps:normal;font-variant-numeric:normal;font-feature-settings:normal;text-align:start;writing-mode:lr-tb;text-anchor:start;stroke-width:0.26458332px"
           d="M 7.2197047,5.2063915 Q 7.2486435,4.8301871 7.3065211,4.4663851 7.3643987,4.102583 7.4429469,3.7677197 7.5256292,3.4287223 7.628982,3.1227979 7.736469,2.8168734 7.8646266,2.5605583 h 0.2645833 q 0.1281575,0.2563151 0.2315104,0.5622396 0.107487,0.3059244 0.1860351,0.6449218 0.082682,0.3348633 0.1364258,0.6986654 0.057878,0.363802 0.09095,0.7400064 L 8.4682073,5.2270621 Q 8.4310002,4.8136507 8.3689885,4.4250439 H 7.6207138 Q 7.591775,4.6193473 7.5669703,4.8177848 7.5462998,5.0162223 7.5256292,5.2270621 Z M 7.9969182,2.945031 Q 7.8976995,3.1930778 7.8150172,3.4990023 7.7323349,3.8049268 7.6661891,4.1604606 H 8.3276474 Q 8.2615015,3.8049268 8.1788192,3.4990023 8.096137,3.1930778 7.9969182,2.945031 Z" />
        <path
           id="path847"
           style="font-style:normal;font-variant:normal;font-weight:normal;font-stretch:normal;font-size:4.23333311px;font-family:Sudo;-inkscape-font-specification:'Sudo, Normal';font-variant-ligatures:normal;font-variant-caps:normal;font-variant-numeric:normal;font-feature-settings:normal;text-align:start;writing-mode:lr-tb;text-anchor:start;stroke-width:0.26458332px"
           d="M 10.593142,2.837544 H 9.9978295 V 5.2187939 H 9.7001733 V 2.837544 H 9.1048608 V 2.5729607 h 1.4882812 z" />
        <path
           id="path849"
           style="font-style:normal;font-variant:normal;font-weight:normal;font-stretch:normal;font-size:4.23333311px;font-family:Sudo;-inkscape-font-specification:'Sudo, Normal';font-variant-ligatures:normal;font-variant-caps:normal;font-variant-numeric:normal;font-feature-settings:normal;text-align:start;writing-mode:lr-tb;text-anchor:start;stroke-width:0.26458332px"
           d="m 12.255056,5.1939892 q -0.128158,0.045475 -0.252181,0.062012 -0.124023,0.016536 -0.243913,0.016536 -0.223242,0 -0.37207,-0.074414 -0.148828,-0.078548 -0.239779,-0.2108398 -0.09095,-0.1364258 -0.128157,-0.3141927 -0.03721,-0.1777669 -0.03721,-0.3803385 0,-0.2025717 0.03721,-0.3803386 0.03721,-0.1777669 0.119889,-0.3100585 0.08682,-0.1364258 0.223242,-0.2108399 0.14056,-0.078548 0.338998,-0.078548 0.198437,0 0.334863,0.078548 0.14056,0.074414 0.223242,0.2108399 0.08682,0.1322916 0.124023,0.3100585 0.03721,0.1777669 0.03721,0.3803386 v 0.1529622 h -1.120345 q 0.01654,0.3141927 0.124023,0.4382161 0.107487,0.1240234 0.3514,0.1240234 0.111621,0 0.21084,-0.012402 0.103352,-0.016536 0.214973,-0.049609 z M 11.701085,3.5775505 q -0.198438,0 -0.297657,0.1364257 -0.09508,0.1364258 -0.107487,0.467155 h 0.806153 Q 12.089691,3.850402 11.994607,3.7139762 11.899522,3.5775505 11.701085,3.5775505 Z" />
      </g>
    </g>
  </g>
  <g
     style="font-style:normal;font-variant:normal;font-weight:normal;font-stretch:normal;font-size:2.82222223px;line-height:125%;font-family:Sudo;-inkscape-font-specification:'Sudo, Normal';font-variant-ligatures:normal;font-variant-caps:normal;font-variant-numeric:normal;font-feature-settings:normal;text-align:start;letter-spacing:0px;word-spacing:0px;writing-mode:lr-tb;text-anchor:start;fill:#000000;fill-opacity:1;stroke:none;stroke-width:0.26458332px;stroke-linecap:butt;stroke-linejoin:miter;stroke-opacity:1"
     id="text4860" />
  <g
     style="font-style:normal;font-variant:normal;font-weight:normal;font-stretch:normal;font-size:10.66666698px;line-height:125%;font-family:Sudo;-inkscape-font-specification:'Sudo, Normal';font-variant-ligatures:normal;font-variant-caps:normal;font-variant-numeric:normal;font-feature-settings:normal;text-align:start;letter-spacing:0px;word-spacing:0px;writing-mode:lr-tb;text-anchor:start;fill:#000000;fill-opacity:1;stroke:none;stroke-width:1px;stroke-linecap:butt;stroke-linejoin:miter;stroke-opacity:1"
     id="flowRoot1009" />
  <path
     id="rect846"
     d="m 3.329064,77.49646 h 9.247891 c 0.542391,0 0.979045,0.436654 0.979045,0.979044 v 10.8448 c 0,0.542391 -0.436654,0.979045 -0.979045,0.979045 H 3.329064 c -0.5423907,0 -0.9790445,-0.436654 -0.9790445,-0.979045 v -10.8448 c 0,-0.54239 0.4366538,-0.979044 0.9790445,-0.979044 z"
     style="opacity:1;fill:#ef0000;fill-opacity:1;fill-rule:evenodd;stroke:#ef0000;stroke-width:0.30042064;stroke-linecap:butt;stroke-linejoin:round;stroke-miterlimit:4;stroke-dasharray:none;stroke-dashoffset:0;stroke-opacity:1" />
  <path
     id="path844"
     d="m 7.9822456,29.900331 0.03912,-10.695167"
     style="fill:none;fill-rule:evenodd;stroke:#000000;stroke-width:0.26458332px;stroke-linecap:butt;stroke-linejoin:miter;stroke-opacity:1" />
  <g
     id="text850"
     style="font-style:normal;font-variant:normal;font-weight:normal;font-stretch:normal;font-size:2.82222223px;line-height:125%;font-family:Sudo;-inkscape-font-specification:'Sudo, Normal';font-variant-ligatures:normal;font-variant-caps:normal;font-variant-numeric:normal;font-feature-settings:normal;text-align:start;letter-spacing:0px;word-spacing:0px;writing-mode:lr-tb;text-anchor:start;fill:#000000;fill-opacity:1;stroke:#ffffff;stroke-width:0.26458332px;stroke-linecap:butt;stroke-linejoin:miter;stroke-opacity:1"
     aria-label="CLK OUT">
    <path
       id="path853"
       style="stroke:#ffffff;stroke-width:0.26458332px;stroke-opacity:1"
       d="m 3.9992503,79.328468 q 0,0.195682 0.011024,0.333486 0.011024,0.137804 0.049609,0.225998 0.038585,0.08544 0.1157552,0.12678 0.079926,0.04134 0.2149739,0.04134 0.055122,0 0.1157552,-0.0055 0.06339,-0.0083 0.1322917,-0.02481 l 0.038585,0.16812 q -0.068902,0.01929 -0.1515842,0.02756 -0.079926,0.01103 -0.1515842,0.01103 -0.1626085,0 -0.2756077,-0.04685 -0.110243,-0.04961 -0.181901,-0.157096 -0.068902,-0.107487 -0.1019748,-0.278364 -0.030317,-0.173633 -0.030317,-0.42168 0,-0.248046 0.030317,-0.418923 0.033073,-0.173633 0.1019748,-0.28112 0.071658,-0.107487 0.181901,-0.15434 0.1129992,-0.04961 0.2756077,-0.04961 0.06339,0 0.1405599,0.0083 0.07717,0.0083 0.146072,0.0248 L 4.6221228,78.62571 Q 4.5008554,78.6009 4.3906123,78.6009 q -0.1350477,0 -0.2149739,0.04134 -0.07717,0.04134 -0.1157552,0.129536 -0.038585,0.08544 -0.049609,0.225998 -0.011024,0.137804 -0.011024,0.330729 z" />
    <path
       id="path855"
       style="stroke:#ffffff;stroke-width:0.26458332px;stroke-opacity:1"
       d="m 5.0189986,80.207657 v -1.763889 h 0.1984375 v 1.5875 h 0.6945312 v 0.176389 z" />
    <path
       id="path857"
       style="stroke:#ffffff;stroke-width:0.26458332px;stroke-opacity:1"
       d="m 6.9592764,79.80527 q -0.00551,-0.09095 -0.024805,-0.151584 -0.016536,-0.06063 -0.057878,-0.09646 -0.038585,-0.03858 -0.107487,-0.05237 -0.066146,-0.01654 -0.1708767,-0.01654 H 6.4521583 v 0.719336 H 6.2537208 v -1.763889 h 0.1984375 v 0.868164 H 6.58445 q 0.024805,0 0.049609,0.0028 0.024805,0 0.046853,0.0028 0.060634,-0.09922 0.1047309,-0.195681 0.046853,-0.09922 0.082682,-0.20395 0.035829,-0.107487 0.06339,-0.225998 0.027561,-0.118511 0.052365,-0.256315 l 0.2094618,0.0441 q -0.046853,0.264583 -0.1240234,0.474045 -0.074414,0.209462 -0.1929254,0.402387 0.1267795,0.04685 0.1984375,0.151584 0.071658,0.101975 0.088195,0.283876 l 0.035829,0.4079 -0.2149739,0.01654 z" />
    <path
       id="path859"
       style="stroke:#ffffff;stroke-width:0.26458332px;stroke-opacity:1"
       d="m 8.6597756,79.328468 q 0,-0.912261 0.5153863,-0.912261 0.2673394,0 0.3913628,0.225998 0.1240235,0.223243 0.1240235,0.686263 0,0.451997 -0.1240235,0.680751 -0.1240234,0.225999 -0.3913628,0.225999 -0.2618273,0 -0.3886068,-0.225999 -0.1267795,-0.228754 -0.1267795,-0.680751 z m 0.2094618,0 q 0,0.198438 0.016537,0.336242 0.016536,0.137804 0.052365,0.225998 0.035829,0.08544 0.093707,0.124024 0.060634,0.03859 0.143316,0.03859 0.082682,0 0.1405599,-0.03859 0.060634,-0.03859 0.096463,-0.124024 0.035829,-0.08819 0.052365,-0.225998 0.016537,-0.137804 0.016537,-0.336242 0,-0.198437 -0.016537,-0.336241 -0.016536,-0.14056 -0.052365,-0.225998 -0.035829,-0.08819 -0.096463,-0.12678 -0.057878,-0.04134 -0.1405599,-0.04134 -0.082682,0 -0.143316,0.04134 -0.057878,0.03858 -0.093707,0.12678 -0.035829,0.08544 -0.052365,0.225998 -0.016537,0.137804 -0.016537,0.336241 z" />
    <path
       id="path861"
       style="stroke:#ffffff;stroke-width:0.26458332px;stroke-opacity:1"
       d="m 9.9578875,78.443768 h 0.1984375 v 1.298112 q 0,0.07166 0.0083,0.129536 0.01103,0.05788 0.03858,0.09922 0.02756,0.03858 0.07717,0.06063 0.04961,0.02205 0.129536,0.02205 0.07441,0 0.124023,-0.02205 0.04961,-0.02205 0.07717,-0.06063 0.03032,-0.04134 0.04134,-0.09922 0.01102,-0.05788 0.01102,-0.129536 v -1.298112 h 0.198438 v 1.287088 q 0,0.135047 -0.03307,0.23151 -0.03307,0.09371 -0.09371,0.15434 -0.06063,0.05788 -0.143316,0.08544 -0.08268,0.02756 -0.181901,0.02756 -0.09922,0 -0.181901,-0.02756 -0.08268,-0.02756 -0.143316,-0.08544 -0.06063,-0.06063 -0.093707,-0.15434 -0.033073,-0.09646 -0.033073,-0.228754 z" />
    <path
       id="path863"
       style="stroke:#ffffff;stroke-width:0.26458332px;stroke-opacity:1"
       d="m 12.1407,78.620157 h -0.396875 v 1.5875 h -0.198437 v -1.5875 H 11.148513 V 78.443768 H 12.1407 Z" />
  </g>
  <g
     id="text850-2"
     style="font-style:normal;font-variant:normal;font-weight:normal;font-stretch:normal;font-size:2.82222223px;line-height:125%;font-family:Sudo;-inkscape-font-specification:'Sudo, Normal';font-variant-ligatures:normal;font-variant-caps:normal;font-variant-numeric:normal;font-feature-settings:normal;text-align:start;letter-spacing:0px;word-spacing:0px;writing-mode:lr-tb;text-anchor:start;fill:#000000;fill-opacity:1;stroke:none;stroke-width:0.26458332px;stroke-linecap:butt;stroke-linejoin:miter;stroke-opacity:1"
     aria-label="CLK IN">
    <path
       id="path866"
       style="stroke:none;stroke-width:0.26458332px;stroke-opacity:1"
       d="m 4.622229,61.232018 q 0,0.195681 0.011024,0.333485 0.011024,0.137804 0.049609,0.225998 0.038585,0.08544 0.1157552,0.12678 0.079926,0.04134 0.2149739,0.04134 0.055122,0 0.1157552,-0.0055 0.06339,-0.0083 0.1322917,-0.02481 l 0.038585,0.168121 q -0.068902,0.01929 -0.1515842,0.02756 -0.079926,0.01103 -0.1515842,0.01103 -0.1626085,0 -0.2756077,-0.04685 -0.110243,-0.04961 -0.181901,-0.157096 -0.068902,-0.107487 -0.1019748,-0.278364 -0.030317,-0.173632 -0.030317,-0.421679 0,-0.248047 0.030317,-0.418924 0.033073,-0.173633 0.1019748,-0.28112 0.071658,-0.107487 0.181901,-0.15434 0.1129992,-0.04961 0.2756077,-0.04961 0.06339,0 0.1405599,0.0083 0.07717,0.0083 0.146072,0.02481 l -0.038585,0.16812 q -0.1212673,-0.0248 -0.2315104,-0.0248 -0.1350477,0 -0.2149739,0.04134 -0.07717,0.04134 -0.1157552,0.129535 -0.038585,0.08544 -0.049609,0.225999 -0.011024,0.137803 -0.011024,0.330729 z" />
    <path
       id="path868"
       style="stroke:none;stroke-width:0.26458332px;stroke-opacity:1"
       d="m 5.6419773,62.111206 v -1.763889 h 0.1984375 v 1.5875 H 6.534946 v 0.176389 z" />
    <path
       id="path870"
       style="stroke:none;stroke-width:0.26458332px;stroke-opacity:1"
       d="m 7.5822551,61.708819 q -0.00551,-0.09095 -0.024805,-0.151584 -0.016536,-0.06063 -0.057878,-0.09646 -0.038585,-0.03858 -0.107487,-0.05237 Q 7.32594,61.39187 7.2212091,61.39187 H 7.075137 v 0.719336 H 6.8766995 V 60.347317 H 7.075137 v 0.868164 h 0.1322917 q 0.024805,0 0.049609,0.0028 0.024805,0 0.046853,0.0028 0.060634,-0.09922 0.1047309,-0.195681 0.046853,-0.09922 0.082682,-0.20395 0.035829,-0.107487 0.06339,-0.225998 0.027561,-0.118511 0.052365,-0.256315 l 0.2094618,0.0441 q -0.046853,0.264583 -0.1240235,0.474045 -0.074414,0.209462 -0.1929253,0.402387 0.1267795,0.04685 0.1984375,0.151585 0.071658,0.101974 0.088194,0.283876 l 0.035829,0.407899 -0.2149739,0.01654 z" />
    <path
       id="path872"
       style="stroke:none;stroke-width:0.26458332px;stroke-opacity:1"
       d="m 9.3681927,60.347317 h 0.8598953 v 0.176389 H 9.8973593 v 1.411111 h 0.3417537 v 0.176389 H 9.3571683 V 61.934817 H 9.6989218 V 60.523706 H 9.3681927 Z" />
    <path
       id="path874"
       style="stroke:none;stroke-width:0.26458332px;stroke-opacity:1"
       d="m 10.580866,60.347317 h 0.225998 l 0.396875,1.058333 0.08268,0.341754 v -1.400087 h 0.198437 v 1.763889 h -0.225998 l -0.396875,-1.058333 -0.08268,-0.333486 v 1.391819 h -0.198438 z" />
  </g>
  <g
     id="text850-2-4"
     style="font-style:normal;font-variant:normal;font-weight:normal;font-stretch:normal;font-size:2.82222223px;line-height:125%;font-family:Sudo;-inkscape-font-specification:'Sudo, Normal';font-variant-ligatures:normal;font-variant-caps:normal;font-variant-numeric:normal;font-feature-settings:normal;text-align:start;letter-spacing:0px;word-spacing:0px;writing-mode:lr-tb;text-anchor:start;fill:#000000;fill-opacity:1;stroke:none;stroke-width:0.26458332px;stroke-linecap:butt;stroke-linejoin:miter;stroke-opacity:1"
     aria-label="RESET">
    <path
       id="path878"
       style="stroke:none;stroke-width:0.26458332px;stroke-opacity:1"
       d="m 5.8100987,43.030863 q -0.01378,-0.14056 -0.046853,-0.248047 -0.033073,-0.107487 -0.088195,-0.187413 -0.052365,-0.07993 -0.1267795,-0.137804 -0.071658,-0.05788 -0.1653646,-0.104731 H 5.245103 v 0.664214 H 5.0466655 v -1.763889 h 0.4271919 q 0.2342664,0 0.3720703,0.143316 0.1405599,0.143316 0.1405599,0.413412 0,0.223242 -0.1047309,0.350021 -0.1047309,0.124024 -0.2811198,0.154341 0.1763889,0.07441 0.2811198,0.256315 0.1074869,0.179145 0.1322916,0.440972 z M 5.245103,41.429582 v 0.746897 h 0.2094618 q 0.099219,0 0.1598524,-0.02481 0.06339,-0.02756 0.099219,-0.07441 0.035829,-0.04961 0.049609,-0.115755 0.01378,-0.0689 0.01378,-0.151584 0,-0.08544 -0.01378,-0.154341 -0.01378,-0.07166 -0.052365,-0.121267 -0.035829,-0.04961 -0.099219,-0.07717 -0.060634,-0.02756 -0.1570964,-0.02756 z" />
    <path
       id="path880"
       style="stroke:none;stroke-width:0.26458332px;stroke-opacity:1"
       d="M 7.1467958,41.429582 H 6.4798253 v 0.705556 h 0.5181423 v 0.176389 H 6.4798253 v 0.529166 h 0.6945312 v 0.176389 H 6.2813878 v -1.763889 h 0.865408 z" />
    <path
       id="path882"
       style="stroke:none;stroke-width:0.26458332px;stroke-opacity:1"
       d="m 8.3429329,41.462655 q -0.071658,-0.02481 -0.1488281,-0.03583 -0.074414,-0.01378 -0.1378038,-0.01378 -0.1047309,0 -0.1708767,0.0248 -0.06339,0.02481 -0.1019749,0.06615 -0.035829,0.04134 -0.049609,0.09922 -0.011024,0.05788 -0.011024,0.124023 0,0.12678 0.052365,0.201194 0.052366,0.07166 0.1295356,0.124023 0.079926,0.04961 0.1708767,0.08819 0.090951,0.03858 0.1681207,0.09646 0.079926,0.05512 0.1322917,0.140559 0.052365,0.08544 0.052365,0.228755 0,0.223242 -0.1405599,0.327973 -0.1405599,0.104731 -0.3996311,0.104731 -0.096463,0 -0.2011935,-0.01929 -0.1019749,-0.01654 -0.1956815,-0.05237 l 0.052366,-0.181901 q 0.079926,0.03032 0.1626085,0.05236 0.085438,0.01929 0.1901693,0.01929 0.093707,0 0.1570963,-0.01654 0.06339,-0.01929 0.099219,-0.04961 0.035829,-0.03307 0.049609,-0.07441 0.016537,-0.0441 0.016537,-0.09371 0,-0.107487 -0.052365,-0.16812 -0.052365,-0.06339 -0.1322917,-0.107487 -0.07717,-0.0441 -0.1681207,-0.08544 -0.090951,-0.04134 -0.1708767,-0.101975 -0.07717,-0.06339 -0.1295356,-0.162608 -0.052365,-0.09922 -0.052365,-0.261827 0,-0.110243 0.033073,-0.201194 0.035829,-0.09371 0.1019748,-0.159852 0.068902,-0.0689 0.1708767,-0.104731 0.1019749,-0.03859 0.2370226,-0.03859 0.079926,0 0.1681207,0.01378 0.09095,0.01102 0.1626085,0.03583 z" />
    <path
       id="path884"
       style="stroke:none;stroke-width:0.26458332px;stroke-opacity:1"
       d="M 9.6162404,41.429582 H 8.9492699 v 0.705556 h 0.5181424 v 0.176389 H 8.9492699 v 0.529166 h 0.6945313 v 0.176389 H 8.7508324 v -1.763889 h 0.865408 z" />
    <path
       id="path886"
       style="stroke:none;stroke-width:0.26458332px;stroke-opacity:1"
       d="M 10.933645,41.429582 H 10.53677 v 1.5875 h -0.198438 v -1.5875 H 9.9414573 v -0.176389 h 0.9921877 z" />
  </g>
  <g
     id="text850-2-4-4"
     style="font-style:normal;font-variant:normal;font-weight:normal;font-stretch:normal;font-size:2.82222223px;line-height:125%;font-family:Sudo;-inkscape-font-specification:'Sudo, Normal';font-variant-ligatures:normal;font-variant-caps:normal;font-variant-numeric:normal;font-feature-settings:normal;text-align:start;letter-spacing:0px;word-spacing:0px;writing-mode:lr-tb;text-anchor:start;fill:#000000;fill-opacity:1;stroke:none;stroke-width:0.18520834;stroke-linecap:butt;stroke-linejoin:miter;stroke-miterlimit:4;stroke-dasharray:none;stroke-opacity:1"
     aria-label="OFFSET">
    <path
       id="path889"
       style="font-style:normal;font-variant:normal;font-weight:normal;font-stretch:normal;font-size:2.82222223px;font-family:Sudo;-inkscape-font-specification:'Sudo, Normal';font-variant-ligatures:normal;font-variant-caps:normal;font-variant-numeric:normal;font-feature-settings:normal;text-align:start;writing-mode:lr-tb;text-anchor:start;fill:#000000;fill-opacity:1;stroke:none;stroke-width:0.18520834;stroke-miterlimit:4;stroke-dasharray:none;stroke-opacity:1"
       d="m 4.3736099,13.258839 q 0,-0.912261 0.5153863,-0.912261 0.2673394,0 0.3913628,0.225998 0.1240235,0.223242 0.1240235,0.686263 0,0.451996 -0.1240235,0.680751 -0.1240234,0.225998 -0.3913628,0.225998 -0.2618273,0 -0.3886068,-0.225998 -0.1267795,-0.228755 -0.1267795,-0.680751 z m 0.2094618,0 q 0,0.198437 0.016536,0.336241 0.016536,0.137804 0.052365,0.225998 0.035829,0.08544 0.093707,0.124024 0.060634,0.03858 0.143316,0.03858 0.082682,0 0.1405599,-0.03858 0.060634,-0.03859 0.096463,-0.124024 0.035829,-0.08819 0.052365,-0.225998 0.016536,-0.137804 0.016536,-0.336241 0,-0.198438 -0.016536,-0.336242 -0.016536,-0.140559 -0.052365,-0.225998 -0.035829,-0.08819 -0.096463,-0.126779 -0.057878,-0.04134 -0.1405599,-0.04134 -0.082682,0 -0.143316,0.04134 -0.057878,0.03858 -0.093707,0.126779 -0.035829,0.08544 -0.052365,0.225998 -0.016536,0.137804 -0.016536,0.336242 z" />
    <path
       id="path891"
       style="font-style:normal;font-variant:normal;font-weight:normal;font-stretch:normal;font-size:2.82222223px;font-family:Sudo;-inkscape-font-specification:'Sudo, Normal';font-variant-ligatures:normal;font-variant-caps:normal;font-variant-numeric:normal;font-feature-settings:normal;text-align:start;writing-mode:lr-tb;text-anchor:start;fill:#000000;fill-opacity:1;stroke:none;stroke-width:0.18520834;stroke-miterlimit:4;stroke-dasharray:none;stroke-opacity:1"
       d="M 6.5646906,12.550527 H 5.8701594 v 0.705556 h 0.5181424 v 0.176389 H 5.8701594 v 0.705555 H 5.6717219 v -1.763889 h 0.8929687 z" />
    <path
       id="path893"
       style="font-style:normal;font-variant:normal;font-weight:normal;font-stretch:normal;font-size:2.82222223px;font-family:Sudo;-inkscape-font-specification:'Sudo, Normal';font-variant-ligatures:normal;font-variant-caps:normal;font-variant-numeric:normal;font-feature-settings:normal;text-align:start;writing-mode:lr-tb;text-anchor:start;fill:#000000;fill-opacity:1;stroke:none;stroke-width:0.18520834;stroke-miterlimit:4;stroke-dasharray:none;stroke-opacity:1"
       d="M 7.7994129,12.550527 H 7.1048817 v 0.705556 H 7.623024 v 0.176389 H 7.1048817 v 0.705555 H 6.9064442 v -1.763889 h 0.8929687 z" />
    <path
       id="path895"
       style="font-style:normal;font-variant:normal;font-weight:normal;font-stretch:normal;font-size:2.82222223px;font-family:Sudo;-inkscape-font-specification:'Sudo, Normal';font-variant-ligatures:normal;font-variant-caps:normal;font-variant-numeric:normal;font-feature-settings:normal;text-align:start;writing-mode:lr-tb;text-anchor:start;fill:#000000;fill-opacity:1;stroke:none;stroke-width:0.18520834;stroke-miterlimit:4;stroke-dasharray:none;stroke-opacity:1"
       d="m 8.9679894,12.5836 q -0.071658,-0.02481 -0.1488281,-0.03583 -0.074414,-0.01378 -0.1378038,-0.01378 -0.1047309,0 -0.1708767,0.0248 -0.06339,0.02481 -0.1019749,0.06615 -0.035829,0.04134 -0.049609,0.09922 -0.011024,0.05788 -0.011024,0.124023 0,0.12678 0.052365,0.201194 0.052366,0.07166 0.1295356,0.124023 0.079926,0.04961 0.1708767,0.08819 0.090951,0.03858 0.1681207,0.09646 0.079926,0.05512 0.1322917,0.140559 0.052365,0.08544 0.052365,0.228755 0,0.223242 -0.1405599,0.327973 -0.1405599,0.104731 -0.3996311,0.104731 -0.096463,0 -0.2011935,-0.01929 -0.1019749,-0.01654 -0.1956815,-0.05236 l 0.052366,-0.181901 q 0.079926,0.03032 0.1626085,0.05236 0.085438,0.01929 0.1901693,0.01929 0.093707,0 0.1570963,-0.01654 0.06339,-0.01929 0.099219,-0.04961 0.035829,-0.03307 0.049609,-0.07441 0.016536,-0.0441 0.016536,-0.09371 0,-0.107487 -0.052365,-0.16812 -0.052366,-0.06339 -0.1322917,-0.107487 -0.07717,-0.0441 -0.1681207,-0.08544 -0.09095,-0.04134 -0.1708767,-0.101975 -0.07717,-0.06339 -0.1295356,-0.162608 -0.052365,-0.09922 -0.052365,-0.261827 0,-0.110243 0.033073,-0.201194 0.035829,-0.09371 0.1019748,-0.159852 0.068902,-0.0689 0.1708767,-0.104731 0.1019749,-0.03858 0.2370226,-0.03858 0.079926,0 0.1681207,0.01378 0.09095,0.01102 0.1626085,0.03583 z" />
    <path
       id="path897"
       style="font-style:normal;font-variant:normal;font-weight:normal;font-stretch:normal;font-size:2.82222223px;font-family:Sudo;-inkscape-font-specification:'Sudo, Normal';font-variant-ligatures:normal;font-variant-caps:normal;font-variant-numeric:normal;font-feature-settings:normal;text-align:start;writing-mode:lr-tb;text-anchor:start;fill:#000000;fill-opacity:1;stroke:none;stroke-width:0.18520834;stroke-miterlimit:4;stroke-dasharray:none;stroke-opacity:1"
       d="M 10.241297,12.550527 H 9.5743262 v 0.705556 h 0.5181428 v 0.176389 H 9.5743262 v 0.529166 h 0.6945308 v 0.176389 H 9.3758887 v -1.763889 h 0.8654083 z" />
    <path
       id="path899"
       style="font-style:normal;font-variant:normal;font-weight:normal;font-stretch:normal;font-size:2.82222223px;font-family:Sudo;-inkscape-font-specification:'Sudo, Normal';font-variant-ligatures:normal;font-variant-caps:normal;font-variant-numeric:normal;font-feature-settings:normal;text-align:start;writing-mode:lr-tb;text-anchor:start;fill:#000000;fill-opacity:1;stroke:none;stroke-width:0.18520834;stroke-miterlimit:4;stroke-dasharray:none;stroke-opacity:1"
       d="m 11.558701,12.550527 h -0.396875 v 1.5875 h -0.198437 v -1.5875 h -0.396875 v -0.176389 h 0.992187 z" />
  </g>
</svg>
