<?xml version="1.0" encoding="UTF-8" standalone="no"?>
<svg
   xmlns:osb="http://www.openswatchbook.org/uri/2009/osb"
   xmlns:dc="http://purl.org/dc/elements/1.1/"
   xmlns:cc="http://creativecommons.org/ns#"
   xmlns:rdf="http://www.w3.org/1999/02/22-rdf-syntax-ns#"
   xmlns:svg="http://www.w3.org/2000/svg"
   xmlns="http://www.w3.org/2000/svg"
   xmlns:sodipodi="http://sodipodi.sourceforge.net/DTD/sodipodi-0.dtd"
   xmlns:inkscape="http://www.inkscape.org/namespaces/inkscape"
   id="svg12553"
   version="1.1"
   viewBox="0 0 19.84375 100.54166"
   height="380"
   width="75"
   sodipodi:docname="LAZAGNEtemp.svg"
   inkscape:version="0.92.2 (5c3e80d, 2017-08-06)">
  <sodipodi:namedview
     pagecolor="#ffffff"
     bordercolor="#666666"
     borderopacity="1"
     objecttolerance="10"
     gridtolerance="10"
     guidetolerance="10"
     inkscape:pageopacity="0"
     inkscape:pageshadow="2"
     inkscape:window-width="1920"
     inkscape:window-height="1017"
     id="namedview118"
     showgrid="true"
     inkscape:zoom="1.5750457"
     inkscape:cx="-127.39277"
     inkscape:cy="123.66591"
     inkscape:window-x="-8"
     inkscape:window-y="-8"
     inkscape:window-maximized="1"
     inkscape:current-layer="svg12553"
     inkscape:snap-to-guides="false"
     inkscape:snap-grids="false">
    <inkscape:grid
       type="xygrid"
       id="grid929" />
  </sodipodi:namedview>
  <defs
     id="defs12547">
    <linearGradient
       id="linearGradient4708"
       osb:paint="solid">
      <stop
         style="stop-color:#ececec;stop-opacity:1;"
         offset="0"
         id="stop4706" />
    </linearGradient>
    <filter
       style="color-interpolation-filters:sRGB"
       inkscape:label="Opacity"
       id="filter4696">
      <feColorMatrix
         in="SourceGraphic"
         values="0 0 0 0 1 0 0 0 0 0 0 0 0 0 0 1 0 0 0 0 0 "
         result="colormatrix"
         id="feColorMatrix4692" />
      <feBlend
         in2="BackgroundImage"
         mode="multiply"
         result="fbSourceGraphic"
         id="feBlend4694" />
      <feColorMatrix
         result="fbSourceGraphicAlpha"
         in="fbSourceGraphic"
         values="0 0 0 -1 0 0 0 0 -1 0 0 0 0 -1 0 0 0 0 1 0"
         id="feColorMatrix4762" />
      <feColorMatrix
         id="feColorMatrix4764"
         values="1 0 0 0 0 0 1 0 0 0 0 0 1 0 0 0 0 0 5 -1 "
         result="colormatrix"
         in="fbSourceGraphic" />
      <feComposite
         in2="colormatrix"
         id="feComposite4766"
         operator="arithmetic"
         k2="0.3"
         result="composite"
         k1="0"
         k3="0"
         k4="0" />
    </filter>
  </defs>
  <metadata
     id="metadata12550">
    <rdf:RDF>
      <cc:Work
         rdf:about="">
        <dc:format>image/svg+xml</dc:format>
        <dc:type
           rdf:resource="http://purl.org/dc/dcmitype/StillImage" />
        <dc:title></dc:title>
      </cc:Work>
    </rdf:RDF>
  </metadata>
  <g
     transform="matrix(0.16642331,0,0,1.0012206,-4.4490937,-161.56826)"
     id="layer1">
    <path
       style="fill:#e6e6e6;fill-opacity:1;fill-rule:nonzero;stroke:none;stroke-width:0.32258889"
       d="M 26.616839,161.37987 H 145.85344 v 100.3961 H 26.616839 Z m 0,0"
       id="path33453"
       inkscape:connector-curvature="0" />
  </g>
  <g
     aria-label="bId°°"
     inkscape:transform-center-x="-1.5441791"
     inkscape:transform-center-y="0.35634903"
     style="font-style:normal;font-variant:normal;font-weight:normal;font-stretch:normal;font-size:4.23333311px;line-height:125%;font-family:'DejaVu Sans Mono';-inkscape-font-specification:'DejaVu Sans Mono, Normal';font-variant-ligatures:normal;font-variant-caps:normal;font-variant-numeric:normal;font-feature-settings:normal;text-align:start;letter-spacing:0px;word-spacing:0px;writing-mode:lr-tb;text-anchor:start;fill:#000000;fill-opacity:1;stroke:none;stroke-width:0.26458332px;stroke-linecap:butt;stroke-linejoin:miter;stroke-opacity:1"
     id="text977"
     transform="translate(-3.5496977,-1.948682)">
    <path
       d="m 9.1111153,96.919039 q 0,-0.44235 -0.1405599,-0.66766 -0.1405599,-0.225309 -0.4154785,-0.225309 -0.2769857,0 -0.4196126,0.227377 -0.142627,0.225309 -0.142627,0.665592 0,0.438216 0.142627,0.665592 0.1426269,0.227377 0.4196126,0.227377 0.2749186,0 0.4154785,-0.22531 0.1405599,-0.225309 0.1405599,-0.667659 z m -1.118278,-0.86403 q 0.09095,-0.169499 0.2501139,-0.260449 0.1612305,-0.09095 0.3720703,-0.09095 0.4175456,0 0.6573242,0.322461 0.2397787,0.320394 0.2397787,0.884701 0,0.572575 -0.2418457,0.89917 Q 9.0305,98.13447 8.6108874,98.13447 q -0.2067057,0 -0.3658691,-0.08888 -0.1570963,-0.09095 -0.252181,-0.262516 v 0.291455 H 7.6124988 v -3.216341 h 0.3803385 z"
       style="font-style:normal;font-variant:normal;font-weight:normal;font-stretch:normal;font-size:4.23333311px;font-family:'DejaVu Sans Mono';-inkscape-font-specification:'DejaVu Sans Mono, Normal';font-variant-ligatures:normal;font-variant-caps:normal;font-variant-numeric:normal;font-feature-settings:normal;text-align:start;writing-mode:lr-tb;text-anchor:start;stroke-width:0.26458332px"
       id="path867"
       inkscape:connector-curvature="0" />
    <path
       d="m 10.17565,94.988408 h 1.71359 v 0.351399 h -0.646989 v 2.383317 h 0.646989 v 0.3514 h -1.71359 v -0.3514 h 0.646989 V 95.339807 H 10.17565 Z"
       style="font-style:normal;font-variant:normal;font-weight:normal;font-stretch:normal;font-size:4.23333311px;font-family:'DejaVu Sans Mono';-inkscape-font-specification:'DejaVu Sans Mono, Normal';font-variant-ligatures:normal;font-variant-caps:normal;font-variant-numeric:normal;font-feature-settings:normal;text-align:start;writing-mode:lr-tb;text-anchor:start;stroke-width:0.26458332px"
       id="path869"
       inkscape:connector-curvature="0" />
    <path
       d="m 14.080321,96.055009 v -1.196826 h 0.380338 v 3.216341 h -0.380338 v -0.291455 q -0.09508,0.171566 -0.254248,0.262516 -0.157097,0.08888 -0.363802,0.08888 -0.419613,0 -0.661459,-0.324528 -0.239778,-0.326595 -0.239778,-0.89917 0,-0.564307 0.241845,-0.884701 0.241846,-0.322461 0.659392,-0.322461 0.208772,0 0.367936,0.09095 0.159163,0.08888 0.250114,0.260449 z m -1.118278,0.86403 q 0,0.44235 0.14056,0.667659 0.140559,0.22531 0.415478,0.22531 0.274919,0 0.417546,-0.227377 0.144694,-0.227376 0.144694,-0.665592 0,-0.440283 -0.144694,-0.665592 Q 13.793,96.02607 13.518081,96.02607 q -0.274919,0 -0.415478,0.225309 -0.14056,0.22531 -0.14056,0.66766 z"
       style="font-style:normal;font-variant:normal;font-weight:normal;font-stretch:normal;font-size:4.23333311px;font-family:'DejaVu Sans Mono';-inkscape-font-specification:'DejaVu Sans Mono, Normal';font-variant-ligatures:normal;font-variant-caps:normal;font-variant-numeric:normal;font-feature-settings:normal;text-align:start;writing-mode:lr-tb;text-anchor:start;stroke-width:0.26458332px"
       id="path871"
       inkscape:connector-curvature="0" />
    <path
       d="m 16.126707,94.932597 q 0.134359,0 0.254248,0.05168 0.121956,0.04961 0.212907,0.144694 0.09302,0.09302 0.14056,0.21084 0.04961,0.117823 0.04961,0.254248 0,0.272852 -0.192236,0.463021 -0.192236,0.188102 -0.469222,0.188102 -0.279053,0 -0.465088,-0.186035 -0.186035,-0.186035 -0.186035,-0.465088 0,-0.276985 0.190169,-0.469222 0.190169,-0.192236 0.465088,-0.192236 z m 0,0.26665 q -0.163298,0 -0.279053,0.115756 -0.113688,0.113688 -0.113688,0.279052 0,0.165365 0.111621,0.276986 0.113688,0.111621 0.276986,0.111621 0.165364,0 0.28112,-0.113688 0.117822,-0.113688 0.117822,-0.274919 0,-0.163297 -0.115755,-0.279052 -0.115756,-0.115756 -0.279053,-0.115756 z"
       style="font-style:normal;font-variant:normal;font-weight:normal;font-stretch:normal;font-size:4.23333311px;font-family:'DejaVu Sans Mono';-inkscape-font-specification:'DejaVu Sans Mono, Normal';font-variant-ligatures:normal;font-variant-caps:normal;font-variant-numeric:normal;font-feature-settings:normal;text-align:start;writing-mode:lr-tb;text-anchor:start;stroke-width:0.26458332px"
       id="path873"
       inkscape:connector-curvature="0" />
    <path
       d="m 18.673322,94.932597 q 0.134358,0 0.254248,0.05168 0.121956,0.04961 0.212907,0.144694 0.09302,0.09302 0.140559,0.21084 0.04961,0.117823 0.04961,0.254248 0,0.272852 -0.192237,0.463021 -0.192236,0.188102 -0.469221,0.188102 -0.279053,0 -0.465088,-0.186035 -0.186036,-0.186035 -0.186036,-0.465088 0,-0.276985 0.19017,-0.469222 0.190169,-0.192236 0.465088,-0.192236 z m 0,0.26665 q -0.163298,0 -0.279053,0.115756 -0.113688,0.113688 -0.113688,0.279052 0,0.165365 0.111621,0.276986 0.113688,0.111621 0.276986,0.111621 0.165364,0 0.281119,-0.113688 0.117823,-0.113688 0.117823,-0.274919 0,-0.163297 -0.115756,-0.279052 -0.115755,-0.115756 -0.279052,-0.115756 z"
       style="font-style:normal;font-variant:normal;font-weight:normal;font-stretch:normal;font-size:4.23333311px;font-family:'DejaVu Sans Mono';-inkscape-font-specification:'DejaVu Sans Mono, Normal';font-variant-ligatures:normal;font-variant-caps:normal;font-variant-numeric:normal;font-feature-settings:normal;text-align:start;writing-mode:lr-tb;text-anchor:start;stroke-width:0.26458332px"
       id="path875"
       inkscape:connector-curvature="0" />
  </g>
  <g
     style="font-style:normal;font-variant:normal;font-weight:normal;font-stretch:normal;font-size:2.82222223px;line-height:125%;font-family:Sudo;-inkscape-font-specification:'Sudo, Normal';font-variant-ligatures:normal;font-variant-caps:normal;font-variant-numeric:normal;font-feature-settings:normal;text-align:start;letter-spacing:0px;word-spacing:0px;writing-mode:lr-tb;text-anchor:start;fill:#000000;fill-opacity:1;stroke:none;stroke-width:0.26458332px;stroke-linecap:butt;stroke-linejoin:miter;stroke-opacity:1"
     id="text4860" />
  <g
     style="font-style:normal;font-variant:normal;font-weight:normal;font-stretch:normal;font-size:10.66666698px;line-height:125%;font-family:Sudo;-inkscape-font-specification:'Sudo, Normal';font-variant-ligatures:normal;font-variant-caps:normal;font-variant-numeric:normal;font-feature-settings:normal;text-align:start;letter-spacing:0px;word-spacing:0px;writing-mode:lr-tb;text-anchor:start;fill:#000000;fill-opacity:1;stroke:none;stroke-width:1px;stroke-linecap:butt;stroke-linejoin:miter;stroke-opacity:1"
     id="flowRoot1009" />
  <g
     id="g907"
     transform="translate(22.604707,5.4552429)">
    <path
       style="opacity:1;fill:#cd1f00;fill-opacity:1;fill-rule:evenodd;stroke:#cd1f00;stroke-width:0.72085714;stroke-linecap:butt;stroke-linejoin:round;stroke-miterlimit:4;stroke-dasharray:none;stroke-dashoffset:0;stroke-opacity:1"
       d="m -15.03433,75.950935 h 4.702996 c 0.6299038,0 1.1370109,0.507107 1.1370109,1.137012 v 8.103004 c 0,0.629904 -0.5071071,1.137011 -1.1370109,1.137011 h -4.702996 c -0.629904,0 -1.137011,-0.507107 -1.137011,-1.137011 v -8.103004 c 0,-0.629905 0.507107,-1.137012 1.137011,-1.137012 z"
       id="rect998"
       inkscape:connector-curvature="0" />
    <g
       aria-label="OUT"
       style="font-style:normal;font-variant:normal;font-weight:normal;font-stretch:normal;font-size:2.82222223px;line-height:125%;font-family:'DejaVu Sans Mono';-inkscape-font-specification:'DejaVu Sans Mono, Normal';font-variant-ligatures:normal;font-variant-caps:normal;font-variant-numeric:normal;font-feature-settings:normal;text-align:start;letter-spacing:0px;word-spacing:0px;writing-mode:lr-tb;text-anchor:start;fill:#000000;fill-opacity:1;stroke:#ffffff;stroke-width:0.13229166;stroke-linecap:butt;stroke-linejoin:miter;stroke-miterlimit:4;stroke-dasharray:none;stroke-opacity:1"
       id="text1002">
      <path
         d="m -14.042403,77.640369 q 0,-0.453375 -0.09371,-0.647678 -0.09233,-0.194303 -0.304546,-0.194303 -0.21084,0 -0.304547,0.194303 -0.09233,0.194303 -0.09233,0.647678 0,0.451997 0.09233,0.6463 0.09371,0.194303 0.304547,0.194303 0.212218,0 0.304546,-0.192925 0.09371,-0.194303 0.09371,-0.647678 z m 0.290766,0 q 0,0.537435 -0.170877,0.802018 -0.169499,0.264584 -0.518142,0.264584 -0.348644,0 -0.518143,-0.263206 -0.169498,-0.263205 -0.169498,-0.803396 0,-0.538813 0.169498,-0.803396 0.170877,-0.264584 0.518143,-0.264584 0.348643,0 0.518142,0.264584 0.170877,0.264583 0.170877,0.803396 z"
         style="font-style:normal;font-variant:normal;font-weight:normal;font-stretch:normal;font-size:2.82222223px;font-family:'DejaVu Sans Mono';-inkscape-font-specification:'DejaVu Sans Mono, Normal';font-variant-ligatures:normal;font-variant-caps:normal;font-variant-numeric:normal;font-feature-settings:normal;text-align:start;writing-mode:lr-tb;text-anchor:start;fill:#ffffff;fill-opacity:1;stroke:#ffffff;stroke-width:0.13229166;stroke-miterlimit:4;stroke-dasharray:none;stroke-opacity:1"
         id="path957"
         inkscape:connector-curvature="0" />
      <path
         d="m -13.389213,77.877392 v -1.267796 h 0.279742 v 1.394575 q 0,0.150206 0.0083,0.214974 0.0083,0.06339 0.02894,0.09784 0.0441,0.0813 0.126779,0.122645 0.08406,0.04134 0.202572,0.04134 0.119889,0 0.202571,-0.04134 0.08268,-0.04134 0.128158,-0.122645 0.02067,-0.03445 0.02894,-0.09784 0.0083,-0.06339 0.0083,-0.212218 v -1.397331 h 0.278364 v 1.267796 q 0,0.31557 -0.03996,0.44924 -0.03859,0.132292 -0.135048,0.219108 -0.09095,0.0813 -0.208084,0.121267 -0.117133,0.03996 -0.263205,0.03996 -0.144694,0 -0.261828,-0.03996 -0.117133,-0.03996 -0.209461,-0.121267 -0.09508,-0.08544 -0.135048,-0.220486 -0.03996,-0.136426 -0.03996,-0.447862 z"
         style="font-style:normal;font-variant:normal;font-weight:normal;font-stretch:normal;font-size:2.82222223px;font-family:'DejaVu Sans Mono';-inkscape-font-specification:'DejaVu Sans Mono, Normal';font-variant-ligatures:normal;font-variant-caps:normal;font-variant-numeric:normal;font-feature-settings:normal;text-align:start;writing-mode:lr-tb;text-anchor:start;fill:#ffffff;fill-opacity:1;stroke:#ffffff;stroke-width:0.13229166;stroke-miterlimit:4;stroke-dasharray:none;stroke-opacity:1"
         id="path959"
         inkscape:connector-curvature="0" />
      <path
         d="m -11.829274,76.609596 h 1.569586 v 0.234267 h -0.643544 v 1.823144 h -0.279742 v -1.823144 h -0.6463 z"
         style="font-style:normal;font-variant:normal;font-weight:normal;font-stretch:normal;font-size:2.82222223px;font-family:'DejaVu Sans Mono';-inkscape-font-specification:'DejaVu Sans Mono, Normal';font-variant-ligatures:normal;font-variant-caps:normal;font-variant-numeric:normal;font-feature-settings:normal;text-align:start;writing-mode:lr-tb;text-anchor:start;fill:#ffffff;fill-opacity:1;stroke:#ffffff;stroke-width:0.13229166;stroke-miterlimit:4;stroke-dasharray:none;stroke-opacity:1"
         id="path961"
         inkscape:connector-curvature="0" />
    </g>
  </g>
  <text
     xml:space="preserve"
     style="font-style:normal;font-variant:normal;font-weight:normal;font-stretch:normal;font-size:2.82222223px;line-height:125%;font-family:'DejaVu Sans Mono';-inkscape-font-specification:'DejaVu Sans Mono, Normal';font-variant-ligatures:normal;font-variant-caps:normal;font-variant-numeric:normal;font-feature-settings:normal;text-align:start;letter-spacing:0px;word-spacing:0px;writing-mode:lr-tb;text-anchor:start;fill:#000000;fill-opacity:1;stroke:none;stroke-width:0.26458332px;stroke-linecap:butt;stroke-linejoin:miter;stroke-opacity:1"
     x="0.94795227"
     y="7.7168798"
     id="text4582"><tspan
       sodipodi:role="line"
       id="tspan4580"
       x="0.94795227"
       y="7.7168798"
       style="font-style:normal;font-variant:normal;font-weight:normal;font-stretch:normal;font-size:4.23333311px;font-family:'DejaVu Sans Mono';-inkscape-font-specification:'DejaVu Sans Mono, Normal';font-variant-ligatures:normal;font-variant-caps:normal;font-variant-numeric:normal;font-feature-settings:normal;text-align:start;writing-mode:lr-tb;text-anchor:start;stroke-width:0.26458332px">laZagne</tspan></text>
</svg>
