<?xml version="1.0" encoding="UTF-8" standalone="no"?>
<svg
   xmlns:osb="http://www.openswatchbook.org/uri/2009/osb"
   xmlns:dc="http://purl.org/dc/elements/1.1/"
   xmlns:cc="http://creativecommons.org/ns#"
   xmlns:rdf="http://www.w3.org/1999/02/22-rdf-syntax-ns#"
   xmlns:svg="http://www.w3.org/2000/svg"
   xmlns="http://www.w3.org/2000/svg"
   width="75"
   height="380"
   viewBox="0 0 19.84375 100.54166"
   version="1.1"
   id="svg12553">
  <defs
     id="defs12547">
    <linearGradient
       osb:paint="solid"
       id="linearGradient4708">
      <stop
         id="stop4706"
         offset="0"
         style="stop-color:#ececec;stop-opacity:1;" />
    </linearGradient>
    <filter
       id="filter4696"
       style="color-interpolation-filters:sRGB">
      <feColorMatrix
         id="feColorMatrix4692"
         result="colormatrix"
         values="0 0 0 0 1 0 0 0 0 0 0 0 0 0 0 1 0 0 0 0 0 "
         in="SourceGraphic" />
      <feBlend
         id="feBlend4694"
         result="fbSourceGraphic"
         mode="multiply"
         in2="BackgroundImage" />
      <feColorMatrix
         id="feColorMatrix4762"
         values="0 0 0 -1 0 0 0 0 -1 0 0 0 0 -1 0 0 0 0 1 0"
         in="fbSourceGraphic"
         result="fbSourceGraphicAlpha" />
      <feColorMatrix
         in="fbSourceGraphic"
         result="colormatrix"
         values="1 0 0 0 0 0 1 0 0 0 0 0 1 0 0 0 0 0 5 -1 "
         id="feColorMatrix4764" />
      <feComposite
         k4="0"
         k3="0"
         k1="0"
         result="composite"
         k2="0.3"
         operator="arithmetic"
         id="feComposite4766"
         in2="colormatrix" />
    </filter>
  </defs>
  <metadata
     id="metadata12550">
    <rdf:RDF>
      <cc:Work
         rdf:about="">
        <dc:format>image/svg+xml</dc:format>
        <dc:type
           rdf:resource="http://purl.org/dc/dcmitype/StillImage" />
        <dc:title></dc:title>
      </cc:Work>
    </rdf:RDF>
  </metadata>
  <g
     id="layer1"
     transform="matrix(0.16642331,0,0,1.0012206,-4.4490937,-161.56826)">
    <path
       id="path33453"
       d="M 26.616839,161.37987 H 145.85344 v 100.3961 H 26.616839 Z m 0,0"
       style="fill:#e6e6e6;fill-opacity:1;fill-rule:nonzero;stroke:none;stroke-width:0.32258889" />
  </g>
  <g
     transform="translate(-3.5496977,-1.948682)"
     id="text977"
     style="font-style:normal;font-variant:normal;font-weight:normal;font-stretch:normal;font-size:4.23333311px;line-height:125%;font-family:'DejaVu Sans Mono';-inkscape-font-specification:'DejaVu Sans Mono, Normal';font-variant-ligatures:normal;font-variant-caps:normal;font-variant-numeric:normal;font-feature-settings:normal;text-align:start;letter-spacing:0px;word-spacing:0px;writing-mode:lr-tb;text-anchor:start;fill:#000000;fill-opacity:1;stroke:none;stroke-width:0.26458332px;stroke-linecap:butt;stroke-linejoin:miter;stroke-opacity:1"
     aria-label="bId°°">
    <path
       id="path867"
       style="font-style:normal;font-variant:normal;font-weight:normal;font-stretch:normal;font-size:4.23333311px;font-family:'DejaVu Sans Mono';-inkscape-font-specification:'DejaVu Sans Mono, Normal';font-variant-ligatures:normal;font-variant-caps:normal;font-variant-numeric:normal;font-feature-settings:normal;text-align:start;writing-mode:lr-tb;text-anchor:start;stroke-width:0.26458332px"
       d="m 9.1111153,96.919039 q 0,-0.44235 -0.1405599,-0.66766 -0.1405599,-0.225309 -0.4154785,-0.225309 -0.2769857,0 -0.4196126,0.227377 -0.142627,0.225309 -0.142627,0.665592 0,0.438216 0.142627,0.665592 0.1426269,0.227377 0.4196126,0.227377 0.2749186,0 0.4154785,-0.22531 0.1405599,-0.225309 0.1405599,-0.667659 z m -1.118278,-0.86403 q 0.09095,-0.169499 0.2501139,-0.260449 0.1612305,-0.09095 0.3720703,-0.09095 0.4175456,0 0.6573242,0.322461 0.2397787,0.320394 0.2397787,0.884701 0,0.572575 -0.2418457,0.89917 Q 9.0305,98.13447 8.6108874,98.13447 q -0.2067057,0 -0.3658691,-0.08888 -0.1570963,-0.09095 -0.252181,-0.262516 v 0.291455 H 7.6124988 v -3.216341 h 0.3803385 z" />
    <path
       id="path869"
       style="font-style:normal;font-variant:normal;font-weight:normal;font-stretch:normal;font-size:4.23333311px;font-family:'DejaVu Sans Mono';-inkscape-font-specification:'DejaVu Sans Mono, Normal';font-variant-ligatures:normal;font-variant-caps:normal;font-variant-numeric:normal;font-feature-settings:normal;text-align:start;writing-mode:lr-tb;text-anchor:start;stroke-width:0.26458332px"
       d="m 10.17565,94.988408 h 1.71359 v 0.351399 h -0.646989 v 2.383317 h 0.646989 v 0.3514 h -1.71359 v -0.3514 h 0.646989 V 95.339807 H 10.17565 Z" />
    <path
       id="path871"
       style="font-style:normal;font-variant:normal;font-weight:normal;font-stretch:normal;font-size:4.23333311px;font-family:'DejaVu Sans Mono';-inkscape-font-specification:'DejaVu Sans Mono, Normal';font-variant-ligatures:normal;font-variant-caps:normal;font-variant-numeric:normal;font-feature-settings:normal;text-align:start;writing-mode:lr-tb;text-anchor:start;stroke-width:0.26458332px"
       d="m 14.080321,96.055009 v -1.196826 h 0.380338 v 3.216341 h -0.380338 v -0.291455 q -0.09508,0.171566 -0.254248,0.262516 -0.157097,0.08888 -0.363802,0.08888 -0.419613,0 -0.661459,-0.324528 -0.239778,-0.326595 -0.239778,-0.89917 0,-0.564307 0.241845,-0.884701 0.241846,-0.322461 0.659392,-0.322461 0.208772,0 0.367936,0.09095 0.159163,0.08888 0.250114,0.260449 z m -1.118278,0.86403 q 0,0.44235 0.14056,0.667659 0.140559,0.22531 0.415478,0.22531 0.274919,0 0.417546,-0.227377 0.144694,-0.227376 0.144694,-0.665592 0,-0.440283 -0.144694,-0.665592 Q 13.793,96.02607 13.518081,96.02607 q -0.274919,0 -0.415478,0.225309 -0.14056,0.22531 -0.14056,0.66766 z" />
    <path
       id="path873"
       style="font-style:normal;font-variant:normal;font-weight:normal;font-stretch:normal;font-size:4.23333311px;font-family:'DejaVu Sans Mono';-inkscape-font-specification:'DejaVu Sans Mono, Normal';font-variant-ligatures:normal;font-variant-caps:normal;font-variant-numeric:normal;font-feature-settings:normal;text-align:start;writing-mode:lr-tb;text-anchor:start;stroke-width:0.26458332px"
       d="m 16.126707,94.932597 q 0.134359,0 0.254248,0.05168 0.121956,0.04961 0.212907,0.144694 0.09302,0.09302 0.14056,0.21084 0.04961,0.117823 0.04961,0.254248 0,0.272852 -0.192236,0.463021 -0.192236,0.188102 -0.469222,0.188102 -0.279053,0 -0.465088,-0.186035 -0.186035,-0.186035 -0.186035,-0.465088 0,-0.276985 0.190169,-0.469222 0.190169,-0.192236 0.465088,-0.192236 z m 0,0.26665 q -0.163298,0 -0.279053,0.115756 -0.113688,0.113688 -0.113688,0.279052 0,0.165365 0.111621,0.276986 0.113688,0.111621 0.276986,0.111621 0.165364,0 0.28112,-0.113688 0.117822,-0.113688 0.117822,-0.274919 0,-0.163297 -0.115755,-0.279052 -0.115756,-0.115756 -0.279053,-0.115756 z" />
    <path
       id="path875"
       style="font-style:normal;font-variant:normal;font-weight:normal;font-stretch:normal;font-size:4.23333311px;font-family:'DejaVu Sans Mono';-inkscape-font-specification:'DejaVu Sans Mono, Normal';font-variant-ligatures:normal;font-variant-caps:normal;font-variant-numeric:normal;font-feature-settings:normal;text-align:start;writing-mode:lr-tb;text-anchor:start;stroke-width:0.26458332px"
       d="m 18.673322,94.932597 q 0.134358,0 0.254248,0.05168 0.121956,0.04961 0.212907,0.144694 0.09302,0.09302 0.140559,0.21084 0.04961,0.117823 0.04961,0.254248 0,0.272852 -0.192237,0.463021 -0.192236,0.188102 -0.469221,0.188102 -0.279053,0 -0.465088,-0.186035 -0.186036,-0.186035 -0.186036,-0.465088 0,-0.276985 0.19017,-0.469222 0.190169,-0.192236 0.465088,-0.192236 z m 0,0.26665 q -0.163298,0 -0.279053,0.115756 -0.113688,0.113688 -0.113688,0.279052 0,0.165365 0.111621,0.276986 0.113688,0.111621 0.276986,0.111621 0.165364,0 0.281119,-0.113688 0.117823,-0.113688 0.117823,-0.274919 0,-0.163297 -0.115756,-0.279052 -0.115755,-0.115756 -0.279052,-0.115756 z" />
  </g>
  <g
     id="text4860"
     style="font-style:normal;font-variant:normal;font-weight:normal;font-stretch:normal;font-size:2.82222223px;line-height:125%;font-family:Sudo;-inkscape-font-specification:'Sudo, Normal';font-variant-ligatures:normal;font-variant-caps:normal;font-variant-numeric:normal;font-feature-settings:normal;text-align:start;letter-spacing:0px;word-spacing:0px;writing-mode:lr-tb;text-anchor:start;fill:#000000;fill-opacity:1;stroke:none;stroke-width:0.26458332px;stroke-linecap:butt;stroke-linejoin:miter;stroke-opacity:1" />
  <g
     id="flowRoot1009"
     style="font-style:normal;font-variant:normal;font-weight:normal;font-stretch:normal;font-size:10.66666698px;line-height:125%;font-family:Sudo;-inkscape-font-specification:'Sudo, Normal';font-variant-ligatures:normal;font-variant-caps:normal;font-variant-numeric:normal;font-feature-settings:normal;text-align:start;letter-spacing:0px;word-spacing:0px;writing-mode:lr-tb;text-anchor:start;fill:#000000;fill-opacity:1;stroke:none;stroke-width:1px;stroke-linecap:butt;stroke-linejoin:miter;stroke-opacity:1" />
  <g
     transform="translate(22.604707,5.4552429)"
     id="g907">
    <path
       id="rect998"
       d="m -15.03433,75.950935 h 4.702996 c 0.6299038,0 1.1370109,0.507107 1.1370109,1.137012 v 8.103004 c 0,0.629904 -0.5071071,1.137011 -1.1370109,1.137011 h -4.702996 c -0.629904,0 -1.137011,-0.507107 -1.137011,-1.137011 v -8.103004 c 0,-0.629905 0.507107,-1.137012 1.137011,-1.137012 z"
       style="opacity:1;fill:#cd1f00;fill-opacity:1;fill-rule:evenodd;stroke:#cd1f00;stroke-width:0.72085714;stroke-linecap:butt;stroke-linejoin:round;stroke-miterlimit:4;stroke-dasharray:none;stroke-dashoffset:0;stroke-opacity:1" />
    <g
       id="text1002"
       style="font-style:normal;font-variant:normal;font-weight:normal;font-stretch:normal;font-size:2.82222223px;line-height:125%;font-family:'DejaVu Sans Mono';-inkscape-font-specification:'DejaVu Sans Mono, Normal';font-variant-ligatures:normal;font-variant-caps:normal;font-variant-numeric:normal;font-feature-settings:normal;text-align:start;letter-spacing:0px;word-spacing:0px;writing-mode:lr-tb;text-anchor:start;fill:#000000;fill-opacity:1;stroke:#ffffff;stroke-width:0.13229166;stroke-linecap:butt;stroke-linejoin:miter;stroke-miterlimit:4;stroke-dasharray:none;stroke-opacity:1"
       aria-label="OUT">
      <path
         id="path957"
         style="font-style:normal;font-variant:normal;font-weight:normal;font-stretch:normal;font-size:2.82222223px;font-family:'DejaVu Sans Mono';-inkscape-font-specification:'DejaVu Sans Mono, Normal';font-variant-ligatures:normal;font-variant-caps:normal;font-variant-numeric:normal;font-feature-settings:normal;text-align:start;writing-mode:lr-tb;text-anchor:start;fill:#ffffff;fill-opacity:1;stroke:#ffffff;stroke-width:0.13229166;stroke-miterlimit:4;stroke-dasharray:none;stroke-opacity:1"
         d="m -14.042403,77.640369 q 0,-0.453375 -0.09371,-0.647678 -0.09233,-0.194303 -0.304546,-0.194303 -0.21084,0 -0.304547,0.194303 -0.09233,0.194303 -0.09233,0.647678 0,0.451997 0.09233,0.6463 0.09371,0.194303 0.304547,0.194303 0.212218,0 0.304546,-0.192925 0.09371,-0.194303 0.09371,-0.647678 z m 0.290766,0 q 0,0.537435 -0.170877,0.802018 -0.169499,0.264584 -0.518142,0.264584 -0.348644,0 -0.518143,-0.263206 -0.169498,-0.263205 -0.169498,-0.803396 0,-0.538813 0.169498,-0.803396 0.170877,-0.264584 0.518143,-0.264584 0.348643,0 0.518142,0.264584 0.170877,0.264583 0.170877,0.803396 z" />
      <path
         id="path959"
         style="font-style:normal;font-variant:normal;font-weight:normal;font-stretch:normal;font-size:2.82222223px;font-family:'DejaVu Sans Mono';-inkscape-font-specification:'DejaVu Sans Mono, Normal';font-variant-ligatures:normal;font-variant-caps:normal;font-variant-numeric:normal;font-feature-settings:normal;text-align:start;writing-mode:lr-tb;text-anchor:start;fill:#ffffff;fill-opacity:1;stroke:#ffffff;stroke-width:0.13229166;stroke-miterlimit:4;stroke-dasharray:none;stroke-opacity:1"
         d="m -13.389213,77.877392 v -1.267796 h 0.279742 v 1.394575 q 0,0.150206 0.0083,0.214974 0.0083,0.06339 0.02894,0.09784 0.0441,0.0813 0.126779,0.122645 0.08406,0.04134 0.202572,0.04134 0.119889,0 0.202571,-0.04134 0.08268,-0.04134 0.128158,-0.122645 0.02067,-0.03445 0.02894,-0.09784 0.0083,-0.06339 0.0083,-0.212218 v -1.397331 h 0.278364 v 1.267796 q 0,0.31557 -0.03996,0.44924 -0.03859,0.132292 -0.135048,0.219108 -0.09095,0.0813 -0.208084,0.121267 -0.117133,0.03996 -0.263205,0.03996 -0.144694,0 -0.261828,-0.03996 -0.117133,-0.03996 -0.209461,-0.121267 -0.09508,-0.08544 -0.135048,-0.220486 -0.03996,-0.136426 -0.03996,-0.447862 z" />
      <path
         id="path961"
         style="font-style:normal;font-variant:normal;font-weight:normal;font-stretch:normal;font-size:2.82222223px;font-family:'DejaVu Sans Mono';-inkscape-font-specification:'DejaVu Sans Mono, Normal';font-variant-ligatures:normal;font-variant-caps:normal;font-variant-numeric:normal;font-feature-settings:normal;text-align:start;writing-mode:lr-tb;text-anchor:start;fill:#ffffff;fill-opacity:1;stroke:#ffffff;stroke-width:0.13229166;stroke-miterlimit:4;stroke-dasharray:none;stroke-opacity:1"
         d="m -11.829274,76.609596 h 1.569586 v 0.234267 h -0.643544 v 1.823144 h -0.279742 v -1.823144 h -0.6463 z" />
    </g>
  </g>
  <g
     id="text4582"
     style="font-style:normal;font-variant:normal;font-weight:normal;font-stretch:normal;font-size:2.82222223px;line-height:125%;font-family:'DejaVu Sans Mono';-inkscape-font-specification:'DejaVu Sans Mono, Normal';font-variant-ligatures:normal;font-variant-caps:normal;font-variant-numeric:normal;font-feature-settings:normal;text-align:start;letter-spacing:0px;word-spacing:0px;writing-mode:lr-tb;text-anchor:start;fill:#000000;fill-opacity:1;stroke:none;stroke-width:0.26458332px;stroke-linecap:butt;stroke-linejoin:miter;stroke-opacity:1"
     aria-label="laZagne">
    <path
       id="path847"
       style="font-style:normal;font-variant:normal;font-weight:normal;font-stretch:normal;font-size:4.23333311px;font-family:'DejaVu Sans Mono';-inkscape-font-specification:'DejaVu Sans Mono, Normal';font-variant-ligatures:normal;font-variant-caps:normal;font-variant-numeric:normal;font-feature-settings:normal;text-align:start;writing-mode:lr-tb;text-anchor:start;stroke-width:0.26458332px"
       d="m 2.2688018,6.8776546 q 0,0.2563151 0.093018,0.3865397 0.095085,0.1302246 0.2790527,0.1302246 H 3.0852894 V 7.7168798 H 2.6036651 q -0.3410645,0 -0.5291667,-0.219108 Q 1.8884633,7.2786637 1.8884633,6.8776546 V 4.7754575 H 1.2786814 V 4.4778012 h 0.9901204 z" />
    <path
       id="path849"
       style="font-style:normal;font-variant:normal;font-weight:normal;font-stretch:normal;font-size:4.23333311px;font-family:'DejaVu Sans Mono';-inkscape-font-specification:'DejaVu Sans Mono, Normal';font-variant-ligatures:normal;font-variant-caps:normal;font-variant-numeric:normal;font-feature-settings:normal;text-align:start;writing-mode:lr-tb;text-anchor:start;stroke-width:0.26458332px"
       d="M 4.9456408,6.5531267 H 4.8195503 q -0.3327962,0 -0.5022949,0.1178222 -0.1674316,0.1157552 -0.1674316,0.3472656 0,0.2087728 0.1260905,0.324528 0.1260905,0.1157552 0.3493327,0.1157552 0.3141926,0 0.4940266,-0.217041 Q 5.2991076,7.0223486 5.3011747,6.637876 V 6.5531267 Z M 5.6835802,6.3960303 V 7.7168798 H 5.3011747 V 7.3737484 Q 5.1792183,7.5804541 4.9931831,7.6796728 4.809215,7.7768245 4.5446317,7.7768245 q -0.3534668,0 -0.5643066,-0.1984375 -0.2108398,-0.2005045 -0.2108398,-0.5353678 0,-0.3865397 0.2583821,-0.5870442 Q 4.2883166,6.2554704 4.7906115,6.2554704 H 5.3011747 V 6.1955258 Q 5.2991076,5.9185401 5.1606148,5.7945167 5.0221219,5.6684262 4.7182645,5.6684262 q -0.1943033,0 -0.3927408,0.05581 -0.1984375,0.055811 -0.3865397,0.163298 V 5.5071957 q 0.2108398,-0.080615 0.4030761,-0.1198893 0.1943034,-0.041341 0.3762044,-0.041341 0.287321,0 0.4898926,0.084749 0.2046386,0.084749 0.3307291,0.254248 0.078548,0.1033529 0.1116211,0.2563151 0.033073,0.1508952 0.033073,0.4547528 z" />
    <path
       id="path851"
       style="font-style:normal;font-variant:normal;font-weight:normal;font-stretch:normal;font-size:4.23333311px;font-family:'DejaVu Sans Mono';-inkscape-font-specification:'DejaVu Sans Mono, Normal';font-variant-ligatures:normal;font-variant-caps:normal;font-variant-numeric:normal;font-feature-settings:normal;text-align:start;writing-mode:lr-tb;text-anchor:start;stroke-width:0.26458332px"
       d="M 6.4091173,4.6307635 H 8.4120957 V 4.9490903 L 6.7997911,7.3654801 H 8.4575709 V 7.7168798 H 6.363642 V 7.398553 L 7.9325384,4.9821632 H 6.4091173 Z" />
    <path
       id="path853"
       style="font-style:normal;font-variant:normal;font-weight:normal;font-stretch:normal;font-size:4.23333311px;font-family:'DejaVu Sans Mono';-inkscape-font-specification:'DejaVu Sans Mono, Normal';font-variant-ligatures:normal;font-variant-caps:normal;font-variant-numeric:normal;font-feature-settings:normal;text-align:start;writing-mode:lr-tb;text-anchor:start;stroke-width:0.26458332px"
       d="M 10.038869,6.5531267 H 9.9127789 q -0.3327962,0 -0.5022949,0.1178222 -0.1674316,0.1157552 -0.1674316,0.3472656 0,0.2087728 0.1260905,0.324528 0.1260905,0.1157552 0.3493326,0.1157552 0.3141925,0 0.4940265,-0.217041 0.179834,-0.2191081 0.181901,-0.6035807 V 6.553127 Z m 0.73794,-0.1570964 V 7.7168798 H 10.394403 V 7.3737484 q -0.121956,0.2067057 -0.307991,0.3059244 -0.1839684,0.097152 -0.4485517,0.097152 -0.3534668,0 -0.5643066,-0.1984375 -0.2108398,-0.2005045 -0.2108398,-0.5353678 0,-0.3865397 0.2583821,-0.5870442 Q 9.3815452,6.2554707 9.8838401,6.2554707 H 10.394403 V 6.1955257 Q 10.392303,5.91854 10.253843,5.7945166 10.115351,5.6684261 9.8114931,5.6684261 q -0.1943034,0 -0.3927409,0.05581 -0.1984374,0.055811 -0.3865396,0.1632975 V 5.5071957 q 0.2108398,-0.080615 0.4030761,-0.1198893 0.1943034,-0.041341 0.3762044,-0.041341 0.2873209,0 0.4898929,0.084749 0.204638,0.084749 0.330729,0.254248 0.07855,0.1033529 0.111621,0.2563151 0.03307,0.1508952 0.03307,0.4547526 z" />
    <path
       id="path855"
       style="font-style:normal;font-variant:normal;font-weight:normal;font-stretch:normal;font-size:4.23333311px;font-family:'DejaVu Sans Mono';-inkscape-font-specification:'DejaVu Sans Mono, Normal';font-variant-ligatures:normal;font-variant-caps:normal;font-variant-numeric:normal;font-feature-settings:normal;text-align:start;writing-mode:lr-tb;text-anchor:start;stroke-width:0.26458332px"
       d="m 12.907945,6.5407243 q 0,-0.4278808 -0.14056,-0.6490559 -0.138493,-0.2232422 -0.405143,-0.2232422 -0.279053,0 -0.425814,0.2232422 -0.146761,0.2211751 -0.146761,0.6490559 0,0.4278808 0.146761,0.6531901 0.148828,0.2232422 0.429948,0.2232422 0.262516,0 0.401009,-0.2253093 0.14056,-0.2253092 0.14056,-0.651123 z m 0.380338,1.0273274 q 0,0.5208984 -0.245979,0.7896159 -0.24598,0.2687174 -0.72347,0.2687174 -0.157097,0 -0.328662,-0.028939 Q 11.818606,8.568507 11.64704,8.512697 V 8.1364925 q 0.202572,0.095085 0.367936,0.1405598 0.165365,0.045475 0.303858,0.045475 0.307991,0 0.448551,-0.1674316 0.14056,-0.1674317 0.14056,-0.5312337 V 7.6073258 7.3489437 q -0.09095,0.1943033 -0.248047,0.289388 -0.157096,0.095085 -0.382405,0.095085 -0.405144,0 -0.646989,-0.324528 -0.241846,-0.324528 -0.241846,-0.868164 0,-0.5457031 0.241846,-0.8702311 0.241845,-0.3245279 0.646989,-0.3245279 0.223242,0 0.378271,0.088883 0.155029,0.088884 0.252181,0.2749186 V 5.410044 h 0.380338 z" />
    <path
       id="path857"
       style="font-style:normal;font-variant:normal;font-weight:normal;font-stretch:normal;font-size:4.23333311px;font-family:'DejaVu Sans Mono';-inkscape-font-specification:'DejaVu Sans Mono, Normal';font-variant-ligatures:normal;font-variant-caps:normal;font-variant-numeric:normal;font-feature-settings:normal;text-align:start;writing-mode:lr-tb;text-anchor:start;stroke-width:0.26458332px"
       d="M 15.853502,6.2823422 V 7.7168798 H 15.471096 V 6.2823422 q 0,-0.3121257 -0.109554,-0.4588867 -0.109554,-0.1467611 -0.343131,-0.1467611 -0.266651,0 -0.411345,0.1901693 -0.142627,0.1881022 -0.142627,0.5415689 v 1.3084472 h -0.380338 v -2.315104 h 0.380338 v 0.3472656 q 0.101286,-0.1984375 0.274919,-0.2997233 0.173633,-0.1033528 0.411344,-0.1033528 0.353467,0 0.5271,0.2335774 0.1757,0.2315104 0.1757,0.7027995 z" />
    <path
       id="path859"
       style="font-style:normal;font-variant:normal;font-weight:normal;font-stretch:normal;font-size:4.23333311px;font-family:'DejaVu Sans Mono';-inkscape-font-specification:'DejaVu Sans Mono, Normal';font-variant-ligatures:normal;font-variant-caps:normal;font-variant-numeric:normal;font-feature-settings:normal;text-align:start;writing-mode:lr-tb;text-anchor:start;stroke-width:0.26458332px"
       d="m 18.526206,6.4642432 v 0.1860351 h -1.647445 v 0.012402 q 0,0.3782714 0.196371,0.5849772 0.198437,0.2067057 0.558105,0.2067057 0.181901,0 0.380339,-0.057878 0.198437,-0.057878 0.423746,-0.1756999 v 0.3782715 q -0.217041,0.088883 -0.419612,0.1322916 -0.200505,0.045475 -0.388607,0.045475 -0.539502,0 -0.843359,-0.3224609 -0.303858,-0.324528 -0.303858,-0.8929687 0,-0.5539713 0.297657,-0.8847005 0.297656,-0.3307291 0.793749,-0.3307291 0.442351,0 0.696599,0.2997232 0.256315,0.2997233 0.256315,0.8185547 z M 18.145867,6.3526221 Q 18.137599,6.0177588 17.986704,5.844126 17.837876,5.6684262 17.556756,5.6684262 q -0.274919,0 -0.452686,0.181901 -0.177766,0.181901 -0.210839,0.504362 z" />
  </g>
</svg>
