<?xml version="1.0" encoding="UTF-8" standalone="no"?>
<svg
   xmlns:osb="http://www.openswatchbook.org/uri/2009/osb"
   xmlns:dc="http://purl.org/dc/elements/1.1/"
   xmlns:cc="http://creativecommons.org/ns#"
   xmlns:rdf="http://www.w3.org/1999/02/22-rdf-syntax-ns#"
   xmlns:svg="http://www.w3.org/2000/svg"
   xmlns="http://www.w3.org/2000/svg"
   id="svg12553"
   version="1.1"
   viewBox="0 0 127 100.54166"
   height="380"
   width="480">
  <defs
     id="defs12547">
    <linearGradient
       id="linearGradient4708"
       osb:paint="solid">
      <stop
         style="stop-color:#ececec;stop-opacity:1;"
         offset="0"
         id="stop4706" />
    </linearGradient>
    <filter
       style="color-interpolation-filters:sRGB"
       id="filter4696">
      <feColorMatrix
         in="SourceGraphic"
         values="0 0 0 0 1 0 0 0 0 0 0 0 0 0 0 1 0 0 0 0 0 "
         result="colormatrix"
         id="feColorMatrix4692" />
      <feBlend
         in2="BackgroundImage"
         mode="multiply"
         result="fbSourceGraphic"
         id="feBlend4694" />
      <feColorMatrix
         result="fbSourceGraphicAlpha"
         in="fbSourceGraphic"
         values="0 0 0 -1 0 0 0 0 -1 0 0 0 0 -1 0 0 0 0 1 0"
         id="feColorMatrix4762" />
      <feColorMatrix
         id="feColorMatrix4764"
         values="1 0 0 0 0 0 1 0 0 0 0 0 1 0 0 0 0 0 5 -1 "
         result="colormatrix"
         in="fbSourceGraphic" />
      <feComposite
         in2="colormatrix"
         id="feComposite4766"
         operator="arithmetic"
         k2="0.3"
         result="composite"
         k1="0"
         k3="0"
         k4="0" />
    </filter>
  </defs>
  <metadata
     id="metadata12550">
    <rdf:RDF>
      <cc:Work
         rdf:about="">
        <dc:format>image/svg+xml</dc:format>
        <dc:type
           rdf:resource="http://purl.org/dc/dcmitype/StillImage" />
        <dc:title></dc:title>
      </cc:Work>
    </rdf:RDF>
  </metadata>
  <g
     transform="matrix(1.0651092,0,0,1.0012215,-28.34984,-161.56553)"
     id="layer1">
    <path
       style="fill:#e6e6e6;fill-opacity:1;fill-rule:nonzero;stroke:none;stroke-width:0.32258889"
       d="M 26.616839,161.37987 H 145.85344 v 100.3961 H 26.616839 Z m 0,0"
       id="path33453" />
  </g>
  <path
     style="opacity:0.05;fill:#000000;stroke-width:0.2375841"
     d="m 25.104423,108.51228 c -0.335555,-3.15668 2.911313,-7.64841 1.295865,-1.9393 -0.07372,0.36831 0.03045,3.18213 -1.295865,1.9393 z m 74.532704,-1.61241 c -0.642316,-3.206 -1.736794,-11.030103 -4.226137,-4.69996 -6.894824,1.98518 -14.157551,-0.45487 -21.199282,-0.51406 -7.430729,-0.66667 -14.960409,-1.16667 -22.113643,-3.160292 -2.155712,-4.241823 -14.166052,1.969362 -14.362163,-2.674229 -3.10855,-2.006684 -9.94883,0.405119 -10.854527,4.887361 1.027884,-8.1444 -12.039031,-6.396695 -15.441464,-11.822835 -2.0291346,-3.954523 1.485417,-1.085109 2.000693,-0.972638 2.35594,-4.532202 -11.9689219,-4.452542 -3.7569697,-6.479593 1.5040687,-1.855782 6.9430027,-1.21756 1.6239557,-3.355316 -5.548908,-0.67171 -6.0848138,7.330408 -12.5455237,3.061564 -6.9494598,0.414311 -3.1926967,-4.186819 -2.4291432,-7.749596 -3.4639724,-0.99108 2.5575699,-6.832284 3.90901249,-9.751779 C 1.7642677,58.024671 13.080322,63.544429 13.290512,58.268676 11.210702,50.701866 1.1396177,51.807369 -5.4633044,53.590873 -10.906398,52.595875 -7.9855208,46.484296 -8.6349781,42.899134 c -0.6089324,-5.1091 8.09981121,-7.485033 12.8684782,-7.27339 3.5273888,1.157611 1.6427241,9.637099 3.4121651,9.108418 C 7.1728743,40.259473 6.876891,28.835548 7.8726571,28.903925 7.8456173,31.166119 7.3357746,38.624339 8.2020831,37.696891 9.383836,25.544916 9.9217049,13.337555 11.467442,1.2235849 c 1.168897,-4.1038774 6.250659,-4.1387317 11.856494,-3.7815359 -2.977151,-0.1592985 -9.256834,0.8594226 -2.652049,0.5777755 7.712333,-0.1419887 -6.821485,0.739725 0.334227,1.06727173 7.570368,0.34447226 -6.863968,1.22968998 0.669471,0.46796811 6.31512,1.45025956 1.79145,8.74811676 -2.686443,4.16520456 -5.565234,-2.5945062 -4.971768,2.6013528 0.159075,2.4524861 10.889942,0.047517 3.103279,12.821864 4.769801,18.618769 -0.663966,5.894592 3.506315,15.671205 -5.383832,17.614937 -1.774195,3.731426 6.621496,7.989252 6.14405,5.100264 -1.391912,-1.190968 -7.572334,-3.857616 -3.13843,-5.033865 3.325988,3.883386 6.299828,10.032226 13.054823,6.082073 -5.966096,-2.981252 8.029835,-9.332686 6.023151,-11.108537 -4.642886,2.778541 -11.079318,-6.817285 -6.796501,-5.096866 -5.471783,-3.493739 -4.393008,-10.963566 0.09679,-14.715652 4.939899,-1.97939 13.210586,-4.198167 12.629203,3.506779 -0.09091,6.335022 -2.869798,17.302205 7.278056,18.683227 8.24568,0.616729 2.315436,-9.164664 4.03113,-13.278887 -0.72883,-3.864121 -1.848036,-11.532918 4.600538,-7.899318 C 65.098972,15.466034 51.553687,11.302274 61.009398,10.11139 70.2706,6.3627146 52.20811,6.4870323 55.730807,-0.36264076 c 0.780819,-6.46140114 8.239798,0.64611056 9.787657,-2.47394054 2.386915,3.8952178 3.553741,-1.8990188 3.043605,0.02186 3.813539,-1.1929645 11.693708,-4.8879539 15.230346,-1.8810012 -4.062638,2.4094595 6.900906,7.6063477 6.74149,2.9520156 2.539299,-1.5271073 13.994185,0.95458669 5.77325,1.41345823 2.531111,1.36153697 2.483524,4.78677727 4.859505,4.34503807 0.36215,9.1317326 -0.36167,18.2855316 0.51304,27.4034216 5.13568,-0.495237 -2.80595,8.781819 4.15182,4.468444 8.23384,-4.18209 9.95318,-13.551588 9.42779,-21.10787 0.34174,-5.8736768 -6.43601,-10.9325607 -6.45928,-15.795332 4.72407,-0.1191633 16.74102,-5.9231712 15.06278,2.2315303 1.13178,14.4643947 4.1276,29.4626917 -1.28044,43.5759217 6.50346,-0.958803 21.7163,-3.518472 21.26488,4.830317 -1.52866,3.35237 1.84854,12.151219 0.23066,11.88374 -1.4081,-7.057362 -11.39063,-2.115444 -8.73705,2.303911 5.76891,2.415589 11.22809,5.783639 9.38355,11.806062 0,2.261108 0,4.522213 0,6.78332 -3.04519,-0.08797 3.32788,6.492568 -2.89982,5.791938 -4.2449,0.228347 -12.16578,2.887309 -10.32419,6.233832 -2.40873,-4.477764 -1.04376,-1.295728 -0.49059,1.68917 -0.256,-1.866435 -3.52095,0.807902 -4.25508,-1.211652 -1.36677,5.787937 -14.47716,5.065858 -20.63733,7.810017 -5.38705,-3.394326 -4.29466,9.37932 -6.480272,4.18831 z m -14.338921,-6.3936 c 10.154921,-1.529187 20.446254,-7.073096 23.457844,-16.014969 2.37692,-2.20762 3.14318,-12.760064 -1.65675,-9.439672 0.0708,4.463888 -4.296,6.237524 -2.60463,11.254533 -1.3783,6.678047 -12.549574,8.640102 -14.809857,1.219081 6.184071,4.360445 1.159742,11.960767 -6.132341,10.006234 -9.800411,0.75283 -5.196823,-10.651101 -5.743129,-15.580835 -1.242172,3.043525 0.53477,14.988175 -5.44581,11.63121 3.955472,-3.128735 -0.428581,-3.655773 -0.70292,0.424959 C 66.433033,99.614539 61.504265,89.475112 60.53768,88.73884 52.774647,87.503634 54.016272,79.930492 54.319101,75.459635 49.208134,74.90152 53.59708,66.268561 54.300986,64.14675 c 2.145539,-3.726066 -8.363714,-3.749096 -10.536157,-6.859181 -6.610161,-1.376167 -15.024803,8.780712 -6.086953,11.345335 4.243092,3.401896 9.896675,1.405019 10.278721,-2.804338 -1.497084,5.539136 -1.011097,11.211674 1.00984,16.660783 3.47018,9.619477 13.824572,16.985385 25.551666,17.592701 3.569742,0.41414 7.181666,0.55113 10.780105,0.42422 z M 71.318619,96.389794 c -1.495916,-3.348269 2.544695,-0.57928 0,0 z M 44.152897,69.377829 c 0.792789,-1.155006 2.552245,0.509232 0,0 z m 8.211311,-1.879028 c -0.06844,-1.775771 0.858134,1.081284 0,0 z m -8.089936,-0.559167 c 0.587154,-0.933049 0.587158,0.933048 0,0 z m 0.766801,-0.220838 c 0.517406,-0.91732 0.365882,0.862411 0,0 z m 0.255608,-0.759897 c 0.328208,-1.342766 0.637321,0.821255 0,0 z m -7.1517,-0.901721 c 0.717733,-0.145277 0.36121,-0.07312 0,0 z m -0.516325,-0.416227 c 0.329233,-1.04767 1.120732,0.159789 0,0 z m 2.428206,-0.351365 c 2.612683,-1.10095 -0.674511,0.895633 0,0 z m -3.706213,-0.528467 c 0.469259,-0.886524 0.835771,0.451026 0,0 z m 3.450606,-0.134046 c 0.504838,-0.857431 0.757805,1.060943 0,0 z m -3.498532,-0.592531 c 1.210713,-0.723667 0.205444,0.583992 0,0 z m 4.520942,-2.499192 c 0.962679,-1.13497 0.736708,0.958288 0,0 z m -1.150209,-1.235323 c 1.687412,-2.812913 2.007312,2.739592 0,0 z m 56.917986,40.282136 c -0.694118,0.162391 0.867833,1.071237 0,0 z m -43.58396,-3.101692 c -1.260584,0.478703 1.094035,1.626755 0,0 z m 1.672369,0.493042 c 4.430316,-2.456941 -2.451057,-1.38279 0,0 z m 3.269064,-1.104181 c -0.757805,-1.060962 -0.504838,0.857431 0,0 z M 124.19633,95.60709 c -0.69412,0.162392 0.86783,1.071237 0,0 z M 80.19465,94.77697 c 0.894423,-2.760466 -2.9115,1.209632 0,0 z m 38.79613,0.293842 c -1.10548,-0.932533 0.58421,2.069959 0,0 z m 9.70292,-1.299434 c -1.18038,-4.64952 -1.43802,0.428056 -0.0206,0.715438 l 0.0104,-0.358069 z m -8.25038,0.552087 c -0.53542,-1.621996 -0.21953,1.542654 0,0 z m 5.49542,0.220843 c -0.75781,-1.060962 -0.50485,0.85743 0,0 z m -79.61966,-0.78252 c 2.696157,1.030907 11.090296,-2.44493 3.755542,-1.712565 -2.122447,1.054852 -9.020069,0.465348 -3.971246,-1.463829 -1.606814,-2.618716 -0.33836,-9.132002 0.289676,-2.845051 2.03173,5.707671 7.654502,0.103332 2.373848,-2.766049 -4.419896,-3.315724 -12.281617,-3.499652 -16.93214,-4.179347 -4.606429,1.947997 -15.528312,8.978614 -4.920487,10.199765 -2.421327,1.060136 -10.778195,-0.228297 -2.804744,1.851036 7.27109,1.495429 14.808573,1.088339 22.209551,0.91604 z M 34.944844,93.642874 c -1.073834,-1.430492 3.987618,0.616506 0,0 z m 6.390015,-1.086103 c 1.585153,-1.281305 0.73061,1.030573 0,0 z M 28.363122,92.189679 c 1.037406,-0.71457 0.543052,0.524176 0,0 z m 16.933559,-1.178774 c 0.58716,-0.93306 0.587138,0.933059 0,0 z M 27.94547,90.311592 c -2.0192,-1.262867 0.866072,-0.469914 0,0 z m -0.366191,-1.210926 c -1.256352,-1.087763 0.784775,-4.137206 0.382533,-1.257517 z m 4.446333,-8.156261 c 0.28532,-0.8032 0.12807,1.127606 0,0 z m 22.728296,12.937391 c -0.517387,-0.917335 -0.365903,0.862405 0,0 z m 74.711682,-0.434442 c -1.18671,-3.627219 -0.59948,1.128805 0,0 z m -3.81783,-0.559331 c -1.23435,-1.518974 0.01,1.226235 0,0 z m 0.84898,-0.372659 c -0.69412,0.162408 0.86784,1.071238 0,0 z m -4.90322,0.0414 c -0.69793,-1.066479 -0.46485,0.944294 0,0 z M 82.276033,92.147383 c 0.49506,-5.037271 -3.473319,-1.033152 0,0 z M 69.679212,91.765772 c 1.692969,-1.98146 -0.781578,-1.342319 -0.495892,0.09847 z m 2.069067,-0.368403 c 0.605637,-3.104948 0.641532,-9.160721 -0.157752,-2.582583 0.292818,0.209016 -1.096346,3.018093 0.157752,2.582583 z m 8.464532,-0.10581 c -1.391611,0.04816 1.018383,1.056139 0,0 z m 5.979997,0.147994 c -0.886092,-0.77762 -0.163404,1.331793 0,0 z M 63.358016,90.9557 c -0.606725,0.469205 0.827097,0.896301 0,0 z m 1.108726,0.276048 c -0.589473,-1.619585 -0.589473,1.619584 0,0 z m 23.770875,-0.11122 c -0.507613,-2.658144 -1.507307,-0.384243 0,0 z m 21.702133,-0.423473 c 12.25571,-2.119713 18.94682,-13.005225 20.35741,-22.929652 2.36341,-15.494004 -13.7546,-30.952727 -31.97198,-29.812328 -9.533135,0.402488 -19.312991,4.584626 -23.235758,12.46302 -3.523901,5.998202 -3.522639,12.600343 -2.04683,19.090897 1.056042,3.706616 -5.143849,2.160095 0.916152,3.830791 3.10861,2.033687 5.618033,1.371739 8.799858,1.606719 4.970872,-3.593667 -9.741797,-2.800158 -2.001265,-4.985134 4.255955,-0.889588 7.303316,-2.514824 1.458685,-0.29594 -8.871875,2.624359 -11.171074,-9.083977 -5.497148,-12.982516 0.03284,-4.720054 3.745838,-13.659526 10.407815,-9.660301 -1.857558,-10.123766 18.507871,-5.442492 12.044388,3.129507 -1.911783,5.145759 4.593803,8.245772 -1.333656,12.232898 7.057409,-2.939194 2.991109,3.033844 0.436142,3.44815 2.704577,4.075791 11.329367,0.07854 8.724947,-2.702655 2.23119,-1.342855 12.07499,-5.410902 3.85939,-4.589349 -0.89187,2.243735 -8.4032,6.038884 -4.48114,1.0354 5.12129,-4.370609 -6.408841,3.68977 -5.31923,-3.03248 0.61761,-5.09769 -5.785756,-16.829645 5.09987,-15.446003 6.31628,3.402579 15.03063,5.401167 16.79741,12.733354 0.96662,4.434074 7.78839,8.931325 3.89147,14.889466 -5.32824,2.31364 0.20742,7.706449 -4.95391,11.562776 -2.61789,4.993492 -11.77284,6.985377 -13.86901,10.501921 l 0.76633,0.01177 z M 100.50646,66.49796 c 0.69272,-0.884691 0.66894,1.083592 0,0 z m 3.195,-0.88335 c 0.50484,-0.857429 0.75781,1.060943 0,0 z m 27.46896,25.451507 c -0.20411,-2.011708 -1.51922,0.217437 0,0 z M 47.547723,90.452975 c -0.756027,0.275864 -0.113799,0.913111 0,0 z m 41.292729,-0.45252 c -1.97066,-1.47876 1.932982,2.924836 0,0 z m 6.298387,0.789615 c -0.668962,-1.083599 -0.692736,0.884699 0,0 z m 34.506111,-0.09738 c -0.36091,-0.907143 -0.78565,0.552312 0,0 z M 86.174839,89.188998 c -1.5294,-1.87555 0.286481,3.057539 0,0 z m 14.562781,0.853575 c -0.59989,-1.805614 -2.023619,1.325666 0,0 z M 78.524783,89.585854 c 2.855193,-2.312712 3.033678,-7.772279 -0.12426,-3.020129 -0.623787,0.89615 -0.733669,2.199165 0.12426,3.020129 z m -14.035097,-0.61769 c 3.428941,-3.252157 -5.77547,1.24841 0,0 z m 2.533061,0.276046 c -0.587163,-0.933059 -0.587163,0.93306 0,0 z m 20.575866,-0.220833 c -0.365854,-0.862431 -0.517427,0.917308 0,0 z m -73.229638,-0.09739 c -0.360909,-0.907159 -0.785646,0.552345 0,0 z m 52.470859,-0.764825 c 1.21915,-2.197512 -2.568857,2.451283 0,0 z m 7.850937,-0.696683 c -0.676488,-1.129455 -0.31902,1.716455 0,0 z M 18.866848,85.907921 c -1.945873,-0.719628 -0.168128,2.910471 0,0 z m 64.258751,1.376356 c 1.312447,-1.369571 -2.509654,-3.293623 0,0 z m 44.750321,-0.779532 c -1.7276,-3.268966 3.78251,-0.209584 4.12866,-1.859892 5.34367,0.358621 -2.37769,-4.904891 -4.55714,-1.604143 -2.96745,-1.164844 -2.26073,4.758603 -1.74967,0.493585 1.06928,0.445158 1.20533,3.308363 2.17815,2.97045 z m 2.08792,-1.535033 c -1.97079,-3.549762 1.41577,0.969075 0,0 z m 2.25729,-1.15442 c 0.28532,-0.803202 0.12807,1.12761 0,0 z m 1.00222,0.115784 c 0.78565,-0.552312 0.36091,0.907144 0,0 z M 85.426005,86.36029 c -0.669515,-2.728448 0.01954,3.265929 0,0 z m 2.137242,0.565124 c -0.866727,-1.319565 -0.45225,1.21318 0,0 z M 63.827739,86.814996 c -0.365904,-0.862404 -0.517386,0.917335 0,0 z m 20.320259,-0.360063 c -0.419613,-4.282805 -1.175298,1.768362 0,0 z m -2.3814,-0.123012 c -0.694125,0.162382 0.867815,1.071261 0,0 z M 66.973382,85.81539 c -0.756057,0.275881 -0.113746,0.913086 0,0 z m 24.842641,0.126651 c -0.942502,-3.44694 -3.822659,-4.072269 -0.850652,-0.409334 z m 3.06721,0.210444 c -0.517424,-0.917309 -0.365841,0.862414 0,0 z M 65.190062,85.157962 c -1.418707,0.964658 -0.978842,1.669329 0,0 z m 16.576536,0.290603 c -0.694123,0.162408 0.867817,1.071237 0,0 z m 2.811601,0 c -0.694116,0.162425 0.867847,1.071221 0,0 z m 29.195481,-0.094 c -1.41631,-0.674806 0.65622,1.328972 0,0 z m 21.49449,0.356259 c -0.58716,-0.933068 -0.58718,0.933075 0,0 z M 62.621296,85.044039 c -0.288667,-1.591432 -1.666079,2.704844 0,0 z m 62.159104,0.256682 c -0.37239,-1.933617 -1.41515,0.88606 0,0 z m -64.571022,-0.29799 c 0.137302,-1.631003 -1.500674,1.742121 0,0 z m -41.239588,0.04556 c -0.668957,-1.08359 -0.692729,0.884699 0,0 z m 52.387808,-1.656272 c -1.656134,0.876954 -0.251761,2.586188 0,0 z m 64.677372,1.325024 c 0.81408,-1.878129 7.12058,-1.045914 1.23318,-2.64439 -2.87768,-1.139961 -4.85169,2.44514 -1.23318,2.64439 z M 68.300755,84.82746 c -0.365879,-0.862413 -0.517408,0.91731 0,0 z m 8.080836,-0.097 c 0.802149,-3.804185 -1.644371,1.396963 0,0 z M 66.087774,84.507455 c -0.574186,-0.838042 -0.608187,1.391295 0,0 z m 8.3474,0.09918 c -0.587146,-0.933051 -0.587168,0.93306 0,0 z m 13.802443,-0.220843 c -0.53542,-1.621996 -0.219529,1.542654 0,0 z m 0.931573,-0.288851 c -0.01859,-2.816782 -5.760624,-6.826969 -1.852461,-1.878137 0.367732,0.171497 2.493782,4.026488 1.852461,1.878137 z m -14.734016,-0.02936 c -0.360923,-0.907143 -0.785637,0.552345 0,0 z M 12.340365,82.398246 c 0.206089,-1.438218 -1.623203,1.166164 0,0 z m 66.870102,0.91352 c 1.726218,-3.198501 -1.802216,-2.243916 0,0 z m 8.291541,-0.179235 c -1.120857,-0.674481 1.038619,1.769857 0,0 z m -5.39881,-0.05876 c -0.163422,-1.331785 -0.886078,0.777637 0,0 z m 59.810592,-0.233864 c -0.87953,-1.622762 -0.72281,1.584812 0,0 z M 65.105736,82.619065 c -0.365884,-0.862406 -0.517382,0.917334 0,0 z M 2.3557388,81.514901 c -0.7503284,-2.724796 -0.5549322,2.552392 0,0 z m 64.1287732,0.242651 c 2.973417,-3.113727 -2.959569,2.04709 0,0 z m 10.171659,-0.849954 c -0.60584,0.574416 0.870365,1.368087 0,0 z m 6.748993,-0.343671 c -1.364098,0.103282 1.756382,1.861062 0,0 z m 10.91829,0.231075 c -0.921451,-3.065486 -1.422356,1.628234 0,0 z m -24.489095,0.167806 c -0.284644,-1.186558 -0.523584,1.259576 0,0 z m -24.598607,-0.04132 c -0.938763,0.05811 -1.846416,0.114287 0,0 z m 16.15637,-0.06048 c 0.802392,-1.569352 -2.00758,1.204839 0,0 z M 85.295386,79.96137 c -1.546552,-1.203758 0.771856,3.155107 0,0 z m -3.929342,0.35733 c 2.616785,-1.357823 -3.015898,-1.362239 0,0 z m -3.177861,-0.170228 c -0.694119,0.162416 0.867844,1.071234 0,0 z m 0.766801,0 c -0.694117,0.162416 0.867846,1.071234 0,0 z m -21.900669,-0.17943 c 0.775297,-2.105869 -2.247334,1.389906 0,0 z m 13.546847,0.220837 c -0.587155,-0.933048 -0.587158,0.933048 0,0 z m 32.589098,-0.220837 c -2.22053,-2.687849 -4.611776,-2.678906 -0.74402,0.08396 l 0.46521,0.186449 z M 4.8586535,78.4545 c -2.8950018,-0.984397 0.023262,3.249542 0,0 z m 91.8403185,0.786615 c -2.620905,-1.01272 1.126404,1.403829 0,0 z m 16.094938,-1.111023 c -1.16428,1.011174 1.47985,2.080549 0,0 z m -65.967546,1.231644 c -1.284641,-1.564418 -2.311078,1.381684 0,0 z m 30.339418,-0.317453 c -0.694123,0.162399 0.867818,1.071247 0,0 z m -17.555462,0.0414 c -0.517399,-0.917322 -0.365866,0.862408 0,0 z M 78.182859,78.5888 c -0.606689,0.469192 0.827059,0.896307 0,0 z m 6.731942,0.512657 c -0.299238,-2.968563 -1.939196,-0.0061 0,0 z M 35.546006,78.954504 c 8.835792,-0.694924 -3.605373,-2.43731 -4.423214,-0.10827 1.436385,0.359098 2.959671,0.206209 4.423214,0.10827 z m 27.573502,-0.0023 c -0.752392,-0.459164 -0.459876,0.511574 0,0 z m 12.84927,-0.334323 c -1.024207,-0.466206 -0.08067,1.138386 0,0 z m -11.757644,0.02607 c -0.365868,-0.862407 -0.517396,0.917326 0,0 z m -1.030426,-0.938557 c -1.571346,-0.516713 -0.958662,2.062209 0,0 z m 33.491737,0.819607 c -1.289045,-2.650996 -3.947744,-1.834403 0,0 z m -37.38695,-0.235308 c -0.752391,-0.459164 -0.459875,0.511575 0,0 z M 76.39898,77.940075 c -0.694124,0.162398 0.867817,1.071246 0,0 z m 6.288437,0.03796 c -0.75428,-2.524749 -0.721383,1.955259 0,0 z m 20.247243,0.22428 c -0.75781,-1.060947 -0.50483,0.857432 0,0 z M 5.67855,77.539829 c -0.8795376,-1.622755 -0.722793,1.584824 0,0 z m 8.761836,-0.0087 c -0.856018,-1.207847 0.361149,1.54987 0,0 z m 2.337021,-1.647514 c 3.216509,-1.993942 3.389847,-8.489498 0.48108,-2.469189 -0.617728,0.813326 -2.459144,5.903578 -0.48108,2.469149 z m 29.728045,1.964492 c -0.75238,-0.459149 -0.459874,0.511569 0,0 z M 8.238026,77.486705 c 2.204504,-1.145749 3.081037,-5.630672 4.723054,-1.122339 4.915897,-1.673068 -5.9785543,-5.248234 -4.7547936,-0.114762 -0.4471171,0.275284 -1.6094205,2.002974 0.031744,1.237101 z m 7.36931,-1.934413 c -1.69802,1.048054 0.0093,2.499425 0,0 z m 21.365662,1.376972 c 2.387963,-0.983655 -7.972581,-0.805929 -10.253709,-1.13811 -4.620886,-0.882617 -4.3111,0.704914 0.265877,0.753578 3.296153,0.417877 6.664766,0.8723 9.987832,0.384532 z m 19.570112,0.260905 c -0.866671,-0.980175 -0.500528,1.34767 0,0 z m 14.477965,0.01839 c 0.500676,-1.371136 -1.750279,1.586248 0,0 z m -13.838961,-0.11041 c -0.365877,-0.862397 -0.517387,0.91732 0,0 z M -1.7338739,76.766898 c -0.2846352,-1.18656 -0.5235761,1.259575 0,0 z m 3.5190933,-0.110419 c -0.90232961,-4.152787 -3.4490624,2.723918 0,0 z m 1.8485237,0.220837 c -0.3658751,-0.862409 -0.517401,0.917321 0,0 z M 11.81297,76.656479 c -2.2082225,-2.13112 -2.5773328,2.150492 0,0 z m 90.74293,0.0075 c -3.159231,-2.746541 -3.683288,1.405438 0,0 z M 6.189751,76.435641 c 0.3662403,-1.67131 -1.5917969,1.748564 0,0 z m 125.116599,0.08689 c -2.55497,-1.481796 -1.62981,0.725591 0,0 z m -37.445518,-0.0074 c 7.432868,-3.994444 -6.305741,-0.791093 0,0 z m -36.806517,-0.96286 c 1.798604,-1.866834 -4.57135,2.263355 0,0 z m 62.750005,-0.117264 c -3.12285,-1.835186 1.9929,1.737489 0,0 z M -0.96707142,75.552292 c -0.58715488,-0.933058 -0.58715968,0.933056 0,0 z M 5.0608478,75.331454 c 7.1274042,-0.50009 -4.70791686,-3.828442 -0.9686751,0.445257 0.3537917,-0.028 0.6405666,-0.329193 0.9686751,-0.445257 z M 112.5514,74.830889 c -0.94721,-0.248046 1.32431,1.211423 0,0 z m -6.16613,0.187372 c -0.30333,-2.186275 -2.43667,0.864304 0,0 z M 16.077184,74.406698 c -0.694117,0.162403 0.867812,1.071242 0,0 z m 40.210328,0.262244 c -0.692734,-0.884696 -0.668942,1.083591 0,0 z m 8.477169,-0.497153 c 3.746205,-2.266972 -3.826919,0.959107 0,0 z m 31.525478,0.274757 c 5.316951,-5.039076 -14.044165,-0.619903 -2.930156,-1.232493 2.941606,-1.61245 1.628906,1.916919 2.930156,1.232493 z m 5.494291,-0.219278 c -1.944144,-2.472063 -1.76113,2.166152 0,0 z m 21.50219,-0.05889 c -0.94721,-0.248045 1.3243,1.211422 0,0 z m -124.18981121,0.12388 c -2.22787419,-0.794716 -0.87046249,0.517633 0,0 z m 70.03462121,0.0096 c -1.0374,-0.714584 -0.543053,0.524184 0,0 z M 2.3301105,73.922705 c -0.1150518,-1.420213 -1.41426304,0.929019 0,0 z m 60.2196205,0.08373 c 1.002529,-0.877593 -2.99683,1.296324 0,0 z m -27.05509,-0.957441 c -5.084691,-4.428269 -3.212065,4.059801 0,0 z m 82.903869,0.736599 c -0.5174,-0.917322 -0.36588,0.862409 0,0 z M 16.541584,73.564755 c -0.697932,-1.066495 -0.464848,0.944302 0,0 z m 39.421944,-0.05521 c 3.162946,-4.243611 -4.522155,0.319521 0,0 z m 5.180396,-0.386464 c -0.06684,-4.145935 -2.416508,1.903101 0,0 z m 26.454689,0.441674 c -0.367741,-0.943523 -0.700642,0.85309 0,0 z m 25.290007,-0.816981 c -2.30522,-1.204286 0.7836,1.468581 0,0 z M 99.461248,72.644601 c -1.861332,-2.141841 -0.250578,1.544217 0,0 z m 0.558972,-0.784395 c -1.229397,-0.520078 1.61611,2.901514 0,0 z m 9.85552,-0.165348 c -1.34891,-1.112188 1.09756,1.737437 0,0 z m -71.805116,0.190614 c -0.752378,-0.459148 -0.459874,0.51157 0,0 z m 30.357928,-0.08741 c -0.988186,-1.014203 -1.599675,1.082311 0,0 z m 26.710287,-0.202435 c 4.016052,-3.553318 -2.123735,-1.204469 -0.254911,0.406745 z m -90.9938939,0.10505 c -0.3609125,-0.907153 -0.7856442,0.552338 0,0 z M 36.412959,71.65134 c -2.318795,-2.552937 -4.270371,1.219993 0,0 z m 45.130529,-0.431508 c -2.343137,-1.331869 0.739644,1.319968 0,0 z m 5.08041,-0.764141 c 5.650801,-1.007933 -0.333188,-1.545651 -0.824366,0.765192 0.109498,0.09472 1.846084,-0.922932 0.824366,-0.765192 z m 35.864222,0.679853 c -0.4789,-2.511559 -3.06301,0.698054 0,0 z M 94.267694,70.309267 c -1.843405,-0.176447 -0.328018,1.639445 0,0 z m -34.446233,0.08715 c -3.289586,-2.079685 -4.276914,1.8652 0,0 z m 22.997415,0.253281 c -0.04209,-2.065624 -1.995645,1.514348 0,0 z M 18.121994,70.210787 c -0.694122,0.162398 0.867817,1.071246 0,0 z m 44.811143,0.262244 c -0.517403,-0.917322 -0.365884,0.862409 0,0 z m 55.720973,-0.08477 c -2.88659,-3.360635 -4.27736,0.459244 0,0 z M 5.67855,70.252195 c -0.5173962,-0.917323 -0.3658799,0.862408 0,0 z m 7.513051,-0.128873 c -0.171707,-1.157437 -1.021882,1.691098 0,0 z M 114.3089,70.252195 c -1.71645,-2.451933 -1.65601,0.06711 0,0 z m 6.53052,-0.441675 c 0.44415,-1.708511 -2.20431,1.613427 0,0 z M -0.2204479,69.203217 c -1.1666497,-2.494802 0.0352033,4.080713 0,0 z m 40.9163139,0.828139 c -0.938185,-1.482621 -0.482249,0.956912 0,0 z M 13.77678,69.327438 c -0.694109,0.162409 0.867797,1.071231 0,0 z m 45.178673,-0.201613 c -2.842052,-1.770927 -4.074839,1.230262 0,0 z m 2.699676,0.377067 c -0.728988,-0.922723 -0.975916,0.609798 0,0 z M 53.6037,69.148007 c -0.632209,-1.018749 -0.907804,0.98028 0,0 z M -0.79779153,68.430286 c -0.60669987,0.469195 0.82707058,0.896306 0,0 z M 25.487616,68.927171 c -2.61571,-1.814019 -6.022735,-0.549247 -0.989969,-0.04267 z m 69.395617,-0.271505 c -0.997153,-0.275271 -0.351029,1.118365 0,0 z M 108.3289,68.545305 c -1.39149,0.04801 1.01832,1.056232 0,0 z m 9.91154,0.259977 c -3.81585,-2.314863 -3.21867,0.342512 0,0 z m -55.749745,-0.02297 c -1.224126,-0.430111 -0.573238,0.460558 0,0 z M 60.18056,68.375074 c -2.057368,-1.73668 -2.359472,1.439374 0,0 z M 82.170638,67.71392 c 4.515978,-2.765244 -4.253924,1.579193 0,0 z m -26.905525,0.453351 c -0.524707,-0.954885 -1.039464,0.877174 0,0 z m 38.069299,-0.476868 c -1.626286,-1.865631 -2.469613,1.965974 0,0 z m 1.223996,0.440829 c -0.75239,-0.459162 -0.459878,0.511571 0,0 z m 18.216892,-0.09287 c -2.886,-1.667044 -4.71718,-0.0064 0,0 z m -54.885418,-0.13939 c -1.224126,-0.430109 -0.57324,0.460558 0,0 z M 66.4433,61.951288 c -0.45254,-2.812454 5.839751,-10.964311 3.032797,-10.245406 -1.506734,5.257933 -6.876887,10.764943 -9.597014,13.913106 2.650288,2.411985 4.982247,-0.989367 6.148238,1.168736 0.182811,-1.603598 -0.371066,-3.307197 0.415979,-4.836436 z m -4.021368,3.88416 c -0.570964,-1.01237 1.661057,1.168591 0,0 z m 1.192802,-1.030574 c -1.058498,-1.036571 1.000471,-0.01137 0,0 z m 1.659163,-3.165335 c 0.219584,-1.014576 0.219584,1.014576 0,0 z m 43.049993,5.082332 c -4.57683,-0.87087 2.89748,1.355536 0,0 z m 4.707,0.124657 c -2.86502,-1.544195 -0.52562,0.964297 0,0 z M 59.541093,66.585375 c -0.752379,-0.459149 -0.459873,0.51157 0,0 z m 5.611449,-0.349659 c -0.69412,0.162418 0.867845,1.071233 0,0 z m 16.678617,0.275693 c -0.100703,-2.298986 -2.86009,1.311459 0,0 z m 28.318891,-0.588547 c -0.75237,-0.459148 -0.45987,0.51157 0,0 z M 90.998909,65.533865 c -2.927535,-0.784653 -1.058795,1.098621 0,0 z m 1.967322,-0.140095 c -0.482592,-1.014121 -1.123467,1.27817 0,0 z m -5.751024,-0.441675 c 0.667216,-1.017334 -2.275586,1.386311 0,0 z m -5.948039,-0.133424 c -0.752388,-0.459156 -0.459881,0.511572 0,0 z m 1.475025,-0.308251 c -0.665994,-1.086497 -1.523818,1.691587 0,0 z m 13.012822,0.0319 c -1.136384,-0.586712 -1.428013,0.843364 0,0 z m -7.382836,-0.430927 c -1.056823,0.0983 -0.31932,0.653199 0,0 z m 3.124341,0.246795 c -1.583429,-0.751996 -0.664841,0.52345 0,0 z M 82.933895,63.70165 c -1.0374,-0.714585 -0.543054,0.524184 0,0 z m 7.092926,-0.387762 c 4.446614,-1.363192 -10.904105,0.633207 -2.675189,0.103222 0.889399,-0.07542 1.783169,-0.07417 2.675189,-0.103222 z M 58.263094,62.831133 c -0.752404,-0.459154 -0.459864,0.511589 0,0 z m 24.862505,-0.08742 c -0.777486,-1.02272 -1.696965,0.947988 0,0 z M 59.387182,62.302049 c 6.435149,-2.525415 -4.999704,-1.844724 2.81e-4,-2e-6 z m 52.940808,0.295419 c -1.03739,-0.714578 -0.54305,0.52418 0,0 z M 20.419416,61.525241 c 4.978671,-3.745563 -8.233878,-6.638972 -2.886532,-1.806002 0.251931,1.096702 1.542735,4.229077 2.886532,1.806002 z m 0.339586,-2.535753 c 0.587147,-0.933052 0.587152,0.933052 0,0 z m 104.982708,3.399975 c -0.75239,-0.459159 -0.45988,0.511574 0,0 z M 89.104155,61.82115 c -2.719418,-0.856885 -13.705217,-2.163705 -5.576472,-0.268779 1.815197,0.357843 3.732865,0.707481 5.576472,0.268779 z m 3.967734,-0.179109 c -2.384016,-1.666392 -10.867856,-1.438325 -3.348813,-0.461853 1.12368,-0.190719 2.331371,1.139451 3.348813,0.461853 z M 4.1449451,61.418699 c -0.5871585,-0.933055 -0.5871547,0.933055 0,0 z M 123.25492,61.100477 c -0.3609,-0.907149 -0.78564,0.552334 0,0 z m -15.33605,-0.615793 c -0.99715,-0.275272 -0.35102,1.118366 0,0 z m 6.64563,-0.299274 c 0.69652,-1.365546 -3.74258,1.915843 0,0 z M 77.246775,60.09367 c -0.587151,-0.933051 -0.587146,0.933054 0,0 z m 29.777495,0 c -0.48259,-1.014124 -1.12347,1.278176 0,0 z m 15.65551,-0.349688 c -1.37334,-0.319842 0.24507,1.365805 0,0 z m -85.690128,-0.09198 c -0.365882,-0.862412 -0.517404,0.917321 0,0 z m 55.593174,0.134046 c -0.728986,-0.922731 -0.975927,0.609806 0,0 z m 27.349284,-0.380629 c 2.79449,-1.215446 -3.54576,1.09701 0,0 z m 4.276,0.333997 c -0.75239,-0.45916 -0.45989,0.511574 0,0 z M 83.663437,59.19011 c -4.545929,-1.574986 2.51832,1.50793 0,0 z m 7.895017,0.296262 c -1.266563,-1.643467 -2.832218,-0.537557 0,0 z m 4.01419,-0.542882 c -1.929723,-4.132113 -4.321418,-1.294464 0,0 z m -6.440425,0.266835 c -1.657166,-1.408758 -0.08024,0.910561 0,0 z M 119.13289,58.57695 c -1.29754,0.167956 -1.44322,1.775444 0,0 z m -38.324451,0.02608 c -2.784868,-3.241664 -0.748707,2.552235 0,0 z m 29.503781,-0.620081 c 1.17812,-4.069931 -0.79198,-1.964343 -1.39976,0.688735 l 0.28215,0.02962 z m -23.352609,0.467486 c -0.360916,-0.907164 -0.785655,0.552344 0,0 z M 105.3158,57.689608 c 1.32292,-4.977501 -2.10894,2.850027 0,0 z m -41.716069,0.03006 c -0.568934,-3.592577 -5.048521,1.292624 0,0 z m 58.563569,0.253043 c -0.7524,-0.459164 -0.45988,0.511575 0,0 z M 87.984348,57.114799 c -1.905837,-1.216373 0.476083,1.285887 0,0 z m 25.298492,-0.204341 c -1.04669,-0.746309 -0.21568,0.91464 0,0 z m -69.844598,-0.04194 c -0.752379,-0.459146 -0.459875,0.511567 0,0 z M 108.06052,56.62221 c 1.39905,-2.765997 -1.72148,0.51233 0,0 z m 7.78199,0.158897 c -0.58716,-0.933047 -0.58716,0.933049 0,0 z m -4.31237,-0.496883 c 0.32972,-1.370089 -1.40842,2.151855 0,0 z m 2.40144,0.139337 c -1.77163,-1.245696 0.57355,1.218022 0,0 z M 79.983857,56.161032 c -0.133862,-2.344162 -1.08488,0.718319 0,0 z M 95.7882,55.731041 c -1.508287,-1.166241 -0.387177,1.429279 0,0 z m 2.402228,0.442771 c 0.767468,-3.967408 -2.956009,-1.10942 0,0 z m 4.181312,0.09201 c -0.32237,-1.230369 -0.6859,1.184058 0,0 z m 18.46059,-0.0246 c 1.87113,-2.529237 -3.54558,1.129024 0,0 z m -11.12424,-0.356498 c -0.74736,-0.83731 -0.21229,1.158268 0,0 z m 5.62321,0.233872 c 0.42974,-0.981697 -2.04707,1.476377 0,0 z M 17.180588,55.936261 c -0.352576,-2.818456 -2.442346,0.05968 0,0 z m 43.531251,-0.359234 c 6.48294,-4.179366 -5.282261,-9.889684 -6.75911,-11.140736 -6.36314,-5.698844 -10.865093,8.309278 -1.836189,8.470963 2.845669,0.493117 5.805585,3.277968 8.595299,2.669773 z m -5.06333,-1.887634 c 0.365882,-0.862411 0.517404,0.917321 0,0 z m -1.964927,-1.255044 c 1.210718,-0.723654 0.205414,0.583991 0,0 z m 3.562435,-1.988909 c -1.781169,-1.286488 2.022286,0.587618 0,0 z m -0.4473,-0.958887 c 0.728984,-0.922731 0.975927,0.609808 0,0 z m 61.088593,5.689313 c -1.94265,-0.763666 -1.0952,1.368373 0,0 z M 94.627634,54.900582 c -1.938479,-2.276957 -0.557914,2.552786 0,0 z m -71.646697,-0.26843 c -0.672355,0.509768 0.988367,1.365279 0,0 z M 78.67884,54.528034 c -2.241564,-2.863335 0.793418,2.188979 0,0 z m 26.6762,0.155125 c -1.08205,0.203825 0.22757,1.151507 0,0 z m 3.84184,0.552094 c -0.36588,-0.86241 -0.5174,0.91732 0,0 z m 1.0224,0 c -0.58715,-0.933051 -0.58715,0.93305 0,0 z m 8.94603,0 c -0.58716,-0.933066 -0.58716,0.933066 0,0 z M 24.106618,54.031689 c -0.147322,-1.306767 -0.990749,3.334983 0,0 z m 118.318362,0.514986 c -1.02421,-0.466199 -0.0806,1.138385 0,0 z M 95.901721,54.407112 c -0.791987,-3.332008 -1.592606,0.511408 0,0 z m -2.80769,-0.142 c -0.72899,-0.922721 -0.975917,0.609799 0,0 z m 18.103879,-0.376388 c 0.813,-1.798515 -1.65989,1.923519 0,0 z m 7.94943,0.297551 c 0.86506,-3.313529 -1.79688,0.960617 0,0 z M 88.963227,53.468553 c -3.688349,-2.744682 1.428707,1.893069 0,0 z m 7.34464,0.04995 c -1.361344,-0.738963 1.748627,1.767224 0,0 z M 108.1145,53.096322 c -1.4505,-3.450328 -3.22153,2.656217 0,0 z m 1.8475,-0.566326 c -1.77188,-0.210508 0.0861,2.943319 0,0 z M 86.842323,53.26241 c -1.172212,-1.269368 0.03725,1.131061 0,0 z m 5.177247,-0.0047 c -1.102808,-1.456657 0.338731,1.478457 0,0 z m 2.352466,-0.01006 c -0.517402,-0.91732 -0.365882,0.86241 0,0 z M 51.431101,52.929483 c -0.360918,-0.907146 -0.785641,0.552335 0,0 z m 44.091135,-1.006802 c -1.952957,-2.762261 1.587637,3.497511 0,0 z m 22.876274,0.552093 c 1.63284,-1.751187 -3.12668,1.843977 0,0 z M 92.710625,51.922681 c -1.377908,-4.30287 -2.355516,0.832606 4.63e-4,0 z m -0.766803,-1.104187 c 0.367745,-0.943523 0.700639,0.853092 0,0 z M 23.05941,52.0331 c -0.591824,-1.271831 -0.591824,1.271831 0,0 z m -1.661414,-0.110419 c -0.697917,-1.0665 -0.464843,0.944291 0,0 z m 4.87671,-0.496883 c 3.676864,-2.737338 -4.460689,0.245089 0,0 z m -3.254054,-0.851455 c -0.255522,-4.129164 -3.855734,1.914719 0,0 z m -0.728045,-0.418361 c 0.517404,-0.917319 0.365865,0.862414 0,0 z m 7.923622,1.104187 c -0.517403,-0.917321 -0.365884,0.862409 0,0 z m 75.274441,0 c -0.36588,-0.862398 -0.51739,0.917319 0,0 z M 20.503395,51.039332 c -0.517397,-0.917326 -0.365868,0.862408 0,0 z m 11.635449,-0.09821 c 3.04412,-2.46381 -3.290403,1.143659 0,0 z m 62.400813,-1.320097 c -0.643978,-4.517586 -1.11187,2.873488 0,0 z M 25.743213,49.49347 c -0.365879,-0.862399 -0.517384,0.917321 0,0 z m 46.647151,-0.220837 c 0.462327,-1.544059 -1.178008,1.806232 0,0 z m 8.05142,0.220837 c -0.504833,-0.857426 -0.757798,1.060943 0,0 z M 98.19974,48.849961 c -0.582287,-2.498901 -1.078468,2.352842 0,0 z m 18.15909,0.527753 c 0.62803,-1.522067 -1.82275,1.472443 0,0 z M 64.977937,48.941376 c -0.591815,-1.271834 -0.591815,1.271835 0,0 z m 27.441721,-0.220837 c -0.533532,-1.271337 -0.270074,1.191859 0,0 z m -0.603635,-0.525054 c -0.742616,-2.082373 -1.725866,0.509864 0,0 z m 21.956187,-0.757794 c -0.28405,-1.836181 -0.5871,3.535807 0,0 z m -90.201605,0.191695 c -0.524695,-0.954883 -1.039454,0.877173 0,0 z m 61.7672,-0.445172 c -1.643827,-1.79057 0.0382,1.68671 0,0 z M 36.774088,46.843432 c -0.02486,-2.112309 -1.327929,1.830578 0,0 z m -0.836426,-0.441674 c -0.540094,-0.385044 -0.833755,2.711431 0,0 z m 4.364615,0.308059 c -3.647413,-1.659613 1.475863,1.559626 0,0 z m 72.056313,0.0784 c 1.05283,-3.078549 -1.76703,1.694577 0,0 z M 19.922973,46.93084 c -0.752405,-0.459153 -0.459866,0.511589 0,0 z m 72.564541,-0.191335 c -0.142234,-3.167245 -2.485191,0.41182 0,0 z m 5.714614,-0.834632 c -1.778519,-2.059057 0.246486,2.815129 0,0 z m -63.896288,0.05521 c -0.864918,-1.043748 -0.864918,1.043749 0,0 z m 7.609616,-0.565749 c -1.004109,0.316485 -0.468153,1.458598 0,0 z m 47.60016,0.565749 c -0.587151,-0.933051 -0.587151,0.933051 0,0 z m 12.013244,-0.662511 c -0.67921,-2.345148 -0.33845,2.162614 0,0 z m -5.623218,-0.263046 c -0.437217,-1.731659 -0.509135,2.329848 0,0 z M 41.333053,45.3001 c -0.666807,-0.500215 -0.55984,1.108807 0,0 z m 53.222399,-1.269307 c -0.440725,0.854667 0.610681,2.13265 0,0 z M 18.96979,45.200187 c -0.360903,-0.907149 -0.785639,0.552334 0,0 z m 3.569933,-0.357982 c -1.75192,-1.908008 -0.88699,1.319151 0,0 z m 49.002834,-0.02771 c -0.694118,0.162416 0.867846,1.071232 0,0 z m -55.954156,0 c -0.828791,-1.390694 -0.658874,1.071621 0,0 z m 81.29272,-0.345054 c -0.92819,-3.747382 -3.069488,-0.391742 0,0 z m -47.750429,-0.06824 c -0.886095,-0.77762 -0.163404,1.331796 0,0 z m 7.412418,0.233871 c -0.517401,-0.917323 -0.365866,0.862407 0,0 z M 21.459205,43.559165 c -2.026625,0.379384 0.262684,1.175741 0,0 z m 15.273227,0.192053 c -3.833891,-0.769875 -0.06372,1.349437 0,0 z M 22.211604,43.489465 c -0.694117,0.162417 0.867844,1.071231 0,0 z M 9.5125622,43.089197 c -0.5173963,-0.917323 -0.3658798,0.862408 0,0 z m 7.9236228,-0.220838 c -0.587152,-0.933052 -0.587147,0.933054 0,0 z m 35.272913,-0.246903 c -1.024209,-0.466198 -0.08066,1.138386 0,0 z m -2.199947,-0.10241 c 0.353368,-1.411959 -1.648129,1.303532 0,0 z m 50.764109,0.128481 c -0.5174,-0.917321 -0.36589,0.862409 0,0 z m 0.68048,-0.717721 c -0.60669,0.469192 0.82705,0.896308 0,0 z m 0.51652,0.234639 c -0.69412,0.162399 0.86782,1.071247 0,0 z m -52.572765,-0.38724 c -0.817564,-1.600298 -1.185719,0.968104 0,0 z m -30.4165,-0.785964 c -1.033623,-1.683759 -0.850694,1.514062 0,0 z m 63.133399,-0.490155 c 7.80572,-1.241652 5.868916,-14.131969 2.420698,-13.809379 -1.90952,8.371676 -2.367845,-3.597755 -2.221185,-6.380797 -0.599456,-2.156466 -2.056043,-0.09785 -2.478817,-3.166208 -4.78032,3.67093 -2.194188,11.434583 -2.751188,16.72047 -0.02594,2.713391 0.736511,7.09056 5.030492,6.635914 z m -2.896809,-8.821823 c -1.202384,-2.578158 3.493177,0.01839 0,0 z m 1.547333,-0.799362 c -0.545566,-6.801498 1.943357,-0.786277 0,0 z M 77.547043,29.69126 c 1.266654,-1.613691 1.001692,1.28347 0,0 z m 2.865441,-6.477429 c 0.165704,-4.910151 0.165704,4.910153 0,0 z m -1.051285,-3.533397 c 0.194709,-1.781284 0.194713,1.78128 0,0 z M 55.265113,40.205277 c -0.886095,-0.77762 -0.163404,1.331794 0,0 z M 22.145922,39.934919 c 2.02782,-2.032522 -0.842917,-1.519102 0,0 z m 28.449149,0.149968 c -0.75239,-0.459158 -0.459881,0.511575 0,0 z M 20.759002,39.653183 c -0.668403,-0.8149 -0.306137,1.320613 0,0 z m 28.114616,-0.574457 c -2.635035,-3.352976 0.751078,2.417689 0,0 z m 25.593272,-0.02349 c -0.947236,-0.248068 1.324259,1.211415 0,0 z m -1.437522,-1.707808 c -0.365884,-0.86241 -0.517403,0.917321 0,0 z m 3.916648,-0.515186 c -0.70842,-1.452273 -0.782641,1.644618 0,0 z m 33.528874,-1.030676 c -0.69274,-0.884698 -0.66895,1.083597 0,0 z m -8.27676,-0.563564 c 0.89195,-1.609451 -2.13672,1.435453 0,0 z m -26.996155,-0.07191 c -4.023962,-3.703347 2.11735,-14.169154 -0.649204,-14.786475 -0.247005,4.773115 -3.397864,10.652624 0.649204,14.786475 z M 39.584387,34.339353 c -2.202529,-1.071007 2.45479,2.214405 0,0 z m 59.899661,0.602489 c -0.827834,-1.386825 -0.952593,0.958923 0,0 z M 111.70208,34.72918 c 2.20724,-1.946247 12.95129,-8.752847 4.75295,-8.131073 0.0422,2.920005 -7.14746,6.86273 -4.75295,8.131073 z m 3.79135,-5.480716 c 0.10174,-2.163399 1.04859,0.189442 0,0 z m 2.39388,-0.266793 c 0.0807,-1.138389 1.0242,0.466204 0,0 z m -47.311632,4.55631 c -0.476116,-1.882157 -0.0267,2.965512 0,0 z m 52.679242,0.404528 c 0.0623,-1.799935 -2.08482,0.847091 0,0 z M 37.756455,33.59319 c -0.962682,-1.134977 -0.736711,0.95829 0,0 z m -1.475033,-0.35426 c -0.752392,-0.459164 -0.459876,0.511574 0,0 z m 36.540737,-1.798905 c -0.60584,0.574416 0.870364,1.368083 0,0 z m -2.231412,-1.602014 c 1.331793,-3.054367 -2.473541,-11.136244 -1.174739,-3.530974 0.01911,0.77109 0.934513,8.003184 1.174739,3.530974 z M 21.440116,29.668545 c -0.704112,-2.41694 -3.080766,1.142313 0,0 z m 47.047008,-1.950551 c -0.752391,-0.459163 -0.459875,0.511575 0,0 z m 2.649306,-8.48688 c -0.526799,-3.44179 -0.09823,3.942418 0,0 z m -11.52611,0.0077 c -2.120797,-1.50566 -0.110797,0.945643 0,0 z m 4.856422,-0.662511 c -0.692736,-0.884697 -0.668946,1.083599 0,0 z m 11.374228,-0.22084 c -0.365866,-0.862406 -0.517399,0.917324 0,0 z m 6.619667,-0.847094 c 0.939963,-2.328076 -1.822541,-0.173824 0,0 z M 41.137833,16.455288 c -0.752377,-0.459149 -0.459873,0.511569 0,0 z m 27.929723,-0.308251 c -0.587155,-0.933049 -0.587158,0.933047 0,0 z m 7.525339,-1.923251 c -1.323341,-3.025538 -4.077371,-2.680212 0,0 z m -9.068004,-1.144127 c 1.820031,-3.2406091 -0.407593,-4.7696987 -0.619829,-0.425631 -0.71396,0.44936 -0.200831,3.102159 0.619829,0.425631 z m 6.71858,0.816065 c -2.251641,-1.590606 0.887208,1.424993 0,0 z M 61.655129,11.951127 c -0.517401,-0.917323 -0.365884,0.862411 0,0 z m 18.467154,-0.476071 c 1.289428,-1.7270743 -4.181797,1.932041 0,0 z m -1.853098,-0.628117 c -0.587155,-0.9330459 -0.587155,0.933047 0,0 z M 62.933137,10.405265 c -0.938185,-1.4826219 -0.482249,0.956911 0,0 z M 80.747144,9.9279163 c 3.044533,-3.8996124 -5.871937,-2.7270218 -1.83995,0.4235587 l 1.026947,-0.06676 z M 77.015175,9.2833051 c -1.027818,-0.8328714 0.820059,2.4262489 0,0 z m -8.71442,-1.1837988 c -0.360918,-0.9071462 -0.785641,0.5523343 0,0 z m 8.784923,-0.3994987 c 1.004696,-4.0527682 -2.179754,1.2614597 0,0 z M 63.69994,7.6447945 c -0.591824,-1.2718317 -0.591824,1.2718314 0,0 z M 68.1765,6.26753 c -0.09947,-4.6098994 -1.253603,2.7028847 0,0 z M 81.336395,6.0989319 c -1.375706,-1.2571607 -1.30706,1.9052885 0,0 z M 64.551097,3.2976452 c -0.310382,-5.534231 -0.564076,4.3511765 0.0051,0.2578203 z m 13.462481,0.7885067 c -0.217976,-6.2779706 -2.137947,4.3376726 0,0 z M 16.541584,3.7801395 c -0.504841,-0.8574307 -0.757802,1.0609419 0,0 z M 67.78955,3.3384653 c -0.365882,-0.8624115 -0.517406,0.9173216 0,0 z M 16.669383,3.1176274 c -0.587151,-0.9330523 -0.587147,0.933053 0,0 z m 3.427788,0.0319 c -1.136389,-0.58671 -1.428006,0.8433601 0,0 z M 76.904852,1.9582299 c -0.60669,0.4691925 0.82706,0.8963068 0,0 z m 3.087459,0.099469 c 0.98728,-2.10629063 -2.404523,-1.53364969 0,0 z M 120.1838,0.30194953 c -0.18903,-4.89258393 -0.81638,3.99140977 0,0 z M 16.028573,0.47010616 c -0.666807,-0.5002169 -0.559841,1.10881114 0,0 z M 19.672698,0.3153475 c -1.583451,-0.75199598 -0.664844,0.52344862 0,0 z M 58.007487,0.11331698 c -0.752377,-0.4591485 -0.459873,0.51156939 0,0 z M 61.143924,-0.194935 c -0.365868,-0.8624071 -0.517396,0.91732621 0,0 z m 0,-0.46327691 c -1.832336,-1.05243739 -2.642076,1.57654654 0,0 z m 1.464379,0.32985384 c -0.752379,-0.45914891 -0.459874,0.51156948 0,0 z m 0.06927,-1.94090483 c -0.728985,-0.9227246 -0.975923,0.6098061 0,0 z m 14.960323,-2.3531429 c 4.144171,0.630197 -1.83077,-0.8052729 0,0 z M 101.2733,106.92423 c 0.11106,-1.3916 0.70602,0.6335 0,0 z m -0.23543,-1.0252 c 0.28531,-0.80321 0.12809,1.12758 0,0 z m -4.109788,-3.18374 c 0.587151,-0.93307 0.587174,0.93307 0,0 z m -70.251926,-0.87231 c 1.219087,-1.5449 0.164704,0.97995 0,0 z m 7.033282,-5.016692 c -0.652387,-1.517322 1.464368,0.914145 0,0 z m 96.191112,-0.625704 c -2.76439,-3.037473 2.15511,1.145664 0,0 z m 2.32058,-0.01836 c 0.28532,-0.803195 0.12807,1.127602 0,0 z m -0.23917,-3.159519 c -0.66748,-1.127193 1.377,0.740011 0,0 z M 11.976138,89.796339 c 0.284612,-1.186562 0.523595,1.259562 0,0 z M 9.05518,87.476574 c -6.244106,-5.177302 4.049096,-1.9747 0,0 z M 0.86729292,83.796821 c 0.76431678,-1.820554 0.82073118,1.480363 0,0 z M -7.5337078,80.355538 c -2.8752482,-4.120034 4.7680767,-6.544422 1.1651031,-0.94018 l -0.4882293,0.557454 z m 5.6081327,-17.666991 c 1.35040796,-1.195516 0.7312171,1.22298 0,0 z m 8.014798,-4.954917 c 2.2014963,-3.537747 4.2254331,2.504449 0,0 z M 28.554826,49.714351 c 0.365863,-0.862408 0.517401,0.917324 0,0 z m -0.251589,-0.877736 c 0.173463,-1.182769 1.384785,0.841841 0,0 z m 3.191,-0.888963 c 0.517401,-0.917317 0.365865,0.862414 0,0 z M 27.79894,46.637888 c -0.11745,-1.243166 0.875607,0.697867 0,0 z m 4.717696,-1.561121 c 0.587162,-0.933066 0.587165,0.933066 0,0 z m -2.429326,-0.88491 c 0.482098,-2.147411 1.819708,0.591025 0,0 z m -4.706202,-0.502605 c 0.959444,-1.540942 1.348699,0.654254 0,0 z m 5.486307,-2.791358 c 0.362249,-2.432064 3.278563,0.413507 0,0 z m 3.182827,-4.667656 c 0.785653,-0.552344 0.360914,0.907164 0,0 z M 7.9789574,21.60739 c 0.357312,-3.510191 0.5536511,2.128698 0,0 z m 0.6252779,-6.178076 c -0.350908,-2.86463 1.3132682,-6.4438443 0.5131775,-1.12058 -0.016992,0.615919 -0.5604539,4.540122 -0.5131775,1.12058 z M 30.903584,14.324902 C 30.595993,8.5557971 29.735588,-1.8721852 39.933943,0.74890471 41.899277,-2.7304957 29.550135,-1.6864102 36.978194,-2.2052677 45.56507,-6.549851 46.468533,3.525705 45.81803,8.3054647 44.743987,13.110946 33.371246,13.810082 30.903584,14.324902 Z M 35.247555,5.8154369 C 38.030676,1.8226978 28.316348,4.5164904 34.372149,5.9889305 Z m 4.937106,-0.9311077 c -1.420702,-1.6640058 0.582157,1.6072879 0,0 z m 2.811612,-7.0667965 c -0.535399,-1.6220237 -0.219552,1.54263922 0,0 z M 57.821118,9.6192995 c 0.587399,-0.8111752 0.102582,1.1791885 0,0 z m 2.470808,-0.023772 c -0.944622,-1.7320952 1.889683,0.6557535 0,0 z M 58.587919,8.7559154 c 0.730917,-0.9030047 0.431381,1.2134526 0,0 z M 56.926516,8.638567 c 0.517398,-0.9173257 0.365869,0.8624077 0,0 z m 2.834528,-0.2528747 c 1.726856,-0.9761752 1.382306,0.8986678 0,0 z M 9.3485048,7.3687523 c -0.060803,-5.840299 1.3561452,0.1472859 0,0 z M 57.56552,7.5343799 c 0.58715,-0.9330508 0.58715,0.9330508 0,0 z m 2.300407,0 c 0.587149,-0.9330508 0.587149,0.9330508 0,0 z M 17.94739,5.7676802 c 0.517401,-0.9173242 0.365865,0.8624071 0,0 z M 9.7883417,3.4304858 c 0.2852963,-0.8032093 0.128122,1.1275879 0,0 z M 9.947412,0.90925802 c 0.919093,-5.24116742 -0.3752893,5.12203338 0,0 z M 33.086258,-0.7606924 c 3.125298,-0.657698 3.819886,0.81488784 0,0 z M 87.98201,-1.6303716 c 1.134567,-1.5444781 1.31365,1.53999984 0,0 z M 63.276935,-2.7440831 c -0.377002,-1.5528455 0.855549,1.1573619 0,0 z m 35.632012,-0.060354 c -2.842504,-0.507236 -12.881204,-3.7961567 -4.690195,-2.8961539 0.838441,0.1138623 9.714148,2.6371585 4.690195,2.8961539 z m 17.754203,-0.456078 c -2.36697,-2.0929176 3.82579,1.0447818 0,0 z m 1.73536,-0.026133 c 0.69273,-0.8846976 0.66895,1.083591 0,0 z m -5.49541,-0.4416751 c 0.98913,-1.1696818 3.27758,1.4474326 0,0 z M 15.391385,-3.9637364 c -4.685791,-0.051028 -4.931807,-1.9407321 0.173071,-0.586725 2.70058,0.1938455 1.581349,1.297511 -0.173071,0.586725 z m 25.176673,-0.2163934 c -8.779825,-0.8342837 -17.888001,0.6530685 -26.39422,-1.9062906 9.338774,0.1211204 20.752843,3.1731099 28.769966,-0.7057687 6.908316,0.6042533 13.584886,2.0939897 20.628816,0.4750384 1.9509,0.8922124 -8.540605,1.1926564 -11.171663,1.4090355 -3.945796,0.2232711 -7.894133,0.4220112 -11.832899,0.7279854 z m 22.109472,-0.652381 c 5.268931,-2.6171724 6.533307,0.4855987 0,0 z m 59.4698,-0.8097372 c -0.833,-2.379535 0.59327,-1.1998715 0,0 z M 13.346575,-6.8200522 c 2.66721,-1.487266 0.102625,1.3049018 0,0 z M 10.141054,-7.276419 c -0.126528,-1.2750626 1.691662,1.5057711 0,0 z m 52.472582,-0.1315643 c 1.037382,-0.7145788 0.543048,0.5241819 0,0 z m -48.88366,-0.8408358 c 10.268467,-2.7061269 21.222823,-1.6219963 31.809502,-2.0973599 5.974805,0.05126 11.960554,0.3609154 17.860618,1.2059236 -8.348116,0.302857 -16.633242,-1.2432166 -24.994703,-0.7228632 -8.448782,0.017322 -16.838553,0.9860269 -25.212126,1.8533279 l 0.368494,-0.1641125 z m 2.87018,-0.4713548 c -0.752368,-0.4591581 -0.459886,0.511559 0,0 z m 1.278007,-0.2208371 c -0.752379,-0.4591708 -0.459887,0.5115608 0,0 z m 1.666727,-0.2336716 c -1.037383,-0.7145773 -0.543048,0.5241811 0,0 z m 2.67849,-0.2080034 c -0.752378,-0.459168 -0.459892,0.5115644 0,0 z m 4.094934,-0.2396437 c -1.583438,-0.7519873 -0.664838,0.5234421 0,0 z m 13.163438,-0.4511443 c -2.697709,-0.333176 -2.32347,0.3764309 0,0 z m 76.811028,0.8888589 c 2.17164,-0.8918489 0.79062,0.5703907 0,0 z m -42.829086,-0.282491 c 0.492379,-1.3475319 4.667829,1.0044827 1.075191,0.169596 z m 45.318216,0.058226 c 2.92439,0.090108 0.89699,-3.7205119 3.6099,-0.6422519 -0.68985,0.9638573 -2.50577,1.1465041 -3.6099,0.6422519 z M 84.225311,-9.7105825 c -3.46176,0.3552514 -14.727203,-1.7327715 -5.248044,-0.8621195 12.955013,0.8716943 25.976433,0.6454359 38.932363,-0.08864 -11.12481,1.6359519 -22.460193,1.1295932 -33.684319,0.9507555 z M 70.473352,-10.132615 c 0.542055,-1.029401 1.168364,1.4671156 0,0 z"
     id="path895" />
  <g
     style="font-style:normal;font-variant:normal;font-weight:normal;font-stretch:normal;font-size:10.66666698px;line-height:125%;font-family:Sudo;-inkscape-font-specification:'Sudo, Normal';font-variant-ligatures:normal;font-variant-caps:normal;font-variant-numeric:normal;font-feature-settings:normal;text-align:start;letter-spacing:0px;word-spacing:0px;writing-mode:lr-tb;text-anchor:start;fill:#000000;fill-opacity:1;stroke:none;stroke-width:1px;stroke-linecap:butt;stroke-linejoin:miter;stroke-opacity:1"
     id="flowRoot1009" />
  <g
     transform="translate(49.609373,2.3296785)"
     aria-label="bId°°"
     style="font-style:normal;font-variant:normal;font-weight:normal;font-stretch:normal;font-size:2.82222223px;line-height:125%;font-family:'DejaVu Sans Mono';-inkscape-font-specification:'DejaVu Sans Mono, Normal';font-variant-ligatures:normal;font-variant-caps:normal;font-variant-numeric:normal;font-feature-settings:normal;text-align:start;letter-spacing:0px;word-spacing:0px;writing-mode:lr-tb;text-anchor:start;fill:#000000;fill-opacity:1;stroke:none;stroke-width:0.26458332px;stroke-linecap:butt;stroke-linejoin:miter;stroke-opacity:1"
     id="text868">
    <path
       d="m 5.5614176,95.470286 q 0,-0.442351 -0.1405599,-0.66766 -0.1405599,-0.225309 -0.4154785,-0.225309 -0.2769856,0 -0.4196126,0.227376 -0.1426269,0.225309 -0.1426269,0.665593 0,0.438216 0.1426269,0.665592 0.142627,0.227376 0.4196126,0.227376 0.2749186,0 0.4154785,-0.225309 0.1405599,-0.225309 0.1405599,-0.667659 z m -1.1182779,-0.86403 q 0.09095,-0.169499 0.2501139,-0.26045 0.1612305,-0.09095 0.3720703,-0.09095 0.4175456,0 0.6573242,0.322461 0.2397786,0.320394 0.2397786,0.8847 0,0.572575 -0.2418457,0.89917 -0.2397786,0.324528 -0.6593912,0.324528 -0.2067057,0 -0.3658691,-0.08888 -0.1570964,-0.09095 -0.252181,-0.262516 v 0.291455 H 4.0628012 V 93.40943 h 0.3803385 z"
       style="font-style:normal;font-variant:normal;font-weight:normal;font-stretch:normal;font-size:4.23333311px;font-family:'DejaVu Sans Mono';-inkscape-font-specification:'DejaVu Sans Mono, Normal';font-variant-ligatures:normal;font-variant-caps:normal;font-variant-numeric:normal;font-feature-settings:normal;text-align:start;writing-mode:lr-tb;text-anchor:start;stroke-width:0.26458332px"
       id="path885" />
    <path
       d="m 6.625952,93.539654 h 1.7135904 v 0.3514 H 7.6925535 v 2.383317 h 0.6469889 v 0.3514 H 6.625952 v -0.3514 H 7.2729409 V 93.891054 H 6.625952 Z"
       style="font-style:normal;font-variant:normal;font-weight:normal;font-stretch:normal;font-size:4.23333311px;font-family:'DejaVu Sans Mono';-inkscape-font-specification:'DejaVu Sans Mono, Normal';font-variant-ligatures:normal;font-variant-caps:normal;font-variant-numeric:normal;font-feature-settings:normal;text-align:start;writing-mode:lr-tb;text-anchor:start;stroke-width:0.26458332px"
       id="path887" />
    <path
       d="M 10.530623,94.606256 V 93.40943 h 0.380339 v 3.216341 h -0.380339 v -0.291455 q -0.09509,0.171565 -0.254248,0.262516 -0.157096,0.08888 -0.3638021,0.08888 -0.4196126,0 -0.6614583,-0.324528 -0.2397786,-0.326595 -0.2397786,-0.89917 0,-0.564306 0.2418457,-0.8847 0.2418457,-0.322461 0.6593912,-0.322461 0.2087731,0 0.3679361,0.09095 0.159163,0.08888 0.250114,0.26045 z m -1.1182779,0.86403 q 0,0.44235 0.1405599,0.667659 0.1405598,0.225309 0.4154785,0.225309 0.2749185,0 0.4175455,-0.227376 0.144694,-0.227376 0.144694,-0.665592 0,-0.440284 -0.144694,-0.665593 -0.142627,-0.227376 -0.4175455,-0.227376 -0.2749187,0 -0.4154785,0.225309 -0.1405599,0.225309 -0.1405599,0.66766 z"
       style="font-style:normal;font-variant:normal;font-weight:normal;font-stretch:normal;font-size:4.23333311px;font-family:'DejaVu Sans Mono';-inkscape-font-specification:'DejaVu Sans Mono, Normal';font-variant-ligatures:normal;font-variant-caps:normal;font-variant-numeric:normal;font-feature-settings:normal;text-align:start;writing-mode:lr-tb;text-anchor:start;stroke-width:0.26458332px"
       id="path889" />
    <path
       d="m 12.577009,93.483844 q 0.134359,0 0.254248,0.05168 0.121957,0.04961 0.212907,0.144694 0.09302,0.09302 0.14056,0.21084 0.04961,0.117822 0.04961,0.254248 0,0.272851 -0.192237,0.463021 -0.192236,0.188102 -0.469222,0.188102 -0.279052,0 -0.465088,-0.186035 -0.186035,-0.186035 -0.186035,-0.465088 0,-0.276986 0.190169,-0.469222 0.19017,-0.192236 0.465088,-0.192236 z m 0,0.26665 q -0.163297,0 -0.279052,0.115755 -0.113689,0.113688 -0.113689,0.279053 0,0.165365 0.111622,0.276986 0.113688,0.111621 0.276985,0.111621 0.165365,0 0.28112,-0.113688 0.117822,-0.113689 0.117822,-0.274919 0,-0.163298 -0.115755,-0.279053 -0.115755,-0.115755 -0.279053,-0.115755 z"
       style="font-style:normal;font-variant:normal;font-weight:normal;font-stretch:normal;font-size:4.23333311px;font-family:'DejaVu Sans Mono';-inkscape-font-specification:'DejaVu Sans Mono, Normal';font-variant-ligatures:normal;font-variant-caps:normal;font-variant-numeric:normal;font-feature-settings:normal;text-align:start;writing-mode:lr-tb;text-anchor:start;stroke-width:0.26458332px"
       id="path891" />
    <path
       d="m 15.123624,93.483844 q 0.134359,0 0.254248,0.05168 0.121956,0.04961 0.212907,0.144694 0.09302,0.09302 0.14056,0.21084 0.04961,0.117822 0.04961,0.254248 0,0.272851 -0.192236,0.463021 -0.192236,0.188102 -0.469222,0.188102 -0.279053,0 -0.465088,-0.186035 -0.186035,-0.186035 -0.186035,-0.465088 0,-0.276986 0.190169,-0.469222 0.190169,-0.192236 0.465088,-0.192236 z m 0,0.26665 q -0.163298,0 -0.279053,0.115755 -0.113688,0.113688 -0.113688,0.279053 0,0.165365 0.111621,0.276986 0.113688,0.111621 0.276986,0.111621 0.165364,0 0.28112,-0.113688 0.117822,-0.113689 0.117822,-0.274919 0,-0.163298 -0.115755,-0.279053 -0.115755,-0.115755 -0.279053,-0.115755 z"
       style="font-style:normal;font-variant:normal;font-weight:normal;font-stretch:normal;font-size:4.23333311px;font-family:'DejaVu Sans Mono';-inkscape-font-specification:'DejaVu Sans Mono, Normal';font-variant-ligatures:normal;font-variant-caps:normal;font-variant-numeric:normal;font-feature-settings:normal;text-align:start;writing-mode:lr-tb;text-anchor:start;stroke-width:0.26458332px"
       id="path893" />
  </g>
  <path
     style="opacity:1;fill:#04080a;fill-opacity:1;fill-rule:nonzero;stroke:#949494;stroke-width:0.52916665;stroke-linecap:square;stroke-linejoin:round;stroke-miterlimit:6.0999999;stroke-dasharray:none;stroke-dashoffset:0;stroke-opacity:0.98666674"
     d="M 2.7520429,11.191407 H 116.31045 V 54.755528 H 2.7520429 Z"
     id="rect839" />
  <path
     style="opacity:1;fill:#04080a;fill-opacity:1;fill-rule:nonzero;stroke:#949494;stroke-width:0.52916665;stroke-linecap:square;stroke-linejoin:round;stroke-miterlimit:6.0999999;stroke-dasharray:none;stroke-dashoffset:0;stroke-opacity:0.98823529"
     d="M 2.7022982,56.612905 H 48.705308 V 86.350713 H 2.7022982 Z"
     id="rect839-6" />
  <path
     style="opacity:1;fill:#cd1f00;fill-opacity:1;fill-rule:evenodd;stroke:#cd1f00;stroke-width:0.72085714;stroke-linecap:butt;stroke-linejoin:round;stroke-miterlimit:4;stroke-dasharray:none;stroke-dashoffset:0;stroke-opacity:1"
     d="m 119.27835,75.546326 h 4.70299 c 0.6299,0 1.13701,0.507107 1.13701,1.137011 v 8.103004 c 0,0.629904 -0.5071,1.137011 -1.13701,1.137011 h -4.70299 c -0.62991,0 -1.13702,-0.507107 -1.13702,-1.137011 v -8.103004 c 0,-0.629904 0.5071,-1.137011 1.13702,-1.137011 z"
     id="rect998-1-1-0" />
  <g
     aria-label="V/O"
     style="font-style:normal;font-variant:normal;font-weight:normal;font-stretch:normal;font-size:2.82222223px;line-height:125%;font-family:'DejaVu Sans Mono';-inkscape-font-specification:'DejaVu Sans Mono, Normal';font-variant-ligatures:normal;font-variant-caps:normal;font-variant-numeric:normal;font-feature-settings:normal;text-align:start;letter-spacing:0px;word-spacing:0px;writing-mode:lr-tb;text-anchor:start;fill:#000000;fill-opacity:1;stroke:none;stroke-width:0.26458332px;stroke-linecap:butt;stroke-linejoin:miter;stroke-opacity:1"
     id="text856">
    <path
       d="m 77.828341,60.463465 0.483691,-1.823145 h 0.28801 L 77.99784,60.697731 H 77.66022 L 77.058017,58.64032 h 0.28801 z"
       style="stroke-width:0.26458332px"
       id="path957" />
    <path
       d="m 79.902288,58.64032 h 0.261828 l -1.083138,2.319238 h -0.263206 z"
       style="stroke-width:0.26458332px"
       id="path959" />
    <path
       d="m 81.62208,59.671093 q 0,-0.453375 -0.09371,-0.647678 -0.09233,-0.194304 -0.304546,-0.194304 -0.21084,0 -0.304546,0.194304 -0.09233,0.194303 -0.09233,0.647678 0,0.451996 0.09233,0.646299 0.09371,0.194304 0.304546,0.194304 0.212218,0 0.304546,-0.192925 0.09371,-0.194304 0.09371,-0.647678 z m 0.290766,0 q 0,0.537434 -0.170877,0.802018 -0.169498,0.264583 -0.518142,0.264583 -0.348644,0 -0.518142,-0.263205 -0.169499,-0.263205 -0.169499,-0.803396 0,-0.538813 0.169499,-0.803397 0.170876,-0.264583 0.518142,-0.264583 0.348644,0 0.518142,0.264583 0.170877,0.264584 0.170877,0.803397 z"
       style="stroke-width:0.26458332px"
       id="path961" />
  </g>
  <g
     aria-label="FINE"
     style="font-style:normal;font-variant:normal;font-weight:normal;font-stretch:normal;font-size:2.82222223px;line-height:125%;font-family:'DejaVu Sans Mono';-inkscape-font-specification:'DejaVu Sans Mono, Normal';font-variant-ligatures:normal;font-variant-caps:normal;font-variant-numeric:normal;font-feature-settings:normal;text-align:start;letter-spacing:0px;word-spacing:0px;writing-mode:lr-tb;text-anchor:start;fill:#000000;fill-opacity:1;stroke:none;stroke-width:0.26458332px;stroke-linecap:butt;stroke-linejoin:miter;stroke-opacity:1"
     id="text856-5">
    <path
       d="m 87.043258,58.752628 h 1.211296 v 0.234267 H 87.323 v 0.606337 h 0.844738 v 0.234266 H 87.323 v 0.982542 h -0.279742 z"
       style="stroke-width:0.26458332px"
       id="path964" />
    <path
       d="m 88.696904,58.752628 h 1.142394 v 0.234267 h -0.431326 v 1.588878 h 0.431326 v 0.234267 h -1.142394 v -0.234267 h 0.431326 v -1.588878 h -0.431326 z"
       style="stroke-width:0.26458332px"
       id="path966" />
    <path
       d="m 90.309209,58.752628 h 0.352778 l 0.694531,1.693609 v -1.693609 h 0.268718 v 2.057412 h -0.352778 l -0.694532,-1.693609 v 1.693609 h -0.268717 z"
       style="stroke-width:0.26458332px"
       id="path968" />
    <path
       d="m 92.086878,58.752628 h 1.220942 v 0.234267 h -0.942578 v 0.609093 h 0.901237 v 0.234266 h -0.901237 v 0.745519 h 0.968761 v 0.234267 h -1.247125 z"
       style="stroke-width:0.26458332px"
       id="path970" />
  </g>
  <g
     aria-label="FM"
     style="font-style:normal;font-variant:normal;font-weight:normal;font-stretch:normal;font-size:2.82222223px;line-height:125%;font-family:'DejaVu Sans Mono';-inkscape-font-specification:'DejaVu Sans Mono, Normal';font-variant-ligatures:normal;font-variant-caps:normal;font-variant-numeric:normal;font-feature-settings:normal;text-align:start;letter-spacing:0px;word-spacing:0px;writing-mode:lr-tb;text-anchor:start;fill:#000000;fill-opacity:1;stroke:none;stroke-width:0.26458332px;stroke-linecap:butt;stroke-linejoin:miter;stroke-opacity:1"
     id="text856-4">
    <path
       d="m 99.414558,58.752628 h 1.211292 v 0.234267 H 99.6943 v 0.606337 h 0.84474 v 0.234266 H 99.6943 v 0.982542 h -0.279742 z"
       style="stroke-width:0.26458332px"
       id="path973" />
    <path
       d="m 100.90973,58.752628 h 0.37207 l 0.35553,1.04731 0.35829,-1.04731 h 0.37345 v 2.057412 h -0.25769 v -1.817633 l -0.36656,1.084516 h -0.21084 l -0.36794,-1.084516 v 1.817633 h -0.25631 z"
       style="stroke-width:0.26458332px"
       id="path975" />
  </g>
  <g
     aria-label="H"
     style="font-style:normal;font-variant:normal;font-weight:normal;font-stretch:normal;font-size:2.82222223px;line-height:125%;font-family:'DejaVu Sans Mono';-inkscape-font-specification:'DejaVu Sans Mono, Normal';font-variant-ligatures:normal;font-variant-caps:normal;font-variant-numeric:normal;font-feature-settings:normal;text-align:start;letter-spacing:0px;word-spacing:0px;writing-mode:lr-tb;text-anchor:start;fill:#000000;fill-opacity:1;stroke:none;stroke-width:0.26458332px;stroke-linecap:butt;stroke-linejoin:miter;stroke-opacity:1"
     id="text856-40-7">
    <path
       d="m 68.449678,60.55912 h 0.279742 v 0.84336 h 0.762055 v -0.84336 h 0.279742 v 2.057411 H 69.491475 V 61.636746 H 68.72942 v 0.979785 h -0.279742 z"
       style="stroke-width:0.26458332px"
       id="path989" />
  </g>
  <g
     aria-label="S"
     style="font-style:normal;font-variant:normal;font-weight:normal;font-stretch:normal;font-size:2.82222223px;line-height:125%;font-family:'DejaVu Sans Mono';-inkscape-font-specification:'DejaVu Sans Mono, Normal';font-variant-ligatures:normal;font-variant-caps:normal;font-variant-numeric:normal;font-feature-settings:normal;text-align:start;letter-spacing:0px;word-spacing:0px;writing-mode:lr-tb;text-anchor:start;fill:#000000;fill-opacity:1;stroke:none;stroke-width:0.26458332px;stroke-linecap:butt;stroke-linejoin:miter;stroke-opacity:1"
     id="text856-40-1">
    <path
       d="m 69.652708,69.973951 v 0.282498 q -0.12678,-0.0813 -0.254937,-0.122645 -0.12678,-0.04134 -0.256316,-0.04134 -0.197059,0 -0.311436,0.09233 -0.114377,0.09095 -0.114377,0.246669 0,0.136426 0.07441,0.208084 0.07579,0.07166 0.281119,0.119889 l 0.146073,0.03307 q 0.289388,0.06752 0.421679,0.212218 0.132292,0.144694 0.132292,0.394119 0,0.293522 -0.181901,0.447862 -0.181901,0.154341 -0.529167,0.154341 -0.144694,0 -0.290766,-0.03169 -0.146072,-0.03032 -0.293522,-0.09233 v -0.296278 q 0.158474,0.100597 0.299034,0.14745 0.141938,0.04685 0.285254,0.04685 0.21084,0 0.327973,-0.09371 0.117134,-0.09508 0.117134,-0.264584 0,-0.15434 -0.08131,-0.235644 -0.07993,-0.0813 -0.279742,-0.125402 l -0.148828,-0.03445 q -0.286632,-0.06477 -0.416167,-0.195681 -0.129536,-0.130914 -0.129536,-0.3514 0,-0.275607 0.184657,-0.440972 0.186036,-0.166743 0.493338,-0.166743 0.118511,0 0.249425,0.02756 0.130914,0.02618 0.275608,0.07993 z"
       style="stroke-width:0.26458332px"
       id="path992" />
  </g>
  <g
     aria-label="SYNC"
     style="font-style:normal;font-variant:normal;font-weight:normal;font-stretch:normal;font-size:2.82222223px;line-height:125%;font-family:'DejaVu Sans Mono';-inkscape-font-specification:'DejaVu Sans Mono, Normal';font-variant-ligatures:normal;font-variant-caps:normal;font-variant-numeric:normal;font-feature-settings:normal;text-align:start;letter-spacing:0px;word-spacing:0px;writing-mode:lr-tb;text-anchor:start;fill:#000000;fill-opacity:1;stroke:none;stroke-width:0.26458332px;stroke-linecap:butt;stroke-linejoin:miter;stroke-opacity:1"
     id="text856-40-6">
    <path
       d="m 88.377218,76.44274 v 0.282497 q -0.12678,-0.0813 -0.254937,-0.122645 -0.12678,-0.04134 -0.256315,-0.04134 -0.19706,0 -0.311437,0.09233 -0.114377,0.09095 -0.114377,0.246669 0,0.136426 0.07441,0.208084 0.07579,0.07166 0.28112,0.119889 l 0.146072,0.03307 q 0.289388,0.06752 0.421679,0.212218 0.132292,0.144694 0.132292,0.394119 0,0.293522 -0.181901,0.447862 -0.181901,0.154341 -0.529167,0.154341 -0.144694,0 -0.290766,-0.03169 -0.146072,-0.03032 -0.293522,-0.09233 v -0.296278 q 0.158475,0.100597 0.299034,0.14745 0.141938,0.04685 0.285254,0.04685 0.21084,0 0.327973,-0.09371 0.117134,-0.09509 0.117134,-0.264583 0,-0.154341 -0.08131,-0.235645 -0.07993,-0.0813 -0.279741,-0.125401 l -0.148828,-0.03445 q -0.286632,-0.06477 -0.416168,-0.195682 -0.129536,-0.130913 -0.129536,-0.3514 0,-0.275607 0.184658,-0.440972 0.186035,-0.166742 0.493337,-0.166742 0.118512,0 0.249425,0.02756 0.130914,0.02618 0.275608,0.07993 z"
       style="stroke-width:0.26458332px"
       id="path995" />
    <path
       d="m 88.731374,76.37246 h 0.296278 l 0.501606,0.908127 0.500228,-0.908127 h 0.299034 l -0.66008,1.134125 v 0.923286 h -0.279742 v -0.923286 z"
       style="stroke-width:0.26458332px"
       id="path997" />
    <path
       d="m 90.569677,76.37246 h 0.352777 l 0.694532,1.693609 V 76.37246 h 0.268717 v 2.057411 h -0.352778 l -0.694531,-1.693609 v 1.693609 h -0.268717 z"
       style="stroke-width:0.26458332px"
       id="path999" />
    <path
       d="m 93.554507,78.356835 q -0.106109,0.0565 -0.21773,0.08406 -0.111621,0.02894 -0.237022,0.02894 -0.395497,0 -0.614605,-0.279742 -0.21773,-0.279742 -0.21773,-0.78686 0,-0.504362 0.219108,-0.785482 0.220486,-0.282497 0.613227,-0.282497 0.125401,0 0.237022,0.02894 0.111621,0.02756 0.21773,0.08406 v 0.285254 q -0.101974,-0.08406 -0.219108,-0.128158 -0.117133,-0.0441 -0.235644,-0.0441 -0.271474,0 -0.406521,0.209462 -0.135048,0.209461 -0.135048,0.632519 0,0.42168 0.135048,0.631142 0.135047,0.209461 0.406521,0.209461 0.121267,0 0.237022,-0.0441 0.117134,-0.0441 0.21773,-0.128157 z"
       style="stroke-width:0.26458332px"
       id="path1001" />
  </g>
  <g
     aria-label="OUT"
     style="font-style:normal;font-variant:normal;font-weight:normal;font-stretch:normal;font-size:2.82222223px;line-height:125%;font-family:'DejaVu Sans Mono';-inkscape-font-specification:'DejaVu Sans Mono, Normal';font-variant-ligatures:normal;font-variant-caps:normal;font-variant-numeric:normal;font-feature-settings:normal;text-align:start;letter-spacing:0px;word-spacing:0px;writing-mode:lr-tb;text-anchor:start;fill:#ffffff;fill-opacity:1;stroke:none;stroke-width:0.26458332px;stroke-linecap:butt;stroke-linejoin:miter;stroke-opacity:1"
     id="text856-40-6-4"
     transform="translate(9.959515)">
    <path
       d="m 110.32192,77.045284 q 0,-0.453375 -0.0937,-0.647678 -0.0923,-0.194303 -0.30455,-0.194303 -0.21084,0 -0.30454,0.194303 -0.0923,0.194303 -0.0923,0.647678 0,0.451996 0.0923,0.6463 0.0937,0.194303 0.30454,0.194303 0.21222,0 0.30455,-0.192925 0.0937,-0.194304 0.0937,-0.647678 z m 0.29076,0 q 0,0.537435 -0.17088,0.802018 -0.16949,0.264583 -0.51814,0.264583 -0.34864,0 -0.51814,-0.263205 -0.1695,-0.263205 -0.1695,-0.803396 0,-0.538813 0.1695,-0.803396 0.17088,-0.264584 0.51814,-0.264584 0.34865,0 0.51814,0.264584 0.17088,0.264583 0.17088,0.803396 z"
       style="fill:#ffffff;fill-opacity:1;stroke-width:0.26458332px"
       id="path1004" />
    <path
       d="m 110.97511,77.282306 v -1.267795 h 0.27974 v 1.394575 q 0,0.150206 0.008,0.214974 0.008,0.06339 0.0289,0.09784 0.0441,0.0813 0.12678,0.122645 0.0841,0.04134 0.20258,0.04134 0.11988,0 0.20257,-0.04134 0.0827,-0.04134 0.12815,-0.122645 0.0207,-0.03445 0.0289,-0.09784 0.008,-0.06339 0.008,-0.212218 v -1.397331 h 0.27837 v 1.267795 q 0,0.315571 -0.04,0.449241 -0.0386,0.132292 -0.13505,0.219108 -0.091,0.0813 -0.20808,0.121267 -0.11713,0.03996 -0.2632,0.03996 -0.1447,0 -0.26183,-0.03996 -0.11713,-0.03996 -0.20946,-0.121267 -0.0951,-0.08544 -0.13505,-0.220486 -0.04,-0.136426 -0.04,-0.447863 z"
       style="fill:#ffffff;fill-opacity:1;stroke-width:0.26458332px"
       id="path1006" />
    <path
       d="m 112.53504,76.014511 h 1.56959 v 0.234267 h -0.64354 v 1.823144 h -0.27975 v -1.823144 h -0.6463 z"
       style="fill:#ffffff;fill-opacity:1;stroke-width:0.26458332px"
       id="path1008" />
  </g>
  <path
     style="fill:none;fill-rule:evenodd;stroke:#000000;stroke-width:0.26458332px;stroke-linecap:butt;stroke-linejoin:miter;stroke-opacity:1"
     d="m 69.210914,82.617615 c 0,-9.489198 0,-9.489198 0,-9.489198"
     id="path944" />
  <path
     style="fill:none;fill-rule:evenodd;stroke:#000000;stroke-width:0.26458332px;stroke-linecap:butt;stroke-linejoin:miter;stroke-opacity:1"
     d="m 79.82978,82.617615 c 0,-16.041266 0,-16.041266 0,-16.041266"
     id="path946" />
  <path
     style="fill:none;fill-rule:evenodd;stroke:#000000;stroke-width:0.26458332px;stroke-linecap:butt;stroke-linejoin:miter;stroke-opacity:1"
     d="m 101.06751,82.617615 c 0,-16.493132 0,-16.493132 0,-16.493132"
     id="path948" />
  <g
     id="text877"
     style="font-style:normal;font-variant:normal;font-weight:normal;font-stretch:normal;font-size:2.82222223px;line-height:125%;font-family:'DejaVu Sans Mono';-inkscape-font-specification:'DejaVu Sans Mono, Normal';font-variant-ligatures:normal;font-variant-caps:normal;font-variant-numeric:normal;font-feature-settings:normal;text-align:start;letter-spacing:0px;word-spacing:0px;writing-mode:lr-tb;text-anchor:start;fill:#000000;fill-opacity:1;stroke:none;stroke-width:0.26458332px;stroke-linecap:butt;stroke-linejoin:miter;stroke-opacity:1"
     aria-label="LImOnade">
    <path
       id="path879"
       style="font-style:normal;font-variant:normal;font-weight:normal;font-stretch:normal;font-size:4.23333311px;font-family:'DejaVu Sans Mono';-inkscape-font-specification:'DejaVu Sans Mono, Normal';font-variant-ligatures:normal;font-variant-caps:normal;font-variant-numeric:normal;font-feature-settings:normal;text-align:start;writing-mode:lr-tb;text-anchor:start;stroke-width:0.26458332px"
       d="m 49.691022,2.6362895 h 0.419613 v 2.7347167 h 1.490348 v 0.3513997 h -1.909961 z" />
    <path
       id="path881"
       style="font-style:normal;font-variant:normal;font-weight:normal;font-stretch:normal;font-size:4.23333311px;font-family:'DejaVu Sans Mono';-inkscape-font-specification:'DejaVu Sans Mono, Normal';font-variant-ligatures:normal;font-variant-caps:normal;font-variant-numeric:normal;font-feature-settings:normal;text-align:start;writing-mode:lr-tb;text-anchor:start;stroke-width:0.26458332px"
       d="m 52.208698,2.6362895 h 1.71359 v 0.3513998 h -0.646989 v 2.3833169 h 0.646989 v 0.3513997 h -1.71359 V 5.3710062 h 0.646989 V 2.9876893 h -0.646989 z" />
    <path
       id="path883"
       style="font-style:normal;font-variant:normal;font-weight:normal;font-stretch:normal;font-size:4.23333311px;font-family:'DejaVu Sans Mono';-inkscape-font-specification:'DejaVu Sans Mono, Normal';font-variant-ligatures:normal;font-variant-caps:normal;font-variant-numeric:normal;font-feature-settings:normal;text-align:start;writing-mode:lr-tb;text-anchor:start;stroke-width:0.26458332px"
       d="m 55.737164,3.6429464 q 0.07028,-0.1488281 0.177767,-0.2191081 0.109554,-0.072347 0.262517,-0.072347 0.279052,0 0.39274,0.217041 0.115756,0.214974 0.115756,0.8123535 V 5.7224059 H 56.338678 V 4.3974223 q 0,-0.4898926 -0.05581,-0.6077149 -0.05374,-0.1198893 -0.198437,-0.1198893 -0.165365,0 -0.227376,0.1281576 -0.05994,0.1260905 -0.05994,0.5994466 V 5.7224059 H 55.449843 V 4.3974223 q 0,-0.4960938 -0.05994,-0.611849 -0.05788,-0.1157552 -0.21084,-0.1157552 -0.150895,0 -0.21084,0.1281576 -0.05788,0.1260905 -0.05788,0.5994466 v 1.3249836 h -0.345199 v -2.315104 h 0.345199 v 0.1984375 q 0.06821,-0.1240235 0.169498,-0.1881022 0.103353,-0.066146 0.233578,-0.066146 0.157096,0 0.260449,0.072347 0.10542,0.072347 0.163297,0.2191081 z" />
    <path
       id="path886"
       style="font-style:normal;font-variant:normal;font-weight:normal;font-stretch:normal;font-size:4.23333311px;font-family:'DejaVu Sans Mono';-inkscape-font-specification:'DejaVu Sans Mono, Normal';font-variant-ligatures:normal;font-variant-caps:normal;font-variant-numeric:normal;font-feature-settings:normal;text-align:start;writing-mode:lr-tb;text-anchor:start;stroke-width:0.26458332px"
       d="m 58.757135,4.1824483 q 0,-0.6800618 -0.14056,-0.9715169 -0.138493,-0.291455 -0.45682,-0.291455 -0.31626,0 -0.45682,0.291455 -0.138492,0.2914551 -0.138492,0.9715169 0,0.6779948 0.138492,0.9694498 0.14056,0.2914551 0.45682,0.2914551 0.318327,0 0.45682,-0.289388 0.14056,-0.2914551 0.14056,-0.9715169 z m 0.436149,0 q 0,0.8061523 -0.256315,1.2030273 -0.254248,0.396875 -0.777214,0.396875 -0.522965,0 -0.777213,-0.394808 -0.254248,-0.3948079 -0.254248,-1.2050943 0,-0.8082193 0.254248,-1.2050943 0.256315,-0.396875 0.777213,-0.396875 0.522966,0 0.777214,0.396875 0.256315,0.396875 0.256315,1.2050943 z" />
    <path
       id="path888"
       style="font-style:normal;font-variant:normal;font-weight:normal;font-stretch:normal;font-size:4.23333311px;font-family:'DejaVu Sans Mono';-inkscape-font-specification:'DejaVu Sans Mono, Normal';font-variant-ligatures:normal;font-variant-caps:normal;font-variant-numeric:normal;font-feature-settings:normal;text-align:start;writing-mode:lr-tb;text-anchor:start;stroke-width:0.26458332px"
       d="M 61.60554,4.2878682 V 5.7224059 H 61.223134 V 4.2878682 q 0,-0.3121256 -0.109554,-0.4588867 -0.109554,-0.146761 -0.343131,-0.146761 -0.266651,0 -0.411345,0.1901692 -0.142627,0.1881022 -0.142627,0.541569 v 1.3084472 h -0.380338 v -2.315104 h 0.380338 V 3.7545675 Q 60.317763,3.55613 60.491396,3.4548442 60.665029,3.3514913 60.90274,3.3514913 q 0.353467,0 0.5271,0.2335775 0.1757,0.2315104 0.1757,0.7027994 z" />
    <path
       id="path890"
       style="font-style:normal;font-variant:normal;font-weight:normal;font-stretch:normal;font-size:4.23333311px;font-family:'DejaVu Sans Mono';-inkscape-font-specification:'DejaVu Sans Mono, Normal';font-variant-ligatures:normal;font-variant-caps:normal;font-variant-numeric:normal;font-feature-settings:normal;text-align:start;writing-mode:lr-tb;text-anchor:start;stroke-width:0.26458332px"
       d="m 63.430751,4.5586527 h -0.12609 q -0.332796,0 -0.502295,0.1178223 -0.167432,0.1157552 -0.167432,0.3472656 0,0.2087728 0.126091,0.324528 0.12609,0.1157552 0.349332,0.1157552 0.314193,0 0.494027,-0.217041 0.179834,-0.2191081 0.181901,-0.6035807 v -0.084749 z m 0.73794,-0.1570963 V 5.7224059 H 63.786285 V 5.3792744 q -0.121956,0.2067057 -0.307991,0.3059245 -0.183968,0.097152 -0.448552,0.097152 -0.353467,0 -0.564306,-0.1984375 -0.21084,-0.2005046 -0.21084,-0.5353678 0,-0.3865397 0.258382,-0.5870443 0.260449,-0.2005045 0.762744,-0.2005045 h 0.510563 v -0.059945 q -0.0021,-0.2769856 -0.14056,-0.4010091 -0.138493,-0.1260905 -0.44235,-0.1260905 -0.194303,0 -0.392741,0.055811 -0.198437,0.05581 -0.38654,0.1632975 V 3.5127218 q 0.21084,-0.080615 0.403077,-0.1198893 0.194303,-0.041341 0.376204,-0.041341 0.287321,0 0.489893,0.084749 0.204638,0.084749 0.330729,0.254248 0.07855,0.1033529 0.111621,0.2563151 0.03307,0.1508952 0.03307,0.4547526 z" />
    <path
       id="path892"
       style="font-style:normal;font-variant:normal;font-weight:normal;font-stretch:normal;font-size:4.23333311px;font-family:'DejaVu Sans Mono';-inkscape-font-specification:'DejaVu Sans Mono, Normal';font-variant-ligatures:normal;font-variant-caps:normal;font-variant-numeric:normal;font-feature-settings:normal;text-align:start;writing-mode:lr-tb;text-anchor:start;stroke-width:0.26458332px"
       d="M 66.299826,3.702891 V 2.5060649 h 0.380338 v 3.216341 H 66.299826 V 5.4309508 q -0.09508,0.1715658 -0.254248,0.2625163 -0.157096,0.088883 -0.363802,0.088883 -0.419613,0 -0.661458,-0.324528 -0.239779,-0.326595 -0.239779,-0.8991699 0,-0.5643066 0.241846,-0.8847005 0.241845,-0.3224609 0.659391,-0.3224609 0.208773,0 0.367936,0.09095 0.159163,0.088883 0.250114,0.2604492 z m -1.118278,0.8640299 q 0,0.4423503 0.14056,0.6676595 0.14056,0.2253092 0.415478,0.2253092 0.274919,0 0.417546,-0.2273762 0.144694,-0.2273763 0.144694,-0.6655925 0,-0.4402831 -0.144694,-0.6655924 -0.142627,-0.2273763 -0.417546,-0.2273763 -0.274918,0 -0.415478,0.2253093 -0.14056,0.2253092 -0.14056,0.6676594 z" />
    <path
       id="path894"
       style="font-style:normal;font-variant:normal;font-weight:normal;font-stretch:normal;font-size:4.23333311px;font-family:'DejaVu Sans Mono';-inkscape-font-specification:'DejaVu Sans Mono, Normal';font-variant-ligatures:normal;font-variant-caps:normal;font-variant-numeric:normal;font-feature-settings:normal;text-align:start;writing-mode:lr-tb;text-anchor:start;stroke-width:0.26458332px"
       d="M 69.371474,4.4697693 V 4.6558044 H 67.72403 v 0.012402 q 0,0.3782715 0.19637,0.5849772 0.198437,0.2067057 0.558105,0.2067057 0.181901,0 0.380339,-0.057878 0.198437,-0.057878 0.423747,-0.1756998 V 5.604583 q -0.217041,0.088883 -0.419613,0.1322916 -0.200505,0.045475 -0.388607,0.045475 -0.539502,0 -0.843359,-0.322461 -0.303857,-0.3245279 -0.303857,-0.8929687 0,-0.5539713 0.297656,-0.8847004 0.297656,-0.3307292 0.79375,-0.3307292 0.44235,0 0.696598,0.2997233 0.256315,0.2997233 0.256315,0.8185547 z M 68.991136,4.3581482 q -0.0083,-0.3348633 -0.159164,-0.5084961 -0.148828,-0.1756999 -0.429948,-0.1756999 -0.274918,0 -0.452685,0.1819011 -0.177767,0.181901 -0.21084,0.5043619 z" />
  </g>
  <g
     id="text900"
     style="font-style:normal;font-variant:normal;font-weight:normal;font-stretch:normal;font-size:2.82222223px;line-height:125%;font-family:'DejaVu Sans Mono';-inkscape-font-specification:'DejaVu Sans Mono, Normal';font-variant-ligatures:normal;font-variant-caps:normal;font-variant-numeric:normal;font-feature-settings:normal;text-align:start;letter-spacing:0px;word-spacing:0px;writing-mode:lr-tb;text-anchor:start;fill:#000000;fill-opacity:1;stroke:none;stroke-width:0.26458332px;stroke-linecap:butt;stroke-linejoin:miter;stroke-opacity:1"
     aria-label="SCAN"
     transform="translate(-10.054166,26.197578)">
    <path
       id="path938"
       style="stroke-width:0.26458332px"
       d="m 119.62825,32.623953 v 0.282498 q -0.12678,-0.08131 -0.25494,-0.122646 -0.12678,-0.04134 -0.25631,-0.04134 -0.19706,0 -0.31144,0.09233 -0.11438,0.09095 -0.11438,0.246669 0,0.136425 0.0744,0.208083 0.0758,0.07166 0.28112,0.11989 l 0.14607,0.03307 q 0.28939,0.06752 0.42168,0.212217 0.13229,0.144694 0.13229,0.394119 0,0.293523 -0.1819,0.447863 -0.1819,0.15434 -0.52917,0.15434 -0.14469,0 -0.29076,-0.03169 -0.14608,-0.03032 -0.29353,-0.09233 v -0.296279 q 0.15848,0.100597 0.29904,0.147451 0.14194,0.04685 0.28525,0.04685 0.21084,0 0.32797,-0.09371 0.11714,-0.09508 0.11714,-0.264583 0,-0.15434 -0.0813,-0.235645 -0.0799,-0.0813 -0.27974,-0.125401 l -0.14883,-0.03445 q -0.28663,-0.06477 -0.41616,-0.195681 -0.12954,-0.130914 -0.12954,-0.3514 0,-0.275608 0.18466,-0.440972 0.18603,-0.166743 0.49334,-0.166743 0.11851,0 0.24942,0.02756 0.13091,0.02618 0.27561,0.07993 z" />
    <path
       id="path940"
       style="stroke-width:0.26458332px"
       d="m 121.41005,34.538048 q -0.10611,0.0565 -0.21773,0.08406 -0.11162,0.02894 -0.23702,0.02894 -0.3955,0 -0.61461,-0.279742 -0.21773,-0.279741 -0.21773,-0.786859 0,-0.504362 0.21911,-0.785482 0.22049,-0.282498 0.61323,-0.282498 0.1254,0 0.23702,0.02894 0.11162,0.02756 0.21773,0.08406 v 0.285254 q -0.10197,-0.08406 -0.21911,-0.128158 -0.11713,-0.0441 -0.23564,-0.0441 -0.27147,0 -0.40652,0.209462 -0.13505,0.209462 -0.13505,0.63252 0,0.421679 0.13505,0.631141 0.13505,0.209462 0.40652,0.209462 0.12127,0 0.23702,-0.0441 0.11713,-0.0441 0.21773,-0.128158 z" />
    <path
       id="path942"
       style="stroke-width:0.26458332px"
       d="m 122.47803,32.798964 -0.29352,1.052821 h 0.58704 z m -0.16812,-0.245291 h 0.33762 l 0.62976,2.057411 h -0.28801 l -0.15158,-0.536057 h -0.72072 l -0.14882,0.536057 h -0.28801 z" />
    <path
       id="path945"
       style="stroke-width:0.26458332px"
       d="m 123.51845,32.553673 h 0.35278 l 0.69453,1.693609 v -1.693609 h 0.26872 v 2.057411 h -0.35278 l -0.69453,-1.693609 v 1.693609 h -0.26872 z" />
  </g>
  <g
     id="text900-5"
     style="font-style:normal;font-variant:normal;font-weight:normal;font-stretch:normal;font-size:2.82222223px;line-height:125%;font-family:'DejaVu Sans Mono';-inkscape-font-specification:'DejaVu Sans Mono, Normal';font-variant-ligatures:normal;font-variant-caps:normal;font-variant-numeric:normal;font-feature-settings:normal;text-align:start;letter-spacing:0px;word-spacing:0px;writing-mode:lr-tb;text-anchor:start;fill:#000000;fill-opacity:1;stroke:none;stroke-width:0.26458332px;stroke-linecap:butt;stroke-linejoin:miter;stroke-opacity:1"
     aria-label="CPY/P">
    <path
       id="path949"
       style="stroke-width:0.26458332px"
       d="m 118.83105,22.545849 q -0.10611,0.0565 -0.21773,0.08406 -0.11162,0.02894 -0.23702,0.02894 -0.3955,0 -0.61461,-0.279742 -0.21773,-0.279741 -0.21773,-0.786859 0,-0.504362 0.21911,-0.785482 0.22049,-0.282498 0.61323,-0.282498 0.1254,0 0.23702,0.02894 0.11162,0.02756 0.21773,0.08406 v 0.285254 q -0.10197,-0.08406 -0.21911,-0.128158 -0.11713,-0.0441 -0.23564,-0.0441 -0.27147,0 -0.40652,0.209462 -0.13505,0.209462 -0.13505,0.63252 0,0.421679 0.13505,0.631141 0.13505,0.209462 0.40652,0.209462 0.12127,0 0.23702,-0.0441 0.11714,-0.0441 0.21773,-0.128158 z" />
    <path
       id="path951"
       style="stroke-width:0.26458332px"
       d="m 119.6,20.790228 v 0.77308 h 0.32246 q 0.19292,0 0.30041,-0.101975 0.10887,-0.101975 0.10887,-0.285254 0,-0.183279 -0.10749,-0.283876 -0.10749,-0.101975 -0.30179,-0.101975 z m -0.27837,-0.228754 h 0.60083 q 0.34451,0 0.52227,0.157096 0.17777,0.155719 0.17777,0.457509 0,0.304546 -0.17777,0.460265 -0.17638,0.155718 -0.52227,0.155718 H 119.6 v 0.826823 h -0.27837 z" />
    <path
       id="path953"
       style="stroke-width:0.26458332px"
       d="m 120.79889,20.561474 h 0.29628 l 0.5016,0.908127 0.50023,-0.908127 h 0.29904 l -0.66008,1.134125 v 0.923286 h -0.27975 v -0.923286 z" />
    <path
       id="path955"
       style="stroke-width:0.26458332px"
       d="m 123.67072,20.561474 h 0.26183 l -1.08314,2.319238 h -0.2632 z" />
    <path
       id="path958"
       style="stroke-width:0.26458332px"
       d="m 124.69323,20.790228 v 0.77308 h 0.32246 q 0.19292,0 0.30041,-0.101975 0.10886,-0.101975 0.10886,-0.285254 0,-0.183279 -0.10748,-0.283876 -0.10749,-0.101975 -0.30179,-0.101975 z m -0.27837,-0.228754 h 0.60083 q 0.34451,0 0.52227,0.157096 0.17777,0.155719 0.17777,0.457509 0,0.304546 -0.17777,0.460265 -0.17639,0.155718 -0.52227,0.155718 h -0.32246 v 0.826823 h -0.27837 z" />
  </g>
  <g
     id="text900-5-5"
     style="font-style:normal;font-variant:normal;font-weight:normal;font-stretch:normal;font-size:2.82222223px;line-height:125%;font-family:'DejaVu Sans Mono';-inkscape-font-specification:'DejaVu Sans Mono, Normal';font-variant-ligatures:normal;font-variant-caps:normal;font-variant-numeric:normal;font-feature-settings:normal;text-align:start;letter-spacing:0px;word-spacing:0px;writing-mode:lr-tb;text-anchor:start;fill:#000000;fill-opacity:1;stroke:none;stroke-width:0.26458332px;stroke-linecap:butt;stroke-linejoin:miter;stroke-opacity:1"
     aria-label="SEL">
    <path
       id="path962"
       style="stroke-width:0.26458332px"
       d="m 120.44611,8.1952858 v 0.2824979 q -0.12678,-0.081304 -0.25494,-0.1226454 -0.12678,-0.041341 -0.25631,-0.041341 -0.19706,0 -0.31144,0.092329 -0.11437,0.09095 -0.11437,0.2466688 0,0.1364258 0.0744,0.2080838 0.0758,0.071658 0.28112,0.1198893 l 0.14607,0.033073 q 0.28939,0.067524 0.42168,0.2122179 0.13229,0.144694 0.13229,0.3941189 0,0.2935222 -0.1819,0.447863 -0.1819,0.15434 -0.52917,0.15434 -0.14469,0 -0.29076,-0.03169 -0.14607,-0.03032 -0.29352,-0.09233 V 9.8020784 q 0.15847,0.1005968 0.29903,0.1474501 0.14194,0.046853 0.28525,0.046853 0.21084,0 0.32798,-0.093707 0.11713,-0.095085 0.11713,-0.2645834 0,-0.1543403 -0.0813,-0.2356445 -0.0799,-0.081304 -0.27974,-0.1254015 l -0.14883,-0.034451 q -0.28663,-0.064768 -0.41617,-0.1956815 -0.12954,-0.1309136 -0.12954,-0.3513997 0,-0.2756076 0.18466,-0.4409722 0.18604,-0.1667426 0.49334,-0.1667426 0.11851,0 0.24942,0.027561 0.13092,0.026183 0.27561,0.079926 z" />
    <path
       id="path965"
       style="stroke-width:0.26458332px"
       d="m 121.02075,8.1250059 h 1.22094 v 0.2342665 h -0.94257 v 0.6090929 h 0.90123 v 0.2342665 h -0.90123 v 0.7455186 h 0.96876 v 0.2342666 h -1.24713 z" />
    <path
       id="path967"
       style="stroke-width:0.26458332px"
       d="m 122.7433,8.1250059 h 0.27974 v 1.8231445 h 0.99357 v 0.2342666 h -1.27331 z" />
  </g>
  <path
     style="fill:none;fill-rule:evenodd;stroke:#000000;stroke-width:0.26458332px;stroke-linecap:butt;stroke-linejoin:miter;stroke-opacity:1"
     d="m 111.57569,82.954528 c 0,-16.493132 0,-16.493132 0,-16.493132"
     id="path948-9" />
</svg>
