<?xml version="1.0" encoding="UTF-8" standalone="no"?>
<svg
   xmlns:osb="http://www.openswatchbook.org/uri/2009/osb"
   xmlns:dc="http://purl.org/dc/elements/1.1/"
   xmlns:cc="http://creativecommons.org/ns#"
   xmlns:rdf="http://www.w3.org/1999/02/22-rdf-syntax-ns#"
   xmlns:svg="http://www.w3.org/2000/svg"
   xmlns="http://www.w3.org/2000/svg"
   xmlns:sodipodi="http://sodipodi.sourceforge.net/DTD/sodipodi-0.dtd"
   xmlns:inkscape="http://www.inkscape.org/namespaces/inkscape"
   id="svg12553"
   version="1.1"
   viewBox="0 0 119.0625 100.54166"
   height="380"
   width="450"
   sodipodi:docname="LIMONADE.svg"
   inkscape:version="0.92.3 (2405546, 2018-03-11)">
  <sodipodi:namedview
     pagecolor="#ffffff"
     bordercolor="#666666"
     borderopacity="1"
     objecttolerance="10"
     gridtolerance="10"
     guidetolerance="10"
     inkscape:pageopacity="0"
     inkscape:pageshadow="2"
     inkscape:window-width="3840"
     inkscape:window-height="2066"
     id="namedview79"
     showgrid="false"
     inkscape:zoom="1.7566022"
     inkscape:cx="47.647702"
     inkscape:cy="61.862536"
     inkscape:window-x="-11"
     inkscape:window-y="-11"
     inkscape:window-maximized="1"
     inkscape:current-layer="svg12553" />
  <defs
     id="defs12547">
    <linearGradient
       id="linearGradient4708"
       osb:paint="solid">
      <stop
         style="stop-color:#ececec;stop-opacity:1;"
         offset="0"
         id="stop4706" />
    </linearGradient>
    <filter
       style="color-interpolation-filters:sRGB"
       id="filter4696">
      <feColorMatrix
         in="SourceGraphic"
         values="0 0 0 0 1 0 0 0 0 0 0 0 0 0 0 1 0 0 0 0 0 "
         result="colormatrix"
         id="feColorMatrix4692" />
      <feBlend
         in2="BackgroundImage"
         mode="multiply"
         result="fbSourceGraphic"
         id="feBlend4694" />
      <feColorMatrix
         result="fbSourceGraphicAlpha"
         in="fbSourceGraphic"
         values="0 0 0 -1 0 0 0 0 -1 0 0 0 0 -1 0 0 0 0 1 0"
         id="feColorMatrix4762" />
      <feColorMatrix
         id="feColorMatrix4764"
         values="1 0 0 0 0 0 1 0 0 0 0 0 1 0 0 0 0 0 5 -1 "
         result="colormatrix"
         in="fbSourceGraphic" />
      <feComposite
         in2="colormatrix"
         id="feComposite4766"
         operator="arithmetic"
         k2="0.3"
         result="composite"
         k1="0"
         k3="0"
         k4="0" />
    </filter>
  </defs>
  <metadata
     id="metadata12550">
    <rdf:RDF>
      <cc:Work
         rdf:about="">
        <dc:format>image/svg+xml</dc:format>
        <dc:type
           rdf:resource="http://purl.org/dc/dcmitype/StillImage" />
        <dc:title />
      </cc:Work>
    </rdf:RDF>
  </metadata>
  <g
     transform="matrix(0.99853984,0,0,1.0012215,-26.578381,-161.56553)"
     id="layer1">
    <path
       style="fill:#e6e6e6;fill-opacity:1;fill-rule:nonzero;stroke:none;stroke-width:0.32258889"
       d="M 26.616839,161.37987 H 145.85344 v 100.3961 H 26.616839 Z m 0,0"
       id="path33453"
       inkscape:connector-curvature="0" />
  </g>
  <path
     style="opacity:0.05;fill:#000000;stroke-width:0.20766117"
     d="m 25.877433,103.46222 c -0.293293,-2.75911 2.544643,-6.685118 1.132656,-1.69505 -0.06444,0.32192 0.02661,2.78135 -1.132656,1.69505 z m 65.145556,-1.40933 C 90.46157,99.250673 89.504938,92.41199 87.32912,97.944872 81.302676,99.680025 74.954666,97.547291 68.799818,97.495556 62.304964,96.912851 55.723623,96.475825 49.471315,94.733293 47.587108,91.025713 37.089431,96.45462 36.918019,92.395874 34.200981,90.641925 28.222212,92.74997 27.430584,96.667688 28.32901,89.549048 16.90783,91.076636 13.933922,86.3339 c -1.773572,-3.456464 1.298333,-0.948443 1.748712,-0.850137 2.059217,-3.961386 -10.4614755,-3.891759 -3.283792,-5.66351 1.314636,-1.622052 6.068555,-1.064212 1.419424,-2.932725 -4.8500412,-0.58711 -5.3184514,6.407167 -10.9654561,2.67597 -6.0741983,0.36213 -2.7905871,-3.659503 -2.1232007,-6.77356 -3.0276964,-0.866256 2.2354524,-5.97178 3.4166853,-8.523574 C 5.4768939,59.333359 15.367728,64.157922 15.551446,59.546632 13.733581,52.932837 4.9309165,53.899106 -0.8403893,55.457983 -5.597943,54.588302 -3.0449409,49.246456 -3.6126012,46.112834 -4.1448405,41.647208 3.4670655,39.570516 7.6351346,39.755503 10.71826,40.767317 9.070963,48.178841 10.617549,47.716746 10.204304,43.805629 9.9455991,33.82051 10.815952,33.880275 c -0.02363,1.977278 -0.469264,8.49616 0.287936,7.685521 1.032915,-10.621474 1.503041,-21.291358 2.854097,-31.8796135 1.021679,-3.5870075 5.463409,-3.617472 10.363208,-3.3052639 -2.602189,-0.1392354 -8.090966,0.7511812 -2.318032,0.5050066 6.74099,-0.1241057 -5.962342,0.6465591 0.292132,0.9328524 6.616905,0.3010871 -5.999474,1.0748145 0.585153,0.409029 5.519752,1.2676042 1.565823,7.6463204 -2.348094,3.6406104 -4.864311,-2.2677363 -4.34559,2.273721 0.13904,2.143604 9.51839,0.04153 2.712431,11.206993 4.16906,16.273796 -0.580341,5.152188 3.064706,13.697469 -4.705756,15.396394 -1.550741,3.261465 5.787541,6.983032 5.370227,4.457903 -1.216605,-1.04097 -6.618623,-3.371762 -2.743155,-4.399867 2.907091,3.394287 5.506386,8.768701 11.410611,5.316056 -5.214686,-2.605773 7.018504,-8.157265 5.264555,-9.709453 -4.05813,2.428593 -9.683914,-5.95867 -5.940504,-4.454932 -4.78263,-3.053715 -3.839723,-9.582741 0.0846,-12.862265 4.317735,-1.730092 11.546756,-3.669421 11.038596,3.065112 -0.07946,5.537147 -2.508356,15.123049 6.361409,16.330136 7.207164,0.539054 2.023814,-8.010405 3.523422,-11.606455 -0.637036,-3.377447 -1.615281,-10.080385 4.021116,-6.904425 2.309228,-2.779179 -9.530073,-6.418527 -1.265278,-7.459423 8.094784,-3.276542 -7.692795,-3.167882 -4.61377,-9.1548612 0.682478,-5.647609 7.202023,0.564735 8.554934,-2.1623559 2.086291,3.4046279 3.106159,-1.6598436 2.660273,0.019107 3.333236,-1.0427145 10.220924,-4.2723322 13.312134,-1.6440953 -3.550962,2.105996 6.03176,6.6483534 5.892422,2.580219 2.219482,-1.3347732 12.231663,0.8343596 5.046128,1.2354378 2.212326,1.1900558 2.170732,4.1838986 4.247466,3.7977946 0.316538,7.981621 -0.316119,15.982529 0.448424,23.952051 4.488858,-0.432863 -2.452549,7.675778 3.628912,3.905658 7.196812,-3.655369 8.699612,-11.84481 8.240392,-18.449403 0.2987,-5.133907 -5.625417,-9.555641 -5.645756,-13.8059619 4.129086,-0.1041551 14.632546,-5.1771673 13.165676,1.9504764 0.98923,12.6426515 3.60774,25.7519625 -1.11917,38.0876775 5.68437,-0.838045 18.9812,-3.075332 18.58663,4.221955 -1.33613,2.93015 1.61573,10.620813 0.20161,10.387022 -1.23075,-6.168511 -9.95601,-1.849011 -7.63664,2.013741 5.04233,2.111353 9.81395,5.055209 8.20172,10.319127 0,1.976329 0,3.952655 0,5.928983 -2.66166,-0.07689 2.90874,5.674851 -2.5346,5.062463 -3.71027,0.199587 -10.63354,2.523662 -9.02389,5.448701 -2.10536,-3.913804 -0.9123,-1.132535 -0.4288,1.476425 -0.22376,-1.631364 -3.0775,0.706149 -3.71917,-1.059049 -1.19463,5.058966 -12.65381,4.42783 -18.038127,6.826371 -4.708569,-2.966821 -3.753762,8.198029 -5.664104,3.660809 z M 78.490008,96.46454 c 8.875942,-1.33659 17.871115,-6.182262 20.503405,-13.997936 2.077557,-1.929577 2.747307,-11.152976 -1.448087,-8.250776 0.06188,3.901676 -3.754933,5.451928 -2.276586,9.837061 -1.204707,5.836969 -10.968996,7.55191 -12.944604,1.065542 5.405208,3.811261 1.013676,10.454348 -5.359993,8.745982 -8.566081,0.658013 -4.5423,-9.30963 -5.019801,-13.61848 -1.085724,2.660203 0.467418,13.100463 -4.759928,10.166297 3.457293,-2.734681 -0.374603,-3.19534 -0.614389,0.371437 -4.569184,4.901453 -8.87719,-3.960946 -9.722037,-4.604487 -6.785304,-1.079636 -5.700058,-7.698966 -5.435369,-11.606733 -4.467258,-0.487823 -0.631085,-8.033489 -0.01583,-9.888065 1.875316,-3.25678 -7.310331,-3.276909 -9.209162,-5.995289 -5.777633,-1.202844 -13.132479,7.67481 -5.320322,9.916427 3.708689,2.973438 8.650222,1.228061 8.98415,-2.451141 -1.308531,4.8415 -0.883752,9.799601 0.882654,14.562412 3.033123,8.407936 12.083413,14.846132 22.333518,15.376959 3.120145,0.36198 6.277159,0.481717 9.422386,0.37079 z M 66.271104,92.866521 c -1.307511,-2.926565 2.224199,-0.506322 0,0 z M 42.526815,69.256624 c 0.69294,-1.009537 2.230798,0.445096 0,0 z m 7.177123,-1.64237 c -0.05982,-1.552119 0.750055,0.945099 0,0 z m -7.071035,-0.488742 c 0.513204,-0.815535 0.513207,0.815533 0,0 z m 0.670225,-0.193024 c 0.45224,-0.801787 0.3198,0.753793 0,0 z m 0.223415,-0.664191 c 0.286871,-1.173649 0.557053,0.717821 0,0 z m -6.250967,-0.788152 c 0.627337,-0.12698 0.315717,-0.06391 0,0 z M 36.824281,65.11634 c 0.287767,-0.915719 0.979579,0.139664 0,0 z m 2.122381,-0.307111 c 2.283624,-0.962289 -0.589559,0.782831 0,0 z M 35.707234,64.34732 c 0.410158,-0.774869 0.730509,0.394221 0,0 z m 3.016014,-0.117163 c 0.441255,-0.74944 0.662362,0.927321 0,0 z m -3.057904,-0.517904 c 1.058228,-0.632523 0.179569,0.51044 0,0 z m 3.951545,-2.184427 c 0.841432,-0.992024 0.643922,0.837595 0,0 z m -1.005344,-1.079738 c 1.474888,-2.458636 1.754497,2.39455 0,0 z m 49.749353,35.208734 c -0.606696,0.141938 0.758532,0.936318 0,0 z M 50.266194,92.945778 c -1.101818,0.418412 0.956245,1.42187 0,0 z m 1.46174,0.430945 c 3.872332,-2.147498 -2.142355,-1.208633 0,0 z M 54.58527,92.41161 c -0.662362,-0.927338 -0.441256,0.74944 0,0 z m 57.90377,-0.229214 c -0.60669,0.141939 0.75853,0.936318 0,0 z M 74.029228,91.456827 c 0.781773,-2.412794 -2.544806,1.057283 0,0 z m 33.909882,0.256834 c -0.96624,-0.815084 0.51064,1.809254 0,0 z m 8.48087,-1.135775 c -1.03171,-4.063928 -1.2569,0.374144 -0.018,0.625331 l 0.009,-0.312971 z m -7.21127,0.482553 c -0.46798,-1.417711 -0.19188,1.348362 0,0 z m 4.80329,0.193029 c -0.66236,-0.927337 -0.44126,0.749439 0,0 z M 44.420174,90.569504 c 2.356585,0.901067 9.69351,-2.136999 3.282544,-1.496873 -1.855132,0.921997 -7.884021,0.406739 -3.471081,-1.279465 -1.404441,-2.288897 -0.295744,-7.981856 0.253193,-2.486726 1.77584,4.988809 6.690442,0.09032 2.074869,-2.417674 -3.863224,-2.89812 -10.734787,-3.058883 -14.799592,-3.652972 -4.026265,1.702653 -13.572573,7.847787 -4.300768,8.915138 -2.116369,0.926615 -9.420717,-0.199544 -2.451496,1.617904 6.35532,1.307085 12.943482,0.951266 19.412331,0.800668 z m -9.941688,-0.103937 c -0.938588,-1.250327 3.48539,0.538859 0,0 z m 5.585213,-0.949312 c 1.385509,-1.119929 0.638593,0.900775 0,0 z M 28.72571,89.195397 c 0.906748,-0.624573 0.474656,0.458157 0,0 z m 14.800833,-1.030312 c 0.513209,-0.815544 0.51319,0.815544 0,0 z M 28.36066,87.553849 c -1.764888,-1.103813 0.756993,-0.41073 0,0 z m -0.320071,-1.058414 c -1.098118,-0.950763 0.685936,-3.616139 0.334355,-1.099137 z m 3.886332,-7.129007 c 0.249385,-0.70204 0.11194,0.985588 0,0 z m 19.865742,11.307969 c -0.452223,-0.8018 -0.319818,0.753788 0,0 z m 65.301997,-0.379725 c -1.03725,-3.170383 -0.52398,0.986635 0,0 z m -3.33699,-0.488885 c -1.07889,-1.327665 0.009,1.071794 0,0 z m 0.74205,-0.325724 c -0.60669,0.141953 0.75854,0.936319 0,0 z m -4.28567,0.03619 c -0.61003,-0.93216 -0.40631,0.825363 0,0 z M 75.848467,89.158428 c 0.432709,-4.402844 -3.035866,-0.90303 0,0 z M 64.838175,88.824879 c 1.479745,-1.731901 -0.683141,-1.173258 -0.433437,0.08607 z m 1.808474,-0.322003 c 0.529359,-2.71389 0.560733,-8.006959 -0.137883,-2.257316 0.255938,0.182692 -0.958265,2.637975 0.137883,2.257316 z m 7.398452,-0.09248 c -1.216342,0.04209 0.890121,0.923122 0,0 z m 5.226836,0.129355 c -0.774491,-0.679682 -0.142823,1.164058 0,0 z M 59.313112,88.116833 c -0.53031,0.410111 0.722927,0.783415 0,0 z m 0.969086,0.241281 c -0.515231,-1.415604 -0.515231,1.415603 0,0 z m 20.777011,-0.09721 c -0.44368,-2.32336 -1.317466,-0.335849 0,0 z m 18.968821,-0.37014 c 10.71215,-1.852742 16.56053,-11.36726 17.79346,-20.041738 2.06575,-13.542585 -12.02225,-27.054333 -27.945213,-26.057563 -8.332468,0.351796 -16.880583,4.007207 -20.309291,10.893343 -3.080077,5.242748 -3.078974,11.013372 -1.789038,16.686462 0.923037,3.23978 -4.495998,1.888038 0.800766,3.348315 2.71709,1.777551 4.91046,1.198973 7.691544,1.404358 4.344807,-3.141056 -8.514849,-2.447487 -1.749212,-4.357273 3.719932,-0.777547 6.383488,-2.19809 1.274969,-0.258667 -7.754492,2.29383 -9.764114,-7.93988 -4.804801,-11.347411 0.0287,-4.125579 3.274062,-11.939154 9.096985,-8.443618 -1.623604,-8.848711 16.176866,-4.757028 10.527437,2.735356 -1.671,4.497668 4.015229,7.207244 -1.165686,10.692205 6.168551,-2.569012 2.614388,2.651741 0.381211,3.013867 2.363945,3.562458 9.902471,0.06865 7.626069,-2.362265 1.950179,-1.173727 10.55419,-4.729416 3.37331,-4.011335 -0.77954,1.961144 -7.344842,5.278306 -3.916753,0.904994 4.476283,-3.820145 -5.601668,3.225056 -4.64929,-2.650549 0.539824,-4.455652 -5.057059,-14.710006 4.457558,-13.500629 5.520765,2.974035 13.137575,4.720907 14.681835,11.12963 0.84488,3.875617 6.80747,7.806454 3.40135,13.014186 -4.65717,2.022245 0.1813,6.735847 -4.32998,10.106483 -2.28818,4.364578 -10.29009,6.105592 -12.122257,9.179238 l 0.669814,0.01029 z M 91.782832,66.739465 c 0.605474,-0.773267 0.584689,0.947117 0,0 z m 2.7926,-0.772095 c 0.441257,-0.749438 0.662367,0.927321 0,0 z m 24.009338,22.245974 c -0.1784,-1.75834 -1.32788,0.190051 0,0 z M 45.494074,87.677425 c -0.660808,0.24112 -0.09947,0.798108 0,0 z m 36.092045,-0.395527 c -1.722461,-1.292515 1.68953,2.556463 0,0 z m 5.505126,0.690166 c -0.584708,-0.947123 -0.605488,0.773274 0,0 z m 30.160185,-0.08512 c -0.31546,-0.792892 -0.6867,0.48275 0,0 z M 79.256232,86.572642 c -1.336778,-1.639331 0.250399,2.672452 0,0 z m 12.728646,0.74607 c -0.524336,-1.578203 -1.768751,1.158702 0,0 z M 72.569675,86.919515 c 2.495591,-2.021434 2.651596,-6.793386 -0.10861,-2.639754 -0.545223,0.783283 -0.641266,1.922188 0.10861,2.639754 z M 60.302252,86.379621 c 2.997077,-2.842559 -5.048068,1.091177 0,0 z m 2.214031,0.241279 c -0.513212,-0.815543 -0.513212,0.815544 0,0 z m 17.984403,-0.19302 c -0.319776,-0.753811 -0.452259,0.801776 0,0 z M 16.49408,86.34276 c -0.315454,-0.792905 -0.686697,0.482779 0,0 z m 45.862327,-0.668498 c 1.065602,-1.920742 -2.245318,2.142552 0,0 z m 6.862137,-0.608938 c -0.591286,-0.987204 -0.27884,1.500273 0,0 z M 20.42546,83.704805 c -1.700796,-0.628993 -0.146952,2.543907 0,0 z m 56.165573,1.203009 c 1.147149,-1.197078 -2.193571,-2.878802 0,0 z M 115.7052,84.226461 c -1.51001,-2.85725 3.30612,-0.183187 3.60867,-1.625644 4.67065,0.313454 -2.07823,-4.287136 -3.98318,-1.402107 -2.59371,-1.018135 -1.976,4.159273 -1.52931,0.43142 0.93461,0.389092 1.05352,2.891685 1.90382,2.596331 z m 1.82495,-1.3417 c -1.72257,-3.102681 1.23746,0.847023 0,0 z m 1.973,-1.009025 c 0.24938,-0.702041 0.11194,0.985591 0,0 z m 0.87599,0.101202 c 0.6867,-0.482751 0.31545,0.792892 0,0 z M 78.601711,84.1002 c -0.585192,-2.384809 0.01708,2.854596 0,0 z m 1.868063,0.493949 c -0.757565,-1.153371 -0.39529,1.060384 0,0 z m -20.746099,-0.09651 c -0.319819,-0.753787 -0.452223,0.8018 0,0 z m 17.76099,-0.314714 c -0.366765,-3.7434 -1.027274,1.545643 0,0 z m -2.081471,-0.107519 c -0.606702,0.141931 0.758517,0.936339 0,0 z M 62.473135,83.623928 c -0.660834,0.241135 -0.09942,0.798086 0,0 z m 21.713792,0.1107 c -0.823797,-3.012809 -3.341208,-3.55938 -0.743515,-0.35778 z m 2.680905,0.183939 c -0.452256,-0.801777 -0.319764,0.753796 0,0 z M 60.914418,83.049301 c -1.240025,0.843163 -0.85556,1.459083 0,0 z m 14.488776,0.254003 c -0.6067,0.141953 0.758518,0.936318 0,0 z m 2.457489,0 c -0.606694,0.141968 0.758545,0.936304 0,0 z m 25.518407,-0.08216 c -1.23793,-0.589817 0.57357,1.161592 0,0 z m 18.78733,0.311389 c -0.51321,-0.815551 -0.51323,0.815557 0,0 z M 58.66918,82.949727 c -0.252311,-1.390997 -1.456242,2.364177 0,0 z m 54.33037,0.224353 c -0.32549,-1.690084 -1.23692,0.774464 0,0 z M 56.561035,82.913621 c 0.120009,-1.425583 -1.311669,1.522707 0,0 z m -36.045598,0.03982 c -0.584704,-0.947115 -0.605482,0.773274 0,0 z m 45.789736,-1.44767 c -1.447549,0.766505 -0.220052,2.260466 0,0 z m 56.531477,1.158142 c 0.71154,-1.641585 6.22376,-0.914185 1.07786,-2.311338 -2.51525,-0.996387 -4.24064,2.137183 -1.07786,2.311338 z m -59.20332,0.09651 c -0.319798,-0.753795 -0.452243,0.801778 0,0 z m 7.063081,-0.08478 c 0.701121,-3.325061 -1.437268,1.22102 0,0 z m -8.997345,-0.194918 c -0.501869,-0.732494 -0.531588,1.216066 0,0 z m 7.296073,0.08669 c -0.513197,-0.815536 -0.513216,0.815544 0,0 z m 12.06407,-0.193028 c -0.467985,-1.417711 -0.19188,1.348361 0,0 z m 0.814245,-0.252472 c -0.01625,-2.462017 -5.035092,-5.967134 -1.61915,-1.641591 0.321418,0.149897 2.179699,3.519365 1.61915,1.641591 z m -12.878315,-0.02566 c -0.315466,-0.792891 -0.686689,0.482779 0,0 z M 14.720966,80.637162 c 0.180133,-1.257079 -1.418765,1.01929 0,0 z m 58.448033,0.798466 c 1.508807,-2.795661 -1.575233,-1.961303 0,0 z m 7.247249,-0.156661 c -0.979689,-0.589533 0.907808,1.546949 0,0 z M 75.6974,81.227607 c -0.142839,-1.164051 -0.774479,0.679697 0,0 z m 52.27765,-0.204409 c -0.76876,-1.418381 -0.63178,1.38521 0,0 z M 60.840713,80.83017 c -0.319802,-0.753789 -0.45222,0.801799 0,0 z M 5.9938711,79.865072 c -0.655827,-2.381617 -0.4850403,2.230927 0,0 z m 56.0519649,0.21209 c 2.598925,-2.721564 -2.586821,1.789266 0,0 z m 8.890572,-0.742905 c -0.529536,0.50207 0.760746,1.195781 0,0 z m 5.89898,-0.300387 c -1.192294,0.09027 1.535172,1.626667 0,0 z m 9.543167,0.201972 c -0.805397,-2.679398 -1.243215,1.423163 0,0 z m -21.404774,0.146671 c -0.248794,-1.037115 -0.45764,1.100937 0,0 z m -21.500493,-0.03612 c -0.820529,0.05079 -1.613866,0.09989 0,0 z m 14.121528,-0.05286 c 0.701334,-1.371698 -1.754732,1.053093 0,0 z m 20.892727,-0.786332 c -1.351769,-1.052149 0.674643,2.757732 0,0 z m -3.434455,0.312325 c 2.28721,-1.186809 -2.636055,-1.190669 0,0 z m -2.777619,-0.148788 c -0.606697,0.14196 0.758542,0.936316 0,0 z m 0.670225,0 c -0.606696,0.14196 0.758543,0.936316 0,0 z M 53.803342,78.513909 c 0.677651,-1.840642 -1.96429,1.214852 0,0 z m 11.840666,0.193023 c -0.513205,-0.815534 -0.513207,0.815534 0,0 z m 28.484608,-0.193023 c -1.940861,-2.349324 -4.030938,-2.341507 -0.650313,0.07339 l 0.406619,0.162967 z M 8.181552,77.190118 c -2.5303859,-0.860415 0.020332,2.840273 0,0 z m 80.273333,0.687544 c -2.290811,-0.885172 0.984537,1.227021 0,0 z m 14.067835,-0.971094 c -1.01765,0.88382 1.29347,1.818511 0,0 z m -57.659153,1.076523 c -1.122844,-1.367385 -2.020005,1.207665 0,0 z M 71.381836,77.70562 c -0.606701,0.141945 0.758519,0.936327 0,0 z m -15.34441,0.03619 c -0.452234,-0.801788 -0.319786,0.75379 0,0 z m 16.233389,-0.434302 c -0.530278,0.410098 0.722894,0.78342 0,0 z m 5.884076,0.448089 c -0.26155,-2.594682 -1.69496,-0.0053 0,0 z M 35.003933,77.627148 c 7.722954,-0.6074 -3.151288,-2.130338 -3.866124,-0.09463 1.255477,0.31387 2.58691,0.180237 3.866124,0.09463 z m 24.100711,-0.002 c -0.657631,-0.401334 -0.401956,0.447143 0,0 z M 70.33559,77.332932 c -0.895211,-0.407489 -0.07051,0.99501 0,0 z m -10.276807,0.02279 c -0.319788,-0.75379 -0.452232,0.801791 0,0 z m -0.900647,-0.820349 c -1.37344,-0.451635 -0.837922,1.80248 0,0 z m 29.273563,0.71638 c -1.126694,-2.317112 -3.450539,-1.603366 0,0 z M 55.753512,77.046068 c -0.65763,-0.401334 -0.401955,0.447144 0,0 z M 70.71161,76.740483 c -0.606702,0.141945 0.758518,0.936327 0,0 z m 5.496429,0.03318 c -0.659281,-2.206766 -0.630527,1.709 0,0 z m 17.697169,0.196032 c -0.662366,-0.927324 -0.441248,0.749441 0,0 z M 8.8981852,76.390647 c -0.7687627,-1.418374 -0.6317596,1.385221 0,0 z m 7.6583118,-0.0076 c -0.748206,-1.055723 0.315663,1.354669 0,0 z m 2.042681,-1.440015 c 2.8114,-1.742812 2.962907,-7.420274 0.420489,-2.158203 -0.539927,0.71089 -2.149423,5.160042 -0.420489,2.158168 z m 25.983895,1.717071 c -0.65762,-0.401321 -0.401954,0.447138 0,0 z M 11.135304,76.344214 c 1.926854,-1.001446 2.69299,-4.921507 4.128201,-0.980984 4.296755,-1.462351 -5.225576,-4.587236 -4.155944,-0.100308 -0.390804,0.240613 -1.4067188,1.750706 0.02775,1.081292 z m 6.441169,-1.69078 c -1.48416,0.916055 0.0081,2.184631 0,0 z M 36.2512,75.856981 c 2.087207,-0.859767 -6.96846,-0.704425 -8.962288,-0.994769 -4.0389,-0.771454 -3.768131,0.616132 0.232391,0.658667 2.881013,0.365247 5.825361,0.762437 8.729897,0.336102 z m 17.105321,0.228045 c -0.757516,-0.856726 -0.437488,1.177935 0,0 z m 12.654513,0.01607 c 0.437618,-1.198445 -1.529837,1.386466 0,0 z m -12.095989,-0.0965 c -0.319796,-0.753781 -0.452224,0.801787 0,0 z M 2.4193317,75.715064 c -0.2487863,-1.037116 -0.4576334,1.100936 0,0 z m 3.0758751,-0.09651 c -0.7886842,-3.629757 -3.0146644,2.38085 0,0 z m 1.6157082,0.193021 c -0.3197943,-0.753791 -0.452236,0.801788 0,0 z m 7.14908,-0.193023 c -1.930104,-1.862712 -2.252726,1.879645 0,0 z m 79.314157,0.0066 c -2.761336,-2.400624 -3.21939,1.228427 0,0 z M 9.3450021,75.425528 c 0.3201136,-1.460814 -1.3913153,1.528338 0,0 z m 109.3585779,0.07595 c -2.23318,-1.295168 -1.42454,0.634206 0,0 z m -32.729381,-0.0065 c 6.496723,-3.491356 -5.511554,-0.691457 0,0 z m -32.170857,-0.84159 c 1.572075,-1.631713 -3.995604,1.978292 0,0 z m 54.846848,-0.102495 c -2.72954,-1.604051 1.7419,1.518657 0,0 z M 3.0895579,74.653434 c -0.5132046,-0.815543 -0.5132088,0.815541 0,0 z M 8.3582806,74.46041 C 14.588012,74.023304 4.2433103,71.114147 7.5116069,74.849588 7.8208397,74.825118 8.0714962,74.561856 8.3582806,74.46041 Z M 102.31075,74.022889 c -0.82791,-0.216805 1.15752,1.058848 0,0 z m -5.389525,0.163773 c -0.265126,-1.910921 -2.129779,0.755448 0,0 z m -78.93408,-0.534538 c -0.606695,0.141949 0.758514,0.936322 0,0 z m 35.14597,0.229215 c -0.605486,-0.773272 -0.584691,0.947116 0,0 z m 7.409498,-0.434538 c 3.274382,-1.981455 -3.344932,0.83831 0,0 z m 27.554947,0.240152 c 4.647299,-4.404421 -12.275348,-0.541828 -2.561112,-1.077265 2.57112,-1.409367 1.42375,1.67549 2.561112,1.077265 z m 4.802303,-0.191661 c -1.699285,-2.160715 -1.539321,1.893333 0,0 z m 18.794067,-0.05147 c -0.82792,-0.216804 1.1575,1.058848 0,0 z M 3.1454101,73.552097 c -1.9472808,-0.694624 -0.7608306,0.452439 0,0 z m 61.2139909,0.0084 c -0.906743,-0.624585 -0.474657,0.458165 0,0 z m -58.3879304,-0.3314 c -0.1005614,-1.241342 -1.2361412,0.812012 0,0 z m 52.6351574,0.07318 c 0.876264,-0.767063 -2.619389,1.133057 0,0 z m -23.64759,-0.836854 c -4.444291,-3.870543 -2.807516,3.548482 0,0 z m 72.462402,0.643827 c -0.45224,-0.801789 -0.3198,0.753791 0,0 z M 18.393056,72.916221 c -0.61003,-0.932174 -0.406302,0.82537 0,0 z m 34.45688,-0.04826 c 2.764583,-3.709142 -3.952605,0.279279 0,0 z m 4.527942,-0.33779 c -0.05842,-3.623768 -2.112157,1.663412 0,0 z m 23.122808,0.386047 c -0.321425,-0.82469 -0.612399,0.745646 0,0 z M 102.6055,72.202133 c -2.01489,-1.05261 0.68491,1.283618 0,0 z m -11.736239,-0.09018 c -1.626903,-1.872083 -0.219018,1.349728 0,0 z m 0.488571,-0.685603 c -1.074558,-0.454576 1.412567,2.536078 0,0 z m 8.61425,-0.144523 c -1.179019,-0.972112 0.959328,1.518613 0,0 z m -62.761498,0.166607 c -0.657618,-0.40132 -0.401954,0.447139 0,0 z m 26.534447,-0.0764 c -0.863727,-0.886468 -1.398201,0.945997 0,0 z m 23.346214,-0.176939 c 3.510244,-3.10579 -1.856257,-1.05277 -0.222805,0.355517 z m -79.5335122,0.09182 c -0.3154568,-0.7929 -0.6866949,0.482773 0,0 z m 28.2039642,-0.04312 c -2.026751,-2.231403 -3.732532,1.066339 0,0 z m 39.446487,-0.377161 c -2.048027,-1.164125 0.646488,1.153722 0,0 z m 4.440549,-0.6679 c 4.939101,-0.880987 -0.291224,-1.350981 -0.72054,0.668819 0.09571,0.08279 1.613576,-0.806692 0.72054,-0.668819 z m 31.347247,0.594228 c -0.41859,-2.195237 -2.67724,0.610136 0,0 z m -24.666162,-0.72221 c -1.611234,-0.154224 -0.286705,1.432962 0,0 z m -30.107843,0.07617 c -2.875274,-1.817755 -3.738251,1.630285 0,0 z m 20.100966,0.221381 c -0.03679,-1.805465 -1.7443,1.323621 0,0 z M 19.774418,69.984674 c -0.606699,0.141944 0.758519,0.936326 0,0 z m 39.167327,0.229215 c -0.452237,-0.801788 -0.319802,0.753791 0,0 z m 48.703105,-0.07409 c -2.52304,-2.937375 -3.73865,0.401403 0,0 z M 8.8981852,70.020867 c -0.4522319,-0.80179 -0.3197985,0.75379 0,0 z m 6.5668068,-0.112642 c -0.150081,-1.011662 -0.893179,1.47811 0,0 z m 88.381908,0.112642 c -1.50027,-2.14312 -1.44744,0.05866 0,0 z m 5.70802,-0.386048 c 0.38822,-1.49333 -1.92668,1.410221 0,0 z M 3.7421467,69.104004 c -1.019714,-2.18059 0.030769,3.566761 0,0 z m 35.7630393,0.723838 c -0.820024,-1.29589 -0.421512,0.836392 0,0 z M 15.97647,69.21258 c -0.606688,0.141954 0.758501,0.936313 0,0 z m 39.488568,-0.176221 c -2.484105,-1.547884 -3.561627,1.075315 0,0 z m 2.35966,0.329577 c -0.637174,-0.806509 -0.853002,0.532996 0,0 z M 50.78732,69.055747 c -0.552584,-0.89044 -0.793469,0.856817 0,0 z M 3.2375176,68.428421 c -0.5302881,0.410102 0.7229037,0.783419 0,0 z m 22.9748474,0.434304 c -2.28627,-1.585549 -5.264192,-0.480071 -0.865286,-0.0373 z m 60.655467,-0.23731 c -0.871565,-0.240601 -0.306818,0.977511 0,0 z m 11.75223,-0.09646 c -1.216237,0.04196 0.890065,0.923203 0,0 z m 8.663218,0.227234 c -3.33526,-2.023314 -2.81329,0.299373 0,0 z m -48.728252,-0.02008 c -1.069952,-0.37594 -0.501041,0.402552 0,0 z m -2.019182,-0.355948 c -1.798249,-1.517951 -2.062304,1.258089 0,0 z m 19.220501,-0.577882 c 3.947205,-2.416971 -3.718157,1.380299 0,0 z m -23.516863,0.396253 c -0.458622,-0.83462 -0.908547,0.766697 0,0 z M 85.51408,67.781724 c -1.421461,-1.630661 -2.158573,1.718366 0,0 z m 1.069838,0.385308 c -0.657629,-0.401332 -0.401958,0.44714 0,0 z m 15.922532,-0.08117 c -2.522516,-1.457086 -4.123065,-0.0056 0,0 z M 54.533672,67.964027 c -1.069952,-0.375938 -0.501042,0.402553 0,0 z m 7.476143,-5.198592 c -0.395544,-2.458235 5.104254,-9.583393 2.650826,-8.955031 -1.316966,4.595713 -6.010766,9.409134 -8.388302,12.160796 2.316493,2.108203 4.35475,-0.86476 5.373888,1.021537 0.159787,-1.40163 -0.324331,-2.890666 0.363588,-4.227302 z m -3.51489,3.394962 c -0.499053,-0.884865 1.451852,1.021411 0,0 z m 1.042573,-0.900776 c -0.925184,-0.906019 0.874465,-0.0099 0,0 z m 1.450196,-2.766672 c 0.191929,-0.886793 0.191929,0.886794 0,0 z m 37.627989,4.442229 c -4.000394,-0.761186 2.532547,1.184811 0,0 z m 4.114167,0.108957 c -2.50418,-1.349709 -0.45942,0.842847 0,0 z M 55.976918,66.815871 c -0.657619,-0.401321 -0.401953,0.447139 0,0 z m 4.904706,-0.305621 c -0.606698,0.141962 0.758542,0.936315 0,0 z m 14.578,0.24097 c -0.08802,-2.009436 -2.499871,1.146285 0,0 z m 24.752216,-0.514421 c -0.657608,-0.40132 -0.401947,0.447139 0,0 z M 83.472726,65.896795 c -2.558822,-0.685829 -0.925443,0.960253 0,0 z m 1.719544,-0.122451 c -0.421811,-0.886396 -0.98197,1.117189 0,0 z m -5.026701,-0.386047 c 0.583182,-0.889204 -1.988984,1.211709 0,0 z m -5.198903,-0.11662 c -0.657628,-0.401327 -0.401961,0.447141 0,0 z m 1.28925,-0.269428 c -0.582114,-0.949656 -1.331898,1.478537 0,0 z m 11.3739,0.02788 c -0.99326,-0.512818 -1.248159,0.737145 0,0 z m -6.452992,-0.376654 c -0.92372,0.08592 -0.279103,0.570931 0,0 z m 2.73084,0.215712 c -1.384001,-0.657284 -0.581106,0.457524 0,0 z m -7.48419,-0.573849 c -0.906743,-0.624585 -0.474658,0.458165 0,0 z m 6.199595,-0.338924 c 3.886578,-1.191503 -9.530769,0.553456 -2.338258,0.09022 0.777383,-0.06592 1.558585,-0.06483 2.338258,-0.09022 z M 54.859879,63.53446 c -0.657641,-0.401325 -0.401946,0.447156 0,0 z m 21.731154,-0.07641 c -0.679564,-0.893912 -1.483238,0.828592 0,0 z M 55.842392,63.072015 c 5.624663,-2.207347 -4.370008,-1.612387 2.45e-4,-10e-7 z m 46.273088,0.258212 c -0.90674,-0.624579 -0.47466,0.458162 0,0 z M 21.782488,62.393044 c 4.351623,-3.273822 -7.196849,-5.802816 -2.522983,-1.578542 0.220201,0.958576 1.348432,3.696438 2.522983,1.578542 z m 0.296816,-2.216384 c 0.513198,-0.815537 0.513202,0.815538 0,0 z m 91.760486,2.97176 c -0.65763,-0.40133 -0.40196,0.447143 0,0 z M 81.81661,62.651684 c -2.376916,-0.748963 -11.97909,-1.891193 -4.874134,-0.234927 1.586579,0.312774 3.262723,0.618376 4.874134,0.234927 z m 3.468011,-0.156551 c -2.083757,-1.456515 -9.499085,-1.257173 -2.927041,-0.403684 0.982156,-0.166699 2.037742,0.995941 2.927041,0.403684 z M 7.5577328,62.29992 c -0.5132078,-0.815539 -0.5132045,0.81554 0,0 z M 111.6662,62.021777 c -0.31545,-0.792896 -0.68669,0.48277 0,0 z M 98.261673,61.483541 c -0.871562,-0.240602 -0.30681,0.977512 0,0 z m 5.808637,-0.261581 c 0.60879,-1.19356 -3.27122,1.674549 0,0 z M 71.452628,61.14177 c -0.513201,-0.815536 -0.513197,0.815539 0,0 z m 26.027117,0 c -0.421809,-0.886398 -0.981972,1.117194 0,0 z M 111.1635,60.836124 c -1.20037,-0.279558 0.2142,1.193787 0,0 z m -74.897743,-0.0804 c -0.3198,-0.753794 -0.452239,0.801787 0,0 z m 48.591397,0.117163 c -0.637173,-0.806516 -0.853012,0.533003 0,0 z m 23.904736,-0.33269 c 2.44253,-1.062364 -3.09919,0.958846 0,0 z m 3.73745,0.291932 c -0.65763,-0.401331 -0.40197,0.447142 0,0 z M 77.061132,60.352015 c -3.973384,-1.376622 2.201146,1.318011 0,0 z m 6.900666,0.258949 c -1.107044,-1.436478 -2.475509,-0.469854 0,0 z m 3.508616,-0.474508 c -1.686681,-3.611687 -3.77715,-1.131431 0,0 z m -5.629275,0.233228 c -1.448451,-1.23133 -0.07013,0.795879 0,0 z M 108.06333,59.81608 c -1.13412,0.146803 -1.26145,1.551833 0,0 z m -33.497618,0.0228 c -2.434123,-2.833387 -0.65441,2.230789 0,0 z m 25.787878,-0.541984 c 1.02974,-3.557337 -0.692234,-1.716941 -1.223466,0.601991 l 0.246614,0.02589 z m -20.411426,0.408603 c -0.31546,-0.792909 -0.686704,0.482779 0,0 z m 16.044288,-0.665003 c 1.156302,-4.350601 -1.843326,2.491076 0,0 z m -36.462068,0.02627 c -0.497279,-3.140104 -4.412676,1.129822 0,0 z m 51.187686,0.221173 c -0.65764,-0.401334 -0.40196,0.447144 0,0 z M 80.837839,58.538082 c -1.665803,-1.063174 0.416122,1.123934 0,0 z m 22.112231,-0.178605 c -0.91486,-0.652313 -0.18852,0.799445 0,0 z M 41.902168,58.32282 c -0.657619,-0.401318 -0.401955,0.447137 0,0 z m 56.483315,-0.215287 c 1.222844,-2.417628 -1.504665,0.447804 0,0 z m 6.801877,0.138885 c -0.51321,-0.815533 -0.51321,0.815534 0,0 z m -3.76924,-0.434302 c 0.28819,-1.197531 -1.23104,1.880836 0,0 z m 2.09898,0.121788 c -1.5485,-1.088805 0.50132,1.064616 0,0 z M 73.844983,57.704439 c -0.117002,-2.048922 -0.948243,0.627849 0,0 z m 13.813838,-0.375835 c -1.318323,-1.019357 -0.338413,1.249266 0,0 z m 2.099676,0.387006 c 0.670808,-3.467726 -2.58371,-0.969693 0,0 z m 3.654689,0.08042 c -0.281768,-1.075408 -0.599513,1.03493 0,0 z m 16.135544,-0.0215 c 1.63547,-2.210688 -3.09903,0.986827 0,0 z m -9.723183,-0.311599 c -0.653232,-0.731853 -0.185553,1.012388 0,0 z m 4.914983,0.204417 c 0.37562,-0.858056 -1.78925,1.290432 0,0 z M 18.951579,57.507977 c -0.30817,-2.46348 -2.13474,0.05216 0,0 z m 38.048634,-0.313989 c 5.666435,-3.652989 -4.616978,-8.644111 -5.907823,-9.737597 -5.561723,-4.981094 -9.49667,7.262752 -1.604927,7.404073 2.487267,0.43101 5.074391,2.865119 7.51275,2.333524 z m -4.425621,-1.649893 c 0.319801,-0.753793 0.452239,0.801787 0,0 z M 50.857141,54.44712 c 1.058233,-0.632512 0.179543,0.510439 0,0 z m 3.113758,-1.738413 c -1.556836,-1.124459 1.767586,0.51361 0,0 z m -0.390964,-0.838118 c 0.637171,-0.806516 0.853013,0.533005 0,0 z m 53.394685,4.972763 c -1.69798,-0.667485 -0.95726,1.196031 0,0 z M 86.644425,56.602739 c -1.694334,-1.990182 -0.487647,2.231271 0,0 z M 24.021394,56.368117 c -0.587675,0.445564 0.863885,1.193326 0,0 z m 48.682935,-0.091 c -1.959246,-2.502707 0.69349,1.913284 0,0 z m 23.31642,0.135587 c -0.945769,0.178154 0.198909,1.006479 0,0 z m 3.357973,0.48256 c -0.319798,-0.753792 -0.452235,0.801787 0,0 z m 0.893628,0 c -0.513196,-0.815536 -0.513196,0.815535 0,0 z m 7.81931,0 c -0.51321,-0.815549 -0.51321,0.815549 0,0 z M 25.005299,55.84328 c -0.128768,-1.142184 -0.865968,2.914953 0,0 z m 103.416551,0.450125 c -0.89521,-0.407483 -0.0704,0.995009 0,0 z M 87.758045,56.17142 c -0.692239,-2.912353 -1.392023,0.446998 0,0 z m -2.454071,-0.124116 c -0.637176,-0.806507 -0.853003,0.532997 0,0 z m 15.823756,-0.328983 c 0.7106,-1.571998 -1.450833,1.681258 0,0 z m 6.94823,0.260075 c 0.75611,-2.896201 -1.57057,0.839631 0,0 z M 81.693431,55.351069 c -3.223813,-2.398998 1.248766,1.654643 0,0 z m 6.419607,0.04366 c -1.189887,-0.645893 1.528393,1.544648 0,0 z m 10.319627,-0.36901 c -1.267815,-3.01577 -2.815789,2.321676 0,0 z m 1.614815,-0.494999 c -1.54872,-0.183995 0.0753,2.572618 0,0 z m -20.207832,0.640169 c -1.024576,-1.109495 0.03256,0.988608 0,0 z m 4.52519,-0.0041 c -0.963913,-1.273196 0.296069,1.29225 0,0 z m 2.056181,-0.0088 c -0.452237,-0.801786 -0.319801,0.753792 0,0 z M 48.888353,54.879893 c -0.315462,-0.792894 -0.686692,0.48277 0,0 z m 38.538002,-0.879998 c -1.706989,-2.414364 1.387679,3.057011 0,0 z m 19.995085,0.482558 c 1.42719,-1.53063 -2.73289,1.611734 0,0 z M 84.968857,53.999895 c -1.204365,-3.760938 -2.058847,0.727742 4.05e-4,0 z M 84.29863,53.034776 c 0.321429,-0.824689 0.612396,0.745648 0,0 z m -60.208647,1.061631 c -0.517286,-1.111648 -0.517286,1.111648 0,0 z m -1.452164,-0.09651 c -0.610017,-0.932178 -0.406298,0.82536 0,0 z m 4.262504,-0.434303 c 3.213775,-2.392579 -3.89888,0.214221 0,0 z m -2.844216,-0.744217 c -0.22334,-3.609109 -3.370117,1.673567 0,0 z m -0.636351,-0.36567 c 0.452239,-0.801785 0.319786,0.753796 0,0 z m 6.925668,0.965119 c -0.452237,-0.801788 -0.319802,0.753791 0,0 z m 65.793873,0 c -0.319798,-0.753782 -0.452226,0.801785 0,0 z M 21.85589,53.2278 c -0.452233,-0.801791 -0.319788,0.753791 0,0 z m 10.170002,-0.08584 c 2.660723,-2.153502 -2.875987,0.999619 0,0 z m 54.541636,-1.153835 c -0.562871,-3.948611 -0.971833,2.511581 0,0 z M 26.43577,51.876635 c -0.319798,-0.753783 -0.452221,0.801787 0,0 z m 40.772096,-0.193024 c 0.404098,-1.349589 -1.029642,1.578743 0,0 z m 7.03737,0.193024 c -0.441251,-0.749436 -0.662356,0.92732 0,0 z m 15.5214,-0.562461 c -0.50895,-2.184173 -0.942639,2.056509 0,0 z m 15.872014,0.461284 c 0.54893,-1.330368 -1.59318,1.286993 0,0 z M 60.72901,51.394075 c -0.517278,-1.111651 -0.517278,1.111652 0,0 z m 23.985526,-0.193023 c -0.466335,-1.111216 -0.236059,1.041748 0,0 z m -0.527609,-0.458925 c -0.649086,-1.820105 -1.508499,0.445648 0,0 z M 103.3778,50.079774 c -0.24827,-1.60492 -0.51315,3.090484 0,0 z m -78.841005,0.167552 c -0.458612,-0.834619 -0.908538,0.766696 0,0 z m 53.987824,-0.389104 c -1.436792,-1.565054 0.03339,1.474274 0,0 z M 36.077343,49.56036 c -0.02173,-1.84627 -1.160681,1.600023 0,0 z m -0.731081,-0.386046 c -0.472071,-0.336549 -0.728747,2.369935 0,0 z m 3.814906,0.26926 c -3.188034,-1.450591 1.289983,1.363196 0,0 z m 62.981052,0.06853 c 0.92023,-2.690815 -1.54447,1.481151 0,0 z m -80.79365,0.124661 c -0.657642,-0.401325 -0.401947,0.447156 0,0 z m 63.425276,-0.167237 c -0.12432,-2.768341 -2.172189,0.359952 0,0 z m 4.994877,-0.729513 c -1.55452,-1.799726 0.215442,2.460572 0,0 z m -55.848761,0.04826 c -0.755984,-0.912291 -0.755984,0.912292 0,0 z m 6.65121,-0.494495 c -0.877645,0.276625 -0.40919,1.274893 0,0 z m 41.605077,0.494495 c -0.513202,-0.815536 -0.513202,0.815536 0,0 z m 10.500215,-0.57907 c -0.593666,-2.049784 -0.295823,1.89024 0,0 z m -4.914992,-0.229916 c -0.382151,-1.513562 -0.445011,2.036411 0,0 z m -47.699351,0.232126 c -0.582825,-0.437215 -0.48933,0.969156 0,0 z m 46.519213,-1.109442 c -0.385217,0.747024 0.533768,1.86405 0,0 z m -66.065897,1.022113 c -0.315448,-0.792897 -0.68669,0.482769 0,0 z m 3.120312,-0.312896 c -1.531271,-1.6677 -0.775277,1.153008 0,0 z m 42.831088,-0.02422 c -0.606696,0.14196 0.758544,0.936314 0,0 z m -48.906914,0 c -0.724407,-1.21554 -0.575891,0.936654 0,0 z m 71.05417,-0.301595 c -0.811288,-3.275412 -2.682896,-0.342404 0,0 z m -41.73642,-0.05965 c -0.774494,-0.679681 -0.142824,1.164061 0,0 z m 6.478848,0.204416 c -0.452236,-0.801789 -0.319786,0.75379 0,0 z m -30.665202,-0.9404 c -1.771379,0.331602 0.229599,1.02766 0,0 z m 13.349614,0.167864 c -3.351025,-0.672911 -0.0557,1.17948 0,0 z M 23.348955,46.628814 c -0.606695,0.141961 0.758542,0.936313 0,0 z M 12.249316,46.278959 c -0.452232,-0.801789 -0.319798,0.75379 0,0 z m 6.925669,-0.193024 c -0.513202,-0.815538 -0.513198,0.815539 0,0 z m 30.830406,-0.215807 c -0.895214,-0.407482 -0.0705,0.99501 0,0 z m -1.922871,-0.08951 c 0.308862,-1.234127 -1.440553,1.139357 0,0 z m 44.370536,0.1123 c -0.452235,-0.801788 -0.319807,0.753791 0,0 z m 0.594776,-0.627327 c -0.530279,0.410099 0.722886,0.783421 0,0 z m 0.451466,0.205087 c -0.606698,0.141946 0.758521,0.936327 0,0 z M 47.5479,45.132208 c -0.714595,-1.398746 -1.036382,0.846174 0,0 z M 20.962258,44.445233 c -0.903442,-1.471695 -0.743552,1.323371 0,0 z m 55.181955,-0.428421 c 6.822615,-1.08527 5.129745,-12.352094 2.115819,-12.070133 -1.669022,7.317291 -2.069623,-3.14463 -1.941434,-5.577157 -0.523957,-1.884866 -1.797091,-0.08553 -2.166618,-2.767434 -4.178255,3.208588 -1.917837,9.994434 -2.404685,14.614581 -0.02267,2.371649 0.64375,6.197528 4.396918,5.800143 z m -2.531966,-7.710744 c -1.050947,-2.253447 3.053223,0.01607 0,0 z m 1.352452,-0.698685 c -0.476854,-5.944871 1.698598,-0.687248 0,0 z m -3.249621,-1.038935 c 1.107123,-1.410452 0.875532,1.121821 0,0 z m 2.504548,-5.661618 c 0.144834,-4.291734 0.144834,4.291735 0,0 z m -0.918879,-3.088378 c 0.170186,-1.556937 0.17019,1.556934 0,0 z M 52.239484,43.758259 c -0.774494,-0.679681 -0.142824,1.164059 0,0 z M 23.291546,43.521952 c 1.772423,-1.776533 -0.736754,-1.327776 0,0 z m 24.866072,0.13108 c -0.657629,-0.401329 -0.40196,0.447144 0,0 z M 22.079304,43.275699 c -0.58422,-0.712266 -0.26758,1.154287 0,0 z m 24.573673,-0.502106 c -2.303161,-2.930679 0.656482,2.113189 0,0 z m 22.369883,-0.02053 c -0.827935,-0.216825 1.157473,1.058841 0,0 z m -1.256471,-1.492715 c -0.319802,-0.753793 -0.452237,0.801787 0,0 z m 3.423359,-0.4503 c -0.619196,-1.269364 -0.684069,1.437483 0,0 z m 29.306022,-0.900866 c -0.605491,-0.773273 -0.584697,0.947121 0,0 z m -7.234328,-0.492585 c 0.779612,-1.406746 -1.867607,1.254662 0,0 z M 69.665364,39.353747 C 66.148206,36.116824 71.51604,26.969151 69.097925,26.42958 c -0.215896,4.171957 -2.969914,9.310961 0.567439,12.924167 z m -31.13167,-0.722618 c -1.925128,-0.936117 2.145617,1.935508 0,0 z m 52.355496,0.526607 c -0.723571,-1.212159 -0.832618,0.83815 0,0 z m 10.67921,-0.185878 c 1.92925,-1.701123 11.32012,-7.650454 4.15433,-7.106991 0.0369,2.55224 -6.247259,5.998392 -4.15433,7.106991 z m 3.31384,-4.790437 c 0.0889,-1.890926 0.91653,0.165582 0,0 z m 2.09238,-0.233192 c 0.0705,-0.995012 0.89521,0.407487 0,0 z m -41.352886,3.982458 c -0.416151,-1.645106 -0.02334,2.592016 0,0 z m 46.044466,0.353579 c 0.0545,-1.573239 -1.82224,0.740403 0,0 z M 36.935984,37.978943 c -0.841436,-0.992031 -0.643925,0.837596 0,0 z m -1.289258,-0.309642 c -0.65763,-0.401334 -0.401956,0.447142 0,0 z m 31.938552,-1.572339 c -0.529537,0.50207 0.760744,1.195777 0,0 z m -1.950373,-1.400246 c 1.164058,-2.669679 -2.162007,-9.733671 -1.026785,-3.086259 0.0167,0.673973 0.816814,6.995209 1.026785,3.086259 z M 22.674634,34.548594 c -0.615432,-2.112535 -2.692754,0.998442 0,0 z m 41.121592,-1.704886 c -0.65763,-0.401333 -0.401955,0.447144 0,0 z m 2.315635,-7.417985 c -0.460451,-3.008308 -0.08586,3.445883 0,0 z m -10.074435,0.0067 c -1.853689,-1.316027 -0.09684,0.826542 0,0 z m 4.244772,-0.57907 c -0.605488,-0.773272 -0.584695,0.947123 0,0 z m 9.941681,-0.193026 c -0.319786,-0.753789 -0.452234,0.80179 0,0 z m 5.785942,-0.740405 c 0.821578,-2.034863 -1.592998,-0.151932 0,0 z M 39.891488,22.999503 c -0.657617,-0.401321 -0.401953,0.447139 0,0 z m 24.412067,-0.269428 c -0.513205,-0.815534 -0.513208,0.815533 0,0 z m 6.577547,-1.681024 c -1.156671,-2.644481 -3.56384,-2.342648 0,0 z m -7.925919,-1.000028 c 1.590804,-2.832465 -0.356258,-4.168971 -0.541763,-0.372024 -0.62404,0.392765 -0.175537,2.711452 0.541763,0.372024 z m 5.872397,0.713285 c -1.968054,-1.390275 0.775467,1.245519 0,0 z M 57.824698,19.062626 c -0.452236,-0.801789 -0.319802,0.753793 0,0 z m 16.141277,-0.416111 c 1.127029,-1.509555 -3.655113,1.688707 0,0 z m -1.619706,-0.549008 c -0.513205,-0.815532 -0.513205,0.815533 0,0 z M 58.941745,17.71146 c -0.820023,-1.29589 -0.421511,0.836391 0,0 z m 15.570392,-0.417228 c 2.661084,-3.408469 -5.132386,-2.383562 -1.608214,0.370213 l 0.897606,-0.05835 z m -3.26194,-0.563425 c -0.898368,-0.727974 0.716775,2.120671 0,0 z M 63.63333,15.696104 c -0.315462,-0.792894 -0.686692,0.48277 0,0 z m 7.678491,-0.349183 c 0.878157,-3.542335 -1.905222,1.102583 0,0 z m -11.699849,-0.04826 c -0.517286,-1.111649 -0.517286,1.111648 0,0 z m 3.912752,-1.203803 c -0.08694,-4.029297 -1.095716,2.362466 0,0 z m 11.50245,-0.147363 c -1.202441,-1.098826 -1.14244,1.665323 0,0 z M 60.355929,11.499022 c -0.271291,-4.8372131 -0.493033,3.80316 0.0045,0.225348 z m 11.766926,0.689197 c -0.190523,-5.4872812 -1.86868,3.791357 0,0 z M 18.393056,11.920747 c -0.441258,-0.74944 -0.66236,0.92732 0,0 z m 44.793453,-0.386046 c -0.3198,-0.753794 -0.45224,0.801788 0,0 z m -44.68175,-0.193024 c -0.513201,-0.815538 -0.513198,0.815538 0,0 z m 2.996069,0.02788 c -0.993264,-0.512816 -1.248153,0.737141 0,0 z m 49.652941,-1.041258 c -0.530279,0.4101 0.722894,0.78342 0,0 z m 2.698604,0.08694 c 0.862935,-1.8410106 -2.101682,-1.340492 0,0 z M 108.98188,8.8806241 c -0.16522,-4.2763791 -0.71356,3.4887049 0,0 z M 17.944657,9.027602 c -0.582825,-0.4372163 -0.489331,0.96916 0,0 z m 3.185159,-0.1352674 c -1.38402,-0.6572845 -0.581109,0.457522 0,0 z M 54.636465,8.7157492 c -0.657618,-0.4013203 -0.401954,0.4471389 0,0 z m 2.741413,-0.2694287 c -0.319788,-0.7537897 -0.452232,0.801792 0,0 z m 0,-0.4049287 c -1.601559,-0.9198863 -2.309315,1.3779857 0,0 z m 1.279945,0.2883099 c -0.657619,-0.4013207 -0.401954,0.447139 0,0 z m 0.06055,-1.6964543 c -0.637172,-0.8065105 -0.853009,0.533003 0,0 z M 71.794488,4.5764751 c 3.622227,0.5508258 -1.60019,-0.7038514 0,0 z M 92.453091,102.07418 c 0.09707,-1.21633 0.617099,0.55371 0,0 z m -0.205778,-0.89608 c 0.249376,-0.70205 0.111957,0.98556 0,0 z m -3.592174,-2.782758 c 0.513201,-0.815553 0.513221,0.815553 0,0 z M 27.251212,97.632896 c 1.065547,-1.350325 0.14396,0.856529 0,0 z m 6.147463,-4.384856 c -0.570221,-1.32622 1.279936,0.799012 0,0 z m 84.076165,-0.546899 c -2.41623,-2.654913 1.88368,1.001372 0,0 z m 2.02831,-0.01605 c 0.24938,-0.702035 0.11194,0.985584 0,0 z m -0.20905,-2.761588 c -0.58341,-0.985227 1.20357,0.646809 0,0 z M 14.402613,87.10349 c 0.248766,-1.037118 0.45765,1.100924 0,0 z M 11.84954,85.075892 c -5.4576816,-4.525238 3.539125,-1.725993 0,0 z m -7.1566499,-3.2163 c 0.6680536,-1.591262 0.7173628,1.293916 0,0 z M -2.6500322,78.851727 C -5.163152,75.250598 1.5175209,73.131553 -1.63167,78.029959 l -0.4267385,0.487245 z M 2.2517746,63.409835 c 1.1803285,-1.044945 0.6391227,1.06895 0,0 z m 7.0053606,-4.330861 c 1.9242248,-3.09218 3.6932538,2.189022 0,0 z M 28.89327,52.069696 c 0.319783,-0.75379 0.452236,0.801791 0,0 z m -0.219903,-0.767188 c 0.151616,-1.033803 1.210376,0.735814 0,0 z m 2.789104,-0.777001 c 0.452236,-0.801784 0.319786,0.753796 0,0 z m -3.229886,-1.144803 c -0.102658,-1.086593 0.765327,0.609973 0,0 z m 4.123518,-1.364503 c 0.51321,-0.81555 0.513213,0.815549 0,0 z m -2.123361,-0.773459 c 0.42138,-1.876951 1.590522,0.516588 0,0 z m -4.113471,-0.439303 c 0.838605,-1.346866 1.178835,0.571853 0,0 z m 4.795325,-2.439796 c 0.316625,-2.125753 2.865638,0.361427 0,0 z m 2.78196,-4.07978 c 0.686703,-0.482778 0.315458,0.79291 0,0 z M 10.908864,27.502715 c 0.31231,-3.068094 0.48392,1.860595 0,0 z m 0.546526,-5.399968 c -0.306712,-2.50384 1.147866,-5.632264 0.448545,-0.979447 -0.01485,0.538346 -0.489867,3.968309 -0.448545,0.979447 z M 30.946209,21.137432 C 30.677358,16.094927 29.925318,6.9803145 38.839224,9.2712867 40.557031,6.2301054 29.763223,7.1426917 36.255742,6.6891826 43.761129,2.8917853 44.550804,11.698358 43.98223,15.876123 43.043459,20.07637 33.103077,20.687452 30.946209,21.137432 Z m 3.796862,-7.437726 c 2.432596,-3.489867 -6.058244,-1.135349 -0.765151,0.151642 z m 4.315294,-0.813838 c -1.241769,-1.45443 0.508836,1.404855 0,0 z m 2.457499,-6.1767566 c -0.467967,-1.4177352 -0.1919,1.3483489 0,0 z M 54.473568,17.024484 c 0.513418,-0.70901 0.08966,1.030674 0,0 z m 2.159618,-0.02078 c -0.82565,-1.513943 1.651684,0.573164 0,0 z m -1.489393,-0.733865 c 0.638861,-0.789274 0.37705,1.060622 0,0 z m -1.452154,-0.102569 c 0.452233,-0.801792 0.319789,0.75379 0,0 z m 2.477528,-0.221026 c 1.509364,-0.853229 1.208209,0.785484 0,0 z m -44.063246,-0.88886 c -0.05315,-5.1047322 1.185343,0.128736 0,0 z m 42.144241,0.144768 c 0.513201,-0.815537 0.513201,0.815536 0,0 z m 2.010678,0 c 0.5132,-0.815537 0.5132,0.815536 0,0 z m -36.639035,-1.54419 c 0.452236,-0.80179 0.319786,0.75379 0,0 z m -7.131443,-2.042833 c 0.249364,-0.702047 0.111986,0.985572 0,0 z m 0.139036,-2.2036869 c 0.803336,-4.5810597 -0.328023,4.4769299 0,0 z M 32.853983,7.9518184 c 2.731677,-0.5748631 3.338784,0.7122554 0,0 z M 80.835795,7.1916725 c 0.991672,-1.3499562 1.1482,1.3460419 0,0 z M 59.242243,6.2182293 c -0.32952,-1.3572698 0.747796,1.0115959 0,0 z M 90.386521,6.1654763 C 87.902021,5.722125 79.127662,2.8474331 86.28704,3.6340835 c 0.732842,0.099522 8.490683,2.3050171 4.099481,2.5313928 z M 105.90464,5.7668399 c -2.06886,-1.8293216 3.34395,0.9131949 0,0 z m 1.5168,-0.022842 c 0.60548,-0.7732728 0.5847,0.9471163 0,0 z m -4.80328,-0.3860475 c 0.86455,-1.0223643 2.86478,1.2651332 0,0 z M 17.387721,5.1521873 C 13.29209,5.1075863 13.077058,3.455884 17.538994,4.6393584 19.899445,4.8087896 18.921177,5.7734521 17.387721,5.1521873 Z M 39.393475,4.9630479 C 31.71944,4.2338395 23.758408,5.5338646 16.32352,3.2968483 24.486106,3.402714 34.46261,6.0703155 41.470003,2.6799689 47.508239,3.2081185 53.343917,4.5102275 59.500688,3.0951778 61.205878,3.8750189 52.035744,4.137623 49.736059,4.3267499 46.287223,4.5219007 42.836166,4.6956101 39.393475,4.9630479 Z M 58.718331,4.3928321 c 4.605327,-2.2875481 5.710459,0.4244392 0,0 z M 110.69811,3.6850787 c -0.72809,-2.0798404 0.51855,-1.0487517 0,0 z M 15.600448,2.655615 c 2.331283,-1.2999497 0.0897,1.1405538 0,0 z M 12.798651,2.2567261 c -0.110592,-1.1144726 1.478603,1.3161242 0,0 z M 58.662485,2.1417319 c 0.906727,-0.6245799 0.474652,0.4581629 0,0 z M 15.935561,1.4067966 c 8.975187,-2.3652988 18.549878,-1.4177108 27.8032,-1.8332038 5.222298,0.0448 10.454161,0.315459 15.611132,1.054041 -7.296699,0.2647132 -14.53834,-1.086638 -21.846703,-0.631821 -7.384686,0.01514 -14.717793,0.8618401 -22.036742,1.6199074 l 0.322084,-0.1434431 z m 2.50869,-0.4119892 c -0.65761,-0.4013286 -0.401965,0.4471298 0,0 z M 19.561297,0.801784 c -0.657619,-0.4013397 -0.401966,0.4471314 0,0 z m 1.456808,-0.2042414 c -0.906728,-0.6245788 -0.474653,0.4581622 0,0 z m 2.341143,-0.1818061 c -0.657618,-0.4013377 -0.40197,0.4471346 0,0 z m 3.579191,-0.2094613 c -1.384009,-0.6572774 -0.581104,0.4575163 0,0 z m 11.505546,-0.3943244 c -2.357941,-0.291213 -2.030836,0.3290209 0,0 z m 67.136935,0.7769103 c 1.89813,-0.7795233 0.69104,0.4985518 0,0 z M 68.146013,0.3419489 c 0.430366,-1.1778151 4.079932,0.8779714 0.939775,0.1482359 z m 39.610537,0.050893 c 2.55607,0.078759 0.78402,-3.2519261 3.15525,-0.5613631 -0.60297,0.8424634 -2.19018,1.0021064 -3.15525,0.5613631 z M 77.55224,0.1291379 c -3.025762,0.3105087 -12.87236,-1.5145351 -4.58707,-0.7535391 11.323372,0.761908 22.704787,0.564146 34.02896,-0.07748 C 97.270453,0.7280286 87.362725,0.2854441 77.55224,0.1291304 Z M 65.532295,-0.2397412 c 0.473785,-0.899752 1.021213,1.282337 0,0 z"
     id="path895"
     inkscape:connector-curvature="0" />
  <g
     style="font-style:normal;font-variant:normal;font-weight:normal;font-stretch:normal;font-size:10.66666698px;line-height:125%;font-family:Sudo;-inkscape-font-specification:'Sudo, Normal';font-variant-ligatures:normal;font-variant-caps:normal;font-variant-numeric:normal;font-feature-settings:normal;text-align:start;letter-spacing:0px;word-spacing:0px;writing-mode:lr-tb;text-anchor:start;fill:#000000;fill-opacity:1;stroke:none;stroke-width:1px;stroke-linecap:butt;stroke-linejoin:miter;stroke-opacity:1"
     id="flowRoot1009" />
  <path
     style="opacity:1;fill:#04080a;fill-opacity:1;fill-rule:nonzero;stroke:#949494;stroke-width:0.54208726;stroke-linecap:square;stroke-linejoin:round;stroke-miterlimit:6.0999999;stroke-dasharray:none;stroke-dashoffset:0;stroke-opacity:0.98666675"
     d="M 2.7548686,7.2357807 H 116.30762 V 52.955552 H 2.7548686 Z"
     id="rect839"
     inkscape:connector-curvature="0" />
  <path
     style="opacity:1;fill:#04080a;fill-opacity:1;fill-rule:nonzero;stroke:#949494;stroke-width:0.5720498;stroke-linecap:square;stroke-linejoin:round;stroke-miterlimit:6.0999999;stroke-dasharray:none;stroke-dashoffset:0;stroke-opacity:0.98823529"
     d="M 2.7237397,55.483801 H 42.666277 V 95.509807 H 2.7237397 Z"
     id="rect839-6"
     inkscape:connector-curvature="0" />
  <path
     style="fill:none;fill-rule:evenodd;stroke:#000000;stroke-width:0.23570955px;stroke-linecap:butt;stroke-linejoin:miter;stroke-opacity:1"
     d="m 76.507223,79.108801 c 0,-7.531109 0,-7.531109 0,-7.531109"
     id="path944"
     inkscape:connector-curvature="0" />
  <path
     style="fill:none;fill-rule:evenodd;stroke:#000000;stroke-width:0.26458332px;stroke-linecap:butt;stroke-linejoin:miter;stroke-opacity:1"
     d="m 85.866289,79.108801 c 0,-16.041266 0,-16.041266 0,-16.041266"
     id="path946"
     inkscape:connector-curvature="0" />
  <path
     style="fill:none;fill-rule:evenodd;stroke:#000000;stroke-width:0.26458332px;stroke-linecap:butt;stroke-linejoin:miter;stroke-opacity:1"
     d="m 104.26497,79.108801 c 0,-16.493132 0,-16.493132 0,-16.493132"
     id="path948"
     inkscape:connector-curvature="0" />
  <path
     style="fill:none;fill-rule:evenodd;stroke:#000000;stroke-width:0.26458332px;stroke-linecap:butt;stroke-linejoin:miter;stroke-opacity:1"
     d="m 113.60151,79.445714 c 0,-16.493132 0,-16.493132 0,-16.493132"
     id="path948-9"
     inkscape:connector-curvature="0" />
  <g
     id="g911"
     transform="translate(29.366483,-24.115796)">
    <path
       inkscape:connector-curvature="0"
       id="rect5282-9"
       d="m 81.589195,109.10321 h 5.291667 v 8.898 h -5.291667 z"
       style="opacity:1;fill:#cd1f00;fill-opacity:1;fill-rule:nonzero;stroke:#cd1f00;stroke-width:2.19999981;stroke-linecap:butt;stroke-linejoin:round;stroke-miterlimit:8.19999981;stroke-dasharray:none;stroke-dashoffset:0;stroke-opacity:1;paint-order:normal" />
    <g
       id="text5206-7-4"
       style="font-style:normal;font-variant:normal;font-weight:normal;font-stretch:normal;font-size:2.11666656px;line-height:125%;font-family:sans-serif;-inkscape-font-specification:'sans-serif, Normal';font-variant-ligatures:normal;font-variant-caps:normal;font-variant-numeric:normal;font-feature-settings:normal;text-align:start;letter-spacing:0px;word-spacing:0px;writing-mode:lr-tb;text-anchor:start;fill:#000000;fill-opacity:1;stroke:none;stroke-width:0.26458332px;stroke-linecap:butt;stroke-linejoin:miter;stroke-opacity:1"
       aria-label="OUT">
      <path
         inkscape:connector-curvature="0"
         id="path1055"
         style="font-style:normal;font-variant:normal;font-weight:normal;font-stretch:normal;font-size:2.11666656px;font-family:sans-serif;-inkscape-font-specification:'sans-serif, Normal';font-variant-ligatures:normal;font-variant-caps:normal;font-variant-numeric:normal;font-feature-settings:normal;text-align:start;writing-mode:lr-tb;text-anchor:start;fill:#ffffff;fill-opacity:1;stroke-width:0.26458332px"
         d="m 83.269198,109.27032 q 0.09405,0.10335 0.143661,0.25321 0.05064,0.14986 0.05064,0.34003 0,0.19017 -0.05168,0.34107 -0.05064,0.14986 -0.142627,0.25011 -0.09508,0.10439 -0.225309,0.1571 -0.129191,0.0527 -0.295589,0.0527 -0.162264,0 -0.29559,-0.0538 -0.132291,-0.0537 -0.225309,-0.15606 -0.09302,-0.10232 -0.14366,-0.25115 -0.04961,-0.14883 -0.04961,-0.34003 0,-0.1881 0.04961,-0.33693 0.04961,-0.14986 0.144694,-0.25631 0.09095,-0.10129 0.225309,-0.15503 0.135392,-0.0538 0.294556,-0.0538 0.165364,0 0.296622,0.0548 0.132292,0.0537 0.224276,0.154 z m -0.0186,0.59324 q 0,-0.29972 -0.134359,-0.46199 -0.134359,-0.16329 -0.366903,-0.16329 -0.234611,0 -0.36897,0.16329 -0.133325,0.16227 -0.133325,0.46199 0,0.30283 0.136426,0.46406 0.136426,0.16019 0.365869,0.16019 0.229443,0 0.364836,-0.16019 0.136426,-0.16123 0.136426,-0.46406 z" />
      <path
         inkscape:connector-curvature="0"
         id="path1057"
         style="font-style:normal;font-variant:normal;font-weight:normal;font-stretch:normal;font-size:2.11666656px;font-family:sans-serif;-inkscape-font-specification:'sans-serif, Normal';font-variant-ligatures:normal;font-variant-caps:normal;font-variant-numeric:normal;font-feature-settings:normal;text-align:start;writing-mode:lr-tb;text-anchor:start;fill:#ffffff;fill-opacity:1;stroke-width:0.26458332px"
         d="m 84.946615,110.01446 q 0,0.16743 -0.03721,0.29249 -0.03617,0.12402 -0.119889,0.2067 -0.07958,0.0786 -0.186036,0.11472 -0.106453,0.0362 -0.248046,0.0362 -0.144694,0 -0.252181,-0.0382 -0.107487,-0.0382 -0.180868,-0.11266 -0.08372,-0.0847 -0.120923,-0.20464 -0.03617,-0.11989 -0.03617,-0.29455 v -0.92088 h 0.204638 v 0.93121 q 0,0.12506 0.01654,0.19741 0.01757,0.0723 0.05788,0.13125 0.04548,0.0672 0.12299,0.10129 0.07855,0.0341 0.188103,0.0341 0.110587,0 0.188102,-0.0331 0.07751,-0.0341 0.124023,-0.10232 0.04031,-0.0589 0.05684,-0.13435 0.01757,-0.0765 0.01757,-0.18914 v -0.93638 h 0.204639 z" />
      <path
         inkscape:connector-curvature="0"
         id="path1059"
         style="font-style:normal;font-variant:normal;font-weight:normal;font-stretch:normal;font-size:2.11666656px;font-family:sans-serif;-inkscape-font-specification:'sans-serif, Normal';font-variant-ligatures:normal;font-variant-caps:normal;font-variant-numeric:normal;font-feature-settings:normal;text-align:start;writing-mode:lr-tb;text-anchor:start;fill:#ffffff;fill-opacity:1;stroke-width:0.26458332px"
         d="m 86.43593,109.27548 h -0.549838 v 1.35703 h -0.204638 v -1.35703 h -0.549837 v -0.1819 h 1.304313 z" />
    </g>
  </g>
  <g
     id="g916"
     transform="translate(4.1784445,-29.407468)">
    <path
       inkscape:connector-curvature="0"
       id="rect5282-9-4"
       d="m 69.682945,114.39488 h 5.291667 v 8.898 h -5.291667 z"
       style="opacity:1;fill:#020202;fill-opacity:1;fill-rule:nonzero;stroke:#000000;stroke-width:2.19999981;stroke-linecap:butt;stroke-linejoin:round;stroke-miterlimit:8.19999981;stroke-dasharray:none;stroke-dashoffset:0;stroke-opacity:1;paint-order:normal" />
    <g
       id="text5206-7-4-9"
       style="font-style:normal;font-variant:normal;font-weight:normal;font-stretch:normal;font-size:2.11666656px;line-height:125%;font-family:sans-serif;-inkscape-font-specification:'sans-serif, Normal';font-variant-ligatures:normal;font-variant-caps:normal;font-variant-numeric:normal;font-feature-settings:normal;text-align:start;letter-spacing:0px;word-spacing:0px;writing-mode:lr-tb;text-anchor:start;fill:#000000;fill-opacity:1;stroke:none;stroke-width:0.26458332px;stroke-linecap:butt;stroke-linejoin:miter;stroke-opacity:1"
       aria-label="IN">
      <path
         inkscape:connector-curvature="0"
         id="path1063"
         style="font-style:normal;font-variant:normal;font-weight:normal;font-stretch:normal;font-size:2.11666656px;font-family:sans-serif;-inkscape-font-specification:'sans-serif, Normal';font-variant-ligatures:normal;font-variant-caps:normal;font-variant-numeric:normal;font-feature-settings:normal;text-align:start;writing-mode:lr-tb;text-anchor:start;fill:#ffffff;fill-opacity:1;stroke-width:0.26458332px"
         d="m 71.87041,115.89214 h -0.607715 v -0.15709 h 0.201538 v -1.22473 h -0.201538 v -0.1571 h 0.607715 v 0.1571 h -0.201538 v 1.22473 h 0.201538 z" />
      <path
         inkscape:connector-curvature="0"
         id="path1065"
         style="font-style:normal;font-variant:normal;font-weight:normal;font-stretch:normal;font-size:2.11666656px;font-family:sans-serif;-inkscape-font-specification:'sans-serif, Normal';font-variant-ligatures:normal;font-variant-caps:normal;font-variant-numeric:normal;font-feature-settings:normal;text-align:start;writing-mode:lr-tb;text-anchor:start;fill:#ffffff;fill-opacity:1;stroke-width:0.26458332px"
         d="M 73.394864,115.89214 H 73.14165 l -0.729671,-1.37666 v 1.37666 h -0.191203 v -1.53892 h 0.317293 l 0.665593,1.25677 v -1.25677 h 0.191202 z" />
    </g>
  </g>
  <g
     aria-label="bId"
     style="font-style:normal;font-variant:normal;font-weight:normal;font-stretch:normal;font-size:2.82222223px;line-height:125%;font-family:'DejaVu Sans Mono';-inkscape-font-specification:'DejaVu Sans Mono, Normal';font-variant-ligatures:normal;font-variant-caps:normal;font-variant-numeric:normal;font-feature-settings:normal;text-align:start;letter-spacing:0px;word-spacing:0px;writing-mode:lr-tb;text-anchor:start;fill:#000000;fill-opacity:1;stroke:none;stroke-width:0.26458332px;stroke-linecap:butt;stroke-linejoin:miter;stroke-opacity:1"
     id="text930">
    <path
       d="m 56.086499,97.982642 q 0,0.289388 -0.08268,0.520898 -0.08061,0.23151 -0.219108,0.388607 -0.146761,0.163297 -0.322461,0.24598 -0.1757,0.08062 -0.38654,0.08062 -0.19637,0 -0.343131,-0.04754 -0.146761,-0.04548 -0.289388,-0.124024 l -0.0248,0.107487 h -0.363802 v -3.216341 h 0.388607 v 1.149284 q 0.163297,-0.134359 0.347265,-0.219108 0.183968,-0.08682 0.413412,-0.08682 0.409277,0 0.644922,0.314193 0.237711,0.314193 0.237711,0.886768 z m -0.401009,0.01033 q 0,-0.413411 -0.136426,-0.626318 -0.136425,-0.214974 -0.440283,-0.214974 -0.169499,0 -0.343131,0.07441 -0.173633,0.07235 -0.322461,0.188102 v 1.322917 q 0.165364,0.07441 0.283187,0.103352 0.119889,0.02894 0.270784,0.02894 0.322461,0 0.504362,-0.21084 0.183968,-0.212907 0.183968,-0.665592 z"
       style="font-style:normal;font-variant:normal;font-weight:normal;font-stretch:normal;font-size:4.23333311px;font-family:sans-serif;-inkscape-font-specification:'sans-serif, Normal';font-variant-ligatures:normal;font-variant-caps:normal;font-variant-numeric:normal;font-feature-settings:normal;text-align:start;writing-mode:lr-tb;text-anchor:start;stroke-width:0.26458332px"
       id="path1068"
       inkscape:connector-curvature="0" />
    <path
       d="m 57.808358,99.154663 h -1.21543 V 98.84047 h 0.403076 v -2.449462 h -0.403076 v -0.314193 h 1.21543 v 0.314193 h -0.403076 v 2.449462 h 0.403076 z"
       style="font-style:normal;font-variant:normal;font-weight:normal;font-stretch:normal;font-size:4.23333311px;font-family:sans-serif;-inkscape-font-specification:'sans-serif, Normal';font-variant-ligatures:normal;font-variant-caps:normal;font-variant-numeric:normal;font-feature-settings:normal;text-align:start;writing-mode:lr-tb;text-anchor:start;stroke-width:0.26458332px"
       id="path1070"
       inkscape:connector-curvature="0" />
    <path
       d="m 60.350838,99.154663 h -0.388607 v -0.241846 q -0.167431,0.144694 -0.349332,0.22531 -0.181901,0.08062 -0.394808,0.08062 -0.413412,0 -0.657324,-0.318327 -0.241846,-0.318327 -0.241846,-0.882633 0,-0.293522 0.08268,-0.522966 0.08475,-0.229443 0.227377,-0.390674 0.140559,-0.157096 0.326595,-0.239778 0.188102,-0.08268 0.388606,-0.08268 0.181901,0 0.322461,0.03927 0.14056,0.03721 0.295589,0.117822 v -1.000456 h 0.388607 z m -0.388607,-0.568441 v -1.324983 q -0.157096,-0.07028 -0.281119,-0.09715 -0.124024,-0.02687 -0.270785,-0.02687 -0.326595,0 -0.508496,0.227377 -0.181901,0.227376 -0.181901,0.644921 0,0.411345 0.14056,0.626319 0.14056,0.212907 0.450618,0.212907 0.165365,0 0.334864,-0.07235 0.169498,-0.07441 0.316259,-0.190171 z"
       style="font-style:normal;font-variant:normal;font-weight:normal;font-stretch:normal;font-size:4.23333311px;font-family:sans-serif;-inkscape-font-specification:'sans-serif, Normal';font-variant-ligatures:normal;font-variant-caps:normal;font-variant-numeric:normal;font-feature-settings:normal;text-align:start;writing-mode:lr-tb;text-anchor:start;stroke-width:0.26458332px"
       id="path1072"
       inkscape:connector-curvature="0" />
    <path
       d="m 62.70935,96.847827 q 0,0.347266 -0.239779,0.587045 -0.239778,0.239778 -0.589111,0.239778 -0.349332,0 -0.589111,-0.237711 -0.239779,-0.239779 -0.239779,-0.589112 0,-0.347265 0.239779,-0.587044 0.239779,-0.239779 0.589111,-0.239779 0.3514,0 0.589111,0.239779 0.239779,0.239779 0.239779,0.587044 z m -0.341064,0 q 0,-0.21084 -0.138493,-0.353467 -0.138493,-0.144694 -0.349333,-0.144694 -0.21084,0 -0.349332,0.144694 -0.138493,0.142627 -0.138493,0.353467 0,0.214974 0.14056,0.357601 0.142627,0.14056 0.347265,0.14056 0.21084,0 0.349333,-0.144694 0.138493,-0.144694 0.138493,-0.353467 z"
       style="font-style:normal;font-variant:normal;font-weight:normal;font-stretch:normal;font-size:4.23333311px;font-family:sans-serif;-inkscape-font-specification:'sans-serif, Normal';font-variant-ligatures:normal;font-variant-caps:normal;font-variant-numeric:normal;font-feature-settings:normal;text-align:start;writing-mode:lr-tb;text-anchor:start;stroke-width:0.26458332px"
       id="path1074"
       inkscape:connector-curvature="0" />
    <path
       d="m 65.007917,96.847827 q 0,0.347266 -0.239778,0.587045 -0.239779,0.239778 -0.589112,0.239778 -0.349332,0 -0.589111,-0.237711 -0.239778,-0.239779 -0.239778,-0.589112 0,-0.347265 0.239778,-0.587044 0.239779,-0.239779 0.589111,-0.239779 0.3514,0 0.589112,0.239779 0.239778,0.239779 0.239778,0.587044 z m -0.341064,0 q 0,-0.21084 -0.138493,-0.353467 -0.138493,-0.144694 -0.349333,-0.144694 -0.210839,0 -0.349332,0.144694 -0.138493,0.142627 -0.138493,0.353467 0,0.214974 0.14056,0.357601 0.142627,0.14056 0.347265,0.14056 0.21084,0 0.349333,-0.144694 0.138493,-0.144694 0.138493,-0.353467 z"
       style="font-style:normal;font-variant:normal;font-weight:normal;font-stretch:normal;font-size:4.23333311px;font-family:sans-serif;-inkscape-font-specification:'sans-serif, Normal';font-variant-ligatures:normal;font-variant-caps:normal;font-variant-numeric:normal;font-feature-settings:normal;text-align:start;writing-mode:lr-tb;text-anchor:start;stroke-width:0.26458332px"
       id="path1076"
       inkscape:connector-curvature="0" />
  </g>
  <g
     aria-label="liMonADe"
     style="font-style:normal;font-variant:normal;font-weight:normal;font-stretch:normal;font-size:2.82222223px;line-height:125%;font-family:'DejaVu Sans Mono';-inkscape-font-specification:'DejaVu Sans Mono, Normal';font-variant-ligatures:normal;font-variant-caps:normal;font-variant-numeric:normal;font-feature-settings:normal;text-align:start;letter-spacing:0px;word-spacing:0px;writing-mode:lr-tb;text-anchor:start;fill:#000000;fill-opacity:1;stroke:none;stroke-width:0.26458332px;stroke-linecap:butt;stroke-linejoin:miter;stroke-opacity:1"
     id="text930-7">
    <path
       d="M 50.298737,4.5392575 H 49.91013 v -3.216341 h 0.388607 z"
       style="font-style:normal;font-variant:normal;font-weight:normal;font-stretch:normal;font-size:4.23333311px;font-family:sans-serif;-inkscape-font-specification:'sans-serif, Normal';font-variant-ligatures:normal;font-variant-caps:normal;font-variant-numeric:normal;font-feature-settings:normal;text-align:start;writing-mode:lr-tb;text-anchor:start;stroke-width:0.26458332px"
       id="path1079"
       inkscape:connector-curvature="0" />
    <path
       d="M 51.489361,1.843815 H 51.051145 V 1.4407388 h 0.438216 z m -0.0248,2.6954425 H 51.07595 V 2.2303547 h 0.388607 z"
       style="font-style:normal;font-variant:normal;font-weight:normal;font-stretch:normal;font-size:4.23333311px;font-family:sans-serif;-inkscape-font-specification:'sans-serif, Normal';font-variant-ligatures:normal;font-variant-caps:normal;font-variant-numeric:normal;font-feature-settings:normal;text-align:start;writing-mode:lr-tb;text-anchor:start;stroke-width:0.26458332px"
       id="path1081"
       inkscape:connector-curvature="0" />
    <path
       d="M 55.00956,4.5392575 H 54.600283 V 1.8872232 L 53.744521,3.6917641 H 53.500608 L 52.651048,1.8872232 V 4.5392575 H 52.268642 V 1.4614094 h 0.558105 l 0.820622,1.7135904 0.79375,-1.7135904 h 0.568441 z"
       style="font-style:normal;font-variant:normal;font-weight:normal;font-stretch:normal;font-size:4.23333311px;font-family:sans-serif;-inkscape-font-specification:'sans-serif, Normal';font-variant-ligatures:normal;font-variant-caps:normal;font-variant-numeric:normal;font-feature-settings:normal;text-align:start;writing-mode:lr-tb;text-anchor:start;stroke-width:0.26458332px"
       id="path1083"
       inkscape:connector-curvature="0" />
    <path
       d="m 57.777349,3.3858396 q 0,0.5643066 -0.289388,0.8909017 -0.289388,0.326595 -0.775146,0.326595 -0.489893,0 -0.779281,-0.326595 -0.287321,-0.3265951 -0.287321,-0.8909017 0,-0.5643066 0.287321,-0.8909016 0.289388,-0.3286621 0.779281,-0.3286621 0.485758,0 0.775146,0.3286621 0.289388,0.326595 0.289388,0.8909016 z m -0.401009,0 q 0,-0.4485514 -0.1757,-0.6655924 -0.175699,-0.2191081 -0.487825,-0.2191081 -0.31626,0 -0.49196,0.2191081 -0.173632,0.217041 -0.173632,0.6655924 0,0.434082 0.175699,0.6593913 0.1757,0.2232421 0.489893,0.2232421 0.310059,0 0.485758,-0.2211751 0.177767,-0.2232422 0.177767,-0.6614583 z"
       style="font-style:normal;font-variant:normal;font-weight:normal;font-stretch:normal;font-size:4.23333311px;font-family:sans-serif;-inkscape-font-specification:'sans-serif, Normal';font-variant-ligatures:normal;font-variant-caps:normal;font-variant-numeric:normal;font-feature-settings:normal;text-align:start;writing-mode:lr-tb;text-anchor:start;stroke-width:0.26458332px"
       id="path1085"
       inkscape:connector-curvature="0" />
    <path
       d="M 60.311562,4.5392575 H 59.922955 V 3.2246092 q 0,-0.1591634 -0.0186,-0.2976563 -0.0186,-0.1405599 -0.06821,-0.219108 -0.05168,-0.086816 -0.148829,-0.1281576 -0.09715,-0.043408 -0.252181,-0.043408 -0.159163,0 -0.332796,0.078548 -0.173633,0.078548 -0.332796,0.2005045 V 4.5392575 H 58.38093 V 2.2303547 h 0.388607 v 0.256315 q 0.181901,-0.1508951 0.376204,-0.2356445 0.194304,-0.084749 0.398942,-0.084749 0.374138,0 0.570508,0.2253092 0.196371,0.2253092 0.196371,0.649056 z"
       style="font-style:normal;font-variant:normal;font-weight:normal;font-stretch:normal;font-size:4.23333311px;font-family:sans-serif;-inkscape-font-specification:'sans-serif, Normal';font-variant-ligatures:normal;font-variant-caps:normal;font-variant-numeric:normal;font-feature-settings:normal;text-align:start;writing-mode:lr-tb;text-anchor:start;stroke-width:0.26458332px"
       id="path1087"
       inkscape:connector-curvature="0" />
    <path
       d="M 63.517568,4.5392575 H 63.081419 L 62.779628,3.6814288 h -1.331185 l -0.30179,0.8578287 H 60.731175 L 61.85152,1.4614094 h 0.545703 z M 62.653538,3.3300291 62.114036,1.8190103 61.572467,3.3300291 Z"
       style="font-style:normal;font-variant:normal;font-weight:normal;font-stretch:normal;font-size:4.23333311px;font-family:sans-serif;-inkscape-font-specification:'sans-serif, Normal';font-variant-ligatures:normal;font-variant-caps:normal;font-variant-numeric:normal;font-feature-settings:normal;text-align:start;writing-mode:lr-tb;text-anchor:start;stroke-width:0.26458332px"
       id="path1089"
       inkscape:connector-curvature="0" />
    <path
       d="m 66.58508,3.003434 q 0,0.4196126 -0.183968,0.7606771 -0.181901,0.3410644 -0.485758,0.5291666 -0.21084,0.1302246 -0.471289,0.1881022 -0.258382,0.057878 -0.682129,0.057878 H 63.984722 V 1.4614094 h 0.768946 q 0.450618,0 0.715201,0.066146 0.266651,0.064079 0.450619,0.1777669 0.314193,0.1963705 0.489893,0.5229655 0.175699,0.326595 0.175699,0.7751462 z m -0.42788,-0.0062 q 0,-0.361735 -0.126091,-0.6097819 -0.12609,-0.2480469 -0.376204,-0.3906738 -0.181901,-0.1033529 -0.38654,-0.142627 -0.204639,-0.041341 -0.489893,-0.041341 H 64.394 V 4.187859 h 0.384472 q 0.29559,0 0.514698,-0.043408 0.221175,-0.043408 0.405143,-0.1612305 0.229443,-0.146761 0.343131,-0.3865396 Q 66.1572,3.3569008 66.1572,2.9972329 Z"
       style="font-style:normal;font-variant:normal;font-weight:normal;font-stretch:normal;font-size:4.23333311px;font-family:sans-serif;-inkscape-font-specification:'sans-serif, Normal';font-variant-ligatures:normal;font-variant-caps:normal;font-variant-numeric:normal;font-feature-settings:normal;text-align:start;writing-mode:lr-tb;text-anchor:start;stroke-width:0.26458332px"
       id="path1091"
       inkscape:connector-curvature="0" />
    <path
       d="m 69.152365,3.4251137 h -1.701188 q 0,0.2129069 0.06408,0.3720703 0.06408,0.1570963 0.1757,0.2583821 0.107487,0.099219 0.254248,0.1488282 0.148828,0.049609 0.326595,0.049609 0.235644,0 0.473356,-0.093018 0.239779,-0.095085 0.341064,-0.1860352 h 0.02067 v 0.4237467 q -0.19637,0.082682 -0.401009,0.1384929 -0.204639,0.05581 -0.429948,0.05581 -0.574642,0 -0.897103,-0.3100586 -0.322461,-0.3121256 -0.322461,-0.8847004 0,-0.5663737 0.307992,-0.8991699 0.310058,-0.3327962 0.81442,-0.3327962 0.467155,0 0.719336,0.2728515 0.254248,0.2728516 0.254248,0.7751465 z M 68.774094,3.1274575 q -0.0021,-0.3059245 -0.15503,-0.4733561 -0.150895,-0.1674317 -0.460953,-0.1674317 -0.312126,0 -0.498161,0.1839681 -0.183968,0.1839681 -0.208773,0.4568197 z"
       style="font-style:normal;font-variant:normal;font-weight:normal;font-stretch:normal;font-size:4.23333311px;font-family:sans-serif;-inkscape-font-specification:'sans-serif, Normal';font-variant-ligatures:normal;font-variant-caps:normal;font-variant-numeric:normal;font-feature-settings:normal;text-align:start;writing-mode:lr-tb;text-anchor:start;stroke-width:0.26458332px"
       id="path1093"
       inkscape:connector-curvature="0" />
  </g>
  <g
     id="text930-7-7"
     style="font-style:normal;font-variant:normal;font-weight:normal;font-stretch:normal;font-size:2.82222223px;line-height:125%;font-family:'DejaVu Sans Mono';-inkscape-font-specification:'DejaVu Sans Mono, Normal';font-variant-ligatures:normal;font-variant-caps:normal;font-variant-numeric:normal;font-feature-settings:normal;text-align:start;letter-spacing:0px;word-spacing:0px;writing-mode:lr-tb;text-anchor:start;fill:#000000;fill-opacity:1;stroke:none;stroke-width:0.26458332px;stroke-linecap:butt;stroke-linejoin:miter;stroke-opacity:1"
     aria-label="UNI"
     transform="translate(3.5e-6,-56.188032)">
    <path
       inkscape:connector-curvature="0"
       id="path1096"
       style="font-style:normal;font-variant:normal;font-weight:normal;font-stretch:normal;font-size:2.82222223px;font-family:sans-serif;-inkscape-font-specification:'sans-serif, Normal';font-variant-ligatures:normal;font-variant-caps:normal;font-variant-numeric:normal;font-feature-settings:normal;text-align:start;writing-mode:lr-tb;text-anchor:start;stroke-width:0.26458332px"
       d="m 75.616317,112.61365 q 0,0.22324 -0.04961,0.38998 -0.04823,0.16537 -0.159852,0.27561 -0.106109,0.10473 -0.248047,0.15296 -0.141938,0.0482 -0.330729,0.0482 -0.192926,0 -0.336242,-0.051 -0.143316,-0.051 -0.241156,-0.15021 -0.111622,-0.113 -0.161231,-0.27285 -0.04823,-0.15985 -0.04823,-0.39274 v -1.22784 h 0.272851 v 1.24162 q 0,0.16674 0.02205,0.2632 0.02343,0.0965 0.07717,0.17501 0.06063,0.0896 0.163987,0.13505 0.104731,0.0455 0.250803,0.0455 0.14745,0 0.250803,-0.0441 0.103352,-0.0455 0.165364,-0.13643 0.05374,-0.0785 0.07579,-0.17914 0.02343,-0.10198 0.02343,-0.25218 v -1.24851 h 0.272851 z" />
    <path
       inkscape:connector-curvature="0"
       id="path1098"
       style="font-style:normal;font-variant:normal;font-weight:normal;font-stretch:normal;font-size:2.82222223px;font-family:sans-serif;-inkscape-font-specification:'sans-serif, Normal';font-variant-ligatures:normal;font-variant-caps:normal;font-variant-numeric:normal;font-feature-settings:normal;text-align:start;writing-mode:lr-tb;text-anchor:start;stroke-width:0.26458332px"
       d="m 77.704045,113.43771 h -0.337619 l -0.972895,-1.83554 v 1.83554 h -0.254937 v -2.0519 h 0.423058 l 0.887456,1.6757 v -1.6757 h 0.254937 z" />
    <path
       inkscape:connector-curvature="0"
       id="path1100"
       style="font-style:normal;font-variant:normal;font-weight:normal;font-stretch:normal;font-size:2.82222223px;font-family:sans-serif;-inkscape-font-specification:'sans-serif, Normal';font-variant-ligatures:normal;font-variant-caps:normal;font-variant-numeric:normal;font-feature-settings:normal;text-align:start;writing-mode:lr-tb;text-anchor:start;stroke-width:0.26458332px"
       d="m 78.973219,113.43771 h -0.810287 v -0.20946 h 0.268718 v -1.63297 h -0.268718 v -0.20947 h 0.810287 v 0.20947 h -0.268718 v 1.63297 h 0.268718 z" />
  </g>
  <g
     id="text930-7-7-9"
     style="font-style:normal;font-variant:normal;font-weight:normal;font-stretch:normal;font-size:2.82222223px;line-height:125%;font-family:'DejaVu Sans Mono';-inkscape-font-specification:'DejaVu Sans Mono, Normal';font-variant-ligatures:normal;font-variant-caps:normal;font-variant-numeric:normal;font-feature-settings:normal;text-align:start;letter-spacing:0px;word-spacing:0px;writing-mode:lr-tb;text-anchor:start;fill:#000000;fill-opacity:1;stroke:none;stroke-width:0.26458332px;stroke-linecap:butt;stroke-linejoin:miter;stroke-opacity:1"
     aria-label="V/O"
     transform="translate(0,-56.188032)">
    <path
       inkscape:connector-curvature="0"
       id="path1103"
       style="font-style:normal;font-variant:normal;font-weight:normal;font-stretch:normal;font-size:2.82222223px;font-family:sans-serif;-inkscape-font-specification:'sans-serif, Normal';font-variant-ligatures:normal;font-variant-caps:normal;font-variant-numeric:normal;font-feature-settings:normal;text-align:start;writing-mode:lr-tb;text-anchor:start;stroke-width:0.26458332px"
       d="m 84.758506,111.47814 -0.746896,2.0519 h -0.363803 l -0.746896,-2.0519 h 0.292144 l 0.643544,1.80523 0.643544,-1.80523 z" />
    <path
       inkscape:connector-curvature="0"
       id="path1105"
       style="font-style:normal;font-variant:normal;font-weight:normal;font-stretch:normal;font-size:2.82222223px;font-family:sans-serif;-inkscape-font-specification:'sans-serif, Normal';font-variant-ligatures:normal;font-variant-caps:normal;font-variant-numeric:normal;font-feature-settings:normal;text-align:start;writing-mode:lr-tb;text-anchor:start;stroke-width:0.26458332px"
       d="m 85.979448,111.38581 -0.988053,2.56315 h -0.238401 l 0.983919,-2.56315 z" />
    <path
       inkscape:connector-curvature="0"
       id="path1107"
       style="font-style:normal;font-variant:normal;font-weight:normal;font-stretch:normal;font-size:2.82222223px;font-family:sans-serif;-inkscape-font-specification:'sans-serif, Normal';font-variant-ligatures:normal;font-variant-caps:normal;font-variant-numeric:normal;font-feature-settings:normal;text-align:start;writing-mode:lr-tb;text-anchor:start;stroke-width:0.26458332px"
       d="m 87.883897,111.71378 q 0.125401,0.13781 0.191547,0.33762 0.06752,0.19982 0.06752,0.45338 0,0.25356 -0.0689,0.45475 -0.06752,0.19981 -0.190169,0.33348 -0.12678,0.13919 -0.300413,0.20947 -0.172254,0.0703 -0.394119,0.0703 -0.216352,0 -0.394118,-0.0717 -0.176389,-0.0717 -0.300413,-0.20809 -0.124023,-0.13642 -0.191547,-0.33486 -0.06615,-0.19844 -0.06615,-0.45337 0,-0.25081 0.06615,-0.44924 0.06615,-0.19982 0.192925,-0.34176 0.121268,-0.13505 0.300413,-0.2067 0.180523,-0.0717 0.39274,-0.0717 0.220487,0 0.395497,0.073 0.176389,0.0717 0.299035,0.20533 z m -0.02481,0.791 q 0,-0.39963 -0.179145,-0.61599 -0.179145,-0.21773 -0.489203,-0.21773 -0.312815,0 -0.49196,0.21773 -0.177767,0.21636 -0.177767,0.61599 0,0.40376 0.181901,0.61874 0.181901,0.21359 0.487826,0.21359 0.305924,0 0.486447,-0.21359 0.181901,-0.21498 0.181901,-0.61874 z" />
  </g>
  <g
     id="text930-7-7-5"
     style="font-style:normal;font-variant:normal;font-weight:normal;font-stretch:normal;font-size:2.82222223px;line-height:125%;font-family:'DejaVu Sans Mono';-inkscape-font-specification:'DejaVu Sans Mono, Normal';font-variant-ligatures:normal;font-variant-caps:normal;font-variant-numeric:normal;font-feature-settings:normal;text-align:start;letter-spacing:0px;word-spacing:0px;writing-mode:lr-tb;text-anchor:start;fill:#000000;fill-opacity:1;stroke:none;stroke-width:0.26458332px;stroke-linecap:butt;stroke-linejoin:miter;stroke-opacity:1"
     aria-label="FINE"
     transform="translate(5.5e-6,-56.188032)">
    <path
       inkscape:connector-curvature="0"
       id="path1110"
       style="font-style:normal;font-variant:normal;font-weight:normal;font-stretch:normal;font-size:2.82222223px;font-family:sans-serif;-inkscape-font-specification:'sans-serif, Normal';font-variant-ligatures:normal;font-variant-caps:normal;font-variant-numeric:normal;font-feature-settings:normal;text-align:start;writing-mode:lr-tb;text-anchor:start;stroke-width:0.26458332px"
       d="m 93.18287,111.62835 h -1.037662 v 0.57878 h 0.89159 v 0.24253 h -0.89159 v 0.98805 h -0.272852 v -2.0519 h 1.310514 z" />
    <path
       inkscape:connector-curvature="0"
       id="path1112"
       style="font-style:normal;font-variant:normal;font-weight:normal;font-stretch:normal;font-size:2.82222223px;font-family:sans-serif;-inkscape-font-specification:'sans-serif, Normal';font-variant-ligatures:normal;font-variant-caps:normal;font-variant-numeric:normal;font-feature-settings:normal;text-align:start;writing-mode:lr-tb;text-anchor:start;stroke-width:0.26458332px"
       d="m 94.216399,113.43771 h -0.810286 v -0.20946 h 0.268717 v -1.63297 h -0.268717 v -0.20947 h 0.810286 v 0.20947 h -0.268717 v 1.63297 h 0.268717 z" />
    <path
       inkscape:connector-curvature="0"
       id="path1114"
       style="font-style:normal;font-variant:normal;font-weight:normal;font-stretch:normal;font-size:2.82222223px;font-family:sans-serif;-inkscape-font-specification:'sans-serif, Normal';font-variant-ligatures:normal;font-variant-caps:normal;font-variant-numeric:normal;font-feature-settings:normal;text-align:start;writing-mode:lr-tb;text-anchor:start;stroke-width:0.26458332px"
       d="m 96.249005,113.43771 h -0.337619 l -0.972895,-1.83554 v 1.83554 h -0.254937 v -2.0519 h 0.423057 l 0.887457,1.6757 v -1.6757 h 0.254937 z" />
    <path
       inkscape:connector-curvature="0"
       id="path1116"
       style="font-style:normal;font-variant:normal;font-weight:normal;font-stretch:normal;font-size:2.82222223px;font-family:sans-serif;-inkscape-font-specification:'sans-serif, Normal';font-variant-ligatures:normal;font-variant-caps:normal;font-variant-numeric:normal;font-feature-settings:normal;text-align:start;writing-mode:lr-tb;text-anchor:start;stroke-width:0.26458332px"
       d="m 98.146564,113.43771 h -1.351856 v -2.0519 h 1.351856 v 0.24254 H 97.06756 v 0.56224 h 1.079004 v 0.24253 H 97.06756 v 0.76206 h 1.079004 z" />
  </g>
  <g
     id="text930-7-7-4"
     style="font-style:normal;font-variant:normal;font-weight:normal;font-stretch:normal;font-size:2.82222223px;line-height:125%;font-family:'DejaVu Sans Mono';-inkscape-font-specification:'DejaVu Sans Mono, Normal';font-variant-ligatures:normal;font-variant-caps:normal;font-variant-numeric:normal;font-feature-settings:normal;text-align:start;letter-spacing:0px;word-spacing:0px;writing-mode:lr-tb;text-anchor:start;fill:#000000;fill-opacity:1;stroke:none;stroke-width:0.26458332px;stroke-linecap:butt;stroke-linejoin:miter;stroke-opacity:1"
     aria-label="FM"
     transform="translate(0,-56.188032)">
    <path
       inkscape:connector-curvature="0"
       id="path1119"
       style="font-style:normal;font-variant:normal;font-weight:normal;font-stretch:normal;font-size:2.82222223px;font-family:sans-serif;-inkscape-font-specification:'sans-serif, Normal';font-variant-ligatures:normal;font-variant-caps:normal;font-variant-numeric:normal;font-feature-settings:normal;text-align:start;writing-mode:lr-tb;text-anchor:start;stroke-width:0.26458332px"
       d="m 103.67581,111.62835 h -1.03767 v 0.57878 h 0.89159 v 0.24253 h -0.89159 v 0.98805 h -0.27285 v -2.0519 h 1.31052 z" />
    <path
       inkscape:connector-curvature="0"
       id="path1121"
       style="font-style:normal;font-variant:normal;font-weight:normal;font-stretch:normal;font-size:2.82222223px;font-family:sans-serif;-inkscape-font-specification:'sans-serif, Normal';font-variant-ligatures:normal;font-variant-caps:normal;font-variant-numeric:normal;font-feature-settings:normal;text-align:start;writing-mode:lr-tb;text-anchor:start;stroke-width:0.26458332px"
       d="m 105.81314,113.43771 h -0.27285 v -1.76802 l -0.57051,1.20303 h -0.16261 l -0.56637,-1.20303 v 1.76802 h -0.25494 v -2.0519 h 0.37207 l 0.54709,1.1424 0.52916,-1.1424 h 0.37896 z" />
  </g>
  <g
     id="text930-7-7-8"
     style="font-style:normal;font-variant:normal;font-weight:normal;font-stretch:normal;font-size:2.82222223px;line-height:125%;font-family:'DejaVu Sans Mono';-inkscape-font-specification:'DejaVu Sans Mono, Normal';font-variant-ligatures:normal;font-variant-caps:normal;font-variant-numeric:normal;font-feature-settings:normal;text-align:start;letter-spacing:0px;word-spacing:0px;writing-mode:lr-tb;text-anchor:start;fill:#000000;fill-opacity:1;stroke:none;stroke-width:0.26458332px;stroke-linecap:butt;stroke-linejoin:miter;stroke-opacity:1"
     aria-label="SCAN"
     transform="translate(0.15062222,-56.188032)">
    <path
       inkscape:connector-curvature="0"
       id="path1124"
       style="font-style:normal;font-variant:normal;font-weight:normal;font-stretch:normal;font-size:2.82222223px;font-family:sans-serif;-inkscape-font-specification:'sans-serif, Normal';font-variant-ligatures:normal;font-variant-caps:normal;font-variant-numeric:normal;font-feature-settings:normal;text-align:start;writing-mode:lr-tb;text-anchor:start;stroke-width:0.26458332px"
       d="m 111.28875,112.88926 q 0,0.11989 -0.0565,0.23702 -0.0551,0.11713 -0.15572,0.19844 -0.11024,0.0882 -0.25769,0.1378 -0.14608,0.0496 -0.35278,0.0496 -0.22187,0 -0.39963,-0.0413 -0.17639,-0.0413 -0.35967,-0.12265 v -0.34175 h 0.0193 q 0.15572,0.12953 0.35967,0.19981 0.20395,0.0703 0.38309,0.0703 0.25356,0 0.39412,-0.0951 0.14194,-0.0951 0.14194,-0.25356 0,-0.13642 -0.0675,-0.20119 -0.0661,-0.0648 -0.20257,-0.1006 -0.10336,-0.0276 -0.22462,-0.0455 -0.11989,-0.0179 -0.25494,-0.0455 -0.27285,-0.0579 -0.40514,-0.19706 -0.13092,-0.14056 -0.13092,-0.36518 0,-0.25769 0.21773,-0.42168 0.21773,-0.16536 0.5526,-0.16536 0.21635,0 0.39687,0.0413 0.18052,0.0413 0.31971,0.10197 v 0.32246 h -0.0193 q -0.11713,-0.0992 -0.30868,-0.16398 -0.19017,-0.0662 -0.38998,-0.0662 -0.21911,0 -0.35278,0.091 -0.13229,0.0909 -0.13229,0.23427 0,0.12816 0.0661,0.20119 0.0661,0.073 0.23289,0.11162 0.0882,0.0193 0.2508,0.0469 0.16261,0.0276 0.27561,0.0565 0.22876,0.0606 0.34451,0.18327 0.11576,0.12265 0.11576,0.34314 z" />
    <path
       inkscape:connector-curvature="0"
       id="path1126"
       style="font-style:normal;font-variant:normal;font-weight:normal;font-stretch:normal;font-size:2.82222223px;font-family:sans-serif;-inkscape-font-specification:'sans-serif, Normal';font-variant-ligatures:normal;font-variant-caps:normal;font-variant-numeric:normal;font-feature-settings:normal;text-align:start;writing-mode:lr-tb;text-anchor:start;stroke-width:0.26458332px"
       d="m 113.31171,113.32609 q -0.0758,0.0331 -0.13781,0.062 -0.0606,0.0289 -0.15985,0.0606 -0.0841,0.0262 -0.18328,0.0441 -0.0978,0.0193 -0.21635,0.0193 -0.22324,0 -0.40652,-0.062 -0.1819,-0.0634 -0.31695,-0.19706 -0.13229,-0.13092 -0.20671,-0.33211 -0.0744,-0.20257 -0.0744,-0.46991 0,-0.25356 0.0717,-0.45337 0.0717,-0.19982 0.2067,-0.33762 0.13092,-0.13367 0.31557,-0.20395 0.18604,-0.0703 0.41204,-0.0703 0.16536,0 0.32935,0.04 0.16536,0.04 0.36656,0.14056 v 0.32384 h -0.0207 q -0.1695,-0.14194 -0.33624,-0.20671 -0.16675,-0.0648 -0.35692,-0.0648 -0.15571,0 -0.28112,0.051 -0.12402,0.0496 -0.22186,0.15572 -0.0951,0.10335 -0.14883,0.26183 -0.0524,0.15709 -0.0524,0.3638 0,0.21635 0.0579,0.37207 0.0593,0.15572 0.15159,0.25356 0.0965,0.10197 0.22462,0.15158 0.12953,0.0482 0.27285,0.0482 0.19706,0 0.36931,-0.0675 0.17226,-0.0675 0.32246,-0.20257 h 0.0193 z" />
    <path
       inkscape:connector-curvature="0"
       id="path1128"
       style="font-style:normal;font-variant:normal;font-weight:normal;font-stretch:normal;font-size:2.82222223px;font-family:sans-serif;-inkscape-font-specification:'sans-serif, Normal';font-variant-ligatures:normal;font-variant-caps:normal;font-variant-numeric:normal;font-feature-settings:normal;text-align:start;writing-mode:lr-tb;text-anchor:start;stroke-width:0.26458332px"
       d="m 115.31813,113.47492 h -0.29077 l -0.20119,-0.57188 h -0.88746 l -0.20119,0.57188 h -0.27698 l 0.74689,-2.0519 h 0.3638 z m -0.57602,-0.80615 -0.35967,-1.00735 -0.36104,1.00735 z" />
    <path
       inkscape:connector-curvature="0"
       id="path1130"
       style="font-style:normal;font-variant:normal;font-weight:normal;font-stretch:normal;font-size:2.82222223px;font-family:sans-serif;-inkscape-font-specification:'sans-serif, Normal';font-variant-ligatures:normal;font-variant-caps:normal;font-variant-numeric:normal;font-feature-settings:normal;text-align:start;writing-mode:lr-tb;text-anchor:start;stroke-width:0.26458332px"
       d="m 117.19502,113.47492 h -0.33762 l -0.9729,-1.83554 v 1.83554 h -0.25493 v -2.0519 h 0.42306 l 0.88745,1.6757 v -1.6757 h 0.25494 z" />
  </g>
  <g
     aria-label="RNG"
     style="font-style:normal;font-variant:normal;font-weight:normal;font-stretch:normal;font-size:2.82222223px;line-height:125%;font-family:'DejaVu Sans Mono';-inkscape-font-specification:'DejaVu Sans Mono, Normal';font-variant-ligatures:normal;font-variant-caps:normal;font-variant-numeric:normal;font-feature-settings:normal;text-align:start;letter-spacing:0px;word-spacing:0px;writing-mode:lr-tb;text-anchor:start;fill:#000000;fill-opacity:1;stroke:none;stroke-width:0.26458332px;stroke-linecap:butt;stroke-linejoin:miter;stroke-opacity:1"
     id="text930-7-7-6">
    <path
       d="m 75.312462,68.605904 h -0.354156 l -0.686263,-0.815799 h -0.384472 v 0.815799 h -0.272852 v -2.051899 h 0.574642 q 0.186035,0 0.310058,0.0248 0.124024,0.02343 0.223243,0.08544 0.111621,0.07028 0.173632,0.177767 0.06339,0.106109 0.06339,0.270095 0,0.221864 -0.111621,0.372071 -0.111621,0.148828 -0.307302,0.22462 z M 74.67443,67.131403 q 0,-0.08819 -0.03169,-0.155719 -0.03032,-0.0689 -0.101974,-0.115755 -0.05926,-0.03996 -0.14056,-0.05512 -0.08131,-0.01654 -0.191548,-0.01654 h -0.321082 v 0.774458 h 0.275607 q 0.129536,0 0.225998,-0.02205 0.09646,-0.02343 0.163987,-0.08544 0.06201,-0.05788 0.09095,-0.132292 0.03032,-0.07579 0.03032,-0.191547 z"
       style="font-style:normal;font-variant:normal;font-weight:normal;font-stretch:normal;font-size:2.82222223px;font-family:sans-serif;-inkscape-font-specification:'sans-serif, Normal';font-variant-ligatures:normal;font-variant-caps:normal;font-variant-numeric:normal;font-feature-settings:normal;text-align:start;writing-mode:lr-tb;text-anchor:start;stroke-width:0.26458332px"
       id="path1133"
       inkscape:connector-curvature="0" />
    <path
       d="m 77.142497,68.605904 h -0.33762 l -0.972895,-1.835547 v 1.835547 h -0.254937 v -2.051899 h 0.423058 l 0.887457,1.675694 v -1.675694 h 0.254937 z"
       style="font-style:normal;font-variant:normal;font-weight:normal;font-stretch:normal;font-size:2.82222223px;font-family:sans-serif;-inkscape-font-specification:'sans-serif, Normal';font-variant-ligatures:normal;font-variant-caps:normal;font-variant-numeric:normal;font-feature-settings:normal;text-align:start;writing-mode:lr-tb;text-anchor:start;stroke-width:0.26458332px"
       id="path1135"
       inkscape:connector-curvature="0" />
    <path
       d="m 79.399723,68.454319 q -0.16812,0.07717 -0.367936,0.135048 -0.198437,0.0565 -0.384472,0.0565 -0.239779,0 -0.439595,-0.06615 -0.199815,-0.06615 -0.340375,-0.198438 -0.141938,-0.133669 -0.219108,-0.333485 -0.07717,-0.201193 -0.07717,-0.469911 0,-0.49196 0.286632,-0.775835 0.28801,-0.285254 0.789616,-0.285254 0.17501,0 0.356912,0.04272 0.183279,0.04134 0.394118,0.141938 v 0.323839 h -0.0248 q -0.04272,-0.03307 -0.124024,-0.08682 -0.0813,-0.05374 -0.159852,-0.08957 -0.09508,-0.04272 -0.216352,-0.07028 -0.119889,-0.02894 -0.272852,-0.02894 -0.344509,0 -0.545703,0.221864 -0.199815,0.220486 -0.199815,0.598069 0,0.398253 0.209461,0.620117 0.209462,0.220486 0.570508,0.220486 0.132292,0 0.263206,-0.02618 0.132291,-0.02618 0.23151,-0.06752 v -0.502984 h -0.549837 v -0.239779 h 0.819932 z"
       style="font-style:normal;font-variant:normal;font-weight:normal;font-stretch:normal;font-size:2.82222223px;font-family:sans-serif;-inkscape-font-specification:'sans-serif, Normal';font-variant-ligatures:normal;font-variant-caps:normal;font-variant-numeric:normal;font-feature-settings:normal;text-align:start;writing-mode:lr-tb;text-anchor:start;stroke-width:0.26458332px"
       id="path1137"
       inkscape:connector-curvature="0" />
  </g>
  <path
     style="fill:none;fill-rule:evenodd;stroke:#000000;stroke-width:0.26458332px;stroke-linecap:butt;stroke-linejoin:miter;stroke-opacity:1"
     d="m 94.967309,89.265394 -8.830227,0.01884"
     id="path903"
     inkscape:connector-curvature="0" />
  <g
     aria-label="H"
     style="font-style:normal;font-variant:normal;font-weight:normal;font-stretch:normal;font-size:2.82222223px;line-height:125%;font-family:'DejaVu Sans Mono';-inkscape-font-specification:'DejaVu Sans Mono, Normal';font-variant-ligatures:normal;font-variant-caps:normal;font-variant-numeric:normal;font-feature-settings:normal;text-align:start;letter-spacing:0px;word-spacing:0px;writing-mode:lr-tb;text-anchor:start;fill:#000000;fill-opacity:1;stroke:none;stroke-width:0.26458332px;stroke-linecap:butt;stroke-linejoin:miter;stroke-opacity:1"
     id="text930-7-7-7"
     transform="translate(6.5e-6,-2.2389351)">
    <path
       d="M 95.794252,88.013176 H 95.5214 v -1.00459 h -1.023882 v 1.00459 h -0.272852 v -2.051899 h 0.272852 v 0.804774 H 95.5214 v -0.804774 h 0.272852 z"
       style="font-style:normal;font-variant:normal;font-weight:normal;font-stretch:normal;font-size:2.82222223px;font-family:sans-serif;-inkscape-font-specification:'sans-serif, Normal';font-variant-ligatures:normal;font-variant-caps:normal;font-variant-numeric:normal;font-feature-settings:normal;text-align:start;writing-mode:lr-tb;text-anchor:start;stroke-width:0.26458332px"
       id="path1149"
       inkscape:connector-curvature="0" />
  </g>
  <g
     aria-label="S"
     style="font-style:normal;font-variant:normal;font-weight:normal;font-stretch:normal;font-size:2.82222223px;line-height:125%;font-family:'DejaVu Sans Mono';-inkscape-font-specification:'DejaVu Sans Mono, Normal';font-variant-ligatures:normal;font-variant-caps:normal;font-variant-numeric:normal;font-feature-settings:normal;text-align:start;letter-spacing:0px;word-spacing:0px;writing-mode:lr-tb;text-anchor:start;fill:#000000;fill-opacity:1;stroke:none;stroke-width:0.26458332px;stroke-linecap:butt;stroke-linejoin:miter;stroke-opacity:1"
     id="text930-7-7-3"
     transform="translate(4.5e-6,-2.2389351)">
    <path
       d="m 95.800451,96.766545 q 0,0.119889 -0.0565,0.237022 -0.05512,0.117134 -0.155718,0.198438 -0.110243,0.08819 -0.257693,0.137804 -0.146072,0.04961 -0.352778,0.04961 -0.221864,0 -0.399631,-0.04134 -0.176389,-0.04134 -0.359668,-0.122646 V 96.88368 h 0.01929 q 0.155718,0.129536 0.359667,0.199816 0.20395,0.07028 0.383095,0.07028 0.253559,0 0.394119,-0.09508 0.141938,-0.09508 0.141938,-0.253559 0,-0.136426 -0.06752,-0.201194 -0.06615,-0.06477 -0.202572,-0.100597 -0.103352,-0.02756 -0.22462,-0.04547 -0.119889,-0.01791 -0.254937,-0.04547 -0.272851,-0.05788 -0.405143,-0.19706 -0.130914,-0.140559 -0.130914,-0.36518 0,-0.257693 0.21773,-0.421679 0.21773,-0.165365 0.552594,-0.165365 0.216352,0 0.396875,0.04134 0.180523,0.04134 0.319705,0.101975 v 0.322461 h -0.01929 q -0.117133,-0.09922 -0.308681,-0.163987 -0.190169,-0.06615 -0.389984,-0.06615 -0.219108,0 -0.352778,0.09095 -0.132292,0.09095 -0.132292,0.234267 0,0.128157 0.06615,0.201193 0.06615,0.07304 0.232888,0.111621 0.08819,0.01929 0.250803,0.04685 0.162609,0.02756 0.275608,0.0565 0.228754,0.06063 0.34451,0.183279 0.115755,0.122646 0.115755,0.343132 z"
       style="font-style:normal;font-variant:normal;font-weight:normal;font-stretch:normal;font-size:2.82222223px;font-family:sans-serif;-inkscape-font-specification:'sans-serif, Normal';font-variant-ligatures:normal;font-variant-caps:normal;font-variant-numeric:normal;font-feature-settings:normal;text-align:start;writing-mode:lr-tb;text-anchor:start;stroke-width:0.26458332px"
       id="path1152"
       inkscape:connector-curvature="0" />
  </g>
  <g
     id="g914"
     transform="translate(0,-38.025483)">
    <path
       style="opacity:1;fill:#020202;fill-opacity:1;fill-rule:nonzero;stroke:#000000;stroke-width:2.19999981;stroke-linecap:butt;stroke-linejoin:round;stroke-miterlimit:8.19999981;stroke-dasharray:none;stroke-dashoffset:0;stroke-opacity:1;paint-order:normal"
       d="m 92.363632,110.57748 h 5.291667 v 8.898 h -5.291667 z"
       id="rect5282-9-4-4"
       inkscape:connector-curvature="0" />
    <g
       aria-label="SYNC"
       style="font-style:normal;font-variant:normal;font-weight:normal;font-stretch:normal;font-size:2.11666656px;line-height:125%;font-family:sans-serif;-inkscape-font-specification:'sans-serif, Normal';font-variant-ligatures:normal;font-variant-caps:normal;font-variant-numeric:normal;font-feature-settings:normal;text-align:start;letter-spacing:0px;word-spacing:0px;writing-mode:lr-tb;text-anchor:start;fill:#000000;fill-opacity:1;stroke:none;stroke-width:0.26458332px;stroke-linecap:butt;stroke-linejoin:miter;stroke-opacity:1"
       id="text5206-7-4-9-7">
      <path
         d="m 93.401293,111.63548 q 0,0.0899 -0.04237,0.17777 -0.04134,0.0879 -0.116789,0.14883 -0.08268,0.0661 -0.193269,0.10335 -0.109554,0.0372 -0.264584,0.0372 -0.166398,0 -0.299723,-0.031 -0.132292,-0.031 -0.269751,-0.092 v -0.25632 h 0.01447 q 0.116789,0.0971 0.269751,0.14986 0.152963,0.0527 0.287321,0.0527 0.19017,0 0.29559,-0.0713 0.106453,-0.0713 0.106453,-0.19017 0,-0.10232 -0.05064,-0.1509 -0.04961,-0.0486 -0.151929,-0.0754 -0.07751,-0.0207 -0.168465,-0.0341 -0.08992,-0.0134 -0.191203,-0.0341 -0.204638,-0.0434 -0.303857,-0.14779 -0.09819,-0.10542 -0.09819,-0.27389 0,-0.19327 0.163297,-0.31626 0.163298,-0.12402 0.414445,-0.12402 0.162264,0 0.297657,0.031 0.135392,0.031 0.239778,0.0765 v 0.24184 h -0.01447 q -0.08785,-0.0744 -0.231511,-0.12299 -0.142627,-0.0496 -0.292488,-0.0496 -0.164331,0 -0.264584,0.0682 -0.09922,0.0682 -0.09922,0.1757 0,0.0961 0.04961,0.15089 0.04961,0.0548 0.174666,0.0837 0.06615,0.0145 0.188103,0.0351 0.121956,0.0207 0.206705,0.0424 0.171566,0.0455 0.258382,0.13746 0.08682,0.092 0.08682,0.25735 z"
         style="font-style:normal;font-variant:normal;font-weight:normal;font-stretch:normal;font-size:2.11666656px;font-family:sans-serif;-inkscape-font-specification:'sans-serif, Normal';font-variant-ligatures:normal;font-variant-caps:normal;font-variant-numeric:normal;font-feature-settings:normal;text-align:start;writing-mode:lr-tb;text-anchor:start;fill:#ffffff;fill-opacity:1;stroke-width:0.26458332px"
         id="path924"
         inkscape:connector-curvature="0" />
      <path
         d="m 94.819294,110.53581 -0.541569,0.86403 v 0.67489 h -0.204639 v -0.65319 l -0.543636,-0.88573 h 0.226343 l 0.420646,0.68833 0.424781,-0.68833 z"
         style="font-style:normal;font-variant:normal;font-weight:normal;font-stretch:normal;font-size:2.11666656px;font-family:sans-serif;-inkscape-font-specification:'sans-serif, Normal';font-variant-ligatures:normal;font-variant-caps:normal;font-variant-numeric:normal;font-feature-settings:normal;text-align:start;writing-mode:lr-tb;text-anchor:start;fill:#ffffff;fill-opacity:1;stroke-width:0.26458332px"
         id="path926"
         inkscape:connector-curvature="0" />
      <path
         d="m 96.206289,112.07473 h -0.253214 l -0.729671,-1.37666 v 1.37666 h -0.191203 v -1.53892 h 0.317293 l 0.665593,1.25677 v -1.25677 h 0.191202 z"
         style="font-style:normal;font-variant:normal;font-weight:normal;font-stretch:normal;font-size:2.11666656px;font-family:sans-serif;-inkscape-font-specification:'sans-serif, Normal';font-variant-ligatures:normal;font-variant-caps:normal;font-variant-numeric:normal;font-feature-settings:normal;text-align:start;writing-mode:lr-tb;text-anchor:start;fill:#ffffff;fill-opacity:1;stroke-width:0.26458332px"
         id="path928"
         inkscape:connector-curvature="0" />
      <path
         d="m 97.804125,111.96311 q -0.05684,0.0248 -0.103353,0.0465 -0.04547,0.0217 -0.119889,0.0455 -0.06305,0.0196 -0.13746,0.0331 -0.07338,0.0145 -0.162264,0.0145 -0.167431,0 -0.304891,-0.0465 -0.136425,-0.0476 -0.237711,-0.1478 -0.09922,-0.0982 -0.15503,-0.24908 -0.05581,-0.15193 -0.05581,-0.35243 0,-0.19017 0.05374,-0.34003 0.05374,-0.14986 0.15503,-0.25322 0.09819,-0.10025 0.236678,-0.15296 0.139526,-0.0527 0.309025,-0.0527 0.124023,0 0.247013,0.03 0.124024,0.03 0.274919,0.10542 v 0.24288 h -0.0155 q -0.127124,-0.10645 -0.252181,-0.15503 -0.125057,-0.0486 -0.267684,-0.0486 -0.116789,0 -0.21084,0.0382 -0.09302,0.0372 -0.166398,0.11679 -0.07131,0.0775 -0.111621,0.19637 -0.03927,0.11782 -0.03927,0.27285 0,0.16226 0.04341,0.27905 0.04444,0.11679 0.113688,0.19017 0.07235,0.0765 0.168465,0.11369 0.09715,0.0362 0.204639,0.0362 0.147795,0 0.276986,-0.0506 0.129191,-0.0506 0.241845,-0.15193 h 0.01447 z"
         style="font-style:normal;font-variant:normal;font-weight:normal;font-stretch:normal;font-size:2.11666656px;font-family:sans-serif;-inkscape-font-specification:'sans-serif, Normal';font-variant-ligatures:normal;font-variant-caps:normal;font-variant-numeric:normal;font-feature-settings:normal;text-align:start;writing-mode:lr-tb;text-anchor:start;fill:#ffffff;fill-opacity:1;stroke-width:0.26458332px"
         id="path930"
         inkscape:connector-curvature="0" />
    </g>
  </g>
</svg>
