<?xml version="1.0" encoding="UTF-8" standalone="no"?>
<svg
   xmlns:dc="http://purl.org/dc/elements/1.1/"
   xmlns:cc="http://creativecommons.org/ns#"
   xmlns:rdf="http://www.w3.org/1999/02/22-rdf-syntax-ns#"
   xmlns:svg="http://www.w3.org/2000/svg"
   xmlns="http://www.w3.org/2000/svg"
   xmlns:sodipodi="http://sodipodi.sourceforge.net/DTD/sodipodi-0.dtd"
   xmlns:inkscape="http://www.inkscape.org/namespaces/inkscape"
   width="13mm"
   height="5mm"
   viewBox="0 0 13 5"
   version="1.1"
   id="svg8"
   inkscape:version="1.0 (4035a4fb49, 2020-05-01)"
   sodipodi:docname="TAPE.svg">
  <defs
     id="defs2" />
  <sodipodi:namedview
     id="base"
     pagecolor="#ffffff"
     bordercolor="#666666"
     borderopacity="1.0"
     inkscape:pageopacity="0.0"
     inkscape:pageshadow="2"
     inkscape:zoom="22.4"
     inkscape:cx="27.550355"
     inkscape:cy="21.576482"
     inkscape:document-units="mm"
     inkscape:current-layer="layer1"
     inkscape:document-rotation="0"
     showgrid="false"
     width="15mm"
     inkscape:pagecheckerboard="true"
     inkscape:window-width="2560"
     inkscape:window-height="1377"
     inkscape:window-x="-8"
     inkscape:window-y="-8"
     inkscape:window-maximized="1" />
  <metadata
     id="metadata5">
    <rdf:RDF>
      <cc:Work
         rdf:about="">
        <dc:format>image/svg+xml</dc:format>
        <dc:type
           rdf:resource="http://purl.org/dc/dcmitype/StillImage" />
        <dc:title></dc:title>
      </cc:Work>
    </rdf:RDF>
  </metadata>
  <g
     inkscape:label="Calque 1"
     inkscape:groupmode="layer"
     id="layer1">
    <path
       style="fill:#ffffec;fill-opacity:1;stroke:none;stroke-width:0.709083;stroke-miterlimit:4;stroke-dasharray:none;stroke-opacity:1"
       d="m 12.222765,4.6854637 c -0.219806,0.00142 -0.98437,0.010826 -1.764292,0.021692 -0.6841947,0.00954 -1.2445302,0.016642 -1.6106008,0.020396 -0.5949492,0.0061 -0.6371739,0.00658 -0.7440441,0.00839 -0.058235,9.761e-4 -0.3057029,0.00426 -0.5499296,0.00727 -0.244227,0.00301 -0.5001686,0.00642 -0.5687597,0.00761 -0.068591,0.00116 -0.1948286,0.00231 -0.2805293,0.00262 -0.0857,1.916e-4 -0.5549665,0.00614 -1.0428133,0.013119 -0.4878469,0.00695 -1.0741021,0.014482 -1.3027898,0.016696 -0.2286878,0.00231 -0.5506129,0.00629 -0.7153885,0.0091 -0.3834814,0.00652 -1.320219,0.018088 -1.746275,0.021598 -0.1814584,0.00146 -0.4419512,0.00457 -0.5788727,0.00687 -0.1369217,0.00231 -0.31912264,0.00454 -0.4048913,0.00496 -0.0857692,2.906e-4 -0.27552928,0.00231 -0.42169089,0.00447 -0.14616123,0.00205 -0.26882962,-0.0061 -0.27259629,-0.018031 -0.004468,-0.014166 0.0622674,-0.1243379 0.19217424,-0.3172283 L 0.61048826,4.1994844 0.46621168,3.954524 C 0.38686092,3.8197953 0.31431244,3.6957998 0.30499538,3.6789777 0.28890746,3.6499261 0.29813302,3.6347127 0.48881871,3.3759774 L 0.68958203,3.1035616 0.55602447,2.8724146 C 0.48256705,2.7452815 0.41065972,2.6188573 0.39622963,2.5914698 L 0.36999426,2.5416723 0.56410801,2.2779014 C 0.70013245,2.0930621 0.75706126,2.0059764 0.75441285,1.9869888 0.7523201,1.9720636 0.6807839,1.8423495 0.59544632,1.6987339 L 0.44028691,1.4376169 0.63575543,1.1718779 C 0.74326337,1.0257208 0.83142947,0.89501664 0.83168931,0.88143743 0.83194568,0.86785221 0.76157542,0.73925873 0.67531164,0.59567078 0.52744619,0.34954642 0.51948392,0.33270225 0.53621515,0.3014228 0.5540713,0.26803334 0.64316331,0.26440325 1.7025807,0.25388399 c 0.2286481,-0.002265 0.5458634,-0.006242 0.7049244,-0.008841 0.5038235,-0.008208 2.0393337,-0.0271926 2.1812722,-0.0269661 0.074992,1.1583e-4 0.3356166,-0.003105 0.5791665,-0.007194 0.24355,-0.004087 0.504111,-0.007415 0.5790247,-0.007415 0.1560509,-4.9e-6 0.8630061,-0.008857 1.3030432,-0.016309 0.1641103,-0.002789 0.4898168,-0.00694 0.7237922,-0.009254 0.2339767,-0.002314 0.6945042,-0.00789 1.0233942,-0.0123909 0.3288908,-0.0045 0.6589027,-0.008841 0.7333589,-0.009617 0.756809,-0.00797 3.050706,-0.0369387 3.121275,-0.03942 0.06043,-0.002123 0.09913,0.009078 0.114473,0.0331249 l 0.02318,0.0363273 -0.194402,0.28238444 -0.194408,0.28237953 0.129598,0.22226768 c 0.07127,0.12224806 0.143749,0.24612356 0.161048,0.27528166 l 0.03145,0.053015 -0.200236,0.261732 c -0.114645,0.1498542 -0.198947,0.2709044 -0.197226,0.2831896 0.0017,0.011804 0.0728,0.1407467 0.158098,0.2865417 0.102743,0.1756117 0.151399,0.2706904 0.144156,0.2816982 -0.006,0.00915 -0.09535,0.1347573 -0.198512,0.2791949 -0.173178,0.242414 -0.186349,0.2648199 -0.171553,0.2917342 0.0089,0.016037 0.08096,0.1393872 0.160303,0.2741157 l 0.144275,0.2449604 -0.189145,0.2677514 c -0.104036,0.1472446 -0.193905,0.2774467 -0.199732,0.2892771 -0.008,0.01622 0.03009,0.085289 0.154579,0.2803958 l 0.165174,0.2588741 -0.02955,0.041731 c -0.02341,0.033053 -0.07345,0.042015 -0.240637,0.04309 z"
       id="path863" />
    <path
       style="fill:#000000;stroke-width:1"
       id="path861"
       d="" />
  </g>
</svg>
