<?xml version="1.0" encoding="UTF-8" standalone="no"?>
<svg
   xmlns:dc="http://purl.org/dc/elements/1.1/"
   xmlns:cc="http://creativecommons.org/ns#"
   xmlns:rdf="http://www.w3.org/1999/02/22-rdf-syntax-ns#"
   xmlns:svg="http://www.w3.org/2000/svg"
   xmlns="http://www.w3.org/2000/svg"
   xmlns:sodipodi="http://sodipodi.sourceforge.net/DTD/sodipodi-0.dtd"
   xmlns:inkscape="http://www.inkscape.org/namespaces/inkscape"
   id="svg49872"
   version="1.1"
   viewBox="0 0 8.0000003 8.0000001"
   height="8mm"
   width="8mm"
   sodipodi:docname="BlackKnobBidoo.svg"
   inkscape:version="0.92.3 (2405546, 2018-03-11)">
  <sodipodi:namedview
     pagecolor="#ffffff"
     bordercolor="#666666"
     borderopacity="1"
     objecttolerance="10"
     gridtolerance="10"
     guidetolerance="10"
     inkscape:pageopacity="0"
     inkscape:pageshadow="2"
     inkscape:window-width="3840"
     inkscape:window-height="2066"
     id="namedview20"
     showgrid="false"
     inkscape:zoom="39.437466"
     inkscape:cx="8.2142948"
     inkscape:cy="17.637643"
     inkscape:window-x="-11"
     inkscape:window-y="-11"
     inkscape:window-maximized="1"
     inkscape:current-layer="svg49872" />
  <defs
     id="defs49866">
    <clipPath
       id="clip12">
      <path
         id="path28860"
         d="m 143,129.75 h 3 V 158 h -3 z m 0,0" />
    </clipPath>
    <clipPath
       id="clip11">
      <path
         id="path28857"
         d="m 117.39453,129.75 h 54 v 54.00391 h -54 z m 0,0" />
    </clipPath>
    <clipPath
       id="clip150">
      <path
         id="path29465"
         d="m 176,208.92578 h 2 V 228 h -2 z m 0,0" />
    </clipPath>
    <clipPath
       id="clip149">
      <path
         id="path29462"
         d="m 159.27734,208.92578 h 36 v 36 h -36 z m 0,0" />
    </clipPath>
    <clipPath
       id="clip142">
      <path
         id="path29320"
         d="m 110,208.92578 h 3 V 228 h -3 z m 0,0" />
    </clipPath>
    <clipPath
       id="clip141">
      <path
         id="path29317"
         d="m 93.511719,208.92578 h 36.000001 v 36 H 93.511719 Z m 0,0" />
    </clipPath>
  </defs>
  <metadata
     id="metadata49869">
    <rdf:RDF>
      <cc:Work
         rdf:about="">
        <dc:format>image/svg+xml</dc:format>
        <dc:type
           rdf:resource="http://purl.org/dc/dcmitype/StillImage" />
        <dc:title />
      </cc:Work>
    </rdf:RDF>
  </metadata>
  <path
     id="bidooKnob"
     d="M 7.7499955,3.994306 A 3.7499999,3.7499999 0 0 1 4.0058249,7.7499954 3.7499999,3.7499999 0 0 1 0.25000486,4.005956 3.7499999,3.7499999 0 0 1 3.9939131,0.25000505 3.7499999,3.7499999 0 0 1 7.7499947,3.9937821"
     style="opacity:1;fill:#2a5775;fill-opacity:1;fill-rule:evenodd;stroke:#6b6b6b;stroke-width:0.49999994;stroke-linecap:butt;stroke-linejoin:miter;stroke-miterlimit:4;stroke-dasharray:none;stroke-dashoffset:0;stroke-opacity:1"
     inkscape:connector-curvature="0">
    <title
       id="title826">bidooKnob</title>
  </path>
  <path
     id="rect829"
     d="m 4,0.6239308 h -10e-8 V 4.0000001 H 4 Z"
     style="opacity:1;fill:none;fill-opacity:1;fill-rule:evenodd;stroke:#ffffff;stroke-width:0.49999997;stroke-linecap:butt;stroke-linejoin:miter;stroke-miterlimit:4;stroke-dasharray:none;stroke-dashoffset:0;stroke-opacity:1"
     inkscape:connector-curvature="0" />
  <path
     id="bidooKnob-3"
     d="M 7.2499961,3.9950653 A 3.2499997,3.2499999 0 0 1 4.0050479,7.2499959 3.2499997,3.2499999 0 0 1 0.75000422,4.0051619 3.2499997,3.2499999 0 0 1 3.9947246,0.75000441 3.2499997,3.2499999 0 0 1 7.2499951,3.9946111"
     style="opacity:1;fill:none;fill-opacity:1;fill-rule:evenodd;stroke:#ffffff;stroke-width:0.5;stroke-linecap:butt;stroke-linejoin:miter;stroke-miterlimit:4;stroke-dasharray:none;stroke-dashoffset:0;stroke-opacity:1"
     inkscape:connector-curvature="0">
    <title
       id="title826-0">bidooKnob</title>
  </path>
</svg>
