<?xml version="1.0" encoding="UTF-8" standalone="no"?>
<svg
   xmlns:dc="http://purl.org/dc/elements/1.1/"
   xmlns:cc="http://creativecommons.org/ns#"
   xmlns:rdf="http://www.w3.org/1999/02/22-rdf-syntax-ns#"
   xmlns:svg="http://www.w3.org/2000/svg"
   xmlns="http://www.w3.org/2000/svg"
   xmlns:xlink="http://www.w3.org/1999/xlink"
   xmlns:sodipodi="http://sodipodi.sourceforge.net/DTD/sodipodi-0.dtd"
   xmlns:inkscape="http://www.inkscape.org/namespaces/inkscape"
   width="19mm"
   height="19mm"
   viewBox="0 0 19 19"
   version="1.1"
   id="svg49872"
   sodipodi:docname="HugeBlueKnobBidoo-bg.svg"
   inkscape:version="1.0 (4035a4fb49, 2020-05-01)">
  <sodipodi:namedview
     pagecolor="#ffffff"
     bordercolor="#666666"
     borderopacity="1"
     objecttolerance="10"
     gridtolerance="10"
     guidetolerance="10"
     inkscape:pageopacity="0"
     inkscape:pageshadow="2"
     inkscape:window-width="3840"
     inkscape:window-height="2066"
     id="namedview19"
     showgrid="false"
     inkscape:zoom="6.572807"
     inkscape:cx="0.063396818"
     inkscape:cy="46.775266"
     inkscape:window-x="-11"
     inkscape:window-y="-11"
     inkscape:window-maximized="1"
     inkscape:current-layer="svg49872"
     inkscape:document-rotation="0" />
  <defs
     id="defs49866">
    <clipPath
       id="clip12">
      <path
         d="m 143,129.75 h 3 V 158 h -3 z m 0,0"
         id="path28860" />
    </clipPath>
    <clipPath
       id="clip11">
      <path
         d="m 117.39453,129.75 h 54 v 54.00391 h -54 z m 0,0"
         id="path28857" />
    </clipPath>
    <clipPath
       id="clip150">
      <path
         d="m 176,208.92578 h 2 V 228 h -2 z m 0,0"
         id="path29465" />
    </clipPath>
    <clipPath
       id="clip149">
      <path
         d="m 159.27734,208.92578 h 36 v 36 h -36 z m 0,0"
         id="path29462" />
    </clipPath>
    <clipPath
       id="clip142">
      <path
         d="m 110,208.92578 h 3 V 228 h -3 z m 0,0"
         id="path29320" />
    </clipPath>
    <clipPath
       id="clip141">
      <path
         d="m 93.511719,208.92578 h 36.000001 v 36 H 93.511719 Z m 0,0"
         id="path29317" />
    </clipPath>
    <linearGradient
       inkscape:collect="always"
       xlink:href="#linearGradient940"
       id="linearGradient934"
       x1="6.3499999"
       y1="11.377084"
       x2="6.3499999"
       y2="3.96875"
       gradientUnits="userSpaceOnUse" />
    <linearGradient
       id="linearGradient940"
       inkscape:collect="always">
      <stop
         id="stop936"
         offset="0"
         style="stop-color:#000000;stop-opacity:0.62127662" />
      <stop
         id="stop938"
         offset="1"
         style="stop-color:#000000;stop-opacity:0.01134752" />
    </linearGradient>
  </defs>
  <metadata
     id="metadata49869">
    <rdf:RDF>
      <cc:Work
         rdf:about="">
        <dc:format>image/svg+xml</dc:format>
        <dc:type
           rdf:resource="http://purl.org/dc/dcmitype/StillImage" />
        <dc:title />
      </cc:Work>
    </rdf:RDF>
  </metadata>
  <path
     id="paath31010907-1"
     d="M 9.5462499,0.75012574 A 8.7500855,8.7499113 44.761784 0 1 18.249878,9.5461213 8.7500855,8.7499113 44.761784 0 1 9.4543589,18.249878 8.7500855,8.7499113 44.761784 0 1 0.75011983,9.4544863 8.7500855,8.7499113 44.761784 0 1 9.5450379,0.75011944"
     style="opacity:1;fill:none;fill-opacity:1;fill-rule:evenodd;stroke:#ffffff;stroke-width:0.50000003;stroke-linecap:butt;stroke-linejoin:round;stroke-miterlimit:4;stroke-dasharray:none;stroke-dashoffset:0;stroke-opacity:1"
     inkscape:connector-curvature="0" />
  <path
     style="opacity:1;mix-blend-mode:normal;fill:#2a5775;fill-opacity:1;fill-rule:evenodd;stroke:#100e0e;stroke-width:0.499999;stroke-linecap:butt;stroke-linejoin:round;stroke-miterlimit:4;stroke-dasharray:none;stroke-dashoffset:0;stroke-opacity:0.720567"
     d="M 9.5488921,0.25013544 A 9.2500894,9.2499044 44.439695 0 1 18.749869,9.5487557 9.2500894,9.2499044 44.439695 0 1 9.4517481,18.74987 9.2500894,9.2499044 44.439695 0 1 0.25012814,9.4518855 9.2500894,9.2499044 44.439695 0 1 9.5476101,0.25012744"
     id="bidooKnob"
     inkscape:label="bidooKnob">
    <title
       id="title848">bidooKnob</title>
  </path>
  <path
     inkscape:label="bidooKnob"
     id="bidooKnob-2"
     d="M 9.5488893,0.25013498 A 9.2500882,9.2499036 44.842576 0 1 18.749869,9.5487566 9.2500882,9.2499036 44.842576 0 1 9.4517463,18.74987 9.2500882,9.2499036 44.842576 0 1 0.25012829,9.4518864 9.2500882,9.2499036 44.842576 0 1 9.5476083,0.25012798"
     style="opacity:1;mix-blend-mode:normal;fill:url(#linearGradient934);fill-opacity:1;fill-rule:evenodd;stroke:#100e0e;stroke-width:0.499999;stroke-linecap:butt;stroke-linejoin:round;stroke-miterlimit:4;stroke-dasharray:none;stroke-dashoffset:0;stroke-opacity:0.720567">
    <title
       id="title848-9">bidooKnob</title>
  </path>
  <path
     inkscape:label="bidooInterior"
     id="bidooInterior"
     d="M 9.541256,1.694903 A 7.805286,7.8051305 44.856525 0 1 17.305102,9.5411391 7.805286,7.8051305 44.856525 0 1 9.4592869,17.305102 7.805286,7.8051305 44.856525 0 1 1.6948964,9.4593987 7.805286,7.8051305 44.856525 0 1 9.5401732,1.6948961"
     style="opacity:1;mix-blend-mode:normal;fill:#2a5775;fill-opacity:1;fill-rule:evenodd;stroke:none;stroke-width:0.288397;stroke-linecap:butt;stroke-linejoin:round;stroke-miterlimit:4;stroke-dasharray:none;stroke-dashoffset:0;stroke-opacity:1">
    <title
       id="title848-0">bidooInterior</title>
  </path>
</svg>
