<?xml version="1.0" encoding="UTF-8" standalone="no"?>
<svg
   xmlns:dc="http://purl.org/dc/elements/1.1/"
   xmlns:cc="http://creativecommons.org/ns#"
   xmlns:rdf="http://www.w3.org/1999/02/22-rdf-syntax-ns#"
   xmlns:svg="http://www.w3.org/2000/svg"
   xmlns="http://www.w3.org/2000/svg"
   xmlns:sodipodi="http://sodipodi.sourceforge.net/DTD/sodipodi-0.dtd"
   xmlns:inkscape="http://www.inkscape.org/namespaces/inkscape"
   width="22"
   height="16"
   viewBox="0 0 5.8208334 4.2333334"
   version="1.1"
   id="svg12484"
   inkscape:version="1.0 (4035a4fb49, 2020-05-01)"
   sodipodi:docname="probBtn_1.svg">
  <defs
     id="defs12478" />
  <sodipodi:namedview
     id="base"
     pagecolor="#ffffff"
     bordercolor="#666666"
     borderopacity="1.0"
     inkscape:pageopacity="0"
     inkscape:pageshadow="2"
     inkscape:zoom="18.195372"
     inkscape:cx="-4.0100307"
     inkscape:cy="0.28952241"
     inkscape:document-units="mm"
     inkscape:current-layer="g12430"
     showgrid="false"
     fit-margin-top="0"
     fit-margin-left="0"
     fit-margin-right="0"
     fit-margin-bottom="0"
     inkscape:window-width="2560"
     inkscape:window-height="1377"
     inkscape:window-x="-8"
     inkscape:window-y="-8"
     inkscape:window-maximized="1"
     units="px"
     inkscape:document-rotation="0" />
  <metadata
     id="metadata12481">
    <rdf:RDF>
      <cc:Work
         rdf:about="">
        <dc:format>image/svg+xml</dc:format>
        <dc:type
           rdf:resource="http://purl.org/dc/dcmitype/StillImage" />
        <dc:title></dc:title>
      </cc:Work>
    </rdf:RDF>
  </metadata>
  <g
     inkscape:label="Layer 1"
     inkscape:groupmode="layer"
     id="layer1"
     transform="translate(-87.43441,-107.81369)">
    <g
       transform="matrix(0.27270608,0,0,-0.27270608,12.503198,432.85055)"
       id="g12430"
       style="stroke-width:1.29362">
      <path
         style="opacity:1;fill:#ffe900;fill-opacity:1;fill-rule:nonzero;stroke:#ff0202;stroke-width:0;stroke-linecap:square;stroke-linejoin:round;stroke-miterlimit:0;stroke-dasharray:none;stroke-dashoffset:0;stroke-opacity:1"
         d="m 274.76912,1191.8945 h 21.34471 v -15.5234 h -21.34471 z"
         id="rect4528"
         inkscape:connector-curvature="0" />
      <g
         style="font-style:normal;font-variant:normal;font-weight:normal;font-stretch:normal;font-size:5.17447px;line-height:125%;font-family:sans-serif;-inkscape-font-specification:'sans-serif, Normal';font-variant-ligatures:normal;font-variant-position:normal;font-variant-caps:normal;font-variant-numeric:normal;font-variant-alternates:normal;font-variant-east-asian:normal;font-feature-settings:normal;font-variation-settings:normal;text-indent:0;text-align:start;text-decoration:none;text-decoration-line:none;text-decoration-style:solid;text-decoration-color:#000000;letter-spacing:0px;word-spacing:0px;text-transform:none;writing-mode:lr-tb;direction:ltr;text-orientation:mixed;dominant-baseline:auto;baseline-shift:baseline;text-anchor:start;white-space:normal;shape-padding:0;shape-margin:0;opacity:1;vector-effect:none;fill:#000000;fill-opacity:1;stroke:none;stroke-width:0.970213px;stroke-linecap:butt;stroke-linejoin:miter;stroke-miterlimit:4;stroke-dasharray:none;stroke-dashoffset:0;stroke-opacity:1;stop-color:#000000;stop-opacity:1"
         id="text840"
         transform="scale(1,-1)"
         aria-label="PRB">
        <path
           id="path842"
           style="font-style:normal;font-variant:normal;font-weight:normal;font-stretch:normal;font-size:7.76171px;font-family:sans-serif;-inkscape-font-specification:'sans-serif, Normal';font-variant-ligatures:normal;font-variant-caps:normal;font-variant-numeric:normal;font-variant-east-asian:normal;stroke-width:0.970213px"
           d="m 281.96426,-1185.2489 q 0,0.3752 -0.13264,0.6974 -0.12886,0.3183 -0.36383,0.5533 -0.29183,0.2918 -0.68977,0.4396 -0.39793,0.144 -1.00432,0.144 h -0.7504 v 2.1034 h -0.7504 v -5.6431 h 1.53112 q 0.50785,0 0.86031,0.087 0.35246,0.083 0.62533,0.2652 0.32214,0.2161 0.49648,0.5382 0.17812,0.3222 0.17812,0.8148 z m -0.78072,0.019 q 0,-0.2918 -0.10232,-0.5079 -0.10233,-0.216 -0.31077,-0.3524 -0.18192,-0.1175 -0.41689,-0.1668 -0.23119,-0.053 -0.58744,-0.053 h -0.74282 v 2.255 h 0.63292 q 0.45478,0 0.73903,-0.08 0.28424,-0.083 0.46236,-0.2615 0.17813,-0.1819 0.25014,-0.3828 0.0758,-0.2009 0.0758,-0.451 z" />
        <path
           id="path844"
           style="font-style:normal;font-variant:normal;font-weight:normal;font-stretch:normal;font-size:7.76171px;font-family:sans-serif;-inkscape-font-specification:'sans-serif, Normal';font-variant-ligatures:normal;font-variant-caps:normal;font-variant-numeric:normal;font-variant-east-asian:normal;stroke-width:0.970213px"
           d="m 287.62637,-1181.3112 h -0.974 l -1.88737,-2.2436 h -1.05738 v 2.2436 h -0.7504 v -5.6431 h 1.58038 q 0.51164,0 0.85273,0.068 0.34109,0.064 0.61396,0.235 0.30699,0.1933 0.47753,0.4889 0.17434,0.2918 0.17434,0.7428 0,0.6102 -0.30699,1.0233 -0.30698,0.4093 -0.84514,0.6177 z m -1.75472,-4.0551 q 0,-0.2426 -0.0872,-0.4283 -0.0834,-0.1895 -0.28045,-0.3184 -0.16297,-0.1099 -0.38657,-0.1516 -0.22361,-0.045 -0.5268,-0.045 h -0.88304 v 2.1299 h 0.75798 q 0.35625,0 0.62154,-0.061 0.26529,-0.064 0.451,-0.235 0.17054,-0.1592 0.25013,-0.3639 0.0834,-0.2084 0.0834,-0.5267 z" />
        <path
           id="path846"
           style="font-style:normal;font-variant:normal;font-weight:normal;font-stretch:normal;font-size:7.76171px;font-family:sans-serif;-inkscape-font-specification:'sans-serif, Normal';font-variant-ligatures:normal;font-variant-caps:normal;font-variant-numeric:normal;font-variant-east-asian:normal;stroke-width:0.970213px"
           d="m 292.61008,-1183.0469 q 0,0.4206 -0.15917,0.7428 -0.15918,0.3221 -0.42826,0.5306 -0.31835,0.2501 -0.70113,0.3562 -0.37899,0.1061 -0.96642,0.1061 h -2.00107 v -5.6431 h 1.67134 q 0.61776,0 0.92474,0.046 0.30698,0.045 0.58743,0.1895 0.31078,0.1629 0.451,0.4206 0.14023,0.254 0.14023,0.6102 0,0.4017 -0.20466,0.686 -0.20465,0.2804 -0.54574,0.451 v 0.03 q 0.57227,0.1175 0.90199,0.5041 0.32972,0.3827 0.32972,0.9702 z m -1.26203,-2.5431 q 0,-0.2046 -0.0682,-0.3448 -0.0682,-0.1403 -0.21981,-0.2274 -0.17813,-0.1024 -0.43205,-0.1251 -0.25392,-0.026 -0.62912,-0.026 h -0.89442 v 1.6296 h 0.97021 q 0.35246,0 0.56091,-0.034 0.20844,-0.038 0.38657,-0.1516 0.17812,-0.1137 0.25013,-0.2918 0.0758,-0.1819 0.0758,-0.4283 z m 0.48132,2.5734 q 0,-0.3411 -0.10233,-0.542 -0.10233,-0.2008 -0.37141,-0.3411 -0.18192,-0.095 -0.44342,-0.1212 -0.25771,-0.03 -0.62912,-0.03 h -1.17866 v 2.0997 h 0.99295 q 0.49269,0 0.80725,-0.049 0.31456,-0.053 0.51543,-0.1895 0.21223,-0.1478 0.31077,-0.3373 0.0985,-0.1895 0.0985,-0.4889 z" />
      </g>
      <path
         style="opacity:1;fill:none;fill-opacity:1;fill-rule:nonzero;stroke:#000000;stroke-width:1.08908;stroke-linecap:square;stroke-linejoin:miter;stroke-miterlimit:6.1;stroke-dasharray:none;stroke-dashoffset:0;stroke-opacity:1"
         d="m 275.31368,1191.3499 h 20.25563 v -14.4344 h -20.25563 z"
         id="rect819"
         inkscape:connector-curvature="0" />
    </g>
  </g>
</svg>
