<?xml version="1.0" encoding="UTF-8" standalone="no"?>
<svg
   xmlns:dc="http://purl.org/dc/elements/1.1/"
   xmlns:cc="http://creativecommons.org/ns#"
   xmlns:rdf="http://www.w3.org/1999/02/22-rdf-syntax-ns#"
   xmlns:svg="http://www.w3.org/2000/svg"
   xmlns="http://www.w3.org/2000/svg"
   xmlns:sodipodi="http://sodipodi.sourceforge.net/DTD/sodipodi-0.dtd"
   xmlns:inkscape="http://www.inkscape.org/namespaces/inkscape"
   sodipodi:docname="speedBtn_1.svg"
   inkscape:version="1.0 (4035a4fb49, 2020-05-01)"
   id="svg12484"
   version="1.1"
   viewBox="0 0 5.8208334 4.2333334"
   height="16"
   width="22">
  <defs
     id="defs12478" />
  <sodipodi:namedview
     inkscape:document-rotation="0"
     units="px"
     inkscape:window-maximized="1"
     inkscape:window-y="-8"
     inkscape:window-x="-8"
     inkscape:window-height="1377"
     inkscape:window-width="2560"
     fit-margin-bottom="0"
     fit-margin-right="0"
     fit-margin-left="0"
     fit-margin-top="0"
     showgrid="false"
     inkscape:current-layer="g12430"
     inkscape:document-units="mm"
     inkscape:cy="0.28952241"
     inkscape:cx="-4.0100307"
     inkscape:zoom="18.195372"
     inkscape:pageshadow="2"
     inkscape:pageopacity="0"
     borderopacity="1.0"
     bordercolor="#666666"
     pagecolor="#ffffff"
     id="base" />
  <metadata
     id="metadata12481">
    <rdf:RDF>
      <cc:Work
         rdf:about="">
        <dc:format>image/svg+xml</dc:format>
        <dc:type
           rdf:resource="http://purl.org/dc/dcmitype/StillImage" />
        <dc:title />
      </cc:Work>
    </rdf:RDF>
  </metadata>
  <g
     transform="translate(-87.43441,-107.81369)"
     id="layer1"
     inkscape:groupmode="layer"
     inkscape:label="Layer 1">
    <g
       style="stroke-width:1.29362"
       id="g12430"
       transform="matrix(0.27270608,0,0,-0.27270608,12.503198,432.85055)">
      <path
         inkscape:connector-curvature="0"
         id="rect4528"
         d="m 274.76912,1191.8945 h 21.34471 v -15.5234 h -21.34471 z"
         style="opacity:1;fill:#ffe900;fill-opacity:1;fill-rule:nonzero;stroke:#ff0202;stroke-width:0;stroke-linecap:square;stroke-linejoin:round;stroke-miterlimit:0;stroke-dasharray:none;stroke-dashoffset:0;stroke-opacity:1" />
      <path
         inkscape:connector-curvature="0"
         id="rect819"
         d="m 275.31368,1191.3499 h 20.25563 v -14.4344 h -20.25563 z"
         style="opacity:1;fill:none;fill-opacity:1;fill-rule:nonzero;stroke:#000000;stroke-width:1.08908;stroke-linecap:square;stroke-linejoin:miter;stroke-miterlimit:6.1;stroke-dasharray:none;stroke-dashoffset:0;stroke-opacity:1" />
      <g
         style="font-style:normal;font-variant:normal;font-weight:normal;font-stretch:normal;font-size:5.17447px;line-height:125%;font-family:sans-serif;-inkscape-font-specification:'sans-serif, Normal';font-variant-ligatures:normal;font-variant-position:normal;font-variant-caps:normal;font-variant-numeric:normal;font-variant-alternates:normal;font-variant-east-asian:normal;font-feature-settings:normal;font-variation-settings:normal;text-indent:0;text-align:start;text-decoration:none;text-decoration-line:none;text-decoration-style:solid;text-decoration-color:#000000;letter-spacing:0px;word-spacing:0px;text-transform:none;writing-mode:lr-tb;direction:ltr;text-orientation:mixed;dominant-baseline:auto;baseline-shift:baseline;text-anchor:start;white-space:normal;shape-padding:0;shape-margin:0;opacity:1;vector-effect:none;fill:#000000;fill-opacity:1;stroke:none;stroke-width:0.970213px;stroke-linecap:butt;stroke-linejoin:miter;stroke-miterlimit:4;stroke-dasharray:none;stroke-dashoffset:0;stroke-opacity:1;stop-color:#000000;stop-opacity:1"
         id="text841"
         transform="scale(1,-1)"
         aria-label="SPD">
        <path
           id="path835"
           style="font-style:normal;font-variant:normal;font-weight:normal;font-stretch:normal;font-size:7.76171px;font-family:sans-serif;-inkscape-font-specification:'sans-serif, Normal';font-variant-ligatures:normal;font-variant-caps:normal;font-variant-numeric:normal;font-variant-east-asian:normal;stroke-width:0.970213px"
           d="m 282.28828,-1182.9219 q 0,0.3298 -0.15539,0.6519 -0.1516,0.3221 -0.42826,0.5457 -0.30319,0.2426 -0.70871,0.379 -0.40173,0.1365 -0.97021,0.1365 -0.61018,0 -1.09907,-0.1137 -0.48511,-0.1137 -0.98917,-0.3373 v -0.9399 h 0.0531 q 0.42826,0.3562 0.98916,0.5495 0.56091,0.1933 1.0536,0.1933 0.69734,0 1.08391,-0.2615 0.39036,-0.2615 0.39036,-0.6973 0,-0.3752 -0.18571,-0.5534 -0.18191,-0.1781 -0.55711,-0.2766 -0.28425,-0.076 -0.61776,-0.1251 -0.32972,-0.049 -0.70113,-0.1251 -0.7504,-0.1591 -1.11423,-0.5419 -0.36004,-0.3866 -0.36004,-1.0043 0,-0.7088 0.59881,-1.1598 0.5988,-0.4547 1.51974,-0.4547 0.59502,0 1.0915,0.1137 0.49647,0.1137 0.87925,0.2804 v 0.8868 h -0.0531 q -0.32214,-0.2728 -0.84893,-0.451 -0.52301,-0.1819 -1.07255,-0.1819 -0.60259,0 -0.97021,0.2502 -0.36383,0.2501 -0.36383,0.6442 0,0.3525 0.18192,0.5534 0.18191,0.2008 0.64049,0.307 0.24255,0.053 0.68976,0.1288 0.44721,0.076 0.75798,0.1554 0.62912,0.1668 0.94747,0.5041 0.31836,0.3373 0.31836,0.9436 z" />
        <path
           id="path837"
           style="font-style:normal;font-variant:normal;font-weight:normal;font-stretch:normal;font-size:7.76171px;font-family:sans-serif;-inkscape-font-specification:'sans-serif, Normal';font-variant-ligatures:normal;font-variant-caps:normal;font-variant-numeric:normal;font-variant-east-asian:normal;stroke-width:0.970213px"
           d="m 287.18482,-1185.2489 q 0,0.3752 -0.13264,0.6974 -0.12886,0.3183 -0.36383,0.5533 -0.29183,0.2918 -0.68977,0.4396 -0.39793,0.144 -1.00432,0.144 h -0.7504 v 2.1034 h -0.7504 v -5.6431 h 1.53112 q 0.50785,0 0.86031,0.087 0.35246,0.083 0.62533,0.2652 0.32214,0.2161 0.49648,0.5382 0.17812,0.3222 0.17812,0.8148 z m -0.78072,0.019 q 0,-0.2918 -0.10232,-0.5079 -0.10233,-0.216 -0.31077,-0.3524 -0.18192,-0.1175 -0.41689,-0.1668 -0.23119,-0.053 -0.58744,-0.053 h -0.74282 v 2.255 h 0.63292 q 0.45478,0 0.73903,-0.08 0.28424,-0.083 0.46236,-0.2615 0.17813,-0.1819 0.25014,-0.3828 0.0758,-0.2009 0.0758,-0.451 z" />
        <path
           id="path839"
           style="font-style:normal;font-variant:normal;font-weight:normal;font-stretch:normal;font-size:7.76171px;font-family:sans-serif;-inkscape-font-specification:'sans-serif, Normal';font-variant-ligatures:normal;font-variant-caps:normal;font-variant-numeric:normal;font-variant-east-asian:normal;stroke-width:0.970213px"
           d="m 292.94547,-1184.1271 q 0,0.7694 -0.3373,1.3947 -0.33352,0.6254 -0.89063,0.9702 -0.38657,0.2388 -0.8641,0.3449 -0.47373,0.1061 -1.25066,0.1061 h -1.425 v -5.6431 h 1.40984 q 0.8262,0 1.3113,0.1213 0.4889,0.1174 0.8262,0.3259 0.57606,0.36 0.89821,0.9588 0.32214,0.5988 0.32214,1.4212 z m -0.78451,-0.011 q 0,-0.6633 -0.23119,-1.118 -0.23118,-0.4548 -0.68976,-0.7163 -0.33351,-0.1895 -0.70871,-0.2615 -0.3752,-0.076 -0.8982,-0.076 h -0.70492 v 4.3546 h 0.70492 q 0.54195,0 0.94368,-0.08 0.40552,-0.08 0.74282,-0.2956 0.42068,-0.2691 0.62912,-0.7088 0.21224,-0.4396 0.21224,-1.099 z" />
      </g>
    </g>
  </g>
</svg>
