<?xml version="1.0" encoding="UTF-8" standalone="no"?>
<svg
   xmlns:dc="http://purl.org/dc/elements/1.1/"
   xmlns:cc="http://creativecommons.org/ns#"
   xmlns:rdf="http://www.w3.org/1999/02/22-rdf-syntax-ns#"
   xmlns:svg="http://www.w3.org/2000/svg"
   xmlns="http://www.w3.org/2000/svg"
   xmlns:xlink="http://www.w3.org/1999/xlink"
   xmlns:sodipodi="http://sodipodi.sourceforge.net/DTD/sodipodi-0.dtd"
   xmlns:inkscape="http://www.inkscape.org/namespaces/inkscape"
   inkscape:version="1.0 (4035a4fb49, 2020-05-01)"
   sodipodi:docname="SpiralKnobBidoo-bg.svg"
   id="svg49872"
   version="1.1"
   viewBox="0 0 10 10"
   height="10mm"
   width="10mm">
  <sodipodi:namedview
     inkscape:document-rotation="0"
     inkscape:current-layer="svg49872"
     inkscape:window-maximized="1"
     inkscape:window-y="-11"
     inkscape:window-x="-11"
     inkscape:cy="21.198946"
     inkscape:cx="11.030002"
     inkscape:zoom="17.66117"
     showgrid="false"
     id="namedview19"
     inkscape:window-height="2066"
     inkscape:window-width="3840"
     inkscape:pageshadow="2"
     inkscape:pageopacity="0"
     guidetolerance="10"
     gridtolerance="10"
     objecttolerance="10"
     borderopacity="1"
     bordercolor="#666666"
     pagecolor="#ffffff" />
  <defs
     id="defs49866">
    <clipPath
       id="clip12">
      <path
         id="path28860"
         d="m 143,129.75 h 3 V 158 h -3 z m 0,0" />
    </clipPath>
    <clipPath
       id="clip11">
      <path
         id="path28857"
         d="m 117.39453,129.75 h 54 v 54.00391 h -54 z m 0,0" />
    </clipPath>
    <clipPath
       id="clip150">
      <path
         id="path29465"
         d="m 176,208.92578 h 2 V 228 h -2 z m 0,0" />
    </clipPath>
    <clipPath
       id="clip149">
      <path
         id="path29462"
         d="m 159.27734,208.92578 h 36 v 36 h -36 z m 0,0" />
    </clipPath>
    <clipPath
       id="clip142">
      <path
         id="path29320"
         d="m 110,208.92578 h 3 V 228 h -3 z m 0,0" />
    </clipPath>
    <clipPath
       id="clip141">
      <path
         id="path29317"
         d="m 93.511719,208.92578 h 36.000001 v 36 H 93.511719 Z m 0,0" />
    </clipPath>
    <linearGradient
       gradientUnits="userSpaceOnUse"
       y2="3.96875"
       x2="6.3499999"
       y1="11.377084"
       x1="6.3499999"
       id="linearGradient934"
       xlink:href="#linearGradient940"
       inkscape:collect="always" />
    <linearGradient
       inkscape:collect="always"
       id="linearGradient940">
      <stop
         style="stop-color:#000000;stop-opacity:0.62127662"
         offset="0"
         id="stop936" />
      <stop
         style="stop-color:#000000;stop-opacity:0.01134752"
         offset="1"
         id="stop938" />
    </linearGradient>
  </defs>
  <metadata
     id="metadata49869">
    <rdf:RDF>
      <cc:Work
         rdf:about="">
        <dc:format>image/svg+xml</dc:format>
        <dc:type
           rdf:resource="http://purl.org/dc/dcmitype/StillImage" />
        <dc:title />
      </cc:Work>
    </rdf:RDF>
  </metadata>
  <path
     inkscape:connector-curvature="0"
     id="paath31010907-5"
     d="M 5.0224644,0.75006139 A 4.250041,4.2499563 44.742406 0 1 9.2499397,5.0224009 4.250041,4.2499563 44.742406 0 1 4.9778311,9.2499398 4.250041,4.2499563 44.742406 0 1 0.75005847,4.9778929 4.250041,4.2499563 44.742406 0 1 5.0218751,0.75005835"
     style="opacity:1;fill:none;fill-opacity:1;fill-rule:evenodd;stroke:#ffffff;stroke-width:0.5;stroke-linecap:butt;stroke-linejoin:round;stroke-miterlimit:4;stroke-dasharray:none;stroke-dashoffset:0;stroke-opacity:1" />
  <path
     inkscape:label="bidooKnob"
     id="bidooKnob"
     d="M 5.0251064,0.25010484 A 4.7500102,4.7499152 44.593336 0 1 9.7498968,5.0250358 4.7500102,4.7499152 44.593336 0 1 4.9752224,9.7498971 4.7500102,4.7499152 44.593336 0 1 0.25010119,4.9752921 4.7500102,4.7499152 44.593336 0 1 5.0244484,0.25010084"
     style="opacity:1;mix-blend-mode:normal;fill:#cd1f00;fill-opacity:1;fill-rule:evenodd;stroke:#100e0e;stroke-width:0.499999;stroke-linecap:butt;stroke-linejoin:round;stroke-miterlimit:4;stroke-dasharray:none;stroke-dashoffset:0;stroke-opacity:0.720567">
    <title
       id="title848">bidooKnob</title>
  </path>
  <path
     style="opacity:1;mix-blend-mode:normal;fill:url(#linearGradient934);fill-opacity:1;fill-rule:evenodd;stroke:#100e0e;stroke-width:0.499999;stroke-linecap:butt;stroke-linejoin:round;stroke-miterlimit:4;stroke-dasharray:none;stroke-dashoffset:0;stroke-opacity:0.720567"
     d="M 5.0251058,0.25010449 A 4.7500097,4.749915 45.066746 0 1 9.7498968,5.0250366 4.7500097,4.749915 45.066746 0 1 4.9752218,9.7498974 4.7500097,4.749915 45.066746 0 1 0.25010119,4.9752928 4.7500097,4.749915 45.066746 0 1 5.0244478,0.25010059"
     id="bidooKnob-2"
     inkscape:label="bidooKnob">
    <title
       id="title848-9">bidooKnob</title>
  </path>
  <path
     style="opacity:1;mix-blend-mode:normal;fill:#cd1f00;fill-opacity:1;fill-rule:evenodd;stroke:none;stroke-width:0.288396;stroke-linecap:butt;stroke-linejoin:round;stroke-miterlimit:4;stroke-dasharray:none;stroke-dashoffset:0;stroke-opacity:1"
     d="M 5.0181804,1.5604653 A 3.4396176,3.4395491 44.702507 0 1 8.4395356,5.0181288 3.4396176,3.4395491 44.702507 0 1 4.9820584,8.439536 3.4396176,3.4395491 44.702507 0 1 1.5604629,4.9821077 3.4396176,3.4395491 44.702507 0 1 5.0177036,1.5604625"
     id="bidooInterior"
     inkscape:label="bidooInterior">
    <title
       id="title848-0">bidooInterior</title>
  </path>
</svg>
